<svg xmlns="http://www.w3.org/2000/svg" width="115" height="114" viewBox="0 0 115 114">
  <g id="TABASCO_Diamond_Logo" transform="translate(-9.24 -10.83)">
    <g id="Grupo_72" data-name="Grupo 72" transform="translate(9.24 10.83)">
      <path id="Trazado_3417" data-name="Trazado 3417" d="M9.24,67.777l57.6,57.053h0l57.4-56.951L66.644,10.83,9.242,67.779Z" transform="translate(-9.24 -10.83)" fill="none"/>
    </g>
    <g id="Grupo_73" data-name="Grupo 73" transform="translate(9.24 10.83)">
      <path id="Trazado_3418" data-name="Trazado 3418" d="M9.24,67.777l57.6,57.053h0l57.4-56.951L66.644,10.83Z" transform="translate(-9.24 -10.83)" fill="#fff"/>
    </g>
    <g id="Grupo_103" data-name="Grupo 103" transform="translate(15.574 16.837)">
      <g id="Grupo_74" data-name="Grupo 74" transform="translate(50.432 41.228)">
        <path id="Trazado_3419" data-name="Trazado 3419" d="M284.44,241.124a.6.6,0,1,1,.176.421.6.6,0,0,1-.176-.421" transform="translate(-284.44 -240.523)" fill="#e1251b"/>
      </g>
      <g id="Grupo_75" data-name="Grupo 75" transform="translate(50.379 41.176)">
        <path id="Trazado_3420" data-name="Trazado 3420" d="M284.812,241.56a.655.655,0,1,1,.658-.654A.655.655,0,0,1,284.812,241.56Zm0-1.19a.532.532,0,1,0,.38.156.536.536,0,0,0-.38-.156Z" transform="translate(-284.16 -240.25)" fill="#e1251b"/>
      </g>
      <g id="Grupo_76" data-name="Grupo 76" transform="translate(38.328 41.267)">
        <path id="Trazado_3421" data-name="Trazado 3421" d="M225.76,241.136c0,.029,9.781-1.071,9.781.088,0,.984-9.781-.118-9.781-.088" transform="translate(-225.76 -240.692)" fill="#e1251b"/>
      </g>
      <g id="Grupo_77" data-name="Grupo 77" transform="translate(53.951 41.267)">
        <path id="Trazado_3422" data-name="Trazado 3422" d="M311.283,241.136c0,.029-9.783-1.071-9.783.088,0,.984,9.783-.118,9.783-.088" transform="translate(-301.5 -240.692)" fill="#e1251b"/>
      </g>
      <g id="Grupo_78" data-name="Grupo 78" transform="translate(38.267 41.207)">
        <path id="Trazado_3423" data-name="Trazado 3423" d="M232.605,240.4c-2.3,0-5.41.293-6.582.4-.246.023-.411.04-.469.042h-.078l.006.12h.074c.062,0,.256.023.548.05,1.287.122,4.7.447,6.978.447,2.059,0,2.3-.268,2.3-.469C235.378,240.738,235.091,240.4,232.605,240.4Zm.477.943c-2.213,0-5.516-.309-6.869-.437,1.285-.12,4.21-.386,6.393-.386,2.308,0,2.653.3,2.653.474C235.258,241.1,235.048,241.343,233.082,241.343Z" transform="translate(-225.476 -240.4)" fill="#e1251b"/>
        <path id="Trazado_3424" data-name="Trazado 3424" d="M311.046,240.853h-.015c-.058,0-.221-.019-.469-.041-1.174-.111-4.286-.4-6.584-.4-2.486,0-2.772.338-2.772.594,0,.2.239.469,2.3.469h0c2.277,0,5.692-.326,6.978-.447.291-.029.487-.048.548-.05h.083v-.06a.062.062,0,0,0-.067-.063Zm-7.541.5c-1.965,0-2.176-.243-2.176-.351,0-.177.344-.474,2.653-.474,2.182,0,5.108.264,6.395.386-1.353.131-4.656.44-6.872.44Z" transform="translate(-285.585 -240.408)" fill="#e1251b"/>
      </g>
      <g id="Grupo_79" data-name="Grupo 79" transform="translate(17.459 58.486)">
        <path id="Trazado_3425" data-name="Trazado 3425" d="M158.173,350.752a33.587,33.587,0,0,1-32.7-25.962h-.887a34.437,34.437,0,0,0,67.165,0h-.9a33.612,33.612,0,0,1-32.686,25.962" transform="translate(-124.59 -324.79)" fill="#e1251b" fill-rule="evenodd"/>
      </g>
      <g id="Grupo_80" data-name="Grupo 80" transform="translate(30.32 58.522)">
        <path id="Trazado_3426" data-name="Trazado 3426" d="M207.662,338.384a21.213,21.213,0,0,1-19.8-13.6l-.926,0a22.076,22.076,0,0,0,41.441,0h-.938a21.219,21.219,0,0,1-19.781,13.6" transform="translate(-186.94 -324.78)" fill="#e1251b" fill-rule="evenodd"/>
      </g>
      <g id="Grupo_81" data-name="Grupo 81" transform="translate(56.458 32.644)">
        <path id="Trazado_3427" data-name="Trazado 3427" d="M315.611,200.278l-.044.392-.627-.281.751-.875-.08.763h.514l.134-1.256-.586-.262-2.009,2.223.512.229.4-.445.905.4-.067.594.514.229.185-1.716Z" transform="translate(-313.664 -198.76)" fill="#e1251b" fill-rule="evenodd"/>
      </g>
      <g id="Grupo_82" data-name="Grupo 82" transform="translate(44.883 31.599)">
        <path id="Trazado_3428" data-name="Trazado 3428" d="M260.378,196.163c-.067-.021-.12-.044-.161-.2-.046-.134-.157-.495-.2-.6a.509.509,0,0,0-.392-.3.768.768,0,0,0,.214-.386h-.5a.366.366,0,0,1-.225.281l-.724.208-.2-.72.714-.2a.285.285,0,0,1,.411.212.459.459,0,0,1,.027.223h.5l.008-.149a1,1,0,0,0-.182-.542.621.621,0,0,0-.718-.268l-1.43.411.786,2.74.53-.153-.311-1.083.621-.177a.291.291,0,0,1,.4.179c.05.2.113.421.159.557a.737.737,0,0,0,.143.235l.569-.165Z" transform="translate(-257.519 -193.691)" fill="#e1251b" fill-rule="evenodd"/>
      </g>
      <g id="Grupo_83" data-name="Grupo 83" transform="translate(38.491 35.063)">
        <path id="Trazado_3429" data-name="Trazado 3429" d="M227.058,210.53l-.508.382.406,1.186h.565l-.307-.831.949.67-.548.413-.093-.25h-.567l.559,1.652.452-.338-.194-.569.792-.6.489.342.449-.335Z" transform="translate(-226.55 -210.53)" fill="#e1251b" fill-rule="evenodd"/>
      </g>
      <g id="Grupo_84" data-name="Grupo 84" transform="translate(39.834 33.242)">
        <path id="Trazado_3430" data-name="Trazado 3430" d="M234.555,201.958l.6,2.143-1.615-1.54-.474.285,2.244,1.974.406-.243-.687-2.906Z" transform="translate(-233.068 -201.67)" fill="#e1251b"/>
      </g>
      <g id="Grupo_85" data-name="Grupo 85" transform="translate(42.346 32.262)">
        <path id="Trazado_3431" data-name="Trazado 3431" d="M245.24,197.624l1.071,2.645,1.856-.751-.186-.454-1.343.544-.275-.68,1.188-.481-.181-.454-1.19.479-.243-.6,1.285-.52-.181-.454Z" transform="translate(-245.24 -196.9)" fill="#e1251b"/>
      </g>
      <g id="Grupo_86" data-name="Grupo 86" transform="translate(47.359 31.118)">
        <path id="Trazado_3432" data-name="Trazado 3432" d="M271.2,191.416l-.359,1.279-.691-1.149-.611.072,1.1,1.674.126,1.048.547-.067-.128-1.052.634-1.883Z" transform="translate(-269.54 -191.338)" fill="#e1251b"/>
      </g>
      <g id="Grupo_87" data-name="Grupo 87" transform="translate(51.362 31.144)">
        <path id="Trazado_3433" data-name="Trazado 3433" d="M289.55,191.468l-.55-.008-.05,2.849.555.008Z" transform="translate(-288.95 -191.46)" fill="#e1251b"/>
      </g>
      <g id="Grupo_88" data-name="Grupo 88" transform="translate(52.294 31.245)">
        <path id="Trazado_3434" data-name="Trazado 3434" d="M295.734,193.113a.826.826,0,0,0-.074-.567,1.155,1.155,0,0,0-.844-.487.881.881,0,0,0-1.11.644.692.692,0,0,0,.371.848c.324.173.848.246.994.462a.354.354,0,0,1-.078.477.7.7,0,0,1-.439.072.641.641,0,0,1-.474-.237.442.442,0,0,1-.072-.305l-.53-.074a1,1,0,0,0,.268.779,1.234,1.234,0,0,0,.625.291,1.54,1.54,0,0,0,.854-.082.937.937,0,0,0,.342-1.215,1.219,1.219,0,0,0-.586-.365,2.738,2.738,0,0,1-.642-.268c-.113-.067-.169-.115-.13-.305.052-.231.262-.3.526-.258.376.06.522.295.485.52Z" transform="translate(-293.472 -192.022)" fill="#e1251b"/>
      </g>
      <g id="Grupo_89" data-name="Grupo 89" transform="translate(54.625 31.649)">
        <path id="Trazado_3435" data-name="Trazado 3435" d="M305.553,193.92l-.784,2.737,1.759.506.134-.469-1.232-.353.648-2.269Z" transform="translate(-304.769 -193.92)" fill="#e1251b"/>
      </g>
      <g id="Grupo_90" data-name="Grupo 90" transform="translate(58.838 33.536)">
        <path id="Trazado_3436" data-name="Trazado 3436" d="M326.735,203.1l-1.551,2.391.464.3,1.081-1.667-.173,2.257.454.295,1.553-2.389-.462-.3-1.064,1.642.155-2.234Z" transform="translate(-325.184 -203.1)" fill="#e1251b"/>
      </g>
      <g id="Grupo_91" data-name="Grupo 91" transform="translate(48.47 35.952)">
        <path id="Trazado_3437" data-name="Trazado 3437" d="M274.93,214.85V217.7h1.834v-.489h-1.285V214.85Z" transform="translate(-274.93 -214.85)" fill="#e1251b"/>
      </g>
      <g id="Grupo_92" data-name="Grupo 92" transform="translate(53.852 38.225)">
        <rect id="Rectángulo_5" data-name="Rectángulo 5" width="0.55" height="0.569" fill="#e1251b"/>
      </g>
      <g id="Grupo_93" data-name="Grupo 93" transform="translate(60.968 35.132)">
        <path id="Trazado_3438" data-name="Trazado 3438" d="M337.88,212.831l-.126.163a1.517,1.517,0,0,1-.472.4.577.577,0,0,1-.685-.088l-.335-.291,1.228-1.411.376.326a.5.5,0,0,1,.192.514,1.014,1.014,0,0,1-.18.392h.635l.031-.084a.943.943,0,0,0-.21-1.062l-.938-.817-1.869,2.152.911.794a.96.96,0,0,0,.9.122,2.058,2.058,0,0,0,.877-.633,1.694,1.694,0,0,0,.295-.469h-.635Z" transform="translate(-335.527 -210.868)" fill="#e1251b" fill-rule="evenodd"/>
      </g>
      <g id="Grupo_94" data-name="Grupo 94" transform="translate(50.785 35.952)">
        <path id="Trazado_3439" data-name="Trazado 3439" d="M287.661,216.282l.116.357h-.685l.328-1.106.243.749h.536l-.46-1.432H287.1l-.938,2.849h.561l.189-.571h.992l.182.571h.561l-.454-1.417Z" transform="translate(-286.164 -214.85)" fill="#e1251b"/>
      </g>
      <g id="Grupo_95" data-name="Grupo 95" transform="translate(54.605 61.605)">
        <path id="Trazado_3440" data-name="Trazado 3440" d="M304.67,339.68v5.6h1.151v-3.9l2.265,3.9h1.134v-5.6h-1.151v3.845L305.8,339.68Z" transform="translate(-304.67 -339.68)" fill="#e1251b"/>
      </g>
      <g id="Grupo_96" data-name="Grupo 96" transform="translate(38.221 61.608)">
        <path id="Trazado_3441" data-name="Trazado 3441" d="M228.592,343.712c-.076.588-.536.6-.854.6h-1.353v-1.442h1.566c.216,0,.652.033.652.66a.968.968,0,0,1-.01.177H229.7a1.769,1.769,0,0,0-.67-1.411,1.5,1.5,0,0,0,.532-1.153v-.058h-1.12a.862.862,0,0,1,.025.19c0,.443-.285.636-.773.636H226.39v-1.272h1.368c.34,0,.617.115.689.447h1.119c-.023-.335-.237-1.406-2.015-1.406h-2.31v5.594h2.523a2.184,2.184,0,0,0,1.357-.388,1.526,1.526,0,0,0,.584-1.18h-1.112Z" transform="translate(-225.241 -339.683)" fill="#e1251b" fill-rule="evenodd"/>
      </g>
      <g id="Grupo_97" data-name="Grupo 97" transform="translate(43.699 61.607)">
        <path id="Trazado_3442" data-name="Trazado 3442" d="M256.167,344.613c-.01-.281-.025-1.019-.056-1.25a1.023,1.023,0,0,0-.619-.775,1.356,1.356,0,0,0,.759-.881,1.707,1.707,0,0,0,.058-.577H255.2l.008.149a.74.74,0,0,1-.683.838h-1.57v-1.467h1.555c.449,0,.644.173.689.481h1.112a2.574,2.574,0,0,0-.111-.55,1.287,1.287,0,0,0-1.287-.889H251.8v5.594h1.153v-2.21H254.3c.4,0,.674.184.687.559-.012.409-.012.854,0,1.13a1.312,1.312,0,0,0,.155.522h1.234v-.21c-.122-.076-.212-.145-.212-.46" transform="translate(-251.8 -339.689)" fill="#e1251b" fill-rule="evenodd"/>
      </g>
      <g id="Grupo_98" data-name="Grupo 98" transform="translate(48.784 61.607)">
        <path id="Trazado_3443" data-name="Trazado 3443" d="M280.8,342.817h-1.12l.13.384h-1.436l.693-2.168.613,1.784h1.12l-1.071-3.127H278.4l-1.951,5.594h1.178l.39-1.122h2.069l.384,1.122h1.174Z" transform="translate(-276.451 -339.69)" fill="#e1251b" fill-rule="evenodd"/>
      </g>
      <g id="Grupo_99" data-name="Grupo 99" transform="translate(60.172 61.605)">
        <path id="Trazado_3444" data-name="Trazado 3444" d="M335.122,342.063c.01.105.015.212.015.317a2.88,2.88,0,0,1-.2,1.188,1.205,1.205,0,0,1-1.205.751h-.92v-3.674h1.035a1.047,1.047,0,0,1,1,.514,1.892,1.892,0,0,1,.268.9h1.167a2.765,2.765,0,0,0-.241-1.071,1.969,1.969,0,0,0-1.786-1.3h-2.6v5.594h2.525a2.023,2.023,0,0,0,1.595-.984,3.8,3.8,0,0,0,.514-2.065l0-.171Z" transform="translate(-331.66 -339.687)" fill="#e1251b" fill-rule="evenodd"/>
      </g>
      <g id="Grupo_100" data-name="Grupo 100">
        <path id="Trazado_3445" data-name="Trazado 3445" d="M91.118,141.935l-.346-.348L39.95,90.944,40.3,90.6,91.118,39.95l.346.348,50.818,50.646-.349.345Zm-49.78-50.99L91.116,140.55l49.778-49.606L91.118,41.336Z" transform="translate(-39.95 -39.95)" fill="#e1251b"/>
      </g>
      <g id="Grupo_101" data-name="Grupo 101" transform="translate(17.685 16.674)">
        <path id="Trazado_3446" data-name="Trazado 3446" d="M126.554,147.092a33.565,33.565,0,0,1,64.958,0h.889a34.421,34.421,0,0,0-66.728,0Z" transform="translate(-125.674 -121.137)" fill="#e1251b" fill-rule="evenodd"/>
      </g>
      <g id="Grupo_102" data-name="Grupo 102" transform="translate(30.695 28.99)">
        <path id="Trazado_3447" data-name="Trazado 3447" d="M189.682,194.594a21.2,21.2,0,0,1,38.831,0h.938a22.054,22.054,0,0,0-40.7,0Z" transform="translate(-188.751 -181.04)" fill="#e1251b" fill-rule="evenodd"/>
      </g>
    </g>
    <g id="Grupo_135" data-name="Grupo 135" transform="translate(24.857 36.234)">
      <g id="Grupo_104" data-name="Grupo 104" transform="translate(62.81 15.293)">
        <path id="Trazado_3448" data-name="Trazado 3448" d="M395.283,211.823a3.567,3.567,0,0,1-1.423,1.562c-1.226.767-2.591.8-3.042.076s.171-1.935,1.4-2.706,2.593-.8,3.046-.074a1.258,1.258,0,0,1,.017,1.142H396.5a2.235,2.235,0,0,0-.185-1.838c-.788-1.268-2.9-1.374-4.72-.239s-2.645,3.08-1.852,4.346,2.9,1.372,4.72.237a4.63,4.63,0,0,0,2.04-2.506Z" transform="translate(-389.445 -208.96)" fill="#00833e" fill-rule="evenodd"/>
      </g>
      <g id="Grupo_105" data-name="Grupo 105" transform="translate(64.641 21.728)">
        <path id="Trazado_3449" data-name="Trazado 3449" d="M398.658,241.351a.633.633,0,1,1,.854-.262.633.633,0,0,1-.854.262" transform="translate(-398.32 -240.158)" fill="#00833e"/>
      </g>
      <g id="Grupo_106" data-name="Grupo 106" transform="translate(12.992 13.487)">
        <path id="Trazado_3450" data-name="Trazado 3450" d="M154.319,209.724l.652-1.248-3.872-2.02,3.511-.392-1.939-3.388,4.121,2.3.613-1.138-6.3-3.645-.648,1.25,1.621,3.224-3.511.555-.619,1.186Z" transform="translate(-147.946 -200.195)" fill="#00833e"/>
      </g>
      <g id="Grupo_107" data-name="Grupo 107" transform="translate(22.872 14.342)">
        <path id="Trazado_3451" data-name="Trazado 3451" d="M196.233,205.768a.752.752,0,1,1,.575.052.753.753,0,0,1-.575-.052" transform="translate(-195.83 -204.348)" fill="#00833e"/>
      </g>
      <g id="Grupo_108" data-name="Grupo 108" transform="translate(17.696 9.954)">
        <path id="Trazado_3452" data-name="Trazado 3452" d="M173.52,183.384a1.382,1.382,0,0,0-1.122-.254,1.79,1.79,0,0,0-1.205.693,2.128,2.128,0,0,0-.3,1.97,2.338,2.338,0,0,0,1.325,1.455,2.037,2.037,0,0,0,2.467-.26,1.568,1.568,0,0,0,.573-.982,1.551,1.551,0,0,0-.452-1.5l-.757.728c.4.642.181.916-.025,1.1-.254.235-.674.19-1.13.01a1.8,1.8,0,0,1-.978-.924.887.887,0,0,1,.149-.986.932.932,0,0,1,1.126-.054Z" transform="translate(-170.774 -183.101)" fill="#00833e"/>
      </g>
      <g id="Grupo_109" data-name="Grupo 109" transform="translate(22.139 6.412)">
        <path id="Trazado_3453" data-name="Trazado 3453" d="M196.8,172.605l-4.518-5.749,1.219-.947,4.425,5.782Z" transform="translate(-192.28 -165.909)" fill="#00833e"/>
      </g>
      <g id="Grupo_110" data-name="Grupo 110" transform="translate(25.031 4.266)">
        <path id="Trazado_3454" data-name="Trazado 3454" d="M206.3,156.3l1.335-.8,3.249,4.994,1.786-.959.573,1.019-2.973,1.69Z" transform="translate(-206.3 -155.5)" fill="#00833e"/>
      </g>
      <g id="Grupo_111" data-name="Grupo 111" transform="translate(29.982 0.853)">
        <path id="Trazado_3455" data-name="Trazado 3455" d="M232.862,147.238l-2.562-6.786,1.4-.532.79,2.015,2.032-.67a13.056,13.056,0,0,0-.573-1.98l1.459-.34,2.067,6.92s-1.262.365-1.331.25-1.05-3.428-1.087-3.451l-2.158.609,1.246,3.451-1.285.518" transform="translate(-230.3 -138.944)" fill="#00833e"/>
      </g>
      <g id="Grupo_112" data-name="Grupo 112" transform="translate(37.697 0)">
        <path id="Trazado_3456" data-name="Trazado 3456" d="M267.7,135.041l4.482-.221.012,1.268-2.886.126.084,1.126,2.277-.111.027,1.314-2.238.145.118,2.284,2.766-.113.067,1.232-4.121.233Z" transform="translate(-267.7 -134.82)" fill="#00833e"/>
      </g>
      <g id="Grupo_113" data-name="Grupo 113" transform="translate(43.432 0.111)">
        <path id="Trazado_3457" data-name="Trazado 3457" d="M296.428,135.36l1.54.186,1.617,4.493.951-4.008,1.442.289-1.83,7.058-1.031-.252-1.61-4.779-.573,4.379-1.44-.138Z" transform="translate(-295.494 -135.36)" fill="#00833e"/>
      </g>
      <g id="Grupo_114" data-name="Grupo 114" transform="translate(55.614 4.222)">
        <path id="Trazado_3458" data-name="Trazado 3458" d="M354.56,162.671s1.828-2.3,1.822-2.383.349-5,.349-5l1.455,1.011-.173,2.939,2.774-1.079,1.169,1.1-4.3,1.782-1.929,2.484-1.167-.858" transform="translate(-354.56 -155.29)" fill="#00833e"/>
      </g>
      <g id="Grupo_115" data-name="Grupo 115" transform="translate(59.742 10.627)">
        <path id="Trazado_3459" data-name="Trazado 3459" d="M380.555,190.663c.844-.846,2.069-2.061.835-3.583-.846-1.046-2.385-1.174-4.781.767-2.065,1.671-2.535,3.311-1.479,4.5,1.194,1.353,2.639.6,3.729-.281l-.7-.846c-.926.716-1.617.79-1.972.353-.33-.406-.584-1.077,1.479-2.746,2.131-1.728,2.454-.982,2.673-.705.262.326.338.708-.7,1.549Z" transform="translate(-374.584 -186.331)" fill="#00833e"/>
      </g>
      <g id="Grupo_116" data-name="Grupo 116" transform="translate(49.475 1.69)">
        <path id="Trazado_3460" data-name="Trazado 3460" d="M327.4,143.01l1.454.542.522,4.742,1.858-3.672,1.335.617-3.46,6.4a5.583,5.583,0,0,1-.909-.454c.067-.035-.456-5.023-.456-5.023l-1.578,4.123-1.367-.469Z" transform="translate(-324.8 -143.01)" fill="#00833e"/>
      </g>
      <g id="Grupo_117" data-name="Grupo 117" transform="translate(52.096 53.315)">
        <path id="Trazado_3461" data-name="Trazado 3461" d="M342.126,396.5h-1.772l.485.485-1.526.745-.392-2.669,1.434,1.44h1.771l-3.2-3.21-1.411.691.829,6.958,1.248-.607-.165-1.394,2.2-1.077.988.994,1.248-.613Z" transform="translate(-337.516 -393.29)" fill="#00833e" fill-rule="evenodd"/>
      </g>
      <g id="Grupo_118" data-name="Grupo 118" transform="translate(12.343 39.206)">
        <path id="Trazado_3462" data-name="Trazado 3462" d="M150.958,327.932a.8.8,0,0,1-.082.99,1.483,1.483,0,0,1-.856.355.841.841,0,0,1-.825-.425l-.666-1.37,1.784-.871.642,1.312,0,.008H152.2c-.062-.159-.128-.295-.177-.4l-1.289-2.645-5.945,2.9.6,1.225,2.12-1.033.714,1.463a1.852,1.852,0,0,0,1.887,1.176,2.91,2.91,0,0,0,1.808-.871,1.7,1.7,0,0,0,.289-1.818Z" transform="translate(-144.79 -324.889)" fill="#00833e" fill-rule="evenodd"/>
      </g>
      <g id="Grupo_119" data-name="Grupo 119" transform="translate(24.449 51.912)">
        <path id="Trazado_3463" data-name="Trazado 3463" d="M209.209,389.6a.757.757,0,0,1-.019.175,1.482,1.482,0,0,1-.526.765.833.833,0,0,1-.92.091l-1.308-.786,1.025-1.7,1.252.757a.84.84,0,0,1,.5.7h1.32a1.942,1.942,0,0,0-1.13-1.617l-2.521-1.514-3.408,5.673,1.167.7,1.215-2.026,1.392.835a1.852,1.852,0,0,0,2.223-.035,2.915,2.915,0,0,0,1.042-1.716,2.542,2.542,0,0,0,.017-.3H209.21Z" transform="translate(-203.472 -386.474)" fill="#00833e" fill-rule="evenodd"/>
      </g>
      <g id="Grupo_120" data-name="Grupo 120" transform="translate(15.273 44.132)">
        <path id="Trazado_3464" data-name="Trazado 3464" d="M164.275,348.77l-5.285,3.981,2.979,3.951.905-.685-2.158-2.863,1.363-1.027,1.772,2.314.9-.683-1.768-2.314,1.205-.905,1.869,2.372.907-.59Z" transform="translate(-158.99 -348.77)" fill="#00833e"/>
      </g>
      <g id="Grupo_121" data-name="Grupo 121" transform="translate(30.324 54.479)">
        <path id="Trazado_3465" data-name="Trazado 3465" d="M234.114,398.93l-2.154,6.256,4.674,1.611.371-1.071-3.391-1.167.557-1.613,2.746.938.369-1.071-2.746-.938.487-1.423,2.781.957.369-1.071Z" transform="translate(-231.96 -398.93)" fill="#00833e"/>
      </g>
      <g id="Grupo_122" data-name="Grupo 122" transform="translate(45.696 55.369)">
        <path id="Trazado_3466" data-name="Trazado 3466" d="M310.739,403.791a2.777,2.777,0,0,0-2-.5,2.322,2.322,0,0,0-2.236,2.049,1.607,1.607,0,0,0,1.353,1.724c.875.212,2.178.1,2.651.516a.786.786,0,0,1,.072,1.112,1.79,1.79,0,0,1-1.023.4,1.755,1.755,0,0,1-1.318-.315l-.953.72a1.3,1.3,0,0,0,.409.394,3.282,3.282,0,0,0,1.694.351,3.4,3.4,0,0,0,1.9-.685,2.007,2.007,0,0,0,.248-2.918,3.081,3.081,0,0,0-1.611-.516,7.1,7.1,0,0,1-1.692-.262c-.309-.093-.469-.169-.474-.623,0-.547.469-.819,1.128-.867a2.531,2.531,0,0,1,1.333.425l.514-1" transform="translate(-306.5 -403.269)" fill="#00833e"/>
      </g>
      <g id="Grupo_123" data-name="Grupo 123" transform="translate(55.603 48.89)">
        <path id="Trazado_3467" data-name="Trazado 3467" d="M357.615,372.67l2.758,3.661c.25.335.487.961-.376,1.613-.887.666-1.376.229-1.642-.1l-2.758-3.661-1.087.819,2.746,3.647a2.277,2.277,0,0,0,2.322.8,3.7,3.7,0,0,0,1.153-.6,3.442,3.442,0,0,0,.918-1.031,2.043,2.043,0,0,0-.2-2.335l-2.75-3.647Z" transform="translate(-354.51 -371.846)" fill="#00833e"/>
      </g>
      <g id="Grupo_124" data-name="Grupo 124" transform="translate(63.161 39.79)">
        <path id="Trazado_3468" data-name="Trazado 3468" d="M391.15,331.862l5.949,2.9,2.166-4.445-1.019-.5-1.57,3.224-1.564-.73,1.343-2.665-1.017-.5-1.316,2.647-1.355-.66,1.369-2.921-1.019-.495Z" transform="translate(-391.15 -327.72)" fill="#00833e"/>
      </g>
      <g id="Grupo_125" data-name="Grupo 125" transform="translate(60.927 45.244)">
        <path id="Trazado_3469" data-name="Trazado 3469" d="M385.342,356.706a1.444,1.444,0,0,1,.435,1.483,1.522,1.522,0,0,1-.258.469,1.223,1.223,0,0,1-.388.34,1.784,1.784,0,0,1-1.238.1,3.428,3.428,0,0,1-1.254-.656,4.479,4.479,0,0,1-.823-.823,1.445,1.445,0,0,1-.134-1.6,1.358,1.358,0,0,1,1.919-.546l.017-1.205a2.7,2.7,0,0,0-1.359-.086,2.411,2.411,0,0,0-1.493.955,2.828,2.828,0,0,0,.289,3.523,4.878,4.878,0,0,0,.957.858,5.793,5.793,0,0,0,1.025.582,2.841,2.841,0,0,0,3.62-.867,2.954,2.954,0,0,0,.411-1.77,2.154,2.154,0,0,0-.678-1.314Z" transform="translate(-380.282 -354.13)" fill="#00833e"/>
      </g>
      <g id="Grupo_126" data-name="Grupo 126" transform="translate(36.874 55.985)">
        <path id="Trazado_3470" data-name="Trazado 3470" d="M269.394,409.093a1.783,1.783,0,0,0-.056-1.477,1.714,1.714,0,0,0-1.4-1.089l-3.655-.3-.181,2.049h1.369l.067-.8,1.838.163a.845.845,0,0,1,.737,1.009.828.828,0,0,1-.85.691l-1.875-.134.082-.928H264.1l-.4,4.546,1.359.118.227-2.6,1.535.14c-.017,0,.732,2.482.823,2.688l1.455.05-.943-2.838a1.69,1.69,0,0,0,1.234-1.285" transform="translate(-263.704 -406.23)" fill="#00833e" fill-rule="evenodd"/>
      </g>
      <g id="Grupo_127" data-name="Grupo 127" transform="translate(19.361 48.407)">
        <path id="Trazado_3471" data-name="Trazado 3471" d="M184.9,372.7a.682.682,0,0,1-.033.481,1.522,1.522,0,0,1-.658.652.837.837,0,0,1-.924-.086l-1.134-1.019,1.331-1.479,1.083.98a1.041,1.041,0,0,1,.335.472h1.32a2.263,2.263,0,0,0-.8-1.242l-2.182-1.966-4.429,4.917,1.013.909,1.58-1.753,1.205,1.085a1.861,1.861,0,0,0,2.195.388,2.939,2.939,0,0,0,1.349-1.485,1.683,1.683,0,0,0,.078-.856H184.9Z" transform="translate(-178.803 -369.491)" fill="#00833e" fill-rule="evenodd"/>
      </g>
      <g id="Grupo_128" data-name="Grupo 128" transform="translate(60.889 23.416)">
        <path id="Trazado_3472" data-name="Trazado 3472" d="M385.1,248.34a4.533,4.533,0,0,1,4.157,2.791s-1.722,1.153-1.846,1.192c-.712-.77-1.18-1.586-2.248-1.549-1.942.074-2.568,3.214-2.541,5.662.017,2.12,1.031,4.829,2.659,4.734,1.582-.091,2.344-1.784,2.539-3.352l1.942,1.149c-.25,2.432-2.032,4.606-4.321,4.55-3.87-.1-5.276-3.9-5.309-7.475s1.4-7.671,4.971-7.7" transform="translate(-380.13 -248.34)" fill="#00833e"/>
      </g>
      <g id="Grupo_129" data-name="Grupo 129" transform="translate(48.677 23.62)">
        <path id="Trazado_3473" data-name="Trazado 3473" d="M326.248,249.321a5.48,5.48,0,0,1,3.162,1.223l-1,1.8a5.053,5.053,0,0,0-2.158-.718c-.827.006-1.8.678-1.8,1.506.012,1.483,1.917,1.57,3.3,2.083,1.942.718,3.447,2.393,3.447,4.1a4.607,4.607,0,0,1-4.379,4.885,5.941,5.941,0,0,1-5.893-3.951l2.158-1c.769,1.444,1.774,2.665,3.014,2.731a2.448,2.448,0,0,0,2.661-1.367c.863-2.009-1.706-3.143-3.523-3.661a4.132,4.132,0,0,1-3.3-3.737c-.1-2.395,2.139-3.956,4.311-3.88" transform="translate(-320.931 -249.32)" fill="#00833e"/>
      </g>
      <g id="Grupo_130" data-name="Grupo 130" transform="translate(0 24.132)">
        <path id="Trazado_3474" data-name="Trazado 3474" d="M84.965,251.81H95.746v2.228H91.935V265.6H89.273V254.038H84.95Z" transform="translate(-84.95 -251.81)" fill="#00833e"/>
      </g>
      <path id="Trazado_3475" data-name="Trazado 3475" d="M445.359,253.689a8.379,8.379,0,0,1,.14,1.547c0,2.956-1.428,5.066-3.172,5.066s-3.147-2.11-3.147-5.066,1.406-5.118,3.156-5.118c1.425,0,2.63,1.438,3.026,3.571h2.267c-.5-3.549-2.713-6.1-5.363-6.1-3.014,0-5.452,3.309-5.452,7.634s2.434,7.545,5.45,7.545,5.473-3.22,5.473-7.545a10.872,10.872,0,0,0-.105-1.531Z" transform="translate(-364.232 -224.327)" fill="#00833e" fill-rule="evenodd"/>
      <g id="Grupo_131" data-name="Grupo 131" transform="translate(24.515 24.124)">
        <path id="Trazado_3476" data-name="Trazado 3476" d="M211.49,258.047a3.9,3.9,0,0,0,1.219-2.947,3.415,3.415,0,0,0-3.591-3.3H203.8v3.8h2.372v-1.553l1.793-.015c1.009,0,1.871.159,2.015,1.58a1.622,1.622,0,0,1-1.363,1.652h-2.444v-1.665H203.8v6.324h2.444v-2.333l3.447-.025a1.905,1.905,0,0,1,1.582,2.009,2.081,2.081,0,0,1-2.228,2.028c-1.079,0-2.838.04-2.8,0v-1.681H203.8v3.679h6.11a3.616,3.616,0,0,0,3.661-3.519c.147-1.58-.287-3.3-2.081-4.027" transform="translate(-203.8 -251.791)" fill="#00833e" fill-rule="evenodd"/>
      </g>
      <g id="Grupo_132" data-name="Grupo 132" transform="translate(35.455 24.132)">
        <path id="Trazado_3477" data-name="Trazado 3477" d="M263.584,251.81h-1.795l-2.6,7.245h2.671c.338-.984.781-2.277.794-2.29l1.291,3.379h-2.467s.167-.481.38-1.089h-2.671L256.83,265.6h2.587c.072,0,1.258-3.259,1.223-3.233h4.165l1.224,3.233h2.731Z" transform="translate(-256.83 -251.81)" fill="#00833e" fill-rule="evenodd"/>
      </g>
      <g id="Grupo_133" data-name="Grupo 133" transform="translate(10.486 24.132)">
        <path id="Trazado_3478" data-name="Trazado 3478" d="M142.552,251.81h-1.8l-2.605,7.245h2.673c.338-.984.782-2.277.794-2.29l1.293,3.379h-2.464s.171-.481.38-1.089h-2.679L135.8,265.6h2.585c.072,0,1.256-3.259,1.219-3.233h4.171l1.221,3.233h2.731Z" transform="translate(-135.796 -251.81)" fill="#00833e" fill-rule="evenodd"/>
      </g>
      <g id="Grupo_134" data-name="Grupo 134" transform="translate(84.653 29.59)">
        <path id="Trazado_3479" data-name="Trazado 3479" d="M497.342,282.274a2.009,2.009,0,1,1,2.009-2.009,1.973,1.973,0,0,1-2.009,2.009Zm0-3.668A1.655,1.655,0,1,0,499,280.26a1.621,1.621,0,0,0-1.654-1.653Zm.524,1.85.423.865h-.524l-.4-.8h-.38v.8h-.462v-2.195h1.019a.67.67,0,0,1,.753.691.619.619,0,0,1-.433.639Zm-.351-.909h-.524v.563h.524c.2,0,.311-.1.311-.285s-.117-.279-.311-.279Z" transform="translate(-495.333 -278.256)" fill="#00833e"/>
      </g>
    </g>
  </g>
</svg>
