<svg id="Calavera_bocados-cachapita" xmlns="http://www.w3.org/2000/svg" width="30.674" height="72.096" viewBox="0 0 30.674 72.096">
  <path id="Trazado_24250" data-name="Trazado 24250" d="M39,54.52V52.09L40.83,50a5.85,5.85,0,0,0-.52-3.28c-.13-.19-.07-.49-.07-.74a2.15,2.15,0,0,0-.58-1.75c0-1.81-.8-3.44-1.26-5.13,0-.09-.18-.15-.31-.25-.24,2,.43,3.84,1,5.72a12.37,12.37,0,0,1,.86,4c-.46.34-.92.67-1.54,1.07-.64-.09-1.41-.24-2.18-.36s-1.6.3-2.33-.31c-.1-.06-.31,0-.46,0l-4.86-.37a1.17,1.17,0,0,1,.92-.58c.25,0,.5-.37.93-.77-.56-.06-.8-.12-1.05-.16l-.7.71c-.19-.4-.34-.77-.65-1.44l1.35.52a6.44,6.44,0,0,1,.34-.65h1.11c.58-.52,1.22-1,1.75-1.53A10.55,10.55,0,0,0,34.13,42a28.729,28.729,0,0,1,1.57-3.2c-.37-1.13-1.05-2.06-1.51-3.28-.64.79-.18,1.44-.43,1.9l.92.55c.31,1.2-.49,2-.92,2.86-.33.64-.76,1.32-1.13,2a1.85,1.85,0,0,1-1.23,1,9.973,9.973,0,0,1-.06,1.26,2.91,2.91,0,0,1-1.69-1.87,2.64,2.64,0,0,0-.77,1.47,8.32,8.32,0,0,1-.55,1.5H23.41c1.14.43,2,.71,2.77,1a2,2,0,0,0,0,.4c-.74.27-1.6-.16-2.31.34-.27-.16-.61-.37-1-.59a3.66,3.66,0,0,0-.89-2.85V43.43c.18.12.25.21.34.25a2.82,2.82,0,0,0,2.33-.43,15.6,15.6,0,0,1,2.18-.68c.62-.25,1.26-.4,1.88-.65a1.9,1.9,0,0,0,.49-.49h0a1.94,1.94,0,0,0-.8-.09c0-1.57,1.23-2.52,1.87-3.87-.43-.06-.8-.09-1.2-.15a2.063,2.063,0,0,1-.12.46,3.15,3.15,0,0,1-.28,1.41c-.43.77-.73,1.63-1.13,2.55l-1.38-.49a5.68,5.68,0,0,1,.7-2c.49-.86,1.38-1.5,1.51-2.58,0-.24.37-.49.58-.64,1-.74,2.06-1.45,3.07-2.18.19-.13.25-.4.4-.65.46-.21,1-.49,1.63-.8-.09.46-.18.8-.28,1.26C32.9,34.37,32,35.17,31,36l.09.18a2,2,0,0,0,.59-.21c.27-.22.49-.5.73-.71,1.14,0,1.88-1.17,3.14-.89a7.29,7.29,0,0,1,1.9,3.84.8.8,0,0,0,.61.74c.22-1.2-.36-2.34-.3-3.72-.49-.52-1.08-1.14-1.63-1.75l-1.72-1.94-.58.31c.76-1.17.49-2.46.58-3.59h.83c0,.43.09.8.12,1.23a2.34,2.34,0,0,1,2-.22,13.819,13.819,0,0,0,1.47.46c.13,0,.31-.21.56-.43l-2.49-1a5.269,5.269,0,0,0-.43.34c-.28-.34-.56-.68-.83-1.05A2.64,2.64,0,0,1,33,26.35a3.3,3.3,0,0,1-.8-.06v-.4s-.06-.06-.16-.18c-1.29.28-2-.77-2.73-1.51-.15.1-.31.25-.37.22a8,8,0,0,1-3.07-1.81.56.56,0,0,1,0-.25h.58c.31.34.65.65.89.89h1.08a2.28,2.28,0,0,0,1,.46h.46c-.3-.27-.52-.67-.83-.73-1.26-.28-2.21-1.33-3.53-1.45v-.15a2,2,0,0,0-.31-.28h0C25.1,21,25,21,25,20.89l.09-.1a2.62,2.62,0,0,0,.22.25h0l.3.31c.74-.09.49-.86.83-1.35.28.21.65.37.68.61A1.63,1.63,0,0,0,28,21.69c.06-.62-.49-1-.61-1.57a2.53,2.53,0,0,1,0-.55h.7c.52.43,1,.83,1.45,1.19.15-.55-.37-.73-.62-1.07l.83-.43c.28.46.8.74,1.08,1.35s.89.71,1.44,1.08h.52l.86-1.88c-.8-.67-1.53-1.29-2.3-1.9a7.27,7.27,0,0,1,2.36-2c.55.65,1.08,1.32,1.6,2,.24.83-.43,1.38-.55,2.08a12,12,0,0,0,0,2.15c-.25.5-.47.86-.65,1.23l.31.49c-.13,0-.25.13-.31.1-1-.49-2.15-.62-2.58-1.85H31c.09.31.22.62.31,1a.635.635,0,0,1-.09.21l-.9-.34c.22.34.28.49.4.68-.12.24-.24.49-.36.71a15.86,15.86,0,0,0,2.24,1.35c1.29.46,2.52,1.1,3.74,1.66.13.06.25.3.34.27,1-.15,1.66.62,2.58.89.06-1-.92-.92-1.32-1.38a9.78,9.78,0,0,0-1.75-1.29v-.58l-.46-.1c-.25-.49-.49-1-.77-1.5.55-.71.22-1.54.34-2.3a2.43,2.43,0,0,0,.58-1.91c-.12-1-.24-2-.37-3-.46-.8-1.29-.86-2-1a3.83,3.83,0,0,0-.83,0L32,16h-.52c-.71.43-.92,1.32-1.9,1.17a4.64,4.64,0,0,1-3.32,1.6c-.28.37-.49.64-.71.95C24,19,22.89,17.85,21.48,17.08c-.22-.12-.58-.19-.62-.34-.21-.86-.95-1-1.5-1.38A1.68,1.68,0,0,0,18.1,16.8v1.6l3.69,2.82h.4c.39.37.76.74,1.19,1.14a16.92,16.92,0,0,1-1.29,4A23.58,23.58,0,0,0,22.22,30c.4-.34.64-.59,1-.92.15.92-.06,1.65.37,2.36a1.19,1.19,0,0,1,0,1c-.49.68-.16,1.32-.19,2,1,.06,1.51-.71,2.21-.83A4.23,4.23,0,0,0,28,32.1c-.19-.22-.4-.43-.58-.65.27-.12.52-.27.86-.46.49-.15,1.19.31,1.75-.31.15.5.33,1,.49,1.42.43.18.8.37,1.13.52l-1.22,1a5.1,5.1,0,0,0-2.19.46c-.12-.12-.24-.21-.33-.3a17.83,17.83,0,0,1-3.11,1.75,2.23,2.23,0,0,0-1.44,1.1c.55.37,1,.71,1.6,1.14.31-.06.7-.12,1.26-.19.21.07.58.22.95.34a3.28,3.28,0,0,1-.15.4c-.77,1.11-1.79,2-2.06,3.44a1.18,1.18,0,0,1-1.05.92,4.87,4.87,0,0,0-1,.52c-1-.4-1.66-.36-3.93.13-.25.8-.46,1.56-.71,2.45-.64-.12-1.13-.18-1.78-.3a2.66,2.66,0,0,0-1.63,2c-.06.43-.12.89-.21,1.39a15.061,15.061,0,0,1-.37,1.47,14.22,14.22,0,0,1-1.29,3c0,.74,0,1.44,0,2.18a6.11,6.11,0,0,0,0,.74c.06,1,.22,1.93.31,2.52a2.86,2.86,0,0,0,2,1.62,14.521,14.521,0,0,0,1.45-.86c.49-.37.89-.8,1.44-1.29a2,2,0,0,1-1.5,1.91c-.16.06-.25.27-.46.55H18a8.66,8.66,0,0,1,.89-2.24c.77-1.05.55-2.12.49-3.53-.28.92-.43,1.53-.68,2.3-.52-1.14.65-2-.12-2.89.25-.06.37-.06.49-.09.28-.71-.31-1.57.62-2.09a15.1,15.1,0,0,1,1,1.29,6,6,0,0,1,.92,3.29v4.6a.84.84,0,0,0,.58.93,6.78,6.78,0,0,0,.31-1.42c.06-.61,0-1.22,0-1.84a6.07,6.07,0,0,0,0-1.81c-.18-.58.12-1.08,0-1.6,0-.15.06-.37,0-.46-.55-.61-.18-1.35-.31-2s-.21-1.44-.4-2.18H21a7.55,7.55,0,0,1-.06-.8,5.1,5.1,0,0,0,2.39-1c.34-.37,1-.43,1.81-.77-.3.53-.43,1-.55,1-.74,0-1.11.73-1.81.79-.34,0-.65.53-1,.89h1.13c1-1,2.61-.89,3.38-2.15a2.24,2.24,0,0,0,.37.31,2,2,0,0,0,.37.09,3.89,3.89,0,0,0,.18.4,2.84,2.84,0,0,0,.15.34c0,.06.07.09.07.15s.06.13.09.22a2.27,2.27,0,0,0,.46.61l.24.25.1-.09a.38.38,0,0,0,.12-.13h0c.46,1,.46,1,.15,1.66.1.13.22.22.37.4a1.68,1.68,0,0,0-.34.59,14.89,14.89,0,0,1-1.19,3.77c-.65,1.54-1.36,3-2,4.52a1.63,1.63,0,0,0-.12.92c.18-.15.43-.31.52-.52.4-.8.67-1.66,1.07-2.46a37.58,37.58,0,0,0,2.65-5.44c-.56-.92-.22-2-.34-3,.27-.24.46-.43.58-.55.06-.31.12-.55.19-.83l.12.12.21.22c.22-.31.4-.62.62-.92,2,.15,4,.27,5.92.43.13.3.28.64.5,1.1h-1.9a2,2,0,0,0,.13.25,4.25,4.25,0,0,0-.56.21.6.6,0,0,0,.09.22h1.51c-.15.74.83.83.58,1.5h.53A10.188,10.188,0,0,1,39,54.52Zm.46-4.27h.1v.3h-.1Zm-9.33-5.1v.43h-.52a.58.58,0,0,0-.13-.15,3.64,3.64,0,0,0,.6-.28ZM33,24.54l-.37.31c-.49-.4-1.26-.4-1.81-1.17,1.59-.09,2.21.19,2.76,1.23C33.27,24.73,33.15,24.63,33,24.54Zm1.72,1.08h-.31v-.1h.31Zm.49-.25c.15.12.33.28.64.52a6.629,6.629,0,0,0-.77.16,3.721,3.721,0,0,0-.09-.46Zm-9.89-5.16h.09v.31h-.09ZM20.86,18a.53.53,0,0,0-.15.12,4.69,4.69,0,0,0-.31-.64h.43A3.2,3.2,0,0,1,20.86,18Zm1.88,2.52c-.28-.16-.59-.28-1.08-.52.46-.07.77-.07,1.08-.1v-.27L21.2,18.25c.68.21,1.63-.19,1.91.89.06.24.73.36,1.13.46a.827.827,0,0,1,.65.92H24v.95A1.43,1.43,0,0,1,22.74,20.52ZM26.67,32.1c-.46.3-1,.67-1.54,1.07-.4-.15-.8-.31-1.19-.49l.3-.37L23.9,32a5.154,5.154,0,0,0,.59-.12c-.06-.09-.12-.15-.19-.24h1.51l.86-.86ZM24,29.42h.52v1.82C24.24,30.44,23.78,30.07,24,29.42Zm1.53,1.48v-.52h.16c.06,0,.09.33.12.49a.88.88,0,0,1-.25.03Zm6-.25h-.64c-.28-.33-.59-.67-.8-.95H28.28c-.55,0-1.14-.31-1.48.4-1.1-.74-2.12-1.38-3.1-2,0-.55-.18-1.1.28-1.65-.19-.16-.43-.31-.65-.5.28-1.16.46-2.27,1.57-3a6.3,6.3,0,0,1,1.23.56,37.44,37.44,0,0,0,5.16,2.64,11.37,11.37,0,0,1,2.05,1.41c.19.86.34,1.57.5,2.21-.59.8-.89,1.72-2.06,1.87a7.681,7.681,0,0,1-.23-.99Zm-3,4.06h.31v.09h-.31ZM16.41,46h.09v.31h-.09Zm-.18,2.46a.83.83,0,0,0,0,.27h-.52a.21.21,0,0,0,0-.15,4.339,4.339,0,0,1,.52-.17Zm-1.75,4.05c.06-.34,0-.68.06-1,.24.06.37.06.52.09-.12.67-.25,1.32-.37,2h-.52c.09-.43.24-.77.31-1.14ZM14,53.93h.1v.31H14Zm0,2.43v-.89l.49.89Zm1,2.15h0c-.06-.09-.16-.15-.22-.25a.689.689,0,0,0-.24-.21L14.6,58c.06.09.15.15.21.24a.881.881,0,0,0,.25.22C15.15,58.52,15,58.48,15,58.51Zm2.92-4.39c-.19.24.06.8.12,1.26-.25.86-.52,1.81-.83,2.79h-.55a6.41,6.41,0,0,1-1.14-1,5.65,5.65,0,0,1-.61-1.26,2.39,2.39,0,0,0,.18-.77,4.73,4.73,0,0,1,.64-2.64c.25-.58.59-1.14.93-1.81.95,1.41.43,3,.89,4.42V51.78c.52.99.92,1.54.34,2.34ZM19,49.88a1.32,1.32,0,0,0,.12-.31c.13-.27.25-.55.37-.8.34-.15.83.1,1.2-.15a.77.77,0,0,0,.25-.28V47.27c-1.29.52-2.55.58-3.54,1.35l-.76-1.54.49-.61c.21.12.4.25.52.31l1.69-1.51c.06-.3.09-.58.15-.83H20a2.87,2.87,0,0,0,1,2.61s0,.1.06.13h.21c0,.52.06,1.07.06,1.66C20.65,49.45,20.1,50.09,19,49.88Zm3-1.44-.24-.25L21.54,48a1.74,1.74,0,0,1,.15-.22l.1-.09c-.86-1.08-.77-2.55-1.39-3.84.34.18.71.4,1.11.64.09.5,0,1,.4,1.48a4.41,4.41,0,0,1,.52,1.9c0,.13-.28.35-.43.57Zm4.45-.59v-.49a6.54,6.54,0,0,0,.59.4,2.57,2.57,0,0,0-.59.09Zm1.05,1.23c-.37-.61.15-.67.31-1C28.17,48.68,27.65,48.74,27.5,49.08Zm.52.83v-.52a.53.53,0,0,0,.15-.12c.1.21.19.42.31.64Zm10.63,2.83v.52h-.16a2.7,2.7,0,0,0-.12-.49c-.03-.15.18,0,.28-.03Zm-.28-1.6v.58h-1c.36-.24.63-.37,1-.58Z" transform="translate(-12.979 -15.36)" fill="#1f7762"/>
  <path id="Trazado_24251" data-name="Trazado 24251" d="M25.19,21.16a3,3,0,0,1,.31.28,1.19,1.19,0,0,0-.31-.28Z" transform="translate(-12.979 -15.36)" fill="#1f7762"/>
  <path id="Trazado_24252" data-name="Trazado 24252" d="M28.42,50.86h0c.46,1,.46,1,.15,1.69.1.12.22.22.37.4a3.78,3.78,0,0,0-.37-.4C28.91,51.91,28.91,51.91,28.42,50.86Z" transform="translate(-12.979 -15.36)" fill="#1f7762"/>
  <path id="Trazado_24253" data-name="Trazado 24253" d="M27.34,49.85c-.06-.09-.09-.22-.15-.34a1.17,1.17,0,0,0,.15.34Z" transform="translate(-12.979 -15.36)" fill="#1f7762"/>
  <path id="Trazado_24254" data-name="Trazado 24254" d="M28,50.83l.24.25.1-.1-.1.1a2.709,2.709,0,0,1-.24-.25Z" transform="translate(-12.979 -15.36)" fill="#1f7762"/>
  <path id="Trazado_24255" data-name="Trazado 24255" d="M30.23,50.22c.22-.31.4-.62.62-.92C30.63,49.6,30.45,49.91,30.23,50.22Z" transform="translate(-12.979 -15.36)" fill="#1f7762"/>
  <path id="Trazado_24256" data-name="Trazado 24256" d="M27.5,50.22a1.65,1.65,0,0,1-.09-.22,1.65,1.65,0,0,0,.09.22Z" transform="translate(-12.979 -15.36)" fill="#1f7762"/>
  <path id="Trazado_24257" data-name="Trazado 24257" d="M25.38,61.83a3,3,0,0,0-.19,1h0l.07-.06a2.41,2.41,0,0,1,.12-.94Z" transform="translate(-12.979 -15.36)" fill="#1f7762"/>
  <path id="Trazado_24258" data-name="Trazado 24258" d="M37.17,60.17h0V60h0a.1.1,0,0,0,0,.17Z" transform="translate(-12.979 -15.36)" fill="#1f7762"/>
  <path id="Trazado_24259" data-name="Trazado 24259" d="M42.58,85a2.38,2.38,0,0,1-.83-1.5c.21-.71.83-1.26.58-2.12-.64-.4-.67-1.17-.86-1.84-.27-1-.4-2-.64-2.95a5.88,5.88,0,0,0-.74-2,5,5,0,0,1-.8-2,.62.62,0,0,0-.15-.25,2.83,2.83,0,0,1-1.08-2.64v-.31A8.59,8.59,0,0,1,37.42,66l-.68-.27a7.17,7.17,0,0,1,.74-.25,3.08,3.08,0,0,0-.15-1.32c-.31-.49-.13-1-.19-1.47s.16-.93-.34-1.26a8.45,8.45,0,0,1,1-.71,2.05,2.05,0,0,0,1-1.2,6.07,6.07,0,0,0,.49-2.55c-.09-.7-.28-1.38-.43-2.09h-.12V58c-.62.8-1.08,1.44-1.57,2.21h0v.12a1.91,1.91,0,0,0-.58.06v-.18l.52-.09a8.391,8.391,0,0,0-.58-.93c.12-.43.21-.79.36-1.38a5.27,5.27,0,0,0-.61.62c-.25.46-.4,1-.64,1.41s-.8,1-.86,1.47c-.1.68-1,.43-1,1.11,0,.24-.67.4-.83.67s-.33.71-.8.71c-.46.83-1.35,1.23-1.93,1.94-.34.43-.61.89-1,1.44-.37.92-.16,2.21-1.32,3,.33,1-.13,1.81-.19,2.67-.12,1.32.19,2.67-.27,4a3.76,3.76,0,0,0,0,2c.12.74-.37,1.32-.34,2s0,1.41,0,1.87c-.34,1-.83,1.57-1.57,1.6-1.14-1-.86-2.31-.89-3.32-.28-.49-.46-.83-.68-1.14s-.36-.86-.64-.92c-.71-.15-.77-.8-1-1,.09-.28.18-.52.31-.89.92.89,1.78,1.5,1.65,2.89.28-.31.4-.47.62-.68-.13-1.57.55-3.16.3-4.82a.79.79,0,0,1,.1-.43,6.47,6.47,0,0,0,.49-1.17,13,13,0,0,0,0-1.54,8.223,8.223,0,0,1,.21-.82,6.7,6.7,0,0,0,0-1.13,25.85,25.85,0,0,1,1.85-3.78,2.41,2.41,0,0,0,.15-.7c.06-.19.06-.4.18-.53a15,15,0,0,0,2.28-3.71V59.4a3.37,3.37,0,0,1,1.75-1.87c.64-1.35,1.72-2.52,1.62-4.06.31-.15.56-.24.56-.24.76.09,1.29.15,1.81.18.12.12.24.28.37.4l-.25.34c.34.4.71.64,1.2.31A1.92,1.92,0,0,0,37.2,53c-1.35-.52-2.76-.24-4.11-.46l-2-.64a3.338,3.338,0,0,1,.09-.43l3.2.37a.82.82,0,0,1-.06-.25,5,5,0,0,1,.52-.25c-.62-.18-1.32,0-1.69-.24-.58-.43-1.2,0-1.75-.4l.6-.3-.85-.4-1.29,1.75c.16.31.28.62.37.8,1.17.31,2.27.58,3.38.89-.09.25-.15.37-.18.49h-.74a.79.79,0,0,1-.37.77c-.31.22-.71.31-.92.61a1.5,1.5,0,0,0,0,.37,1.16,1.16,0,0,1,0,.56c-.25.55-.12,1.44-.74,1.62-.83.25-.74.93-1.23,1.45a1.952,1.952,0,0,1,.4,2l-1.1-.43v1.45A4.81,4.81,0,0,0,26.85,64v.15h0v-.18c.31.64.47,1,.65,1.38-.37.21-.61.4-1.17.74.19-.8.31-1.29.46-1.94v.12a.76.76,0,0,0-.58.59,1.3,1.3,0,0,0,0,.15c-.06.52-.25,1-.28,1.57a17.6,17.6,0,0,0,0,1.78c-.46.74-.8,1.5-1.63,1.78-.27-.77-.49-1.5-.73-2.21a13,13,0,0,1,1-2.64l-.31-.92a16.71,16.71,0,0,0-2.36,5.89,8.55,8.55,0,0,0-.52,1.17c-.43,1.26-.25,2.61-.59,3.9a11,11,0,0,0,0,2,12.16,12.16,0,0,1-.31,1.87c-.3,1-.3,2.21-1.19,3,.67.71.15,1.35-.19,2.09-.58.06-1.32-.06-1.78.25-.64.46-1.29.09-1.9.3-.25.4-1.14.25-1,1L16.2,87a2.68,2.68,0,0,1,1.19,0c.83.46,1.69.12,2.49.31a5.5,5.5,0,0,0,2.52,0c1.38-.34,2.89.25,4.3-.37l.46.37c.18-.12.34-.25.49-.34l.34.28,1.32-.46V85.51l-1-.37c-.83-1,.33-2.21-.49-3.17a1.67,1.67,0,0,0,0-2,3.9,3.9,0,0,0,.24-.86V76.96a4.3,4.3,0,0,1,.46-2.27,4,4,0,0,0,.4-3.14A2,2,0,0,1,29,69.78l.65-.49a4.68,4.68,0,0,0-.37-.55,3.3,3.3,0,0,1,.52-.13v-1c.37-.31.71-.58,1.08-.92.73,1.63,1.35,3.16,2.12,4.61a5.6,5.6,0,0,1,.83,3.31,2.44,2.44,0,0,1,.64,1.75,6,6,0,0,0,.4,2.58c.37.68-.09,1-.12,1.42a1.89,1.89,0,0,1,.3.55,1.78,1.78,0,0,1,0,.61,1.4,1.4,0,0,0-1.5.83c.4.52.8,1,1,1.26a11.358,11.358,0,0,0,.49,1.08L39.26,86a4.34,4.34,0,0,1,2.8.06c-.25-.43-.34-.62-.46-.86h.49v.86A2.77,2.77,0,0,0,43.65,86C43.71,85.2,42.89,85.29,42.58,85ZM32.41,55c.13,1,.13,1-.89,1.47C31.89,55.9,32.14,55.5,32.41,55ZM25,70.3c.25.49.4.83.61,1.23a5,5,0,0,1-.61.25ZM18.65,86.12h-.09v-.31h.09ZM24.89,73.8A2.83,2.83,0,0,1,23.17,71C23.9,71.9,25,72.45,24.89,73.8Zm-1.72.28c-.16-.18-.09-.55-.06-.83.27.74,1.26.74,1.5,1.57a6.068,6.068,0,0,1-.64.55h.52v1.78c-.12.09-.25.25-.37.34-1.14-.65.12-1.41-.18-2.12-.16-.09-.37-.18-.56-.28a2.6,2.6,0,0,0-.09.56c-.28-.28-.55-.49-1.1-1l1.16.43C23.32,74.73,23.44,74.39,23.17,74.08Zm-1.6,4.3A2.16,2.16,0,0,1,22.46,80a19.584,19.584,0,0,0,.19,2c-.65,0-.65,0-1.08-.33ZM22.74,86h-.31v-.1h.31Zm.21-.71A31.81,31.81,0,0,1,20.74,82l1.91,1a3.38,3.38,0,0,0,.43-2.25l.46-.46a3.64,3.64,0,0,1,.79,2c-.24.09-.43.15-.58.22-.06,1,.83,1.38,1.35,2.18-.83.23-1.5.42-2.1.6Zm5.16,1-1.35.1V85.6c.65-.31.98.03,1.35.73Zm3.23-20.54H31V65.7h.31Zm4.3-5h.3v.09h-.3Zm.24,1.14v.52a.53.53,0,0,0-.15.12,6.25,6.25,0,0,0-.31-.64ZM32.26,65c.15,0,.37-.12.43-.06.37.37.71.8,1.1,1.2h.62l-.89-1.54c.15-.09.37-.28.58-.4-.15-.18-.21-.27-.52-.64l1.1.43c0-.34.1-.65-.18-1a.78.78,0,0,1,.09-.83c.06.16.09.31.19.59h1.69v.21c-.19.06-.34.16-.62.28.09.21.16.4.28.64A.8.8,0,0,0,36.1,65c.3.34.18.74-.28,1.11l1.14.92c-.22.24-.4.46-.65.77-.3-.25-.61-.47-.89-.68,0,.12-.12.28-.09.31.34.37.71.73,1.2,1.23v.58a3.219,3.219,0,0,0-.71.06,5.06,5.06,0,0,0-1.14-1.07c-.46-.25-.61-.71-1.13-.9a6.9,6.9,0,0,1-1.38-.92c.3-.15.52-.24.8-.37C32.72,65.67,32.5,65.36,32.26,65Zm1.14,5.34c.12-.36.21-.67.3-1-.3-.12-.67-.31-1.1-.49l.33-.52L31.8,67.05c.43.15.74.18.89.34a15.4,15.4,0,0,0,4.14,2.91v1H35.15c-.56-.3-1.15-.57-1.75-.94ZM36,84.28A.66.66,0,0,0,36,84h.53a.27.27,0,0,0,0,.15A3.28,3.28,0,0,1,36,84.28Zm3.65.86a7.5,7.5,0,0,1-.49-.62H38.12v-.15c.31-.09.65-.15,1.14-.28l.89.89a5.119,5.119,0,0,0,.59-.4,3.181,3.181,0,0,0,.15.56Zm-.31-1.57c-.4-.12-.83-.21-1.23-.34l-1.25-.3a4.18,4.18,0,0,0-.34-.65,5.149,5.149,0,0,0-.59-.64,1.82,1.82,0,0,0,.22-1.88c-.22-.8-.4-1.56-.58-2.36A16.53,16.53,0,0,1,35,74.14a10.46,10.46,0,0,0-.37-1.69l.86-.43c1,.19,1.85.34,2.64.49.5.8,1,1.54,1.42,2.25a9.23,9.23,0,0,1,1,2.64,18.78,18.78,0,0,0,.55,2.21c.28.71.06,1.41.37,2.15.31.98-1.13,2.09-2.12,1.81Z" transform="translate(-12.979 -15.36)" fill="#1f7762"/>
  <path id="Trazado_24260" data-name="Trazado 24260" d="M26.79,64.16Z" transform="translate(-12.979 -15.36)" fill="#1f7762"/>
  <path id="Trazado_24261" data-name="Trazado 24261" d="M26.73,64.1v-.06a.09.09,0,0,0,0,.06Z" transform="translate(-12.979 -15.36)" fill="#1f7762"/>
  <path id="Trazado_24262" data-name="Trazado 24262" d="M26.73,64.34v-.12c-.31.25-.52.43-.58.71a.76.76,0,0,1,.58-.59Z" transform="translate(-12.979 -15.36)" fill="#1f7762"/>
  <path id="Trazado_24263" data-name="Trazado 24263" d="M33.18,60c-.09.06,0,.46,0,.68.49-.68,1.35-1.08,1.17-2.34C33.64,58.82,33.76,59.62,33.18,60Z" transform="translate(-12.979 -15.36)" fill="#1f7762"/>
  <path id="Trazado_24264" data-name="Trazado 24264" d="M29.49,20.83c.4.55.71,1.22,1.54,1.22C30.63,21.5,30.32,20.83,29.49,20.83Z" transform="translate(-12.979 -15.36)" fill="#1f7762"/>
  <path id="Trazado_24265" data-name="Trazado 24265" d="M25.19,62.81a.107.107,0,0,1-.09-.06c-.24.49-.52,1-.8,1.53h.56a12.1,12.1,0,0,0,.33-1.5Z" transform="translate(-12.979 -15.36)" fill="#1f7762"/>
  <path id="Trazado_24266" data-name="Trazado 24266" d="M25.19,62.81a9.42,9.42,0,0,1-.36,1.53c.15-.49.3-1,.46-1.5h-.1Z" transform="translate(-12.979 -15.36)" fill="#1f7762"/>
  <path id="Trazado_24267" data-name="Trazado 24267" d="M36.77,56l-.61.62.71,1C36.83,56.85,36.8,56.48,36.77,56Z" transform="translate(-12.979 -15.36)" fill="#1f7762"/>
  <path id="Trazado_24268" data-name="Trazado 24268" d="M35,56.79c-.21.25-.49.55-.7.83a.73.73,0,0,0,.7-.83Z" transform="translate(-12.979 -15.36)" fill="#1f7762"/>
  <path id="Trazado_24269" data-name="Trazado 24269" d="M35,56.76h0a.73.73,0,0,1-.73.83.72.72,0,0,0,.73-.83Z" transform="translate(-12.979 -15.36)" fill="#1f7762"/>
  <path id="Trazado_24270" data-name="Trazado 24270" d="M28.88,22.33a.74.74,0,0,0-.92-.58.74.74,0,0,0,.92.58Z" transform="translate(-12.979 -15.36)" fill="#1f7762"/>
  <path id="Trazado_24271" data-name="Trazado 24271" d="M28.88,22.36h0a.78.78,0,0,1-.92-.61.74.74,0,0,0,.92.61Z" transform="translate(-12.979 -15.36)" fill="#1f7762"/>
  <path id="Trazado_24272" data-name="Trazado 24272" d="M35.18,56.85c.15-.21.27-.43.46-.71h-.59a4.29,4.29,0,0,0,0,.62Z" transform="translate(-12.979 -15.36)" fill="#1f7762"/>
  <path id="Trazado_24273" data-name="Trazado 24273" d="M35.05,56.08a4.721,4.721,0,0,0,0,.62h0A4.29,4.29,0,0,1,35.05,56.08Z" transform="translate(-12.979 -15.36)" fill="#1f7762"/>
  <path id="Trazado_24274" data-name="Trazado 24274" d="M28.94,60.11v.52h.28a3,3,0,0,0-.12-.52Z" transform="translate(-12.979 -15.36)" fill="#1f7762"/>
  <path id="Trazado_24275" data-name="Trazado 24275" d="M29.59,22.94a.27.27,0,0,0,.15,0v-.52h-.28a3.57,3.57,0,0,1,.13.52Z" transform="translate(-12.979 -15.36)" fill="#1f7762"/>
  <path id="Trazado_24276" data-name="Trazado 24276" d="M28.88,22.36h0a.9.9,0,0,0,.18.28l.1-.09C29.06,22.48,29,22.39,28.88,22.36Z" transform="translate(-12.979 -15.36)" fill="#1f7762"/>
  <path id="Trazado_24277" data-name="Trazado 24277" d="M28.85,22.39c.06.09.15.16.21.25l.1-.09-.1.09C29,22.55,28.91,22.48,28.85,22.39Z" transform="translate(-12.979 -15.36)" fill="#1f7762"/>
  <path id="Trazado_24278" data-name="Trazado 24278" d="M28.88,22.36c.12,0,.18.12.28.19-.1-.07-.16-.16-.25-.22h0Z" transform="translate(-12.979 -15.36)" fill="#1f7762"/>
  <ellipse id="Elipse_676" data-name="Elipse 676" cx="0.21" cy="0.06" rx="0.21" ry="0.06" transform="translate(22.911 39.9)" fill="#1f7762"/>
  <path id="Trazado_24279" data-name="Trazado 24279" d="M36.56,43.74l-2.12.83c-.34,1-1.26,1.56-1.72,2.79.64-.43.86-1,1.44-.8.34-.58,1.05-.06,1.45-.46v-.61c-.4-.16-.68-.25-1-.37a1.35,1.35,0,0,0,.06-.34l2.46-.49A3.764,3.764,0,0,0,36.56,43.74Z" transform="translate(-12.979 -15.36)" fill="#1f7762"/>
  <path id="Trazado_24280" data-name="Trazado 24280" d="M29.19,41.37v.12a8.78,8.78,0,0,0,1.62-2c.56-.68.59-1.69,1.42-2.18v-.22H31.12a5.09,5.09,0,0,1-.73,1.94q-.335.484-.62,1a3.54,3.54,0,0,0-.58,1.26Z" transform="translate(-12.979 -15.36)" fill="#1f7762"/>
  <path id="Trazado_24281" data-name="Trazado 24281" d="M29.13,41.46Z" transform="translate(-12.979 -15.36)" fill="#1f7762"/>
  <path id="Trazado_24282" data-name="Trazado 24282" d="M29.16,41.37v.06a.09.09,0,0,0,0-.06Z" transform="translate(-12.979 -15.36)" fill="#1f7762"/>
  <path id="Trazado_24283" data-name="Trazado 24283" d="M29.74,40.08a5.87,5.87,0,0,0-.61,1.29h0a5.78,5.78,0,0,1,.61-1.29Z" transform="translate(-12.979 -15.36)" fill="#1f7762"/>
  <path id="Trazado_24284" data-name="Trazado 24284" d="M29.13,41.46h0v.1a10.91,10.91,0,0,0,1.69-2.09,9.69,9.69,0,0,1-1.69,1.99Z" transform="translate(-12.979 -15.36)" fill="#1f7762"/>
  <path id="Trazado_24285" data-name="Trazado 24285" d="M29.1,41.46h0V41.4C29.1,41.34,29.13,41.46,29.1,41.46Z" transform="translate(-12.979 -15.36)" fill="#1f7762"/>
  <path id="Trazado_24286" data-name="Trazado 24286" d="M30.35,39a5.46,5.46,0,0,0,.74-1.94A4.53,4.53,0,0,1,30.35,39Z" transform="translate(-12.979 -15.36)" fill="#1f7762"/>
  <path id="Trazado_24287" data-name="Trazado 24287" d="M29.13,41.4v-.06h0v.09h0Z" transform="translate(-12.979 -15.36)" fill="#1f7762"/>
  <path id="Trazado_24288" data-name="Trazado 24288" d="M37.39,46.93a.541.541,0,0,0,.3-.06V45.49c-.36.24-.61.43-.82.58C37.08,46.41,37.23,46.65,37.39,46.93Z" transform="translate(-12.979 -15.36)" fill="#1f7762"/>
  <path id="Trazado_24289" data-name="Trazado 24289" d="M35.05,35.2c-.06-.09-.15-.15-.21-.25l-.09.1A.33.33,0,0,0,35.05,35.2Z" transform="translate(-12.979 -15.36)" fill="#1f7762"/>
  <path id="Trazado_24290" data-name="Trazado 24290" d="M35.05,35.2c-.15,0-.21-.09-.3-.15.09.06.15.15.24.21h0A.132.132,0,0,1,35.05,35.2Z" transform="translate(-12.979 -15.36)" fill="#1f7762"/>
  <path id="Trazado_24291" data-name="Trazado 24291" d="M35,35.26c.06.09.16.15.22.25l.09-.1a.6.6,0,0,0-.31-.15Z" transform="translate(-12.979 -15.36)" fill="#1f7762"/>
  <path id="Trazado_24292" data-name="Trazado 24292" d="M35.05,35.2l-.06.06c.16,0,.22.09.31.15a1.84,1.84,0,0,1-.25-.21Z" transform="translate(-12.979 -15.36)" fill="#1f7762"/>
  <path id="Trazado_24293" data-name="Trazado 24293" d="M35.05,35.2h0l-.06.06h0Z" transform="translate(-12.979 -15.36)" fill="#1f7762"/>
  <path id="Trazado_24294" data-name="Trazado 24294" d="M27.59,26.54c-.34-.49-.64-.92-.86-1.26-.77-.25-1.44-.46-2.09-.65-.18.8-.37,1.69-.58,2.61.34.19.67.4,1,.62a3.56,3.56,0,0,0,1.38-.25A12.582,12.582,0,0,0,27.59,26.54Z" transform="translate(-12.979 -15.36)" fill="#1f7762"/>
  <path id="Trazado_24295" data-name="Trazado 24295" d="M25.13,27.89H26.3l.25-.25a4,4,0,0,1-1.42.25Z" transform="translate(-12.979 -15.36)" fill="#1f7762"/>
  <path id="Trazado_24296" data-name="Trazado 24296" d="M30.26,27.55a5.79,5.79,0,0,0-2.21.19,2.73,2.73,0,0,1-1.32.12v.21l-.61.28v.4a2.49,2.49,0,0,0,2.64-.89c.58.12.73.8,1.38.67.43-.09.55.93,1.23.46C31.21,28.32,30.63,28,30.26,27.55Z" transform="translate(-12.979 -15.36)" fill="#1f7762"/>
  <path id="Trazado_24297" data-name="Trazado 24297" d="M28.05,27.71c-.58.27-.89,0-1.32-.16v.28A2.73,2.73,0,0,0,28.05,27.71Z" transform="translate(-12.979 -15.36)" fill="#1f7762"/>
  <path id="Trazado_24298" data-name="Trazado 24298" d="M17,56.39h.09v-.31H17Z" transform="translate(-12.979 -15.36)" fill="#1f7762"/>
  <path id="Trazado_24299" data-name="Trazado 24299" d="M22.74,19.9v.62H24a1.41,1.41,0,0,0-1.26-.62Z" transform="translate(-12.979 -15.36)" fill="#1f7762"/>
  <path id="Trazado_24300" data-name="Trazado 24300" d="M38.06,75.34a1,1,0,0,0-.89-1.14,2.33,2.33,0,0,1-1.2-.73A3,3,0,0,0,35.3,73a2.65,2.65,0,0,0,.18.58C36.16,74.45,37.23,74.73,38.06,75.34Z" transform="translate(-12.979 -15.36)" fill="#1f7762"/>
  <path id="Trazado_24301" data-name="Trazado 24301" d="M38.06,75.34c-.83-.61-1.9-.86-2.55-1.75.65.89,1.72,1.14,2.55,1.78h0Z" transform="translate(-12.979 -15.36)" fill="#1f7762"/>
  <path id="Trazado_24302" data-name="Trazado 24302" d="M35.33,72.94h0V73a4.51,4.51,0,0,1,.68.46C35.79,73.28,35.54,73.1,35.33,72.94Z" transform="translate(-12.979 -15.36)" fill="#1f7762"/>
  <path id="Trazado_24303" data-name="Trazado 24303" d="M38.31,82.07c.31.61.67.82,1.23.58V81.08A3,3,0,0,0,38.31,82.07Z" transform="translate(-12.979 -15.36)" fill="#1f7762"/>
  <path id="Trazado_24304" data-name="Trazado 24304" d="M35.33,72.94h0c0-.12-.12-.18-.18-.27l-.1.09a1.13,1.13,0,0,0,.28.18Z" transform="translate(-12.979 -15.36)" fill="#1f7762"/>
  <path id="Trazado_24305" data-name="Trazado 24305" d="M35.33,72.94c-.12,0-.18-.12-.28-.18.1.06.16.15.25.21h0Z" transform="translate(-12.979 -15.36)" fill="#1f7762"/>
  <path id="Trazado_24306" data-name="Trazado 24306" d="M38.06,75.37h0c.06.09.16.15.22.25l.09-.1A1,1,0,0,0,38.06,75.37Z" transform="translate(-12.979 -15.36)" fill="#1f7762"/>
  <path id="Trazado_24307" data-name="Trazado 24307" d="M38.06,75.37c.13,0,.19.12.28.18-.09-.06-.15-.15-.25-.21h0Z" transform="translate(-12.979 -15.36)" fill="#1f7762"/>
  <path id="Trazado_24308" data-name="Trazado 24308" d="M34.41,66.19h0l-.16.15.71.46v-.58a4.158,4.158,0,0,0-.58,0Z" transform="translate(-12.979 -15.36)" fill="#1f7762"/>
  <path id="Trazado_24309" data-name="Trazado 24309" d="M35,66.22a4.579,4.579,0,0,0-.61,0h0A4.359,4.359,0,0,1,35,66.22Z" transform="translate(-12.979 -15.36)" fill="#1f7762"/>
  <path id="Trazado_24310" data-name="Trazado 24310" d="M34.38,66.19l-.16.15C34.29,66.28,34.35,66.25,34.38,66.19Z" transform="translate(-12.979 -15.36)" fill="#1f7762"/>
  <path id="Trazado_24311" data-name="Trazado 24311" d="M33.79,66.19h0c-.09.06-.15.15-.24.21l.09.09a2.11,2.11,0,0,0,.18-.27Z" transform="translate(-12.979 -15.36)" fill="#1f7762"/>
  <path id="Trazado_24312" data-name="Trazado 24312" d="M33.79,66.19Z" transform="translate(-12.979 -15.36)" fill="#1f7762"/>
  <path id="Trazado_24313" data-name="Trazado 24313" d="M33.61,66.46c.06-.09.15-.15.22-.24h0A1.2,1.2,0,0,0,33.61,66.46Z" transform="translate(-12.979 -15.36)" fill="#1f7762"/>
  <path id="Trazado_24314" data-name="Trazado 24314" d="M33.79,66.19Z" transform="translate(-12.979 -15.36)" fill="#1f7762"/>
  <path id="Trazado_24315" data-name="Trazado 24315" d="M34.72,64h0c.07.09.16.15.22.24l.09-.09a1.41,1.41,0,0,0-.27-.18Z" transform="translate(-12.979 -15.36)" fill="#1f7762"/>
  <path id="Trazado_24316" data-name="Trazado 24316" d="M34.72,64Z" transform="translate(-12.979 -15.36)" fill="#1f7762"/>
  <path id="Trazado_24317" data-name="Trazado 24317" d="M35,64.22c-.09-.06-.15-.15-.24-.21h0a1.711,1.711,0,0,0,.24.21Z" transform="translate(-12.979 -15.36)" fill="#1f7762"/>
  <path id="Trazado_24318" data-name="Trazado 24318" d="M35.15,70.18a.57.57,0,0,0-.25.06l.58.28C35.24,70.3,35.18,70.18,35.15,70.18Z" transform="translate(-12.979 -15.36)" fill="#1f7762"/>
  <path id="Trazado_24319" data-name="Trazado 24319" d="M34.81,70.27h-.09C34.87,70.36,35,70.39,34.81,70.27Z" transform="translate(-12.979 -15.36)" fill="#1f7762"/>
  <path id="Trazado_24320" data-name="Trazado 24320" d="M34.72,70.3c.18.06.36.09.73.22a5.689,5.689,0,0,0-.58-.28h-.06C35,70.39,34.87,70.36,34.72,70.3Z" transform="translate(-12.979 -15.36)" fill="#1f7762"/>
  <path id="Trazado_24321" data-name="Trazado 24321" d="M34.75,70.15a2.62,2.62,0,0,1-.22-.25l-.09.1a1.13,1.13,0,0,0,.31.15Z" transform="translate(-12.979 -15.36)" fill="#1f7762"/>
  <path id="Trazado_24322" data-name="Trazado 24322" d="M34.44,70c.09.06.15.15.24.21h0a2.839,2.839,0,0,1-.24-.21Z" transform="translate(-12.979 -15.36)" fill="#1f7762"/>
</svg>
