<svg id="Calavera_bombas-veganas" xmlns="http://www.w3.org/2000/svg" width="76" height="55.683" viewBox="0 0 76 55.683">
  <path id="Trazado_24626" data-name="Trazado 24626" d="M6.58,54.48h0Z" transform="translate(1.755 -18.089)" fill="#1f7762"/>
  <path id="Trazado_24627" data-name="Trazado 24627" d="M41.883,57.009a1.431,1.431,0,0,1,.152-.266,9.347,9.347,0,0,0-1.165-.2C41.541,56.92,41.769,57.034,41.883,57.009Z" transform="translate(10.899 -17.539)" fill="#1f7762"/>
  <path id="Trazado_24628" data-name="Trazado 24628" d="M33.46,58.19Z" transform="translate(8.923 -17.099)" fill="#1f7762"/>
  <path id="Trazado_24629" data-name="Trazado 24629" d="M14.15,45.9Z" transform="translate(3.773 -20.377)" fill="#1f7762"/>
  <path id="Trazado_24630" data-name="Trazado 24630" d="M43.28,58.29h0v.139h0A.2.2,0,0,0,43.28,58.29Z" transform="translate(11.541 -17.073)" fill="#1f7762"/>
  <path id="Trazado_24631" data-name="Trazado 24631" d="M31.722,63.287a2.216,2.216,0,0,1-.2-.317.861.861,0,0,1-.139.317c.076.114.165.2.228.317v-.317Z" transform="translate(8.368 -15.825)" fill="#1f7762"/>
  <path id="Trazado_24632" data-name="Trazado 24632" d="M18.882,42.282h0l-.152-.152v.177Z" transform="translate(4.995 -21.382)" fill="#1f7762"/>
  <path id="Trazado_24633" data-name="Trazado 24633" d="M45.09,58.029h0V57.89h0C45.115,58.029,45.115,58.029,45.09,58.029Z" transform="translate(12.024 -17.179)" fill="#1f7762"/>
  <path id="Trazado_24634" data-name="Trazado 24634" d="M67.019,69.8v-.811l-.456.089a3.305,3.305,0,0,1,.253.38c-.7-.089-1.267-.177-1.824-.266-.988-.431-1.976-.836-3.167-1.368,0,0-.2-.228-.443-.456V65.8a2.249,2.249,0,0,0-.2-1.457c.266,0,.494-.089.671-.089.063-.2.089-.317.114-.431a14.432,14.432,0,0,1,2.647-.266h.114c.38-.431,1.013-.089,1.393-.494.469.38.937,0,1.393,0a7.6,7.6,0,0,0,1.723-.266c.114,0,.2-.2.317-.291a1.862,1.862,0,0,1-.291-.291,19.585,19.585,0,0,1-2,.38c-.646.063-1.267.431-1.862.266-.608.431-1.393,0-1.976.291s-1.343,0-1.951.253a1.3,1.3,0,0,1-.139.443,1.127,1.127,0,0,1-.177-.621,3.674,3.674,0,0,0-.177-.608,2.014,2.014,0,0,1,1.267-.519,1.571,1.571,0,0,0,.785-.228,12.412,12.412,0,0,1,2.014-.532c.7-.114,1.419-.139,2.115-.253a3.952,3.952,0,0,0,1.013-.494.583.583,0,0,0,.089-.177l-.291-.291-4.636,1-1.267.608c-.443-.317-.849-.646-1.267-.963s-1.1.2-1.621-.2c-.494.317-1.077.139-1.6.2-.329,0-.671-.114-.912.228-.253-.291-.519-.317-.773,0a2.409,2.409,0,0,0-1.862-.2,10.791,10.791,0,0,1-1.862-.291,44.091,44.091,0,0,1-6.093-.241,26.371,26.371,0,0,0-4.281,0l-.494.494c-.114-.2-.2-.405-.317-.608.431-.557.165-1.14,0-1.685a2.634,2.634,0,0,0,.228-.266,2.394,2.394,0,0,0-.431-.7c-.988-.95-2-1.862-3.053-2.787a1.545,1.545,0,0,0-.722-.317,7.308,7.308,0,0,1-2.153-1.077,3.154,3.154,0,0,0-1.849-.659,2.166,2.166,0,0,1-.735-.291.785.785,0,0,0,.2-.925,2.66,2.66,0,0,1-.089-1.406,10.627,10.627,0,0,0,.443-2.533,11.4,11.4,0,0,1,.177-1.419l-.266-.291.545-.38a6.131,6.131,0,0,0,0-1.685c-.177-.532.2-.9,0-1.431h1.191c.494-1.482.874-2.9-.152-4.294l.241-.266a2.027,2.027,0,0,1-.367-.279c.38-.583.2-1.267.266-1.849s.177-1.267.291-1.862l.95-.785c-.114-.241-.2-.443-.317-.671l.811-.177a.633.633,0,0,0-.633-.659.365.365,0,0,0-.063-.2h.849c.583-.785.469-1.1-.355-1.267a3.992,3.992,0,0,1-.7-.152l-.317.152a1.264,1.264,0,0,1,.063-.494c.545.089,1.127-.177,1.621.266.089.076.355,0,.811-.063-.405-.405-.659-.646-.874-.874a4.192,4.192,0,0,0,.557-.2c-.469-.139-.722-.266-1.013-.317s-.317-.063-.557-.494a2.533,2.533,0,0,0,1.457.139c-.152-.456-.266-.925-.38-1.355h-.139a4.33,4.33,0,0,1-.127.785l-.9-.291V26.079c-.266-.089-.532-.215-.811-.329l-.621,1.267a2.534,2.534,0,0,1,.2.253l-1.267,1.051c-.139.671-.291,1.457-.405,2.153.089.165.114.253.177.342s-.2.355-.291.494c.139.2.228.38.317.519-.114.089-.139.177-.2.2a2.306,2.306,0,0,1-.469.127c.291.494.532.95.823,1.444l.456-.342a3.686,3.686,0,0,1,.241.747,2.039,2.039,0,0,1,0,1.14c-.241.405,0,.9-.177,1.165s-.114.861-.266,1.267a4.231,4.231,0,0,0-.633,4.383l-.874.583c-.266.963-.469,1.837-.671,2.673l-.38.089c-.253.557-.114,1.343-.811,1.748a10.893,10.893,0,0,1-3.053-2.989H24.637l-.963-.7c.114-.241.2-.443.317-.646l-.481-.19V41.6c.481-.089,1.039-.317,1.393-.165a12.667,12.667,0,0,0,2.812.279c-.633-.608.114-.975-.317-1.419.469-.38,0-.785,0-1.127a10.488,10.488,0,0,0,0-1.267,1.469,1.469,0,0,0-.418-1.191c-.114-.671-.228-1.267-.317-1.8.2-.127.405-.215.785-.418h1.887a3.623,3.623,0,0,0,.38-.519l-.469-.469-2.647.342c-.367-.583-.367-.583-.367-2.647-.152-.114-.355-.253-.557-.431.139-.646.266-1.267.405-1.951a5.624,5.624,0,0,0,.608.355,7.3,7.3,0,0,0,.089,1.33c.152-.317.228-.494.317-.633a4.991,4.991,0,0,1,.469.456c-.266.266-.494.494-.722.7.317.089.659.215.988.291l.367-.342c0-1.545.215-3.116-.659-4.623l-1.267.355c-.152.431-.266.785-.38,1.153l-.114-.114-.963.963h-.519l-.152.431c-.253-.139-.633-.456-.7-.405-.367.291-.608-.2-.9-.089s-.291,0-.342,0a3.141,3.141,0,0,1-.7.405,2.825,2.825,0,0,0-1.431.988,4.73,4.73,0,0,1-.114.583c-.025.2-.089.456-.139.722a3.876,3.876,0,0,0-.089.469,7.765,7.765,0,0,0-.874,2.141,1.994,1.994,0,0,0,.2.583c-.139.405-.291.811-.355.963.152,1.191.266,2.242.494,3.724h.241c.177.253.317.519.405.659l2.407.405a10.918,10.918,0,0,1-.291,2.128H20.7l-.988-.494c-.2.114-.342.228-.494.317a3.915,3.915,0,0,1-.317-.291l-.735.443a5.9,5.9,0,0,0-.367,1.267,4.509,4.509,0,0,0,.253,1.1,2.039,2.039,0,0,0-1.267,1.368,7.98,7.98,0,0,1,0,.963,6.89,6.89,0,0,0-.139.95,1.71,1.71,0,0,1-.228,1.026c-.152.317-.418.583-.583.874l-.633.963,1.343,1.026a1.115,1.115,0,0,0-.405.342c-.152.2-.266.469-.418.7a1.545,1.545,0,0,1-.405.557c-.139.089-.38,0-.545,0a.756.756,0,0,0-.114-.494l-.469.291c-.7-.494-1.431-.988-2.2-1.507-.709.139-.76.228-.849,1.267a2.913,2.913,0,0,1-.608,1.862,3.039,3.039,0,0,1,.266.291c-.532.659-.177,1.444-.329,2.229-.317.291-.633.608-.95.937.228.722-.469,1.039-.785,1.482s-.7,1.039-1.051,1.533a8.866,8.866,0,0,1-1.267,1.343A2.09,2.09,0,0,1,4.75,64.687L3.673,65.764v.469c-.608.874-.431,1.951-.7,2.9-.177.646,0,1.267-.228,2.014a7.866,7.866,0,0,0-.076,1.786c0,.583-.177,1.165-.228,1.748a12.221,12.221,0,0,0,0,1.368C1.8,76.949.76,77,0,77.493v.937H1.6a5.066,5.066,0,0,0,1.431-.152,3.673,3.673,0,0,1,1.444.152H4.56l.089-.089V77.126a1.621,1.621,0,0,0,0-.38,1.368,1.368,0,0,1,0-.785c.063-.317-.114-.785,0-.963.494-.545.063-1.267.405-1.824a4.623,4.623,0,0,0,0-1.925l.519-.519V69.463c0-.355.494-.671,0-1.026.38-.317,0-.874.228-1.127s.114-.785.291-1.14l.646-.076a13.844,13.844,0,0,1,.811-1.368c.722-1.026,1.621-1.925,2.267-3,0-.114.405,0,.405-.317,0-.671.469-1.039.874-1.482a5.674,5.674,0,0,0,.57-.722c.418-.519.823-1.051,1.267-1.571h0l.152-.089h.849c.139-.228.317-.469.431-.671l2.217-.291a2.052,2.052,0,0,0,.342.38l.266.2c.494.317,1.013.431,1.482.722,0,.532.431.646.811.785a2.724,2.724,0,0,1,.469.241c0,.545.494.785.722,1.153s.38.937.963,1.077a.747.747,0,0,1,.431.443c.152.494.583.747.874,1.1s.608.811.9,1.191v1.368c-.342.722-.671,1.267-.963,1.938a11.666,11.666,0,0,0-1.507,4.687,3.306,3.306,0,0,1-.836,1.976l-.988,1.267H17.113a5.929,5.929,0,0,1-.469.431,4,4,0,0,0-.722.177c.177.494.38.355.545.266h.089a1.267,1.267,0,0,1,.241.228l.228.241a1.546,1.546,0,0,0,.342,0,6.435,6.435,0,0,1,1.267-.241A3.509,3.509,0,0,1,20,76.48c.405.177.836-.177,1.127,0a2.888,2.888,0,0,0,1.267.228,2.305,2.305,0,0,1,.557.2.112.112,0,0,1,.114-.114h3.078l.469.722c.114-.367.2-.659.291-1.013A8.867,8.867,0,0,0,24.143,75a3.6,3.6,0,0,1-1.951-1.267,4.991,4.991,0,0,0,1.343-2.014,39.66,39.66,0,0,1,1.976-3.8,6.333,6.333,0,0,0,1.077-1.887c0-.139.279-.253.367-.317V64.586a2.647,2.647,0,0,0-1.267-1.431,1.7,1.7,0,0,1-.925-.95c-.089-.215-.266-.38-.355-.621-.139-.431-.608-.545-.874-.836a7.6,7.6,0,0,0-.9-1.1c-.342-.291-.469-.76-.9-.988s-.469-.76-.671-1.077c-.114-.583-.2-1.077-.291-1.482s.177-.583.241-.811l-1.368-.671a.786.786,0,0,0-.2.2,3.8,3.8,0,0,0-2.381.963A3.145,3.145,0,0,0,17,54.959l.76-.114c-.114-.2-.2-.342-.291-.519.38-.228.7-.469.925-.608a4.04,4.04,0,0,0,1.077.177,4.028,4.028,0,0,1,1.925.494c.114-.532.633-.7.988-1.051l1.127-1.127.836-.089a6.22,6.22,0,0,0,.849-.241,12.933,12.933,0,0,0,2.065,1.748A8.284,8.284,0,0,1,29.792,54.9h1.077a7.879,7.879,0,0,1-.063,2.2,11.16,11.16,0,0,0-.2,1.52c0,.494-.2.988-.228,1.507l-.266,3.23c0,.076-.139.165-.2.228a1.14,1.14,0,0,1,.177.545,13.186,13.186,0,0,1-.291,2.85,11.16,11.16,0,0,0-.2,1.52c-.063.494-.2.988-.228,1.507-.089.811-.114,1.659-.177,2.533l.76.747.608-.317a1.583,1.583,0,0,1-.241-.38c-.139-1.659.405-3.281.266-4.94,0-.253.266-.519.228-.874a9.31,9.31,0,0,1,.089-1.039c0-.342-.089-.557-.089-.811a5.067,5.067,0,0,1,0-.874c0-.266.241-.608.152-.7-.317-.317.139-.443.114-.7a7.689,7.689,0,0,1,.177-2.736,15.973,15.973,0,0,0,.418-2.584,1.355,1.355,0,0,1,.253-.456A1.558,1.558,0,0,1,32.211,55c.849.291,1.723.608,2.533.861.063,0,.177-.139.291-.2s.089,0,.152,0a5.067,5.067,0,0,0,.836.557,9.589,9.589,0,0,0,1.051.291,5.143,5.143,0,0,0,1.773,2.027,3.4,3.4,0,0,1,.57.355c.469.431.963.874.823,1.571-1.368.633-2.8.177-4.1.405-.342,1.013-.633,1.951-.988,2.964-.431-.063-.874-.152-1.482-.228l-.494.228c-.633.836-.228,1.621,0,2.47.545.089,1.127.177,1.824.253l.76.494v1.571c.253.291.545.646.988,1.1a5.329,5.329,0,0,0,.228.735l-1.862,1.685a3.8,3.8,0,0,1-.405.228l-3.977,2.913c-.443.317-.76.836-1.267.988a1.888,1.888,0,0,0-.431-.241l-1.989,1.723c-.253.7-.431,1.267-.633,1.761-.9-.139-1.685.7-2.533-.076-.317.57-.861.253-1.33.342h-.291c.2.228.405.494.469.583.494.114.785.165,1.127.228A.874.874,0,0,1,24.9,80.47a4.7,4.7,0,0,0,1.773.2,1.375,1.375,0,0,1,.811.177c.266.177.456-.152.722-.177s.583-.089.76.2c.089,0,.165-.152.253-.2.177.139.355.317.583.519.646-.266,1.482,0,2.039-.7.811,0,1.267-.811,2.318-.9.114-.114.355-.405.608-.671h.418a5.637,5.637,0,0,0,1.545-.811c.633-.747,1.71-.811,2.318-1.533h.089l.127.152.342-.291c.177.7.849,1.013,1.267,1.558a4.484,4.484,0,0,0,1.976,1.685c.405.152.836.241,1.267.38-.671.241-1.165.671-1.735.152H38.228l-.405.431.7.785c.342-.089.608-.177.874-.228a3.255,3.255,0,0,1,.608,0h1.976a6.333,6.333,0,0,1,.836-.114,8.462,8.462,0,0,0,.937.076,16.274,16.274,0,0,0,1.735-.228,18.257,18.257,0,0,1,1.862,0,4.864,4.864,0,0,0,.608,0,3.3,3.3,0,0,0,.443-.2l.165.177,2.1-.241a13.16,13.16,0,0,1,1.051-1.013,3.648,3.648,0,0,1,.811-.38.8.8,0,0,0,.266-.228c.811-1.1,1.6-2.217,2.356-3.23a10.906,10.906,0,0,1,.2-2.115,11.311,11.311,0,0,0,0-2.356c-.266-.519-.494-.925-.7-1.368.519-.089,1.013-.139,1.482-.228s.722.228,1.013.114a6.067,6.067,0,0,1,1.887-.228c.152,0,.266-.2.405-.241.849-.089,1.659-.633,2.533,0,.494-.139.988.266,1.52.063l.456.456h.988c.583.671,1.431.443,2.065.811s1.267.709,2.09,1.14c.291,0,.785-.089,1.267-.114.177.177.342.519.583.583.836.2,1.507.722,2.318.95l.177-.089v-.456c-.988-.557-1.976-1.077-2.989-1.634a5.51,5.51,0,0,1-3.433-1.3ZM36.2,28.929a.165.165,0,0,0,0,.114l-.405.089v-.2Zm-1.368,2.419h.089v.228h-.089Zm-1.621-.215h-.089V30.88h.089Zm.747.063V31.6a.19.19,0,0,0-.114,0,.7.7,0,0,0-.089-.405.671.671,0,0,1,.2-.063ZM33.465,38.4c.152.38.266.659.38.988a.122.122,0,0,0-.114.089c-.2-.2-.38-.418-.608-.621Zm.557,2.533-.646.317-.317-.646c.38-.253.671-.139.963.241ZM32.363,45h.089v.228h-.089ZM27.309,28.6v1.191c-.2-.418-.317-.671-.494-.988A2.533,2.533,0,0,0,27.309,28.6ZM2.9,73.934c-.089-.38.646-.671,0-1.039.291-.329.2-.735.2-1.115a5.548,5.548,0,0,1,0-1.267c0-.355.291-.633,0-.988.342-.342,0-.9.2-1.127s0-.785.291-1.115h.317c.443.937-.608,1.887,0,2.825-.139.253-.291.545-.456.9a1.444,1.444,0,0,1,.165.317,3.375,3.375,0,0,1-.139.7c-.063.266-.266.519-.2.608s.266.469,0,.722a.512.512,0,0,1,0,.532c-.177.241,0,.519,0,.836C2.989,74.542,2.989,74.2,2.9,73.934Zm.557,2.445a3.141,3.141,0,0,0,0,.785c-.228-.405-.228-.405,0-.7a12.2,12.2,0,0,0,0-1.52C3.8,75.707,3.8,75.885,3.458,76.379Zm.405-1.685H3.8v-.735h.114Zm.266-1.685v.633H4.015a1.787,1.787,0,0,0-.089-.671.329.329,0,0,0,.2.038Zm0,2.343h-.2v-.076h.228Zm.2-2.673a.177.177,0,0,0-.139,0,6.333,6.333,0,0,1-.063-.849v-.811h.2ZM4.6,70.7H4.484A2.1,2.1,0,0,0,4.4,70.3h.2Zm.089-1.267v-.3a.2.2,0,0,0,.114,0,.7.7,0,0,0,.089.405.519.519,0,0,0-.177-.051Zm.7-3.217h-.76c.089-.494.291-.76.785-.621Zm.836-1.14c-.2-.494-.089-.811.557-1.127-.241.57-.38.861-.532,1.178Zm2.989-4.243a3.015,3.015,0,0,0-.253.494h-.38c-.089.2.114.494,0,.646H8.487l-1.52,2.166a1.8,1.8,0,0,1,1.368-2h0c.089-.228-.228-.608.241-.722h0l.608-1.267c.114,0,.253.089.494.139Zm1.862-2.673h0a.383.383,0,0,1-.089.241c-.139.519-.785.722-.925,1.267a.811.811,0,0,0,0,.114v.177c-.418-.646.291-.937.342-1.431,0-.165.405-.279.7-.494a.15.15,0,0,0,.114-.076l.089.076c-.089.063-.139.127-.2.177Zm2.242-2h-.646c-.2.291-.405.633-.735,1.077a3.739,3.739,0,0,0-.139-.671c.177-.317,0-.963,0-1.571a2.635,2.635,0,0,1,.608-1.571c.963.241,1.457,1.026,2.128,1.634Zm2.875-.557h-.9c.291-.317.494-.519.659-.722a.887.887,0,0,1,.215.114,4.307,4.307,0,0,1,.051.659Zm.2-1.647H16.3v-.241h.165Zm9.145,21.673v.2h-.405a.165.165,0,0,0,0-.114Zm-2.027-.671.608.291v.342a4.131,4.131,0,0,0-.431-.2h-.7c.279-.177.393-.291.545-.38Zm-1.951,0c-.608-.177-.76-.494-.608-.988.722.228.7.228.583,1.013Zm.494-2.533h-.089V72.2h.089Zm.291-.494H22.23v-.494h.114Zm.2-.988h-.089v-.228h.089Zm1.165-1.685a1.419,1.419,0,0,1-.152.443c-.431-.469-.076-.7.355-.874a2.2,2.2,0,0,0-.177.481Zm1.1-1.8h-.431c.114-.253.228-.469.431-.925Zm.469-1.191h-.114v-.494h.165Zm.583-2.153v.557c-.2.114-.418.2-.671.355,0-.355-.063-.735-.089-1.077s-.722-.494-.722-1.051c.722.2.773,1.039,1.507,1.267Zm-1.583,3.749c.266.443-.114.519-.291.76C23.737,68.095,24.067,68.006,24.282,67.867ZM24.067,62.8l-.2-.621C24.067,62.141,24.067,62.141,24.067,62.8Zm7.815-18.392h.089v.228h-.089Zm-.266.494h.127V45.4h-.076Zm.127,1.444v.241h-.076v-.253Zm-.291-.456.089.089-.215.165-.165.2-.1-.013a1.355,1.355,0,0,1,.2-.177.684.684,0,0,0,.177-.253Zm-.735,1.571c.063.608.063.608-.317.519a4.079,4.079,0,0,0,.3-.507Zm-1.887,0a3.294,3.294,0,0,1,0,.469A3.914,3.914,0,0,1,26.5,46.181c.811.266,1.368,1.165,2.318,1.229Zm-3.5-2.027c.228.355-.152.494-.38.722-.152-.076-.317-.2-.494-.317a.988.988,0,0,0-.671.583l.152.152.2.165-.089.089a.963.963,0,0,1-.177-.2h-.139a4.763,4.763,0,0,0-.127-.7l-.7-.089c.063-.089.089-.177.152-.2H23.9a11.615,11.615,0,0,0,1.431-.2Zm-.494,2.673v.228h-.089v-.228Zm-.494-3.8a3.028,3.028,0,0,0,.089.443c-.646.076-1.267.165-1.951.291a.972.972,0,0,0-.063-.38c.671-.063,1.292-.19,1.9-.3ZM22.6,41.925l.089.089-.2.177c-.063,0-.114.139-.177.2l-.089-.089c.063,0,.152-.114.2-.177s.1-.089.152-.152Zm-.405-2.381c.2-.139.38-.291.583-.405s.089.089.114.139a6.4,6.4,0,0,1-.317.671,2.031,2.031,0,0,1-.405-.355Zm3.281.925a.583.583,0,0,1-.811.127,1.951,1.951,0,0,1-1.191-1.267l2.47.836a7.143,7.143,0,0,0,.38.646,8.082,8.082,0,0,0-.874-.291ZM24.979,39.2v-.241h.089V39.2Zm1.634.431h-.443l-.089-.114.494-.152a2.423,2.423,0,0,1,.025.317Zm.114-2.673h.089v.228h-.089ZM24.776,31.3l.355.342c-.329.317-.241.76-.2,1.165a11.009,11.009,0,0,0,.253,1.267l-1.267-.355Zm-.709-1.431v.266h-.443l-.089-.114A1.811,1.811,0,0,0,24.067,29.867Zm-.646,1.8h.089v.241h-.089Zm-.621-2a2.837,2.837,0,0,1,.583-.063,3.079,3.079,0,0,1,0,.355c-.38,0-.646.076-1.115.114C22.547,29.867,22.635,29.715,22.8,29.664Zm.469,1.824a3.344,3.344,0,0,0-.494.317c-.139-.317-.177-.57.469-.317ZM22,29.626h.076v.241H22Zm2.065,4.509c-.367.431-.367.431-1.773.431l-.342-.342C22.192,33.667,22.952,33.667,24.067,34.135Zm-2.191-3v.659h-.114a5.438,5.438,0,0,0-.089-.633.557.557,0,0,0,.2-.025Zm0,1.735v.405h-.114a2.1,2.1,0,0,0-.089-.405.38.38,0,0,1,.2.013Zm-1.1.7h.089v.241h-.089Zm-.228.494h.076V34.3h-.076Zm1.1,4.889h-.874l-.811-.823v-1.52c.165-.469.988-.266.95-.963-.139-.089-.317-.139-.608-.291,1.267-.2,2.445.177,3.458-.545a1.09,1.09,0,0,1,.2.165l1.773-.228c.152.291.291.519.405.785a3.635,3.635,0,0,0-.228.431c.266.671.519,1.267.811,2.1a8.534,8.534,0,0,1-1.267-.215c-.152,0-.608.266-.874.152a4.813,4.813,0,0,0-1.786-.228c-.2-.241-.469-.583-.722-.937H20.913c.177.2.228.443.342.443a3.661,3.661,0,0,1,1.52.9c.114.114.253.114.456.114v.469l-.583-.38.114-.114a4.775,4.775,0,0,0-1.115.7Zm.2,4.294c.253.228.405.38.583.557-.177.165-.291.253-.469.431-.177-.139-.355-.291-.405-.317.089-.228.177-.393.291-.659Zm-3.8,12.287c.241-.2.405-.38.646-.608l.785.355a9.906,9.906,0,0,0,0,1.064,4.294,4.294,0,0,0,.253.874,2.9,2.9,0,0,0,.291-.139c.671.836.671.836.671,1.368l.228.228h0a2.28,2.28,0,0,1,.785.583l.177.177a4.738,4.738,0,0,1,.317.367c.152.2.291.418.443.583a1.875,1.875,0,0,0,.317.38,3.636,3.636,0,0,0,.7.7c-.469.355-.671-.291-1.013-.266A6.511,6.511,0,0,0,20.913,59s0-.139,0-.253v-.089l-.228-.241c-.443-.317-.963-.545-.988-1.191-.469-.494-.874-.9-1.267-1.267H17.037a3.483,3.483,0,0,1-.063-.431c.405.013.76.013,1.064.013Zm3.344-3.192-.608-.291-1.482.405a2.537,2.537,0,0,1-.114-.317,1.457,1.457,0,0,1-1.2-.735h-.405c-.2-.557-.405-1.14-.621-1.659.785-1.051.785-1.051.785-2.787.266-.38.494-.735.76-1.1l1.191-.266a4.434,4.434,0,0,0,0,.633h1.191l-.849.494c-.405-.076-.811-.165-1.368-.317.063.405.127.7.177,1.051l-.291.291c.177,1.267-.545,2.407-.633,3.623h0a9.817,9.817,0,0,0,1.773.494,8.55,8.55,0,0,0,1.659-.139,2.128,2.128,0,0,0,.025.633Zm.266-4.129V48.7h-.823l-.7-.355a14.807,14.807,0,0,0,1.507-.127ZM20.013,47.6v-.747l.532.633Zm.76,0a1.692,1.692,0,0,0-.152-.7c.329.291.443.443.646.621Zm-1.6,3.293,1.267-.266.7.494a2.141,2.141,0,0,1-1.963-.19Zm2.673,1.849h-.089v-.228h.089Zm0-1.621-.317-.279.317-.063Zm.7-.355h-.089v-.228h.089Zm-1.393-.747h0a1.444,1.444,0,0,1-.177.2.975.975,0,0,0-.089-.2H19.621c.722-.279.722-.279,1.191,0a.418.418,0,0,0,.317,0h0c-.114-.963,1.013-.557,1.267-1.267v-.139c.177.431.317.722.443,1.013a6.665,6.665,0,0,1-1.659.431Zm.811-1.267v-.494h.114v.608Zm1.343-.659a3.585,3.585,0,0,1-1.368-1.165c-.494-.519-1.013-1.013-1.507-1.545a2.255,2.255,0,0,1-.76-2c.557.114.608.608.9.937s.811.633,1.013,1.039a3.382,3.382,0,0,0,1.368,1.482,1.267,1.267,0,0,1,.532,1.6s-.063-.241-.152-.266Zm.139,2.9v-.836c.291.165.469.279.7.431a6.067,6.067,0,0,0-.671.481Zm3.547,1.013c-.114-.2-.2-.405-.317-.583a4.837,4.837,0,0,0-.443-.456h-.266c-.317-.317-.633-.7-1.013-1.026a4.762,4.762,0,0,0-.887-.443c0-.139.139-.317.228-.519.671.519,1.267.963,1.837,1.457l.089.114a2.533,2.533,0,0,1,.165.494h0c.646-.089.7.494,1.191.722a2.09,2.09,0,0,1-.557.317Zm1.191.735-.2-.469h.76a1.127,1.127,0,0,1-.532.545Zm2.065.836c0-.177.114-.291.177-.469.367.266.722.469,1.1.735-.494.367-.785-.076-1.254-.19Zm-.114-1.1h.925a3.965,3.965,0,0,1-.139.608q-.393-.247-.76-.532Zm1.8.963h-.089V53.2h.089Zm-.355-3.8a2.077,2.077,0,0,1,.177.722,9.652,9.652,0,0,1-.469,1.6c-.456,0-.836.152-1.1-.228L29.893,52a1.494,1.494,0,0,0-.139-.469c-.519-.114-1.051-.228-1.6-.38-.089-.139-.089-.431-.469-.494-.139,0-.177-.431-.494-.494a1.786,1.786,0,0,1-.671-.431c-.2-.177-.367-.405-.608-.646l.469-.456v-1.14a7.321,7.321,0,0,1,2.2.785,3.952,3.952,0,0,0,1.393.76l.937.317c.165-.266.342-.494.633-.9V47.435l.114-.127.291-.279h0a.493.493,0,0,1,.114.139h0c-.177.874-.291,1.7-.405,2.508ZM32.2,45.6H32.11v-.228H32.2Zm2,8.727c.532.266.785.405,1.14.545C34.808,55.086,34.479,55,34.2,54.326ZM34.086,65.6v-.963a3.344,3.344,0,0,1,.608.519,3.23,3.23,0,0,1,.152.418c-.3,0-.532,0-.8.025Zm1.773-2.242v-.2h.405a.19.19,0,0,0,0,.114Zm13.047-1.913a.19.19,0,0,0,.114,0,.7.7,0,0,0,.089.405h-.2ZM38.583,76.2a1.381,1.381,0,0,0-.849.342A14.908,14.908,0,0,1,33.06,78.9c-.431.152-.874.114-1.267.266a3.192,3.192,0,0,1-1.127.228,2.1,2.1,0,0,0-.494.152l-1.773-.7c-.089-.177-.139-.355-.228-.557a.393.393,0,0,1,0-.114,5.193,5.193,0,0,0,1.267-.811,20.734,20.734,0,0,1,2.989-2.356c.317-.266.405-.722.963-.874s.76-.494,1.191-.671a5.3,5.3,0,0,0,1.127-.836c.469-.38.849-.811,1.343-1.165s1.165-.76,1.71-1.1l.646.317a8.145,8.145,0,0,0,.253,5.067A2.533,2.533,0,0,1,38.583,76.2Zm.722-9.12c.152.114.266.228.608.519l-.988-.266a1.431,1.431,0,0,1-1.191.177v-.633c.532.317,1.077.114,1.533.2Zm-.519-1.267v-.228h.089v.228Zm.7-.988v-.2h.9v.152a6.833,6.833,0,0,1-.9.063Zm.963,4.851h-.2V69.26a.2.2,0,0,0,.114,0,2.8,2.8,0,0,0,.089.431Zm-.266-2.533v.089h-.228v-.089Zm-.583,2.85h-.329v-.431a.122.122,0,0,0,.114-.089,3.091,3.091,0,0,0,.215.507Zm-.405-1.127v.114H38.7v-.114Zm-.76-3.8c-.456,0-.925.2-1.191-.443h1.191Zm1.837,9.905a2.814,2.814,0,0,0-.114-.469,1.7,1.7,0,0,1-.177.139V73.516c0-.114-.152-.2-.228-.317V71.933a1.267,1.267,0,0,1,.139.912,2.216,2.216,0,0,0,.2.317l.355,1.647a.57.57,0,0,0-.177.177Zm14.757-1.165a3.711,3.711,0,0,1-1.077,2.267s-.177.114-.177.177c0,1.1-.9,1.482-1.558,2.052a2.179,2.179,0,0,1-1.267.583,3.94,3.94,0,0,0-.874.291,3.9,3.9,0,0,1-2.533.443.532.532,0,0,0-.2,0l-.241.241c-.342-.469-1.013-.127-1.444-.532-.469.38-.937-.38-1.343.063-.545-.38-.836-1.013-1.571-.937l-1.761-1.6a4.661,4.661,0,0,1-.355-1.013,2.533,2.533,0,0,1,.089-.925c.114-.329-.114-.557-.152-.823a20.407,20.407,0,0,0-.405-2.229c.114-.355.241-.811.38-1.267l-.38-.38a10.409,10.409,0,0,1-.114,1.039H39.9V70.071h.583a1.621,1.621,0,0,0,.317-.861,2.242,2.242,0,0,0,0-.583,1.61,1.61,0,0,1-.2-.177l.2-.089.342-.494a3.04,3.04,0,0,1,.291.266c.241-.443.9-.583.849-1.267,0,0-.139-.114-.2-.177l.1-.089c.063.063.114.152.177.2h0a5.067,5.067,0,0,0,.519-.38l1.267-.367a2.888,2.888,0,0,1-.317-.38l2-.557a1.647,1.647,0,0,0,1.6.152,2.673,2.673,0,0,1,2.267.114,3.268,3.268,0,0,0,.925.405,2.343,2.343,0,0,1,1.368.608c.152.152.443.152.557.177a10.133,10.133,0,0,0,.722.874c.608.633,1.343,1.153,1.267,2.2a4.357,4.357,0,0,1,.494,1.659,4.319,4.319,0,0,1,0,2.508ZM40.533,64.345v-.279h0v.228Zm.177.291H42.4v.2h-.811a4.965,4.965,0,0,0-.785.355,4.694,4.694,0,0,1-.127-.557Zm1.976.114v-.089h.228v.089Zm.76,1.267v-.089h.228v.089Zm7.6-1.267.405-.089v.2h-.418a.253.253,0,0,1,.038-.165Zm3.635,2.318h0a.507.507,0,0,0,.089-.114.418.418,0,0,1,0-.2s.089-.089.291-.266a5.968,5.968,0,0,1-.177.583h0V66.98a1.141,1.141,0,0,1-.063.114l-.165.215-.19-.139a.608.608,0,0,0,.241-.152Zm-.215-1.153.405-.089v.2h-.405a.1.1,0,0,0,0-.114Zm-.317-.874c-.418-.177-.785,0-1.165-.089h0a.659.659,0,0,0-.139.266s.089,0,.089-.114.076.228.114.342-.089.089-.291.266a2.305,2.305,0,0,1,0-.469c-.114,0-.367,0-1.013-.469a7.79,7.79,0,0,1,2.419-.089,1.6,1.6,0,0,0,.317.089c.608-.291,1.267.494,1.887-.114.139-.139.519,0,.963,0-.215.342-.329.519-.38.583-.557,0-1.026-.089-1.482-.089a3.686,3.686,0,0,1-1.279-.114Zm0,1.191-.646.089v-.228h.671a.329.329,0,0,0,.038.139ZM55.163,67.5h-.228v-.089h.228Zm.291-1.431a.19.19,0,0,0,0-.114l.405-.089v.2Zm1.165.317v.735l-.38-.735Zm0,1.368h-.228v-.089h.228Zm.177-1.647h-.089v-.241H56.8Zm.342,2.229-.165.2L57,68.411l.2-.165a2.646,2.646,0,0,1,.177-.215l.076.089a.443.443,0,0,1-.228.177Zm0-1.71h0a.507.507,0,0,0-.089.114.418.418,0,0,1,0,.2s-.089.089-.291.266c.089-.329.152-.469.177-.608s0,0,0,.076v-.114l.177-.2.076.089s.1.076.038.152Zm.874,0h0v-.241H58.1Zm.557-1.52H57.405c.405-.431.405-.431,1.165-.38Zm0-.95c-.722-.266-1.419.659-2.242,0l-.317.228a11.4,11.4,0,0,0-1.419-.177,21.534,21.534,0,0,0-2.217,0c-.57,0-1.127-.291-1.71-.139-.317-.38-.469.114-.811.139-.063,0-.2-.139-.355-.266a8.93,8.93,0,0,0-2.533.215A4,4,0,0,0,44.853,64c.38.177.519.228.874.405a3.382,3.382,0,0,1-2.242-.2,1.482,1.482,0,0,0-1.685,0c-.114,0-.228-.139-.38-.228,0,.152-.114.291-.2.557-.089-.2-.114-.329-.2-.532a2.533,2.533,0,0,0-1.862.329q0,.247,0,.608h-.38c.063-.317.114-.633.177-.925a6.521,6.521,0,0,1-.7,0s-.089.2-.177.38h-.405c.089-.114.177-.2.228-.279l-.874-.621c-.139.671-.291,1.267-.456,2.217a5.067,5.067,0,0,1,.608-3.5v.937l1.127-.291-.633-.266c.2-.342.405-.7.671-1.1h4.231a.2.2,0,0,1,.127,0h0l.114.114h0c.355,0,.76.152,1.077-.165h0c.519.228,1.077,0,1.621.152a2.153,2.153,0,0,0,.9,0,3.382,3.382,0,0,1,1.723.076,2.736,2.736,0,0,1,.519.469h.925a.266.266,0,0,0,0-.114l-.089-.089a2.015,2.015,0,0,1-.139-.228h1.267l-.253.317.785.431c-.114-.317-.2-.494-.291-.747h.633a4.166,4.166,0,0,0,.2.557c.241-.114.443-.2.646-.317a.329.329,0,0,1,.089-.177c.114-.177.342,0,.583,0h0c-.089.152-.139.228-.2.355l1.077.342c.089-.494-.405-.405-.7-.7.291,0,.583-.089.722,0a4.345,4.345,0,0,1,.608.785l.38-.633.177.494a3.307,3.307,0,0,1,.38-.241l.494.241a2.42,2.42,0,0,1,.089-.38c.545-.355,1.267.2,1.849-.38.215.291.38.583.583.9a3.272,3.272,0,0,1,.215,1.507Zm1.343,4.18c-.089-.291-.177-.557-.291-.9l.342-.291a1.685,1.685,0,0,1,.063,1.127Zm.114-1.545-.291.089a.215.215,0,0,1-.177-.177V62.9h.405c.317.494-.2,1.165.291,1.545-.317.747.025,1.533-.114,2.28Zm10.133,4.687h-.114v-.089h.228Z" transform="translate(0 -25.75)" fill="#1f7762"/>
  <path id="Trazado_24635" data-name="Trazado 24635" d="M3.6,67.482l.089-.076v0Z" transform="translate(0.96 -14.915)" fill="#1f7762"/>
  <path id="Trazado_24636" data-name="Trazado 24636" d="M15.55,30.325a3.036,3.036,0,0,1,.152-.735C15.639,29.831,15.613,30.109,15.55,30.325Z" transform="translate(4.147 -24.726)" fill="#1f7762"/>
  <path id="Trazado_24637" data-name="Trazado 24637" d="M13.125,65.21l-.089.063C12.947,65.337,13.087,65.248,13.125,65.21Z" transform="translate(3.469 -15.227)" fill="#1f7762"/>
  <path id="Trazado_24638" data-name="Trazado 24638" d="M15.091,37.194h.063c-.228-1.482-.355-2.533-.494-3.724C14.863,34.838,14.977,36,15.091,37.194Z" transform="translate(3.909 -23.691)" fill="#1f7762"/>
  <path id="Trazado_24639" data-name="Trazado 24639" d="M61.571,56.865l-1.127-.811c.317-.494.57-.925.9-1.419-.7-.38-1.368-.7-2.242-1.165-.874.177-1.951.38-2.812.519l-1.431,2.267a.469.469,0,0,1,0,.266c-.114.342-.633.494-.747.9a8.575,8.575,0,0,0,.431,2.875,2.242,2.242,0,0,0,.431.633,4.737,4.737,0,0,0,1.165.735,5.827,5.827,0,0,0,1.368.545c.431.127.874.291,1.267.443.747-.583,1.469-1.14,2.179-1.659.076-.291.2-.608.317-.963-.089-.114-.2-.228-.317-.38.545-.367,0-.861.279-1.267a4.307,4.307,0,0,0,.342-1.52ZM60.38,55.243h.089v.228H60.38Zm-1.8-.7h.671v.7c-.241-.114-.443-.228-.671-.355Zm1.8,6.156a6.511,6.511,0,0,1-1.6.849,1.647,1.647,0,0,1-1.368-.127,7.309,7.309,0,0,0-1.8-.608c0-.722-.849-1.368-.494-2.293.785-.9.7-2.293,1.571-3.192l.2.431c.089-.177.2-.317.342-.583l.089-.2a1.634,1.634,0,0,1,.874-.785,1.858,1.858,0,0,0,.089.735c-.317.114-.646.2-.988.342v.519c.545.874,1.482.215,2.179.76a7.427,7.427,0,0,1,.089-1.419l.114-.114a2.647,2.647,0,0,1,.139.545L60,55.383v1.431c-.545.165-1.077.342-1.659.545v1.026l.823.253c.228-.089.494-.139.811-.253a3.978,3.978,0,0,0,.291-.76,2.168,2.168,0,0,0-.177-.557,1.647,1.647,0,0,0,.355-.342c.076.405.165.811.253,1.191-.114.9-.2,1.887-.317,2.787Z" transform="translate(14.429 -18.358)" fill="#1f7762"/>
  <path id="Trazado_24640" data-name="Trazado 24640" d="M54.878,55.88c-.114.342-.633.494-.747.9v2.407a1.267,1.267,0,0,1,.431.469,8.461,8.461,0,0,1-.431-2.875C54.245,56.4,54.764,56.222,54.878,55.88Z" transform="translate(14.434 -17.715)" fill="#1f7762"/>
  <path id="Trazado_24641" data-name="Trazado 24641" d="M57.416,52.87c1.191-.152,2.293-.785,3.521-.557.165-.2.279-.342.456-.583-.228-.089-.317-.165-.38-.139a19.367,19.367,0,0,0-4.028,1.191.279.279,0,0,1-.152,0c-.988-.2-1.8.443-2.723.583V53.8A31.149,31.149,0,0,1,57.416,52.87Z" transform="translate(14.429 -18.86)" fill="#1f7762"/>
  <path id="Trazado_24642" data-name="Trazado 24642" d="M54.445,59.13a4.5,4.5,0,0,1-.545.355c.177.177.291.266.469.431A1.064,1.064,0,0,0,54.445,59.13Z" transform="translate(14.373 -16.849)" fill="#1f7762"/>
  <path id="Trazado_24643" data-name="Trazado 24643" d="M54.346,59.146a1.115,1.115,0,0,1-.076.785l.367-.747-.114-.114Z" transform="translate(14.472 -16.865)" fill="#1f7762"/>
  <path id="Trazado_24644" data-name="Trazado 24644" d="M15.053,36.789c0-.139-.139-.291-.253-.519v.925C14.939,37.195,15.053,37.195,15.053,36.789Z" transform="translate(3.947 -22.945)" fill="#1f7762"/>
  <path id="Trazado_24645" data-name="Trazado 24645" d="M14.82,37.085h.431l-.2-.405C15.048,37.085,14.934,37.085,14.82,37.085Z" transform="translate(3.952 -22.835)" fill="#1f7762"/>
  <path id="Trazado_24646" data-name="Trazado 24646" d="M49.554,56.384V56.27H49.06v.114Z" transform="translate(13.083 -17.611)" fill="#1f7762"/>
  <ellipse id="Elipse_682" data-name="Elipse 682" cx="0.089" cy="0.355" rx="0.089" ry="0.355" transform="translate(33.06 25.435)" fill="#1f7762"/>
  <path id="Trazado_24647" data-name="Trazado 24647" d="M22.82,48.65v.241h.089V48.65Z" transform="translate(6.085 -19.643)" fill="#1f7762"/>
  <path id="Trazado_24648" data-name="Trazado 24648" d="M31.7,55.333V54.89h-.9Z" transform="translate(8.213 -17.979)" fill="#1f7762"/>
  <path id="Trazado_24649" data-name="Trazado 24649" d="M31.74,55.1v.2l.405-.089V55.1Z" transform="translate(8.464 -17.923)" fill="#1f7762"/>
  <path id="Trazado_24650" data-name="Trazado 24650" d="M44.592,54.569a.19.19,0,0,0,0,.114H45v-.2Z" transform="translate(11.889 -18.089)" fill="#1f7762"/>
  <path id="Trazado_24651" data-name="Trazado 24651" d="M33.893,54.07l-.2.165.089.089a.773.773,0,0,0,.152-.2Z" transform="translate(8.984 -18.198)" fill="#1f7762"/>
  <path id="Trazado_24652" data-name="Trazado 24652" d="M33.88,54.09Z" transform="translate(9.035 -18.193)" fill="#1f7762"/>
  <path id="Trazado_24653" data-name="Trazado 24653" d="M33.76,54.313c.063,0,.114-.139.177-.2h0A.393.393,0,0,0,33.76,54.313Z" transform="translate(9.003 -18.187)" fill="#1f7762"/>
  <path id="Trazado_24654" data-name="Trazado 24654" d="M33.88,54.09Z" transform="translate(9.035 -18.193)" fill="#1f7762"/>
  <path id="Trazado_24655" data-name="Trazado 24655" d="M33.88,54.09Z" transform="translate(9.035 -18.193)" fill="#1f7762"/>
  <path id="Trazado_24656" data-name="Trazado 24656" d="M41.47,54.27h0a.747.747,0,0,0,.139.241l.089-.089A1.191,1.191,0,0,0,41.47,54.27Z" transform="translate(11.059 -18.145)" fill="#1f7762"/>
  <path id="Trazado_24657" data-name="Trazado 24657" d="M41.47,54.27Z" transform="translate(11.059 -18.145)" fill="#1f7762"/>
  <path id="Trazado_24658" data-name="Trazado 24658" d="M41.673,54.427c-.063,0-.152-.114-.2-.177h0a1.444,1.444,0,0,1,.2.177Z" transform="translate(11.059 -18.15)" fill="#1f7762"/>
  <path id="Trazado_24659" data-name="Trazado 24659" d="M45.6,61.792c-.405-.494-.545-1.191-1.039-1.659s-.849-1.077-1.343-1.507a12.832,12.832,0,0,0-1.773-1.013c-.317-.127-.811.228-1.064-.152a15.112,15.112,0,0,1-2.8.152,8.955,8.955,0,0,1-1.444.925,11.134,11.134,0,0,0-2.293,1.571,2.179,2.179,0,0,0-.735,1.267c-.177.583-.089,1.267-.545,1.748v.342a6.08,6.08,0,0,0,.494,3.369c.076.152,0,.405,0,.671.228.228.519.405.633.633A3.369,3.369,0,0,0,36.3,69.772a8.537,8.537,0,0,0,3.2.317,2.305,2.305,0,0,1,.811.152,5.774,5.774,0,0,1,.722-.38,16.467,16.467,0,0,0,2.331-.963,6.333,6.333,0,0,0,1.33-1.482A4.649,4.649,0,0,0,45.862,64.6a7.344,7.344,0,0,1,.2-1.026C45.52,63.211,46.065,62.375,45.6,61.792Zm-6.245-3.648v.114l-.633.089v-.2A5.293,5.293,0,0,0,39.352,58.144ZM33.892,67.72H33.8v-.241h.089Zm7.727,1.621h-.228v-.089h.228Zm3.027-4.864c-.152.481-.177,1.064-.329,1.6s-.633,1.013-.836,1.621-.811.7-1.267,1.051L42,68.467l-.228.241-.266.253h-.773c-.152.266-.291.494-.443.735H38.541a4.382,4.382,0,0,0-.494-.469,1.659,1.659,0,0,1-1.685,0l-.988-.431c.291-.063.519-.089,1.051-.177-.405-.089-.621-.114-.823-.177,0-.089.152-.139.2-.228l-.2.2c-.114,0-.2-.177-.317-.2a2.887,2.887,0,0,0-.469,0c-.228-.608-.57-1.077-1.393-.988l.291-.38c-.519-.291-.456-.9-.747-1.368a2.1,2.1,0,0,1,.2-.253c-.089-.7-.152-1.343-.2-1.8a4.345,4.345,0,0,0,.519-1.2,2.356,2.356,0,0,1,.912-1.545c.253-.266.494-.557.7-.76h.57l.443-.747a2.674,2.674,0,0,1,.253.228l.849-.583a1.558,1.558,0,0,0-.228-.253l.405-.089c.089.165.114.317.2.456.7-.076,1.368-.2,2.065-.291a1.848,1.848,0,0,1,.165-.456,3.2,3.2,0,0,0,.532.228l.545-.2a1.488,1.488,0,0,0,.089.431.114.114,0,0,0,.177.089,1.824,1.824,0,0,1,1.482.583A18.075,18.075,0,0,1,44.3,61.437c.342.456.253,1.013.494,1.533a2.217,2.217,0,0,1-.152,1.507Z" transform="translate(8.668 -17.294)" fill="#1f7762"/>
  <path id="Trazado_24660" data-name="Trazado 24660" d="M32.32,59.34v.228l.2-.076A.937.937,0,0,1,32.32,59.34Z" transform="translate(8.619 -16.793)" fill="#1f7762"/>
  <path id="Trazado_24661" data-name="Trazado 24661" d="M32.57,65.611h.089V65.37H32.57Z" transform="translate(8.685 -15.185)" fill="#1f7762"/>
  <path id="Trazado_24662" data-name="Trazado 24662" d="M18.668,34.3a1.381,1.381,0,0,0,.241.228,2.533,2.533,0,0,0,1.127.228c.241-.2.469-.431.671-.633a1.925,1.925,0,0,0-.089-.519,2.267,2.267,0,0,0-.317-.418c-.671.152-1.267.266-1.862.38a2.533,2.533,0,0,0,.114.557A.532.532,0,0,1,18.668,34.3Z" transform="translate(4.917 -23.766)" fill="#1f7762"/>
  <path id="Trazado_24663" data-name="Trazado 24663" d="M18.62,34.07a1.381,1.381,0,0,0,.241.228.684.684,0,0,1-.241-.228Z" transform="translate(4.965 -23.531)" fill="#1f7762"/>
  <path id="Trazado_24664" data-name="Trazado 24664" d="M17.175,35.85H16.77v.215l.405-.089A.279.279,0,0,1,17.175,35.85Z" transform="translate(4.472 -23.057)" fill="#1f7762"/>
  <path id="Trazado_24665" data-name="Trazado 24665" d="M15.319,41.63H15.23v.241h.089Z" transform="translate(4.061 -21.515)" fill="#1f7762"/>
  <path id="Trazado_24666" data-name="Trazado 24666" d="M56.62,56.063a8.363,8.363,0,0,1-.633.583c-.089.405-.2.811-.317,1.267h.925c.139-.671,1.013-1.013.76-1.862Z" transform="translate(14.845 -17.67)" fill="#1f7762"/>
  <path id="Trazado_24667" data-name="Trazado 24667" d="M55.37,58.215h.089V58H55.37Z" transform="translate(14.765 -17.15)" fill="#1f7762"/>
  <path id="Trazado_24668" data-name="Trazado 24668" d="M43.919,64.319c-.063-.2-.089-.317-.114-.431h-1.14a5.4,5.4,0,0,1-1.039-.152c-.342-.063-.621.443-.849-.089a1.267,1.267,0,0,1-.266.2,4.861,4.861,0,0,1-.367-.342c.7-.355,1.393-.671,2.027-1.077a1.393,1.393,0,0,1,.76-.291c.405,0,.836-.089.95-.633-.747-.329-1.153.342-1.735.494a17.38,17.38,0,0,0-1.887.633c.747-1.267,2.027-1.482,2.875-2.356-.241-.139-.443-.291-.608-.405a12.667,12.667,0,0,1-2.533,2.039v-.671a2.622,2.622,0,0,1,.456-.139v-.418l-.722.241h0c-.063.317.114.671-.177,1.077-.228-1.1-.469-2.065-.671-3.053h-.114a24.8,24.8,0,0,1-.089,2.533,17.734,17.734,0,0,0-1.735-2.622c-.469.532,0,.874.139,1.267s.494.785.405,1.267a1.356,1.356,0,0,1,.2.177l-.2.076c.063.241.114.469.152.7h-.114L35.052,60.3l-.583.317,1.887,1.6a1.583,1.583,0,0,0-.608.063l.443.583a6.851,6.851,0,0,0-.735.228.215.215,0,0,0,0,.114h.456v.418a4.484,4.484,0,0,0-2.533,1.393l.583.342A4.573,4.573,0,0,1,36.7,64.1c-.9.861-1.571,1.558-2.242,2.229A3.04,3.04,0,0,0,34.14,67c.494-.317.785-.494,1.039-.7.443-.317.849-.735,1.267-1.013.165-.127.456-.089.747-.127-.089.621-.139,1.14-.253,1.634s-.291.988-.443,1.533h.317a1.646,1.646,0,0,1,.291.228c.152-1.267.266-2.318.38-3.509.266.177.494.291.671.405,0,1.077.7,2,.291,3.1h.722a10.133,10.133,0,0,1-.253-1.457c0-.494-.532-.925-.152-1.444l.266.228c.089-.177.139-.317.228-.494a1.736,1.736,0,0,0,.38,0h0l.139-.266c1.1.494,2.179.988,3.255,1.457-.874-1.267-2.533-1.393-3.42-2.533.811.342,1.685-.063,2.635.266-.291.228-.456.367-.722.608h.811v-.469ZM36.7,62.584h-.228V62.5H36.7Zm1.1,1.621c-.114-.785-.114-.785.608-1.165a1.952,1.952,0,0,1-.228-.253s0-.089,0-.241l.342-.342c.671.405.266,1.077.443,1.71Z" transform="translate(8.901 -16.921)" fill="#1f7762"/>
  <path id="Trazado_24669" data-name="Trazado 24669" d="M35.056,62.16v.114h0S34.993,62.16,35.056,62.16Z" transform="translate(9.341 -16.041)" fill="#1f7762"/>
  <path id="Trazado_24670" data-name="Trazado 24670" d="M35.231,61.471h0a.1.1,0,0,0,0,.063,1.583,1.583,0,0,1,.608-.063Z" transform="translate(9.394 -16.226)" fill="#1f7762"/>
  <path id="Trazado_24671" data-name="Trazado 24671" d="M38.43,64a1.267,1.267,0,0,1-.38,0A1.267,1.267,0,0,0,38.43,64Z" transform="translate(10.147 -15.55)" fill="#1f7762"/>
  <path id="Trazado_24672" data-name="Trazado 24672" d="M38.965,64.925c.317.2.228.722.722.811.291,0,.532.443.785.7,0-.291-.165-.494-.139-.57.177-.532-.735-.241-.519-.76-.494-.38-.988-.76-1.482-1.1C38.268,64.519,38.673,64.747,38.965,64.925Z" transform="translate(10.22 -15.55)" fill="#1f7762"/>
  <path id="Trazado_24673" data-name="Trazado 24673" d="M38.35,64c.494.342.988.722,1.482,1.1C39.338,64.722,38.844,64.342,38.35,64Z" transform="translate(10.227 -15.55)" fill="#1f7762"/>
  <path id="Trazado_24674" data-name="Trazado 24674" d="M40.232,59h-.545a6.7,6.7,0,0,1-.266.76c-.089.177-.2.342-.291.545C39.941,59.722,40.409,59.114,40.232,59Z" transform="translate(10.435 -16.883)" fill="#1f7762"/>
  <path id="Trazado_24675" data-name="Trazado 24675" d="M39.471,59.55a5.56,5.56,0,0,1-.431.633l.139-.089C39.268,59.892,39.382,59.727,39.471,59.55Z" transform="translate(10.411 -16.737)" fill="#1f7762"/>
  <path id="Trazado_24676" data-name="Trazado 24676" d="M35.614,61.641h0l-1.267-.811-.557.253a9.07,9.07,0,0,0,1.862.608Z" transform="translate(9.011 -16.395)" fill="#1f7762"/>
  <path id="Trazado_24677" data-name="Trazado 24677" d="M35.622,61.6A9.068,9.068,0,0,1,33.76,61l1.8.7v-.089Z" transform="translate(9.003 -16.35)" fill="#1f7762"/>
  <path id="Trazado_24678" data-name="Trazado 24678" d="M38.8,58.892a.355.355,0,0,0,.177-.317v-.114a.532.532,0,0,0-.177-.291H38.72C38.745,58.4,38.771,58.664,38.8,58.892Z" transform="translate(10.325 -17.105)" fill="#1f7762"/>
  <path id="Trazado_24679" data-name="Trazado 24679" d="M38.947,58.461a1.178,1.178,0,0,0,0-.291H38.82a.722.722,0,0,1,.127.291Z" transform="translate(10.352 -17.105)" fill="#1f7762"/>
  <path id="Trazado_24680" data-name="Trazado 24680" d="M41.215,63.82c-.127-.443-.494-.114-.735-.2C40.594,64.111,40.949,63.782,41.215,63.82Z" transform="translate(10.795 -15.661)" fill="#1f7762"/>
  <path id="Trazado_24681" data-name="Trazado 24681" d="M41.235,63.853h0c-.266,0-.608.228-.735-.2C40.589,64.093,40.969,63.739,41.235,63.853Z" transform="translate(10.8 -15.643)" fill="#1f7762"/>
  <path id="Trazado_24682" data-name="Trazado 24682" d="M39.382,63.463l.405-.089a.2.2,0,0,0,0-.114h-.405A.633.633,0,0,0,39.382,63.463Z" transform="translate(10.5 -15.747)" fill="#1f7762"/>
  <path id="Trazado_24683" data-name="Trazado 24683" d="M36.225,60.51c0,.177-.127.431.228.469C36.427,60.8,36.567,60.535,36.225,60.51Z" transform="translate(9.654 -16.481)" fill="#1f7762"/>
  <path id="Trazado_24684" data-name="Trazado 24684" d="M36.22,60.51h0c.342,0,.2.317.228.494C36.423,60.8,36.562,60.51,36.22,60.51Z" transform="translate(9.659 -16.481)" fill="#1f7762"/>
  <path id="Trazado_24685" data-name="Trazado 24685" d="M38.38,60.583h0l-.089-.443h-.139a.405.405,0,0,0,.228.443Z" transform="translate(10.172 -16.579)" fill="#1f7762"/>
  <path id="Trazado_24686" data-name="Trazado 24686" d="M38.19,60.513h.177A.329.329,0,0,0,38.19,60.513Z" transform="translate(10.184 -16.483)" fill="#1f7762"/>
  <path id="Trazado_24687" data-name="Trazado 24687" d="M38.171,60.14v.469h.139A.6.6,0,0,1,38.171,60.14Z" transform="translate(10.178 -16.579)" fill="#1f7762"/>
  <path id="Trazado_24688" data-name="Trazado 24688" d="M38.37,60.49Z" transform="translate(10.232 -16.486)" fill="#1f7762"/>
  <path id="Trazado_24689" data-name="Trazado 24689" d="M36.279,60.558h0a1.191,1.191,0,0,0-.152-.228L36,60.419a2.533,2.533,0,0,0,.241.139Z" transform="translate(9.6 -16.529)" fill="#1f7762"/>
  <path id="Trazado_24690" data-name="Trazado 24690" d="M36.238,60.522a.8.8,0,0,1-.228-.152A.8.8,0,0,0,36.238,60.522Z" transform="translate(9.603 -16.518)" fill="#1f7762"/>
  <path id="Trazado_24691" data-name="Trazado 24691" d="M36.19,60.51Z" transform="translate(9.651 -16.481)" fill="#1f7762"/>
  <path id="Trazado_24692" data-name="Trazado 24692" d="M36.4,60.88l.228.228V60.88Z" transform="translate(9.707 -16.382)" fill="#1f7762"/>
  <path id="Trazado_24693" data-name="Trazado 24693" d="M35.048,62.25h0a1.19,1.19,0,0,0-.228.152l.089.089a1.178,1.178,0,0,0,.139-.241Z" transform="translate(9.285 -16.017)" fill="#1f7762"/>
  <path id="Trazado_24694" data-name="Trazado 24694" d="M35.029,62.25a1.178,1.178,0,0,1-.139.241,1.178,1.178,0,0,0,.139-.241Z" transform="translate(9.304 -16.017)" fill="#1f7762"/>
  <path id="Trazado_24695" data-name="Trazado 24695" d="M41.08,63.81h0a1.178,1.178,0,0,0,.139.241l.089-.089a1.191,1.191,0,0,0-.228-.152Z" transform="translate(10.955 -15.601)" fill="#1f7762"/>
  <path id="Trazado_24696" data-name="Trazado 24696" d="M41.08,63.81a1.19,1.19,0,0,1,.228.152,1.19,1.19,0,0,0-.228-.152Z" transform="translate(10.955 -15.601)" fill="#1f7762"/>
  <path id="Trazado_24697" data-name="Trazado 24697" d="M38.14,65.127h.241V65H38.14Z" transform="translate(10.171 -15.283)" fill="#1f7762"/>
  <path id="Trazado_24698" data-name="Trazado 24698" d="M39.13,66.289h.228V66.2H39.13Z" transform="translate(10.435 -14.963)" fill="#1f7762"/>
</svg>
