<svg id="Calavera_ensalada-fresca" xmlns="http://www.w3.org/2000/svg" width="45.26" height="63.213" viewBox="0 0 45.26 63.213">
  <path id="Trazado_24699" data-name="Trazado 24699" d="M13.86,61.6h0a.911.911,0,0,0,.13.08h.06Z" transform="translate(-7.06 -10.65)" fill="#1f7762"/>
  <path id="Trazado_24700" data-name="Trazado 24700" d="M17.92,60.22l.11-.11h0l-.27.28h0Z" transform="translate(-7.06 -10.65)" fill="#1f7762"/>
  <path id="Trazado_24701" data-name="Trazado 24701" d="M29.41,27.23a2.8,2.8,0,0,0-.25-.22c.08.44,0,.53-.11.64l.3-.31C29.38,27.29,29.41,27.26,29.41,27.23Z" transform="translate(-7.06 -10.65)" fill="#1f7762"/>
  <path id="Trazado_24702" data-name="Trazado 24702" d="M33.27,60.86a5,5,0,0,1,.36.39,5.4,5.4,0,0,1-.3-.61h-.09A.45.45,0,0,0,33.27,60.86Z" transform="translate(-7.06 -10.65)" fill="#1f7762"/>
  <path id="Trazado_24703" data-name="Trazado 24703" d="M19.27,63.7l-.08.25a.54.54,0,0,0,.08-.25h0Z" transform="translate(-7.06 -10.65)" fill="#1f7762"/>
  <path id="Trazado_24704" data-name="Trazado 24704" d="M17.78,60.44a.67.67,0,0,1,.14-.19l-.16.17Z" transform="translate(-7.06 -10.65)" fill="#1f7762"/>
  <path id="Trazado_24705" data-name="Trazado 24705" d="M30.54,50a.07.07,0,0,1,.05,0,.82.82,0,0,0,.17-.11h-.19Z" transform="translate(-7.06 -10.65)" fill="#1f7762"/>
  <path id="Trazado_24706" data-name="Trazado 24706" d="M30.54,51.5Z" transform="translate(-7.06 -10.65)" fill="#1f7762"/>
  <path id="Trazado_24707" data-name="Trazado 24707" d="M21.76,60.11Z" transform="translate(-7.06 -10.65)" fill="#1f7762"/>
  <path id="Trazado_24708" data-name="Trazado 24708" d="M24.74,60.47a8.22,8.22,0,0,1-.39.8,3.94,3.94,0,0,1,.56-.58v-.3Z" transform="translate(-7.06 -10.65)" fill="#1f7762"/>
  <path id="Trazado_24709" data-name="Trazado 24709" d="M21.59,60.09h.06C21.59,60.11,21.59,60.09,21.59,60.09Z" transform="translate(-7.06 -10.65)" fill="#1f7762"/>
  <path id="Trazado_24710" data-name="Trazado 24710" d="M35.34,36.54Z" transform="translate(-7.06 -10.65)" fill="#1f7762"/>
  <path id="Trazado_24711" data-name="Trazado 24711" d="M32,52.33Z" transform="translate(-7.06 -10.65)" fill="#1f7762"/>
  <path id="Trazado_24712" data-name="Trazado 24712" d="M25.73,67.84h-.27a.134.134,0,0,1-.06.13c-.06.05.06,0,.09,0s0-.08,0-.14Z" transform="translate(-7.06 -10.65)" fill="#1f7762"/>
  <path id="Trazado_24713" data-name="Trazado 24713" d="M26.65,68.42Z" transform="translate(-7.06 -10.65)" fill="#1f7762"/>
  <path id="Trazado_24714" data-name="Trazado 24714" d="M24.6,64.89v0Z" transform="translate(-7.06 -10.65)" fill="#1f7762"/>
  <path id="Trazado_24715" data-name="Trazado 24715" d="M29.21,66.21a1.2,1.2,0,0,1,.06.17.053.053,0,0,0,.05-.06Z" transform="translate(-7.06 -10.65)" fill="#1f7762"/>
  <path id="Trazado_24716" data-name="Trazado 24716" d="M20.13,65.17l.3-.31h0Z" transform="translate(-7.06 -10.65)" fill="#1f7762"/>
  <path id="Trazado_24717" data-name="Trazado 24717" d="M20,65.3v.09a2.41,2.41,0,0,1,.36-.53l-.31.31S20.05,65.28,20,65.3Z" transform="translate(-7.06 -10.65)" fill="#1f7762"/>
  <path id="Trazado_24718" data-name="Trazado 24718" d="M22.2,69.94h0Z" transform="translate(-7.06 -10.65)" fill="#1f7762"/>
  <path id="Trazado_24719" data-name="Trazado 24719" d="M17.15,42.83h0a1.07,1.07,0,0,1-.34-.27h0Z" transform="translate(-7.06 -10.65)" fill="#1f7762"/>
  <path id="Trazado_24720" data-name="Trazado 24720" d="M16.84,42.53h0l.31.3h0Z" transform="translate(-7.06 -10.65)" fill="#1f7762"/>
  <path id="Trazado_24721" data-name="Trazado 24721" d="M11.76,66.35h0a.94.94,0,0,1-.33-.27h0Z" transform="translate(-7.06 -10.65)" fill="#1f7762"/>
  <path id="Trazado_24722" data-name="Trazado 24722" d="M11.49,66.08h0a1.1,1.1,0,0,1,.33.28h0Z" transform="translate(-7.06 -10.65)" fill="#1f7762"/>
  <path id="Trazado_24723" data-name="Trazado 24723" d="M30.12,69.58l-.16.09a.5.5,0,0,0,.08.13l.77.39a7.928,7.928,0,0,1-.69-.61Z" transform="translate(-7.06 -10.65)" fill="#1f7762"/>
  <path id="Trazado_24724" data-name="Trazado 24724" d="M18,71.13l-.27-.28.19.2Z" transform="translate(-7.06 -10.65)" fill="#1f7762"/>
  <path id="Trazado_24725" data-name="Trazado 24725" d="M17.73,70.82h-.22a1.09,1.09,0,0,1,.41.2Z" transform="translate(-7.06 -10.65)" fill="#1f7762"/>
  <path id="Trazado_24726" data-name="Trazado 24726" d="M51,22.82a1.55,1.55,0,0,1-.42-1,4.13,4.13,0,0,0-.85-2c-.69-1.11-1.41-2.21-2.13-3.29-.38-.55-.8-1-1.21-1.57s-.86-1-1.33-1.6h-.41a12.433,12.433,0,0,1-2.87-2.71,1.42,1.42,0,0,0-.58.06c-.45,2.79-.89,5.52-1.33,8.23l.66.22c-.47.3-.85.58-1.13.74C39.15,21,39,22,38.79,23c.06.27.09.5.14.74s.28.31.44.53a3.39,3.39,0,0,1,.5-.22,1.73,1.73,0,0,1,.58-.06c-.08-.74-.8-1.16-.64-1.9s.28-1.27.42-2c.63.69,1.13,1.32.52,2.26-.14.22,0,.58,0,.86s.19.91-.28,1.21c.17.8.3,1.63.47,2.51,0,0-.11.11-.25.28a6.109,6.109,0,0,1,.31.58c-.42.14-1,0-1.19.72.27.22.61.44.8.58-.11.22-.22.44-.39.74-.38-.49-.63-.85-.83-1.1a3.76,3.76,0,0,0,.06-1.08,15.838,15.838,0,0,0-.5-1.57,2.35,2.35,0,0,0-.25-.19.82.82,0,0,0,.25-.12l.2-.24a.64.64,0,0,0,.11.24c.19.14.38.25.6.42v1.3a.76.76,0,0,0,.2.13c0-.24-.09-.49-.11-.74.13.11.27.22.41.36-.19-.86-.39-1.74-.61-2.71l-.77.33V23.75c-.11.09-.3.17-.28.23a2.81,2.81,0,0,1-.41,1.54,3.49,3.49,0,0,0-.17.91h0c.09.09.17.14.25.22l-.08.09c-.08-.09-.14-.17-.22-.25h0c-.44.08-1-.19-1.38.33-.2-.27-.36-.55-.56-.88C35,25.69,34.49,24.64,33.6,24c-.19.14-.33.22-.41.28a7.81,7.81,0,0,0-1-.3c.11-.36.23-.72.34-1.05a2.42,2.42,0,0,1,.46-.06,3,3,0,0,1,.67.08c.77.17,1.52.58,2.29.75l.16-.5h.5c.14-.49.28-1,.39-1.38.3-.19.55-.33.74-.44a2.26,2.26,0,0,0-.3-2A1.07,1.07,0,0,1,37.49,18c-.08-.08-.27-.19-.27-.3A3.93,3.93,0,0,0,35.73,15a4.33,4.33,0,0,0-1.52-1c-.39-.14-.83-.14-1.22-.3a2,2,0,0,0-1.87-.09,1.55,1.55,0,0,1-1.52-.08c-.55.42-1.13.77-1.63,1.22A3.12,3.12,0,0,0,27.09,16c-.31,1.32-.69,2.68.25,4.08.27.14.69.36,1.15.58a.52.52,0,0,0,.09.34,4.13,4.13,0,0,0,.47.47h.83c.22.24.35.38.49.55s.22.3.39.55c-1.16.17-1.74-.72-2.73-.86-.36.2-.81.42-1.22.64V23.7l.55.55c0,.25,0,.5.22.61h.06a2,2,0,0,0,.16-.14l.31.25.5-.44L28,24.28l.22-.39c-.08-.08-.14-.14-.25-.27l.5-.47L30.34,25a6.531,6.531,0,0,1-.08,1c-.47-.36-.8-.58-1.27-.94-.22,1-1,1.52-1.49,2.26s-1,1.58-1.49,2.38H25.4l-.66-.7c.28-.19.14-.8.72-.8.14,0,.38-.3.38-.41-.13-.61.39-.86.64-1.24s.58-.67.77-1a6.08,6.08,0,0,1,.36-.69l-.22.09V25h-.3l-1.74,1.74c-.31.58-.25,1.27-1.08,1.63A3.47,3.47,0,0,0,22.75,30a8.84,8.84,0,0,1-.63,1.05,9.23,9.23,0,0,1,.52.94,6.41,6.41,0,0,1,.91,3.2c0,.17.17.33.2.5.24,1.13.82,2.21.66,3.39a8.43,8.43,0,0,1-1.35.39,12.39,12.39,0,0,1-1.49,0c-.56,0-1.25.22-1.61-.06s-.88.36-1.21-.11c-.75.22-1.46-.22-2.24-.16-1.29.08-2.56,0-3.75,0-.3-.16-.5-.24-.75-.35l-1.21.6a2.08,2.08,0,0,0-.77-.22.22.22,0,0,0-.14,0,.6.6,0,0,0-.14,0H9.69c-.06,0,0,0-.08.06a1.48,1.48,0,0,0-.22.11H9.34a1.74,1.74,0,0,0-.47-.31A1.31,1.31,0,0,0,8,39.1c-.08-.16-.14-.33-.28-.6-.3.27-.52.44-.66.58V40.9c.72.85,1.49.33,2.21.14.94.77.55,2.12,1.35,2.84v5.11a6.74,6.74,0,0,1-.22,1.32c.44.94.14,1.94.22,2.9,0,.36.14.8-.19,1,.08.31.27.67.19.8a3,3,0,0,0-.28,1.52,15.076,15.076,0,0,0-.27,1.52v5a3.59,3.59,0,0,0,.22.8H8.48l-.48.6a5.48,5.48,0,0,1,.35,2.23c-.05.75.06,1.49,0,2.24a14,14,0,0,1,.05,2.15,11.52,11.52,0,0,0,0,2.35,7.57,7.57,0,0,0,4.48.17c.36.08.66.13,1,.22,1.08.22,2.1-.31,3.15-.31a2.84,2.84,0,0,0,1.41-.22,1.76,1.76,0,0,1,1.68.11c.17.11.58.2.66.09.42-.45.94-.28,1.38-.25.81,0,1.61.19,2.41.27h1.35c.47,0,.91-.14,1.16.09.47.38.74-.42,1.16-.09a1.85,1.85,0,0,0,.69.25c.22-.47.8,0,1.13-.27a.777.777,0,0,1,1.16,0c.11.11.36.08.55.08h2.9c.47-.47.8-.8,1.19-1.21V70.97A13.629,13.629,0,0,0,36,69.55q0-2.6,0-5.16l-.58-.22.25-.41H34.21a2.69,2.69,0,0,0,0,.52c.38.11.77.25,1.18.39a1,1,0,0,1-1.16.27c-.13.14-.24.28-.41.45.17.33.33.66.53,1,.08-.22.13-.42.22-.66h1c-1.27.39-1.11,1.27-1.19,1.88-.58.19-1,.33-1.47.44a.8.8,0,0,1-.27-.11v-.39l1-.41a3.37,3.37,0,0,0,.44.33v-.88l-.42-.11a5.44,5.44,0,0,1-.41-1.19,2.77,2.77,0,0,1,.27-1c-.24-.11-.44-.2-.77-.33.39-.42.66-.69.94-1l.3.31c.14-.14.28-.28.53-.5-.08-.55-.44-1.27-.22-1.77s-.11-1.3.25-1.82a1.88,1.88,0,0,0,0-1.71c.31-.66.8-.33,1.14-.42.58.45,1.1.86,1.62,1.25s1.14.8,1.74,1.21a1.46,1.46,0,0,0-.41-1.63c-.39-.44-.55-1-1.19-1.32s-.8-1-1.05-1.6c-.16-.42-.52-.56-.8-.83,0-.67.75-.83.91-1.41,0-.08.45,0,.58-.06s.61,0,.61-.46c0-.17.3-.5.44-.5a.75.75,0,0,0,.83-.53c.17-.33.69-.47,1-.77,1-1,1.94-2.07,2.85-3.15a4.33,4.33,0,0,0,.58-1.24l-1.55-1.82c.17-.33.31-.58.42-.83a2.17,2.17,0,0,1,.38,0c.55-.52.91-.85,1.19-1.1a4.37,4.37,0,0,0,.39-1,10.32,10.32,0,0,0,0-1.27c-2,.47-3.72-.63-5.55-.55-.27-.25-.46-.44-.69-.63-.11.08-.22.13-.3.19l-.22.14h0L37,38.66a4.526,4.526,0,0,1-.86-.14c.17-.66-.17-1.27.3-1.79-.11-.94.56-1.66.78-2.51a8.7,8.7,0,0,1,1-3c.11-.17-.11-.58-.17-.86l.36-.69c.19,0,.36-.06.47,0,.63.36,1.27.77,1.9,1.16l.39-.39a1.7,1.7,0,0,0,0-.6,1,1,0,0,1,.19-.86l.08-.08a2.529,2.529,0,0,0-.19-.22l-.06-.06c.17-1,.31-2,.47-2.93-.19-.69-.35-1.4-.55-2.12.22-.25.44-.47.64-.66V22c-.42-1-.78-1.85-1-2.51.3-1,.58-1.8.88-2.76a10.49,10.49,0,0,1,3.62,2.23c.16,0,.33,0,0-.52a.41.41,0,0,0-.11-.17,12.9,12.9,0,0,1-1-.94,4.08,4.08,0,0,0-1.77-1.07c-.6-.17-.82-.47-.52-1.08.17-.36-.25-.74.19-1.05.09-.05-.11-.47-.22-.88l2.24.41c.55.53,1.24,1.11,1.88,1.71a9.51,9.51,0,0,1,1.76,2.85,1.33,1.33,0,0,0,.89.8c-.09,1.13,1.27,1.88.82,3.26-.49-.67-1.16-1-1.49-1.77a2.13,2.13,0,0,0-.94-.94,17.351,17.351,0,0,1-1.79-1.3c0,.06.06.09.08.14s.22.36.33.53H46a3.47,3.47,0,0,0,.55,1.27,5.33,5.33,0,0,0,.58.63c.08.06.14.14.22.19.44.36,1,.72.83,1.22.63.88,1.21,1.57,1.71,2.32a12.43,12.43,0,0,0,1.82,2.7.77.77,0,0,0,.55-1.05C51.88,25.13,51.91,23.78,51,22.82ZM9.45,40.68v-.14l.5-.11a1.1,1.1,0,0,0,0,.25Zm.3,28.9a.21.21,0,0,0,0-.14,2.986,2.986,0,0,0,.5-.11v.25Zm23.38,2.74H33V72h.11Zm1.6.22h-.6V72.4h.6Zm.58-6.08h.31v.11h-.31Zm0,1.8h.31v.11h-.31Zm0,1.87H35V70h.3Zm-.47-2.84.2.25c.08,0,.16.14.25.19l-.09.09a2.351,2.351,0,0,0-.19-.25l-.25-.2Zm-1.1.88a3.713,3.713,0,0,0,.11.58h.08c.47,0,.69-.41,1-.66a1.79,1.79,0,0,1-.78,2.1v.06c-.08.08-.13.16-.22.24l-.08-.08.25-.22h0c.11-.36.19-.69.3-1-.19-.14-.39-.31-.55-.45a1.47,1.47,0,0,1-.28,0,2.239,2.239,0,0,0-.05-.58.72.72,0,0,0,.22.01Zm.19,2.74h.17V72h-.61c.17-.4.31-.76.44-1.09Zm-.6-1h.11v.31h-.11Zm-.28-.88h.11v.3h-.11ZM33,71.18h.14a4.311,4.311,0,0,0,.11.49H33Zm.83-44.94h.31v.11h-.31Zm-.36.19a4.69,4.69,0,0,1,.14.61,2.41,2.41,0,0,1,.8,0,2.1,2.1,0,0,1,.56.3c-.12.5-.2.94-.28,1.41h-.08a4.61,4.61,0,0,1-.39-.35,4.74,4.74,0,0,1-3.34,1.57c-.33-.33-.58-.61-.83-.86h0l-.05.03c-.09-.06-.17-.14-.28-.22l-.14-.11c.39-.22.64-.39.91-.53.28,1.11.33,1.19,1.08,1.16.05,0,.11-.11.16-.19s0,0,0-.06h0L31.5,29l.09-.08c.08.08.13.16.22.25h.44c.36-.39.69-.69.89-.89h1.27a1.46,1.46,0,0,1,.08-.55c-.31.11-.53.22-.75.3-.11-.25-.22-.44-.33-.71-.19.3-.39.58-.58.91-.36.11-.8.22-1.21.33-.06-.08-.11-.11-.11-.14v-.14a.3.3,0,0,1,0-.14c.58-.38,1.16-.8,1.74-1.18l-.3-.36a1.23,1.23,0,0,1,.51-.17Zm1,2.79v.11h-.3v-.11Zm-.61.3v.11h-.3v-.11Zm-1.24.53v.5h-.14a2.877,2.877,0,0,0-.11-.49.69.69,0,0,0,.21-.01Zm4.2-9h-.14a2.987,2.987,0,0,0-.11-.5h.25ZM29.5,14.26h.11v.3H29.5Zm1.11,6.27s-.06.27-.11.69c-.17-.33-.25-.53-.34-.72H29.3l-1.72-1.3V17.1l1.69-2.26a16.37,16.37,0,0,0,2.62-.61c.58-.25,1.08.22,1.6.39s1.3.49,1.49.93c.28.64,1.13.53,1.11,1.22a11.343,11.343,0,0,0,.22,1.52c.14.11.36.27.63.52-.27.09-.44.17-.74.25.11.25.19.47.33.8-.11.25-.28.55-.47,1a8.19,8.19,0,0,0-2.71-.72,9.64,9.64,0,0,0,2.3,2.43,7.83,7.83,0,0,0-2.88-.33l-.58-.66c.09-.53.14-1,.23-1.52-.39-.2-.69-.36-1-.5a11.87,11.87,0,0,1-.85.94Zm4.36.58v.3h-.11v-.3Zm-3.21.77-.08.08c-.05-.08-.14-.16-.19-.25s-.17-.13-.25-.19l.08-.08c.06.08.14.16.2.25A1.33,1.33,0,0,1,31.76,21.88ZM30,23.7v-.19l1.11-.09v.25C30.73,23.7,30.37,23.7,30,23.7Zm-2.73,5.82h.3v.11h-.3ZM26.4,31V29.25A3.5,3.5,0,0,0,28.19,31a13.071,13.071,0,0,0,0,1.77,11.72,11.72,0,0,0,.39,1.55l1.65.44v.74c-.74.17-1.52.31-2.4.5.14.3.25.52.36.77-.39.53.08,1.08.05,1.66A5.92,5.92,0,0,0,28.58,40a.74.74,0,0,0,.25.27l-.09.08c-.08-.08-.13-.16-.22-.24l.06-.06a2.7,2.7,0,0,0-.5.33c-.39-.14-.77-.25-1.16-.38-.88-.75-.14-1.94-.77-2.9a1.92,1.92,0,0,0,.05-1.72,7.85,7.85,0,0,1-.69-3.58,4,4,0,0,0-.33-1.33C25.62,30.68,26,30.82,26.4,31Zm2.76,8.91c-.09-.19-.2-.41-.28-.6h.44v.52a.24.24,0,0,0-.16.07Zm.11,5.61v.3h-.11v-.3Zm0-7-.78-.35A5.719,5.719,0,0,1,29.3,38ZM25.4,40.79l-.19.52a4.731,4.731,0,0,1,0,.61h-.55c0-.28-.06-.55-.11-1.19.22.44.38.69.49.94a1.35,1.35,0,0,0,.17-.36c0-.55-.14-.58-.33-.63.11-.64.25-1.3.38-2,.53,1.19,1,2.3,1.55,3.43L27,42v1a.67.67,0,0,1-.14.11c-.19-.25-.39-.53-.61-.77a5.324,5.324,0,0,0-1,.24c0-.22-.11-.44-.06-.49a1.17,1.17,0,0,0,.24-1.3Zm-1-10.41-.35.77a5.65,5.65,0,0,1-.14-.77Zm.14.91v.11h-.3v-.11ZM24,34.71c.31.11.55.23.91.36-.16-.44-.3-.8-.47-1.18l-.44.38c.11-.74.22-1.41.36-2.21l.8.8-.66.31.63.22c.14,1.16-.19,2.4.47,3.62-.24.11-.47.22-.66.33,0-.33-.05-.8-.08-1.3L24.44,36C24.3,35.6,24.19,35.24,24,34.71Zm.47,5.44v.31h-.11v-.31ZM22.9,41.67c.08.08.14.17.22.25h.55a1.487,1.487,0,0,0,.06.5h-.55a1.753,1.753,0,0,0-.06-.57h0c-.08-.09-.16-.14-.24-.23Zm1.82,1.82a5.34,5.34,0,0,0,1,.2c.39.36.64.58.91.85v.61l1.41.77c.14.22.39.58.69,1a4.18,4.18,0,0,0,.55,2.6c.28.39-.08,1.13.36,1.55-.05.82-1.19,1.13-.83,2.09.14-.08.28-.13.58-.3-.11.33-.19.61-.27.88l.19-.19h0l.06-.06c.08.09.16.14.24.23l-.08.08-.08-.08a2.62,2.62,0,0,0-.53.77l-.38-.8c-.78,1-1.49,1.88-2,2.54l-3.4,1.38a2.18,2.18,0,0,0-.22-.19,3.81,3.81,0,0,1-.36.3c-.93-.58-2-.19-2.89-.33-.23-.33-.39-.61-.58-.91-.14.13-.25.22-.39.36-.28-.36-.58-.75-.91-1.16l-1.27-.42a28.32,28.32,0,0,0-1.41-3.86,2.94,2.94,0,0,1-.11-.86V47.75a9,9,0,0,0,.88-1.27c.22-.47.86-.45,1-.92s.74-.58.88-1.1c.06-.19.53-.3.83-.44l1.49-.86a4,4,0,0,0,1,.22c.27,0,.47-.49.85-.13.11.08.47-.09.69-.14a3.65,3.65,0,0,1,2.12.38Zm5.36,4a8.2,8.2,0,0,1,.19,1.93l-.64-.11c.16-.6.3-1.15.47-1.84Zm-.36-1.8.47-.93v1.51a4.853,4.853,0,0,0-.45-.6Zm3.42-2.54v.61H33v-.61Zm-.11-1.21v-.3h.11v.3Zm.36,3.37c-.08.16-.17.36-.36.77-.08-.41-.11-.55-.14-.77ZM33,53.21a.3.3,0,0,0,0-.14,2.878,2.878,0,0,0,.49-.11.69.69,0,0,0,0,.25ZM33.16,55v.89H33V55Zm.14-4.52V50a.21.21,0,0,0,.14,0,2.987,2.987,0,0,0,.11.5.74.74,0,0,1-.25.01Zm.19-3.26h-.14a2.784,2.784,0,0,0-.11-.5h.25Zm-.05-2.62h-.11v-.31h.11Zm.69,13.8v.11h-.31V58.4Zm-.2-.42v-.3H34V58Zm.2,1.27v.14h-.61v-.14Zm-1.27-1.49.58-.11c0,.2.08.33.16.86-.36-.33-.49-.51-.74-.72ZM31.72,43.85c.17-.47.28-.85.42-1.3.25.58.47,1.14.72,1.69C32.42,44.49,32.06,44.29,31.72,43.85Zm.36,20.74a.8.8,0,0,1-.11.19A.6.6,0,0,1,32,65s-.11.11-.33.3a6.71,6.71,0,0,0,.19-.71.184.184,0,0,0,.06.13,1.051,1.051,0,0,0,.08-.13c0-.09.14-.17.19-.25a2,2,0,0,1,.08.22h0l.25.22-.08.08c-.08-.08-.14-.16-.22-.25h0ZM32,67a6.968,6.968,0,0,0,.11.78h-.28V67Zm-.11-.66v-.3H32v.3Zm-1.11-4.77h0c-.08-.09-.14-.17-.22-.25h0l-.17-.08h-.05a1,1,0,0,1-.22,0c-.06,0-.11-.11-.31-.33a6.139,6.139,0,0,0,.72.19h-.11a.37.37,0,0,0,.14.08,2.619,2.619,0,0,0,.25.22.833.833,0,0,1-.08.18Zm0,1.21v.3h-.11v-.3Zm-3.15-4.33c.17-.61.39-1.3.55-2,0-.11-.16-.28-.27-.5h.6V54.81c.11,0,.22.06.22.09,0,.36.25.83-.22,1.13v1.68Zm.17.47v.3h-.11v-.3Zm.63,1.24c.28.3.47.52.61.66,0-.5-.06-.3-.11-.14a2.21,2.21,0,0,1-.14-.41c0-.06.11-.11.33-.33C29,61.69,29,62.21,29,63.07c-.36-.86-.25-1.69-1.1-1.88a10,10,0,0,0,.51-1.02Zm.64-1.49a.93.93,0,0,0,.27,0v.8a.3.3,0,0,0-.16,0,5.662,5.662,0,0,1-.13-.79Zm-.2-.94h.47v.88a9.468,9.468,0,0,1-.49-.87Zm.2-.55c0-.42.05-.69.08-1.14.22.45.36.72.5,1ZM30,55.83h-.31v-.11H30Zm.25,4.34v.5a.28.28,0,0,0-.14,0,2.877,2.877,0,0,0-.11-.49.69.69,0,0,1,.21-.01ZM29.1,55.59c-.05-.39-.16-.75.64-.39Zm.47,5.71v.3h-.11v-.3Zm.31.91c.11-.08.27-.16.41-.25h-.08c-.09-.09-.17-.14-.25-.23l.08-.08c.06.08.14.17.19.25s.09,0,.14,0a4.1,4.1,0,0,1,.17.44l-1.13.55C29.38,62.4,29.71,62.35,29.88,62.21Zm.85-3a1.25,1.25,0,0,0-.16.25,2.08,2.08,0,0,0-.14.44,7.5,7.5,0,0,1,.14-3.94c-.09-.06-.17-.14-.25-.2a.77.77,0,0,0,.25-.11V55.1h0c-.08-.08-.17-.13-.25-.22l.08-.08c.09.08.14.17.22.25h0c.11.11.19.24.3.35l-.3.23h0v.3a1.15,1.15,0,0,1,.27.39c.06.19-.08.49.28.52h0c.08-.08.14-.16.22-.25h0l.08.09-.25.22h0a4.37,4.37,0,0,0-.49,2.27ZM31.34,58v.31h-.11V58Zm-.22,2.35h0a.31.31,0,0,0,.11-.14h0a.59.59,0,0,1-.05-.22c0-.06.11-.11.33-.31-.11.36-.17.56-.2.72h0a.75.75,0,0,1,0-.11.56.56,0,0,0-.09.14c-.08.08-.14.16-.22.25l-.08-.09a1.84,1.84,0,0,0,.2-.23Zm.33,1.93h.3v.11h-.3Zm.61,1v-.11h.3v.11Zm.27-.89v-.11h.31v.11Zm.17-1L31.84,61c-.06.27-.12.58-.17.88a.24.24,0,0,1-.14,0v-1c.19-.16.44-.39.83-.69.11-.02.22.39.14,1.17Zm-.64-2.19c-.25-.22-.16-1.16.2-1.73a1.05,1.05,0,0,0-.28-.45c.11-.11.19-.22.33-.36-.08-.22-.19-.41-.36-.88.44.28.67.39.89.53l-.45,1.18a1.18,1.18,0,0,0-.11.67c.17.19.36.44.58.66a4.993,4.993,0,0,0-.8.35Zm0-8.89c.11.12.22.2.39.39a1.2,1.2,0,0,0-.22.5c-.06.16,0,.36-.17.58-.11-.36-.25-.72-.36-1.08Zm-.39-1.51c.14-.31.25-.58.5-1.11V48.8Zm.06-1.8v-.22c.33-.11,0-.91.74-.58V47Zm0-1.46v-.3h.11v.3Zm-.11-3c0-.55.22-.86.88-.88Zm0,9.86H32c.08-.08.14-.17.22-.25l.08.08c-.08.09-.16.14-.24.22h0c-.14.52.36.71.55,1-.19.25-.36.52-.55.77.11.11.27.22.27.36a3.51,3.51,0,0,1,0,.8h0l.25.22-.08.08c-.09-.08-.14-.16-.23-.25h0c-.11-.11-.25-.22-.27-.35a3.84,3.84,0,0,1,0-.83c-.17-.2-.31-.39-.47-.61-.06.19-.14.36-.22.61L31,53.93l-.8.63a1,1,0,0,0-.19-.13c.08-.14.14-.31.25-.53a.131.131,0,0,0-.06-.11,2.79,2.79,0,0,0-.22-.41l.25-.25.11-.11.42.27a.77.77,0,0,0,.66-.93c-.44,0-.25-.36-.3-.61-.23-.06-.56.14-.58-.28h0l-.25-.22.08-.08a2.62,2.62,0,0,1,.22.25h0c.22.06.58-.13.58.31.42.07.22.4.28.63ZM31.09,44a.34.34,0,0,0-.17,0,7.32,7.32,0,0,0-.11-.8,1,1,0,0,0,.28,0Zm-.25,1v.11h-.3V45Zm-.08,4.92a2.423,2.423,0,0,0,.14.58h-1a7.82,7.82,0,0,1,.71-.47h-.05l-.25-.22.08-.08c.06.08.14.13.2.22Zm-3.56,6.9v.88h-.14v-.88Zm-.8,4.44h0c.11.09.19.14.27.22l-.08.09c-.08-.09-.14-.17-.22-.25h0c-.56-.08-.17-.55-.42-.88h-.47c-.13.19-.3.41-.6.83v-.53c-.14.14-.31.3-.56.58-.36-.47-.55-.69-.71-.94a1,1,0,0,0,.13-.19l.47.22a2.191,2.191,0,0,1,.2-.5l-.56-.36c-.22.42-.41.06-.66,0a8.429,8.429,0,0,1-1-.11c.88-.3,1.88-.27,2.51-1.07l.72,1.07-.5.17a2.28,2.28,0,0,1-.22.91.65.65,0,0,0,.17-.08h.6c.42-.42,1-.78.89-1.49-.33-.17-.72-.31-.47-1,.25.39.41.64.6.91.53.31.25,1,.12,1.11-.35.42-.16.86-.21,1.3Zm-2.49,0v.3H23.8v-.3Zm-.47-.75c-.14.25-.27.53-.44.81-.47-.49.08-.65.44-.77Zm-.74-.74v.3h-.11v-.3Zm-.2.69v.11h-.3V60.5Zm4.28-1.88v-.3h.11v.3Zm-5,1.49-.64.61c-.16-.25-.33-.5-.47-.74a.85.85,0,0,1,.2-.17c.11.11.19.25.33.28a2,2,0,0,0,.39,0h0a2.621,2.621,0,0,1,.22-.25l.08.08c-.06.06-.11.08-.17.14s.04.07.04.09Zm-2,6.85c.27-.11.41.05.22.61a2.1,2.1,0,0,1-.28-.53Zm0,.88v.31h-.11V67.8Zm-.11-4.17H19.3a1.46,1.46,0,0,1-.11.28c-.22-.05-.47-.08-.77-.17-.14.31-.33.7-.53,1.08-.38-.41.11-.83.06-1s-.36-.63,0-1.05a4.79,4.79,0,0,0,.17.5l1.16.41c.11-.13.19-.33.3-.44l.11-.08c.19-.14.47-.14.47.25a.58.58,0,0,1,.14.08l.27-.08c.06,0,.11.11.34.33-.91-.26-1.11-.18-1.3-.07ZM18.94,65v.11h-.3V65Zm-1.46,1.38c.14-.3.28-.58.52-1.1v1.1Zm.17.91v.31h-.12v-.31Zm-1.3-7.15h.11v.31h-.11Zm-.09-2.65a2.35,2.35,0,0,1-.19.25L16,57.63a2.35,2.35,0,0,1,.25-.19c.05-.09.14-.17.19-.25l.08.08a1.84,1.84,0,0,0-.26.19Zm.94,5.83c-.13.22-.27.44-.52.83-.14-.28-.25-.47-.33-.64.16-.17.33-.69.85-.22Zm-.66-2.21a.72.72,0,0,0,.25,0v.5h-.14c-.03-.2-.08-.36-.11-.53Zm.39-1.55v-.27h.8a.21.21,0,0,0,0,.14Zm.41-2.07a2.987,2.987,0,0,0,.11.5H17.2v-.5a.21.21,0,0,1,.14-.03Zm-.11-.63v-.31h.11v.31Zm.47,3.53h0l.27-.28a3.38,3.38,0,0,0,0-.55.26.26,0,0,0,.14-.11c.06.22.08.47.11.61h-.3a.758.758,0,0,0-.25.28c-.08.08-.14.16-.22.25l-.09-.09a.66.66,0,0,0,.34-.14Zm.88,2c-.71.08-.77,0-.74-1.08.27.38.52.74.74,1.04Zm.36-4.42h-.3v-.11h.3Zm.25,1.33v.49a.21.21,0,0,0-.14,0,3.221,3.221,0,0,0-.11-.5,1.29,1.29,0,0,0,.25-.03Zm.88,1v1.08c-.22-.06-.38-.08-.69-.14.25-.38.42-.6.69-.99Zm-.49-.77V59h.14a2.987,2.987,0,0,0,.11.5.69.69,0,0,0-.25-.02Zm.55,2.7h-.22a1.942,1.942,0,0,0-.06-.58h.2l.08.49a2.47,2.47,0,0,1,.88-.22,1.71,1.71,0,0,1,.61.11,3,3,0,0,1-.66.5c-.22.01-.42-.1-.83-.35Zm1.68-3c-.3-.16-.58-.3-1-.55.5-.27.83-.44,1.36-.74-.17.46-.25.85-.36,1.23ZM22.12,61v.3H22V61Zm.05,1.24v.5h-.14a2.877,2.877,0,0,0-.11-.49A1.1,1.1,0,0,0,22.17,62.24Zm-7.64-5.77v-.14l.49-.11v.25ZM15,61.91v.3h-.11v-.3ZM13.7,58.1a7.31,7.31,0,0,1-.17-1.93C14.22,56.86,14.22,56.86,13.7,58.1Zm.16-3.1v-.11h.31V55Zm-.11,3.67v.31h-.11v-.31Zm.06,9.89v.8a.5.5,0,0,0-.17,0,7.67,7.67,0,0,0-.11-.8,1.47,1.47,0,0,1,.28-.05Zm-.14-4.59c.25-.25.47-.52.77-.83a4.254,4.254,0,0,0,.06.83Zm.3-1.43v-.31h.11v.31Zm-.11-.75h.11l-.13-.08-.25-.22.08-.08h0c.08.08.14.16.22.25h0l.17.09.25-.09c.05,0,.11.11.3.34Zm.39-.74v-.31h.11V61Zm.3-6.85v-.3h.11v.3Zm.25-8.61c-.05.08-.14.16-.19.24l-.08-.08c.08-.05.16-.14.24-.19l.2-.25.08.08a1.09,1.09,0,0,0-.25.15Zm.2-2.4a9.919,9.919,0,0,1,.74.75l-.58.11A6.732,6.732,0,0,1,15,43.19Zm.77-.06v-.3h.11v.3Zm2.71,0v-.3h.11v.3Zm1.18-1.21v-.3h.11v.3Zm.42.41c.3-.08.3-.08.27.75a6.8,6.8,0,0,1-.3-.75Zm1.54,0h.25v.5h-.14a2.16,2.16,0,0,0-.14-.52Zm.11-2.16h.11v.31H21.7ZM17.37,41c2.15-.06,2.15-.06,2.73.27.83.14,1.55-.6,2.4-.16v.66a.63.63,0,0,1-.13.11c-.06-.17-.14-.33-.22-.55-.64-.22-1.08.27-1.36.38-.33-.11-.55-.22-.8-.3-.63,0-1.52-.47-2.34.33-.14-.3-.23-.52-.34-.74C17.23,41.15,17.29,41,17.37,41Zm-.19,1.76c.08.09.16.14.24.22l-.08.09c-.08-.09-.14-.17-.22-.25h0a2.7,2.7,0,0,0-.31-.28,4.69,4.69,0,0,1-.58,0,3.76,3.76,0,0,0,0-.58c.28.19.5.3.69.44a2.089,2.089,0,0,1-.14.17,1.76,1.76,0,0,0,.4.23Zm-.36-2.34v.77l-2,.36c0-.22-.05-.47-.08-.83a1.58,1.58,0,0,0,2.08-.26ZM14.25,41h.11v.3h-.11Zm.05,2,.56,1.11a7.112,7.112,0,0,0-1,.05,8,8,0,0,1,.44-1.11Zm-.74,12.7h.3v.11h-.3ZM13.37,41h.11v.3h-.11Zm.13,1.85v.13a5.027,5.027,0,0,0-.5.11v-.24Zm-1.35,2.32h.14v.6h-.14Zm-.61,11.37h.2a5.1,5.1,0,0,0,.08,1.1h-.25c-.03-.34-.03-.7-.03-1.06Zm0,1.85h.3v.11h-.3ZM11,40.15h.14v.61H11Zm.45.83v1.8h-.56A17.617,17.617,0,0,1,11.41,41Zm0,2.43v.3h-.11v-.3Zm-.5,18.08v-.11h.31v.11Zm.19,1.6v.31H11v-.31Zm.39,1.27v.47h-.88c.4-.24.59-.35.81-.47ZM11.07,72H11v-.3h.11Zm0-.61H11v-.3h.11Zm.31-.61h-.11v-.3h.11ZM12,66.63c-.08-.08-.14-.17-.22-.25h0a1.44,1.44,0,0,0-.33-.27c-.08-.09-.16-.14-.24-.22l.08-.09c.08.09.14.17.22.25h0a1.44,1.44,0,0,0,.33.27c.09.09.17.14.25.23Zm.3,6h-.11v-.3h.11Zm0-4.17h-.11v-.3h.11Zm.11-2.79h-.3v-.11h.3Zm0-21.53h.31v.11h-.31Zm.2,6.73H12.5v-.3h.11Zm.35-4.41v.49h-.13a4.312,4.312,0,0,0-.11-.49Zm.06,13h-.3v-.11H13Zm0-4.77h-.3v-.11H13Zm0-4h.3v.11H13Zm.5,22.25h-.11v-.3h.11Zm.08-1.29h-.3v-.12h.3Zm0-.78c-.06.09-.14.17-.2.25L13.31,71l.25-.2c0-.08.14-.16.19-.24l.09.08c-.09.07-.17.16-.25.21Zm.49-3.28H14V67h.13Zm.14-1.25v-.13a4.033,4.033,0,0,0,.5-.11v.24Zm1-3.11c-.08.13-.19.33-.39.63-.01-.74-.01-.74.43-.65Zm.08,4.85h-.3V68h.3Zm0-1.49h-.3v-.11h.3Zm.31-8.14H16v.11h-.3Zm.19,1.68H15.7v-.3h.11Zm.4,1.87v.5h-.14a2.987,2.987,0,0,0-.11-.5A.66.66,0,0,1,16.21,62Zm.28,8c-.25-.47-.36-.66-.47-.88h.47Zm0-4.77h-.17a1.878,1.878,0,0,0-.06-.58h.2a3.213,3.213,0,0,0,.11.52.81.81,0,0,0,.44-.25c.36.5-.11.61-.41,1a6.274,6.274,0,0,0-.06-.64c0-.11-.05-.09-.05-.11Zm.24,5.65h-.11v-.3h.11Zm0-3.25a1,1,0,0,1-.14-.11V66.8l.55-.11c-.14.31-.3.57-.43.88Zm.63,4.75h-.11V72h.11ZM17.4,69h-.14a2.987,2.987,0,0,0-.11-.5,1.1,1.1,0,0,0,.25,0Zm.05-1h.31v.11h-.31Zm.61,3.48a2.87,2.87,0,0,0-.06-.3l-.08-.08a1.09,1.09,0,0,0-.41-.2,1.943,1.943,0,0,0-.06-.58h.2a3.819,3.819,0,0,0,.11.57h0l.27.28a3.512,3.512,0,0,0,.56,0,.25.25,0,0,0,.11.14,4.671,4.671,0,0,1-.64.12Zm.14-1.6.69-.69c-.22.61-.22.61-.69.64Zm.94-2.26H19v-.31h.11Zm.05-1a1.545,1.545,0,0,0-.5.06c.14-.45.28-.86.5-1.52.08.19.14.11.22,0l.08.08-.24.22-.06-.06Zm.94,5.05h-.88v-.14h.88Zm.5-2.9h-.11v-.3h.11ZM20.79,72v-.28h.81a.28.28,0,0,0,0,.14A1.8,1.8,0,0,1,20.79,72Zm.31-2.4V69h.13v.61Zm-.47-3.54c.27-.19.55-.41.85-.63.42.92-.6.48-.85.67Zm1.76,4.12A.84.84,0,0,0,22.2,70h-.22v-.88a.46.46,0,0,0,.2,0,8.236,8.236,0,0,0,.11.85l.24.2Zm-.19-2.29h.25v.5h-.14c-.03-.13-.08-.3-.11-.46Zm1.46,3.14h-.13a5.026,5.026,0,0,0-.11-.5,1,1,0,0,0,.24,0Zm-.49-.6v-1.1h.49a10.761,10.761,0,0,1-.49,1.14Zm-.09-2.24h.25v.5h-.14a2.24,2.24,0,0,0-.11-.46Zm.31-2.62c.55-.33.63.14.91.33-.53.37-.64-.1-.91-.29ZM24,65l.56-.11h0c.08-.08.14-.16.22-.25l.08.09a1.37,1.37,0,0,0-.22.19v.22a1.943,1.943,0,0,0-.58.06A.4.4,0,0,0,24,65Zm.5,7.07h-.11v-.3h.11Zm-.14-2.15v-.8h.17a7.669,7.669,0,0,0,.11.8Zm.45,1.54H24.7v-.3h.11Zm.33,1.19H25V72h.14Zm.55,0h-.11v-.3h.11Zm-.11-4.17a3.392,3.392,0,0,0-.08-.44c-.02-.14-.06,0-.09,0l-.69-.39a2.64,2.64,0,0,1-.33.31c-.14-.28-.27-.55-.52-1,.41.22.6.3.88.47.08-.22.17-.42.28-.72l.69.33-.28.86h.28a2.239,2.239,0,0,0,.05.58.49.49,0,0,0-.2-.03Zm-.28-3v-.3h.11v.3Zm.69,6h-.11v-.3H26Zm1.25.55H27.1a5.026,5.026,0,0,0-.11-.5,1.1,1.1,0,0,0,.25,0Zm.27-1.16h-.14c-.05-.27-.08-.52-.16-.91h-.53v.61a5.551,5.551,0,0,0-.6-.3.85.85,0,0,1-.09.14.953.953,0,0,0,.09.27c.03.08-.11.11-.34.31.11-.36.17-.56.2-.72a.27.27,0,0,0,.05.11c0-.06.09-.11.11-.17.06-.38.36-.22.58-.25V69c-.25.11-.47.25-.74.36-.09-.19-.11-.3-.2-.5.31-.16.61-.3.92-.47h0a2.62,2.62,0,0,1,.22-.25l.08.08-.25.22h0V69l.83-.38Zm-.58-4.25c.08.28.17.2.22.11l.09.09A2.619,2.619,0,0,0,27,67l-.06-.06v1.13c-.27-.33-.41-.49-.38-.49a7.16,7.16,0,0,0,.36-1.01Zm.28-1.79c.16.41.3.77.44,1.1-.36.2-.61.31-.86.44-.26-.29-.14-.85.41-1.59Zm.58,7h-.11v-.31h.11Zm.38-1h-.3v-.11h.3Zm-1-2.54c.25-.44.39-.72.55-1,.23.28.39.5.67.86a3.786,3.786,0,0,0-1.25.05ZM28.36,67h-.11v-.3h.11Zm0-2.07h-.13v-.61h.13ZM25.9,64c-.08.19-.14.35-.25.63a5.33,5.33,0,0,0-.47-.63,6.86,6.86,0,0,1-2.43-.28c-.25-.14-.77.22-1.27.39.17.38.28.74.42,1.07h.8c.05.25.08.53.14.8.11,0,.22.09.38.14l.39.14c-.58,0-.91.11-1.38.14.11-.31.22-.5.3-.75l-.85-.49h-.39a1.37,1.37,0,0,1-.91-.31h0a2,2,0,0,0-.36.53.41.41,0,0,1,.05.19s-.11.11-.33.3c.11-.36.17-.55.2-.71a.69.69,0,0,0,0,.13.32.32,0,0,0,.08-.13l.31-.31v-.44s.05-.08.11-.08l.83-.11c-.11-.28-.2-.5-.28-.75l.22-.11h3.26a3.28,3.28,0,0,0,.94-.27c-.17-.36-.28-.61-.44-.91-.53.35-1.22-.11-1.83.41-.05-.25-.11-.41-.16-.63h1.3c.27-.25.47-.45.69-.67.19.39.36.78.55,1.24.11-.24.19-.41.27-.6.09.05.14.11.28.19.22-.08.5-.22.8-.33V60c.22-.17.5-.33.75-.5.08.19.16.28.16.33a3.1,3.1,0,0,1-.41.86,1,1,0,0,0-.2.36.43.43,0,0,0,0,.3c0,.06,0,.11.06.14a1.43,1.43,0,0,0,.36.38l.16-.13a1.18,1.18,0,0,1,.2-.17,1.357,1.357,0,0,0,.13.42c-.27.16-.55.3-.8.44a2.19,2.19,0,0,0-.33-.25c-.25.69,0,1,.8,1.3a6.19,6.19,0,0,0-.25-.64h.45a2.122,2.122,0,0,0,.22.6c.63-.11,1.07.2,1.24,1.14.11-.56.16-.83.25-1.16l.36.33c.11-.09.22-.2.36-.33.3.13.63.3,1,.49-.08.67-.39.53-.8.14l-.94,1.19L28.41,64Zm-2.79.66v.11h-.3v-.11Zm7.7,1.71c-.3-.55-.44-.8-.6-1.08a1.06,1.06,0,0,1,.19-.16,2.14,2.14,0,0,1,.39.41c.08.18.02.37.02.84Zm-1.6-.17c.22-.13.42-.27.69-.44v.58a3.769,3.769,0,0,1-.55,0h0c-.08.08-.14.16-.22.25l-.09-.09a.86.86,0,0,1,.17-.13c.06-.02.03-.07,0-.16Zm-.55,4.61h-.11v-.3h.11Zm.41-1.27h-.3v-.11h.3Zm.2,2.19h-.11v-.31h.11Zm.25-3.59h-1V68c.25-.11.47-.24.69-.36.2.09.39.2.67.34.05-.39.11-.64.13-.94l.75-.09a2.677,2.677,0,0,1,.25-.69c.11.31.19.53.27.78-.16.05-.55.22-1,.38.06.17.14.36.25.69a5.52,5.52,0,0,1-1.01.04ZM30.21,72h-.14a3.221,3.221,0,0,0-.11-.5,1.1,1.1,0,0,0,.25,0Zm-.47-1.76a5.23,5.23,0,0,1-.09-.61c.14.08.28.14.39.19a.46.46,0,0,0-.08-.13v-.56L31.15,69c-.5.28-.78.42-1,.55a6.11,6.11,0,0,0,.69.64c-.61.03-.84.03-1.1.03Zm1.16,2a.21.21,0,0,0,0-.14l.5-.11a1.06,1.06,0,0,0,0,.25Zm.6-.58v-.5a.28.28,0,0,0,.14,0,2.877,2.877,0,0,0,.11.49c-.08,0-.16.03-.25.03Zm.47-.77-.55-.55c.17-.11.36-.25.55-.39Zm-.47-1.13-.27-.17a2.53,2.53,0,0,0,.22-.55,1.87,1.87,0,0,0,0-.58H31.2v-.89a.68.68,0,0,0,.2,0,8.225,8.225,0,0,0,.11.83l.58.11c-.09.58-.42.85-.59,1.27Zm1.25.16h.11v.31h-.11Zm0,1.88c-.25.36-.41.58-.66.91.08-.64.08-.64.71-.89Zm-.33-12.18c.28-.33.44-.55.75-.91v1.11Zm1.08,2.76h-.61v-.13h.61Zm-.22-1.73a3.23,3.23,0,0,0,.3.6,2.182,2.182,0,0,0-.66.06,3.446,3.446,0,0,1,.05-.69c.09.11.17.16.25.25a.61.61,0,0,0,0-.22v-.56c.2.11.31.2.47.28l.33-.28c0,.2.09.36.11.58h-.8Zm.52-3.84a2.28,2.28,0,0,0,0,.49h-.88l.28-.49h0l-.2-.2.08-.09c.08.09.14.17.22.25h0a4,4,0,0,0,.61,0,1.29,1.29,0,0,1-.11-1.49,4.5,4.5,0,0,0,.14.8l1,.14a8.36,8.36,0,0,1-1.09.61Zm-.11-2.38v.31h-.11v-.31Zm-.11-6v-.3h.11v.3Zm.8,7.34v-.11h.3v.11Zm2.07-4.52L35,53h-.52a6.626,6.626,0,0,1-.06,1l.53-.39c0,.44.08.83.11,1.22.41,0,.22.36.27.6.47.25.94.53.88,1.19h.09a.72.72,0,0,1,.83.72c-.28-.22-.56-.5-.8-.69h-1V55.39c-.44,0-.25-.36-.3-.61H34.2v-2c.44-.63.72-1.57,1.63-1.9a3,3,0,0,0-.47-2.26c0,.77-.06,1.32-.09,1.93H34.13c.11-.17.19-.28.27-.42-.08-.08-.16-.19-.27-.3l.25-.25c-.75-.83,0-1.63,0-2.48V44.28a.58.58,0,0,0-.19-.3l-.01.02a.727.727,0,0,0-.14-.11.43.43,0,0,1-.13-.19.41.41,0,0,1,0-.44l1.25.83a3.841,3.841,0,0,0,.3-.28c.28.91,1,1.13,1.9,1.21a2.58,2.58,0,0,1-.22,1.33c-.3.63-.3,1.44-.6,2.13-.11.22.11.6.22.91.02.61-1.06,1.12-.26,1.92Zm-2.07-8.59v-.11h.3v.11Zm1.6,1v-.3h.11v.3Zm1.27,4.48v.3h-.11v-.3Zm2.35,1.49c-.11-.22-.19-.42-.31-.61s-.19-.17-.52-.47c.19.5.28.75.36,1-.06.06-.25.17-.22.28,0,.75-.31,1.05-1.05,1-.14,0-.3.17-.47.28h0a4.76,4.76,0,0,1-.06.58,3.69,3.69,0,0,0-.58,0c.2-.28.31-.5.45-.69,0,.06.11.08.13.14V50.7c.2-.09.39-.2.61-.28V50l-.85.22a6.19,6.19,0,0,0-.06-.63l2.4-1.69c.33-.22.5-.3.67-.22s.24.2.52.55a1.82,1.82,0,0,0-.97,1.45ZM39,47.25H38a1.7,1.7,0,0,0-.27.33c-.09.09-.14.17-.23.25l-.08-.08.25-.22h0a2.28,2.28,0,0,0,.3-.36c.11-.25.25-.53.44-.89a8.6,8.6,0,0,1,.59.97Zm0-1.44v-.3h.11v.3Zm2.27,2.27H41V48h.31Zm-.06-1.22c-.25.19-.69.11-1.07.17V46c.33-.11.66-.22,1.07-.33l.31.28c-.1.28-.1.75-.3.91Zm-3.31-7a3.739,3.739,0,0,0,.16.47c1.08.14,2.16.28,3.43.47.08.09.33.31.52.47.44-.11.83-.22,1.19-.33.3.64,0,.94-.41,1.3l-1.11-.8a3.757,3.757,0,0,1-.14.74c.2.33.31.47.22.64a2.409,2.409,0,0,1-.55.61l-.33-.28c-.3.08-.55.17-.83.22l.86.86c0-.09.14-.17.19-.25h0l.08.08-.24.22h0l-.39.58a2.89,2.89,0,0,0-.5-.22c-.08.22-.16.31-.27.31s-.3-.22-.5-.28a1.25,1.25,0,0,1-.3.19c-.44-.44-.83-.88-1.11-1.13H37c-1.13-1-1.38-1.16-1.93-.94A.9.9,0,0,0,33.91,42c-.14-.39-.17-.8-.39-1a2.51,2.51,0,0,0-1.27-.5,1.54,1.54,0,0,0-1.27.17c-.19.14-.66-.08-1-.14a.689.689,0,0,0-.09.17,2.28,2.28,0,0,1,.23,1.3v.22a2.34,2.34,0,0,0,.25,1.29c0,.06.09.11.11.17-.14.3-.3.61-.49,1-.36-1,.24-2.1-.47-3.1a1.87,1.87,0,0,0,.36-.38.93.93,0,0,0,0-.44h0c-.25-.09-.34-.23-.34-.36a1.87,1.87,0,0,1,.14-.5s0-.06,0-.06a3.821,3.821,0,0,0,.33.31l.75-1.49c-.11-.2-.2-.39-.31-.58a4.5,4.5,0,0,0-.83.22,5.646,5.646,0,0,0-.16-.86,7.12,7.12,0,0,1-.72.28c-.33-.47.14-.58.36-.83l.36.36c.19-.44.39-.83.52-1.19.14.36.31.75.5,1.22.22-.28.39-.47.52-.67h0c.08-.09.14-.17.22-.25l.08.08-.25.22h0a4.72,4.72,0,0,1,.31.58l-.91.91a3.357,3.357,0,0,1,1.41.58c.05-.16.13-.35.22-.58.41.42,1,.67.77,1.3a5.46,5.46,0,0,1,1.55.75,14.81,14.81,0,0,0,2.81,2.21q.925.6,1.79,1.28v-.78c-.25-.38-1-.49-1-1.13.08-.19.17-.38.25-.61-.77-.13-1.46-.27-2.35-.44-.27-.33-.6-.77-1-1.18s-.72-.72-1.08-1.08h0a1.692,1.692,0,0,0,.11-.17c-.16-.38-.38-.8-.69-1.49.56.36.86.58,1.25.83.22.55.47,1.19.74,1.91.94-.06,1.63.99,2.68.35Zm-8.26-1.18h.25v.49a.21.21,0,0,0-.14,0c-.01-.12-.07-.29-.1-.45Zm1.19-2.85v-.11h.31v.11Zm1.85,1.83v-.5h.14a2.987,2.987,0,0,0,.11.5.72.72,0,0,1-.24.04Zm2.43.35v-.3h.11v.3Zm2.29-7.2a1.05,1.05,0,0,1-.16.66,15.29,15.29,0,0,0-1,2.79l.27.28c-.33.66-1,1.16-1.13,2h0c.08.08.16.13.25.22l-.09.08c-.08-.08-.13-.17-.22-.25h-.47a2,2,0,0,0-.19-.55h-1.3l-.47.47c-.36-.11-.72-.19-1-.27-.08-.2-.16-.42-.3-.72.16-.25.3-.8.61-.89a4.54,4.54,0,0,0,1.35-.69c.17-.11.5,0,.74,0,1-.69,1.16-1.85,1.88-3a9.48,9.48,0,0,0-1,.25,1.259,1.259,0,0,0-.11-.53c-.47.3-.91.58-1.35.83-.09-.06-.17-.14-.28-.22l-.55.55a2,2,0,0,1-.3-.28c-.11.09-.2.2-.28.25l-.47-.3c-.22.14-.36.25-.55.36-.11-.06-.25-.08-.33-.2a1,1,0,0,0-1.14-.38c.31.61.61,1.16.94,1.82l.64-.94a.72.72,0,0,0,1.16,0l.74.39c-.66.3-1.32.58-2,.88a2.8,2.8,0,0,1-.17.47c-.22-.22-.44-.41-.6-.58l-.53.33-2-4.08c0-.47.66-.75,0-1.14.13-.27.27-.52.38-.8h.75c.11-.11.19-.19.11-.63.41-.25.66-.39.91-.53s.36-.27.77-.55c.08-.22.22-.66.39-1.13l-.75-.28.53-.52c.44.17.77.33.71.8a2.9,2.9,0,0,0,.53,1.49c-.3.36-.64.77-1,1.27a2.073,2.073,0,0,0-.17-.44c-.58-.41-.88.14-1.27.5-.11-.11-.25-.25-.41-.39a.156.156,0,0,1-.06.11l-.3.3c-.08.28-.14.53-.25.94.22.67.53,1.47.8,2.29a2.21,2.21,0,0,1,1.69.28c.6-.5,1.35-.11,2-.25l1-.77a6.44,6.44,0,0,1,1.79-2.38,3.65,3.65,0,0,1-.52-.19v-.77l1.66.66c-.06.36-.3.86-.14,1.13a4.33,4.33,0,0,1,.27,2.29Zm-3.59,1.43v-.11h.31v.11Zm.72-.19v-.3h.11v.3Zm3.76-4.86H38v-.11h.31Zm2.89-12.42h-.11v-.3h.11ZM50.83,24h-.61v-.14h.61Z" transform="translate(-7.06 -10.65)" fill="#1f7762"/>
  <path id="Trazado_24727" data-name="Trazado 24727" d="M25.21,41.92a4.73,4.73,0,0,0,0-.61,1.35,1.35,0,0,1-.17.36A1.231,1.231,0,0,1,25.21,41.92Z" transform="translate(-7.06 -10.65)" fill="#1f7762"/>
  <path id="Trazado_24728" data-name="Trazado 24728" d="M31.12,36.54Z" transform="translate(-7.06 -10.65)" fill="#1f7762"/>
  <path id="Trazado_24729" data-name="Trazado 24729" d="M32,64.7a.8.8,0,0,0,.11-.19h0Z" transform="translate(-7.06 -10.65)" fill="#1f7762"/>
  <path id="Trazado_24730" data-name="Trazado 24730" d="M32.36,55.31Z" transform="translate(-7.06 -10.65)" fill="#1f7762"/>
  <path id="Trazado_24731" data-name="Trazado 24731" d="M30.46,61.19a.1.1,0,0,0-.06,0h0a.09.09,0,0,0,.06,0Z" transform="translate(-7.06 -10.65)" fill="#1f7762"/>
  <path id="Trazado_24732" data-name="Trazado 24732" d="M30.46,61.19a.1.1,0,0,0-.06,0l.17.08h0a.32.32,0,0,1-.11-.08Z" transform="translate(-7.06 -10.65)" fill="#1f7762"/>
  <path id="Trazado_24733" data-name="Trazado 24733" d="M34.15,70.27Z" transform="translate(-7.06 -10.65)" fill="#1f7762"/>
  <path id="Trazado_24734" data-name="Trazado 24734" d="M29.46,53.74a2.09,2.09,0,0,0-.14-.17.85.85,0,0,1-.19.19c-.08.25-.14.47-.22.72a6.561,6.561,0,0,1,.55-.74Z" transform="translate(-7.06 -10.65)" fill="#1f7762"/>
  <path id="Trazado_24735" data-name="Trazado 24735" d="M37.72,47.58h0l.3-.3v-.06h0A4.671,4.671,0,0,1,37.72,47.58Z" transform="translate(-7.06 -10.65)" fill="#1f7762"/>
  <path id="Trazado_24736" data-name="Trazado 24736" d="M37.74,47.61a1.1,1.1,0,0,1,.28-.33l-.3.3Z" transform="translate(-7.06 -10.65)" fill="#1f7762"/>
  <path id="Trazado_24737" data-name="Trazado 24737" d="M45.31,18.29l.11.16a.91.91,0,0,1-.08-.13Z" transform="translate(-7.06 -10.65)" fill="#1f7762"/>
  <path id="Trazado_24738" data-name="Trazado 24738" d="M32.36,64.56Z" transform="translate(-7.06 -10.65)" fill="#1f7762"/>
  <path id="Trazado_24739" data-name="Trazado 24739" d="M31.26,60.31a.1.1,0,0,0,0-.06l-.08.17h0a.48.48,0,0,1,.08-.11Z" transform="translate(-7.06 -10.65)" fill="#1f7762"/>
  <path id="Trazado_24740" data-name="Trazado 24740" d="M30.54,55.06Z" transform="translate(-7.06 -10.65)" fill="#1f7762"/>
  <path id="Trazado_24741" data-name="Trazado 24741" d="M33.88,68.78h-.22A.72.72,0,0,0,33.88,68.78Z" transform="translate(-7.06 -10.65)" fill="#1f7762"/>
  <path id="Trazado_24742" data-name="Trazado 24742" d="M31.12,56.8Z" transform="translate(-7.06 -10.65)" fill="#1f7762"/>
  <path id="Trazado_24743" data-name="Trazado 24743" d="M30.29,61.85h0a.059.059,0,0,1-.06.06h.09l.14-.09C30.37,61.88,30.32,61.88,30.29,61.85Z" transform="translate(-7.06 -10.65)" fill="#1f7762"/>
  <path id="Trazado_24744" data-name="Trazado 24744" d="M45.75,19a11.555,11.555,0,0,0,.86,1.27A4.46,4.46,0,0,1,46.05,19Z" transform="translate(-7.06 -10.65)" fill="#1f7762"/>
  <path id="Trazado_24745" data-name="Trazado 24745" d="M9.31,39.52a.76.76,0,0,1,.22-.11.76.76,0,0,0-.22.11Z" transform="translate(-7.06 -10.65)" fill="#1f7762"/>
  <path id="Trazado_24746" data-name="Trazado 24746" d="M41.5,29.05l.08-.08h0Z" transform="translate(-7.06 -10.65)" fill="#1f7762"/>
  <path id="Trazado_24747" data-name="Trazado 24747" d="M9.61,39.35h0Z" transform="translate(-7.06 -10.65)" fill="#1f7762"/>
  <path id="Trazado_24748" data-name="Trazado 24748" d="M38,26.43h0c-.47.06-1-.19-1.38.33C37,26.24,37.55,26.52,38,26.43Z" transform="translate(-7.06 -10.65)" fill="#1f7762"/>
  <path id="Trazado_24749" data-name="Trazado 24749" d="M34.13,64.28h0a4,4,0,0,1,0-.52Z" transform="translate(-7.06 -10.65)" fill="#1f7762"/>
  <path id="Trazado_24750" data-name="Trazado 24750" d="M33.57,22.93a2.5,2.5,0,0,0-.66-.09,2.5,2.5,0,0,1,.66.09Z" transform="translate(-7.06 -10.65)" fill="#1f7762"/>
  <path id="Trazado_24751" data-name="Trazado 24751" d="M35.87,23.67h0c-.8-.16-1.52-.58-2.3-.74C34.35,23.09,35.09,23.51,35.87,23.67Z" transform="translate(-7.06 -10.65)" fill="#1f7762"/>
  <path id="Trazado_24752" data-name="Trazado 24752" d="M37.52,39.21,37,38.69Z" transform="translate(-7.06 -10.65)" fill="#1f7762"/>
  <path id="Trazado_24753" data-name="Trazado 24753" d="M27.28,24.89a1.63,1.63,0,0,1-.3.05h.3Z" transform="translate(-7.06 -10.65)" fill="#1f7762"/>
  <path id="Trazado_24754" data-name="Trazado 24754" d="M47.41,21.08c-.09-.06-.14-.14-.22-.2A.61.61,0,0,0,47.41,21.08Z" transform="translate(-7.06 -10.65)" fill="#1f7762"/>
  <path id="Trazado_24755" data-name="Trazado 24755" d="M52.1,29.08h.16v-.8H52A6.993,6.993,0,0,0,52.1,29.08Z" transform="translate(-7.06 -10.65)" fill="#1f7762"/>
  <path id="Trazado_24756" data-name="Trazado 24756" d="M36.69,23.31l.53.2c-.19-.23-.25-.34-.3-.34l-.28.09S36.69,23.28,36.69,23.31Z" transform="translate(-7.06 -10.65)" fill="#1f7762"/>
  <path id="Trazado_24757" data-name="Trazado 24757" d="M36.69,23.31H36.5C36.64,23.34,36.78,23.37,36.69,23.31Z" transform="translate(-7.06 -10.65)" fill="#1f7762"/>
  <path id="Trazado_24758" data-name="Trazado 24758" d="M36.53,23.28a6.9,6.9,0,0,0,.72.2c-.22-.08-.39-.17-.53-.2C36.78,23.37,36.64,23.34,36.53,23.28Z" transform="translate(-7.06 -10.65)" fill="#1f7762"/>
  <path id="Trazado_24759" data-name="Trazado 24759" d="M36.69,23.31h0a.07.07,0,0,0-.06,0C36.64,23.28,36.67,23.28,36.69,23.31Z" transform="translate(-7.06 -10.65)" fill="#1f7762"/>
  <path id="Trazado_24760" data-name="Trazado 24760" d="M34.13,64.28h0a1,1,0,0,0-.28.2l.08.08A.61.61,0,0,0,34.13,64.28Z" transform="translate(-7.06 -10.65)" fill="#1f7762"/>
  <path id="Trazado_24761" data-name="Trazado 24761" d="M34.13,64.28a.88.88,0,0,1-.17.28c.08-.08.14-.17.22-.25h0Z" transform="translate(-7.06 -10.65)" fill="#1f7762"/>
  <path id="Trazado_24762" data-name="Trazado 24762" d="M41.69,20.19h.11v-.3h-.11Z" transform="translate(-7.06 -10.65)" fill="#1f7762"/>
  <path id="Trazado_24763" data-name="Trazado 24763" d="M21.92,45.07C22,45,22,45,22,44.93h0c-.09-.25-.14-.47-.22-.72-.22.25-.33.39-.39.41.08.33.11.58.17.83H21V46.5a2.73,2.73,0,0,1,.85,1.82,3.32,3.32,0,0,0,.42,1.19l-1,.52c-.83-.82-1.93-1.05-2.62-1.87h-.33v1a24.42,24.42,0,0,0,4.55,2c.19-.41.33-.69.44-1-.66-.75-.11-1.57,0-2.43-.22.19-.33.28-.44.39a5.73,5.73,0,0,1-.47-2.07h-.64c.14-.36.22-.58.3-.8S22,45.15,21.92,45.07Z" transform="translate(-7.06 -10.65)" fill="#1f7762"/>
  <path id="Trazado_24764" data-name="Trazado 24764" d="M23,48.19a4.4,4.4,0,0,1-.42-2.07h0A4.83,4.83,0,0,0,23,48.19Z" transform="translate(-7.06 -10.65)" fill="#1f7762"/>
  <path id="Trazado_24765" data-name="Trazado 24765" d="M25.71,54.81a.263.263,0,0,1-.06.2,3.637,3.637,0,0,0-.72.05v.5h.63a9.491,9.491,0,0,1,.83-.64c.19-1-.64-1-1.22-1.21A9.332,9.332,0,0,0,25.71,54.81Z" transform="translate(-7.06 -10.65)" fill="#1f7762"/>
  <path id="Trazado_24766" data-name="Trazado 24766" d="M20.74,55.61a2.245,2.245,0,0,0,.11.36c.33-.08.66-.16,1-.27V54.45h-.72C21,54.87,20.85,55.25,20.74,55.61Z" transform="translate(-7.06 -10.65)" fill="#1f7762"/>
  <path id="Trazado_24767" data-name="Trazado 24767" d="M26.34,50.67c.08.08.14.17.22.25.53-.25,1.08-.52,1.63-.8,0-.25-.08-.5-.14-1A15.17,15.17,0,0,0,26.34,50.67Z" transform="translate(-7.06 -10.65)" fill="#1f7762"/>
  <path id="Trazado_24768" data-name="Trazado 24768" d="M25,45c.3-.38.05-.35-.19-.35h-.47v1.44H25.4C24.8,45.7,24.74,45.29,25,45Z" transform="translate(-7.06 -10.65)" fill="#1f7762"/>
  <path id="Trazado_24769" data-name="Trazado 24769" d="M18.31,53.71c.05.25.08.5.14.83.69-.56.88-1,.69-1.22C18.86,53.43,18.61,53.57,18.31,53.71Z" transform="translate(-7.06 -10.65)" fill="#1f7762"/>
  <path id="Trazado_24770" data-name="Trazado 24770" d="M26.92,47.36a2.88,2.88,0,0,0,.19-.66.52.52,0,0,0-.58.3c-.13.25-.16.61-.35.77a1.49,1.49,0,0,0,.69-.3Z" transform="translate(-7.06 -10.65)" fill="#1f7762"/>
  <path id="Trazado_24771" data-name="Trazado 24771" d="M26.92,47.36a.52.52,0,0,1-.08.11A1.077,1.077,0,0,0,26.92,47.36Z" transform="translate(-7.06 -10.65)" fill="#1f7762"/>
  <path id="Trazado_24772" data-name="Trazado 24772" d="M27.11,46.7h0a4.52,4.52,0,0,1-.19.66,4.52,4.52,0,0,0,.19-.66Z" transform="translate(-7.06 -10.65)" fill="#1f7762"/>
  <path id="Trazado_24773" data-name="Trazado 24773" d="M19.52,46.12a2.18,2.18,0,0,0,0-.78c0-.16-.24-.27-.46-.49a.87.87,0,0,0,.46,1.27Z" transform="translate(-7.06 -10.65)" fill="#1f7762"/>
  <path id="Trazado_24774" data-name="Trazado 24774" d="M20.93,44.35h-.14a2.43,2.43,0,0,0,.14,1Z" transform="translate(-7.06 -10.65)" fill="#1f7762"/>
  <path id="Trazado_24775" data-name="Trazado 24775" d="M20.93,45.32a2.5,2.5,0,0,1-.14-1v1.16h.14Z" transform="translate(-7.06 -10.65)" fill="#1f7762"/>
  <path id="Trazado_24776" data-name="Trazado 24776" d="M17.07,50.75c-.09-.13-.2-.33-.39-.63C16.6,50.84,16.6,50.84,17.07,50.75Z" transform="translate(-7.06 -10.65)" fill="#1f7762"/>
  <path id="Trazado_24777" data-name="Trazado 24777" d="M17.26,48.16h.14v-.5h-.25A3,3,0,0,0,17.26,48.16Z" transform="translate(-7.06 -10.65)" fill="#1f7762"/>
  <path id="Trazado_24778" data-name="Trazado 24778" d="M21.43,49.07v.3h.11v-.3Z" transform="translate(-7.06 -10.65)" fill="#1f7762"/>
  <path id="Trazado_24779" data-name="Trazado 24779" d="M22.5,46.12h0a1,1,0,0,0,.28-.2l-.08-.08a1,1,0,0,0-.2.28Z" transform="translate(-7.06 -10.65)" fill="#1f7762"/>
  <path id="Trazado_24780" data-name="Trazado 24780" d="M22.5,46.12a.88.88,0,0,1,.17-.28c-.08.08-.14.17-.22.25s.05,0,.05,0Z" transform="translate(-7.06 -10.65)" fill="#1f7762"/>
  <path id="Trazado_24781" data-name="Trazado 24781" d="M33.41,18.43a5.11,5.11,0,0,1,.44.6C34.4,19,34.71,19,35,19c-.06-1.71-.58-2.26-2.07-2.26.11.16.19.3.33.49-.17.28-.31.45-.5.8A6.45,6.45,0,0,1,33.41,18.43Z" transform="translate(-7.06 -10.65)" fill="#1f7762"/>
  <path id="Trazado_24782" data-name="Trazado 24782" d="M32,18.7h0a9.779,9.779,0,0,1-.53-.88.85.85,0,0,0-1.07.44l.25.33-.92.31a7.333,7.333,0,0,1,1.11.08,6.55,6.55,0,0,1,.74.27A.64.64,0,0,0,32,18.7Z" transform="translate(-7.06 -10.65)" fill="#1f7762"/>
  <path id="Trazado_24783" data-name="Trazado 24783" d="M32.53,18.7a.087.087,0,0,1-.06.08h0C32.47,18.73,32.47,18.7,32.53,18.7Z" transform="translate(-7.06 -10.65)" fill="#1f7762"/>
  <path id="Trazado_24784" data-name="Trazado 24784" d="M31.5,19.28l.94-.5V18.7H32a.73.73,0,0,1-.5.58Z" transform="translate(-7.06 -10.65)" fill="#1f7762"/>
  <path id="Trazado_24785" data-name="Trazado 24785" d="M32.47,18.76l.17-.09h-.11A.432.432,0,0,1,32.47,18.76Z" transform="translate(-7.06 -10.65)" fill="#1f7762"/>
  <path id="Trazado_24786" data-name="Trazado 24786" d="M32.58,18.54a.35.35,0,0,0,0-.25A.63.63,0,0,0,32.58,18.54Z" transform="translate(-7.06 -10.65)" fill="#1f7762"/>
  <path id="Trazado_24787" data-name="Trazado 24787" d="M32.53,18.7a.6.6,0,0,0,0-.14v-.24c-.08-.2-.33-.28-.61-.34.14.23.25.45.42.72Z" transform="translate(-7.06 -10.65)" fill="#1f7762"/>
  <path id="Trazado_24788" data-name="Trazado 24788" d="M32.53,18.7h-.14v.08h0C32.5,18.73,32.5,18.7,32.53,18.7Z" transform="translate(-7.06 -10.65)" fill="#1f7762"/>
  <path id="Trazado_24789" data-name="Trazado 24789" d="M32.83,19h-.11v.3h.11Z" transform="translate(-7.06 -10.65)" fill="#1f7762"/>
  <path id="Trazado_24790" data-name="Trazado 24790" d="M35.4,29.41v1.27c.58-.74.66-1,.36-1.27Z" transform="translate(-7.06 -10.65)" fill="#1f7762"/>
  <ellipse id="Elipse_683" data-name="Elipse 683" cx="0.22" cy="0.08" rx="0.22" ry="0.08" transform="translate(24.91 24.51)" fill="#1f7762"/>
  <path id="Trazado_24791" data-name="Trazado 24791" d="M40.92,42.39v-.75c-.53.28-1,.53-1.55.8a4.27,4.27,0,0,0,.53.89C40.06,42.72,40.56,42.58,40.92,42.39Z" transform="translate(-7.06 -10.65)" fill="#1f7762"/>
  <path id="Trazado_24792" data-name="Trazado 24792" d="M39.87,43.47v-.14a4.87,4.87,0,0,1-.53-.89C39.54,42.8,39.7,43.13,39.87,43.47Z" transform="translate(-7.06 -10.65)" fill="#1f7762"/>
  <path id="Trazado_24793" data-name="Trazado 24793" d="M39.73,41.31l-1,.09,1,.49Z" transform="translate(-7.06 -10.65)" fill="#1f7762"/>
  <path id="Trazado_24794" data-name="Trazado 24794" d="M31.84,39.85H32v-.61h-.13Z" transform="translate(-7.06 -10.65)" fill="#1f7762"/>
  <path id="Trazado_24795" data-name="Trazado 24795" d="M41.42,42.58a.09.09,0,0,0,.13.09h0Z" transform="translate(-7.06 -10.65)" fill="#1f7762"/>
  <path id="Trazado_24796" data-name="Trazado 24796" d="M41.42,42.58a1.13,1.13,0,0,1,.08-.22.216.216,0,0,0-.06-.14C41.39,42.42,41.33,42.58,41.42,42.58Z" transform="translate(-7.06 -10.65)" fill="#1f7762"/>
  <path id="Trazado_24797" data-name="Trazado 24797" d="M41.58,42.67h0a1.09,1.09,0,0,0-.08-.31,2,2,0,0,0-.08.22Z" transform="translate(-7.06 -10.65)" fill="#1f7762"/>
  <path id="Trazado_24798" data-name="Trazado 24798" d="M41.42,42.58c-.06,0,0-.19,0-.36a4.91,4.91,0,0,1-.19.72l.33-.27A.1.1,0,0,1,41.42,42.58Z" transform="translate(-7.06 -10.65)" fill="#1f7762"/>
  <path id="Trazado_24799" data-name="Trazado 24799" d="M40,44h-.2a1,1,0,0,0,.17.55h.14A3.33,3.33,0,0,1,40,44Z" transform="translate(-7.06 -10.65)" fill="#1f7762"/>
  <path id="Trazado_24800" data-name="Trazado 24800" d="M39.87,44.63H40a1.19,1.19,0,0,1-.17-.56C39.84,44.24,39.84,44.43,39.87,44.63Z" transform="translate(-7.06 -10.65)" fill="#1f7762"/>
  <ellipse id="Elipse_684" data-name="Elipse 684" cx="0.22" cy="0.08" rx="0.22" ry="0.08" transform="translate(19.25 23.02)" fill="#1f7762"/>
  <path id="Trazado_24801" data-name="Trazado 24801" d="M25.65,63.43c.5-.09.77-.11,1.24-.17l-.66-.86A11.185,11.185,0,0,0,25.65,63.43Z" transform="translate(-7.06 -10.65)" fill="#1f7762"/>
  <path id="Trazado_24802" data-name="Trazado 24802" d="M38.9,25.85v.31l.31-.31Z" transform="translate(-7.06 -10.65)" fill="#1f7762"/>
  <path id="Trazado_24803" data-name="Trazado 24803" d="M30,29.11h0l.24-.2-.08-.08a.48.48,0,0,0-.19.25Z" transform="translate(-7.06 -10.65)" fill="#1f7762"/>
  <path id="Trazado_24804" data-name="Trazado 24804" d="M30,29.11Z" transform="translate(-7.06 -10.65)" fill="#1f7762"/>
  <path id="Trazado_24805" data-name="Trazado 24805" d="M29.93,29.11l.06.06A.059.059,0,0,0,29.93,29.11Z" transform="translate(-7.06 -10.65)" fill="#1f7762"/>
  <path id="Trazado_24806" data-name="Trazado 24806" d="M30.12,28.86c-.08.08-.13.17-.22.25h0Z" transform="translate(-7.06 -10.65)" fill="#1f7762"/>
  <path id="Trazado_24807" data-name="Trazado 24807" d="M30,29.11Z" transform="translate(-7.06 -10.65)" fill="#1f7762"/>
  <path id="Trazado_24808" data-name="Trazado 24808" d="M39.51,48l.25.08h0Z" transform="translate(-7.06 -10.65)" fill="#1f7762"/>
  <path id="Trazado_24809" data-name="Trazado 24809" d="M39.87,48.08h-.08S39.87,48.1,39.87,48.08Z" transform="translate(-7.06 -10.65)" fill="#1f7762"/>
  <path id="Trazado_24810" data-name="Trazado 24810" d="M39.87,48.08C40,48,40,48,40,47.94h0A.62.62,0,0,0,39.87,48.08Z" transform="translate(-7.06 -10.65)" fill="#1f7762"/>
  <path id="Trazado_24811" data-name="Trazado 24811" d="M39.87,48.08l.08-.17h0a2.49,2.49,0,0,0-.41.14,1.28,1.28,0,0,0,.28.05.11.11,0,0,1,.05-.02Z" transform="translate(-7.06 -10.65)" fill="#1f7762"/>
  <path id="Trazado_24812" data-name="Trazado 24812" d="M39.87,48.08h-.08l.47.14c-.17-.19-.22-.27-.28-.33S40,48,39.87,48.08Z" transform="translate(-7.06 -10.65)" fill="#1f7762"/>
  <path id="Trazado_24813" data-name="Trazado 24813" d="M38.3,49.68h0c.09-.09.17-.14.25-.23l-.08-.08a.92.92,0,0,0-.19.28Z" transform="translate(-7.06 -10.65)" fill="#1f7762"/>
  <path id="Trazado_24814" data-name="Trazado 24814" d="M38.49,49.4c-.08.08-.14.17-.22.25h0a.92.92,0,0,1,.22-.25Z" transform="translate(-7.06 -10.65)" fill="#1f7762"/>
  <path id="Trazado_24815" data-name="Trazado 24815" d="M38.3,49.68Z" transform="translate(-7.06 -10.65)" fill="#1f7762"/>
  <ellipse id="Elipse_685" data-name="Elipse 685" cx="0.22" cy="0.08" rx="0.22" ry="0.08" transform="translate(17.46 24.79)" fill="#1f7762"/>
  <ellipse id="Elipse_686" data-name="Elipse 686" cx="0.22" cy="0.08" rx="0.22" ry="0.08" transform="translate(19.86 58.77)" fill="#1f7762"/>
</svg>
