<svg id="Calavera_jalapenos" xmlns="http://www.w3.org/2000/svg" width="54.049" height="48.31" viewBox="0 0 54.049 48.31">
  <path id="Trazado_24323" data-name="Trazado 24323" d="M21.38,76.16Z" transform="translate(-2.751 -32.75)" fill="#1f7762"/>
  <path id="Trazado_24324" data-name="Trazado 24324" d="M42,51h0a.76.76,0,0,1-.16.09h.06C41.96,51.09,42,51,42,51Z" transform="translate(-2.751 -32.75)" fill="#1f7762"/>
  <path id="Trazado_24325" data-name="Trazado 24325" d="M32.78,57.71h-.06c-.06,0-.06,0-.12.06h0a1,1,0,0,1,.18-.06Z" transform="translate(-2.751 -32.75)" fill="#1f7762"/>
  <path id="Trazado_24326" data-name="Trazado 24326" d="M18.6,64.63Z" transform="translate(-2.751 -32.75)" fill="#1f7762"/>
  <path id="Trazado_24327" data-name="Trazado 24327" d="M41,44.13Z" transform="translate(-2.751 -32.75)" fill="#1f7762"/>
  <path id="Trazado_24328" data-name="Trazado 24328" d="M35.74,64.6a.1.1,0,0,0-.06,0l-.31.62a2,2,0,0,1,.41-.4A.947.947,0,0,1,35.74,64.6Z" transform="translate(-2.751 -32.75)" fill="#1f7762"/>
  <path id="Trazado_24329" data-name="Trazado 24329" d="M27.33,78.94h0l.31-.32h0a3.17,3.17,0,0,0-.31.32Z" transform="translate(-2.751 -32.75)" fill="#1f7762"/>
  <path id="Trazado_24330" data-name="Trazado 24330" d="M15.55,50.48l-.4.72v.06l.06-.06.09.09a3.71,3.71,0,0,1,.25-.81Z" transform="translate(-2.751 -32.75)" fill="#1f7762"/>
  <path id="Trazado_24331" data-name="Trazado 24331" d="M27.64,78.62h0l-.31.32h0a3.17,3.17,0,0,1,.31-.32Z" transform="translate(-2.751 -32.75)" fill="#1f7762"/>
  <path id="Trazado_24332" data-name="Trazado 24332" d="M21.38,75.85h0a1.08,1.08,0,0,1,.22-.12h-.07A.82.82,0,0,1,21.38,75.85Z" transform="translate(-2.751 -32.75)" fill="#1f7762"/>
  <path id="Trazado_24333" data-name="Trazado 24333" d="M37.61,49.39h0a.66.66,0,0,1-.15.09h.06C37.58,49.48,37.58,49.45,37.61,49.39Z" transform="translate(-2.751 -32.75)" fill="#1f7762"/>
  <path id="Trazado_24334" data-name="Trazado 24334" d="M15.55,49.39v-.06h-.09l.06.06h0a.22.22,0,0,1,.15,0Z" transform="translate(-2.751 -32.75)" fill="#1f7762"/>
  <path id="Trazado_24335" data-name="Trazado 24335" d="M28.55,47.83h0V48a.059.059,0,0,0,.06-.06C28.61,47.88,28.58,47.87,28.55,47.83Z" transform="translate(-2.751 -32.75)" fill="#1f7762"/>
  <path id="Trazado_24336" data-name="Trazado 24336" d="M3.08,78.94a2,2,0,0,0-.18-.13v1.37c.65.19,1.34.44,2.34.75.12,0,.46-.53,1.15-.16a2.14,2.14,0,0,0,2.3-.18c.44.09.81.68,1.38.15a1.2,1.2,0,0,1,.87-.12c.4.09.75.56,1.21.19.28-.22.63.15.94-.16a1,1,0,0,1,.87.06,2,2,0,0,0,1.78.19c1.71-.5,3.46-.19,5.17-.28h.94v-.59c-.47-.47-.91-.88-1.25-1.22v-.87l-.53-.19c-.19-.47-.4-.93-.59-1.4a2.81,2.81,0,0,1-.25-.9c-.09-.72-.81-1.28-.87-2.12,0-.41-.44-.75-.72-1.16-.53.16-1.06.28-1.65.44-.13-1.12-.87-2.06-.72-3.18a1.88,1.88,0,0,1-.4-.84.248.248,0,0,0-.07-.22c-.12-.43-.25-.9-.78-1.09h0l-1,.72c.28.12.46.22.9.4h-1.8a3.626,3.626,0,0,1,.13-.59,3.271,3.271,0,0,0,.31.28c.34-.4.65-.81.93-1.15a4.51,4.51,0,0,0,.53.31h0c.13-.56.53-.65,1.09-.62.31,1,.63,2,.94,3h.15v1.52a2.86,2.86,0,0,0,1.81.53,5.34,5.34,0,0,1,1.19.31c.65,3.18,2.43,5.8,3.55,8.7h2.43c.78,0,1.53-.22,2.27.34l.41-.31c.65.09,1.28.22,1.9.34,0-.09-.09-.15-.12-.25.24-.09.49-.21.65-.28-.47-.93-.94-1.68-1.25-2.49-.53-1.4-.65-2.93-1.62-4.14-.09-1.69-1.24-2.9-1.84-4.37a1,1,0,0,0-1.09-.71c.84-.75.31-1.34,0-1.78a3.51,3.51,0,0,1-.56-1.25c-.28.1-.53.19-1.12.38.44-.66.65-1,.93-1.41-.25-.31-.49-.59-.81-1l.94-.47a5.839,5.839,0,0,0,.28.53h1.59c.25,1,1.34.44,2,1a7.2,7.2,0,0,0,2.34.84c.56-.31,1.31-.75,2.12-1.22.22.22.47.44.72.66l.25-.69a4.85,4.85,0,0,0,.59.28c.34-.09.65-.18.93-.28l.59.6c-.52.21-1,.4-1.46.62-.19-.06-.44-.25-.62-.22a14.791,14.791,0,0,0-2.68.66A6.16,6.16,0,0,0,29,67.31a12.28,12.28,0,0,0,.31,3.27c.41,1.06-.12,2.25.72,3.21H32.3c.16,1,.32,2,.47,3.06a1.47,1.47,0,0,0,1.44-.31,3.56,3.56,0,0,1,1.8-.81,3.39,3.39,0,0,0,2.12-1.31c.41-.41,1-.72,1.15-1.5l-1.15.59a9.4,9.4,0,0,0-1.15.56A8.26,8.26,0,0,0,36,75c-.68.09-1.24.19-2.05.31-.41-.25-.5-.87-.78-1.37.56-.62.56-.62,1.15-.72l1.62-1.43c1,.68,1.81-.41,2.81-.16a.939.939,0,0,1,.09-.31c.19.41.37.84.62,1.4.1-.15.19-.25.28-.37a15.71,15.71,0,0,1,2.43-1.93h0l.44.43v.78a4,4,0,0,1,1.59,1.9c.34.69,1,1.22.93,2.12,0,.19.25.38.38.59a12.58,12.58,0,0,1,1.53,4c.34.35.62,1,1.46.66-.06-.94-.75-1.62-1-2.49a15.909,15.909,0,0,0-1-2.37,8.16,8.16,0,0,1-1.09-2.5v-.15a.87.87,0,0,0-.12-.31.57.57,0,0,0-.09-.16c-.35-.56-.94-1-.69-1.78h0A9.47,9.47,0,0,1,46,72.67a7.32,7.32,0,0,1,.93,1.4c.31.66.59,1.31.94,1.94a2.68,2.68,0,0,0,.62.59,3.53,3.53,0,0,0-.19-1,20.93,20.93,0,0,0-2-4,4,4,0,0,0-.09-.43.19.19,0,0,0-.07.12c-.06-.19-.12-.37-.21-.75.18.16.31.25.34.28a.231.231,0,0,1-.06.19c.25.25.37.25.4.25.63.87,1.12,1.78,1.78,2.56,1.06,1.27,1.84,2.77,2.83,4.11-.25.62.69.28.66.81a2.22,2.22,0,0,0,.31.94,7.65,7.65,0,0,0,.81,1l3.8-.28V70.49c-.09-.19-.18-.4-.34-.68,0,0-.12-.13-.19-.1a.89.89,0,0,1-1-.53c-.68-1.24-1.87-2-2.8-3.15l.31-1a6.21,6.21,0,0,1-.25-1.19c0-.46,0-.93,0-1.4A2.4,2.4,0,0,0,50.77,61a9.93,9.93,0,0,1-2.25-1.46c-1.74-.53-3.15-2.15-5.11-1.9l-.62-.53c.18-.66.4-1.28.65-2-.31-.87-.68-1.87-1.09-3,.31-.93,1.31-1.5,2-2.37a7.8,7.8,0,0,0-.72-4,9.231,9.231,0,0,1-.4-1.12,3.73,3.73,0,0,1-.19-1.18h0a1.63,1.63,0,0,1,0-.38.74.74,0,0,1,0-.25v-.12a3.11,3.11,0,0,1,.28-.66c-.18-.46-.43-.9-.65-1.37a7.52,7.52,0,0,1-.35-.87,7.05,7.05,0,0,0-1.37-2.06c-.28-.37-.74-.65-.87-1.18,0-.13-.22-.31-.31-.31-1.12.06-1.53-1-2.37-1.4a12.5,12.5,0,0,0-4.08-1.44,1.69,1.69,0,0,1-.69-.22,6.13,6.13,0,0,0-3-.37c-.22,0-.43.19-.47.19-.77-.1-1.4-.16-2-.25,0,.09-.09.15-.13.25l.57.18c-.07,0-.1.1-.16.16,1.22.12,2.4.22,3.58.4a8.45,8.45,0,0,0,1.59.32,5.51,5.51,0,0,1,1.75.31c.5.15.9.5,1.46.62a3,3,0,0,1,1.25.75c.78.62,1.53,1.34,2.31,2a8.14,8.14,0,0,1,1.87,2.81,3.83,3.83,0,0,1,.21.84c.07.31.13.62.19,1-.37.18-1.09-.25-1.37.53.09.43.62.65.87,1.06h0c.1.06.16.15.25.21l-.09.1c-.06-.1-.16-.16-.22-.25h0c-.37,0-.81-.13-1.15.4V42.13c.22-.09.4-.19.59-.25-.5-.47-.94-.87-1.43-1.34a9.46,9.46,0,0,0-2,2.31v1.59c.38.53.75,1.21,1.25,1.81A17.35,17.35,0,0,0,40,47.93h2c.28-.72.53-1.44.88-2.31.25.94.46,1.72.68,2.59-.4.59-.87,1.24-1.37,2-.34-.06-.72-.12-1.12-.22l-.87-.87c-.07.09-.13.16-.19.25-.47-.16-.91-.28-1.37-.44h0c-.06.09-.16.15-.22.24l-.09-.09c.09-.06.15-.15.25-.22h0v-.81c-.75,0-.88-.65-1.19-1.12s-.53-.9-.78-1.37c-.9,0-.18-1.22-1-1.31h-.94c-.56.44-.15,1.15-.53,1.65l.35.35c-.1.12-.29.24-.29.34a2.25,2.25,0,0,1-.49,1.68c-.41.5-.07.84.06,1.06-.13.72-.22,1.31-.31,1.87.53.28,1,.53,1.49.78l.66-.37c.25-.44.53-1,.81-1.44.78-.06.78.53,1,.94.59-.13,1.21-.28,2-.44.12-.16.31-.5.59-.9v1.62a7.9,7.9,0,0,1,1.22,1,8.419,8.419,0,0,1,.65,1.27c.22.5-.18,1.13.44,1.62-.22.07-.41.1-.62.16a8.31,8.31,0,0,0-.16.93c-.37-.81-.69-1.52-1-2.21-.25.13-.43.25-.74.41.12-.47.18-.81.28-1.16A2.37,2.37,0,0,0,38.61,53l-1.74.43v.5H38.8c-.19.22-.28.34-.41.5l.94.59c-.31.41-.66.66-1.19.37,0-.21-.06-.46-.09-.77H36.8c-.09.31-.25.68-.43,1.15h-.72c-.06-.16-.15-.34-.22-.56H34.37a2.765,2.765,0,0,1-.09.43c-.28.16-.56.32-.94.5-.12-.09-.28-.22-.46-.34l-1.34.44a1.22,1.22,0,0,0,.15,1.15c.22.28.53.47.44.9h0c.09.06.16.16.25.22l-.09.09a2.621,2.621,0,0,1-.22-.25h0c-.22-.09-.53-.09-.66-.24a8.779,8.779,0,0,1-.59-1c.16-.22.25-.41.44-.72l-1-.59a4.22,4.22,0,0,0-.47.31,1,1,0,0,1-.22-.19c-1,.28-2.08.53-3.27.84-.09-.09-.22-.31-.37-.49a6.6,6.6,0,0,0,1.46-.44,2.44,2.44,0,0,1,1.25-.12,10.47,10.47,0,0,0,1.84-.32c-.66-.28-1.06-.43-1.56-.65.31-.59.59-1.18,1-1.9-.13-.06-.35-.19-.57-.31a5,5,0,0,0,.29-.69,1.16,1.16,0,0,0-.07-.59h0l-.06.06c-.09-.31-.19-.62-.25-.87-.28-.16-.56-.35-.87-.53,0-.44.06-.81.09-1.4,1,.62,1.06,1.55,1.53,2.18a3.35,3.35,0,0,0-.44.59h.06v-.06l.66.34c.47-.22.31-1.18,1-1,.43-.81.87-1.58,1.27-2.33-.15-.88-.34-1.81-.56-2.87a14.589,14.589,0,0,0-1.37-1.62c-.53-.5-.71-1.31-1.52-1.5-.28.16-.6.53-.94.53-.87,0-1.12.66-1.5,1.25-.49.84-1.12,1.59-1.68,2.4.06.09.16.19.31.37l-.78.6a3.61,3.61,0,0,1,.35.56c-.69,1.15.12,2,.75,2.8s1.05,1.84,2.24,2a4.171,4.171,0,0,0,.68-.24c.57.81-.71.49-.43,1.15l.62.28c-.15.34-.28.68-.43,1.06-.78.15-1.59.31-2.4.53a5.12,5.12,0,0,0-1,.47c-.31.09-.94-.32-1.31.18-.34-.09-.68-.22-.9-.28-.41-.4-.78-.75-1.12-1.12a2.65,2.65,0,0,0,.31-.31c-.16-.25-.35-.47-.56-.78-.63.22-1.25.4-1.91.62-.21-.12-.46-.25-.71-.37v-.78H16.83c-.34-1.09-.66-2.15-1-3.27l.63-.1V51c.34.34.59.59.87.91l.93-.28.47,1.4h0a.79.79,0,0,0,.9-.9h0a2.62,2.62,0,0,0-.25-.22l.1-.1c.06.1.15.16.21.25h0l1.69-.4c.37.56.78,1.09,1.15,1.62a1.82,1.82,0,0,1-.19.31,1.1,1.1,0,0,0-.15.25l.15.16.1.09.12.12c.13-.09.28-.18.5-.34.25.22.5.41.81.66H25.3a2.55,2.55,0,0,0-.18-.57.59.59,0,0,0-.41-.31,1.31,1.31,0,0,0-.34,0h-.53L23,52.88v-.62s.06-.09.09-.09c.5.09,1,.21,1.53.34.25-.25.41-.44.65-.69-.37-.4-.74-.84-1.12-1.24H23c.06.4.12.74.19,1.15h-.72c.19-1.62.4-3.24.59-4.83-.09,0-.15-.09-.25-.13-.12.25-.28.53-.4.78-.1,0-.16-.09-.25-.12a5.9,5.9,0,0,0-.13-.9H23.4c-.15-.57-.28-1-.4-1.38l.84-.71a5.461,5.461,0,0,1,.5.25c.19-.28.34-.56.5-.84l-.47-.47c-.65.37-1.31.78-2,1.15a4.206,4.206,0,0,1-.1.44H21l-.5.5c.19.06.38.12.72.25l.09-.07a7.43,7.43,0,0,1,.69-.34h0a.68.68,0,0,1,.09.22h0c-.46.44-.46,1.15-.93,1.56v-.06h0a5.08,5.08,0,0,1-.5,2.77c-.22-.81-.38-1.37-.5-1.84.37-.34.62-.62,1-1v.07h0s0-.1-.06-.13a6.63,6.63,0,0,0-.91-.93c-.56.93.19,1.93-.53,2.52.13.56.22,1,.38,1.65l.49.53-1.15.38a3.11,3.11,0,0,1-1.65-2.62c0-.25-.31-.47-.28-.66.12-.81-.69-1.58,0-2.4.12-.15,0-.49,0-.74a13,13,0,0,1,0-2.5,12.8,12.8,0,0,1,.81-2,4.28,4.28,0,0,0,.09-.94c-.59.47-1,.85-1.55,1.25a6,6,0,0,1,0,.75c-.71-.56-1.3-1-1.93-1.5a7.58,7.58,0,0,1,1.53-2.24c.81-.53,1.12-1.37,1.84-1.93a3.32,3.32,0,0,0,2.4-.88,5.68,5.68,0,0,1,2.71-1,14.715,14.715,0,0,0,1.59-.28,13.017,13.017,0,0,1,1.53,0V32.8H22.31c-1.34.56-2.55,1.09-4.08,1.74l-1,1a2.677,2.677,0,0,0-.62.06c-2.06,1.93-2.49,2.46-2.68,3.4-.37.34-.78.59-.93.93-.32.75-.72,1.47-1,2.21a7.46,7.46,0,0,1-.84,2.28c.12,1.21-.07,2.4.12,3.64a14.45,14.45,0,0,1,.5,2.84,1.42,1.42,0,0,0,.28.66c.78,1.21,1.5,2.39,2.34,3.55a6,6,0,0,0,1.24,1h2.53c.15.31.31.62.53,1-.31.22-.66.47-1,.75v.69a2.84,2.84,0,0,0-2.8,1.59c.09.09.21.15.31.25-.1.12-.22.25-.31.37-.16.47-.28.93-.47,1.5a1.41,1.41,0,0,1-.34.12c-.32,1-.6,2-.91,3-.68-.09-.47.94-1.18,1.06-.41.1-.66.81-1,1.19s-.87.77-1.31,1.18l.22.22-.81.59c-.06-.4-.13-.69-.19-1-.09,0-.19,0-.22.07-.46.65-.93,1.37-1.43,2a1.63,1.63,0,0,1-.69.62c-.87.32-1.18,1.25-1.77,1.56a9.29,9.29,0,0,1-.5,1.56A2.58,2.58,0,0,0,4,75.79c0,.22-.19.47-.22.68-.06.53-.37,1-.13,1.59S3.24,79.4,3,80.12V78.66a1.47,1.47,0,0,0-.22-.1C2.74,78.75,2.68,78.94,3.08,78.94ZM21.41,51h.31v.1h-.31Zm-.06-1c.12-.31.21-.56.31-.78a.31.31,0,0,0-.1-.12h0a9.56,9.56,0,0,0,.72-.72V50Zm-7,1.62h.1v.32h-.1Zm-.09-3.14c.16-.78.31-1.47.44-2.12h.12v2.09Zm.56-2.53h-.53a.86.86,0,0,0,0-.28,3.71,3.71,0,0,0,.53.13.22.22,0,0,1-.02.1Zm-.81.38h.16v.62H14Zm-.68,3.33a4.75,4.75,0,0,0,.62.16c0,.34,0,.62,0,.93,0,.09-.12.16-.25.38a3.35,3.35,0,0,0-.06-.85c-.08-.2-.21-.36-.33-.67Zm-.22-.84h.09v.31h-.09Zm-.1-.56h.63v.15H13Zm-.77-.81,1-.63a5.52,5.52,0,0,1,.13.78Zm1.27-4.49c-.09.94-.18,1.78-.28,2.77-.87-1-.46-1.87,0-2.83a2.432,2.432,0,0,1,.26.01Zm.35-.69h-.1v-.31h.1Zm.31-.93h-.1V41h.1Zm.31,1.87h-.09V42.9h.09Zm0,1.18c.06-.34.13-.59.16-.84a.27.27,0,0,0,.15,0v1.22c-.34,0-.62-.06-1.24-.09Zm.37-3.14h-.31v-.1h.31Zm0,9.66c.06-.19.34-.28.62-.35a3.28,3.28,0,0,0-.25.81c.06,0,.09.1.16.13l-.1.09c-.06-.09-.15-.15-.22-.25v-.06a.3.3,0,0,1-.06.13c-.14-.33-.14-.52-.1-.55Zm.49-9.26H15.3v-.31h.09Zm.07,1.06v.16H14.9v-.28a3.64,3.64,0,0,1,.56.07Zm.12,1.53a4.843,4.843,0,0,1-.28.78c-.01-.89-.01-.89.33-.83Zm-.06,1.28a2.223,2.223,0,0,1-.13.49c-.04.15-.09,0-.15,0V45.4a.53.53,0,0,1,.33.07Zm.19,2.36h-.1v-.31h.1ZM17,51.14a2.8,2.8,0,0,1,.12-.5c.03-.15.09,0,.16,0v.53a.88.88,0,0,1-.28-.03Zm-.29-2h.32v.1h-.32Zm-1.06.19H15.5c-.06,0-.16.16-.22.25l-.09-.09c.09-.06.15-.16.25-.22h.09V48.18c.28.12.5.22.75.31.09-.28.19-.47.25-.62l.18.06a4.393,4.393,0,0,1-.06.87h-.81a2.77,2.77,0,0,1-.17.56Zm1.69,4.89h-.31v-.09h.31Zm.53.41h-.16V54h.16Zm13.49-6.11h.31v.09h-.31Zm-4.7-2.83-.38,2.05h-.15V46a.53.53,0,0,0,.15.12c.06-.19.16-.34.22-.53a.91.91,0,0,0,.18.13Zm0,2.92H26.4v-.09h.31Zm1,.78a7.736,7.736,0,0,1-.12.94c-.19-.16-.28-.25-.41-.34a5.661,5.661,0,0,0-.21.56h-.16V49.36Zm1.5-4.89v.16h-.53v-.28a3.37,3.37,0,0,1,.54.15Zm.56.84a6.53,6.53,0,0,0-.31.66.46.46,0,0,0-.16-.13v-.53Zm.72,1.09h-.31v-.09h.31ZM30,49l.75-.75c-.06.75-.09,1.25-.16,1.71a.52.52,0,0,0-.21,0A4.362,4.362,0,0,0,30,49Zm-2.4-1.62a9.507,9.507,0,0,1,.06-1.34l.88.78v1.1a1.85,1.85,0,0,1,1.49-1v.9c-.28-.15-.5-.25-.75-.37-.09.4-.15.72-.21,1.06a7,7,0,0,1-.53-.5v-.16c-.27-.17-.54-.3-.9-.48Zm.94,3.77V51h.31v.1Zm7.2-1.5a.89.89,0,0,0,0-.28,4.561,4.561,0,0,0,.53.13.27.27,0,0,0,0,.15Zm-.66.25h-.31v-.1h.31Zm.57-3.9h-.09v-.31h.09Zm1.15,1.53c-.28.56-.56,1.09-.81,1.59-.28-.34-.53-.62-.74-.87.46-.38-.19-1.34.68-1.59Zm.72,1h-.09v-.31h.09Zm.41.78c-.1.06-.16.15-.25.21s-.1,0-.13.07.06,0,.1,0l-.75.22c.22-.22.28-.35.31-.35a.73.73,0,0,1,.25.07l.15-.1h0a2.62,2.62,0,0,0,.22-.25Zm3-5.77h-.09v-.31H41Zm-1.43.09c-.22.25-.38.38-.6.6v-1a3.77,3.77,0,0,0,.62.33ZM41.35,46l-.81.9c-.87-.19-1.4-.59-1.4-1.12.25-.19.59-.41,1.06-.75.28.19.66.4,1,.65C41.32,45.75,41.32,45.93,41.35,46ZM42,44.59h-.31V44.5H42ZM42,51c-.06,0-.09,0-.12.07h.09c-.19.06-.38.12-.75.21.22-.21.28-.34.31-.34a1,1,0,0,1,.25.06A.76.76,0,0,0,42,51h0c.06-.09.15-.16.21-.25l.1.09A.45.45,0,0,0,42,51ZM55.4,76.81a1.91,1.91,0,0,1,0,1.74Zm-.37-.88h.31V76h-.31Zm.18-1.06h-.15v-.53h.28a3.67,3.67,0,0,1-.09.54Zm-.18-1.74h.31v.09h-.31ZM17.26,62.45h-.09v-.31h.09Zm1.13,0,.49.12v.16h-.53a2.86,2.86,0,0,0,.04-.31ZM18.29,65a3.861,3.861,0,0,1,.07-.41h.21a1.23,1.23,0,0,0,.22-.25l.09.09c-.09.07-.15.16-.24.22,0,.31-.1.59-.13.91a.56.56,0,0,1-.22-.41Zm1.56-9.2h-.31v-.09h.31Zm1.47,1h-.1v-.31h.1Zm1,.22H22V57h.31Zm7.7.4h-.15V56.8H30Zm.62.94h-.09v-.31h.09Zm2.68-1c-.21.22-.28.34-.31.34a1.09,1.09,0,0,1-.25-.06.44.44,0,0,0-.15.1h0c-.06.09-.16.15-.22.25l-.09-.1c.09-.06.15-.15.25-.22s.09,0,.12-.06h-.09a2.588,2.588,0,0,0,.76-.21Zm1.16-.34h-.31V57h.31Zm.62-.94h-.31V56h.31Zm.9,1.85c-.22.44-.4.84-.62,1.28.28.12.47.19.72.28l-.66.59c-.34-.15-.56-.31-.84-.4a4.29,4.29,0,0,0-1-.22c-.25.47-.59.06-.87-.06-.25.18-.37.46-.75.59.07-1,.81-1,1.34-1.25a2.45,2.45,0,0,1,.81,0,4.73,4.73,0,0,1,.13.6c.31,0,.59-.07,1.09-.1-.47-.56-.78-1-1.12-1.37.37-.28.71-.59,1.18-1A6.83,6.83,0,0,1,36,57.93Zm1.25-2h-.09v-.32h.09Zm3.55.59c-.15.78-.78.65-1,.71-.38.47-.66.75-.88,1.06-.06.1,0,.28,0,.53h1.31c-.25.28-.37.41-.5.53H38a9.54,9.54,0,0,0,.31-1.77l-.94.47v.56a1.52,1.52,0,0,0-.49.49l.49.1v.19a1.734,1.734,0,0,1-.59-.07v-.25h0c-.09-.06-.22-.09-.31-.15.19-.53.37-1,.56-1.69-.31-.06-.59-.09-.87-.12a.51.51,0,0,1,.4-.22h.16a.8.8,0,0,1,.37.06v.22h0c.75-.12.5-.84.78-1.28.19.07.31.1.53.16-.15.28-.28.53-.4.81a5.11,5.11,0,0,0,.4.72c.44-.59.87-1.16,1.34-1.75q.526.31,1.02.67Zm.94,1.4c-.31.19-.6.31-.91.47-.15-.22-.31-.47-.56-.87.59.13.99.26,1.43.38Zm-.31.9a2.73,2.73,0,0,0-.13.53.29.29,0,0,0-.16,0v-.53a1.17,1.17,0,0,1,.25-.02Zm1.8,1.34-1,.47c-.18-.31-.74-.47-.34-1,.1.06.19.15.56,0,.38-.4.31-.49.22-.59h0c-.09-.06-.16-.15-.25-.21l.09-.1c.07.1.16.16.22.25a1.34,1.34,0,0,0,.28.34,5.92,5.92,0,0,1-.53.28,1.48,1.48,0,0,1-.28.28c.38-.18.69-.34,1.09-.56Zm.35.88c-.1.06-.16.15-.25.21h0v.53H42.16c.44-.21.75-.4,1.06-.56h0a2.62,2.62,0,0,0,.22-.25.36.36,0,0,0,.1.03Zm.62-2.12h-.31v-.1h.31ZM44.38,60h-.1v-.31h.1Zm1.37-.28a4,4,0,0,0,0,.59h0c.09.06.15.15.25.22l-.1.09c-.06-.09-.15-.16-.21-.25h-.81a6.339,6.339,0,0,1,.87-.59c-.06,0-.06-.07-.06-.07a2.252,2.252,0,0,0,.21-.24l.1.09a2.62,2.62,0,0,0-.25.22Zm2.37,3.08L47,62c.25-.09.44-.15.6-.22V61c.05.58.95,1.05.52,1.76Zm.31,1.59-.5-.09c.16-.31.28-.59.5-1.06Zm-.34,2.46v.31H48v-.31Zm1.65-4.48c-.31.06-.25.68-.94.28.28-.22.5-.38.75-.56ZM49,68.65V69h-.09v-.31ZM49.33,64v.31h-.09V64Zm.44,1.12h-.31V65h.31Zm.87-1.81a.89.89,0,0,0-.28,0,5.11,5.11,0,0,0,.13-.53.27.27,0,0,0,.15,0ZM51.89,69v.28a2.826,2.826,0,0,1-.5-.13c-.15-.03,0-.09,0-.15Zm.93,6.35c.06-.4.1-.78.13-1.15a4.21,4.21,0,0,1,.18,2l-1-.6a3.24,3.24,0,0,0,.69-.22Zm0-7H52.7V68h.09Zm.56,3.18a5.57,5.57,0,0,1-.22,1.25,9.3,9.3,0,0,1-.06,1.24l-.59-.59a2.48,2.48,0,0,0,.06-2.62,1.259,1.259,0,0,0,.13-.25c.03-.1.21,0,.34,0a2.21,2.21,0,0,1,.31.96Zm1.09,1.06h-.31V72.5h.31Zm0,.56a3.026,3.026,0,0,1-.12.5h-.16v-.53a.56.56,0,0,1,.28.02Zm-.12.81v.93h-.16V74Zm.09,5.39h.31v.09h-.31Zm.07-.4V77.41c.03.5.49,1.03,0,1.53Zm-1.84-2.09c.31-.13.71-.25,1.18-.44a2.42,2.42,0,0,0-.22-.25h0l.75-.74a6.394,6.394,0,0,0,.25.59c-.5.31-.06.65,0,1a8.7,8.7,0,0,0-1.24.13V79a3.54,3.54,0,0,1-.5-.44,9.1,9.1,0,0,0-.22-1.71Zm-.72.59h.62v.16H52ZM51.2,74c-.06-.53-.12-1.06-.19-1.65l.63.12a7,7,0,0,0,0,2.15c.19.63-.25,1.28.28,1.81-.19.31-.34.63-.5.94.09-1-.75-2-.15-3C51.36,74.29,51.23,74.14,51.2,74Zm-.15-2.43h.65a4.74,4.74,0,0,0-.12.56c-.22-.06-.41-.09-.57-.12a1.64,1.64,0,0,1,.04-.46Zm-.07-5c-.09-.06-.15-.15-.25-.22l.1-.09c.06.09.15.16.22.25a.881.881,0,0,0,.25.22l-.1.09c-.09-.13-.15-.22-.2-.29Zm-.31-1.27h0a2.59,2.59,0,0,0-.59-.1c0-.06.06-.09.09-.15s.25,0,.63-.16h-.1c.19-.06.38-.13.75-.22-.22.22-.28.34-.31.34l-.28-.09a.36.36,0,0,1-.13.09,1.88,1.88,0,0,0-.06.32Zm-.59,4.45v.1h-.31v-.1Zm-.81,2.74c.53-.34-.06-1.09.31-1.62a1.9,1.9,0,0,1,.56.07c-.31.62.38,1.15-.06,1.74a2.51,2.51,0,0,1,.25,1.84,4,4,0,0,1-.44.4c-.22-.85-.4-1.62-.62-2.47ZM47.68,71.3c.22-.59.44-1.15.62-1.68h1.13c-.35.56-.66,1.09-1,1.56.19.25.28.4.44.59-.22.34-.44.65-.66,1-.12,0-.22-.1-.34-.13a5.77,5.77,0,0,0,0-.72C47.84,71.71,47.71,71.49,47.68,71.3Zm0-2.34v-.31h.1V69Zm-.09-3.67a.89.89,0,0,0,.28,0c-.06.25-.09.53-.13.81h-.15Zm-.16-.66-.5-.12v-.16h.53a.48.48,0,0,1,0,.28Zm-.62,5.24H47c.07-.06.13-.16.19-.22l.09.09A2.619,2.619,0,0,1,47,70a.107.107,0,0,0-.09.06c-.03.06.09.31.16.47s.15.37.34.9c0-.06-.09-.09-.12-.12-.61-.54-.89-.88-.45-1.44Zm-.06-4.61v-.32h.09v.32Zm-.25-3.68c-.47,0-.94-.19-1.28.28-.34-.25-.72-.47-1.06-.75-.06-.06,0-.28,0-.5.19.1.31.25.47.25s.25-.12.37-.22a5.061,5.061,0,0,1,.16.59,7.209,7.209,0,0,0,.93,0A9,9,0,0,0,47,61c-.1.28-.13.4-.16.49s-.16,0-.22,0-.03.03-.09.09Zm-1.75,8.13h.31v.09h-.31ZM44.56,69h.1v.32h-.1Zm-.81-.81a7.11,7.11,0,0,0,.25-.87c-.46-1.15-.9-2.34-1.37-3.52.19-.31.41-.66.59-1a6.229,6.229,0,0,0,1.09-.06,4.89,4.89,0,0,0,.22-.59,1,1,0,0,0,.35.28,2.8,2.8,0,0,0,1,0H46c.06-.09.15-.16.21-.25l.1.09c-.1.07-.16.16-.25.22a.11.11,0,0,0-.09,0c.15,1.81.31,3.62.46,5.49-.75.21-1.43.43-2.15.65-.12-.1-.28-.26-.53-.48Zm-6,2.68h.09v.32h-.09ZM37,66.69c-.19-.41-.9-.53-.5-1.15.13.12.25.21.34.31.07-.07.13-.19.22-.22a12.56,12.56,0,0,0,2.71-1,2,2,0,0,1,2.87.5c-.47.94,1,2-.06,2.9a5.06,5.06,0,0,1,.4.69A1.39,1.39,0,0,0,43,69l.46.1v.18a2.008,2.008,0,0,1-.59-.06,1.54,1.54,0,0,0,0-.37c-.65.4-1.18.78-1.71,1.12a3.4,3.4,0,0,1-2.43.9A5,5,0,0,1,37,66.69Zm1.34-2.18h-.09a5.5,5.5,0,0,1,.74-.22c-.21.22-.28.34-.31.34a1.09,1.09,0,0,1-.25-.06.66.66,0,0,0-.15.09h0c-.06.1-.16.16-.22.25L38,64.82c.09-.06.15-.16.25-.22s.05-.06.05-.09ZM35,65.5c1,1.47,1.09,3.25,1.68,5-1.37.84-3,1-4.27,1.87-.22.16-.59,0-.62,0-.57-.44-.91-.72-1.38-1.09-.09-1.28-.21-2.68-.34-4,.28-.25.44-.47.59-.5a19.522,19.522,0,0,0,2.5-.37C33.75,66.25,34.75,66.69,35,65.5Zm-4.15-4.08c.59-.43,1.09-.81,1.56-1.18.75.18,1.53.65,2.09.5.78-.22,1.59.12,2.24-.19a8.66,8.66,0,0,1,2.68-.31,3.16,3.16,0,0,0,.28-.53h1.15c.66.78.07,1.84.41,2.71a3.7,3.7,0,0,0,.56,0c.34-.28.34-.28.87,0a8.741,8.741,0,0,0-.93,0c-.06.59-.63.12-.84.37A4.47,4.47,0,0,1,38.11,64c-.34.69-.93-.22-1.31.22-.4-.59-.68.06-1,.06v.47c.15-.1.28.06.56.4h-1l.31-.62a.43.43,0,0,1-.18-.06.67.67,0,0,1,.25-.22c-.13-.22-.28-.41-.44-.66h-2c-.12-.49-.28-.84-.84-.93s-.62-.19-1.09-1.06a1.23,1.23,0,0,0-.22-.09l-.31.31c-.02-.15-.08-.34-.02-.4Zm-.31-2.68H31c-.13.22-.25.44-.5.91ZM20.6,62c-.72-1.12-1.34-2.12-2-3.21a6.469,6.469,0,0,1,1.4-.64c.49-.09,1,0,1.52-.06a9.769,9.769,0,0,1,1.28-.28c.44,0,1.06.34,1.34.15.59-.4.94,0,1.15.07a8.26,8.26,0,0,0,2.34-.41c.9-.44,1.47.31,2.12.28a24.07,24.07,0,0,0,.5,4.11A3.5,3.5,0,0,1,30,64.79c-.66-.78-1.72-.31-2.5-1.09-.28,0-.65.12-.87,0-1.24-.85-2.86-.85-4.08-1.81A1.34,1.34,0,0,0,20.6,62Zm-.28,3.59a6,6,0,0,0-.75,0,3,3,0,0,0-.62.28c-.1-.66.28-.81.71-.94Zm0-1.87v-.31h.09v.31Zm.15.87c.07-.25.1-.41.13-.56l1.06.56Zm.38,1.09a3.069,3.069,0,0,1-.13.5h-.15V65.6a1.81,1.81,0,0,0,.25.06ZM22,68.4v.53h-.28a3.287,3.287,0,0,1,.12-.5Zm-.12-1.9v-.31h.09v.31ZM22,67v-.09h.31V67Zm.19,2.59v.31H22.1v-.31Zm.44.84h-.32v-.1h.32Zm.18,1.68L22.38,72v-.56c.68-.01.68.27.46.67Zm.47-5.23a3.13,3.13,0,0,0-.12.53.25.25,0,0,0-.16,0v-.53a.55.55,0,0,0,.31,0Zm.5,5.82h-.09v-.31h.09Zm1.06-2.4a3.71,3.71,0,0,0-.13.53.27.27,0,0,0-.15,0V70.3a1.064,1.064,0,0,1,.31,0Zm.53,2.53V73h-.84a.86.86,0,0,0,0-.28,6.53,6.53,0,0,1,.87.11Zm.37,1.62h-.31v-.1h.31Zm.31,2.18a1.12,1.12,0,0,1-.15.19l-.81-.47.18-.25a2.11,2.11,0,0,1,.47.19,1.43,1.43,0,0,1,.34.34Zm1,2.49c.09-.06.16-.15.25-.22a1.3,1.3,0,0,0,.34-.28h0c.06-.09.16-.15.22-.25l.09.1c-.09.06-.15.15-.25.22a1.3,1.3,0,0,0-.34.28h0c-.06.09-.15.15-.22.25Zm-.69-.9.1-.5c.31.16.59.28,1.06.5Zm-1.55-1h1c-.09.28-.22.56-.37,1l.68.28-.12.4-.75-.37a10.037,10.037,0,0,0-.44-1.34Zm.12-3.43.16-.15a2.14,2.14,0,0,1,.09.28c-.16.25-.31.5-.47.71l-.06-.06a.059.059,0,0,1-.06-.06c-.22-.4.12-.51.34-.75Zm-1-2.05c.13-.22.25-.41.41-.66.37.81,0,.72-.34.63Zm-.59,6h.1V78h-.1Zm-.09-1.37v-.78a6.44,6.44,0,0,0,.94.31l-.07-.06c.07-.1.16-.16.22-.25l.09.09c-.09.1-.18.16-.15.31-.35.01-.35.67-1,.33Zm-1.5.43h.16v.63h-.16Zm-.4-.62L21.16,76a.75.75,0,0,1,.25-.22.41.41,0,0,0,.12-.09.19.19,0,0,0-.12-.07c.19-.06.37-.12.75-.21-.22.21-.28.34-.31.34a.55.55,0,0,1-.22-.06l-.22.12v.28h0c.09.06.16.16.25.22l-.09.09a2.619,2.619,0,0,1-.22-.25Zm-.28-3,1-.44c.6.38,1.22.75,1.84,1.16-.5.12-1,.21-1.46.31-.13-.19-.35-.53-.56-.87-.22.43-.38.77-.53,1.09.15.21.28.34.43.56.22,0,.5-.1.53.25a.65.65,0,0,1,.1.15s0-.09,0-.12c.06.18.12.37.22.75-.22-.22-.35-.29-.35-.32s.07-.21.1-.31a.42.42,0,0,1-.1-.12,1.52,1.52,0,0,0-.37,0,.33.33,0,0,1-.22-.31,1.545,1.545,0,0,1-.59-.07c.02-.66.02-1.22-.01-1.75Zm0-.94h.31v.1H21.1Zm.12-2.92V69h.1v.32Zm-.37,1.62a.89.89,0,0,0,.28,0,4.56,4.56,0,0,0-.13.53.27.27,0,0,0-.15,0ZM20.79,70h.31v.1h-.31Zm-.94,1.87h.31V72h-.31Zm-.5-2.58c-.31-.56.13-.69.38-.94.27.55-.13.65-.38.96Zm-.31.34h.5a6.271,6.271,0,0,1-.13.81,5.382,5.382,0,0,0-.41-.79Zm-.4-3.05.09-.1a2.62,2.62,0,0,0,.22.25h.5c.09.25.15.44.18.56.56-.4,1.12-.77,1.69-1.15l.15.16c-.25.46-.5.93-.78,1.4-.15-.16-.28-.25-.34-.31-.34.18-.69.34-1,.53-.12-.41-.28-.81-.4-1.22h0l-.07.06Zm-.66,4h.62v.15H18Zm-.31-.91H18v.09h-.31Zm0-5.83h-.31v-.09h.31Zm-.09,1.06v.63h-.16V64.9ZM17.33,67a3.026,3.026,0,0,1,.12-.5h.16v.53A.88.88,0,0,1,17.33,67Zm-.53,2.87v-.28l.5.12v.16Zm-.31-4h.15v.62h-.15ZM16.2,61.2h.1v.32h-.1Zm2.5,15.87h.09v.31H18.7ZM13.21,69.9h-.09v-.31h.09Zm0,1.56h-.09v-.31h.09Zm.38.62c.34-.47.59-.84.87-1.22C14.52,71.8,14.52,71.8,13.59,72.08Zm1.27,1.71c-.4.28-.77.5-1.21.78-.06-.74.5-.87.75-1.24.15.18.28.28.46.46Zm-.12,1.41v.31h-.09V75.2Zm1,.93h-.16v-.62h.16Zm1.49,1.75c.25-.35.44-.56.72-1V78Zm-.59.37h-.87c.09-.28.15-.5.25-.78a2.81,2.81,0,0,1-.19-.53,2.219,2.219,0,0,1,.16-.19c.09.1.21.19.31.29.34-.35.65-.69,1-1a2.91,2.91,0,0,1,.6-.25c-.82.68-.85,1.68-1.29,2.46Zm-1.68.65c.31,0,.59.07,1.06.1-.47.25-.75.37-1.06.53Zm-.35-1.65c.07-.15.57-.12,1-.18-.22.53-.37.87-.56,1.24-.5-.31-.65-.71-.47-1.06Zm-1,1.94a2.237,2.237,0,0,1,.09-.72l1,.72Zm-.28-2.12h.5v1.15c-.21-.53-.34-.81-.49-1.15Zm-.25-1.56h.09v.31h-.09ZM12.81,73c.22.44.37.78.71,1.44C12.68,74,12.56,73.58,12.81,73Zm-.75.81-.44.5-.4-.4c.09-.19.22-.38.34-.6a1.77,1.77,0,0,0,.5.45Zm.34-.93c-.56.18-.84.12-.65-.22a5.549,5.549,0,0,1,.65.17Zm.07,4.55h.09v.31h-.09ZM12,76.94a3.287,3.287,0,0,1,.12-.5h.16V77a.48.48,0,0,1-.28-.06Zm-.5-1.59.94.69c-.66-.04-.66-.04-.91-.69Zm-.69,3.8c.44-.18.66-.31.81-.37v.5a6.77,6.77,0,0,0-.78-.13ZM9.16,70.83H9.07v-.31h.09ZM9.88,79h.31v.09H9.88Zm-.31-4h.31v.09H9.57ZM9,77.38h.09v.31H9Zm0-1.56h.09v.31H9Zm-.1-2.93v-.16h.6v.28a4.8,4.8,0,0,1-.56-.12ZM8.63,79h.31v.09H8.63Zm-.87-3.8a.89.89,0,0,0,.28,0,3.37,3.37,0,0,0-.12.53.32.32,0,0,0-.16,0Zm-.28,3.39h.09v.32H7.48Zm-.31-1.55h.09v.31H7.17Z" transform="translate(-2.751 -32.75)" fill="#1f7762"/>
  <path id="Trazado_24337" data-name="Trazado 24337" d="M46.84,69.8a.231.231,0,0,0,.06.19c.06.06.06,0,.09-.06l-.06-.06h0a.18.18,0,0,1-.09-.07Z" transform="translate(-2.751 -32.75)" fill="#1f7762"/>
  <path id="Trazado_24338" data-name="Trazado 24338" d="M45.75,59.68Z" transform="translate(-2.751 -32.75)" fill="#1f7762"/>
  <path id="Trazado_24339" data-name="Trazado 24339" d="M46,62.42h0a.11.11,0,0,0,.09,0Z" transform="translate(-2.751 -32.75)" fill="#1f7762"/>
  <path id="Trazado_24340" data-name="Trazado 24340" d="M42.38,59.61a5.918,5.918,0,0,0,.53-.28L42.6,59h0C42.69,59.12,42.76,59.21,42.38,59.61Z" transform="translate(-2.751 -32.75)" fill="#1f7762"/>
  <path id="Trazado_24341" data-name="Trazado 24341" d="M43,68.78a.107.107,0,0,0-.09.06,1.477,1.477,0,0,0,0,.37v-.28L43,69A.45.45,0,0,1,43,68.78Z" transform="translate(-2.751 -32.75)" fill="#1f7762"/>
  <path id="Trazado_24342" data-name="Trazado 24342" d="M38.39,64.57h-.06c-.06,0-.06,0-.12.06h0C38.3,64.6,38.33,64.57,38.39,64.57Z" transform="translate(-2.751 -32.75)" fill="#1f7762"/>
  <path id="Trazado_24343" data-name="Trazado 24343" d="M42.63,59a1.34,1.34,0,0,0,.28.34,1.34,1.34,0,0,1-.28-.34Z" transform="translate(-2.751 -32.75)" fill="#1f7762"/>
  <path id="Trazado_24344" data-name="Trazado 24344" d="M21.1,47.21c.5-.44.46-1.12.93-1.56-.47.44-.47,1.12-1,1.5C21.07,47.18,21.1,47.18,21.1,47.21Z" transform="translate(-2.751 -32.75)" fill="#1f7762"/>
  <path id="Trazado_24345" data-name="Trazado 24345" d="M24.25,53.72a.94.94,0,0,1,.34,0A.94.94,0,0,0,24.25,53.72Z" transform="translate(-2.751 -32.75)" fill="#1f7762"/>
  <path id="Trazado_24346" data-name="Trazado 24346" d="M19.63,77.94a4.611,4.611,0,0,1,.53.19,4.611,4.611,0,0,0-.53-.19c-.18-.47-.4-.94-.59-1.4C19.23,77,19.45,77.44,19.63,77.94Z" transform="translate(-2.751 -32.75)" fill="#1f7762"/>
  <path id="Trazado_24347" data-name="Trazado 24347" d="M43.22,42.19a3.73,3.73,0,0,0-.28.66A3.73,3.73,0,0,1,43.22,42.19Z" transform="translate(-2.751 -32.75)" fill="#1f7762"/>
  <path id="Trazado_24348" data-name="Trazado 24348" d="M14.37,68.53a.286.286,0,0,0,.06.22.73.73,0,0,0-.06-.22Z" transform="translate(-2.751 -32.75)" fill="#1f7762"/>
  <path id="Trazado_24349" data-name="Trazado 24349" d="M42.88,43v.25a.61.61,0,0,0,0-.25Z" transform="translate(-2.751 -32.75)" fill="#1f7762"/>
  <path id="Trazado_24350" data-name="Trazado 24350" d="M21.94,45.4a7.15,7.15,0,0,0-.69.35C21.41,45.65,21.69,45.53,21.94,45.4Z" transform="translate(-2.751 -32.75)" fill="#1f7762"/>
  <path id="Trazado_24351" data-name="Trazado 24351" d="M22.09,53.94a2.13,2.13,0,0,0,.16-.25,2.558,2.558,0,0,0-.16.25l.16.16a1.21,1.21,0,0,1-.16-.16Z" transform="translate(-2.751 -32.75)" fill="#1f7762"/>
  <path id="Trazado_24352" data-name="Trazado 24352" d="M31.57,57.5c.22.28.53.46.43.9h0C32.1,58,31.79,57.78,31.57,57.5Z" transform="translate(-2.751 -32.75)" fill="#1f7762"/>
  <path id="Trazado_24353" data-name="Trazado 24353" d="M19.54,52.2a1,1,0,0,1-.22.68A1,1,0,0,0,19.54,52.2Z" transform="translate(-2.751 -32.75)" fill="#1f7762"/>
  <path id="Trazado_24354" data-name="Trazado 24354" d="M23.9,53.72h-.15c-.25-.24-.53-.49-.78-.77l.78.77a.11.11,0,0,0,.15,0Z" transform="translate(-2.751 -32.75)" fill="#1f7762"/>
  <path id="Trazado_24355" data-name="Trazado 24355" d="M40.17,43c.09.43.59.65.87,1.05h0C40.76,43.69,40.26,43.47,40.17,43Z" transform="translate(-2.751 -32.75)" fill="#1f7762"/>
  <path id="Trazado_24356" data-name="Trazado 24356" d="M44.19,71.27h0a8.74,8.74,0,0,1,1.53,1.56,7.83,7.83,0,0,0-1.53-1.56Z" transform="translate(-2.751 -32.75)" fill="#1f7762"/>
  <path id="Trazado_24357" data-name="Trazado 24357" d="M38.55,49.08c.47.13.93.28,1.37.44C39.48,49.36,39.02,49.24,38.55,49.08Z" transform="translate(-2.751 -32.75)" fill="#1f7762"/>
  <path id="Trazado_24358" data-name="Trazado 24358" d="M29.51,51.23v.06a5.69,5.69,0,0,1,.66.28,5.169,5.169,0,0,1-.66-.34Z" transform="translate(-2.751 -32.75)" fill="#1f7762"/>
  <path id="Trazado_24359" data-name="Trazado 24359" d="M41.85,70.55h0l.44.44h0a3.05,3.05,0,0,1-.44-.44Z" transform="translate(-2.751 -32.75)" fill="#1f7762"/>
  <path id="Trazado_24360" data-name="Trazado 24360" d="M18.6,53.1a6.52,6.52,0,0,1,0,.78,7,7,0,0,1,0-.78Z" transform="translate(-2.751 -32.75)" fill="#1f7762"/>
  <path id="Trazado_24361" data-name="Trazado 24361" d="M13.59,67.44h0c.15-.56.56-.66,1.09-.63a.91.91,0,0,0-1.09.63Z" transform="translate(-2.751 -32.75)" fill="#1f7762"/>
  <path id="Trazado_24362" data-name="Trazado 24362" d="M21,47c-.18-.37-.59-.59-.9-.93A6,6,0,0,1,21,47Z" transform="translate(-2.751 -32.75)" fill="#1f7762"/>
  <path id="Trazado_24363" data-name="Trazado 24363" d="M42.48,72.73a1.85,1.85,0,0,1-.19-1h-.9a10.22,10.22,0,0,0,1.27,2.77,5.09,5.09,0,0,1,.84,1.81,1,1,0,0,0,.63.72,5.5,5.5,0,0,0-.66-2.34,11,11,0,0,0-.99-1.96Z" transform="translate(-2.751 -32.75)" fill="#1f7762"/>
  <path id="Trazado_24364" data-name="Trazado 24364" d="M44.13,77.07h0a5.8,5.8,0,0,0-.69-2.37A5.13,5.13,0,0,1,44.13,77.07Z" transform="translate(-2.751 -32.75)" fill="#1f7762"/>
  <path id="Trazado_24365" data-name="Trazado 24365" d="M30.23,52.76,31.38,52a2.24,2.24,0,0,0-.15-.5l-1.5.78Z" transform="translate(-2.751 -32.75)" fill="#1f7762"/>
  <path id="Trazado_24366" data-name="Trazado 24366" d="M32.35,50.58h0a.66.66,0,0,0,.62-.13.93.93,0,0,0,.31-.56C32.57,49.7,32.57,49.7,32.35,50.58Z" transform="translate(-2.751 -32.75)" fill="#1f7762"/>
  <path id="Trazado_24367" data-name="Trazado 24367" d="M32.32,50.64h0a.77.77,0,0,0,.62-.16.73.73,0,0,1-.62.16Z" transform="translate(-2.751 -32.75)" fill="#1f7762"/>
  <path id="Trazado_24368" data-name="Trazado 24368" d="M45.5,79.47c-.22-.44-.41-.78-.69-1.38v1.47Z" transform="translate(-2.751 -32.75)" fill="#1f7762"/>
  <path id="Trazado_24369" data-name="Trazado 24369" d="M32.32,50.64a4.871,4.871,0,0,0-.63,0,3.32,3.32,0,0,1,0,.53,2.041,2.041,0,0,1,.59.06,3.91,3.91,0,0,0,.07-.62Z" transform="translate(-2.751 -32.75)" fill="#1f7762"/>
  <path id="Trazado_24370" data-name="Trazado 24370" d="M32.32,50.64h0a4,4,0,0,0-.6,0,4.229,4.229,0,0,1,.6,0Z" transform="translate(-2.751 -32.75)" fill="#1f7762"/>
  <path id="Trazado_24371" data-name="Trazado 24371" d="M48.24,76.79v.87C48.52,77.16,48.52,77.16,48.24,76.79Z" transform="translate(-2.751 -32.75)" fill="#1f7762"/>
  <path id="Trazado_24372" data-name="Trazado 24372" d="M14.86,60.89v-.62c-.09.12-.21.25-.31.37C14.65,60.74,14.77,60.8,14.86,60.89Z" transform="translate(-2.751 -32.75)" fill="#1f7762"/>
  <path id="Trazado_24373" data-name="Trazado 24373" d="M44.16,77.07a.73.73,0,0,0,.19.28l.09-.1a.9.9,0,0,0-.28-.18Z" transform="translate(-2.751 -32.75)" fill="#1f7762"/>
  <path id="Trazado_24374" data-name="Trazado 24374" d="M44.16,77.07h0a2.534,2.534,0,0,1,.22.25c-.07-.1-.16-.16-.19-.28Z" transform="translate(-2.751 -32.75)" fill="#1f7762"/>
  <path id="Trazado_24375" data-name="Trazado 24375" d="M29.2,58.21h-.31v.1h.31Z" transform="translate(-2.751 -32.75)" fill="#1f7762"/>
</svg>
