<svg id="Calavera_mandocas" xmlns="http://www.w3.org/2000/svg" width="46.83" height="76.231" viewBox="0 0 46.83 76.231">
  <path id="Trazado_24185" data-name="Trazado 24185" d="M25.56,15l-.21-.1a3.47,3.47,0,0,1-.23.37.3.3,0,0,1,.23,0c0-.06,0-.17,0-.23a.57.57,0,0,1,.21-.04Z" transform="translate(-5.5 -9.049)" fill="#1f7762"/>
  <path id="Trazado_24186" data-name="Trazado 24186" d="M33.29,51.94a.11.11,0,0,0,.1,0v-.17Z" transform="translate(-5.5 -9.049)" fill="#1f7762"/>
  <path id="Trazado_24187" data-name="Trazado 24187" d="M42.45,53.26h.14a2.07,2.07,0,0,1-.27-.41,1,1,0,0,1-.18.41,1.48,1.48,0,0,1,.31.38Z" transform="translate(-5.5 -9.049)" fill="#1f7762"/>
  <path id="Trazado_24188" data-name="Trazado 24188" d="M38.13,33.71h.2a.44.44,0,0,1-.2,0Z" transform="translate(-5.5 -9.049)" fill="#1f7762"/>
  <path id="Trazado_24189" data-name="Trazado 24189" d="M42.93,58.92h.2c-.1,0-.17,0-.2-.07Z" transform="translate(-5.5 -9.049)" fill="#1f7762"/>
  <path id="Trazado_24190" data-name="Trazado 24190" d="M38.36,35.14a2.09,2.09,0,0,1,.31.24,1.19,1.19,0,0,0-.31-.24Z" transform="translate(-5.5 -9.049)" fill="#1f7762"/>
  <path id="Trazado_24191" data-name="Trazado 24191" d="M50,81.16c.1-.17.2-.38.31-.55-.21-.24-.45-.47-.69-.75a4.71,4.71,0,0,1-.17.48c-.92,0-1.56-.65-2.48-.82V78.6l-.81-.81a6.08,6.08,0,0,1-.79-.82A4.12,4.12,0,0,1,45,76c-.1-.34-.17-.68-.27-1l.31-.51c-.14-.17-.24-.27-.28-.27.07-.31.28-.65.17-.79a2.81,2.81,0,0,1-.23-1.73v-5a5,5,0,0,0-.17-.88l.47-.48v-2c-.65-.45-.1-1.2-.51-1.78s.07-1.29-.27-2c-.27-.54,0-1.29-.07-2a4.64,4.64,0,0,0-.27-2.15,2.67,2.67,0,0,1-.27-1.29c0-.95,0-1.91,0-2.83a20.231,20.231,0,0,0-.31-2.65c.62-.82,1.84-1,2-2.08s.65-1.94.24-2.9c-.34-.1-.61-.2-1-.3-1.26.75-2.25,2.14-4,2.38-.51-.71-.31-1.57-.34-2.52.2.2.3.27.4.37a2.55,2.55,0,0,0,.41-.34,10.7,10.7,0,0,1,.85.69,3.41,3.41,0,0,0,0-.62h0l-.65-.58c.21-.24.34-.37.48-.51l1.33-.1v-.37c-.21-.11-.41-.24-.68-.38a4.53,4.53,0,0,1,2.35-1.57v-.68c-.21-.07-.38-.13-.65-.2.24-.58.48-1.09.68-1.64-.1-.13-.17-.27-.24-.37.51-.72.82-1.36.21-2.11.71-1.09,0-2-.28-2.93a3,3,0,0,0,.28-.48c.44-1.09.27-2.31.51-3.47A13.359,13.359,0,0,1,45.58,26a1.15,1.15,0,0,0,0-1.16,2.21,2.21,0,0,1-.17-.55c-.51-.44-.88-.78-1.29-1.12h-1.7c-.21.17-.38.37-.62.58h-1c-.17.24-.44.54-.68.85H39.3c-.44-.31-.75-.51-1-.68a7.46,7.46,0,0,0,.62-3.31c.27-.37.51-.71.71-1.05.44-.17.89-.34,1.33-.55a14.07,14.07,0,0,0,1.29-.64,2.64,2.64,0,0,0,.85-.65,7.77,7.77,0,0,0,1.2-3.34,2.61,2.61,0,0,0-.45-1.94A6.29,6.29,0,0,0,41.4,9.87c-.28,0-.28.41-.52.21l-.1-.45c-1.53-.06-2.89-.81-4.53-.51A13.47,13.47,0,0,0,32,10.62c-.34,1.3-.41,2.73-1.57,3.82-.61-.48-1.12.61-1.87.1s-1.36.54-2.28,0c-.24-.23-.68-.71-1.13-1.12a4,4,0,0,0-.71-.37,1,1,0,0,0-.21.2,4.32,4.32,0,0,0-2.65-.48l-.21,1.13c-1.09-.34-1-1.43-1.63-1.94-.48-.11-.89-.21-1.33-.28l-.14.14-.13.14a2.28,2.28,0,0,1,.17.4v.14a3.06,3.06,0,0,1-.07.82c-2-.75-3.2-1-4.22-.72a2.22,2.22,0,0,0,.14.41h2.41v.85c-.91-.17-1.8-.34-2.79-.51l-.65.65c-.64-.34-1.26-.65-1.94-1a1.46,1.46,0,0,1,0-.17l1.87.14c0-.07-.1-.17-.14-.24.17-.07.38-.1.55-.17-.85-.14-1.6-.24-2.35-.44A9.59,9.59,0,0,0,9,11.68c-.71,0-1.43.34-2-.21-.34.21-.58.34-.82.48a5.47,5.47,0,0,0,.1.61l.58.17c-.88.51-.1,1-.07,1.3s-.41.3-.17.54a4.86,4.86,0,0,0,1.74-.24,8.06,8.06,0,0,1,1.77,0c.07-.24.14-.41.21-.61a6.71,6.71,0,0,1,.3.64,1.5,1.5,0,0,1,1.36,0,14.371,14.371,0,0,0,1.74,0A9.78,9.78,0,0,1,18,15c.21.88.38,1.8.58,2.69a.56.56,0,0,1-.2.06c-.55-.75-1.09-1.53-1.64-2.28A7.78,7.78,0,0,0,18,19.07a3.05,3.05,0,0,1,.31.85c.1.44.07,1,.3,1.26.45.44,0,1,.41,1.4s-.13,1,.41,1.26c.34,1.53.65,3,1,4.66,1.47,1,1.6,1.06,3.92.34a.61.61,0,0,0-.54-.34.611.611,0,0,1-.58-.27.38.38,0,0,1,0-.2c.31-.38.82-.41,1.26-.58a1.29,1.29,0,0,0,.68-.65c-1.19.27-2-.58-3-.72s-1.29-.81-1.6-1.56c-.24-.58-.31-1.19-.51-1.77-.38-1.16-.72-2.35-1.16-3.48-.07-.17,0-.41.1-.95.34.75.55,1.19.75,1.63.31.62.24,1.37.85,1.84a14.68,14.68,0,0,0-.81-2.93,4.43,4.43,0,0,0-.34-1.12c-.31-.48-.92-.85-.28-1.5-.06-1.84-.06-1.91.51-3q.36,1.18.72,2.25c.44.1.92-.13,1.16.24.3-.1.61-.17.88-.24a4.14,4.14,0,0,1,.72,2.9c-.1.51.2.88.3,1.29a5.93,5.93,0,0,0,1.09,2.66,4.2,4.2,0,0,1,.58,1.16c.28.61.48,1.22.82,2v.95l-.68.24c.41.07.68.14.82.17.27.38.47.68.68,1l-1.06.51a1.22,1.22,0,0,1,.07.17c.61-.1,1.19-.24,1.74-.31.24.24.41.55.58.58a2.27,2.27,0,0,1,1.67,1.67,2.32,2.32,0,0,0,1.39,1.4l.62.27a4.93,4.93,0,0,1,.64-.24,7.2,7.2,0,0,1,.21,1.74,2.37,2.37,0,0,0,0,1.7c.34.58-.1,1.23.34,1.84A5.07,5.07,0,0,1,33.46,39l.54.55a6.19,6.19,0,0,0,1.26.37,9.34,9.34,0,0,0,1.4,0c.24.45.44.89.61,1.23.14,1.7.24,3.34.38,5.18l-2-.62c.41-.3.65-.44.86-.61-.14-.31-.28-.61-.45-1-.47-.11-.95-.21-1.6-.38v1.3c-.44-.14-.71-.28-1.16-.41a4.46,4.46,0,0,1,.14.71c.14.68.27,1.26.37,1.88a1.9,1.9,0,0,0-.23.27c.23.17.44.34.68.51-.14.48-.28.92-.34,1.22l-1.57,2.32c-.48.75-.92,1.5-1.4,2.25S30,55.27,29.51,56c-.38.24-.78.51-1,.65-.62.89-1.13,1.63-1.57,2.35a1.69,1.69,0,0,1,.07,1.6c-.1.27-.24.75-.1.92.41.48.23,1,.23,1.46v4.23a5.48,5.48,0,0,0,.07,2.11,2.61,2.61,0,0,1,0,1.91s0,.1,0,.13c.54.75.17,1.6.24,2.08-.41.89-.65,1.5-.89,2a12.791,12.791,0,0,1-2,.34,3.36,3.36,0,0,0-1.67.48,3.88,3.88,0,0,1-1.56.65,21.72,21.72,0,0,0-3,.27,2.79,2.79,0,0,0-1.53.68,10.09,10.09,0,0,1,.3,1l2.12.27a4.229,4.229,0,0,0,.44-.2c.3-.21.54.51.95,0,.17-.2.72,0,1.09,0,1.43,0,2.83.47,4.29.27a8.8,8.8,0,0,1,.89,0c.75,1,2,.2,2.89.82.17.13.55,0,.85,0V77.45l-.81-1.2V72.92c.58-.52.17-1.3.51-1.91s0-1.3.2-1.91A7.37,7.37,0,0,0,30.6,67V64.31c0-.27.1-.64,0-.81-.44-.52-.13-1.09-.23-1.61a14.489,14.489,0,0,1-.28-1.73,3.13,3.13,0,0,1,.55-1.77,30.27,30.27,0,0,1,2.28-4.6c.51-.72.89-1.53,1.47-2.22A11.51,11.51,0,0,1,36,50.3c.45.31.86-.75,1.4-.14a1.74,1.74,0,0,1-.24.28,5.889,5.889,0,0,0,.41.44c.17-.51.38-1,.55-1.43a3.27,3.27,0,0,1,.4.07V51l.75.75c.31-.27.58-.54,1-.88v1.6c.34.27.64.47,1.09.81l-.85.34c.27.17.51.31.64.41,0,.72-.2,1.4,0,1.81.37.61.17,1.19.24,1.77a5,5,0,0,0,.27,1.6c.17.54-.07,1.19.34,1.67-.27.54-.51,1-.89,1.77a8.409,8.409,0,0,1,0,1,12.2,12.2,0,0,1-.3,1.26c.24.27.47.51.51.55a7.29,7.29,0,0,0-.1,2.07,7.26,7.26,0,0,1,.17,1.06c.1,1.09.2,2.18.27,3.27V72c.54.44.07,1.12.3,1.56s.21,1.06.41,1.57c.28.85.51,1.67.68,2.25-.3.47-.51.78-.68,1.09-.27-.14-.47-.24-.64-.31-.79-.37-1-.27-2,.21.82.17,1.67.3,2.56.47-.14.38-.24.72-.41,1.09a2.21,2.21,0,0,0,1.77,1,1.55,1.55,0,0,1,.61.24,7.55,7.55,0,0,0,1.6.58c.58.07,1,.68,1.47.55.75-.17,1,.54,1.6.64a5.936,5.936,0,0,1,.71.14c.68.17,1.36.44,2.08.65l.48-.48.13-.14C52.23,81.87,50.93,81.77,50,81.16ZM7.4,14.13H7.3v-.27h.1Zm1,.1c-.07-.27-.07-.41-.11-.58-.37-.17-1,0-1.12-.71.27-.27.55-.55.92-.89.37.48.68.92,1,1.26Zm9.23-.13a.22.22,0,0,0-.14,0,2.734,2.734,0,0,0-.1-.48h.24ZM22.6,28.3h.1v.27h-.1Zm-.6-.48h.27v.1H22Zm0-.48a4.25,4.25,0,0,0-.41.35l-.92-.52A.813.813,0,0,1,22,27.34Zm0,51.13H18.85v-.62c.35.14.58.24.79.34l2.45-.91.24.23A5.178,5.178,0,0,0,22,78.47Zm1.7-.65.48-.58c.27.27.48.51.72.75a.73.73,0,0,1-1.22-.17Zm2.53.31h-.58V78h.58Zm.17-1.06h-.11V76.8h.11Zm3-17.95-.55.1a5.8,5.8,0,0,0-.17-.81,6.58,6.58,0,0,0,.73.71Zm-.1,19.62h-.71c-.24-.3-.51-.61-.78-1-.38.1-.65.2-1,.31V77c.41-.14.79-.31,1.23-.48a1.77,1.77,0,0,1,1.26,2.22Zm-1-3.95v-.27h.11v.27Zm1.06-4.53V67.5a1.72,1.72,0,0,1-.21-.07,4.1,4.1,0,0,0-.37.72,3.82,3.82,0,0,1-.24,1.19c-.17.31.07.85.17,1.4,0,0-.1.17-.13.17.1.68.17,1.22.23,1.84a1.249,1.249,0,0,0-.51.06c-.2-.27.14-.27.17-.54-.06-.1-.3-.31-.27-.48.21-1.36-.41-2.62-.27-4.05a2.251,2.251,0,0,0,.44-.1,10.56,10.56,0,0,0-.78-.75c.13-1-.14-1.94.2-2.83-.51-.41,0-1.09-.24-1.57.38-.51.68-.92,1-1.36l.47.48a12.21,12.21,0,0,1-.24,2.45,10.43,10.43,0,0,0-.06,2.69,1.681,1.681,0,0,1,.47.14,10.782,10.782,0,0,1,.14-1.19h.41c.42,1.56-.16,3.06-.4,4.56Zm4.09-18.43h0v.07c-.17.27-.34.51-.58.89-.2-.62.1-.75.48-.85l.1-.21a1.08,1.08,0,0,1-.07-.31s.11-.1.31-.3a3.4,3.4,0,0,0-.26.71Zm.68-.61a.22.22,0,0,0-.14,0,2.628,2.628,0,0,0-.1-.47h.24ZM36,49.07c-.17-.23-.3-.44-.44-.61s-.3-.44-.54-.75V46a5.54,5.54,0,0,1,.47-.44,5.948,5.948,0,0,0,.11,1,8.07,8.07,0,0,0,.85.61C36.29,47.81,36.15,48.39,36,49.07Zm1.3-.13v-.48a.21.21,0,0,0,.13,0l.11.47a.51.51,0,0,1-.23.01Zm6.61-23.2a.63.63,0,0,0,.2.17c-.14.17-.24.31-.51.62-.07-.34-.1-.51-.14-.72a3.31,3.31,0,0,0,.46-.07ZM43.2,27h.27v.1H43.2Zm-1.33-2.32.85.41c-.44.28-.78.45-1.29.75a10.74,10.74,0,0,0,.44-1.19Zm-3.95,9.78c-.58-.24-.58-.24-.54-1.13.2.42.34.72.54,1.1ZM37.55,33v-.1h.27V33Zm.3.51h0l.11-.1a2.81,2.81,0,0,1,.2.24h.2v.55h-.17l-.1-.51h0a1,1,0,0,0-.28-.24Zm.31-1V31.7c.61.34.82,1.06,1.53,1.16.1.82.89,1,1.4,1.33s1.12.31,1.6.85c-2.04-.13-3.34-1.36-4.53-2.55ZM38.91,31c.17-.17.31-.27.44-.41.21.11.44.21.75.34a5.11,5.11,0,0,1-.07.75A9.024,9.024,0,0,1,38.91,31Zm2.93.11c-.61-.38-1.19-.79-1.74-1.13V29.2a.75.75,0,0,0,.24,0,2.28,2.28,0,0,1,1.4,1.19c.13.45.54.28.64.62a.84.84,0,0,1-.54.12Zm.78,2.28c-.78-.45-1.53-.89-2.48-1.47,1-.54,1.49.28,2.14.41.38.09.44.53.34,1.08Zm-1-5.18A1.87,1.87,0,0,1,42,29.76L40.82,29a3.39,3.39,0,0,1,.37-.48,1.9,1.9,0,0,1,.38-.29Zm-2-3.07c.07.65-.44.82-.64,1.09l-2,.21c.14-.24.28-.48.31-.51.77-.25,1.41-.49,2.23-.77ZM37,23.84h.24v.48a.22.22,0,0,0-.14,0A.869.869,0,0,1,37,23.84ZM37.31,22v-.48a.21.21,0,0,0,.13,0l.11.48Zm.88-2.14v-1.2h.34c.28.27.21.51-.34,1.23Zm-.92-2.73a23.541,23.541,0,0,0-.34,2.56c-.4.06-.85.17-1.32.27-.14-.1-.34-.34-.69-.65-.13.34-.2.51-.3.75a2.31,2.31,0,0,0-.48-.07.476.476,0,0,0-.07-.3c.34-.24.68-.52,1.06-.75.2-.14.65-.28.65-.41,0-.51.37-.68.64-1s.55-.72.85-1.12a2.37,2.37,0,0,1,.41-1.74h.55c.2.31.44.65.71,1a2,2,0,0,0-1.67,1.49Zm2,1.36a3.913,3.913,0,0,0-.07-.95h.82c.15.64-.26.71-.7.98Zm-6.54-5.17a4.42,4.42,0,0,1,1.94-2.66,7.15,7.15,0,0,1,2.08-.82c1.73-.58,3.1.38,4.56,1.06a4.92,4.92,0,0,1,1.74,1.8,2,2,0,0,1,.1,2.39c-.51.68-1,1.36-1.5,2.07-.47-.44.07-.78.14-1.19-.68-.68-1.4-1.33-2.25-2.14a5.65,5.65,0,0,0-1.06-.31,7.07,7.07,0,0,0-1.22,0,15,15,0,0,0-.8,1.48,5.78,5.78,0,0,1-2,2.69c-.58-.07-1.06-.13-1.67-.24-.07-.13-.21-.37-.41-.75,1.12.41,1.12.41,1.63-.57.11.06.21.17.35.27.88-1.06.88-2.39,1-3.75l.71.27a4.119,4.119,0,0,0,.24-.44l-.51-.17c.07-.07.14-.1.2-.17-.47.14-.95.24-1.46.37-.44.38-.92.79-1.5,1.27A2.68,2.68,0,0,0,33,15.05c.07.27-.2.65-.41,1.19a7.41,7.41,0,0,0-.13-.92,5.45,5.45,0,0,0-.31-.78,2.24,2.24,0,0,0,.63-1.19Zm-.07,6.06-.1.1a1.71,1.71,0,0,1-.21-.24,1.18,1.18,0,0,0-.23-.2l.1-.1a1.18,1.18,0,0,1,.2.23,1.71,1.71,0,0,0,.29.24Zm-8.58-2.73a.23.23,0,0,0-.14,0c0-.44-.07-.89-.1-1.26-.21-.44-.85-.58-.82-1.36.65.23,1.19.44,1.77.68a1.5,1.5,0,0,1-.07.27c-.06.24-.1.44-.13.61s-.1.41-.14.58l-.1.41a1,1,0,0,0-.22.1Zm1.09.82c-.14-.27-.31-.54-.51-1,.17-.06.41-.17.64-.23a3.33,3.33,0,0,1-.08,1.26Zm-.07-2.28A9.286,9.286,0,0,0,25,14.1a2.659,2.659,0,0,1,.71.07c-.13.24-.24.41-.37.64a1.2,1.2,0,0,0,.2.11v.54h-.17c-.03,0,0-.21-.07-.31ZM27.09,26v-.47a.2.2,0,0,0,.14,0,2.734,2.734,0,0,0,.1.48.58.58,0,0,1-.24-.01Zm.85,1.16v-.48a1.21,1.21,0,0,0,.14-.1c.1.21.17.38.27.58ZM31,29.39a5.47,5.47,0,0,0-.1.61,1.08,1.08,0,0,0-.17,0c-.14-.41-.27-.82-.48-1.47,0,0-.24-.17-.44-.34a5.49,5.49,0,0,1,.41-.44,5.43,5.43,0,0,0-.79,0C29,27,29,26,28.21,25.37c0-1.06-.95-1.57-1.32-2.42a26.809,26.809,0,0,0-1.33-2.45,1.78,1.78,0,0,0,.54-.1c.07.17.14.34.21.54h.41l-1-2.7a5.44,5.44,0,0,1,1.46-2.65h4.19c-.82.75.07,1.39-.07,2.11-.13.14-.34.31-.4.37l.71.72v1.6l2,.85c.61-.54,1.39-.17,2.14-.34.24.34.44.68.65,1-.27.55-.27.55-.27,1.74-.17.07-.34.1-.48.17a1.92,1.92,0,0,0-.44.27c-.82-.27-1.47-.95-2.42-.51v1.19l-1.36,1c-.41-.13-.75-.27-1-.37l-.37.37c.24,1.23,1.16,1.94,2,2.83a10.59,10.59,0,0,0-1.06.8Zm5.28-1.94v.27h-.1v-.27Zm-1.6.92h.58v.13h-.58Zm-.2-2.59a6.127,6.127,0,0,0-.17-.82c.34.34.51.48.71.72a4.42,4.42,0,0,0-.5.1Zm-.69.3v.82c-.74-.17-1.49.89-2.24-.13.24-.21.47-.45.68-.65.55-.04,1.06-.04,1.6-.04Zm-1.22,3.41L32,28.64h1.56V29a10.169,10.169,0,0,1-.95.49Zm1.94,7-.65-.79v-2c.28.11.48.21.79.34.17.75.34,1.54.54,2.46Zm0-4.5H35v.48l-.14.1a3.1,3.1,0,0,1-.31-.57Zm-.75-.68c-.14.14-.44.1-.78.17v-.75c.3,0,.47-.54.88-.27l.68-.68a2.67,2.67,0,0,0,1.54-.38c.78-.64,1.73-1.05,2.55-1.63A19.21,19.21,0,0,0,40.2,26.4h.95V27c-1.36.92-2.72,1.87-4.09,2.76a5.21,5.21,0,0,1-1.63.78,2.76,2.76,0,0,0-1.63.79Zm2.28,7.15h-.13L35.84,38h.24Zm.38,0a4.075,4.075,0,0,0-.11-.55h.48a1.753,1.753,0,0,1-.33.61Zm-.34-3.82c.47.21,1.26.14,1.12,1-.71-.02-.81-.56-1.08-.94ZM37,37.12h.51a2,2,0,0,1,.07.41C37.21,37.77,37,37.77,37,37.12Zm1.09,11.31h-.14v-.58h.14ZM37.27,39v-.68h1c.1.17.21.41.34.68l-.37.48Zm1.88,6h-.1v-.27h.1Zm.1-1.77H39v-.1h.27Zm-.2-.75V41.9h.13v.58Zm-.45-1.63.55-.11a6.127,6.127,0,0,0,.17.82,6.58,6.58,0,0,0-.72-.69Zm.75,8.58c.14-.1.27-.24.38-.31.03.43.03.43-.38.33Zm-.2-13.15c-.17-.3-.31-.61-.45-.92a1.05,1.05,0,0,0-.3-.24c-.07-.06-.17-.13-.24-.2l.1-.1c.07.07.14.17.21.24h0l.27.27h.58c-.1-.34-.17-.64-.3-1.05.61,0,.51.81,1.09.92s.81.47,1.26.71.92.41,1.43.65c-.68.48-1.13,0-1.64-.1a10,10,0,0,1-1.29-.58,6.072,6.072,0,0,1-.72.42Zm.68,1.5c.78-.44,1.43.44,2.18.14.17.3.31.51.48.81H40.78c-.24-.32-1.02-.18-.95-.93Zm.68,2c-.34.07-.34.07-.31-.61.17.37.24.54.31.67Zm-.27.52h.27l.31.85c-.07,0-.31.21-.62.38-.13-.28-.23-.52-.23-.52a4.675,4.675,0,0,0,.27-.65Zm.61,11.47h-.1V51.5h.1Zm.38.48H41v-.1h.28Zm.34-4.46v-1c.23-.27.54-.58.78-.89s.48-.64.68-.95a2.8,2.8,0,0,1,.78.07c-.88,1.84-1.22,2.28-2.24,2.83Zm1.36,9.88a.66.66,0,0,0-.24,0v-1h.17a9.81,9.81,0,0,1,.07,1.06ZM42.28,51v.27h-.1V51Zm-.14,2.28V51.87a1.29,1.29,0,0,1,.18,1,1.12,1.12,0,0,0,.27.41v1.13h-.14v-.75a1.11,1.11,0,0,0-.31-.4Zm.52,17.2h-.28v-.1h.28Zm.27-11.82a.49.49,0,0,1,.1-.13.9.9,0,0,1-.07-.27s.1-.11.31-.31a6.27,6.27,0,0,1-.21.71s0-.06,0-.1a1.09,1.09,0,0,0-.1.34,1.591,1.591,0,0,0,.2.07v.55h-.17a2.59,2.59,0,0,0-.11-.54h0l-.24-.21a2.36,2.36,0,0,1,.29-.13Zm.17,2.18c.31.72.54,1.26.78,1.84-.34.21-.58.34-.82.48-.64-.73-.27-1.48.04-2.34Zm-.17,6.41h.17c.13.24.24.48.31.62.13,1,.27,1.8.37,2.69-.17,0-.34.1-.34.07a3,3,0,0,1-.51-1c-.04-.84,0-1.63,0-2.4ZM44,75a.24.24,0,0,0-.14,0c-.07-.34,0-.75-.2-1-.31-.41-.07-.81-.17-1.22s-.51-.68-.14-1.16c.21.24.41.51.68.82C44,73.26,44,74.14,44,75Zm.1,4.56v-.48a.25.25,0,0,0,.14,0,2.054,2.054,0,0,0,.1.48.66.66,0,0,0-.22.03Zm2.11.92H48c.17.55,1.05.58,1.29,1.47-1.15-.42-2.21-.55-3.06-1.44Zm4,1.94H50.1v-.27h.11Z" transform="translate(-5.5 -9.049)" fill="#1f7762"/>
  <path id="Trazado_24192" data-name="Trazado 24192" d="M24.06,28.57a.611.611,0,0,1-.58-.27C23.58,28.5,23.82,28.54,24.06,28.57Z" transform="translate(-5.5 -9.049)" fill="#1f7762"/>
  <path id="Trazado_24193" data-name="Trazado 24193" d="M41.87,78.23c-.78-.38-1-.27-2,.2h0C40.88,78,41.09,77.85,41.87,78.23Z" transform="translate(-5.5 -9.049)" fill="#1f7762"/>
  <path id="Trazado_24194" data-name="Trazado 24194" d="M41.8,43.93v-.58h0A3.28,3.28,0,0,1,41.8,43.93Z" transform="translate(-5.5 -9.049)" fill="#1f7762"/>
  <path id="Trazado_24195" data-name="Trazado 24195" d="M18.47,11.81l-.13.14a2.37,2.37,0,0,1,.17.41c0-.14-.14-.27-.17-.41A.79.79,0,0,1,18.47,11.81Z" transform="translate(-5.5 -9.049)" fill="#1f7762"/>
  <path id="Trazado_24196" data-name="Trazado 24196" d="M42.14,82.62c-.3-.41-.85-.07-1.53-.24L40,81.63c-2.08-.23-4.09-.44-6.1-.64v.61h2.21v.51c-.54.17-1.12-.1-1.84.31H36.8a1.77,1.77,0,0,0,1.9.54c.41-.13.79-.13,1.16-.27s.62.61.92,0a4.05,4.05,0,0,1,1.13.31,1.44,1.44,0,0,0,.88.27,16.955,16.955,0,0,1,1.77.21,2.36,2.36,0,0,1,.07-.31l-1.57-.78a5.6,5.6,0,0,1-.92.23Zm-3.78-.13a8.288,8.288,0,0,0-1-.31,4.31,4.31,0,0,0-.95,0V81.7c.71-.41,1.26.31,1.94.21a2.64,2.64,0,0,0,.01.58Zm.34-.11c.35-.27.52-.4.75-.61.07.27.07.41.14.61Z" transform="translate(-5.5 -9.049)" fill="#1f7762"/>
  <path id="Trazado_24197" data-name="Trazado 24197" d="M32.2,81.87c-1.09-.1-2.21-.3-3.34-.47-.37.47-.82.23-1.22-.07-.55.44-1.16.27-1.74.3a8.139,8.139,0,0,1-1.64-.27,5,5,0,0,0-1.73.07c0,.17,0,.27,0,.48,1.33,0,2.52.07,3.75,0,.34,0,.44.51.81.17.14-.1.62.14.75,0,.38-.34.69.13.79.07.37-.31,1-.34,1.12-.14.38.54.68-.1,1.06.07a6.161,6.161,0,0,0,1.63.13c.55.07,1.09.21,1.57.28-.21-.28-.38-.58-.58-.86C33.05,82.08,32.57,81.91,32.2,81.87Z" transform="translate(-5.5 -9.049)" fill="#1f7762"/>
  <path id="Trazado_24198" data-name="Trazado 24198" d="M45.79,83v.51l.78.1a8.55,8.55,0,0,0,.14.86c.17-.14.27-.24.41-.34.34.71,1.05.85,1.67,1.09.85-.55,1.73-.14,2.62.06a2.491,2.491,0,0,0,0-.44c-.92-.34-1.84-.68-2.79-1A10.32,10.32,0,0,0,45.79,83Z" transform="translate(-5.5 -9.049)" fill="#1f7762"/>
  <path id="Trazado_24199" data-name="Trazado 24199" d="M15.48,76.8l-2.25-1.53c-.07.37-.1.61-.17,1a3.37,3.37,0,0,1-.55,0,6.521,6.521,0,0,1-1-.24c.27.34.4.75.54.75.89,0,1.6.55,2.42.61h.07c.07,0,.13-.06.17-.06.07-.18.1-.35.17-.48Z" transform="translate(-5.5 -9.049)" fill="#1f7762"/>
  <path id="Trazado_24200" data-name="Trazado 24200" d="M14.63,77.34c.06,0,.13-.06.17-.06a3.3,3.3,0,0,1,.2-.48,3.3,3.3,0,0,0-.17.48C14.73,77.28,14.69,77.34,14.63,77.34Z" transform="translate(-5.5 -9.049)" fill="#1f7762"/>
  <path id="Trazado_24201" data-name="Trazado 24201" d="M11.76,80.51a10,10,0,0,0,1.13-.14,3.35,3.35,0,0,1-.07-.4l-1,.2c-.1-.24-.13-.41-.17-.51-.37-.1-.68-.2-.88-.27-.24.24-.45.41-.65.64a2,2,0,0,1,.2.34,1.88,1.88,0,0,1,.07.62h1.33C11.73,80.85,11.76,80.68,11.76,80.51Z" transform="translate(-5.5 -9.049)" fill="#1f7762"/>
  <path id="Trazado_24202" data-name="Trazado 24202" d="M13.33,78.23a1.2,1.2,0,0,1-.95-.07c-.14-.07-.31-.14-.48-.24-.65.34-.65.34-1.33.07a.324.324,0,0,0-.2.07v.58c.3.13.61.3.92.44.64-.68,1.53,0,2.21-.44v-.21C13.4,78.4,13.37,78.33,13.33,78.23Z" transform="translate(-5.5 -9.049)" fill="#1f7762"/>
  <path id="Trazado_24203" data-name="Trazado 24203" d="M13.33,78.23a2.44,2.44,0,0,1,.1.24l-.1-.24a1.2,1.2,0,0,1-.95-.07,1.2,1.2,0,0,0,.95.07Z" transform="translate(-5.5 -9.049)" fill="#1f7762"/>
  <path id="Trazado_24204" data-name="Trazado 24204" d="M6.69,75a.76.76,0,0,1-.27-.1,3,3,0,0,0-.17.41,2.27,2.27,0,0,0-.51.14c.2.2.34.37.4.44H8.22C7.71,75.67,7.44,74.89,6.69,75Z" transform="translate(-5.5 -9.049)" fill="#1f7762"/>
  <path id="Trazado_24205" data-name="Trazado 24205" d="M10.64,75.2c-.27-.31-.51-.51-.78-.79-.14,1.3,0,1.43,1.63,1.09-.17-.34-.3-.64-.48-1A5.4,5.4,0,0,1,10.64,75.2Z" transform="translate(-5.5 -9.049)" fill="#1f7762"/>
  <path id="Trazado_24206" data-name="Trazado 24206" d="M45.35,31.13c-.17.51-.31.95-.45,1.32a4.78,4.78,0,0,1,.38.72c.71-.48.44-1.09.48-1.57C45.58,31.4,45.48,31.26,45.35,31.13Z" transform="translate(-5.5 -9.049)" fill="#1f7762"/>
  <path id="Trazado_24207" data-name="Trazado 24207" d="M6.18,73.39a5.889,5.889,0,0,1,.68.21c.14-.21.27-.38.54-.75H5.5v.51C5.77,73.39,6,73.36,6.18,73.39Z" transform="translate(-5.5 -9.049)" fill="#1f7762"/>
  <path id="Trazado_24208" data-name="Trazado 24208" d="M11.76,81.09a2,2,0,0,0,1.71.54c.07,0,.13-.06.24-.13a3.19,3.19,0,0,0-.07-.41Z" transform="translate(-5.5 -9.049)" fill="#1f7762"/>
  <path id="Trazado_24209" data-name="Trazado 24209" d="M21.64,23.87a6.26,6.26,0,0,0-.82-2.11A2.29,2.29,0,0,0,21.64,23.87Z" transform="translate(-5.5 -9.049)" fill="#1f7762"/>
  <path id="Trazado_24210" data-name="Trazado 24210" d="M21.68,24a.27.27,0,0,0,0-.17,2.32,2.32,0,0,1-.82-2.11A2.67,2.67,0,0,0,21.68,24Z" transform="translate(-5.5 -9.049)" fill="#1f7762"/>
  <path id="Trazado_24211" data-name="Trazado 24211" d="M9.31,78.74c.24-.24.48-.44.75-.68-.34-.1-.68-.24-1.09-.38a.78.78,0,0,0,.34,1.06Z" transform="translate(-5.5 -9.049)" fill="#1f7762"/>
  <path id="Trazado_24212" data-name="Trazado 24212" d="M8.9,73.63A2.19,2.19,0,0,0,9.38,75a.48.48,0,0,0,.07-.2v-.14A1.3,1.3,0,0,0,8.9,73.63Z" transform="translate(-5.5 -9.049)" fill="#1f7762"/>
  <path id="Trazado_24213" data-name="Trazado 24213" d="M8.9,73.26v.37a1.4,1.4,0,0,1,.58,1,3.43,3.43,0,0,0-.58-1.56v.17Z" transform="translate(-5.5 -9.049)" fill="#1f7762"/>
  <path id="Trazado_24214" data-name="Trazado 24214" d="M16.06,81.84h1.09v-.17l-1.26-.51A3.56,3.56,0,0,0,16.06,81.84Z" transform="translate(-5.5 -9.049)" fill="#1f7762"/>
  <path id="Trazado_24215" data-name="Trazado 24215" d="M21.64,24.07c0,.48.07,1,.07,1.47l.51-.14a3.94,3.94,0,0,0-.58-1.33Z" transform="translate(-5.5 -9.049)" fill="#1f7762"/>
  <path id="Trazado_24216" data-name="Trazado 24216" d="M22.25,25.4c-.13-.47-.27-.92-.4-1.33h-.17a6.06,6.06,0,0,1,.57,1.33Z" transform="translate(-5.5 -9.049)" fill="#1f7762"/>
  <path id="Trazado_24217" data-name="Trazado 24217" d="M16,77.34a2.33,2.33,0,0,1,0-.51h-.47c-.1.17-.17.34-.3.58A6.563,6.563,0,0,1,16,77.34Z" transform="translate(-5.5 -9.049)" fill="#1f7762"/>
  <path id="Trazado_24218" data-name="Trazado 24218" d="M16,76.83h-.47a3.062,3.062,0,0,1,.47,0Z" transform="translate(-5.5 -9.049)" fill="#1f7762"/>
  <path id="Trazado_24219" data-name="Trazado 24219" d="M19.56,81.6a2.9,2.9,0,0,0-.44-.37,4.69,4.69,0,0,1,0,.68,4.439,4.439,0,0,0,.74-.14c.07,0,0-.31,0-.58a2.78,2.78,0,0,1-.3.41Z" transform="translate(-5.5 -9.049)" fill="#1f7762"/>
  <path id="Trazado_24220" data-name="Trazado 24220" d="M25.12,28.91a3.15,3.15,0,0,0,.64-.13c-.24-.31-.37-.52-.64-.89Z" transform="translate(-5.5 -9.049)" fill="#1f7762"/>
  <path id="Trazado_24221" data-name="Trazado 24221" d="M6.45,76.8,8,76.7a8.321,8.321,0,0,0-1-.41,3.28,3.28,0,0,1-.55.51Z" transform="translate(-5.5 -9.049)" fill="#1f7762"/>
  <path id="Trazado_24222" data-name="Trazado 24222" d="M42.32,80.85c-.07-.17-.24-.27-.38-.41-.07,0-.1.1-.17.14l.58,1A4.089,4.089,0,0,0,42.32,80.85Z" transform="translate(-5.5 -9.049)" fill="#1f7762"/>
  <path id="Trazado_24223" data-name="Trazado 24223" d="M44.7,49l.51-.1v-.41H44.6C44.63,48.7,44.67,48.84,44.7,49Z" transform="translate(-5.5 -9.049)" fill="#1f7762"/>
  <path id="Trazado_24224" data-name="Trazado 24224" d="M40.58,80.75a5.609,5.609,0,0,0-.72.14l.72.34Z" transform="translate(-5.5 -9.049)" fill="#1f7762"/>
  <path id="Trazado_24225" data-name="Trazado 24225" d="M41.26,23.19a2.468,2.468,0,0,0-.1-.55,6.139,6.139,0,0,1-.38.55Z" transform="translate(-5.5 -9.049)" fill="#1f7762"/>
  <path id="Trazado_24226" data-name="Trazado 24226" d="M45,83.61a5.907,5.907,0,0,0,.71-.14L45,83.13Z" transform="translate(-5.5 -9.049)" fill="#1f7762"/>
  <path id="Trazado_24227" data-name="Trazado 24227" d="M13.23,79.35l.48-.1a.2.2,0,0,0,0-.14h-.48C13.19,79.18,13.23,79.28,13.23,79.35Z" transform="translate(-5.5 -9.049)" fill="#1f7762"/>
  <path id="Trazado_24228" data-name="Trazado 24228" d="M8.49,73.39h.07a4,4,0,0,0-.37-.31C8.39,73.29,8.46,73.39,8.49,73.39Z" transform="translate(-5.5 -9.049)" fill="#1f7762"/>
  <path id="Trazado_24229" data-name="Trazado 24229" d="M8.9,73.26a3.577,3.577,0,0,1-.68-.21,4.231,4.231,0,0,1,.38.31Z" transform="translate(-5.5 -9.049)" fill="#1f7762"/>
  <path id="Trazado_24230" data-name="Trazado 24230" d="M22.05,81.6a.25.25,0,0,0,.14,0v-.48H22Z" transform="translate(-5.5 -9.049)" fill="#1f7762"/>
  <path id="Trazado_24231" data-name="Trazado 24231" d="M30.56,74.21a.22.22,0,0,0,.14,0V73.7h-.24C30.5,73.9,30.53,74,30.56,74.21Z" transform="translate(-5.5 -9.049)" fill="#1f7762"/>
  <path id="Trazado_24232" data-name="Trazado 24232" d="M9.79,74a.25.25,0,0,0,0,.14h.48V73.9Z" transform="translate(-5.5 -9.049)" fill="#1f7762"/>
  <path id="Trazado_24233" data-name="Trazado 24233" d="M17.72,81.7v.14h.48V81.6Z" transform="translate(-5.5 -9.049)" fill="#1f7762"/>
  <path id="Trazado_24234" data-name="Trazado 24234" d="M8.49,76.76a.71.71,0,0,0,.24-.06c-.13-.07-.3-.14-.54-.28C8.39,76.7,8.46,76.8,8.49,76.76Z" transform="translate(-5.5 -9.049)" fill="#1f7762"/>
  <path id="Trazado_24235" data-name="Trazado 24235" d="M8.8,76.7h.1C8.77,76.63,8.6,76.56,8.8,76.7Z" transform="translate(-5.5 -9.049)" fill="#1f7762"/>
  <path id="Trazado_24236" data-name="Trazado 24236" d="M8.9,76.66a4.109,4.109,0,0,1-.71-.2,5.328,5.328,0,0,1,.54.27H8.8C8.6,76.56,8.77,76.63,8.9,76.66Z" transform="translate(-5.5 -9.049)" fill="#1f7762"/>
  <path id="Trazado_24237" data-name="Trazado 24237" d="M9.07,77l.11-.11-.28-.17h0a2.81,2.81,0,0,0,.17.28Z" transform="translate(-5.5 -9.049)" fill="#1f7762"/>
  <path id="Trazado_24238" data-name="Trazado 24238" d="M8.94,76.76h0a1.91,1.91,0,0,0,.24.21,1.29,1.29,0,0,1-.24-.21Z" transform="translate(-5.5 -9.049)" fill="#1f7762"/>
  <ellipse id="Elipse_671" data-name="Elipse 671" cx="0.2" cy="0.07" rx="0.2" ry="0.07" transform="translate(1.91 64.681)" fill="#1f7762"/>
  <ellipse id="Elipse_672" data-name="Elipse 672" cx="0.07" cy="0.2" rx="0.07" ry="0.2" transform="translate(2.62 68.541)" fill="#1f7762"/>
  <ellipse id="Elipse_673" data-name="Elipse 673" cx="0.07" cy="0.2" rx="0.07" ry="0.2" transform="translate(4.59 69.971)" fill="#1f7762"/>
  <ellipse id="Elipse_674" data-name="Elipse 674" cx="0.2" cy="0.07" rx="0.2" ry="0.07" transform="translate(15.26 72.621)" fill="#1f7762"/>
  <ellipse id="Elipse_675" data-name="Elipse 675" cx="0.07" cy="0.2" rx="0.07" ry="0.2" transform="translate(15.08 6.991)" fill="#1f7762"/>
  <path id="Trazado_24239" data-name="Trazado 24239" d="M41.8,43.35h0a1.05,1.05,0,0,0,.28-.17l-.11-.1a.7.7,0,0,0-.17.27Z" transform="translate(-5.5 -9.049)" fill="#1f7762"/>
  <path id="Trazado_24240" data-name="Trazado 24240" d="M42,43.08c-.06.07-.13.17-.2.24h0a.7.7,0,0,1,.2-.24Z" transform="translate(-5.5 -9.049)" fill="#1f7762"/>
  <path id="Trazado_24241" data-name="Trazado 24241" d="M41.8,43.35Z" transform="translate(-5.5 -9.049)" fill="#1f7762"/>
  <path id="Trazado_24242" data-name="Trazado 24242" d="M27.91,22.78v.65c.2.1.48.24,1,.54a2.93,2.93,0,0,0-1-1.19Z" transform="translate(-5.5 -9.049)" fill="#1f7762"/>
  <path id="Trazado_24243" data-name="Trazado 24243" d="M27.91,22.64v.14a2.68,2.68,0,0,1,1,1.19c-.38-.64-.58-1-.82-1.36A.4.4,0,0,0,27.91,22.64Z" transform="translate(-5.5 -9.049)" fill="#1f7762"/>
  <path id="Trazado_24244" data-name="Trazado 24244" d="M27.91,22.51a2.162,2.162,0,0,0-.1-.44c-.03-.13-.14,0-.17,0A.4.4,0,0,0,27.91,22.51Z" transform="translate(-5.5 -9.049)" fill="#1f7762"/>
  <path id="Trazado_24245" data-name="Trazado 24245" d="M27.91,22.51c-.24-.14-.27-.27-.27-.41v.54h.24Z" transform="translate(-5.5 -9.049)" fill="#1f7762"/>
  <path id="Trazado_24246" data-name="Trazado 24246" d="M41.53,12.87c-.3-.17-.61-.31-1-.51-.1.17-.24.37-.34.54l1.26.38A1.87,1.87,0,0,0,41.53,12.87Z" transform="translate(-5.5 -9.049)" fill="#1f7762"/>
  <path id="Trazado_24247" data-name="Trazado 24247" d="M39.25,35.38h0a1.23,1.23,0,0,0,.17.28l.1-.11a1.34,1.34,0,0,0-.27-.17Z" transform="translate(-5.5 -9.049)" fill="#1f7762"/>
  <path id="Trazado_24248" data-name="Trazado 24248" d="M39.25,35.38Z" transform="translate(-5.5 -9.049)" fill="#1f7762"/>
  <path id="Trazado_24249" data-name="Trazado 24249" d="M39.49,35.55c-.07-.07-.17-.13-.24-.2h0a1.69,1.69,0,0,1,.24.2Z" transform="translate(-5.5 -9.049)" fill="#1f7762"/>
</svg>
