<svg id="Calavera_nachos-flor-azul" xmlns="http://www.w3.org/2000/svg" width="51.035" height="72.445" viewBox="0 0 51.035 72.445">
  <path id="Trazado_24958" data-name="Trazado 24958" d="M23,53.67v0Z" transform="translate(-4.55 -9.405)" fill="#1f7762"/>
  <path id="Trazado_24959" data-name="Trazado 24959" d="M29.86,72.16h0v.22h0A.53.53,0,0,1,29.86,72.16Z" transform="translate(-4.55 -9.405)" fill="#1f7762"/>
  <path id="Trazado_24960" data-name="Trazado 24960" d="M23.91,45.89Z" transform="translate(-4.55 -9.405)" fill="#1f7762"/>
  <path id="Trazado_24961" data-name="Trazado 24961" d="M18.52,55.4h0Z" transform="translate(-4.55 -9.405)" fill="#1f7762"/>
  <path id="Trazado_24962" data-name="Trazado 24962" d="M23.33,59.34Z" transform="translate(-4.55 -9.405)" fill="#1f7762"/>
  <path id="Trazado_24963" data-name="Trazado 24963" d="M20.91,65.66a1.08,1.08,0,0,0-.12.22.11.11,0,0,0,0,.09l.06-.06a.74.74,0,0,0,.06-.25Z" transform="translate(-4.55 -9.405)" fill="#1f7762"/>
  <path id="Trazado_24964" data-name="Trazado 24964" d="M21.62,43.57h.06c.06,0-.15-.1-.18-.1h0a.42.42,0,0,1,.12.1Z" transform="translate(-4.55 -9.405)" fill="#1f7762"/>
  <path id="Trazado_24965" data-name="Trazado 24965" d="M28.1,43.81Z" transform="translate(-4.55 -9.405)" fill="#1f7762"/>
  <path id="Trazado_24966" data-name="Trazado 24966" d="M26.58,59.31h0a2.17,2.17,0,0,0-.28.31h0a1.86,1.86,0,0,1,.28-.31Z" transform="translate(-4.55 -9.405)" fill="#1f7762"/>
  <path id="Trazado_24967" data-name="Trazado 24967" d="M20.57,52.12Z" transform="translate(-4.55 -9.405)" fill="#1f7762"/>
  <path id="Trazado_24968" data-name="Trazado 24968" d="M25.09,41.4h0l.28.28h0Z" transform="translate(-4.55 -9.405)" fill="#1f7762"/>
  <path id="Trazado_24969" data-name="Trazado 24969" d="M25.37,41.68l.16-.16a.4.4,0,0,1-.44-.15h0C25.18,41.49,25.28,41.58,25.37,41.68Z" transform="translate(-4.55 -9.405)" fill="#1f7762"/>
  <path id="Trazado_24970" data-name="Trazado 24970" d="M23.91,54Z" transform="translate(-4.55 -9.405)" fill="#1f7762"/>
  <path id="Trazado_24971" data-name="Trazado 24971" d="M20.94,54.88v0Z" transform="translate(-4.55 -9.405)" fill="#1f7762"/>
  <path id="Trazado_24972" data-name="Trazado 24972" d="M10.13,31Z" transform="translate(-4.55 -9.405)" fill="#1f7762"/>
  <path id="Trazado_24973" data-name="Trazado 24973" d="M19.7,30h-.22a1.62,1.62,0,0,1,.22.06Z" transform="translate(-4.55 -9.405)" fill="#1f7762"/>
  <path id="Trazado_24974" data-name="Trazado 24974" d="M16.73,34.52l.31.31a.41.41,0,0,1,.12.09h.09A4.47,4.47,0,0,1,16.73,34.52Z" transform="translate(-4.55 -9.405)" fill="#1f7762"/>
  <path id="Trazado_24975" data-name="Trazado 24975" d="M10.16,23.77c.12-.13.18-.25.28-.31h-.13a1.28,1.28,0,0,1-.15.31Z" transform="translate(-4.55 -9.405)" fill="#1f7762"/>
  <path id="Trazado_24976" data-name="Trazado 24976" d="M10.13,29.47Z" transform="translate(-4.55 -9.405)" fill="#1f7762"/>
  <path id="Trazado_24977" data-name="Trazado 24977" d="M12.82,34.24Z" transform="translate(-4.55 -9.405)" fill="#1f7762"/>
  <path id="Trazado_24978" data-name="Trazado 24978" d="M12.85,34.18h0v-.06h0Z" transform="translate(-4.55 -9.405)" fill="#1f7762"/>
  <path id="Trazado_24979" data-name="Trazado 24979" d="M12.26,16.83Z" transform="translate(-4.55 -9.405)" fill="#1f7762"/>
  <path id="Trazado_24980" data-name="Trazado 24980" d="M24.75,34.58h.13l-.1-.09C24.78,34.55,24.75,34.55,24.75,34.58Z" transform="translate(-4.55 -9.405)" fill="#1f7762"/>
  <path id="Trazado_24981" data-name="Trazado 24981" d="M8.67,27.05l.09.19v-.19h.13A1.62,1.62,0,0,1,8.67,27Z" transform="translate(-4.55 -9.405)" fill="#1f7762"/>
  <path id="Trazado_24982" data-name="Trazado 24982" d="M12.92,34.09h-.1c-.03,0,0,0,0,.06S12.88,34.12,12.92,34.09Z" transform="translate(-4.55 -9.405)" fill="#1f7762"/>
  <path id="Trazado_24983" data-name="Trazado 24983" d="M14.93,45.27v0Z" transform="translate(-4.55 -9.405)" fill="#1f7762"/>
  <path id="Trazado_24984" data-name="Trazado 24984" d="M17.35,48Z" transform="translate(-4.55 -9.405)" fill="#1f7762"/>
  <path id="Trazado_24985" data-name="Trazado 24985" d="M24.57,33.71h.06a.76.76,0,0,1-.16-.09h0a.61.61,0,0,0,.1.09Z" transform="translate(-4.55 -9.405)" fill="#1f7762"/>
  <path id="Trazado_24986" data-name="Trazado 24986" d="M18.86,49.18v0C18.86,49.25,18.83,49.18,18.86,49.18Z" transform="translate(-4.55 -9.405)" fill="#1f7762"/>
  <path id="Trazado_24987" data-name="Trazado 24987" d="M17.28,52.43Z" transform="translate(-4.55 -9.405)" fill="#1f7762"/>
  <path id="Trazado_24988" data-name="Trazado 24988" d="M15.8,49.18Z" transform="translate(-4.55 -9.405)" fill="#1f7762"/>
  <path id="Trazado_24989" data-name="Trazado 24989" d="M17,52.49Z" transform="translate(-4.55 -9.405)" fill="#1f7762"/>
  <path id="Trazado_24990" data-name="Trazado 24990" d="M20,40.53Z" transform="translate(-4.55 -9.405)" fill="#1f7762"/>
  <path id="Trazado_24991" data-name="Trazado 24991" d="M26.3,49.48Z" transform="translate(-4.55 -9.405)" fill="#1f7762"/>
  <path id="Trazado_24992" data-name="Trazado 24992" d="M26.83,61.13a2,2,0,0,1,.34.28A2.68,2.68,0,0,0,26.83,61.13Z" transform="translate(-4.55 -9.405)" fill="#1f7762"/>
  <path id="Trazado_24993" data-name="Trazado 24993" d="M28.28,48.9h0C28.25,48.9,28.25,48.87,28.28,48.9Z" transform="translate(-4.55 -9.405)" fill="#1f7762"/>
  <path id="Trazado_24994" data-name="Trazado 24994" d="M29.65,44v-.06a1.28,1.28,0,0,1-.1.15h0a.16.16,0,0,0,.1-.09Z" transform="translate(-4.55 -9.405)" fill="#1f7762"/>
  <path id="Trazado_24995" data-name="Trazado 24995" d="M31.88,50a.48.48,0,0,1-.13-.09l-.09.09Z" transform="translate(-4.55 -9.405)" fill="#1f7762"/>
  <path id="Trazado_24996" data-name="Trazado 24996" d="M31.57,50.14h.09a.13.13,0,0,0,0-.1Z" transform="translate(-4.55 -9.405)" fill="#1f7762"/>
  <path id="Trazado_24997" data-name="Trazado 24997" d="M21.53,78.11Z" transform="translate(-4.55 -9.405)" fill="#1f7762"/>
  <path id="Trazado_24998" data-name="Trazado 24998" d="M19.79,62.22v-.06a.66.66,0,0,1-.09.15h0Q19.79,62.265,19.79,62.22Z" transform="translate(-4.55 -9.405)" fill="#1f7762"/>
  <path id="Trazado_24999" data-name="Trazado 24999" d="M22.43,51.28Z" transform="translate(-4.55 -9.405)" fill="#1f7762"/>
  <path id="Trazado_25000" data-name="Trazado 25000" d="M20.88,56.92a.42.42,0,0,0-.19,0,1.83,1.83,0,0,1,.16.13.32.32,0,0,0,0-.16Z" transform="translate(-4.55 -9.405)" fill="#1f7762"/>
  <path id="Trazado_25001" data-name="Trazado 25001" d="M19.14,60a1.44,1.44,0,0,1,.28-.34A.79.79,0,0,0,19.14,60Z" transform="translate(-4.55 -9.405)" fill="#1f7762"/>
  <path id="Trazado_25002" data-name="Trazado 25002" d="M25.09,46.08s-.06.06-.06.09a.56.56,0,0,1-.25.31l.31-.31Z" transform="translate(-4.55 -9.405)" fill="#1f7762"/>
  <path id="Trazado_25003" data-name="Trazado 25003" d="M22,46.2a4.86,4.86,0,0,1,.44-.28v-.43c-.22.28-.37.49-.53.68h0Z" transform="translate(-4.55 -9.405)" fill="#1f7762"/>
  <path id="Trazado_25004" data-name="Trazado 25004" d="M32.37,45a.18.18,0,0,1-.12,0h.12Z" transform="translate(-4.55 -9.405)" fill="#1f7762"/>
  <path id="Trazado_25005" data-name="Trazado 25005" d="M16,34.18v.15a.12.12,0,0,0,.1,0v-.09A.86.86,0,0,1,16,34.18Z" transform="translate(-4.55 -9.405)" fill="#1f7762"/>
  <path id="Trazado_25006" data-name="Trazado 25006" d="M36.15,37.83l.07-.06h-.1v.09S36.15,37.8,36.15,37.83Z" transform="translate(-4.55 -9.405)" fill="#1f7762"/>
  <path id="Trazado_25007" data-name="Trazado 25007" d="M34.94,78.86Z" transform="translate(-4.55 -9.405)" fill="#1f7762"/>
  <path id="Trazado_25008" data-name="Trazado 25008" d="M35.78,44.93c0,.06-.06.09-.09.16a1.911,1.911,0,0,1,.06.21,1.016,1.016,0,0,1,.09-.31h0Z" transform="translate(-4.55 -9.405)" fill="#1f7762"/>
  <path id="Trazado_25009" data-name="Trazado 25009" d="M26.27,59.62h0c.09-.1.19-.19.28-.31h0C26.46,59.43,26.36,59.52,26.27,59.62Z" transform="translate(-4.55 -9.405)" fill="#1f7762"/>
  <path id="Trazado_25010" data-name="Trazado 25010" d="M48.36,29.44v.22a.47.47,0,0,1,.12-.22Z" transform="translate(-4.55 -9.405)" fill="#1f7762"/>
  <path id="Trazado_25011" data-name="Trazado 25011" d="M31.63,31.82h-.25a.248.248,0,0,1,.22.07.11.11,0,0,0,0-.07Z" transform="translate(-4.55 -9.405)" fill="#1f7762"/>
  <path id="Trazado_25012" data-name="Trazado 25012" d="M55.21,31.45c-.56-.59-.06-1.05.06-1.52a2.65,2.65,0,0,0-.25-.27c.1-.28.16-.53.25-.87-.34.18-.53.31-.81.43.22-1.45.53-2.79-.31-4.06a1.36,1.36,0,0,1-.09-.71V22.78c-.87.52-1.64,1-2.23,1.3-.71,1.08-1,2.29-2.23,2.79-.34.12-.81.37-.87.65-.15.74-.86.65-1.27,1-.15-.12-.31-.22-.49-.34-.53.22-1.06.46-1.61.71l.34.34a2.46,2.46,0,0,0-.25.44,1.55,1.55,0,0,1,.12,1.55h.13a1.722,1.722,0,0,0,.06.55h-.19a4,4,0,0,0-.12-.58h.06s-.28-.16-.28-.22v-1.8l-.9-.49v.71c.37,0,.25.31.31.49a3.869,3.869,0,0,0,.22.5c-.09.62-.16,1.15-.22,1.67.22,0,.56-.15.59.31l.31.31h.59l-.31-.52a4.429,4.429,0,0,1,.59-.1v.62c.21,0,.56-.15.59.31l.31.31c.18.13.4.25.55.37v2.08c-.34-.12-.62-.25-.93-.37a4.48,4.48,0,0,1-.55.31v-.62c-.41-.31-.41-.59,0-.9v-.59c-.19-.09-.41-.18-.59-.28h0a1.27,1.27,0,0,1-.22.25l-.09-.09a2.32,2.32,0,0,0,.25-.22h0c-.1-.18-.19-.4-.28-.59l-.31-.31c-.22,0-.56.16-.59-.31-.09-.12-.28-.24-.28-.37V29.33c-.15-.19-.31-.41-.53-.65-.18.09-.37.21-.55.31-.28-.38-.56-.34-.84,0-1.3-.56-2.7-.16-4-.25-.31,0-.65.22-1,.15-.83-.18-1.61.59-2.45.16-.15-.06-.43.12-.68.22a7.93,7.93,0,0,1-.68-.66,6.71,6.71,0,0,1-.68.59c-.43-.12-.74-.18-1-.24l-1-2.27c.15-.46.24-.77.37-1.17-.9-.28-1.74-.56-2.85-.93l-.5-.5v-.18a3.812,3.812,0,0,1,.31-.56c-.12-.28-.22-.56-.31-.81a7.91,7.91,0,0,1-.25-.8l1,.28a6.09,6.09,0,0,1,1.27-.47,15.1,15.1,0,0,1,2.85-.34,9.81,9.81,0,0,0,1.74-.43c.93-.16.87-1.18,1.52-1.52-.28-.81-1.09-1-1.46-1.58A9.3,9.3,0,0,0,33,16.12l-1,1a3,3,0,0,0-2.39.9c-.21-.13-.4-.22-.62-.34-.12.27-.24.46-.37.71L28,18.13h-.06c-.52.22-.65.25-1,0-.09-.06-.21-.19-.37-.31.5-1.27,1-2.54,1.58-3.9-.43-.72-.62-1.62-1.36-2.08-.16.06-.31.19-.37.15-1-.4-2-.89-3-1.27a11.29,11.29,0,0,0-5.24-1,.87.87,0,0,1-.83-.18c-.13-.13-.56-.19-.65-.07-.56.56-1.24.07-1.83.31a7.79,7.79,0,0,0-1.74.84,9.82,9.82,0,0,0-1.21,1.77h-.77c-.81.8-1.49,1.48-2.29,2.32-.07,0-.34.06-.72.12-.89,1.15-2,2.2-2.23,3.91-.12-.28-.21-.5-.31-.68l-.8.8a7.09,7.09,0,0,1,.34,1.61,13,13,0,0,1-.37,2.85c-.07.28.06.44,0,.65a6.09,6.09,0,0,0-.22.81c0,.15.46.25.09.56-.09.06.16.46.19.71a7.84,7.84,0,0,1,0,.84l.9.9v.71c.28.21.62.49,1,.77.52,1.18.71,2.61,2.26,2.91.15.35.22.93.43,1,.65.18.59,1,1.3,1.14s.93.93,1.49,1,.28.58.71.68h.53l1.27,1.45a1.6,1.6,0,0,1,.22-.24l.09.09a1.57,1.57,0,0,0-.25.22h0L15,38c1,.12,1.8.25,2.33.34.4.5.65,1,.83.93.56-.06.28.59.62.62a6.334,6.334,0,0,1,.78.06l-.84.84c-.28,0-.71.12-.84,0-.65-.69-1.24,0-1.86,0a2.34,2.34,0,0,0-1.73.89,3.06,3.06,0,0,0-.53.84,4.41,4.41,0,0,0-.4,1.3,4.93,4.93,0,0,0,.22,1.12l.52.18c-.12.5.41,1,0,1.43.44.43.25,1,.31,1.52s.16,1,.25,1.58l-.18.21c.86,2,.43,4,.55,5.8.31.77.56,1.33.78,1.89h.9a4.3,4.3,0,0,0,.74-.22,11.9,11.9,0,0,1-.56,1.92c-.09.53-.87,1.12-.12,1.71-.47.59-.16,1.27-.28,1.92l1,.15a6.87,6.87,0,0,0-.4,2.45c-.06.81.34,1.67-.25,2.42.5.37-.19.71-.06,1.11s.15.93.28,1.37a2.59,2.59,0,0,1-.47,2.44c-.06-.43-.12-.83-.28-1.64-.46.47-.65.71-.83.87l.68.68c-.28.43-.5.74-.68,1-.87-.06-1.65-.74-2.36-.12-.31-.09-.65-.28-.8-.19-.65.44-1.3.22-1.86.28a6,6,0,0,0-1.09-.59c-.93-.24-1.76.34-2.66.34-.09.38-.19.72-.31,1.12.22.12.49.31.65.37.22.5.4.84.56,1.18.65-.12,1.14-.25,1.67-.31s.84.09,1.18,0,.68.56,1.14.06c.19-.19.78,0,1.15,0a5.511,5.511,0,0,1,.71.09,5.81,5.81,0,0,0,3.5-.12,8.54,8.54,0,0,0,1.4,2.66,2.77,2.77,0,0,1,.31,1.18l.71.71h1.24c.06.22.12.37.16.5,1.05-.4,2,1,3,0,.34.43.65.46,1,.09.19.28.37.56.59.87l.18-.09c-.09-.22-.18-.47-.24-.65.74-.62,1.76-1,2-2-.22-.28-.77-.15-.65-.65h-.09c-.34-.16,0-.71-.28-.93a.26.26,0,0,0-.19-.06h0a2.14,2.14,0,0,1-.21.25l-.1-.1a1.21,1.21,0,0,0,.25-.21h0a1,1,0,0,0-.31-.78,2.48,2.48,0,0,0-1.17-.4h0c-.07.09-.13.15-.22.25l-.09-.1A1.5,1.5,0,0,0,24.5,76h0v-.53l-1.36-.15c.5-.25.81-.41,1.15-.56.15.12.25.25.37.34l.31-.28c.49.12,1,.25,1.49.34.24-.37.43-.65.74-1.08,0,.49.12.93,0,1.14a.86.86,0,0,0-.06,1.15,5.49,5.49,0,0,1,.43,1.21c.22-.19.31-.28.4-.37a2.66,2.66,0,0,0,.38.24l.15-.15c-.09-.19-.22-.4-.31-.59.28-.15.62-.31.93-.46.19.15.34.24.5.37l1.76-1-.22-.9h0c-.4-.16-.77-.31-1.39-.53h1.36v.53h0a.54.54,0,0,0,.44,0c.15-.1.28-.25.43-.37l.1-.1a1.31,1.31,0,0,1,.46-.09v1c-.25.22-.65.59-1.12,1a7.566,7.566,0,0,1,.87.13c-.18.37-.37.71-.56,1.05.56.22,1.18-.18,1.58.34.47-.68.9.16,1.4.06a9.19,9.19,0,0,1,1.58,0c-.12-.83-.25-1.36.28-1.7l1.58.37-1,1.18a6.44,6.44,0,0,1-.1-1c-.31-.1-.37.21-.49.34s-.09.31-.25.77h0a12.818,12.818,0,0,0,1.64,0,8.23,8.23,0,0,0,1.49-.4c-.19-.25-.37-.46-.59-.71l.62-.22c-.12-.12-.22-.25-.31-.34l1.43-.46c.18.46.4.92.55,1.33-.12.37-.21.71-.31,1h0a3.55,3.55,0,0,1-.43-.28l-1.86.93c-.37-.18-.71-.37-1.08-.56a2.69,2.69,0,0,1-2.08.07,3.23,3.23,0,0,0-.4.58h0v.13l-.56.06v-.19a4.12,4.12,0,0,0,.59-.12v.16h0v-.13h0V78a9.04,9.04,0,0,0-1,.28c-.19-.09-.35-.19-.5-.25a3.4,3.4,0,0,1-.37.34c-.47-.56-1.18,0-1.61-.31s-1,.06-1.52-.15v.46h0a2.319,2.319,0,0,1,.25.22l-.1.09a2.14,2.14,0,0,0-.21-.25h0c-.34-.4-.68-.8-1.18-1.36v.77h0l.25.22-.1.09a1.5,1.5,0,0,0-.21-.24h-.84l1,1,3.19,1.33c.62-.09,1.21-.4,1.49-.22.56.34.93-.15,1.43-.09a4.22,4.22,0,0,0,1.36-.25l.43.34a1.48,1.48,0,0,1,.5-.34,3.05,3.05,0,0,1,.74,0h.07a16.378,16.378,0,0,0,2-.56c-.06-.06-.16-.12-.22-.18l.09-.09a2.4,2.4,0,0,0,.22.24H41l1.79-1.79a5.09,5.09,0,0,0-1.64-2.39,2.2,2.2,0,0,0-1.48.28,1.82,1.82,0,0,0-1.06-.4,2,2,0,0,0-.68.12h0a2,2,0,0,0-.28-.18h0c-.62.1-1.15.35-1.52.19a14.5,14.5,0,0,1-2.94-1.49c-.37-.24-.74-.15-1-.37a7.225,7.225,0,0,0-.1-.74c-.37-.34-.77-.75-1.18-1.12,0-.49.19-1.11,0-1.48-.68-1.09.16-2.2-.24-3.26a5.7,5.7,0,0,0,.58-3.1c.25-.18.38-.34.56-.37.5-.12,1-.22,1.52-.31,1-.21,1.27-1,1.77-1.7l-1.24-.87.37-.56a1.539,1.539,0,0,1-.16-.18c-.06-.44.1-1.06-.15-1.27-.5-.41.37-.81-.09-1.09s.43-.77-.13-1.05c.37-.31.22-.56,0-1a1.82,1.82,0,0,1,0-1.43,2.8,2.8,0,0,0,.25-1.39c0-.34-.09-.78.06-1,.44-.72.19-1.43.19-2.14,0-.09-.16-.19-.12-.19.24-.34.43-.62.58-.8h2.95c2,0,2,0,2.54-.38a9.62,9.62,0,0,0-.28-4.21,25.23,25.23,0,0,0-1.36-3.72l.21-.21a4.12,4.12,0,0,0-.28-.31,5.49,5.49,0,0,0,.44-.41c.83.34,1.27.38,1.3.07-.22-.19-.78-.07-.43-.72a3,3,0,0,1,.52,0,3.775,3.775,0,0,1,.56.13c.19.03.77.28,1,.15.62-.46,1.33-.12,2-.31.06-.18.16-.34.25-.65.12.34.19.5.25.68.43,0,.93.19,1.21-.25.15.1.37.28.49.25,1.18-.34,2.48,0,3.6-.77a2.35,2.35,0,0,1,0-2.51c-.53-.81-1-1.52-1.49-2.26.31-.16.56-.25.8-.38,1.68,1.68,1.68,1.68,2.33,1.52.21.31.43.56.62.81.34.46.77.8,1.11,1.33s0,1.18.34,1.67c1.06-.62,1.06-.62,1.4-1.73.25-.74.46-1.52.65-2.26.09-.37.31-.62.12-1.06C55,32.16,55.33,31.61,55.21,31.45Zm-9-1.24H45.9v-.09h.31ZM14.53,43.16h-.1v-.31h.1Zm1.58,31.61H15.8v-.1h.31Zm15.71,3.59c.15.22.24.4.4.65C31.82,79.07,31.47,79.17,31.82,78.36Zm.92,1.27h-.09v-.31h.09Zm.41-.68h-.31v-.09h.31Zm2.57.09h-.09v-.31h.09Zm-.78-2.82c.25-.15.5-.27.78-.46a1.07,1.07,0,0,1,.06.4c-.09.34-.25.68-.37,1.06h-.87c.34-.19.56-.35.81-.5a5.249,5.249,0,0,0-.41-.5Zm-2.2.75h-.09v-.31h.09Zm.78-2.57c.15.06.37.15.77.34l-.77.12Zm-1,1.33c.28.12.53.18.77.28l.31-.31a5.644,5.644,0,0,0,.1.62H32.56Zm-1.71-3.84H31v.31h-.1Zm.1.58a3.86,3.86,0,0,0,.12.59h0c.56.13.22.56.28.87h0a1.23,1.23,0,0,1,.25.22l-.09.09c-.07-.09-.13-.15-.22-.25h0c-.53-.12-.25-.52-.28-.83a.46.46,0,0,0-.25-.07,1.722,1.722,0,0,0-.06-.55,2.056,2.056,0,0,1,.34-.07ZM43.37,29.72h.16v1.79h-.16ZM41.92,30a2.85,2.85,0,0,1,.49-.22,3.67,3.67,0,0,1,.59,0c-.12.22-.22.37-.31.56.12.27.22.55.34.83l-.18.1c-.22-.28-.41-.56-.69-.93v.93c.07.06.16.12.22.18l-.09.09a1.6,1.6,0,0,0-.22-.24h-.52c0-.47-.07-.93-.1-1.52a3.63,3.63,0,0,1,.47.22Zm-1.55,0c.68.4.43.93.55,1.42a2.74,2.74,0,0,0-.55.13ZM38,30.37l.4-.31a6,6,0,0,1,.37.62,2.22,2.22,0,0,0,.13-.31c.12-.19.34-.47.56-.78a.75.75,0,0,1,0,1.15c.09.22.18.43.31.68l-.53.13c-.09-.31-.19-.59-.31-1.06l-.09.28-.44.43-.31-.65c-.18.1-.4.19-.68.31,0-.21-.06-.49-.09-.86A3.915,3.915,0,0,0,38,30.37Zm-1.27-.47v.9c-.34-.06-.59-.18-.56-.68a3,3,0,0,0,.51-.22Zm-1.39.16h.46V31.2a.79.79,0,0,1-.51-1.14Zm-.38.4-.49.5a10.252,10.252,0,0,0-.16-1.15Zm-1.61.71a5.919,5.919,0,0,1,.22.62c-.36.21-.42-.06-.27-.62Zm-1.08-1.58c.15.22.28.38.56.72H31.57Zm-1.43.19a.3.3,0,0,0,.16,0,2.92,2.92,0,0,0,.12.49.74.74,0,0,0-.25,0,2.69,2.69,0,0,1-.08-.49Zm2.51,8c.22.53.44,1.09.75,1.89v1c.28.21.62.49,1,.8-.16.56-.31,1.06-.47,1.65H33.15v.21a.781.781,0,0,0-.37.06h-.13a.48.48,0,0,1-.37-.21l.68-.1A9.17,9.17,0,0,0,31.6,42c-.25.12-.44.24-.78.4a4.25,4.25,0,0,0-.06-.9,16.75,16.75,0,0,1-3.07-1.64c-1-.9-2.32-.59-3.37-1.21-.37-.77-.78-1.55-1.15-2.32H22.8a2.32,2.32,0,0,1-.22.25l-.09-.1a2.14,2.14,0,0,0,.25-.21h0a6.55,6.55,0,0,1,1.48-.44h0l1.11.19c0,.25.06.46.09.84.28-.25.5-.44.81-.69.68.25,1.39.53,2.11.81-.87.46-.87.46-.72,1.49.81-.78,1.46-1.77,2.67-1.34.15-.46.28-.86.43-1.3l-.25-.34c.13-.28.25-.52.41-.8a5.81,5.81,0,0,0,1.7,1.86.75.75,0,0,1,.25,1.11,2.3,2.3,0,0,0,.47.17Zm1.52-1.45c.56.59.37,1.39.4,2.35-.21-.15-.34-.24-.46-.31l-.28.28c-.15-.15-.37-.28-.43-.46a3.121,3.121,0,0,1,0-.75c0-.25-.22-.4-.28-.62a3,3,0,0,1,0-.8,3.693,3.693,0,0,0,1,.36Zm-1-.81c.09-.15.22-.34.4-.62-.01.77-.01.77-.44.67Zm-1,12.3a1.46,1.46,0,0,0-.19.07l-.49-1c.15-.06.24-.15.37-.15a.56.56,0,0,1,.21.06v-.12a1.21,1.21,0,0,1,.21-.25l.1.09-.22.19a2.329,2.329,0,0,0-.06.25,8.529,8.529,0,0,1,.04.91Zm-1.06,12.8c-.21.12-.43.28-.71.46v-.55a3.9,3.9,0,0,1,.56,0h0a1,1,0,0,1,.22-.25h0l.09.09c-.06.06-.13.09-.19.16s-.03.05,0,.14ZM30.7,58.36h-.56a3.68,3.68,0,0,0,.31-1.06c0-.31-.25-.58-.25-.89s.19-.41.25-.59c.56-.19.87.71,1.46.15v.78c-.59,0-.53.55-.84,1V56.33c-.49.67-.18,1.4-.4,2.08Zm-1.05-1.77c.12.37-.07.78.21,1.15a1.548,1.548,0,0,0-.49.06c-.07-.28-.1-.56-.16-.87H26.36c-.06.16-.12.31-.25.68-.15-.27-.24-.49-.4-.8l.56-.78h-.74c-.13-.68-.25-1.33-.41-2.1.25-.25.75-.5,1-.9a2.83,2.83,0,0,1,1-.9,5.22,5.22,0,0,0,.41.4c-.22.31-.44.59-.71,1,.55.07,1,.13,1.33.16v.15H27c-.37.22-.55.35-1,.62h1.89c.19-.09.41-.21.56-.27l.16.15c-.28.22-.56.43-.87.65.21.47.21.47.74.12a3.47,3.47,0,0,0,.22.47c-.53.22-1,.4-1.61.62a2.36,2.36,0,0,0,1.55-.06c.21-.13.43-.22.71-.37-.19-.25-.31-.38-.4-.53l.43-.43h0c.12.09.28.21.43.3v-.06a2.4,2.4,0,0,1,.22-.24h0l.09.09a1.5,1.5,0,0,0-.24.21h0v.07c-.14.56-.42,1.09-.26,1.46Zm-.93,9.42c.06-.37-.25-.84.21-1.15.06-.58.06-1.27.06-2,.38,1,.38,1.46,0,2.05a8.24,8.24,0,0,0-.06,1.2c-.12.01-.24-.02-.24-.05Zm.18,1.64v.59h-.15V67.7Zm0-6.88v.31h-.09v-.31Zm-.09-.89v-.31h.09v.31Zm.49,9h.31v.1H29.3Zm0-9.76v-.09h.31v.09Zm-.68,1v.31h-.09v-.31Zm-.31-2.08v.31h-.09v-.31Zm-.83.87c-.28-.5-.28-.5,0-.84h0v.03a1.55,1.55,0,0,1,.21-.25l.1.09a1.71,1.71,0,0,0-.25.22h0Zm.06,1V60h-.31Zm.09.28c.16.4.22.65.28.74-.37.17-.37.17-.34-.63Zm-.5-3.07v.31H27v-.31Zm-1,2.67L26,59.8a1.55,1.55,0,0,0,.25-.21h0c.09-.1.19-.19.28-.31a1,1,0,0,1,.22-.25l.09.09a1.64,1.64,0,0,0-.25.22h0a2.17,2.17,0,0,0-.28.31,1.57,1.57,0,0,1-.23.25Zm.1.62v.3h-.1v-.3Zm-1.52-2.39h-.47V59.8c-.71.53-.43-.56-.86-.46h0c-.07.09-.13.15-.22.25l-.09-.1a1.5,1.5,0,0,0,.24-.21h0c0-.65.41-.93.9-1.18a.68.68,0,0,1,.41-.77,3.721,3.721,0,0,1,.34-.19l.18-.09c-.14.37-.33.71-.48,1.08Zm0,1.49v.31H24.6v-.31Zm-3.87,3.93c.34.56-.19.93-.41,1.71-.11-1.1-.11-1.1.39-1.6Zm-.22-.74v-.1h.31v.1Zm0,4.27a7.66,7.66,0,0,1,0-.83.7.7,0,0,1,.22-.28.11.11,0,0,0,0-.09c.15-.69.31-1.37.49-2.27a2.17,2.17,0,0,1-.37,2.08v.22a7.66,7.66,0,0,1,0,.83c0,.13-.19.22-.28.34a7.85,7.85,0,0,1,0,.84c0,.12-.19.25-.28.34a.41.41,0,0,1-.09.12l.09.28a3.822,3.822,0,0,1-.34.31,6,6,0,0,1,.22-.74h0a5.73,5.73,0,0,0,.15-.87c-.11.05.08-.04.17-.17Zm-1.09-1.2a2.8,2.8,0,0,0-.12-.5h.25v.49a.18.18,0,0,0-.15.12Zm.1,1.82V68h-.1v-.3ZM18.46,55.4h.06a1.27,1.27,0,0,1,.25.22l-.09.09a1.33,1.33,0,0,1-.19-.21c-.28-.13-.52-.22-.77-.31-.16.09-.37.18-.65.34v-1.3l.43.27.19-.55A13.409,13.409,0,0,1,18.46,55.4Zm-1.14-3.59c.46-.25.65-.34.86-.47v.47Zm2.07.34a3.381,3.381,0,0,0,.37-.31,2.77,2.77,0,0,1,.22.31h.56a1.23,1.23,0,0,1,.22-.25h0l.09.09a2.46,2.46,0,0,0-.25.22h0c-.19.31-.4.59-.59.9l-.31.31c0,.21.16.56-.28.59h0v.59h-.56c.19-.27.31-.49.47-.71l.15.16c0-.22-.15-.56.31-.59l.31-.31v-.9h-.68a.74.74,0,0,1-.56.9h0a2.14,2.14,0,0,1-.21.25l-.1-.1a1.21,1.21,0,0,0,.25-.21h0a.75.75,0,0,1,.59-.94Zm2.17-.34c.87.18,1.67.34,2.48.53.22-.07.46-.13.74-.19A4.75,4.75,0,0,0,24.41,51l1-.06a6.21,6.21,0,0,0-.28.68,5.29,5.29,0,0,0-.18.68v.1c.12.09.34,0,.49.06h0a4,4,0,0,1,.19-.65,5.661,5.661,0,0,1,.37-.53h0a1.55,1.55,0,0,1-.25-.21l.09-.1h0a1.71,1.71,0,0,0,.22.25h0l.47.34-.81.65-.25.19V53c-.28-.16-.46-.25-.65-.34-.46.34-.31,1-.8,1.2h0a2.4,2.4,0,0,1-.22.24l-.09-.09a1.2,1.2,0,0,0,.24-.22h0v-.8c-.15-.06-.24-.06-.37-.12-.15.18-.34.37-.49.58v.07a1.6,1.6,0,0,1-.22.24l-.09-.09a1.57,1.57,0,0,0,.25-.22h0V52.34c-.65.58-.78,1.45-1.49,1.82l-.56.56v.06a1,1,0,0,1-.22.25l-.09-.09a1.64,1.64,0,0,0,.25-.22h0v-.59h.59c.12-.37.28-.77.4-1.14a1.43,1.43,0,0,0,0-1c-.37.62-.74,1.2-1.11,1.82a3.49,3.49,0,0,1,.76-2Zm-.28-2.94v-.31h.09v.31Zm-.34-6.95a4,4,0,0,1,.4.35c.37-.5.78-1,1.15-1.52l.19.09a4.08,4.08,0,0,1-.22.56q-.37.6-.75,1.11l.35.59a1.848,1.848,0,0,0-.59.06v.25l.18.09a.6.6,0,0,1,.22-.06s.09.1.31.34a5.169,5.169,0,0,1-.71-.21h.12a.31.31,0,0,0-.12-.1c-.1-.06-.16-.12-.25-.18l.25-.1V42.7l-.53-.19Zm-.25-.46c.37-.37.53-.53.75-.77.06.24.06.37.12.58a6.22,6.22,0,0,1-.87.19Zm3.91,2.39a.82.82,0,0,0,.18-.47c0-.09.28-.15.53-.28a15.429,15.429,0,0,1-.56,1.61c-.09.22-.37.38-.59.56,0,.22.13.56-.28.59h0a1.55,1.55,0,0,1-.21.25l-.1-.09a1.71,1.71,0,0,0,.25-.22h0c0-.22-.15-.56.31-.59L24,44.9c.09-.28.15-.53.21-.78h0a2.14,2.14,0,0,1-.25-.21l.1-.1a1.21,1.21,0,0,0,.21.25h0a1.21,1.21,0,0,0,.33-.21Zm.62-2.61-.16.16a.45.45,0,0,0,.43.15c.13.22.28.44.47.72H25.4a4.37,4.37,0,0,1,0-.59h0a2.12,2.12,0,0,0-.31-.28H24.5v-.56A3.24,3.24,0,0,1,25.22,41.24Zm-.34-.74v-.31H25v.31Zm2.16.62a1.87,1.87,0,0,1,.41.43c.06.1,0,.25-.07.47a4.34,4.34,0,0,0-.37-.31l-.28.56c-.21-.35-.46-.69-.65-1,.07-.31.16-.52.19-.74a.86.86,0,0,1,.28-.62v1.55Zm.44,1.77h.25c.18,0,.34,0,.34.31.15-.19.31-.38.46-.59a.74.74,0,0,1-.46,1.17h0a1.71,1.71,0,0,1-.22.25L27.76,44a1.2,1.2,0,0,0,.24-.22h0V43.2c-.19-.07-.53.12-.56-.31h-.22a1.753,1.753,0,0,0-.06-.56h.18a5.2,5.2,0,0,0,.1.59Zm.09-2.11v-.31h.09v.31Zm1.61,3.9v.59H29v-.59Zm-.12-1.21v-.31h.09v.31Zm.49,4.12-.49.1c.25.87.49,1.73.74,2.63a.61.61,0,0,1-.8-.62.92.92,0,0,0-.62-.87h0c-.13.28.28.75-.31.9a.49.49,0,0,1-.1.13l.1.28s-.1.09-.34.31c.09-.38.15-.56.21-.75h0a4,4,0,0,1,.13-.71.36.36,0,0,1,.21-.19v-.06c.19-.21.28-.31.41-.43-.22-.75-.47-1.49-.65-2.2l-.5-.09V45.3c-.47-.87-.87-1.58-1.27-2.29a1.18,1.18,0,0,1,1,.8c.37,1.09,1.24,1.93,1.52,3.07C28.78,47.19,29.21,47.35,29.55,47.59Zm0-3.56h0a.935.935,0,0,0,.1-.12.63.63,0,0,1-.07-.25s.1-.09.34-.31a5.17,5.17,0,0,1-.21.71s0-.06,0-.09a.273.273,0,0,1-.07.12,1.21,1.21,0,0,1-.21.25l-.1-.09a1.27,1.27,0,0,0,.19-.25ZM29.4,42.3V42h.09v.31Zm.28-.62v-.31h.09v.31Zm.8.49h-.31v-.09h.31Zm.25,1.06a.27.27,0,0,0,0,.15,3.849,3.849,0,0,0-.49.12v-.24a2.64,2.64,0,0,1,.46-.03Zm-.22,1.67v-.78h.87c-.31.28-.56.53-.8.75-.19.49-.35.87-.53,1.33-.37-.62-.16-.96.43-1.3ZM31.88,50a1.783,1.783,0,0,0,.06.56h-.19l-.09-.46h-.09c-.5-.56.09-.72.25-1a6.11,6.11,0,0,0,.27-.93l.5,1c-.22.21-.53.49-.81.77Zm-.37-1.52h-.87c.31-.31.49-.52.74-.77V47.1h.44c0,.09.12.22.09.28a10.42,10.42,0,0,1-.4,1.14ZM31,46.26h0a3.091,3.091,0,0,0,.09.31,3.824,3.824,0,0,1-.34.31,3.82,3.82,0,0,1,.22-.71.11.11,0,0,0,0,.09c.18-.46.31-.83.49-1.24v-.09C31.82,45.58,31.6,45.92,31,46.26Zm-1.49.5v.31h-.09v-.31Zm-.62,3.59v.31H28.8v-.31Zm-1.36,1.09v-.1h.31v.1Zm.18.4v.31h-.09v-.31Zm-.59-.93c0,.34.1.62.16,1.15l-.65-.65a3.68,3.68,0,0,1,.44-.5Zm-.8-.62v-.15h.59v.15Zm.9-.71c-.25-.22-.34-.34-.44-.4a3.38,3.38,0,0,1-.46.24h0a1,1,0,0,1-.22.25l-.1-.06a2.32,2.32,0,0,0,.25-.22h0a.87.87,0,0,1,0-.28c.28-.4.59-.8.9-1.2a.36.36,0,0,1,.09-.13l-.09-.28s.09-.09.34-.31a7.72,7.72,0,0,0-.32,2.39Zm-1.09-1v-.31h.1v.31Zm.16-1.77h0c.12-.5.28-1,.53-1.74.06.59.09.93.12,1.31a1.46,1.46,0,0,0-.19-.16c-.09.25-.18.47-.28.71l-.12-.09c.09.16.16.28.22.4l-.53.44a1.55,1.55,0,0,1,.25.21l-.09.1a1.71,1.71,0,0,0-.22-.25h0c-.37,0-.37-.28-.25-.5a1.76,1.76,0,0,1,.51-.45Zm-1,3.38c-.84.34-1.58-.07-2.26.43.12-.5.21-.93.37-1.49H21.87a.38.38,0,0,0,0-.18c.15-.06.31-.1.49-.16.31-.4,0-.74-.18-1.11h0a1.71,1.71,0,0,1-.25-.22l.09-.09a1.6,1.6,0,0,0,.22.24h.53c0,.4.09.8.12,1.2h.46c0-.24.1-.52.13-.8h1.33c-.4.18-.59.28-.77.37v.4a3,3,0,0,1,.71.06c.09-.18.18-.4.31-.62a.81.81,0,0,1,.4.07c.12.07.09.21.06.31-.12.65-.77.46-1.17.65-.22.67.31.75.93.92ZM22.44,51.3a1.64,1.64,0,0,1-.22.25l-.09-.09.25-.22h0v-.56a5.709,5.709,0,0,0,.68.25,5.6,5.6,0,0,0,.71,0c.16.28.28.5.43.74-.8.44-1.23-.24-1.79-.4ZM23.51,45v.59h-.15V45Zm-.12-.28v-.31h.09v.31Zm1.39,1.8a1.07,1.07,0,0,0,.25-.31c.09-.34.15-.71.25-1.15a1.64,1.64,0,0,1-.19-.21l.78-.78a1.39,1.39,0,0,1,.12.37,3.57,3.57,0,0,1-.87,1.65v.09a2.18,2.18,0,0,0-.34.34c0,.22.13.56-.28.59h0a2.14,2.14,0,0,1-.21.25l-.1-.1a1.21,1.21,0,0,0,.25-.21h0c.09-.23-.09-.57.34-.57ZM25.9,50v.62h-.44a2.265,2.265,0,0,0-.12-.53A3.63,3.63,0,0,0,25.9,50ZM24,43.47v-.89h.15v.89Zm-.16-1.24a3,3,0,0,0-.5,1.77,10,10,0,0,1-1,.4,9.23,9.23,0,0,1,1.89-3.22,9.376,9.376,0,0,1-.44,1.05Zm-1.21,2.45V45h-.09v-.31Zm-1.18.59v.31h-.09v-.31Zm.53.9c.13-.19.31-.4.53-.68l.4.4h0c-.06.19-.12.31-.15.4a.423.423,0,0,1-.16.22,3.33,3.33,0,0,1-.49.25c.15-.25.27-.37.34-.53s0-.18.06-.31L22,46.2a.137.137,0,0,0,.07.12c.07.03-.19.1-.34.16a2.46,2.46,0,0,0-.41.87c-.06-.53-.09-.78-.12-1.15.27,0,.51-.03.73-.03Zm.81,3.56-.13.62c-.28-.15-.52-.28-.93-.46a6.06,6.06,0,0,1,1.01-.16Zm-.93,1v.09H21.5v-.09Zm2.35,4.7.06-.06h0c-.58.19-1.23-.28-1.7.37a1.14,1.14,0,0,0-.09.16c-.31-.37-.5-.62-.68-.84.12-.12.21-.21.24-.21a2.26,2.26,0,0,0,2.17,0v.49h0a1.27,1.27,0,0,1,.25.22l-.09.09a.419.419,0,0,1-.21-.19Zm0,.69v.09H23.9v-.09Zm-1-.13v.31h-.09V56Zm-.65,1.8a3.471,3.471,0,0,0,.4-.34c.16.74-.31.84-.68,1.08-.09-.21-.12-.34-.22-.55.15-.07.34-.1.46-.16Zm0-1.18V56.3h.09v.31Zm-.81-.9v.31h-.09v-.31Zm-.77-5.48H20.6v-.09h.31Zm-1,6.38v.59h-.16v-.59Zm-.53,1.27V58h-.31v-.1ZM19,57.32a2.27,2.27,0,0,1-1-1.27c.12.1.25.16.37.25l.22-.22c.06,0,.18.07.18.1A10.355,10.355,0,0,1,19,57.32Zm-1.4,9.86h.59v.15H17.6Zm.59.9h.31v.09h-.31Zm.07,1.76a.27.27,0,0,0,.15,0,3.026,3.026,0,0,0,.12.5h-.24a2.8,2.8,0,0,1-.01-.5Zm0-6.26v-.31h.53a1.057,1.057,0,0,0,.09.13,6.182,6.182,0,0,0-.64.18Zm.35-1.48c.37-.38.52-.53.74-.78.06.25.06.37.12.59a8.65,8.65,0,0,1-.88.19Zm.74,1.73a2.054,2.054,0,0,0,.09.43c-.4.22-.65.22-.62-.43Zm.18-1.24-.09-.09a1.64,1.64,0,0,0,.25-.22h0a.66.66,0,0,0,.09-.15.82.82,0,0,1-.06-.25s.09-.09.34-.31a5.17,5.17,0,0,1-.21.71v-.09a.292.292,0,0,1-.06.12c-.06.06-.18.19-.28.28Zm.66.65-.38.59c0-.19-.06-.31-.09-.59Zm-.19,3a4.69,4.69,0,0,0,.06-.93c.28.49.28.49,0,.83a4.69,4.69,0,0,0-.06.93c-.3-.48-.3-.48,0-.82ZM20,59l-.31.31-.31.31a1.75,1.75,0,0,0-.28.34,2.141,2.141,0,0,1-.21.25l-.1-.1a1.21,1.21,0,0,0,.25-.21h0l.31-.31.31-.31A1.3,1.3,0,0,1,20,59c0-.22-.15-.56.31-.59l.31-.31.09-.56a1.46,1.46,0,0,1,.1-.34c.03-.12,0-.12.06-.19s-.09-.09-.16-.12a1.54,1.54,0,0,0-.15-.49,2.36,2.36,0,0,0-.28-.35,4.341,4.341,0,0,0,.53-.12,8.728,8.728,0,0,0,.12.93h0v.12h0v-.12c.49.53.46.65-.31,1.21l-.31.31C20.26,58.66,20.44,59,20,59Zm1.18.4h.31v.09h-.31Zm.37.84.28.12a2.09,2.09,0,0,0,.4.13h.44a1.14,1.14,0,0,1,.37.18c.09.06.15.19.24.28-.43.43-.86-.65-1.3.15-.21-.27-.37-.52-.52-.74a.16.16,0,0,1,.1-.09Zm4-2h0c.21-.12.43-.27.71-.46v.56a4.3,4.3,0,0,1-.59,0v.59h-.56c.14-.24.29-.43.42-.65Zm-.07-.46v-.31h.1v.31Zm5.67-2.39v-.31h.1v.31Zm.59.31v-.59h.16v.59Zm-.59,3.88h.1v.31h-.1Zm.25-.62a1.3,1.3,0,0,1-.15,0c.24-.28.49-.56.71-.84A1,1,0,0,1,32,58a1.34,1.34,0,0,1-.09-.31,3.823,3.823,0,0,1,.34-.31,5.311,5.311,0,0,1-.19.68h0a3.45,3.45,0,0,0-.15.4.72.72,0,0,1-.53.54Zm.87-.19h.31v.09h-.31Zm-.16-5.51a2,2,0,0,0-.4-.25c.13.62.22,1.14.31,1.67a1,1,0,0,0-.28.13,6.562,6.562,0,0,0-.12-.81,7.046,7.046,0,0,0-1.05.12,3.82,3.82,0,0,1-.16-.49H28.72v-.22c.46-.06,1-.09,1.42-.15V53.1c-.25,0-.49-.09-.8-.12.09-.22.18-.47.28-.68a5.23,5.23,0,0,0-.69-.31c.84-.41,1.8.18,2.61-.44.09.13.21.28.34.44-.1.15-.19.34-.34.62.4.09.71.15,1.08.21-.22.18-.37.35-.53.48Zm.19-1.93.09-.09a2.459,2.459,0,0,0,.22.25,1.57,1.57,0,0,1,.25.22l-.1.09a1.55,1.55,0,0,0-.21-.25.8.8,0,0,1-.27-.18Zm0-5.45a8.728,8.728,0,0,0-.12-.93,1.21,1.21,0,0,1-.25-.21l.09-.1a1.27,1.27,0,0,0,.22.25h.12c.13.25.28.53.44.81a2.57,2.57,0,0,1-.49.22Zm0-1.55v-.59h.16v.59ZM20.3,33.4l.09-.1a1.71,1.71,0,0,0,.22.25,1.23,1.23,0,0,1,.25.22l-.09.09c-.07-.09-.13-.15-.22-.25a1.55,1.55,0,0,0-.23-.17Zm.19,3.16v.31h-.1V36.6Zm1.3.09v.37c-.28.06-.53.12-.87.22a3.73,3.73,0,0,0-.12-.56c.39.01.7.01,1.01.01ZM21,34.77a4,4,0,0,0-.12-.5h.25v.5Zm.1.93V36H21v-.3Zm.49.24h0c0-.09-.12-.18-.09-.24.12-.37.28-.75.46-1.27.22.4.37.74.53,1.08a1.749,1.749,0,0,1-.28.13c-.09,0-.15.09-.25.12a3.09,3.09,0,0,0-.37.18Zm3.07-2.26a.71.71,0,0,1,.25-.06s.09.09.31.34a5.451,5.451,0,0,1-.72-.21h.1a.286.286,0,0,1-.13-.06,2.14,2.14,0,0,1-.25-.21l.1-.1a1.21,1.21,0,0,0,.21.25h0a.54.54,0,0,1,.13.05Zm.18.72a.107.107,0,0,1-.06.09l1.8.28c.12-.19.25-.37.4-.59.28.22.53.4.75.59h0c.24.06.34.15.34.31s-.1.37-.1.59a5,5,0,0,1-3.12-1.12h-.13l-1.46-.43v-.53c.59.31,1.09.56,1.58.81Zm4.62,1.54a4,4,0,0,1-.68.1c-.12-.4-.22-.75-.34-1.18h1.3a7.418,7.418,0,0,1-.06,1c.12-.1-.03.02-.22.08Zm-.8-7.62H29v.1h-.3ZM16.45,10.72c.28-.12.49-.24.8-.4a5.31,5.31,0,0,0,2.51.59c.93.62,2.08,0,3,.59.15.09.4,0,.65,0,.15.18.31.43.43.59a3.32,3.32,0,0,1,3,1.42v1.15a.48.48,0,0,1-.25.12,11.7,11.7,0,0,1-3.28-.68A20.7,20.7,0,0,1,20.54,13a9.2,9.2,0,0,0-1.4-.4c-.77-.18-1.58-.31-2.35-.52a1,1,0,0,1-.34-.5.89.89,0,0,1,0-.28A3.7,3.7,0,0,1,16.45,10.72Zm.15,2c.65-.16,1.06-.12,1.33.65-.52-.2-.86-.37-1.33-.6Zm.31.8v.31h-.09v-.31Zm-.68-1.27c-.65.16-1.05.13-1.33-.65.53.3.87.46,1.33.7Zm.09,1v.31h-.09V13.3Zm-.65-.13c-.71.06-.71.06-.62-.4a4.189,4.189,0,0,0,.62.45Zm-.43.87h0a5.26,5.26,0,0,1,.71.12c.09,0,.16.13.22.31.56.07,1.11.16,1.67.22.06-.4,0-.43-.59-.71.28-.06.5-.16.62-.1a28.71,28.71,0,0,0,3.94,1.27,5.7,5.7,0,0,0,3.13.44c-.65-.47-1.43-.28-1.89-.84a8,8,0,0,1-3.29-.7c-.28-.13-.86.21-.93-.41a.41.41,0,0,1-.12-.09l-.28.09s-.09-.09-.31-.34a17.4,17.4,0,0,1,4,1.12c.28.12.86-.22.93.4.52,0,1.08-.12,1.48.37l.44-.28c.24.1.46.19.71.31v.66l.74.34c-.59.74-.24,1.79-1.17,2.51-.25,0-.56-.13-1-.19l-.44.43h-2.5l-.09-.46c-.9-.37-1.95.25-2.85-.37-.06.15-.09.31-.22.68-.12-.28-.18-.43-.25-.62L15,17.66c1-.12,1.89-.49,2.76.16l.37-.34c.71.53,1.49.15,2.23.06-1.64-.28-3.28-.53-5-.81-.24-.58.1-1.11.41-1.7.68.19,1.39.34,2.16.56,0,0,.07-.19.1-.31-.56-.4-1.37-.22-1.83-.78-.28-.12-.74.28-.9-.31a.41.41,0,0,1-.12-.09l-.28.09s-.09-.09-.31-.34a3.6,3.6,0,0,0,.65.15Zm3.28,5.64v.09h-.31v-.09Zm-1.27-.47H16.14v-.49a8.954,8.954,0,0,0,1.11.54Zm-1.48-.49v.49a.29.29,0,0,0-.16,0,2.92,2.92,0,0,0-.12-.49.37.37,0,0,0,.28.05Zm-1-3.35h.1v.31h-.1Zm-.4-.37v-.16h.9V15Zm.4,3.38a3.822,3.822,0,0,1,.31.34c-.86-.25-1-.19-1.27,0-.24-.41-.93-.06-1.24-.62a8.24,8.24,0,0,0-.89,0c.49-.28.49-.28.83,0a.82.82,0,0,0,.31-.1l.16-.15c.24.4.65.25,1,.31a.9.9,0,0,1,.34.28.41.41,0,0,1,.12.09,2.26,2.26,0,0,0,.3-.1ZM14,13.7h.31v.09H14Zm-.31,2.66h.59v.16h-.59Zm-.22.81a7.94,7.94,0,0,0,.81.06v.19a11.642,11.642,0,0,0-1.43.06,2.919,2.919,0,0,0-.12-.59,5.36,5.36,0,0,0,.77.28Zm-.86-1.8h.09v.31h-.09ZM11.8,16l.46.87h0a1.5,1.5,0,0,1,.24.21l-.09.1c0-.06-.09-.1-.12-.16-.41-.18-.68-.34-1-.49A6.559,6.559,0,0,1,11.8,16Zm-.5,1.58V18a.27.27,0,0,0-.15,0,3,3,0,0,0-.12-.5.83.83,0,0,1,.27.04Zm.72,1c.52.5,1.24.37,2,.41a5.521,5.521,0,0,1-.09.68c-1-.59-2.32-.22-3.44-1.37.72.14,1.12-.11,1.51.26Zm-2.85.93a6,6,0,0,1,1.89.9c-.19-.49-.25-.74-.38-1.11L14,20a1.316,1.316,0,0,0,.09.4c1.06,0,2.08.5,3.19.34s2.27.31,3.38-.34c.13.09.28.22.4.31.53-.12,1.06-.28,1.62-.43-.13-.16-.28-.28-.41-.44l-.46.28c-.25-.12-.5-.25-.71-.34a3.42,3.42,0,0,1-.41.37c-.06-.15-.09-.28-.12-.37a.12.12,0,0,1,.09-.15h3.13l.43.43,1.09-.28a6.566,6.566,0,0,1,.09-.71c.09,0,.16-.09.25-.13h2.23a6.2,6.2,0,0,0,2.82-.74,2.49,2.49,0,0,1,2.08-.34c.49.4,1.17.93,1.85,1.49l-.77.77C33,20,32,20.48,31,20.45a19.77,19.77,0,0,0-2.88.34l-.4.41c-.47-.1-.87-.16-1.24-.22-.25.25-.47.43-.69.65-.49-.56-1.14-.28-1.67-.25-.28,0-.65-.06-.87.16-.43.43-.55-.25-.86-.19s-.81.16-1.4.25a3.24,3.24,0,0,1-.31-.28c-1.42.81-3.1-.12-4.37.5l-1.67-.19a5.78,5.78,0,0,1-1.52-.31A4.38,4.38,0,0,0,11.61,21a12.139,12.139,0,0,1-1.27-.52c-.49-.16-1-.22-1.48-.38s-.93-.43-1.61-.74a4.26,4.26,0,0,1,1.92.13ZM26.8,22.84v.59h-.16v-.59ZM8.27,20.76v.31h-.1v-.31Zm-2.36,2H5.73c0-.37-.06-.71-.06-1.09h.24Zm0-1.74c-.24-.46-.34-.65-.46-.86h.46Zm.59,3.57H6.35V24H6.5Zm1.86,5.88H8.05v-.09h.31Zm.53-2.32H8.76v-1L8.67,27c-.28-.15-.59-.28-.9-.43v-.44l.84.41V27a.322.322,0,0,1,.22.06,7.2,7.2,0,0,1,.06,1.14Zm.37,1.42H9v-.09h.31Zm.56-.86-.16.09c-.06-.22-.12-.47-.21-.71h0L9.54,28c-.37-1.18-.56-2.33.28-3.29Zm1.52,4.68c.52-.31.65.12.89.34-.52.39-.62-.08-.89-.29Zm-.28-.53v-.09h.31v.09Zm2.54,2.51c-.28-.4-.53-.78-.75-1.15h0A1.57,1.57,0,0,1,12.6,34l.1-.09h0c.06.06.09.12.15.19a.14.14,0,0,0,.1,0c.86.58,1.7,1.2,2.57,1.79-.87.58-1.18-.84-1.92-.47ZM17,36c-.62-.41-1.36-.53-1.79-1.12a1.12,1.12,0,0,0-.22-.25l.09-.09a2.46,2.46,0,0,0,.22.25l-.06.06c.8-.37,1.08.5,1.67.68h.13A2.37,2.37,0,0,0,17,36Zm0-1h.12a.41.41,0,0,0-.12-.09l-.31-.31c-.22,0-.53.12-.59-.22H16l-.93-.58c.62-.22.78.06.9.46h.13c.07,0,.55-.15.59.31a2,2,0,0,0,.52.37,2.18,2.18,0,0,1,.22-.06s.09.09.31.34A3.69,3.69,0,0,0,17,35Zm-1.12-1.64v-.59H16v.59Zm.25-2.88a3.85,3.85,0,0,0,.49-.12c0,.09,0,.18,0,.24h-.49a.23.23,0,0,0,.01-.17ZM17,28.14V28h.31v.1Zm.21,1.3v.31h-.09v-.31Zm.16,4.77v-.59h.15v.59Zm.4-7.75h-.12v-2.6A3.1,3.1,0,0,0,17,25.69a12.89,12.89,0,0,1-.44,2.54c-.18-.74,0-1.55-.18-2.23s.27-1.43,0-2.17a.822.822,0,0,1-.37-.06c-.13-.06-.12.09-.12.12v4.62a3.63,3.63,0,0,0,.21.87l-.43.37c-.06-.4-.12-.81-.18-1.3-.28.15-.47.24-.69.37l-.06-.06a.21.21,0,0,1,0-.13,49,49,0,0,0-.19-5.2c-.06.21-.15.43-.21.65l-.19-.19v2.82a14.055,14.055,0,0,0,.31,2.33c.31.65.56,1.11.78,1.54a2,2,0,0,0,.43.1c-.81.65.31,1.33-.19,2.1-.15-.34-.31-.65-.46-.92s.15-.47-.09-1a9.23,9.23,0,0,1-1.09-4.49c0-.49-.12-1-.12-1.45a12.42,12.42,0,0,1,.18-1.43l-.65-.09a36.089,36.089,0,0,0,0,4A27.44,27.44,0,0,0,14,31.14a2.84,2.84,0,0,0-.46.16c0-.5-.1-1-.13-1.43l-.18.19c-.1-.25-.16-.5-.25-.71-.5.31-.9.43-.65,1a2.24,2.24,0,0,1,.37-.28c.15.18.34.37.59.68-.31.12-.53.22-.65.28.37.4.74.84,1.24,1.36a3.317,3.317,0,0,1,.65.13c.12.28.21.52.34.83a1.62,1.62,0,0,1-.4,0c-.72-.55-1.43-1.14-2.2-1.79H12a10,10,0,0,0,2.79,2.57c-1.2.21-1.58-.87-2.38-1.18s-1.15-1.15-1.74-1.67c-.21.12-.43.21-.8.4.15-.34.21-.53.31-.71h0a1.27,1.27,0,0,1-.25-.22l.09-.09a2.32,2.32,0,0,0,.22.25h.52c-.18-.53-.34-1-.49-1.46a1,1,0,0,1-.25-.22l.09-.09a2.32,2.32,0,0,0,.22.25h0l.53.31a8.087,8.087,0,0,1,.12-.84c.09,0,.22.06.22.09,0,.47.43.84.34,1.37,0,.15.25.4.49.8a13.336,13.336,0,0,1,.1-1.51,2.08,2.08,0,0,1-.62-1.74,1.5,1.5,0,0,0-.28-1.08c-.16-.22.56-.53,0-.78.56-.68.15-1.46.09-2.29-.06.18-.15.34-.22.53l-.21-.13v4.09a6.21,6.21,0,0,1-.28-2.38c0-.81,0-1.58,0-2.39h0a2.36,2.36,0,0,1-.28.31,1.4,1.4,0,0,1-.28.34c-.15-.43-.31-.81-.53-1.39-.09.8-.49,1.36-.43,2.1a5.87,5.87,0,0,1-.43,1.61c-.25-.65-.41-1.05-.62-1.61-.22.72-.38,1.3-.59,1.95a4.67,4.67,0,0,1-.13-1.61c.59-.31,0-.83.22-1.3s0-1.05,0-1.58c-.71.13-.46.75-.68,1.15a4,4,0,0,0-.4-.37c.15-.59.31-1.15.49-1.74.72.47,1.4.25,2.05.31a2.676,2.676,0,0,1,.12-.59h.93c-.15.22-.25.31-.37.5l.56.28a4.51,4.51,0,0,0,.15-.47,2.38,2.38,0,0,1,2.2.9c-.53-.19-1.08-.34-1.64-.53l-.37.38a3.44,3.44,0,0,1-.13,1.36.26.26,0,0,0,.13,0c.18-.22.25-.31.31-.37s.06-.07.09-.07.12-.09.19-.12h0l.09-.25,1.58.28c.06-.12.16-.37.28-.62l-.31-.34c1,.19,1.86.34,2.79.53a1.89,1.89,0,0,1,.25-.22c.8.56,1.76.22,2.72.37-.09.25-.18.47-.34.87.4-.09.62-.16,1-.25v1.92a3.77,3.77,0,0,0,.62.13c.09-.81,0-1.58.06-2.36-.34-.06-.62-.09-.86-.12v-.13c.43-.09.86-.15,1.42-.27.13.06.37.18.71.37l-.58.15c0,.62-.56,1.24-.38,2s.47,1.31.72,2.08c.52.37,1.17.84,1.76,1.24l1.92-.37.25-.25a6.73,6.73,0,0,0-.22-3.25,1.83,1.83,0,0,0-1.82-1.46H21.46a3.85,3.85,0,0,0-.12-.49c1.18-.31,2.45.24,3.53-.47.37.47.68.9,1,1.33.07.06.1.13.16.19a.59.59,0,0,1-.19.8c.37.07.5.31.65.59,0,0,0,.1.07.13.15.24.49.37.77.59-.19.37-.37.74-.59,1.11a1.34,1.34,0,0,1,.16.19c-.1.28-.16.55-.25.86.22.28.46.53.68.78L26.86,30h1.52v-.16c-.31-.06-.59-.12-1.18-.22,1-.31,1.76-.52,2.51-.77l.49.93c-.09.12-.18.28-.31.43a2.58,2.58,0,0,0,.35.37c-1,.25-2,.5-3,.78v1c.06,0,.09.09.15.13.07-.28.13-.59.19-.87l.4.18c.16.25.28.5.38.62h.86c0-.37.1-.77.13-1.2h.18c0,.46.06.92.1,1.42a.27.27,0,0,1,.15,0c.06-.34.12-.71.19-1.08h.46v2.6c-.18-.43-.28-.62-.4-.87-.22.09-.4.19-.44.19-.46-.06-.8-.1-1.23-.13l-.44.65c-.15-.21-.31-.37-.43-.52a1.7,1.7,0,0,1,.28-.31c-.38-.13-.72-.22-1.12-.34a1.23,1.23,0,0,1-.22.18L26,32.75v.59h1.15a2,2,0,0,0-.07.22c-.37-.06-.83.25-1.14-.22a1,1,0,0,0-.22-.4c.09-.06.19-.15.31-.22.12-.4.25-.77.37-1.2.16.12.25.21.41.34a4.738,4.738,0,0,1,.12-.56H25.68v1h-.22c-.46-.31-.93-.62-1.48-1a6,6,0,0,0-.16-.93c-.15-.5-.62-.09-1-.31s-.68.09-1.15.18a3.4,3.4,0,0,1-.49-.24v.9h.59v-.25l.83-.1a2.2,2.2,0,0,0,.1.72c-.25-.19-.38-.34-.5-.37a1.54,1.54,0,0,0-.43,0h0v.58H23c-.15.35-.27.59-.4.84-.22-.09-.43-.19-.87-.34.31.5.53.81.72,1.15-.19.09-.28.18-.34.15a2.67,2.67,0,0,1-1.52-2.07l-.31-.31a.73.73,0,0,1-.59-.84.31.31,0,0,1-.22-.06,1.783,1.783,0,0,0-.06-.56h.19a4.41,4.41,0,0,0,.12.59h0a4.82,4.82,0,0,1,.59.31v-.56c.34.09.62.15.9.25a5,5,0,0,0,0-.59H20a2.573,2.573,0,0,0-.06-.68c-.56-.25-.71-.9-1.24-1.3l.87-.16c.27-.46-.25-.56-.38-.84a11.179,11.179,0,0,1-.34-1.08c-.09.5-.15.77-.28,1.33-.18-1.83-.18-1.83.16-2.85a4.333,4.333,0,0,1-.5-.15,26.161,26.161,0,0,1-.45,2.75Zm3.5-.62v-.58h.16v.58Zm1.49.41a5.91,5.91,0,0,0,.74-.16,1.868,1.868,0,0,0,.09.47l-.18.18a2.69,2.69,0,0,1-.64-.49ZM20,37c0,.74-.81.59-1,1.08C18.74,37.12,19.58,37.34,20,37Zm-1.58-4.84c.65.34.65.34.71,1.09-.82-.84-.82-.84-.76-1.12Zm.34,6.36a8.46,8.46,0,0,0,3.81-1.24c.74,1.39.74,1.39.71,2.26a6.61,6.61,0,0,1-3.19,1h0a1.23,1.23,0,0,1-.22.25l-.09-.09a2.46,2.46,0,0,0,.25-.22h0v-1a10.087,10.087,0,0,1-1.32-.99Zm1.49,4.67v.31h-.1v-.31Zm-1.06-1.33c.22.4.37.65.59,1h-.59Zm.47,1.33v.31h-.1v-.31Zm0,.93c.15,1.18.31,2.36.49,3.6.34-.06.69-.16,1.06-.22l.37.4L20,48.4v1.15c0,.09-.19.15-.28.24.19,1-.9,1.49-1,2.36-.4-1.12.68-1.58,1-2.7a5,5,0,0,0,.06-1.14c-.31.31-.59.59-.87.83v.07c-.15.49-.31,1-.52,1.7-.06-.59-.1-.93-.13-1.3.07.06.13.09.19.15.09-.24.19-.46.28-.71.06,0,.09.09.15.13a1.24,1.24,0,0,1,.28-1.06,1.55,1.55,0,0,0,.5-1.73,5.46,5.46,0,0,0-.75,1.24.87.87,0,0,1-.62.68v.74a3.33,3.33,0,0,1-.43.4c-.06-.06-.15-.09-.15-.15a.782.782,0,0,1,.58-1v-.9h-.55c0,.22.12.56-.28.59h0a2.32,2.32,0,0,1-.22.25l-.09-.1a2.14,2.14,0,0,0,.25-.21h0c0-.22-.16-.56.31-.59A14.1,14.1,0,0,1,19,44.12a4.429,4.429,0,0,1,.61-.03Zm-1-1.79h.09v.31h-.09Zm-1.3-.81h.3v.09h-.3Zm-1.52.43c.18.13.37.25.62.41L17,42c.18.09.37.21.65.37.12-.09.27-.22.46-.34,0,.12.16.28.09.37-.15.34-.37.68-.68,1.24a8.95,8.95,0,0,1,1-.37v1c-.28.31-.56.68-.83,1v.75c-.13.12-.28.27-.44.4-.06-.06-.15-.09-.15-.16a.78.78,0,0,1,.59-1v-.71a.66.66,0,0,1,.19-.5c0-.06.09-.09.19-.15a1.52,1.52,0,0,1-.41-.16c-.43.81-.83,1.61-1.39,2.67a3.35,3.35,0,0,1,.25-1.3,8.51,8.51,0,0,0,.9-2.42c-.22.16-.22.19-.47.62l-.12.22a4.94,4.94,0,0,1-.75.83c-.28-.09-.68.19-.74-.31-.09,0-.25-.06-.25-.09a2.84,2.84,0,0,1,.71-2.04Zm1.11,6.64v.31h-.09v-.31ZM14.71,42h.16v.59h-.16Zm.41,7.46H15v-.31h.1Zm0-1.79H15v-.59h.16ZM15,45.3h0a2.619,2.619,0,0,1-.22.25l-.09-.09.25-.19v-.22l.56-.06v.19a3.729,3.729,0,0,0-.5.12Zm.77,6.54h-.09v-.31h.09Zm.28,2.7h-.09v-.31H16Zm-.18-5.36h0a1.71,1.71,0,0,1-.25-.22h0l.09-.09a1.6,1.6,0,0,0,.22.24h0a3.43,3.43,0,0,1,.46-.38l-.74-.34v-.46c.19.09.31.18.46.25.35-.59-.37-.69-.49-1.09a1,1,0,0,1,.4-.06,1.22,1.22,0,0,1,.44.28h0a1.55,1.55,0,0,1,.21-.25l.1.09a1.71,1.71,0,0,0-.25.22h0v2.26a4.22,4.22,0,0,0-.69-.45Zm.59,1h.31v.09h-.31Zm.21,1.67h-.09v-.31h.09Zm.1-.77H17v.09h-.31Zm.12,1.11h0a1.23,1.23,0,0,0,.22.25h.28a1.55,1.55,0,0,1,.21-.25l.09.09a2.4,2.4,0,0,0-.24.22h0v.84a.53.53,0,0,0-.22,0L17,52.49h0a1,1,0,0,1-.25-.22ZM16.76,56v-.15a7.4,7.4,0,0,0,.8-.13.86.86,0,0,0,0,.28Zm2.66,21.07a3,3,0,0,0,.5-.12.58.58,0,0,0,0,.24h-.5a.18.18,0,0,0,0-.13Zm.13,1.3c.06-.15.15-.37.34-.77.06.43.09.55.12.77Zm-.72-2c-.59-.53-1-1-1.48-1.37.65-.4,1,.16,1.39.53.06-.34.09-.62.12-.9.28.28.53.5.75.72l-.81.74c.62-.19.87-.25,1.24-.34a1,1,0,0,1-1.21.6ZM20,75.05a2.46,2.46,0,0,0,.25-.22,1.23,1.23,0,0,1,.22-.25l.09.09a2.46,2.46,0,0,0-.25.22,1.23,1.23,0,0,1-.22.25Zm.5,1.3v.59h-.16v-.59Zm2.6-.28.15.15.13.13.06.06c-.09.31-.15.56-.22.84l.34-.19c.28-.19.5-.22.56.19h0a1.21,1.21,0,0,1,.25.21l-.09.1a1.27,1.27,0,0,0-.22-.25l-.56.65a1,1,0,0,1-.31.21A9.879,9.879,0,0,1,23,79.2l.34.34.13.12c.68-.28,1.39-.55,2.11-.83.06.15.18.4.34.71-.31.19-.44.74-1.12.68.09-.22.19-.4.25-.59a10.73,10.73,0,0,1-1.46.28,5.62,5.62,0,0,1-.71,0,4.29,4.29,0,0,1-2-.49V79a3.189,3.189,0,0,1-.69-.06c.19-.34.31-.62.56-1.11.06.55.13.83.16,1.14a1.79,1.79,0,0,0,.34.22,4.76,4.76,0,0,0,1.33.06,10.011,10.011,0,0,1,.12-1.18h.53v-.9c-.31.19-.59.41-.9.59a8.44,8.44,0,0,0,0,.9c-.28-.49-.28-.49,0-.83a4.64,4.64,0,0,0,0-.66c-.68,0-.9.35-.9.87h0a1.27,1.27,0,0,1,.25.22l-.09.09a1.57,1.57,0,0,0-.22-.25h0c-.4,0-.34-.34-.27-.52a9,9,0,0,1,.52-1.15c-.09-.16-.18-.34-.28-.53.34-.34.68-.24,1.4.41a.81.81,0,0,0,.4-.24Zm1.3,2.32H24v-.15a2.826,2.826,0,0,0,.5-.13.77.77,0,0,0-.06.28Zm3-13.75a1.54,1.54,0,0,1,.31-.22.73.73,0,0,1,.59-.9V62.37a.915.915,0,0,1-.44-.06c-.4.19.16.84-.46.9h0v.59h-.56c.18-.28.31-.5.46-.71l.13.12-.37-.56a3.51,3.51,0,0,0-1.12.87c.09,1.39.16,2.79.31,4.18a4.31,4.31,0,0,0,.31,1.06,8.88,8.88,0,0,1,.56,3.78c0,.12.15.21.25.34-.19.24-.35.49-.53.74h0a1.57,1.57,0,0,1,.25.22l-.1.09a2.14,2.14,0,0,0-.21-.25l-.78.71c-.65-.06-1.14-.09-1.64-.12-.9-.06-1.86.19-2.7-.31-.52-.28-1.05-.56-1.61-.84l-.21.22a2.7,2.7,0,0,1-.44-.25v.72l-.74.37-.93-.28-.31.65a.27.27,0,0,1-.15,0c0-.34.09-.68.12-1a3.835,3.835,0,0,0-.16-1l.22-.12.59.59s.15-.12.25-.22c.18.19.4.37.77.75v-1a3,3,0,0,0-.31-1.86c.06-.19.16-.38.25-.59s0-.13.06-.19a2.82,2.82,0,0,1,.13-.71c.24,1.18.12,2.39.4,3.56l.09-2.38h.22v2.44a2.69,2.69,0,0,0,1.61-.86c-.22-.28-.43-.59-.71-1,.21-.65.46-1.34.65-2a13.94,13.94,0,0,0,.34-2,7,7,0,0,1,1.3-3.56c.28.15.53.28.93.46.12-.22.25-.49.49-.93a10.741,10.741,0,0,1,.56,1l.87-.4V62.31H21c-.12,0-.25-.18-.37-.28h0a1.55,1.55,0,0,1-.25-.21l.09-.1c.07.07.13.16.19.22.22-.31.65.12.9-.12l.06-.07c1,.5,2,.16,3,.22.83.06,1.67,0,2.6,0v-.59a2.68,2.68,0,0,0-.34-.28,1.21,1.21,0,0,1-.25-.21l.09-.1a1.27,1.27,0,0,0,.22.25h0l.31.31c.49.44,1.18.25,1.64.31a12.84,12.84,0,0,1-.19,1.4c0,.12-.18.24-.27.37v2.32c-.31-.43-.47-.62-.59-.8a1.42,1.42,0,0,1-.36-.31Zm-1.09.8c-.06-.28-.09-.46-.15-.68h1.08c-.32.24-.54.43-.85.68Zm1,.47v.31h-.09v-.31Zm.07.65v.8h-.16a7.252,7.252,0,0,0-.09-.8Zm-4.93-3.07v-.31h.09v.31Zm5.79,2.6v1.12l-.68-.28c.29-.31.44-.53.72-.84ZM28,68v.31h-.09V68Zm0,5.73v.5a.27.27,0,0,0-.15,0,2.916,2.916,0,0,0-.12-.49,1.848,1.848,0,0,0,.27-.03Zm.25,2.64h-.09V76h.09ZM30,75a4.31,4.31,0,0,0-1.12.5c-.34.37-.65.28-1.05.31C28,74.83,28,74.83,30,75Zm-1.55-2c.12-.25.21-.5.43-.9.06.25.12.44.16.62l.21-.12c-.12.28-.25.52-.4.83a2.81,2.81,0,0,0-.44-.43Zm.93.71v-.59h.15v.59Zm.9,0a2.164,2.164,0,0,0-.13-.59h0c-.43-.12-.31-.4-.28-.68h0c-.34-.52-.52-.83-.74-1.21-.09.28-.16.47-.28.78-.28-.87-1-1.46-.71-2.39l.46-.15c.06-.22.13-.53.25-1.12.25,1,.4,1.68.59,2.36h.37c-.06-.38-.15-.75-.22-1.18l.31.09c0,.5.69,1,.07,1.55-.16.13-.07.53,0,1h0c.28.06.35.22.31.37a1.89,1.89,0,0,0,0,.41h0a.66.66,0,0,0,.25.06,1.783,1.783,0,0,0,.06.56.924.924,0,0,1-.35.08Zm-.59-6.26v-.31h.09v.31Zm.8,4v.09h-.31v-.09Zm1.18-9.79-.28.09c-.15.59-.59.19-.9.31.13.65-.4,1.27-.34,1.92a1.12,1.12,0,0,0,.34.65l-.62.22v1.67c-.56-1.36,0-2.69.22-3.87.12-.22.22-.43.37-.74v-.13H30a12.72,12.72,0,0,0,.21-2.91l.44-.09a3,3,0,0,1-.1,1c-.15.4-.21.74.1.93-.1.43-.19.77-.25,1.14h.9a1.909,1.909,0,0,0,.06-.21h1.46a1.4,1.4,0,0,1-1.19-.04ZM33.4,60.3c-.09.31-.18.58-.24.86h.06l.25.22-.1.09a1.5,1.5,0,0,0-.21-.24h-.47c-.12-.46-.28-.92-.46-1.54a4.094,4.094,0,0,1,1.13.55Zm1.27-13h-.58v-.16h.58Zm-.09-.81-.34-.25c-.15.09-.34.19-.65.34-.25-.71-.46-1.39-.68-2.07a1.12,1.12,0,0,0,.15-.19c.19.19.38.4.59.59a2.27,2.27,0,0,0,.34-.31c0-.28-.62-.59.19-.87a4.36,4.36,0,0,1,.36,2.75Zm.81.28h0v-.09a.273.273,0,0,1-.07.12A2.14,2.14,0,0,1,35,47l-.1-.1a1.21,1.21,0,0,0,.25-.21h0a.55.55,0,0,0,.1-.16.73.73,0,0,1-.07-.24s.1-.1.35-.31a3.613,3.613,0,0,1-.18.78ZM35.84,45a2,2,0,0,0-.09.31.74.74,0,0,1-.19.68c-.24-.18-.4-.31-.58-.46-.1-.56-.16-1.12-.25-1.71h1.11c-.59.41-.31.81-.18,1.28a1.14,1.14,0,0,0,.09-.16,1.57,1.57,0,0,1,.22-.25l.09.1a.63.63,0,0,1-.22.21Zm-.55-1.86v-.49a.27.27,0,0,0,.15,0,2.92,2.92,0,0,0,.12.49.633.633,0,0,0-.27-.01Zm2.38,2.48v-.46a5,5,0,0,0,.4.4,1.39,1.39,0,0,0-.4.05Zm.81-4.21v.52a1.23,1.23,0,0,0-.16,0c.25.89.4,1.45.53,2-.65.18-1.18.34-1.8.53a5.073,5.073,0,0,1-.12.77h-.5a6.5,6.5,0,0,0,.31-.74c-.25-.1-.4-.16-.68-.25.09-.25.22-.5.31-.71-.15-.56-.31-1.12-.5-1.74l.38-.74c.18.49.34.86.46,1.27h.22L37,40.9c.06,0,.09-.09.16-.12.06.22.12.43.21.68.25.65,0,1.55.72,2.45.06-.59.12-1.09.21-1.89a.492.492,0,0,0-.28.06c-.19-.47-.19-.71.46-.68Zm.83-4.22h-1a3.19,3.19,0,0,0,.19-.86,3.65,3.65,0,0,0-.37-.81l.65-.09v1.36a5.79,5.79,0,0,0,.65.28.25.25,0,0,0-.12.11Zm6.11-1.39a2.677,2.677,0,0,1-.06.62c-.56.81-1.62.22-2.39.84v-.62c-.56.06-.16.55-.37.83a3.26,3.26,0,0,0-1.77-.21l-.68.34c-.4-.62,0-.68.43-.9a7.375,7.375,0,0,1-1.14-.13v-.58l.52.34a2.92,2.92,0,0,1,2.45-.16v.16c.16-.1.31-.16.53-.28a4.222,4.222,0,0,0,.09.59h.16a10.519,10.519,0,0,0,.52-1.06,5.5,5.5,0,0,0-1.18-.43c-1.58-.16-3.19-.22-4.8-.34-.06-.19-.12-.34-.21-.62-.35.12-.66.25-1.06.43v1c.37.31.62.56.59,1a1.91,1.91,0,0,1-.12.49,6.11,6.11,0,0,1-.19-.87l-.25.25v-.74c-.31-.19-.59-.4-.9-.59,0,.15-.06.34,0,.43a2.65,2.65,0,0,1,.59,2.17h.1l.34.34c.12-.09.21-.18.37-.31.06.34.09.62.15,1.12.16-.37.25-.56.38-.87.12.87.24,1.61.37,2.51l-.56-.18a7.06,7.06,0,0,0-1,.18,5,5,0,0,0-.93.5c-.68-.22-.65-1-.93-1.64H36c.15-.31.28-.53.4-.81-.15-.06-.34-.16-.53-.25a4.839,4.839,0,0,1,.34-.43h-.06c-.71-.37-.59-1.06-.59-1.71l-1.2-.86,1.2-.13v-.46a1.32,1.32,0,0,0-1.48.18c-.16-.37-.28-.71-.44-1.14h-1a7.768,7.768,0,0,0,0,.83h0c.22.16.43.31.71.53-.21.25-.37.43-.56.62-.34-.22-.71-.4-1-.56-.18-.68-.34-1.27-.49-1.76l-.71-.19.65-.22c.12-.37.28-.71.4-1.08a1.62,1.62,0,0,0-.22-.06c0-.28,0-.59,0-.87a.42.42,0,0,0,.19,0,8.66,8.66,0,0,0,.12.87h0c.09.09.28.15.28.24a4.15,4.15,0,0,0,.25,1.24l.09-1.11a.32.32,0,0,0,.16,0c.06.37.12.71.18,1.11h.5c.43-.46.86-.87,1.27-1.3,0,.06.09.12.12.19.47-.1.9-.22,1.43-.34a4,4,0,0,0,2.29.31,38.591,38.591,0,0,1,4.31-.07A6.17,6.17,0,0,0,43.62,32c.09.21.25.59.4,1a2.394,2.394,0,0,1,.56.19l-.37,2.51.18.09c.07-.25.16-.47.22-.68a6,6,0,0,0,.78.34,1,1,0,0,1,.59.18,2.134,2.134,0,0,0-.56.16Zm-7.62.9-.69-1.36c.89.36.89.73.69,1.35Zm9.07.4h-.31V37h.31Zm-.52-.46c-.1-.16-.19-.34-.34-.62a6.241,6.241,0,0,1,1,.06ZM47,29.72h.09V30H47Zm0,2.66c-.06-.09-.13-.15-.19-.25s-.12,0-.21,0a1.488,1.488,0,0,0-.07-.55h.19l.09.56h0a1.27,1.27,0,0,1,.25.22S47.06,32.35,47,32.38Zm.43-.65h-.31v-.09h.31Zm5.86,4.49c-.16-.4-.22-.65-.28-.74.37-.06.37-.06.31.74ZM54,33.13c-.09.65-.25,1.3-.37,1.95-.31-.34-.59-.65-.87-1a1.27,1.27,0,0,0-.15.21c-.34-.15-.69-.28-1.06-.46.16-.13.25-.25.28-.25.5.16,1,.34,1.77.62-.4-.53-.65-.87-.93-1.21l-.28.28c-.25-.19-.5-.37-.77-.59H51.4a1.27,1.27,0,0,1-.22.25l-.09-.09a2.32,2.32,0,0,0,.25-.22h0c.06-.09.12-.15.18-.25a1.86,1.86,0,0,0,.1.25,3.05,3.05,0,0,0,.74,0h.22a.79.79,0,0,1,.68.31l.21-.22.19-.18c-.37-.25-.77-.53-1.15-.81-.37.13-.68.53-1.14.22a.15.15,0,0,0-.1-.06c-.18-.19-.62-.09-.93-.16h-.06v-.06h0a.47.47,0,0,1-.09-.19,1.335,1.335,0,0,0-1,.19c-.16.15-.53.09-.84-.06.31-.19.59-.37.9-.59l-1-.47c-.16.13-.25.25-.34.31-.25-.12-.5-.24-.9-.46l2.42-.53c.31-.49,1.08-.46,1.67-.8.16.15.25.24.34.31l1.21-.62c.25-.38.53-.78.81-1.18a3.25,3.25,0,0,1-.35-.31,7.54,7.54,0,0,1-.8,1,4.68,4.68,0,0,1-.93.53c-.06-.16-.12-.34-.19-.5-.65-.22-.74.84-1.39.56l-.43.59h-.93a2.389,2.389,0,0,0-.13.21,1.568,1.568,0,0,0-.56.07v-.19a3.86,3.86,0,0,0,.59-.12h0a1.2,1.2,0,0,1,1.15-.59h.34a4.91,4.91,0,0,1,.77-1,1.22,1.22,0,0,1,.72-.25,6.439,6.439,0,0,0,0-.74,2.66,2.66,0,0,0,1.27-2.48c.46-.22.68.18.77.43a7.34,7.34,0,0,1,.31,1.67A15.46,15.46,0,0,1,54,28.6c.06.68,0,1.4,0,2.08,0,.15.19.31.31.49C53.88,31.76,54.09,32.47,54,33.13Z" transform="translate(-4.55 -9.405)" fill="#1f7762"/>
  <path id="Trazado_25013" data-name="Trazado 25013" d="M51.37,32.75Z" transform="translate(-4.55 -9.405)" fill="#1f7762"/>
  <path id="Trazado_25014" data-name="Trazado 25014" d="M46.9,32.1Z" transform="translate(-4.55 -9.405)" fill="#1f7762"/>
  <path id="Trazado_25015" data-name="Trazado 25015" d="M46.87,32.1h0Z" transform="translate(-4.55 -9.405)" fill="#1f7762"/>
  <path id="Trazado_25016" data-name="Trazado 25016" d="M32.87,46.79l-.06-.06v.12c0,.06.06,0,.06.06V47a2.431,2.431,0,0,1,0-.25Z" transform="translate(-4.55 -9.405)" fill="#1f7762"/>
  <path id="Trazado_25017" data-name="Trazado 25017" d="M31.07,73.16v-.07h-.22a.57.57,0,0,1,.22.07Z" transform="translate(-4.55 -9.405)" fill="#1f7762"/>
  <path id="Trazado_25018" data-name="Trazado 25018" d="M31.6,60.48Z" transform="translate(-4.55 -9.405)" fill="#1f7762"/>
  <path id="Trazado_25019" data-name="Trazado 25019" d="M31.38,73.93Z" transform="translate(-4.55 -9.405)" fill="#1f7762"/>
  <path id="Trazado_25020" data-name="Trazado 25020" d="M33.12,61.13Z" transform="translate(-4.55 -9.405)" fill="#1f7762"/>
  <path id="Trazado_25021" data-name="Trazado 25021" d="M31.29,61.72h.06l.28-.09a1.13,1.13,0,0,1-.28-.12C31.32,61.57,31.32,61.66,31.29,61.72Z" transform="translate(-4.55 -9.405)" fill="#1f7762"/>
  <path id="Trazado_25022" data-name="Trazado 25022" d="M38.91,30.49v-.12a1.77,1.77,0,0,0-.12.31.107.107,0,0,0,.06.09Z" transform="translate(-4.55 -9.405)" fill="#1f7762"/>
  <path id="Trazado_25023" data-name="Trazado 25023" d="M22.71,36.32Z" transform="translate(-4.55 -9.405)" fill="#1f7762"/>
  <path id="Trazado_25024" data-name="Trazado 25024" d="M31.78,60.67a.252.252,0,0,0-.06-.19l-.06.07a.23.23,0,0,1,.12.12Z" transform="translate(-4.55 -9.405)" fill="#1f7762"/>
  <path id="Trazado_25025" data-name="Trazado 25025" d="M30.14,73v.06h.22a1.531,1.531,0,0,1-.22-.06Z" transform="translate(-4.55 -9.405)" fill="#1f7762"/>
  <path id="Trazado_25026" data-name="Trazado 25026" d="M35.32,46.6h0v.07h0Z" transform="translate(-4.55 -9.405)" fill="#1f7762"/>
  <path id="Trazado_25027" data-name="Trazado 25027" d="M29.86,55.15h0v.07h0Z" transform="translate(-4.55 -9.405)" fill="#1f7762"/>
  <path id="Trazado_25028" data-name="Trazado 25028" d="M35.22,46.76h0c0-.06.07-.09.07-.12v-.07A.24.24,0,0,1,35.22,46.76Z" transform="translate(-4.55 -9.405)" fill="#1f7762"/>
  <path id="Trazado_25029" data-name="Trazado 25029" d="M40,79.07h0Z" transform="translate(-4.55 -9.405)" fill="#1f7762"/>
  <path id="Trazado_25030" data-name="Trazado 25030" d="M27.85,18.13h0c-.53.22-.65.25-1,0C27.2,18.38,27.32,18.32,27.85,18.13Z" transform="translate(-4.55 -9.405)" fill="#1f7762"/>
  <path id="Trazado_25031" data-name="Trazado 25031" d="M27.91,18.16c.19.09.34.19.56.28C28.25,18.35,28.1,18.25,27.91,18.16Z" transform="translate(-4.55 -9.405)" fill="#1f7762"/>
  <path id="Trazado_25032" data-name="Trazado 25032" d="M45.39,31.24h0c-.16-.06-.31-.12-.31-.18S45.26,31.14,45.39,31.24Z" transform="translate(-4.55 -9.405)" fill="#1f7762"/>
  <path id="Trazado_25033" data-name="Trazado 25033" d="M28.66,77.84h-.84A3.93,3.93,0,0,0,28.66,77.84Z" transform="translate(-4.55 -9.405)" fill="#1f7762"/>
  <path id="Trazado_25034" data-name="Trazado 25034" d="M37.83,74.86l-.28-.19a1.64,1.64,0,0,0,.28.19Z" transform="translate(-4.55 -9.405)" fill="#1f7762"/>
  <path id="Trazado_25035" data-name="Trazado 25035" d="M40.77,78.11a4,4,0,0,1-.43-.27C40.49,77.93,40.65,78.02,40.77,78.11Z" transform="translate(-4.55 -9.405)" fill="#1f7762"/>
  <path id="Trazado_25036" data-name="Trazado 25036" d="M29.86,78.45h0c-.34-.4-.68-.8-1.2-1.36C29.15,77.65,29.49,78.09,29.86,78.45Z" transform="translate(-4.55 -9.405)" fill="#1f7762"/>
  <path id="Trazado_25037" data-name="Trazado 25037" d="M31.51,74.83c.15-.09.27-.25.43-.37C31.78,74.58,31.66,74.74,31.51,74.83Z" transform="translate(-4.55 -9.405)" fill="#1f7762"/>
  <path id="Trazado_25038" data-name="Trazado 25038" d="M38,79.63a13,13,0,0,0,2-.56h0A9,9,0,0,1,38,79.63Z" transform="translate(-4.55 -9.405)" fill="#1f7762"/>
  <path id="Trazado_25039" data-name="Trazado 25039" d="M13.35,36c.43.49.84,1,1.24,1.45h0C14.19,37,13.75,36.5,13.35,36Z" transform="translate(-4.55 -9.405)" fill="#1f7762"/>
  <path id="Trazado_25040" data-name="Trazado 25040" d="M26.46,78.24c-.35-.16,0-.71-.28-.93C26.42,77.53,26.11,78.08,26.46,78.24Z" transform="translate(-4.55 -9.405)" fill="#1f7762"/>
  <path id="Trazado_25041" data-name="Trazado 25041" d="M31.29,75.76c-.09-.37-.16-.62-.22-.9h0a3.76,3.76,0,0,0,.22.9Z" transform="translate(-4.55 -9.405)" fill="#1f7762"/>
  <path id="Trazado_25042" data-name="Trazado 25042" d="M14.62,37.49,15,38l-.34-.5Z" transform="translate(-4.55 -9.405)" fill="#1f7762"/>
  <path id="Trazado_25043" data-name="Trazado 25043" d="M24.47,76.07Z" transform="translate(-4.55 -9.405)" fill="#1f7762"/>
  <path id="Trazado_25044" data-name="Trazado 25044" d="M26,77.25h0a1,1,0,0,0-.31-.78,1.25,1.25,0,0,1,.31.78Z" transform="translate(-4.55 -9.405)" fill="#1f7762"/>
  <path id="Trazado_25045" data-name="Trazado 25045" d="M30.51,76.5v1.09l.69-.16C31,77.12,30.79,76.87,30.51,76.5Z" transform="translate(-4.55 -9.405)" fill="#1f7762"/>
  <path id="Trazado_25046" data-name="Trazado 25046" d="M29.06,23.3l1-.68H28.93A5.179,5.179,0,0,1,29.06,23.3Z" transform="translate(-4.55 -9.405)" fill="#1f7762"/>
  <path id="Trazado_25047" data-name="Trazado 25047" d="M30.08,76.91a2.75,2.75,0,0,0-.53.12,2.283,2.283,0,0,0,.13.53h.43a4.57,4.57,0,0,1-.03-.65Z" transform="translate(-4.55 -9.405)" fill="#1f7762"/>
  <path id="Trazado_25048" data-name="Trazado 25048" d="M12.51,37.43a4.73,4.73,0,0,1-.62.19,1.06,1.06,0,0,0,.1.12h.52Z" transform="translate(-4.55 -9.405)" fill="#1f7762"/>
  <path id="Trazado_25049" data-name="Trazado 25049" d="M55.15,27.64H55v.9h.16Z" transform="translate(-4.55 -9.405)" fill="#1f7762"/>
  <path id="Trazado_25050" data-name="Trazado 25050" d="M40,76.69l.55-.09v-.19a.45.45,0,0,0-.55.28Z" transform="translate(-4.55 -9.405)" fill="#1f7762"/>
  <path id="Trazado_25051" data-name="Trazado 25051" d="M40,76.69h0a.57.57,0,0,1,.52-.31,1.722,1.722,0,0,0-.55.06.94.94,0,0,0,0,.25Z" transform="translate(-4.55 -9.405)" fill="#1f7762"/>
  <path id="Trazado_25052" data-name="Trazado 25052" d="M33.09,72.41v-.49a.69.69,0,0,0-.25,0,2.92,2.92,0,0,0,.12.49A.28.28,0,0,0,33.09,72.41Z" transform="translate(-4.55 -9.405)" fill="#1f7762"/>
  <path id="Trazado_25053" data-name="Trazado 25053" d="M13.5,72.47a3,3,0,0,0,.5-.12.27.27,0,0,0,0-.15h-.5A.93.93,0,0,1,13.5,72.47Z" transform="translate(-4.55 -9.405)" fill="#1f7762"/>
  <path id="Trazado_25054" data-name="Trazado 25054" d="M50.25,37.77a.32.32,0,0,0,.16,0v-.49a.69.69,0,0,0-.25,0C50.19,37.43,50.22,37.62,50.25,37.77Z" transform="translate(-4.55 -9.405)" fill="#1f7762"/>
  <path id="Trazado_25055" data-name="Trazado 25055" d="M35.94,49.42a.27.27,0,0,0,.15,0V48.9h-.25a1.13,1.13,0,0,0,.1.52Z" transform="translate(-4.55 -9.405)" fill="#1f7762"/>
  <path id="Trazado_25056" data-name="Trazado 25056" d="M35.78,50.6v-.5a.57.57,0,0,0-.25,0,3,3,0,0,0,.13.49A.31.31,0,0,1,35.78,50.6Z" transform="translate(-4.55 -9.405)" fill="#1f7762"/>
  <ellipse id="Elipse_689" data-name="Elipse 689" cx="0.06" cy="0.22" rx="0.06" ry="0.22" transform="translate(31.67 40.295)" fill="#1f7762"/>
  <path id="Trazado_25057" data-name="Trazado 25057" d="M43.09,50.35h.1V50h-.1Z" transform="translate(-4.55 -9.405)" fill="#1f7762"/>
  <path id="Trazado_25058" data-name="Trazado 25058" d="M38.51,49.36v-.09H38.2v.09Z" transform="translate(-4.55 -9.405)" fill="#1f7762"/>
  <ellipse id="Elipse_690" data-name="Elipse 690" cx="0.06" cy="0.22" rx="0.06" ry="0.22" transform="translate(44.18 15.475)" fill="#1f7762"/>
  <ellipse id="Elipse_691" data-name="Elipse 691" cx="0.06" cy="0.22" rx="0.06" ry="0.22" transform="translate(9.27 38.775)" fill="#1f7762"/>
  <path id="Trazado_25059" data-name="Trazado 25059" d="M34.54,63.21V62.9h-.09v.31Z" transform="translate(-4.55 -9.405)" fill="#1f7762"/>
  <ellipse id="Elipse_692" data-name="Elipse 692" cx="0.06" cy="0.22" rx="0.06" ry="0.22" transform="translate(44.49 28.335)" fill="#1f7762"/>
  <path id="Trazado_25060" data-name="Trazado 25060" d="M49.66,37.49h.1v-.31h-.1Z" transform="translate(-4.55 -9.405)" fill="#1f7762"/>
  <ellipse id="Elipse_693" data-name="Elipse 693" cx="0.06" cy="0.22" rx="0.06" ry="0.22" transform="translate(1.21 62.385)" fill="#1f7762"/>
  <path id="Trazado_25061" data-name="Trazado 25061" d="M37.52,72.16v-.3h-.1v.3Z" transform="translate(-4.55 -9.405)" fill="#1f7762"/>
  <path id="Trazado_25062" data-name="Trazado 25062" d="M5.48,74h.09v-.31H5.48Z" transform="translate(-4.55 -9.405)" fill="#1f7762"/>
  <path id="Trazado_25063" data-name="Trazado 25063" d="M38.69,74.27V74H38.6v.31Z" transform="translate(-4.55 -9.405)" fill="#1f7762"/>
  <path id="Trazado_25064" data-name="Trazado 25064" d="M42.78,74.27h.1V74h-.1Z" transform="translate(-4.55 -9.405)" fill="#1f7762"/>
  <ellipse id="Elipse_694" data-name="Elipse 694" cx="0.06" cy="0.22" rx="0.06" ry="0.22" transform="translate(4.8 24.425)" fill="#1f7762"/>
  <path id="Trazado_25065" data-name="Trazado 25065" d="M40,76.63l-.24.18.09.1a.36.36,0,0,0,.15-.28Z" transform="translate(-4.55 -9.405)" fill="#1f7762"/>
  <path id="Trazado_25066" data-name="Trazado 25066" d="M39.81,76.94a1,1,0,0,1,.22-.25h0a.52.52,0,0,1-.15.31Z" transform="translate(-4.55 -9.405)" fill="#1f7762"/>
  <path id="Trazado_25067" data-name="Trazado 25067" d="M40,76.69Z" transform="translate(-4.55 -9.405)" fill="#1f7762"/>
  <path id="Trazado_25068" data-name="Trazado 25068" d="M13.84,78.14h.1v-.3h-.1Z" transform="translate(-4.55 -9.405)" fill="#1f7762"/>
  <path id="Trazado_25069" data-name="Trazado 25069" d="M12,26.25a4.21,4.21,0,0,1,.18.68c0-.65.06-1.61.06-3.16C12.14,24.64,11.68,25.44,12,26.25Z" transform="translate(-4.55 -9.405)" fill="#1f7762"/>
  <path id="Trazado_25070" data-name="Trazado 25070" d="M12.76,23.15c-.19,0-.28,0-.5,4.34a5.65,5.65,0,0,0,.47,1.67l.37-.09C12.54,27.08,13.07,25.1,12.76,23.15Z" transform="translate(-4.55 -9.405)" fill="#1f7762"/>
  <path id="Trazado_25071" data-name="Trazado 25071" d="M12.76,23.15a2.64,2.64,0,0,1-.5,0,1.46,1.46,0,0,1,0,.59c0,1.52-.06,2.51-.06,3.16a2.262,2.262,0,0,0,.1.53C12.48,23.18,12.57,23.15,12.76,23.15Z" transform="translate(-4.55 -9.405)" fill="#1f7762"/>
  <path id="Trazado_25072" data-name="Trazado 25072" d="M14.31,23l.65.31v4.9h.43c.44-.9-.43-1.8-.12-2.51.4-.87-.06-1.73.37-2.6l.4.18.87-.34c-1-.12-1.61-.18-2.29-.28A1.986,1.986,0,0,1,14.31,23Z" transform="translate(-4.55 -9.405)" fill="#1f7762"/>
  <path id="Trazado_25073" data-name="Trazado 25073" d="M20.85,28.69c.06.13.09.28.15.44a.91.91,0,0,0,.1-.16C21,28.57,20.91,28.63,20.85,28.69Z" transform="translate(-4.55 -9.405)" fill="#1f7762"/>
  <path id="Trazado_25074" data-name="Trazado 25074" d="M21.13,29a2,2,0,0,1,0,.41h0c.68.09,1.3.62,2.07.21a4.767,4.767,0,0,0-.09-.52,3.54,3.54,0,0,0-.34.34A2.39,2.39,0,0,0,21.13,29Z" transform="translate(-4.55 -9.405)" fill="#1f7762"/>
  <path id="Trazado_25075" data-name="Trazado 25075" d="M21.16,29.38v-.41a.55.55,0,0,1-.1.16A.281.281,0,0,0,21.16,29.38Z" transform="translate(-4.55 -9.405)" fill="#1f7762"/>
  <path id="Trazado_25076" data-name="Trazado 25076" d="M21.13,29a2.58,2.58,0,0,1,1.73.44c-.62-.31-1.21-.59-1.8-.9l-.18.18C20.91,28.63,21,28.57,21.13,29Z" transform="translate(-4.55 -9.405)" fill="#1f7762"/>
  <path id="Trazado_25077" data-name="Trazado 25077" d="M28.66,30.37H26.58v.46a3,3,0,0,0,2.08-.46Z" transform="translate(-4.55 -9.405)" fill="#1f7762"/>
  <path id="Trazado_25078" data-name="Trazado 25078" d="M17.81,23.58c.06-.31.09-.46.12-.68H16.85C17.25,23.18,17.47,23.37,17.81,23.58Z" transform="translate(-4.55 -9.405)" fill="#1f7762"/>
  <path id="Trazado_25079" data-name="Trazado 25079" d="M19.79,28.23h.44v-.62a2.75,2.75,0,0,0-.53.12C19.73,27.92,19.76,28.08,19.79,28.23Z" transform="translate(-4.55 -9.405)" fill="#1f7762"/>
  <path id="Trazado_25080" data-name="Trazado 25080" d="M25.93,28.79V28h-.28a7,7,0,0,0,.12.78Z" transform="translate(-4.55 -9.405)" fill="#1f7762"/>
  <path id="Trazado_25081" data-name="Trazado 25081" d="M28.28,32.72H28.1a1.27,1.27,0,0,0,.15.56h.16a3.87,3.87,0,0,1-.13-.56Z" transform="translate(-4.55 -9.405)" fill="#1f7762"/>
  <path id="Trazado_25082" data-name="Trazado 25082" d="M28.13,33.31h.12a1,1,0,0,1-.15-.56,3.44,3.44,0,0,0,.03.56Z" transform="translate(-4.55 -9.405)" fill="#1f7762"/>
  <ellipse id="Elipse_695" data-name="Elipse 695" cx="0.09" cy="0.43" rx="0.09" ry="0.43" transform="translate(20.58 21.095)" fill="#1f7762"/>
  <path id="Trazado_25083" data-name="Trazado 25083" d="M13.54,23.12a.27.27,0,0,0,.15,0v-.5a.74.74,0,0,0-.25,0A4.9,4.9,0,0,0,13.54,23.12Z" transform="translate(-4.55 -9.405)" fill="#1f7762"/>
  <path id="Trazado_25084" data-name="Trazado 25084" d="M11,22.9a2.788,2.788,0,0,0,.09.53h.18a1.27,1.27,0,0,0-.15-.56h0A.23.23,0,0,1,11,22.9Z" transform="translate(-4.55 -9.405)" fill="#1f7762"/>
  <path id="Trazado_25085" data-name="Trazado 25085" d="M11.27,22.84h-.12a1,1,0,0,1,.15.56,3.63,3.63,0,0,0-.03-.56Z" transform="translate(-4.55 -9.405)" fill="#1f7762"/>
  <path id="Trazado_25086" data-name="Trazado 25086" d="M11.15,22.84H11a.14.14,0,0,0,.15,0Z" transform="translate(-4.55 -9.405)" fill="#1f7762"/>
  <ellipse id="Elipse_696" data-name="Elipse 696" cx="0.06" cy="0.22" rx="0.06" ry="0.22" transform="translate(7.19 17.555)" fill="#1f7762"/>
  <path id="Trazado_25087" data-name="Trazado 25087" d="M12,27.92h0a.9.9,0,0,0-.18-.28l-.09.09a.41.41,0,0,0,.27.19Z" transform="translate(-4.55 -9.405)" fill="#1f7762"/>
  <path id="Trazado_25088" data-name="Trazado 25088" d="M12,27.92a.64.64,0,0,1-.27-.19,2.4,2.4,0,0,1,.24.22h0Z" transform="translate(-4.55 -9.405)" fill="#1f7762"/>
  <path id="Trazado_25089" data-name="Trazado 25089" d="M12,28a2.14,2.14,0,0,1,.1.22,1.05,1.05,0,0,1,.06-.25A.29.29,0,0,1,12,28Z" transform="translate(-4.55 -9.405)" fill="#1f7762"/>
  <path id="Trazado_25090" data-name="Trazado 25090" d="M12.11,27.92H12a.29.29,0,0,0,.16,0Z" transform="translate(-4.55 -9.405)" fill="#1f7762"/>
  <path id="Trazado_25091" data-name="Trazado 25091" d="M12.05,28.17l.18-.25h-.12C12.08,28.14,12.05,28.17,12.05,28.17Z" transform="translate(-4.55 -9.405)" fill="#1f7762"/>
  <path id="Trazado_25092" data-name="Trazado 25092" d="M12.11,28h.12A.09.09,0,0,0,12.11,28Z" transform="translate(-4.55 -9.405)" fill="#1f7762"/>
  <path id="Trazado_25093" data-name="Trazado 25093" d="M20.6,28.63h-.31v.1h.31Z" transform="translate(-4.55 -9.405)" fill="#1f7762"/>
  <path id="Trazado_25094" data-name="Trazado 25094" d="M12,29h.31v-.1H12Z" transform="translate(-4.55 -9.405)" fill="#1f7762"/>
  <path id="Trazado_25095" data-name="Trazado 25095" d="M25.28,30h-.1v.31h.1Z" transform="translate(-4.55 -9.405)" fill="#1f7762"/>
  <path id="Trazado_25096" data-name="Trazado 25096" d="M12,31.51h0c0-.12-.12-.18-.18-.27l-.09.09a.44.44,0,0,0,.27.18S11.92,31.51,12,31.51Z" transform="translate(-4.55 -9.405)" fill="#1f7762"/>
  <path id="Trazado_25097" data-name="Trazado 25097" d="M11.92,31.55Z" transform="translate(-4.55 -9.405)" fill="#1f7762"/>
  <path id="Trazado_25098" data-name="Trazado 25098" d="M11.68,31.36a1.2,1.2,0,0,1,.24.22h0C11.83,31.48,11.74,31.42,11.68,31.36Z" transform="translate(-4.55 -9.405)" fill="#1f7762"/>
  <ellipse id="Elipse_697" data-name="Elipse 697" cx="0.06" cy="0.22" rx="0.06" ry="0.22" transform="translate(21.5 58.825)" fill="#1f7762"/>
  <ellipse id="Elipse_698" data-name="Elipse 698" cx="0.06" cy="0.22" rx="0.06" ry="0.22" transform="translate(20.92 61.795)" fill="#1f7762"/>
  <path id="Trazado_25099" data-name="Trazado 25099" d="M25.18,37.65c.13.37.22.59.22.59l.53-.22c-.13-.31-.22-.53-.4-.93C25.31,37.43,25.15,37.68,25.18,37.65Z" transform="translate(-4.55 -9.405)" fill="#1f7762"/>
  <path id="Trazado_25100" data-name="Trazado 25100" d="M44.64,36.29a2.651,2.651,0,0,0,.44-.07v-.55c-.34.18-.59.34-1,.55A5.091,5.091,0,0,0,44.64,36.29Z" transform="translate(-4.55 -9.405)" fill="#1f7762"/>
  <path id="Trazado_25101" data-name="Trazado 25101" d="M32.56,34.52h0a1.23,1.23,0,0,0-.25.22l.09.09.19-.28Z" transform="translate(-4.55 -9.405)" fill="#1f7762"/>
  <path id="Trazado_25102" data-name="Trazado 25102" d="M32.37,34.77a1.71,1.71,0,0,1,.22-.25h0C32.5,34.61,32.44,34.71,32.37,34.77Z" transform="translate(-4.55 -9.405)" fill="#1f7762"/>
  <path id="Trazado_25103" data-name="Trazado 25103" d="M31.94,33.81h.31v-.1h-.31Z" transform="translate(-4.55 -9.405)" fill="#1f7762"/>
  <path id="Trazado_25104" data-name="Trazado 25104" d="M17.59,16.43a3.65,3.65,0,0,0,2.61.37c-.65-1-1.74-.19-2.51-.78C17.66,16.18,17.62,16.27,17.59,16.43Z" transform="translate(-4.55 -9.405)" fill="#1f7762"/>
  <path id="Trazado_25105" data-name="Trazado 25105" d="M16.48,16v.25a4.43,4.43,0,0,0,.5-.12A.23.23,0,0,0,17,16a2.86,2.86,0,0,1-.52,0Z" transform="translate(-4.55 -9.405)" fill="#1f7762"/>
  <path id="Trazado_25106" data-name="Trazado 25106" d="M52.23,26.59c-.06.06,0,.18,0,.28.78.12.87,0,.81-1.09Z" transform="translate(-4.55 -9.405)" fill="#1f7762"/>
  <path id="Trazado_25107" data-name="Trazado 25107" d="M52,30.43c.78.19,1.15.74,1.8.34a2.1,2.1,0,0,0-.65-.43,4.1,4.1,0,0,0-1.15.09Z" transform="translate(-4.55 -9.405)" fill="#1f7762"/>
  <path id="Trazado_25108" data-name="Trazado 25108" d="M53.69,31.76c-.46-.21-.84-.8-1.46-.43.13.15.22.31.31.43Z" transform="translate(-4.55 -9.405)" fill="#1f7762"/>
  <path id="Trazado_25109" data-name="Trazado 25109" d="M52.26,27.8a2.624,2.624,0,0,0-.15-.56l-.81.43C51.55,28.08,51.89,28,52.26,27.8Z" transform="translate(-4.55 -9.405)" fill="#1f7762"/>
  <path id="Trazado_25110" data-name="Trazado 25110" d="M51.3,27.67c.28.38.62.28,1,.13C51.89,28,51.55,28.08,51.3,27.67Z" transform="translate(-4.55 -9.405)" fill="#1f7762"/>
  <path id="Trazado_25111" data-name="Trazado 25111" d="M50.68,31a.87.87,0,0,0-.71.24C50.25,31.48,50.34,31.42,50.68,31Z" transform="translate(-4.55 -9.405)" fill="#1f7762"/>
  <path id="Trazado_25112" data-name="Trazado 25112" d="M50.68,31h-.92c.09.09.15.18.21.24A.87.87,0,0,1,50.68,31Z" transform="translate(-4.55 -9.405)" fill="#1f7762"/>
  <path id="Trazado_25113" data-name="Trazado 25113" d="M51.43,31.24h.09v-.31h-.09Z" transform="translate(-4.55 -9.405)" fill="#1f7762"/>
  <path id="Trazado_25114" data-name="Trazado 25114" d="M7.83,24.05H8v-.59H7.83Z" transform="translate(-4.55 -9.405)" fill="#1f7762"/>
  <path id="Trazado_25115" data-name="Trazado 25115" d="M27.45,54.81c-.34.22-.59.34-1,.59h1Z" transform="translate(-4.55 -9.405)" fill="#1f7762"/>
  <path id="Trazado_25116" data-name="Trazado 25116" d="M18.18,47.38h0a.12.12,0,0,0,.1,0c.4-.65.77-1.27,1.14-1.86-.15-.25-.31-.4-.52-.71-.28.93-.53,1.7-.72,2.54C18.15,47.35,18.18,47.35,18.18,47.38Z" transform="translate(-4.55 -9.405)" fill="#1f7762"/>
  <path id="Trazado_25117" data-name="Trazado 25117" d="M18.9,44.81l-.81,2.51h0C18.37,46.54,18.62,45.77,18.9,44.81Z" transform="translate(-4.55 -9.405)" fill="#1f7762"/>
  <path id="Trazado_25118" data-name="Trazado 25118" d="M18.21,47.38h.07A.13.13,0,0,0,18.21,47.38Z" transform="translate(-4.55 -9.405)" fill="#1f7762"/>
  <path id="Trazado_25119" data-name="Trazado 25119" d="M18.15,47.35Z" transform="translate(-4.55 -9.405)" fill="#1f7762"/>
  <path id="Trazado_25120" data-name="Trazado 25120" d="M16.11,42.89c-.59.15-.56.8-.87,1.17h.49C15.86,43.69,16,43.29,16.11,42.89Z" transform="translate(-4.55 -9.405)" fill="#1f7762"/>
  <path id="Trazado_25121" data-name="Trazado 25121" d="M16.11,42.89c-.13.4-.25.8-.38,1.17C15.86,43.69,15.98,43.29,16.11,42.89Z" transform="translate(-4.55 -9.405)" fill="#1f7762"/>
  <path id="Trazado_25122" data-name="Trazado 25122" d="M16.11,42.89h0c.12,0,.18-.13.28-.19l-.1-.09a1.7,1.7,0,0,0-.18.28Z" transform="translate(-4.55 -9.405)" fill="#1f7762"/>
  <path id="Trazado_25123" data-name="Trazado 25123" d="M16.29,42.61a1.5,1.5,0,0,1-.21.24h0A1.5,1.5,0,0,0,16.29,42.61Z" transform="translate(-4.55 -9.405)" fill="#1f7762"/>
  <path id="Trazado_25124" data-name="Trazado 25124" d="M16.11,42.89Z" transform="translate(-4.55 -9.405)" fill="#1f7762"/>
  <path id="Trazado_25125" data-name="Trazado 25125" d="M36.68,43.41c.31.16.59.25,1,.44-.22-.47-.34-.72-.49-1A4.207,4.207,0,0,0,36.68,43.41Z" transform="translate(-4.55 -9.405)" fill="#1f7762"/>
  <path id="Trazado_25126" data-name="Trazado 25126" d="M29.86,52.55c.19-.06.41-.15.62-.21C29.89,52.12,29.74,52.27,29.86,52.55Z" transform="translate(-4.55 -9.405)" fill="#1f7762"/>
  <path id="Trazado_25127" data-name="Trazado 25127" d="M30.48,53.14a.32.32,0,0,0,0,.16H31v-.25Z" transform="translate(-4.55 -9.405)" fill="#1f7762"/>
  <ellipse id="Elipse_699" data-name="Elipse 699" cx="0.06" cy="0.22" rx="0.06" ry="0.22" transform="translate(19.12 40.295)" fill="#1f7762"/>
  <path id="Trazado_25128" data-name="Trazado 25128" d="M28.44,70.4l.77-.13-.77-.34Z" transform="translate(-4.55 -9.405)" fill="#1f7762"/>
  <path id="Trazado_25129" data-name="Trazado 25129" d="M25.06,79.63h0a1.55,1.55,0,0,0,.25-.21l-.09-.1-.19.28Z" transform="translate(-4.55 -9.405)" fill="#1f7762"/>
  <path id="Trazado_25130" data-name="Trazado 25130" d="M25.06,79.63h0a1.64,1.64,0,0,1,.19-.25,1.64,1.64,0,0,0-.19.25Z" transform="translate(-4.55 -9.405)" fill="#1f7762"/>
  <path id="Trazado_25131" data-name="Trazado 25131" d="M42.38,36.38v-.09h-1.3c-.06,0-.12.12-.19.15a1.55,1.55,0,0,0,0,.34,4.54,4.54,0,0,1,.69-.22,2.84,2.84,0,0,0,.8-.18Z" transform="translate(-4.55 -9.405)" fill="#1f7762"/>
  <path id="Trazado_25132" data-name="Trazado 25132" d="M42.38,36.53v-.12a3,3,0,0,1-.8.19C41.85,36.56,42.13,36.56,42.38,36.53Z" transform="translate(-4.55 -9.405)" fill="#1f7762"/>
  <path id="Trazado_25133" data-name="Trazado 25133" d="M20.91,30.34h-.59v.59l.31.31h.31a8.44,8.44,0,0,1-.03-.9Z" transform="translate(-4.55 -9.405)" fill="#1f7762"/>
  <path id="Trazado_25134" data-name="Trazado 25134" d="M21.44,31.82a3.2,3.2,0,0,0,.37-.31h-.59a1.26,1.26,0,0,0,.22.31Z" transform="translate(-4.55 -9.405)" fill="#1f7762"/>
  <path id="Trazado_25135" data-name="Trazado 25135" d="M27.66,34.8l-.49.09v.19a1.23,1.23,0,0,0,.56-.16h0Z" transform="translate(-4.55 -9.405)" fill="#1f7762"/>
  <path id="Trazado_25136" data-name="Trazado 25136" d="M27.76,35.05v-.13a.94.94,0,0,1-.56.16C27.38,35.08,27.57,35.05,27.76,35.05Z" transform="translate(-4.55 -9.405)" fill="#1f7762"/>
  <path id="Trazado_25137" data-name="Trazado 25137" d="M27.76,34.92V34.8h-.07A.65.65,0,0,0,27.76,34.92Z" transform="translate(-4.55 -9.405)" fill="#1f7762"/>
  <path id="Trazado_25138" data-name="Trazado 25138" d="M26.58,34.8h0a1.57,1.57,0,0,0,.22.25l.09-.1-.28-.18Z" transform="translate(-4.55 -9.405)" fill="#1f7762"/>
  <path id="Trazado_25139" data-name="Trazado 25139" d="M26.58,34.8Z" transform="translate(-4.55 -9.405)" fill="#1f7762"/>
  <path id="Trazado_25140" data-name="Trazado 25140" d="M26.83,35a1.21,1.21,0,0,1-.25-.21h0A1.321,1.321,0,0,1,26.83,35Z" transform="translate(-4.55 -9.405)" fill="#1f7762"/>
  <path id="Trazado_25141" data-name="Trazado 25141" d="M47.15,34.15v-.84L46.84,33l-.59.59A6.56,6.56,0,0,0,47.15,34.15Z" transform="translate(-4.55 -9.405)" fill="#1f7762"/>
  <path id="Trazado_25142" data-name="Trazado 25142" d="M47.15,34.15c-.34-.19-.62-.34-.9-.53.31.19.59.4.9.59Z" transform="translate(-4.55 -9.405)" fill="#1f7762"/>
  <path id="Trazado_25143" data-name="Trazado 25143" d="M46.25,34.21v.9H47C46.66,34.71,46.47,34.46,46.25,34.21Z" transform="translate(-4.55 -9.405)" fill="#1f7762"/>
  <path id="Trazado_25144" data-name="Trazado 25144" d="M47.25,35.11a.38.38,0,0,0,.18,0,2.22,2.22,0,0,0-.15-.87h-.16C47.15,34.52,47.21,34.8,47.25,35.11Z" transform="translate(-4.55 -9.405)" fill="#1f7762"/>
  <path id="Trazado_25145" data-name="Trazado 25145" d="M47.4,34.21h-.12a2.22,2.22,0,0,1,.15.87,8.431,8.431,0,0,0-.03-.87Z" transform="translate(-4.55 -9.405)" fill="#1f7762"/>
  <path id="Trazado_25146" data-name="Trazado 25146" d="M28.07,64.76c-.1-.12-.19-.25-.31-.37V65C27.85,64.91,28,64.85,28.07,64.76Z" transform="translate(-4.55 -9.405)" fill="#1f7762"/>
  <path id="Trazado_25147" data-name="Trazado 25147" d="M46.25,32.72h-.31c0,.1.07.16.1.25C46.13,32.88,46.19,32.78,46.25,32.72Z" transform="translate(-4.55 -9.405)" fill="#1f7762"/>
</svg>
