<svg id="Calavera_nachos-sacramento" xmlns="http://www.w3.org/2000/svg" width="47.02" height="75.85" viewBox="0 0 47.02 75.85">
  <path id="Trazado_24816" data-name="Trazado 24816" d="M18.48,33.34Z" transform="translate(-6.78 -6.478)" fill="#1f7762"/>
  <path id="Trazado_24817" data-name="Trazado 24817" d="M28.06,40.36V40.3s0-.1-.07-.13-.06.16-.09.22a.29.29,0,0,1,.16-.03Z" transform="translate(-6.78 -6.478)" fill="#1f7762"/>
  <path id="Trazado_24818" data-name="Trazado 24818" d="M18.16,34.3Z" transform="translate(-6.78 -6.478)" fill="#1f7762"/>
  <path id="Trazado_24819" data-name="Trazado 24819" d="M24.83,47.41h.16c.06,0,0-.06,0-.1s-.06,0-.09,0a.09.09,0,0,1-.07.1Z" transform="translate(-6.78 -6.478)" fill="#1f7762"/>
  <path id="Trazado_24820" data-name="Trazado 24820" d="M25.54,42.88v-.16a.44.44,0,0,1-.19,0,.14.14,0,0,1,0,.1l.06-.06S25.54,42.85,25.54,42.88Z" transform="translate(-6.78 -6.478)" fill="#1f7762"/>
  <path id="Trazado_24821" data-name="Trazado 24821" d="M21.36,36.5Z" transform="translate(-6.78 -6.478)" fill="#1f7762"/>
  <path id="Trazado_24822" data-name="Trazado 24822" d="M18.45,39.34l-.25-.1a.24.24,0,0,0,0,.13h-.29l.26.1a.21.21,0,0,0,0-.13Z" transform="translate(-6.78 -6.478)" fill="#1f7762"/>
  <path id="Trazado_24823" data-name="Trazado 24823" d="M16.92,48.88h-.03Z" transform="translate(-6.78 -6.478)" fill="#1f7762"/>
  <path id="Trazado_24824" data-name="Trazado 24824" d="M18,23.58l-.09.19a.36.36,0,0,1,.09-.13Z" transform="translate(-6.78 -6.478)" fill="#1f7762"/>
  <path id="Trazado_24825" data-name="Trazado 24825" d="M13.12,26h-.25a.64.64,0,0,1,.25,0Z" transform="translate(-6.78 -6.478)" fill="#1f7762"/>
  <path id="Trazado_24826" data-name="Trazado 24826" d="M23.17,51.53v.06a.76.76,0,0,1,.09-.16h0C23.21,51.46,23.21,51.5,23.17,51.53Z" transform="translate(-6.78 -6.478)" fill="#1f7762"/>
  <path id="Trazado_24827" data-name="Trazado 24827" d="M15.87,43.17a1.291,1.291,0,0,1-.07.48c-.07.19.13.16.19.22v-.41a1.38,1.38,0,0,1-.12-.29Z" transform="translate(-6.78 -6.478)" fill="#1f7762"/>
  <path id="Trazado_24828" data-name="Trazado 24828" d="M12.8,41.8v.09h.26Z" transform="translate(-6.78 -6.478)" fill="#1f7762"/>
  <path id="Trazado_24829" data-name="Trazado 24829" d="M13.44,26.58h.26A.735.735,0,0,1,13.44,26.58Z" transform="translate(-6.78 -6.478)" fill="#1f7762"/>
  <path id="Trazado_24830" data-name="Trazado 24830" d="M11.53,20.58h.03S11.53,20.54,11.53,20.58Z" transform="translate(-6.78 -6.478)" fill="#1f7762"/>
  <path id="Trazado_24831" data-name="Trazado 24831" d="M29.94,10.11h0Z" transform="translate(-6.78 -6.478)" fill="#1f7762"/>
  <path id="Trazado_24832" data-name="Trazado 24832" d="M30,12.28,29.65,12h0Z" transform="translate(-6.78 -6.478)" fill="#1f7762"/>
  <path id="Trazado_24833" data-name="Trazado 24833" d="M19.76,44.13a.476.476,0,0,0,.06.28h-.28a2.76,2.76,0,0,1,.28.61,1.9,1.9,0,0,1,.26-1A.4.4,0,0,1,19.76,44.13Z" transform="translate(-6.78 -6.478)" fill="#1f7762"/>
  <path id="Trazado_24834" data-name="Trazado 24834" d="M28.38,16.43V16.4h0Z" transform="translate(-6.78 -6.478)" fill="#1f7762"/>
  <path id="Trazado_24835" data-name="Trazado 24835" d="M19.79,32.16V32h.26a2.36,2.36,0,0,1-.39-.38.843.843,0,0,1-.06.38C19.54,32.13,19.73,32.13,19.79,32.16Z" transform="translate(-6.78 -6.478)" fill="#1f7762"/>
  <path id="Trazado_24836" data-name="Trazado 24836" d="M28.76,14.64l.16-.06-.32-.19-.16.06A1.89,1.89,0,0,1,28.76,14.64Z" transform="translate(-6.78 -6.478)" fill="#1f7762"/>
  <path id="Trazado_24837" data-name="Trazado 24837" d="M24.83,16.14Z" transform="translate(-6.78 -6.478)" fill="#1f7762"/>
  <path id="Trazado_24838" data-name="Trazado 24838" d="M28.41,62.92a.45.45,0,0,1,.16-.22A.45.45,0,0,0,28.41,62.92Z" transform="translate(-6.78 -6.478)" fill="#1f7762"/>
  <path id="Trazado_24839" data-name="Trazado 24839" d="M27.07,54.27Z" transform="translate(-6.78 -6.478)" fill="#1f7762"/>
  <path id="Trazado_24840" data-name="Trazado 24840" d="M26.81,55Z" transform="translate(-6.78 -6.478)" fill="#1f7762"/>
  <path id="Trazado_24841" data-name="Trazado 24841" d="M27.35,68.28v.06h0Z" transform="translate(-6.78 -6.478)" fill="#1f7762"/>
  <path id="Trazado_24842" data-name="Trazado 24842" d="M32.11,21l.16.06v-.09c0-.03,0,0-.07,0Z" transform="translate(-6.78 -6.478)" fill="#1f7762"/>
  <path id="Trazado_24843" data-name="Trazado 24843" d="M29.21,65.22v.06a.76.76,0,0,1,.09-.16h0a.48.48,0,0,1-.09.1Z" transform="translate(-6.78 -6.478)" fill="#1f7762"/>
  <path id="Trazado_24844" data-name="Trazado 24844" d="M23.56,23.7c0,.07-.07.1-.07.13v.07a.57.57,0,0,1,.09-.16S23.59,23.74,23.56,23.7Z" transform="translate(-6.78 -6.478)" fill="#1f7762"/>
  <path id="Trazado_24845" data-name="Trazado 24845" d="M27.58,54.78V55a.73.73,0,0,0,.13-.1A1.531,1.531,0,0,0,27.58,54.78Z" transform="translate(-6.78 -6.478)" fill="#1f7762"/>
  <path id="Trazado_24846" data-name="Trazado 24846" d="M28.09,58.71Z" transform="translate(-6.78 -6.478)" fill="#1f7762"/>
  <path id="Trazado_24847" data-name="Trazado 24847" d="M28.66,62.6l-.32.32h0l.2-.19.12-.13Z" transform="translate(-6.78 -6.478)" fill="#1f7762"/>
  <path id="Trazado_24848" data-name="Trazado 24848" d="M28.06,81.71H26.14a1.31,1.31,0,0,1,0-.35l-1,.64a9.28,9.28,0,0,0,2.92-.29Z" transform="translate(-6.78 -6.478)" fill="#1f7762"/>
  <path id="Trazado_24849" data-name="Trazado 24849" d="M39.19,74.63Z" transform="translate(-6.78 -6.478)" fill="#1f7762"/>
  <path id="Trazado_24850" data-name="Trazado 24850" d="M42,75.91Z" transform="translate(-6.78 -6.478)" fill="#1f7762"/>
  <path id="Trazado_24851" data-name="Trazado 24851" d="M49.47,74.92c-.13-.07-.29-.23-.45-.23a4.9,4.9,0,0,0-.83.16,3.819,3.819,0,0,0-.45-.19c-.19.13-.38.23-.54.35a2.68,2.68,0,0,0-2.71,0c-.16-.13-.26-.26-.38-.36a2.64,2.64,0,0,0-.23.2c-.51-.26-.92-.48-1.59-.8L41.17,73a21,21,0,0,1-.35-2.77,6.55,6.55,0,0,0-.16-1.41,5.54,5.54,0,0,0-.48-1.34l.29-.29.32-.31c0-.32-.07-.67-.1-1,0-.09-.13-.16-.16-.16.1-1,1.06-1.53.9-2.52a5.11,5.11,0,0,0,1.08-2.49h2c.22-.22.38-.41.48-.51A7.81,7.81,0,0,1,44,58.29a4.93,4.93,0,0,0-.57-1.53,6.3,6.3,0,0,1-1.09-2.9c0-.38-.51-.74-.92-1.25a1.06,1.06,0,0,0,0-.7c-.2-.32-.48-.54-.07-.92.1-.1-.22-.51-.19-.77a4.51,4.51,0,0,0-.89-2.65,14.31,14.31,0,0,0-1.63-2.84,6.69,6.69,0,0,1-.93-1.18,12.46,12.46,0,0,0-1.11-1.27c-.16-.2-.42-.26-.61-.42l-1.85-1.24c-1.18.06-1.21-1.5-2.17-1.73-.06-.89-.13-1.66-.19-2.45a3.56,3.56,0,0,1,1.5.35,23.65,23.65,0,0,0,3.16,1.75c.86-.22,1.59-.41,2.52-.67,1.4-1,.8-2.65.92-4.08.36-.29.9-.55.9-.77,0-.86.83-1.15,1-2.17V26.93c-.71,0-.83-.58-1.09-1.06h-1.4c.19-.73.35-1.43.54-2.1l-.19-.19c.13-.29.28-.55.41-.83h.16c.38,0,.8-.16,1.12.28.06-.06.16-.19.22-.19.45-.06,1.15.1,1.34-.16.32-.44.64.1,1-.19s.89-.09,1.37-.09h1.28a3.18,3.18,0,0,0,1-.32,2.87,2.87,0,0,1,1.75-.29l.9-.89c-.13-.48-.29-1.06-.42-1.6-.95-.19-.95-.19-1.37-1a2.71,2.71,0,0,1-1-.41,1,1,0,0,0-1.27-.22c-.39.22-.58.28-.93,0-.1-.1-.48.47-.86.06-.13-.13-.64.13-.83,0a1.36,1.36,0,0,0-1.57.13c-.06.06-.25-.07-.31-.1.06-.44.89-.54.47-1.11l-.83.28V15.25l.9-.61V12.22a9.46,9.46,0,0,0-2-1.18c-.86-.26-1.09-1.28-2-1.41-.13,0-.22-.22-.35-.29-.8-.47-1.6-.92-2.55-1.46.28-.51.51-.93.76-1.34-.8-.26-1.08.35-1.53.79.22.1.41.16.64.26a3.374,3.374,0,0,1-.13.61,3.67,3.67,0,0,0-.89-.42,6.59,6.59,0,0,1-2-.29c-.38-.12-1-.31-1.4.16a.114.114,0,0,1-.07.1h0c.1.06.16.16.26.22l-.1.1c-.06-.1-.16-.16-.22-.26h0c-.22-.13-.45-.22-.64-.32L29,8c.13.51.26,1.06.39,1.53a5.68,5.68,0,0,1-.9.67,10.88,10.88,0,0,0-2.77,1.73A5.11,5.11,0,0,0,24,12a.8.8,0,0,0-.22.12,2.55,2.55,0,0,0-.26-.19c-1,.58-2.42.64-2.68,2.43.29,1-.51,2.13-.73,3.47-.42.29-.7.93-1.34,1.09-.64-1.44-1-3-2.08-4a5.75,5.75,0,0,0-.86-2.75,4.49,4.49,0,0,1-.7-3c.16-.16.32-.28.51-.48a5.44,5.44,0,0,0,.54.29c.61-.51,1.25-.19,1.82.13a3.33,3.33,0,0,1,.29-.26c.86.29,1.63.55,2.39.77.13-.32.29-.64.48-1-.29-.22-.6-.48-1-.83a44.14,44.14,0,0,1-4.59,0,13.47,13.47,0,0,1-4.31-1c-.64.73-.77,1.34-.35,1.72h.86c0,.42-.19.89,0,1.12a1.59,1.59,0,0,1,.19,1A10.37,10.37,0,0,1,11.53,13,25.46,25.46,0,0,0,11,16.43c-.22,1.21-.22,2.46-.35,3.67a1.53,1.53,0,0,1-.29.51,2.14,2.14,0,0,0-.31.8c0,1.08-.48,2.1-.36,3.22a26.57,26.57,0,0,1,0,4,4.23,4.23,0,0,1-.25,1c.1.41.35.89.22,1.05-.48.64-.25,1.31-.28,1.95a9.56,9.56,0,0,1-.07,2.52A9.05,9.05,0,0,0,9,37a11,11,0,0,0-.29,1.78,3.9,3.9,0,0,1-.35,1.92,2.88,2.88,0,0,0-.29,1.69l-1,2.2a4.32,4.32,0,0,1-.29.38h1.5c.26.26.42.58.61.61a5.87,5.87,0,0,1,2.29,1c.74.38,1.6.64,1.82,1.56a3.21,3.21,0,0,1,2,1.6c.12.19.54.25.57.44.19.71.8,1,1.28,1.47a20.459,20.459,0,0,0,1.43,1.5c.67.48,1.15,1.18,1.79,1.69h.57A9.86,9.86,0,0,0,21,53.41c.16-1.27.22-2.55.32-3.83v-.32c.57-.51.06-1.24.35-1.75A4.14,4.14,0,0,0,22,45.56c0-.25-.09-.64,0-.76.51-.51.16-1.12.28-1.63a5.62,5.62,0,0,0,.32-1.63c0-1.4.19-2.77.29-4.18V37.2a5.44,5.44,0,0,0,.61-3.51c1.11.42,1.34,1.28,1.72,2,.64,1.06,1.24,2.14,1.94,3.32-.76-.06-.73.77-1.37.83a2.87,2.87,0,0,0-1.27.7c-.48.32-.9.67-1.31,1-.19.64.09,1.25-.23,1.88a5.8,5.8,0,0,0-.15,1.85c-.07.61-.23,1.19-.32,1.79s.16,1.12-.29,1.6c.7.57-.19,1.08-.1,1.66a7.19,7.19,0,0,1-.25,1.78c-.07.61.13,1.25-.35,1.76A1.87,1.87,0,0,1,21.61,56c.13.48.26.86.45,1.5.35.35.89.83,1.47,1.37v2.49c.54.19,1,.35,1.56.54v1.15c0,.13-.16.26-.19.38a7.81,7.81,0,0,1-1.09,3.07,2.8,2.8,0,0,1-1.18,2.39A15.13,15.13,0,0,1,21,73.13c-.51.16-.95.32-1.5.48-.67-1.18-1.69.57-2.45-.26-.8.16-1.6.29-2.43.45l-.51-.51c-.29.45-.73.29-1.15.32s-.73,0-1.11,0-.64.51-1,0c-.2-.22-.55.61-.83,0a3.72,3.72,0,0,1-1,.58A3.84,3.84,0,0,1,8,74.06c-.06.06-.22.19-.41.38a5.51,5.51,0,0,1,.35,1.28,9.38,9.38,0,0,1,0,1.59,3.07,3.07,0,0,0,.48,2c.41,0,1-.19,1.24,0a1.46,1.46,0,0,0,2-.1c.64-.51,1,0,1.53,0a2.8,2.8,0,0,1,1-.26c1.6,0,3.19.07,4.75,0a4.88,4.88,0,0,1,2.81.86c-.16.29-.25.48-.32.64.61.45,1.18-.19,1.82.07a6.27,6.27,0,0,0,2.17.06c-.06.1-.09.16-.16.26l.86.28v-.41h5c.07,0,.13.16.2.19l.92-.54c-.92-1.44-2.33-2.17-3.41-3.26-.87.07-1.31-.7-1.95-1-.06,0-.06-.16-.13-.32.1-.13.23-.29.42-.57l-.77-.45c.29-.25.45-.51.58-.51,1.59.16,3.22-.38,4.81.29a2,2,0,0,0,.93,0c.16,0,.19-.26.48-.1a4.6,4.6,0,0,0,2.74.45c-.13.41-.22.73-.25.89.32.57.54,1,.83,1.56.35.39.79.9,1.21,1.34,1.12.13,2,.87,3.16.67s2.14.9,3.32,0c.16.23.38.48.51.67.48-.13.83-.25,1.21-.32a9.878,9.878,0,0,1,1.44,0,11.249,11.249,0,0,0,1.46-.32.7.7,0,0,0,.2-.16c-.16-.16-.32-.32-.45-.48-.54,0-1.18-.19-1.57,0-.6.35-1-.23-1.53-.07a7.12,7.12,0,0,1-1.69,0c.32-.32.48-.44.54-.51l1.15.19.13-.22a5.741,5.741,0,0,0-.64-.35v-1.3a6.765,6.765,0,0,0,1.12-.06l.19.19.86-.86a3.4,3.4,0,0,0,.13.38h.38c.1-.19.19-.41.32-.67a4.76,4.76,0,0,0,.48.67c.26-.13.51-.25,1-.45-.26.58-.45,1-.61,1.38.07,0,.13.09.19.12.19-.22.39-.41.51-.54.39.07.74.13,1,.16.16-.32.26-.51.39-.73.92.89.92.89.09,1.69-.25-.13-.51-.26-.86-.42-.19.32-.35.61-.51.93.67.16,1.18.25,1.72.38.55-.22,1.12-.48,1.6-.67.29-.29.51-.51.83-.8V76.1c-.54-.45-1-.83-1.56-1.25C51.35,75.46,50.42,74.22,49.47,74.92ZM9.58,77.15a.32.32,0,0,0-.16,0,2.65,2.65,0,0,0-.13-.54.92.92,0,0,0,.29,0Zm1.21.07h-.44a2.58,2.58,0,0,0-.13-.58,3.521,3.521,0,0,0,.57-.13Zm3.58-2.49v.51H11.3a5.55,5.55,0,0,1,3.07-.51Zm-.1,3.44h-.09v-.32h.09ZM21,77.41s-.16.06-.28.12l-.45.26c-.06-.06-.16-.22-.25-.22-2.14.06-4.22-.64-6.32-.32-.55.09-1.18-.26-1.79.25v.26a2.108,2.108,0,0,0-.61.06v-.19l.57-.1c.13-.35.23-.57.32-.82l-.51-.52c0-.06.07-.19.13-.19,1-.51,2.11-.25,3.35-.35l-.32-.48.39-.38c1-.32,2.2.32,3.22-.35a2.89,2.89,0,0,0,1.85.29h.38a1.58,1.58,0,0,1,.38,0,1.76,1.76,0,0,1,.39.06l.28.29A16.909,16.909,0,0,0,21,77.41Zm20.2-3.07h.1v.32h-.1Zm-.92-1.66c.16.42.35.83.51,1.25l-.23.09c-.25-.38-.51-.73-.76-1.14A5.178,5.178,0,0,0,40.28,72.68ZM41,61.61h-.1v-.32H41Zm.51-4.43.8,1.11c-.79.07-.88,0-.82-1.11Zm-.19,2.23a.93.93,0,0,1-.42,1.28.9.9,0,0,1,.4-1.28Zm-.19-1-.48,1c-.67.22-1.5.51-2.36.83v.89l.51-.45c.19.1.38.23.57.35a4,4,0,0,1,.42-.32v2.88h-.16c-.07-.51-.1-1-.16-1.53h-.13c-.06.32-.13.64-.19.92h-.48c0-.51-.1-1.05-.13-1.59h-.19c0,.38-.06.79-.09,1.18a2.261,2.261,0,0,0-.2.13v-.74c-.16.1-.29.22-.45.32V60.72H37c.13.32.22.57.45,1.08l-1-.38c-.13.06-.29.16-.45.25v.55H35l.32-.55c-.57-.22-1-.41-1.53-.57v.8c.16.06.35.16.54.25a10,10,0,0,1-.47.9c-.2-.58-.39-1.06-.61-1.66H30.58c-.48,0-1.15-.19-1.37,0-.39.41-.83-.22-1.12.35v-1c1,.77,1.91-.25,2.93-.09a21.17,21.17,0,0,0,3.19,0c.23-.19.45-.42.61-.58l.74.36a2.2,2.2,0,0,0-.23.54,4.549,4.549,0,0,0,0,.64H36V61.2c.22-.1.41-.19.67-.29a3.225,3.225,0,0,0-.1-.51c-.16.13-.25.22-.44.35a2.94,2.94,0,0,1-.13-.51c.86-.16,1.69-.35,2.49-.51a1.78,1.78,0,0,1,.13-.48c.35.1.7.16,1.08.26.1-.39.38-.74-.06-1l-.1.19a2.041,2.041,0,0,0-.6.06v-.19a3.154,3.154,0,0,0,.61-.13h0l.54-.45c.16-.86.32-1.82.54-3,.37,1.26-.22,2.44.48,3.4Zm-3.48,6c-.35.06-.64.09-.93.13a1.741,1.741,0,0,0-.12-.23c.22-.06.47-.16.73-.22-.08-.09.08.04.3.3Zm.61-.54h-.64v-.6a4.26,4.26,0,0,0,.61.38,6.3,6.3,0,0,0,.57-.48,2.64,2.64,0,0,1-.32,2.08,1.64,1.64,0,0,1-.22.25,3.41,3.41,0,0,1,.06-1.53Zm-.07,2.29v.55a.32.32,0,0,0-.16,0,2.65,2.65,0,0,0-.13-.54.75.75,0,0,1,.27-.03Zm-1.53.93c.35.16.64.29,1.18.51h-1.2Zm1.47,1,.32.28.19-.57h.22c.51.7.51.7-.16,1.44a4.16,4.16,0,0,0-.25-.64l-.74.29a4,4,0,0,0-.41-.42c.27-.16.52-.28.81-.47ZM39,71.18a2.531,2.531,0,0,0,.22.26h.23a2.108,2.108,0,0,0,.06.61h-.19a2.93,2.93,0,0,0-.13-.57h0c-.09-.07-.16-.16-.25-.23S39,71.22,39,71.18Zm0-4a1.9,1.9,0,0,1,0-1.5,5,5,0,0,0,.23-1.81A4.53,4.53,0,0,1,39,67.16ZM35.68,64.9V65h-.32v-.1Zm-.54.86v-.32h.1v.32Zm.13,1V67h-.1v-.32Zm0-2.91c-.07-.09-.16-.16-.23-.25l-.28.29-.93.92h0l-.38,1.25H31.92c0-.16-.07-.29-.1-.55l-1.12-.22.87-.29v-.83h0c-.09-.06-.16-.15-.25-.22l.09-.09c.07.09.16.16.23.25h0l.79-.12c-.31-.48-.54-.83-.79-1.15a.53.53,0,0,1-.13-.1l-.32.1a4.089,4.089,0,0,0-.32-.35,2.59,2.59,0,0,0,1.66.12c0,.19.1.48.16.86.54-.54,1.05-.31,1.59.1.29-.35.52-.7.87-1.15v1.05h0c.09.07.16.16.25.23Zm-6.61.32h-1.5v1.25l-.22.12c-.1-.22-.19-.44-.42-.89.07-.13.23-.6.35-.89l1.82.22a.44.44,0,0,0-.06.15Zm0,4.12c-.09.35-.25.83-.41,1.37a7.339,7.339,0,0,0-.36-.67,8.311,8.311,0,0,0,.74-.74Zm-1.56-14h0c.06-.09.16-.16.22-.25h0l.1.09c-.1.07-.16.16-.26.23h0c0,.23.13.58-.29.64h0c-.06.1-.16.16-.22.26l-.1-.1c.1-.06.16-.16.26-.22h0c0-.25-.16-.6.26-.64Zm.51.48c.22-.16.44-.28.73-.48v.61a4.871,4.871,0,0,1-.63,0h0c-.1.32-.2.61-.32.93h0c.09.06.16.16.25.22l-.09.1c-.07-.1-.16-.16-.23-.26h0c-.39,0-.39-.29-.26-.51a1.1,1.1,0,0,1,.42-.35.77.77,0,0,0,.1-.25Zm.28,4.28-.09-.1c.09-.06.16-.16.25-.22h0v-.89c.29.54.29.54,0,.89h0v.06a2,2,0,0,0-.19.27Zm.1,3.19v.32h-.1v-.32Zm-.32-2.87v.32h-.09v-.32Zm-.57,3.09a1.907,1.907,0,0,0-.55.13,1,1,0,0,0,0-.29H27a.32.32,0,0,1,.07.17Zm-.42-9.15c-.06-.1-.16-.16-.22-.26l.06-.06a2.1,2.1,0,0,0-.54.35c-.38-.54.13-.67.45-1.06a6.55,6.55,0,0,0,.06.67,1,1,0,0,0,.29.26Zm-.28,2.58v.32h-.1V55.9Zm-.29,7.63a.89.89,0,0,0,0,.28h-.54a.32.32,0,0,0,0-.16,3.489,3.489,0,0,1,.51-.11Zm0,2.23v.64h-.16v-.64ZM26.4,68v.16l-.51.12V68Zm-.16-1v-.32h.09V67Zm0-5.72V61h.54v.16a2.85,2.85,0,0,0-.54.16Zm2.17,1.6c-.07.1-.16.16-.23.26l-.09-.1c.09-.06.16-.16.25-.22l.07.06a1.43,1.43,0,0,1,.28-.35c0-.22,0-.38,0-.58a1.11,1.11,0,0,0,.16-.12c.09.22.16.44.22.64a3.169,3.169,0,0,0-.45.09.42.42,0,0,1-.12.1Zm1.11,1.91.1.1c-.1.06-.16.16-.26.22h0a.76.76,0,0,0-.09.16,1,1,0,0,1,.06.26,2.639,2.639,0,0,0-.35.32c.1-.39.16-.58.22-.77v.1a.81.81,0,0,0,.06-.13,1.74,1.74,0,0,0,.26-.22Zm-.09-.35v-.32h.09v.32Zm-.1,1.92c.23-.22.48-.42.7-.64a1,1,0,0,0,.23-.29h0c-.1-.06-.16-.16-.26-.22l.1-.1c.06.1.16.16.22.26h0l.32.42.29.38a1.82,1.82,0,0,0-.29.32c.09.09.19.22.29.32l-.45.44c-.16-.09-.32-.19-.51-.28-.26.19-.51.38-.77.6-.16-.25-.32-.54-.48-.83a2.7,2.7,0,0,0,.61-.34Zm.7-3.83v-.64h.16v.64Zm.58,1.82v-.1h.32v.1ZM28.44,55.9v-.64h.16v.64ZM29,52.58a2.639,2.639,0,0,0,.35-.32,5.79,5.79,0,0,1-.22.77h0v-.1a1.94,1.94,0,0,0-.19.32c-.09.16,0,.16.06.23s-.13.09-.35.31c.1-.38.16-.57.22-.76v.09a3.3,3.3,0,0,1,.19-.31A.68.68,0,0,1,29,52.58Zm.93,7a.75.75,0,0,1,.61-.77h0c.06-.1.15-.16.22-.26l.09.1c-.09.06-.16.16-.25.22h0a.79.79,0,0,1-.64,1v.57c-.29,0-.61.07-1.28.1.64-.35,1-.51,1.28-.67Zm-.77-.48c.1-.16.26-.35.42-.61a5.249,5.249,0,0,0,.13.61Zm0-1.25h-.1V57.5h.1Zm1.72.2c.09-.07.16-.16.25-.23a1.366,1.366,0,0,0,.23-.25l.09.09c-.09.07-.16.16-.25.23a1.366,1.366,0,0,0-.23.25c-.07.09.03-.14-.04-.14Zm1.75,1.05a.28.28,0,0,0,.07.13.48.48,0,0,0,.09-.13,1.39,1.39,0,0,0,.29-.35c.06-.1.16-.16.22-.26l.1.1c-.1.06-.16.16-.26.22h0a2.3,2.3,0,0,0-.38.54.376.376,0,0,0,.06.23c.06.1-.09.09-.35.35a7.451,7.451,0,0,1,.21-.87Zm-.19-1.37v-.1h.32v.1Zm-.57-3.13v-.16a3.181,3.181,0,0,0,.51-.13v.29Zm1.82,1.53c.28-.16.54-.25.83-.41.22.09.51.25.76.38-.09.16-.19.35-.29.51a1.7,1.7,0,0,0,.36.29c.09.06.16.16.25.22l-.09.1c-.07-.1-.16-.16-.23-.26h0L35,56.57l-.31.22c-.23.23-.42.48-.64.71a1.23,1.23,0,0,0-.29.35c-.06.09-.16.16-.22.25l-.1-.09c.1-.07.16-.16.26-.23h0l.32-.31a6.5,6.5,0,0,0-.28-1.38Zm1-1.91s.12-.1.35-.32a7.731,7.731,0,0,1-.23.76s0-.06,0-.09a.348.348,0,0,1-.06.13c-.06.07-.16.16-.23.25l-.09-.09c.09-.07.16-.16.25-.23h0a.57.57,0,0,0,.09-.16Zm1.81-1.09c-.6.29-.95.48-1.4.67a3.18,3.18,0,0,0-.13-.67ZM35.07,50.2v-.64h.16v.64ZM36,51.21v.16h-.64v-.16Zm-.22-2.65v-.32h.09v.32Zm.29-.64v-.64h.16v.64Zm.25,8.52h-.29V55.9h.16A3.22,3.22,0,0,1,36.32,56.44Zm-1,1.18c-.09.07-.16.16-.25.23h0l-.31.32a13.291,13.291,0,0,0-.07,1.79c-.22-.45-.35-.67-.51-1,.13-.22.29-.54.51-.92a.19.19,0,0,0,.22-.07.4.4,0,0,0,.1-.16c.06-.09.16-.16.22-.25a.36.36,0,0,1,.1.06ZM33.67,59.7V60h-.09v-.3Zm4-7.53c-.16.19-.26.28-.45.51a12.886,12.886,0,0,1,1.57.06c.16.32.25.58.41.86h-.9a3.53,3.53,0,0,1-.13-.54H37v-1a4.841,4.841,0,0,0,.63.11Zm-.42-1.57.55-.67a5,5,0,0,0,.16.8,2.6,2.6,0,0,0-.48.1Zm.36,3.29A2.59,2.59,0,0,0,37,54a1,1,0,0,0,0-.29h.54a1.23,1.23,0,0,1,.03.18Zm-.45,2c-.07.19-.1.38,0,0,.25-.42.41-.64.63-1,.2.32.39.54.52.77.41-.29.7-.55,1.3-1-.25.6-.35.89-.47,1.21H37.21a.271.271,0,0,1-.06.16,1.54,1.54,0,0,1,.1.35s-.1.09-.35.35a6.207,6.207,0,0,1,.22-.83Zm2-3.25v-.16h1v.16Zm.93.57a3.181,3.181,0,0,0-.51.13v-.29h.55Zm-1.85,5v.1h-.32v-.1Zm-1-.32V58H37v-.1Zm1.59-8.58h.32v.09h-.32Zm-.22-2.65h.1V47h-.1Zm-.06,3.22h.16a3.139,3.139,0,0,0,.12.51h-.28Zm.76,1.56a1.38,1.38,0,0,1,.74,0h0c.06-.09.16-.16.22-.25l.1.09a.5.5,0,0,0-.13.13c-.03.06.06,0,.1.06a2.94,2.94,0,0,1-2.3.58,1.4,1.4,0,0,1-.39-.1,3.8,3.8,0,0,1,.83-.16,1,1,0,0,0,.87-.33Zm-1.66-1.69a3.38,3.38,0,0,1,.83-2.39,2.92,2.92,0,0,1-.79,2.41Zm.23-4.59h.32v.09h-.32Zm-.13,1.15c.06.16.09.35.22.7a2.39,2.39,0,0,0-.35.38,2.74,2.74,0,0,0-.25.58c-.2.48-.36,1-.55,1.59-.57-.83.23-1.15.48-1.63.01-.55-.25-1.16.49-1.6Zm-.89-.93v.9h-.71c.23-.26.32-.35.45-.51-.1-.1-.22-.19-.51-.45a4.01,4.01,0,0,0,.81.08Zm-.71-2.52c0,.13.13.22.1.29-.13.41-.29.8-.48,1.27-.16-.47-.32-.95-.54-1.56Zm-1.46-.57H35v.09h-.31ZM35,43.52a.3.3,0,0,0,0,.16,2.65,2.65,0,0,0-.54.13,1,1,0,0,0,0-.29ZM34.63,47a2.81,2.81,0,0,0,.37-.7,6.24,6.24,0,0,0,.26-.8v-.07c.06-.19.09-.41.16-.6a.48.48,0,0,1,.22-.07h.06c.1,0,.16.1.36.2-.42.89-.83,1.78-1.28,2.77h.32c.16-.22,0-.25-.1-.28a1.1,1.1,0,0,1,.45-.13,4.089,4.089,0,0,0,.32.35c-.29.06-.51.06-.67.1a4.32,4.32,0,0,1-.67.73c0-.58-.07-.89-.07-1.28C34.47,47.13,34.57,47,34.63,47Zm-.29,3.31c-.76.29-1.27.48-1.82.71a3.46,3.46,0,0,1,.07.41c.51.29,1.08-.83,1.59.16l-1.34.64a2.159,2.159,0,0,0,.1.25l1.72-.38a3.74,3.74,0,0,1,.16.61c-.45,0-.83.09-1.28.13-.15.25-.35.57-.54.92a1.65,1.65,0,0,1-1.24-1h-.48c-.06.26.16.61-.32.64a.28.28,0,0,1-.1.13v.09a.391.391,0,0,0,.06.23c.06.07-.13.09-.35.32a7.91,7.91,0,0,1,.22-.77h0a3.52,3.52,0,0,1,.16-.51c0-.09.1-.16.29-.16v-.54a3.63,3.63,0,0,1-.38-.09,6.551,6.551,0,0,0-.48.54v.16c-.29.6-.57,1.21-.89,2-.35-1,.19-1.44.76-1.86v-.12c.1-.48.2-1,.29-1.47-.67-.48-.76.57-1.28.51s-.79.22-.95.77a6.61,6.61,0,0,1-.93,1.4,8.07,8.07,0,0,0,.23-1.34,1,1,0,0,0-.1-.38.231.231,0,0,0-.06-.19c-.06-.06,0,0,0-.07h0a3.5,3.5,0,0,1,1.66-.86,7.66,7.66,0,0,0,1.09-.35c.19-.51.35-1,.54-1.63l.93.64c.51-.1.95-.77,1.69-.48l-.32.8a4.89,4.89,0,0,1,1.3.11Zm-6.25-1.75V48.4a6.379,6.379,0,0,0,.86-.13v.29ZM29,50v.09h-.32V50Zm.8-1.41c.35.61-.16.7-.35,1-.34-.65.17-.74.36-1.03Zm-.19-1.82h.29v.54a.23.23,0,0,0-.16,0,2.63,2.63,0,0,0-.12-.57Zm3.22.67a2.91,2.91,0,0,0,.55-.13.92.92,0,0,0,0,.29h-.55a1.571,1.571,0,0,0,.01-.19Zm.74,1.15v-.32h.09v.32ZM33.5,46.1h.16a3.181,3.181,0,0,0,.13.51H33.5Zm-.38-2.49h.32v.1h-.32Zm-.13.9h0l.1.09c-.1.07-.16.16-.26.23a.862.862,0,0,0-.22.25l-.1-.09c.1-.07.16-.16.26-.23s.17-.22.23-.28Zm-.92-2.65.19-.86c.22,1.27.22,1.27-.51,2,.17-.57.25-.85.33-1.17Zm-.23,1.63c-.12.22-.25.41-.41.67-.29-.29-.77-.48-.38-1,.12.12.25.22.35.32.12-.1.22-.2.35-.29.04.11.14.2.1.27Zm-.44-2-.71.35-.41-.41.57-.58a5.824,5.824,0,0,1,.16-.89c.1.13.23.19.23.28.07.38.1.82.17,1.27Zm-.19-1.95v-.09h.31v.09ZM43.69,18.89c.77-.29,1.5.12,2.3.12a2.15,2.15,0,0,1,1,.32c.48.23.95.51,1.43.8v.61a5.46,5.46,0,0,1-1.05.41,5.2,5.2,0,0,1-1.24.07H44.81c-.42,0-1-.16-1.25,0-.44.38-.86-.19-1,0-.32.41-.64-.1-1,.19s-.77.19-1.06-.26a3.21,3.21,0,0,1-2.68.23v-.13h0c-.47-.1-1,.16-1.46-.29-.16-.16-.67.16-1.06.13a4.8,4.8,0,0,0-1.21.38c-.13-.13-.25-.25-.45-.48.36-.06.64-.09,1-.16v-.51H32.87c-.44.67.48.42.52.77-.45.35-.8,0-1.19-.16a.12.12,0,0,0,0,.1.87.87,0,0,1-.9.12.107.107,0,0,1-.09-.06.4.4,0,0,1-.13-.13h0c-.07-.06-.1-.13-.16-.19h0c-.07-.07-.1-.16-.16-.23.38.13.57.23.76.29a2,2,0,0,0,.52.16l.06-.06v-.58a12.458,12.458,0,0,1-1.5-.06h-.06a1.28,1.28,0,0,1-.32-.29H28.09c-.13,0-.26-.19-.38-.29a9.64,9.64,0,0,1-2.59-.16,2.5,2.5,0,0,1-.57-.28h0a5,5,0,0,1,3.16.44h0a8.66,8.66,0,0,0,.92-.35c-.06-.09-.13-.25-.22-.25H27.26c-1-.7-.22-1.31,0-2,1,.79,2.46.48,3.44,1.34.39-.45.74.16,1.15.06a5.78,5.78,0,0,1,1.44,0,14.163,14.163,0,0,1,1.66.22,2.18,2.18,0,0,1,.32-.22c.13.22.29.42.41.64.29-.06.55-.13.86-.22a3.09,3.09,0,0,1,.16.47,4.568,4.568,0,0,1,.77.13L38,20h1.1a5.471,5.471,0,0,1,.09-.54h1.06c.22-.25.41-.51.6-.73C41.84,18.82,42.8,18.41,43.69,18.89ZM30.58,20.77a2.389,2.389,0,0,0-.51.13v-.29h.55a.15.15,0,0,0-.04.16Zm-2.17-4.31h0a2,2,0,0,1-.23.26h0l-.09-.1a1.64,1.64,0,0,0,.25-.22c0-.07,0-.13,0-.23a2.041,2.041,0,0,0,.6-.06v.19Zm.48.29v.32h-.1v-.32Zm.76-1.63c.54-.29.54-.29.9,0l.19.13a3.12,3.12,0,0,1,.32-.1,2.916,2.916,0,0,0,.31.35c-.38-.09-.57-.16-.76-.22h.06a3.51,3.51,0,0,0-1.02-.16Zm.61.86-.1.1c-.06-.1-.16-.16-.22-.26a.7.7,0,0,0-.26-.22l.1-.1c.06.1.16.16.22.26a2,2,0,0,0,.26.24Zm0,.51v.16h-1v-.16Zm-.38.83h-.55v-.16a2.389,2.389,0,0,0,.51-.13.82.82,0,0,1,.07.29Zm-.13-7.56c.06.1.16.16.22.25h.64c.13-.51.29-1,.45-1.69l1.08.7,1,.09v.26H31.8c-.09,0-.16.19-.22.32.13.06.25.13.48.22a2.123,2.123,0,0,1,.35-.25c.26-.16.83.67,1.37.19-.1-.13-.22-.23-.32-.35a2,2,0,0,1,2,.22c.93.7,2.17.73,3,1.56.1.07.32,0,.51,0,.35.45.93.77,1.15,1.34-.73.64-1.08-.06-1.82-.67l.55,1.41a5.44,5.44,0,0,0-.67.38c-.55-.1-1.25-.19-2.27-.35a9.78,9.78,0,0,0-2.65-1.15,3.08,3.08,0,0,1-1.12-.73c-.54-.48-1.08-1-1.62-1.47-.13.09-.26.22-.39.32-.06-.1-.16-.19-.22-.29h-.06c-.1-.06-.16-.16-.26-.22a.191.191,0,0,0,.19-.09Zm-.32,1.91c.06.1.16.16.22.26h0l.32.32h.64l-.32-.54c.57-.29.73.16,1,.54l.32.32c.25.06.6-.16.63.32a1.75,1.75,0,0,1,1.31.73,1.7,1.7,0,0,0,1.31.51,16.93,16.93,0,0,1,3.06.42,3.1,3.1,0,0,1,.1.54,5.566,5.566,0,0,1,.93.06c-.13-.25-.23-.38-.32-.57.6-.13,1.21-.29,2.1-.48-.86,1.31-1.21,2.43-.41,3.67-.39.26-.67.48-1.06.73-.31-.28-.54-.51-.86-.82h-1c.13-.36.22-.58.38-1-.7.22-1.18.35-1.91.57.54.1.83.13,1.15.19v.48c-2.14.48-4.18-.48-6.41-.16.41-.54.73-.92,1-1.31a8.72,8.72,0,0,0-.9,0,2.6,2.6,0,0,0-.06-.61c.41.23.7.39,1.15.61.06,0,.32-.06.76-.13a1.54,1.54,0,0,0,.39.16c.19.07.38,0,.57.26-.41,0-.83.09-1.28.13a13,13,0,0,0,3.42.95,5.367,5.367,0,0,1,.09-.67H34.5a.56.56,0,0,0,0-.22c.29-.06.54-.13,1.12-.29-.35-.09-.55-.16-.74-.22-.38-.48-1-.07-1.59-.51-.35-.29-1.09-.07-1.63-.07a.915.915,0,0,0-.06-.44c.28-.19.57-.35,1-.61a2.546,2.546,0,0,0-.32-1.85c-.25-.06-.6.16-.63-.32l-.32-.32h-.64a3.56,3.56,0,0,0,1.72,1.53c-.19.26-.35.45-.51.67H30.07A2,2,0,0,0,30,12.3a1.39,1.39,0,0,0-.35-.28c-.09-.07-.16-.16-.25-.23a.2.2,0,0,1,.06-.12Zm.42,1.25a1,1,0,0,0,0,.29H29.3a.29.29,0,0,0,0-.16,3.32,3.32,0,0,1,.58-.13ZM29.33,14h.32v.1h-.32Zm-.64.38H28.6l.32.19a.278.278,0,0,0,.22-.07c.06-.07.1.13.32.36-.38-.1-.57-.16-.77-.23h.1l-.32-.19a.31.31,0,0,0-.22.06c-.06.06-.1-.13-.32-.35a4.64,4.64,0,0,0,.76.2Zm-1.27.32h0a2.05,2.05,0,0,1,.51.16c.09,0,.16.09.16.28a8.43,8.43,0,0,0,.89,0,2.6,2.6,0,0,0,.06.61l-1.15-.61c-.09-.09-.44.13-.47-.35a.36.36,0,0,1-.13-.09l-.32.09s-.1-.12-.32-.35a3.516,3.516,0,0,0,.77.23Zm-1,1c.06-.13,0-.29.1-.57l.6.6-.83.48a1.35,1.35,0,0,1-.16-.19c.11-.17.27-.26.33-.39Zm-.89-2h.16a3.138,3.138,0,0,0,.12.51h-.28Zm-.1,2-.09.1c-.07-.1-.16-.16-.23-.26a.862.862,0,0,0-.25-.22l.09-.1c.07.1.16.16.23.26a1.86,1.86,0,0,1,.29.18Zm-.6-1.37h.31v.1h-.31Zm-.2-1.69h.1v.32h-.1Zm0,3.22c.07.1.16.16.23.26h0c.25,0,.6-.16.63.32.26.06.61-.16.64.32a.36.36,0,0,1,.13.09l.32-.09a2.639,2.639,0,0,0,.32.35c-.39-.1-.58-.16-.77-.22h0a2.05,2.05,0,0,1-.51-.16c-.09,0-.16-.09-.16-.28-.22,0-.57.12-.63-.29h0c-.09-.06-.16-.16-.25-.22s.06-.09.09-.12Zm1.57,1.79a5.29,5.29,0,0,0-.61.13,8.23,8.23,0,0,0-.19-.9,10.27,10.27,0,0,0,.84.73Zm-.9-.45c-.7.55-.95-.28-1.24-.48a12.218,12.218,0,0,1,1.28.44Zm-1.08.67a9.649,9.649,0,0,0,1,.19c.42,0,.86-.06,1.12.71l-2.59-.48a4.13,4.13,0,0,0,.51-.46Zm-1,.93h.32v.09h-.32Zm-3.1,9.76h.16v.64h-.16ZM20.05,26v.55a.29.29,0,0,0-.16,0,3.53,3.53,0,0,0-.13-.54.73.73,0,0,1,.29-.01Zm.06,2.11h-.29v-.83H20a5.15,5.15,0,0,1,.11.86Zm-.51,1.08a5.6,5.6,0,0,1,.06,2.43,2.36,2.36,0,0,0,.39.38c0,.29.06.54.09.9a2.421,2.421,0,0,0-.73.09,2,2,0,0,0,.41-.54.8.8,0,0,0,0-.32c-.07,0-.13-.1-.2-.13a6.66,6.66,0,0,1-.21-1v-.22a5.05,5.05,0,0,1,.19-1.56ZM19.41,28v1.1h-.19c0-.39-.07-.77-.07-1.15Zm-.32-2v1.6C18.58,27.05,19,26.51,19.09,26Zm-.57-4.4h.31v.1h-.31ZM18.2,31.81h.32v.09H18.2Zm-.32-4.34v-.1h.32v.1Zm.32,1.91v-.09h.32v.09Zm-.51-8.48h.09v.32h-.09Zm-.36-1.28h.16v.64h-.16ZM17,21.85h.16v.64H17Zm0,1.6c.06.09.16.16.22.25h.64l.09-.2a1,1,0,0,1-.06-.25,4.089,4.089,0,0,0,.35-.32c-.1.38-.16.57-.22.77a.19.19,0,0,0-.07-.13.36.36,0,0,0-.09.13c-.19.38-.32.63-.42.89a1.65,1.65,0,0,0-.09.22,8.693,8.693,0,0,0-.1-1.08h0c-.1-.07-.16-.16-.26-.23s.01-.02.06-.05Zm-.32-2a3.181,3.181,0,0,0-.13-.51h.29v.54Zm.09,5.14v.32h-.09v-.32Zm-.28-7.09c.06.26.06.42.12.61a8.24,8.24,0,0,0-.89.19c.4-.36.56-.52.82-.78Zm0,4v1.15H16.3c0-.38-.07-.77-.07-1.15Zm-.35-1.63v1h-.16v-1ZM15.1,16.11h.16v.64H15.1Zm.19,6.73v.54a.25.25,0,0,0-.16,0,3.89,3.89,0,0,0-.12-.55ZM14.75,19h.16a5.15,5.15,0,0,0,.13.83h-.29Zm.1,4.73c.25.25.7.38.38,1-.23-.29-.73-.42-.38-.99Zm-.45-.83h.32V23H14.4Zm-.61-3.86a1.93,1.93,0,0,1,0,1.78Zm-.35,7.56c-.44,0-.29-.35-.32-.61h-.25a1.82,1.82,0,0,0-.07-.61H13a4.382,4.382,0,0,0,.12.61h0c.45,0,.29.35.32.6h.26a2.041,2.041,0,0,0,.06.6h-.19a1.68,1.68,0,0,1-.1-.6Zm.16-6.26c-.25.39-.45.61-.7,1,.03-.73.03-.73.7-.99Zm-.7-2V18H13v.32Zm.8-1.53v.83h-.16a6.87,6.87,0,0,0-.13-.83Zm-.9-1.24h.32v.09H12.8Zm-.63-7.63h.31V8h-.31Zm.63,8.9v.1h-.32v-.1Zm-1.46,3.45a1,1,0,0,0,.22.25h.22v.92a.67.67,0,0,0-.22,0,7.54,7.54,0,0,0-.13-.92c-.09-.07-.16-.16-.25-.22Zm-.45,15.32c0-.13.1-.26.13-.39h.19v.9a10.45,10.45,0,0,0,.38,3,6.12,6.12,0,0,1,.16,2.39c-.48-.64.1-1.53-.54-2.1.03-1.25-.54-2.5-.32-3.8Zm.25,8a8.84,8.84,0,0,1,.77-.48c-.19-.26-.32-.42-.57-.77.28-.09.54-.19.79-.29h0c-.09-.09,0-.06,0,0h0c.07.42.13.87.2,1.41-.2.29-.58.52-1.19.14Zm1-8V37.4a2,2,0,0,1-.04-1.83ZM12.55,46v-.16a3.181,3.181,0,0,0,.51-.13V46Zm.35-3.16a8.683,8.683,0,0,0-.13-.93h0c-.09-.13-.28-.22-.32-.38a4.12,4.12,0,0,1,0-.86,2.43,2.43,0,0,1-.25-1.12,3.42,3.42,0,0,1,.19-1.12c0,.39.06.77.06,1.12v1.09c.1.12.29.22.32.38a5.29,5.29,0,0,1,0,.8l.25.09v.93Zm-.42-6.77V36h.32v.09Zm.58,1.12v1.47a1.37,1.37,0,0,1,0-1.49Zm.38,2.07h-.32v-.09h.32Zm0,7.44V45.59c.26.42.39.67.58,1-.13.02-.29.06-.55.09Zm.83-11.49h-.16v-.64h.16Zm.35,1.21a.21.21,0,0,0-.15,0,7.55,7.55,0,0,0-.13-.83h.28Zm.26,10.28h-.1v-.32h.1ZM15,40.23v-.16h.64v.16Zm.09-.89V39h.1v.32Zm.93,6.35c0-.38-.07-.77-.07-1.12v-.7c-.06-.06-.09-.16-.19-.22l-.51-2.94c.64,1.18.74,1.31.58,2.46a1.38,1.38,0,0,0,.12.29,3,3,0,0,1,.11,2.23Zm1.05,3.48h0a1.69,1.69,0,0,0-.22-.26,1.57,1.57,0,0,0-.16,0c-.16-.38-.32-.77-.51-1.18l.6-.16a8.807,8.807,0,0,0,.13,1.28h0c.1.06.16.16.26.22a.49.49,0,0,1-.06.1Zm-.54-3.1v.83h-.16a5.33,5.33,0,0,0-.13-.83.94.94,0,0,0,.33,0Zm-.19-4.5V40.3h.16v1.27Zm.44,1.63a7.944,7.944,0,0,0,.13.83h-.29V43.2a.435.435,0,0,0,.2,0Zm-.09-.67v-.32h.09v.32ZM17.05,39a3.53,3.53,0,0,0-.13-.54h.29V39Zm.13,6.09v.64H17v-.64Zm-.07.9a5.78,5.78,0,0,1,.22.67c-.33.18-.33-.11-.22-.66Zm.19-6.07v-.54h.16a3.181,3.181,0,0,0,.13.51.51.51,0,0,1-.29.02Zm1,.07a3.031,3.031,0,0,0-.09-.51,1.18,1.18,0,0,0-.26-.1,2.041,2.041,0,0,0-.06-.6h.19a3.031,3.031,0,0,0,.09.51.83.83,0,0,0,.26.1,2.142,2.142,0,0,0,.06.61.44.44,0,0,0-.2,0Zm.7,6.79a2.49,2.49,0,0,1,0-1.72c.06.19.12.38.25.7A6.344,6.344,0,0,1,19,46.77Zm.71,5h-.1v-.32h.1Zm.32-1h-.1v-.31H20Zm0-1.34a.23.23,0,0,0-.16,0,7.55,7.55,0,0,0-.13-.83h.29Zm-.55-3c.42-.35.29-.86.32-1.44a3,3,0,0,0-.28-.61,1.762,1.762,0,0,0-.07-.6h.19a3,3,0,0,1,.07.32.76.76,0,0,0,.35-.07v3.45a9.67,9.67,0,0,0-.56-1Zm1.79-4.34h-.09c-.07-.42-.13-.8-.2-1.21h-.19a.32.32,0,0,1-.16,0,.49.49,0,0,0-.16.16.21.21,0,0,0,0,.13.8.8,0,0,0,0,.38,5.843,5.843,0,0,0,.19.93h-.41c-.19-1,0-2-.13-3.29-.19.38-.32.58-.41.77h-.35c.06-.39.12-.8.19-1.18a1.07,1.07,0,0,1-.19-.07c-.07.19-.16.39-.29.71L17,35v1.5c.61.16.2.64.32,1,.35.19.77.32.51,1-.25-.42-.44-.7-.63-1-.48-.22-.07-.73-.2-1-.57-.35-.6-1-.73-1.72-.51.83.13,1.46.13,2.1.28.54.41.8.57,1.12l-.38.09c-.1-.09-.22-.15-.22-.22a4.7,4.7,0,0,1,0-.76,4.88,4.88,0,0,1-1.28-2.37,14,14,0,0,0-.67-1.53c-.19.16-.32.26-.48.42-.06-.35-.13-.67-.19-1h-.42l-.38.8c-.06-.58-.09-1-.16-1.44H12.2a4.074,4.074,0,0,1-.07.8c-.28-.45-.47-.7-.83-1.21l.87.41h0c-.16-.44-.32-.89-.55-1.63-.28.52-.41.74-.63,1.12a4.1,4.1,0,0,1-.07-.86c0-.16.26-.45.22-.45-.47-.41.29-.67.1-1.05-.1-.16,0-.41,0-.64a1.14,1.14,0,0,0,0-.32A3.67,3.67,0,0,1,11,25.81c0-.64.23-1.28.29-1.91a9.18,9.18,0,0,1,.22-2c.13.55.51,1.15.35,1.63s.1,1-.12,1.53a3.73,3.73,0,0,1,.35-.25c.51,1.15,1,2.33,1.59,3.57.13-.32.19-.51.32-.86.35,1.37,1.53,2.14,1.85,3.57l.8.13c.32.64,1.15,1.18.32,2.17l1.15,2.23h.19V34.33h0c-.1-.06-.16-.16-.26-.22l.1-.1c.06.1.16.16.22.26h0a.67.67,0,0,0,.29-.16c.16-.23,0-.51,0-.74h0c-.1-.06-.16-.16-.26-.22l.1-.1c.06.1.16.16.22.26h0c.61.06.16.57.35.83a5.86,5.86,0,0,1,.57.83,8.51,8.51,0,0,0,1.92,2.3V36.5h0c-.1-.06-.16-.16-.26-.22l.1-.1c.06.1.16.16.22.26h0c.16.1.35.19.48.29a44.708,44.708,0,0,0-.81,5.42Zm-.51-13.66v-.93c.26.48.38.71.51.93ZM21.39,30H21.1v-.54h.16A4.64,4.64,0,0,1,21.39,30ZM21,27.18h-.16a3.138,3.138,0,0,0-.12-.51H21Zm-.22,4.76a4.391,4.391,0,0,1,.58.19l-.87.76a4.76,4.76,0,0,1,.13-2.1,8.39,8.39,0,0,1,.16,1.15Zm.61,3.47v-.09h.32v.09ZM22,33.63a3.028,3.028,0,0,1-.67-.13c.23-.45.38-.8.67-1.4Zm-.67-8.2c.26-.07.42-.07.61-.13a8.24,8.24,0,0,0,.19.89c-.42-.38-.58-.54-.84-.76Zm.13-2.36v-.83h.16a5.53,5.53,0,0,0,.13.83c-.14-.07-.23,0-.33,0Zm.86.31a.25.25,0,0,0-.16,0,2.91,2.91,0,0,0-.13-.55h.29Zm.13,9.93a4.29,4.29,0,0,0-.1-.48l.23-.22.67.54c-.46.09-.62.13-.84.16Zm-.1-3.45h.29v.54a.24.24,0,0,0-.16,0,2.47,2.47,0,0,0-.17-.54Zm.42-5.81v-.63h.16v.63Zm1.78,9.19h-.16a3.138,3.138,0,0,0-.12-.51h.28Zm.07-1.4c-.32.16-.58.32-.86.45-.32-.42-.1-.58.44-.64a2.17,2.17,0,0,0,.1-.64,2.14,2.14,0,0,0-.06-.61,2.9,2.9,0,0,0-.58-1.11l.1-.1.35-.35h0c.19.32.41.64.6.93a4.49,4.49,0,0,1,.45-.29c.06.06.1.13.16.19l-.67,1a6.134,6.134,0,0,0-.07,1.17Zm0-5.62V25.4h.16a6.63,6.63,0,0,0,.13.86.73.73,0,0,0-.3-.04Zm.16,2.3v.32h-.1v-.32Zm.73,4.66h-.32v-.09h.32Zm.58-10.5c-.35.45-.61.77-.9,1.09a9.14,9.14,0,0,0,0,1c-.28-.55-.28-.55,0-.9.1-.45.16-.83.26-1.31H24.9c-.07.26.16.61-.32.64.22.7-.32,1.25-.32,1.92a6.76,6.76,0,0,0,.41,3.22c-.67-.29-.79-.67-.73-1.12-.22-.16-.41-.32-.64-.51h-.25v-.92a.53.53,0,0,0,.23,0,6.722,6.722,0,0,0,.13.93h.54V25.06a2.45,2.45,0,0,1,.64-1.85c.06-.26-.16-.61.32-.64v-.92a2.5,2.5,0,0,0-.26-.07L24,22.81c-.07-.35-.13-.67-.2-1-.25.38-.44.7-.76,1.18-.07-.48-.13-.77-.19-1.31-.16.38-.23.57-.39.93-.09-.45-.16-.74-.25-1.09a2.8,2.8,0,0,0-.38.32c-.1-.19-.2-.42-.29-.61l-.51.29a.49.49,0,0,1-.1.13,3.121,3.121,0,0,1,.1.32,2.639,2.639,0,0,0-.35.32,7.91,7.91,0,0,1,.22-.77v.06a12.23,12.23,0,0,0,.42-1.62,4,4,0,0,1-.61.28.36.36,0,0,1-.09.13,1.766,1.766,0,0,0,.09.32c.03.13-.09.1-.35.35.13-.41.16-.6.22-.8a2.83,2.83,0,0,0,.12-.83l.51-.51c.23.09.48.22.74.35a13.35,13.35,0,0,0,5.87,1.91c.8.1,1.43.61,2.26.64s1.57-.32,2.27.29c.06.06.19,0,.32,0h1.91a14.507,14.507,0,0,1,1.5.28,4.75,4.75,0,0,1,2.75.55,1.6,1.6,0,0,1-.48,1.66,3.55,3.55,0,0,0-1.09,3.22v.48c.77.51.55,1.69,1.57,2.07h.92a6.74,6.74,0,0,1-.7,3.45c-.86-.26-.35-1.09-.64-1.57H38c0,.39-.09.77-.12,1.22a1.406,1.406,0,0,0-.55.09l-.09-1.24-.58-.07v1.44c-.44-.26-.73-.42-1.08-.61.16-.28.29-.48.41-.7l-.54-.13c-.06.48-.09.9-.13,1.34h-.57c.09.45.45.61,1,.74-.23.28-.45.51-.67.8l.35.7h-.64c.09.22.22.41.32.64h.13c.92-.13,1.11-.8,1.24-1.57h.57c-.12.58-.25,1.06-.41,1.69.16.16.32.35.51.51a3.89,3.89,0,0,0,.86.42c-.51.13-.7.25-.83.22A4.74,4.74,0,0,1,35,36.47a11.26,11.26,0,0,1-2.42-1.15,7.68,7.68,0,0,1-1.12-.77c-.1.1-.22.19-.35.32-.29-1.18-1.63-1.08-2-2.14a3,3,0,0,1-.32.26,2.9,2.9,0,0,0-.1-.86l-.6-.48a20.37,20.37,0,0,1,0-2.49c.09-.77-.7-1.44-.19-2.23.09.22.22.41.32.63.06-.06.16-.12.16-.22a4.56,4.56,0,0,0,0-.64c.06-1.05.16-2.1.22-3.38-.93,1-.86,2.14-1.09,3.26V24.5c-.09.07-.19.1-.28.16-.1-.25-.19-.51-.26-.64-.89.19-.8.83-1,1.38-.53-.93.36-1.73.11-2.72Zm-2.49,1.5a4.09,4.09,0,0,0-.35.32c.09-.38.16-.57.22-.76v.09a.323.323,0,0,1,.07-.13,1.787,1.787,0,0,0,.22-.25l.1.09c-.1.07-.16.16-.26.23h0a.91.91,0,0,0-.1.16.53.53,0,0,1,.09.25ZM37.66,37c0-.67-.06-1.15-.09-1.63.38-.19.63-.29.92-.45C38.68,35.7,38.2,36.21,37.66,37ZM29,34.11c-.47.16-1,.32-1.53.47V33.37l.45-.44C27.93,33.66,28.69,33.6,29,34.11Zm-2.29-4.79v1.15c-.26-.07-.42-.1-.74-.16a11.542,11.542,0,0,0,.75-.99Zm-.35,6.19h-.1v-.32h.1Zm.09-3h-.32v-.09h.32Zm.06-1.72h.16a3.691,3.691,0,0,0,.13.83,1,1,0,0,0-.29,0ZM27,36.75a.23.23,0,0,0-.16,0,1.907,1.907,0,0,0-.13-.55H27Zm1.91-2a5.728,5.728,0,0,0,.06,1.09H27.1ZM27.1,37.23c1-.35,2-.73,3.09-1.15,0-.28.1-.57.13-.95.26.54.51,1,.86,1.75v1.69a2.73,2.73,0,0,1-1.24.29,6.72,6.72,0,0,0-1.5.22c-.13.32-.29.67-.48,1.06,0,0,0,.09.06.12h.58c0,.23.06.48.09.83.29.26.64.55.93.8V43.1c.26.52.45.87.64,1.22s.44.76.64,1.18a5.51,5.51,0,0,0,.41,1.08,3.24,3.24,0,0,1,.61,1.18c.09.39.38.67.09,1.15A1.16,1.16,0,0,1,30.93,48c-.45-1.82-1.6-3.35-2-5.24-.1-.51-.57-.92-.93-1.5v-.92a1.16,1.16,0,0,1-.16,0C27.64,39.31,27.39,38.32,27.1,37.23Zm2.39,3.93c.29-.7.45-1.09.64-1.57C30.45,40.26,30.23,40.62,29.49,41.16Zm-4.11,1.59c.19-.28.38-.57.63-1,.23.64-.06.83-.44.93v.16c0,.06-.16.16-.23.25L25.22,43l.19-.16a.3.3,0,0,0-.03-.09Zm-.51-1.08h.31v.09h-.31Zm-.67.89v.54h-.16a3.181,3.181,0,0,0-.13-.51,2.46,2.46,0,0,1,.29-.03Zm.35,2.36h-.07a2.12,2.12,0,0,0,.7.12c.07-.25-.15-.6.32-.64l.32-.31c0-.26-.16-.61.32-.64v-.1a.75.75,0,0,1,.77-.86c-.26.29-.51.61-.74.86v.38c0,.16,0,.32-.32.36l-.31.31c-.07.26.16.61-.32.64-.42.19,0,1.12-.87.93.07-.32.16-.64.23-.93a.36.36,0,0,1-.13-.09l-.32.09-.35-.35C24.16,44.83,24.35,44.86,24.55,44.92Zm-1.47,3.32h.09v.32h-.09Zm.22,3.22h0a.31.31,0,0,0-.13.16.85.85,0,0,1,.07.26l-.35.35c.12-.41.16-.61.22-.8v.1a.265.265,0,0,1,.07-.13,1.356,1.356,0,0,0,.22-.25l.1.09A.49.49,0,0,1,23.3,51.46Zm.58,4.06a.29.29,0,0,0-.16,0,5.289,5.289,0,0,0-.13-.54h.29Zm-.26-6.29c-.06.1-.16.16-.22.26l-.1-.1c.1-.06.16-.16.26-.22a.7.7,0,0,0,.22-.26l.1.1a.92.92,0,0,1-.26.22Zm.93,4.34h-.32v-.09h.32Zm0-1.5h-.6c.19-.29.35-.51.48-.73.06,0,.09.09.16.12v-.6h.6c-.19.29-.35.51-.47.73-.07,0-.1-.09-.16-.13a3.62,3.62,0,0,1-.05.61Zm.58,4.15H25V55.9h.1ZM25,52.68l-.09-.1c.09-.06.16-.16.25-.22h0a5.26,5.26,0,0,1,1-2.11,2.11,2.11,0,0,0,.29-.51,2.27,2.27,0,0,0,0-.6c-.32.25-.54.44-1,.83.16-.42.16-.7.29-.83a3.27,3.27,0,0,0,1.11-2c-.44.16-.73.29-1,.38a.78.78,0,0,1-.64,1l-.31.32c0,.54.06,1.09-.61,1.28h0c-.06.09-.16.16-.22.25l-.1-.09c.1-.07.16-.16.26-.23h0a1.45,1.45,0,0,1,.64-1.28l.31-.32v-1h.64c-.09-.41.16-.67.45-.92a2.16,2.16,0,0,0,.8-2h-.61c-.06.26.16.61-.32.64a.78.78,0,0,1-.64,1,.81.81,0,0,1-.54.92.13.13,0,0,0,0,.1c-.19.29-.38.57-.64,1-.22-.67.07-.83.48-1v-.13a.76.76,0,0,1,.63-1,.79.79,0,0,1,.64-1c.07-.26-.16-.61.32-.64.13-.22.29-.41.42-.61.28.13.54.26.89.45a13.84,13.84,0,0,1-.48,3.22c-.25.67.1,1.47-.51,2a2.84,2.84,0,0,1-1.53,2.56v.06a2.52,2.52,0,0,1-.18.58Zm.19,1.85v-.1h.32v.1ZM23.65,73.1h.19c0,.48.07,1,.1,1.5.26-.1.48-.19.83-.35a7.449,7.449,0,0,0,.13,1.11c-.39-.15-.61-.22-.9-.35a.062.062,0,0,0-.06.07A2,2,0,0,1,24,76.26l-.19-.58a.33.33,0,0,0-.19,0C23.65,74.89,23.65,74,23.65,73.1Zm.77,3.9c.22-.28.41-.51.7-.89v1.43a8.23,8.23,0,0,1-.7-.54Zm.67,1.18v.32H25v-.32Zm-.77-4.43v-.51c.16.06.39.19.8.38-.45.05-.57.09-.8.12ZM23,75.43h.32v.09H23Zm-.76-2.36h-.1v-.32h.1Zm.54,4.18c-.06.16-.13.35-.26.73-.09-.41-.12-.67-.19-1,.42-.16.8-.35,1.22-.54.06.26.06.38.12.61a5.08,5.08,0,0,1-.91.2Zm.86,1h0a.4.4,0,0,0-.13.13.78.78,0,0,1,.07.26,2.638,2.638,0,0,0-.35.32,7.911,7.911,0,0,1,.22-.77v.1c0,.04,0-.07.07-.13a1.5,1.5,0,0,0,.22-.26l.09.1a.48.48,0,0,1-.21.2Zm1.28,1.57h0c-.07.1-.16.16-.23.26l-.09-.1c.09-.06.16-.16.25-.22s0,0,.07,0a.86.86,0,0,0-.1-.23c-.13-.12-.32-.06-.51-.06-.06.1-.16.16-.22.26l-.1-.1c.1-.06.16-.16.26-.22h0c.25-.22.54-.41.86-.67.01.42.36.8-.21,1.03ZM25.38,74a2.06,2.06,0,0,1,0-1.75,1.07,1.07,0,0,0-.19-.22,1.23,1.23,0,0,0-.48,1c-.35-.92-.61-1.62-.86-2.39a1.34,1.34,0,0,1,1.21.93c.09-.26.16-.45.22-.67l.58.09c-.13.51-.26.89-.93.86l.29.23c.13-.1.29-.23.48-.35C26.08,72.62,25.31,73.26,25.38,74Zm.7,2.62v.54a.23.23,0,0,0-.16,0,3.39,3.39,0,0,0-.13-.55,1.169,1.169,0,0,1,.29.03Zm-.45,2.9L26,80c-.46,0-.46,0-.37-.46Zm4.18-.79c.13.44.26.83.42,1.4a1.86,1.86,0,0,1-.58-.32,5.57,5.57,0,0,1-.38-.86,3.069,3.069,0,0,1,.54-.2Zm-2.26-.86h.73a4.45,4.45,0,0,0,.22.57c.16-.06.29-.16.45-.22,0,.12.13.25.1.32-.26.51-.9.83-.93,1.53v-1.2c-.83.13-.54,1.31-1.44,1.22-.73-.74.42-.51.48-.9a4.53,4.53,0,0,1,.39-1.3Zm-1.09-.29a1.82,1.82,0,0,0,.61-.07v.2l-.61.12h0v.07a.83.83,0,0,1-.73.92c-.19-.73-.19-.73.73-1h0a.49.49,0,0,1,0-.22Zm-.64-7.69-.32.32c-.12.09-.25.22-.38.32-.09-.1-.16-.23-.25-.32a.36.36,0,0,1-.13-.1,1.894,1.894,0,0,0-.32.1c-.13.03-.1-.1-.35-.35l.8.22H24.8a1.94,1.94,0,0,0,.7.13,4.171,4.171,0,0,1,.32-.35l1-1,.57-.57v-.07c.1-.38.16-.76.26-1.21a6.229,6.229,0,0,0-.32-.92c.7.82.7.82.54,1.56l-.29.76a.74.74,0,0,1-.16-.12V69h-.63a7.77,7.77,0,0,0,.22.86,8.211,8.211,0,0,0-.48.87,3.93,3.93,0,0,0-.71-.82Zm9.67,4.18a42.359,42.359,0,0,0-5.74-.89c-.77.47-1.82.06-2.81.22-.42-.7-.77-1.34.1-2.2.73.06,1.27-.58,1.78-1.06s1.28-.67,1.79-1.24a17.58,17.58,0,0,1,1.63-1.47c-.16-.35-.29-.6-.42-.86.13-.06.19-.16.26-.16.28.06.6.29.83.22a7,7,0,0,0,1.34-.6s0-.23,0-.32c.09-.42.19-.83.28-1.34.45.6-.19,1.37.58,1.85a6.529,6.529,0,0,1-.67.22,8.5,8.5,0,0,0,.89,4.15c.16.35.19.8.38,1.12a2,2,0,0,1-.22,2.38ZM35.75,69v-.29h.54a.29.29,0,0,0,0,.16,3.52,3.52,0,0,1-.54.13Zm.67-2.87h.09v.32h-.09Zm.06,3.61c.45,0,.45,0,.35.41-.13-.15-.25-.37-.35-.46Zm.67,5.93h-.1V75.3h.1Zm.26-1.91c.25.25.7.38.38,1-.26-.35-.74-.48-.38-1.05Zm.35,3.57c-.07-.16-.13-.29-.23-.54.19-.07.39-.1.55-.16a3.31,3.31,0,0,0,.47-.39c.04.76-.31.88-.79,1.04ZM38.3,75v-.64h.16V75Zm-.64-1.69v-1c-.64-.06-.73-.61-1-1l.45-.44a2.19,2.19,0,0,0,.51.25V69.65h.19A3.64,3.64,0,0,1,38.2,71c0,.64.93.77.67,1.44.48,0,.26.38.32.64l.32.32c.48,0,.29.38.32.6A.36.36,0,0,1,40,74l.45.45v1.41h-.16c-.19-.61-.35-1.22-.54-1.85h.09c-.48,0-.25-.39-.32-.64l-.32-.32c-.48,0-.25-.38-.32-.64H38.2c.13.51.26.89.35,1.28l.32.32c.45,0,.29.35.32.6h0c.1.07.16.16.26.23l-.1.09c-.06-.09-.16-.16-.22-.25h0c-.48,0-.25-.38-.32-.63l-.32-.32a6.17,6.17,0,0,0-.83-.44Zm3.73,5.14a5,5,0,0,1,.07-1,7.87,7.87,0,0,1,.57.67Zm.13-1.21V76.9h.1v.32Zm-1.43.25c.09.22.19.42.38.8-.67-.22-1.18-.38-1.85-.64.92-.54,1.69-1,2.36-1.34.06-.38.13-.67.19-1.08.16.35.26.54.35.76H42v-.51l.89-.1a1.791,1.791,0,0,0,.07.61h-.74c-.76.52-1.43,1.01-2.13,1.48Zm4.14.19c-.44.07-.83.1-1.24.13l1-1.37c.44.56.21.94.24,1.22Z" transform="translate(-6.78 -6.478)" fill="#1f7762"/>
  <path id="Trazado_24852" data-name="Trazado 24852" d="M39.83,74.06h.01Z" transform="translate(-6.78 -6.478)" fill="#1f7762"/>
  <path id="Trazado_24853" data-name="Trazado 24853" d="M38.24,63.59a1.06,1.06,0,0,1,.12.1c-.06.06-.09.12-.16.16a.15.15,0,0,1,.1.06,1.92,1.92,0,0,1,.48-.77A3.31,3.31,0,0,1,38.24,63.59Z" transform="translate(-6.78 -6.478)" fill="#1f7762"/>
  <path id="Trazado_24854" data-name="Trazado 24854" d="M39.48,58.45v.26l.1-.19S39.58,58.45,39.48,58.45Z" transform="translate(-6.78 -6.478)" fill="#1f7762"/>
  <path id="Trazado_24855" data-name="Trazado 24855" d="M11.85,77.79a.69.69,0,0,1,0-.26h0Z" transform="translate(-6.78 -6.478)" fill="#1f7762"/>
  <path id="Trazado_24856" data-name="Trazado 24856" d="M39.16,71.5h.03Z" transform="translate(-6.78 -6.478)" fill="#1f7762"/>
  <path id="Trazado_24857" data-name="Trazado 24857" d="M37.21,55.84h-.12c-.1.41,0,.22,0,0v.09a.16.16,0,0,0,.12-.09Z" transform="translate(-6.78 -6.478)" fill="#1f7762"/>
  <path id="Trazado_24858" data-name="Trazado 24858" d="M34.92,57.91l-.19.19.31-.32h0A.38.38,0,0,1,34.92,57.91Z" transform="translate(-6.78 -6.478)" fill="#1f7762"/>
  <path id="Trazado_24859" data-name="Trazado 24859" d="M23.49,78.27v.06a.76.76,0,0,1,.09-.16h0C23.53,78.2,23.53,78.24,23.49,78.27Z" transform="translate(-6.78 -6.478)" fill="#1f7762"/>
  <path id="Trazado_24860" data-name="Trazado 24860" d="M33.8,57.85a1.23,1.23,0,0,1,.29-.35,1.54,1.54,0,0,0-.29.35Z" transform="translate(-6.78 -6.478)" fill="#1f7762"/>
  <path id="Trazado_24861" data-name="Trazado 24861" d="M35,57.78c0,.07-.06.1-.09.16S35,57.85,35,57.78Z" transform="translate(-6.78 -6.478)" fill="#1f7762"/>
  <path id="Trazado_24862" data-name="Trazado 24862" d="M34.76,54.66c0-.07.06-.1.06-.13v-.07a.4.4,0,0,1-.1.16A.039.039,0,0,1,34.76,54.66Z" transform="translate(-6.78 -6.478)" fill="#1f7762"/>
  <path id="Trazado_24863" data-name="Trazado 24863" d="M30.23,52.84l.12-.1v-.16l-.09.1C30.26,52.77,30.26,52.81,30.23,52.84Z" transform="translate(-6.78 -6.478)" fill="#1f7762"/>
  <path id="Trazado_24864" data-name="Trazado 24864" d="M40.37,51.43s-.06-.06-.09-.06-.07,0-.07.06Z" transform="translate(-6.78 -6.478)" fill="#1f7762"/>
  <path id="Trazado_24865" data-name="Trazado 24865" d="M35.14,47.73a1.06,1.06,0,0,1-.32,0,6.06,6.06,0,0,1-.35.73A4.26,4.26,0,0,0,35.14,47.73Z" transform="translate(-6.78 -6.478)" fill="#1f7762"/>
  <path id="Trazado_24866" data-name="Trazado 24866" d="M40.09,51.4Z" transform="translate(-6.78 -6.478)" fill="#1f7762"/>
  <path id="Trazado_24867" data-name="Trazado 24867" d="M25.22,72.05c.06.06.12.16.19.22a2,2,0,0,1,.29-.54,1.44,1.44,0,0,0-.48.32Z" transform="translate(-6.78 -6.478)" fill="#1f7762"/>
  <path id="Trazado_24868" data-name="Trazado 24868" d="M24.26,79.48Z" transform="translate(-6.78 -6.478)" fill="#1f7762"/>
  <path id="Trazado_24869" data-name="Trazado 24869" d="M29,53.25a3.08,3.08,0,0,0,.19-.32s0-.09-.06-.12h0a3.3,3.3,0,0,0-.19.31S28.92,53.22,29,53.25Z" transform="translate(-6.78 -6.478)" fill="#1f7762"/>
  <path id="Trazado_24870" data-name="Trazado 24870" d="M33.13,58.77h0l-.32.32a.36.36,0,0,1-.09.13s0,.06,0,.09a2.6,2.6,0,0,1,.41-.54Z" transform="translate(-6.78 -6.478)" fill="#1f7762"/>
  <path id="Trazado_24871" data-name="Trazado 24871" d="M35.4,56.83a2.08,2.08,0,0,1-.36-.29Z" transform="translate(-6.78 -6.478)" fill="#1f7762"/>
  <path id="Trazado_24872" data-name="Trazado 24872" d="M33.1,58.74a1.42,1.42,0,0,1-.29.35,1.49,1.49,0,0,0,.29-.35Z" transform="translate(-6.78 -6.478)" fill="#1f7762"/>
  <path id="Trazado_24873" data-name="Trazado 24873" d="M48.38,76.26h0c-.16-.23-.28-.42-.44-.67A7.012,7.012,0,0,1,48.38,76.26Z" transform="translate(-6.78 -6.478)" fill="#1f7762"/>
  <path id="Trazado_24874" data-name="Trazado 24874" d="M32.11,7.56c-.38-.13-1-.35-1.41.16C31.09,7.24,31.73,7.43,32.11,7.56Z" transform="translate(-6.78 -6.478)" fill="#1f7762"/>
  <path id="Trazado_24875" data-name="Trazado 24875" d="M30.61,7.81h0c-.22-.09-.45-.22-.64-.32a3.48,3.48,0,0,0,.64.32Z" transform="translate(-6.78 -6.478)" fill="#1f7762"/>
  <path id="Trazado_24876" data-name="Trazado 24876" d="M39.19,25.94c.19-.74.35-1.44.55-2.11l-.2-.19.2.19C39.54,24.5,39.38,25.17,39.19,25.94Z" transform="translate(-6.78 -6.478)" fill="#1f7762"/>
  <path id="Trazado_24877" data-name="Trazado 24877" d="M26.27,81.27h-.1v.12Z" transform="translate(-6.78 -6.478)" fill="#1f7762"/>
  <path id="Trazado_24878" data-name="Trazado 24878" d="M47.3,77.79c-.42-.26-.9.13-1.21-.26-.1.13-.2.29-.32.45.38.19.7.35,1.08.58.51-.64,1.09-.39,1.76.09.06-.32.09-.51.12-.8C48.19,77.85,47.65,78,47.3,77.79Z" transform="translate(-6.78 -6.478)" fill="#1f7762"/>
  <path id="Trazado_24879" data-name="Trazado 24879" d="M32,82.07c-.45-.2-.83-.32-1.21-.48C31,82.23,31.31,82.61,32,82.07Z" transform="translate(-6.78 -6.478)" fill="#1f7762"/>
  <path id="Trazado_24880" data-name="Trazado 24880" d="M29.05,81.75v.19h1.14v-.29Z" transform="translate(-6.78 -6.478)" fill="#1f7762"/>
  <path id="Trazado_24881" data-name="Trazado 24881" d="M40.6,24.09l.48-.1v-.57C40.34,23.42,40.34,23.67,40.6,24.09Z" transform="translate(-6.78 -6.478)" fill="#1f7762"/>
  <path id="Trazado_24882" data-name="Trazado 24882" d="M36.64,7.27H36v.16h.64Z" transform="translate(-6.78 -6.478)" fill="#1f7762"/>
  <path id="Trazado_24883" data-name="Trazado 24883" d="M48.38,76.26h0l-.28.19.09.1a.55.55,0,0,0,.19-.29Z" transform="translate(-6.78 -6.478)" fill="#1f7762"/>
  <path id="Trazado_24884" data-name="Trazado 24884" d="M48.38,76.26c0,.13-.13.19-.19.29.06-.1.16-.16.22-.26Z" transform="translate(-6.78 -6.478)" fill="#1f7762"/>
  <ellipse id="Elipse_687" data-name="Elipse 687" cx="0.06" cy="0.22" rx="0.06" ry="0.22" transform="translate(41.38 70.682)" fill="#1f7762"/>
  <path id="Trazado_24885" data-name="Trazado 24885" d="M49.69,79.42c-.06-.1-.16-.16-.22-.26l-.1.1C49.47,79.32,49.56,79.42,49.69,79.42Z" transform="translate(-6.78 -6.478)" fill="#1f7762"/>
  <path id="Trazado_24886" data-name="Trazado 24886" d="M49.69,79.42c-.16,0-.22-.1-.32-.16.1.06.16.16.26.22h0S49.66,79.42,49.69,79.42Z" transform="translate(-6.78 -6.478)" fill="#1f7762"/>
  <path id="Trazado_24887" data-name="Trazado 24887" d="M49.63,79.48c.06.1.16.16.22.26l.1-.1A.39.39,0,0,0,49.63,79.48Z" transform="translate(-6.78 -6.478)" fill="#1f7762"/>
  <path id="Trazado_24888" data-name="Trazado 24888" d="M49.69,79.42l-.06.06c.16,0,.22.1.32.16a.78.78,0,0,0-.26-.22Z" transform="translate(-6.78 -6.478)" fill="#1f7762"/>
  <path id="Trazado_24889" data-name="Trazado 24889" d="M49.69,79.42h0l-.06.06h0S49.69,79.45,49.69,79.42Z" transform="translate(-6.78 -6.478)" fill="#1f7762"/>
  <path id="Trazado_24890" data-name="Trazado 24890" d="M30.45,28.59l1-.29a.21.21,0,0,0,.13.19c.25.13.73-.16.89.19l.23.1a.288.288,0,0,0,.22-.07,3.39,3.39,0,0,0,.45-.12c.06.06.22.16.44.32.29-.26.54-.48.77-.71l.38.29c0-.57.73-1,.26-1.56a2,2,0,0,0-.48.32h0c-.07.09-.16.16-.23.25l-.09-.09c.09-.07.16-.16.25-.23h0v-.89l.57-.45c.35-1.3-.7-1.91-1.09-2.87-.92-.19-1.85-.38-2.84-.6a4,4,0,0,1-.63,1,4.28,4.28,0,0,1-1,.64c-.16.67-.26,1.18-.35,1.5.09.7.19,1.31.32,2a7.92,7.92,0,0,0,.8,1.08ZM34,27.18h-.54a.32.32,0,0,0,0-.16,2.65,2.65,0,0,0,.54-.13A1.21,1.21,0,0,1,34,27.18Zm-.57-1V26.1h.32v.09Zm-.29-1a5.66,5.66,0,0,0,.61.42l-.61.12Zm-.22,1.76H33v.32h-.09Zm-1-3.07c-.16.61-.29.93-.39,1.28a2.57,2.57,0,0,1,.29.35c-.13.13-.25.29-.45.48-.19-.35-.35-.64-.54-1,.35-.38.61-.64,1.09-1.12ZM30,26h.16v.64H30Z" transform="translate(-6.78 -6.478)" fill="#1f7762"/>
  <path id="Trazado_24891" data-name="Trazado 24891" d="M32.68,28.78l-.22-.1v.16h0A1.623,1.623,0,0,0,32.68,28.78Z" transform="translate(-6.78 -6.478)" fill="#1f7762"/>
  <path id="Trazado_24892" data-name="Trazado 24892" d="M32.68,28.78a2,2,0,0,0,.23-.07.42.42,0,0,1-.23.07Z" transform="translate(-6.78 -6.478)" fill="#1f7762"/>
  <path id="Trazado_24893" data-name="Trazado 24893" d="M32.49,28.84h0a.42.42,0,0,0,.19-.06h0C32.62,28.81,32.56,28.81,32.49,28.84Z" transform="translate(-6.78 -6.478)" fill="#1f7762"/>
  <path id="Trazado_24894" data-name="Trazado 24894" d="M31.44,28.3a.21.21,0,0,0,.13.19C31.64,28.52,31.47,28.39,31.44,28.3Z" transform="translate(-6.78 -6.478)" fill="#1f7762"/>
  <path id="Trazado_24895" data-name="Trazado 24895" d="M34.34,32.16c.13-.38.23-.7.26-.83l-.32-.64-.51.54c.48.45.32.93.25,1.38h-.76c-.19-1-.35-1.92-.58-3.13a12.128,12.128,0,0,0-.76,1,1.82,1.82,0,0,1-.61-.07c-.19-.07-.06-.16-.13-.22h0c-.67.06-1.08-.67-1.75-.64-.07,1.09.41,2.81.8,2.87.28-.12.57-.22,1-.38,0,.57-.07,1-.1,1.37-.35-.32-.64-.54-.93-.8-.16.2-.22.32-.28.39s.06.25.16.32c1.11.76,2.42,1.11,3.41,2.1a1.32,1.32,0,0,0,1.21.48,3.75,3.75,0,0,0-.09-.57c-.32-.8-.32-1.09.09-1.66.07-.29.13-.54.26-1A6.911,6.911,0,0,0,34.34,32.16Zm-2.9-1.09h-.1v-.31h.1Zm.35,2.14.64-.64c0,.52.06.9.09,1.63C32.14,33.69,32,33.44,31.79,33.21Zm.86-1.31-1-.79h1.18C32.78,31.33,32.75,31.55,32.65,31.9Zm.58,2.84V33.47c.35.22.6.38.92.6Z" transform="translate(-6.78 -6.478)" fill="#1f7762"/>
  <path id="Trazado_24896" data-name="Trazado 24896" d="M31.34,30.37c-.06,0-.06-.12-.09-.22h0C31.28,30.21,31.28,30.37,31.34,30.37Z" transform="translate(-6.78 -6.478)" fill="#1f7762"/>
  <path id="Trazado_24897" data-name="Trazado 24897" d="M31.22,30.12h0c-.71.06-1.09-.67-1.76-.64C30.13,29.45,30.55,30.21,31.22,30.12Z" transform="translate(-6.78 -6.478)" fill="#1f7762"/>
  <path id="Trazado_24898" data-name="Trazado 24898" d="M29.36,27.66a7.411,7.411,0,0,1-.25-.8c-.06-.41-.06-.83-.1-1.24l-.09-.86C28.76,25.75,28.5,26.77,29.36,27.66Z" transform="translate(-6.78 -6.478)" fill="#1f7762"/>
  <path id="Trazado_24899" data-name="Trazado 24899" d="M29.36,27.66c-.86-.89-.57-1.91-.44-2.9-.16,1.08-.45,2.17.51,3.09a.49.49,0,0,1-.07-.19Z" transform="translate(-6.78 -6.478)" fill="#1f7762"/>
  <path id="Trazado_24900" data-name="Trazado 24900" d="M38.49,32c-.25-.42-.45-.8-.7-1.15-.07-.1-.32,0-.61,0,.19.22.29.32.35.38-.12.26-.19.48-.35.77Z" transform="translate(-6.78 -6.478)" fill="#1f7762"/>
  <path id="Trazado_24901" data-name="Trazado 24901" d="M28.89,29.73c.09-1.27.09-1.27-.45-1.85C28.15,28.55,28.69,28.94,28.89,29.73Z" transform="translate(-6.78 -6.478)" fill="#1f7762"/>
  <path id="Trazado_24902" data-name="Trazado 24902" d="M31,29.26c-.32-.16-.57-.32-.86-.48C30.26,29.19,30.42,29.77,31,29.26Z" transform="translate(-6.78 -6.478)" fill="#1f7762"/>
  <path id="Trazado_24903" data-name="Trazado 24903" d="M32.59,29a2.12,2.12,0,0,1-.42-.22c.07.32.07.48.1.64C32.52,29.45,32.75,29.45,32.59,29Z" transform="translate(-6.78 -6.478)" fill="#1f7762"/>
  <path id="Trazado_24904" data-name="Trazado 24904" d="M32.24,29.45h1.15c-.36-.19-.61-.29-.83-.42C32.75,29.45,32.52,29.45,32.24,29.45Z" transform="translate(-6.78 -6.478)" fill="#1f7762"/>
  <path id="Trazado_24905" data-name="Trazado 24905" d="M31.22,30.12h0a2,2,0,0,0,.44-.07c-.06-.19-.16-.41-.22-.63a.55.55,0,0,0-.16.12,1.91,1.91,0,0,1-.06.58Z" transform="translate(-6.78 -6.478)" fill="#1f7762"/>
  <path id="Trazado_24906" data-name="Trazado 24906" d="M31.25,30.15a1.468,1.468,0,0,0,.44-.1,2.72,2.72,0,0,0-.44.1Z" transform="translate(-6.78 -6.478)" fill="#1f7762"/>
  <path id="Trazado_24907" data-name="Trazado 24907" d="M31.25,29.54v.58h0a3.76,3.76,0,0,0,0-.58Z" transform="translate(-6.78 -6.478)" fill="#1f7762"/>
  <path id="Trazado_24908" data-name="Trazado 24908" d="M31.22,30.12Z" transform="translate(-6.78 -6.478)" fill="#1f7762"/>
  <path id="Trazado_24909" data-name="Trazado 24909" d="M29.08,31.71h.16v-.64h-.16Z" transform="translate(-6.78 -6.478)" fill="#1f7762"/>
  <path id="Trazado_24910" data-name="Trazado 24910" d="M29.3,27.88a4.132,4.132,0,0,0,.13.61h.19a1.22,1.22,0,0,0-.19-.61.21.21,0,0,1-.13,0Z" transform="translate(-6.78 -6.478)" fill="#1f7762"/>
  <path id="Trazado_24911" data-name="Trazado 24911" d="M29.62,28.49a2.142,2.142,0,0,0-.06-.61h-.13A1,1,0,0,1,29.62,28.49Z" transform="translate(-6.78 -6.478)" fill="#1f7762"/>
  <path id="Trazado_24912" data-name="Trazado 24912" d="M28.79,30.12h.1V29.8h-.1Z" transform="translate(-6.78 -6.478)" fill="#1f7762"/>
  <path id="Trazado_24913" data-name="Trazado 24913" d="M37,29.58h-.32v.09H37Z" transform="translate(-6.78 -6.478)" fill="#1f7762"/>
  <path id="Trazado_24914" data-name="Trazado 24914" d="M33.16,19.3a7.33,7.33,0,0,0,2.08-.22c-.83-.19-1.41-.35-2.08-.51Z" transform="translate(-6.78 -6.478)" fill="#1f7762"/>
  <path id="Trazado_24915" data-name="Trazado 24915" d="M30.64,18.92h1.47A1.35,1.35,0,0,0,30.64,18.92Z" transform="translate(-6.78 -6.478)" fill="#1f7762"/>
  <path id="Trazado_24916" data-name="Trazado 24916" d="M37.92,21.22h.63a1.943,1.943,0,0,0-.06-.6,3.45,3.45,0,0,1-.54,0,4.09,4.09,0,0,0,0,.61Z" transform="translate(-6.78 -6.478)" fill="#1f7762"/>
  <path id="Trazado_24917" data-name="Trazado 24917" d="M38,20.61a3.89,3.89,0,0,0,0,.61h0A4.09,4.09,0,0,1,38,20.61Z" transform="translate(-6.78 -6.478)" fill="#1f7762"/>
  <path id="Trazado_24918" data-name="Trazado 24918" d="M37.92,21.22a5.75,5.75,0,0,0,.63-.07A1.766,1.766,0,0,0,37.92,21.22Z" transform="translate(-6.78 -6.478)" fill="#1f7762"/>
  <path id="Trazado_24919" data-name="Trazado 24919" d="M29.33,19.59c0-.23,0-.39-.28-.48a5.571,5.571,0,0,0-.45.41,5,5,0,0,0,.73.07Z" transform="translate(-6.78 -6.478)" fill="#1f7762"/>
  <path id="Trazado_24920" data-name="Trazado 24920" d="M29.33,19.59a2.964,2.964,0,0,0-.06-.7,1.69,1.69,0,0,1-.26.22C29.3,19.2,29.3,19.36,29.33,19.59Z" transform="translate(-6.78 -6.478)" fill="#1f7762"/>
  <path id="Trazado_24921" data-name="Trazado 24921" d="M32.24,19.72a.27.27,0,0,0,0,.15h.83v-.28C32.78,19.62,32.49,19.68,32.24,19.72Z" transform="translate(-6.78 -6.478)" fill="#1f7762"/>
  <path id="Trazado_24922" data-name="Trazado 24922" d="M35.52,19v.1h0a.13.13,0,0,0,0-.1Z" transform="translate(-6.78 -6.478)" fill="#1f7762"/>
  <path id="Trazado_24923" data-name="Trazado 24923" d="M35.49,19.36v-.28C35.46,19.24,35.43,19.36,35.49,19.36Z" transform="translate(-6.78 -6.478)" fill="#1f7762"/>
  <path id="Trazado_24924" data-name="Trazado 24924" d="M35.65,19.46h0v-.19c0-.06-.1.06-.13.12S35.62,19.49,35.65,19.46Z" transform="translate(-6.78 -6.478)" fill="#1f7762"/>
  <path id="Trazado_24925" data-name="Trazado 24925" d="M35.49,19.36c-.06,0,0-.12,0-.28h0a6.589,6.589,0,0,1-.19.67l.35-.29S35.56,19.49,35.49,19.36Z" transform="translate(-6.78 -6.478)" fill="#1f7762"/>
  <path id="Trazado_24926" data-name="Trazado 24926" d="M35.49,19.08v.28l.13-.12a1.28,1.28,0,0,0-.1-.26.13.13,0,0,1-.03.1Z" transform="translate(-6.78 -6.478)" fill="#1f7762"/>
  <path id="Trazado_24927" data-name="Trazado 24927" d="M30.42,19.94v-.1h0a.17.17,0,0,1,0,.1Z" transform="translate(-6.78 -6.478)" fill="#1f7762"/>
  <path id="Trazado_24928" data-name="Trazado 24928" d="M30.29,19.46h0a.86.86,0,0,1,0,.13s.1,0,.13-.06S30.32,19.43,30.29,19.46Z" transform="translate(-6.78 -6.478)" fill="#1f7762"/>
  <path id="Trazado_24929" data-name="Trazado 24929" d="M30.45,19.56v.28C30.48,19.68,30.51,19.56,30.45,19.56Z" transform="translate(-6.78 -6.478)" fill="#1f7762"/>
  <path id="Trazado_24930" data-name="Trazado 24930" d="M30.45,19.81v-.29c-.06,0-.1,0-.13.07l.1.32A.405.405,0,0,0,30.45,19.81Z" transform="translate(-6.78 -6.478)" fill="#1f7762"/>
  <path id="Trazado_24931" data-name="Trazado 24931" d="M30.45,19.56c.06,0,0,.12,0,.28h0a3.635,3.635,0,0,1,.19-.67l-.35.29A.131.131,0,0,1,30.45,19.56Z" transform="translate(-6.78 -6.478)" fill="#1f7762"/>
  <path id="Trazado_24932" data-name="Trazado 24932" d="M31.66,19.94h.1v-.32h-.1Z" transform="translate(-6.78 -6.478)" fill="#1f7762"/>
  <path id="Trazado_24933" data-name="Trazado 24933" d="M33.45,19.81h.32v-.09h-.32Z" transform="translate(-6.78 -6.478)" fill="#1f7762"/>
  <ellipse id="Elipse_688" data-name="Elipse 688" cx="0.22" cy="0.06" rx="0.22" ry="0.06" transform="translate(27.57 13.242)" fill="#1f7762"/>
  <path id="Trazado_24934" data-name="Trazado 24934" d="M35.62,15.09V14.8a3.181,3.181,0,0,0-.51.13v.16Z" transform="translate(-6.78 -6.478)" fill="#1f7762"/>
  <path id="Trazado_24935" data-name="Trazado 24935" d="M36.23,14.83h-.1v.32h.1Z" transform="translate(-6.78 -6.478)" fill="#1f7762"/>
  <path id="Trazado_24936" data-name="Trazado 24936" d="M12.64,76.26s-.09.13-.12.19c.38.1.73.22,1.08.32l1.05-.32a.42.42,0,0,0,0-.19Z" transform="translate(-6.78 -6.478)" fill="#1f7762"/>
  <path id="Trazado_24937" data-name="Trazado 24937" d="M35.78,10.81c-.32-.89-1.12-.67-1.63-1v.51c.51.13,1,.29,1.66.48Z" transform="translate(-6.78 -6.478)" fill="#1f7762"/>
  <path id="Trazado_24938" data-name="Trazado 24938" d="M35.91,10.88c-.07,0-.13,0-.16-.07s0,0-.07,0C35.84,10.88,36,10.94,35.91,10.88Z" transform="translate(-6.78 -6.478)" fill="#1f7762"/>
  <path id="Trazado_24939" data-name="Trazado 24939" d="M35.91,10.88l.54.19c-.22-.26-.29-.35-.32-.35l-.35.09h0C35.84,10.84,35.87,10.88,35.91,10.88Z" transform="translate(-6.78 -6.478)" fill="#1f7762"/>
  <path id="Trazado_24940" data-name="Trazado 24940" d="M35.68,10.84c.19.07.39.1.77.23l-.54-.19C36,10.94,35.84,10.88,35.68,10.84Z" transform="translate(-6.78 -6.478)" fill="#1f7762"/>
  <path id="Trazado_24941" data-name="Trazado 24941" d="M35.78,10.81h0l.16.07S35.84,10.84,35.78,10.81Z" transform="translate(-6.78 -6.478)" fill="#1f7762"/>
  <path id="Trazado_24942" data-name="Trazado 24942" d="M36.83,11h-.09v.32h.09Z" transform="translate(-6.78 -6.478)" fill="#1f7762"/>
  <path id="Trazado_24943" data-name="Trazado 24943" d="M31.57,9.76h0c-.09.06-.16.16-.25.22l.09.1.2-.29Z" transform="translate(-6.78 -6.478)" fill="#1f7762"/>
  <path id="Trazado_24944" data-name="Trazado 24944" d="M31.53,9.76Z" transform="translate(-6.78 -6.478)" fill="#1f7762"/>
  <path id="Trazado_24945" data-name="Trazado 24945" d="M31.37,10.05c.07-.1.16-.16.23-.26h0A1,1,0,0,0,31.37,10.05Z" transform="translate(-6.78 -6.478)" fill="#1f7762"/>
  <path id="Trazado_24946" data-name="Trazado 24946" d="M31.57,9.76Z" transform="translate(-6.78 -6.478)" fill="#1f7762"/>
  <path id="Trazado_24947" data-name="Trazado 24947" d="M32,50.44h1c-.13-.32-.19-.47-.26-.6C32.17,49.81,32.05,50.09,32,50.44Z" transform="translate(-6.78 -6.478)" fill="#1f7762"/>
  <path id="Trazado_24948" data-name="Trazado 24948" d="M37.6,60.65h0c.09-.07.16-.16.25-.23l-.09-.09a.66.66,0,0,0-.19.28Z" transform="translate(-6.78 -6.478)" fill="#1f7762"/>
  <path id="Trazado_24949" data-name="Trazado 24949" d="M37.79,60.37c-.07.09-.16.16-.22.25h0C37.63,60.56,37.69,60.46,37.79,60.37Z" transform="translate(-6.78 -6.478)" fill="#1f7762"/>
  <path id="Trazado_24950" data-name="Trazado 24950" d="M32.3,65.41h.16v-.55h-.29C32.2,65.06,32.27,65.22,32.3,65.41Z" transform="translate(-6.78 -6.478)" fill="#1f7762"/>
  <path id="Trazado_24951" data-name="Trazado 24951" d="M33.77,64.71l-.1-.51h-.19a1.35,1.35,0,0,0,.16.6h0Z" transform="translate(-6.78 -6.478)" fill="#1f7762"/>
  <path id="Trazado_24952" data-name="Trazado 24952" d="M33.51,64.8h.13a1,1,0,0,1-.16-.6C33.48,64.42,33.51,64.61,33.51,64.8Z" transform="translate(-6.78 -6.478)" fill="#1f7762"/>
  <path id="Trazado_24953" data-name="Trazado 24953" d="M33.64,64.8h.13v-.09A.56.56,0,0,1,33.64,64.8Z" transform="translate(-6.78 -6.478)" fill="#1f7762"/>
  <path id="Trazado_24954" data-name="Trazado 24954" d="M32.94,64.8H33v-.32h-.09Z" transform="translate(-6.78 -6.478)" fill="#1f7762"/>
  <path id="Trazado_24955" data-name="Trazado 24955" d="M37.69,71.79h.19a1.39,1.39,0,0,0-.16-.61h-.15a3.84,3.84,0,0,0,.12.61Z" transform="translate(-6.78 -6.478)" fill="#1f7762"/>
  <path id="Trazado_24956" data-name="Trazado 24956" d="M37.82,71.15h-.13a1.08,1.08,0,0,1,.16.61A2.15,2.15,0,0,0,37.82,71.15Z" transform="translate(-6.78 -6.478)" fill="#1f7762"/>
  <path id="Trazado_24957" data-name="Trazado 24957" d="M30,67v-.6h-.64V67Z" transform="translate(-6.78 -6.478)" fill="#1f7762"/>
</svg>
