<svg id="Calavera_nachos-veganos" xmlns="http://www.w3.org/2000/svg" width="48.95" height="69.107" viewBox="0 0 48.95 69.107">
  <path id="Trazado_25148" data-name="Trazado 25148" d="M22.46,48.32H22.4a.28.28,0,0,0,.16.07h0C22.53,48.35,22.5,48.32,22.46,48.32Z" transform="translate(-4.47 -10.183)" fill="#1f7762"/>
  <path id="Trazado_25149" data-name="Trazado 25149" d="M32.27,58.77Z" transform="translate(-4.47 -10.183)" fill="#1f7762"/>
  <path id="Trazado_25150" data-name="Trazado 25150" d="M35.38,71.33a1,1,0,0,1-.36-.07c0,.07,0,.1,0,.17a.73.73,0,0,1,.13.09C35.28,71.46,35.35,71.43,35.38,71.33Z" transform="translate(-4.47 -10.183)" fill="#1f7762"/>
  <path id="Trazado_25151" data-name="Trazado 25151" d="M42,67.89h.2a.35.35,0,0,1-.2,0Z" transform="translate(-4.47 -10.183)" fill="#1f7762"/>
  <path id="Trazado_25152" data-name="Trazado 25152" d="M30.55,53.84v.1a.32.32,0,0,1,.13.13v-.2h0A.857.857,0,0,0,30.55,53.84Z" transform="translate(-4.47 -10.183)" fill="#1f7762"/>
  <path id="Trazado_25153" data-name="Trazado 25153" d="M37.17,73.63h0c0,.07.06.07.09.1s0,0,.07,0S37.2,73.67,37.17,73.63Z" transform="translate(-4.47 -10.183)" fill="#1f7762"/>
  <path id="Trazado_25154" data-name="Trazado 25154" d="M36.39,72.37v-.1c-.19.36-.26.42-.35.49l.29-.29Z" transform="translate(-4.47 -10.183)" fill="#1f7762"/>
  <path id="Trazado_25155" data-name="Trazado 25155" d="M30.55,56.4Z" transform="translate(-4.47 -10.183)" fill="#1f7762"/>
  <path id="Trazado_25156" data-name="Trazado 25156" d="M31.71,38.65h-.22a.54.54,0,0,1,.22.13Z" transform="translate(-4.47 -10.183)" fill="#1f7762"/>
  <path id="Trazado_25157" data-name="Trazado 25157" d="M23.93,34.76v.16H23.8A.48.48,0,0,1,24,35v-.06a.18.18,0,0,1-.07-.18Z" transform="translate(-4.47 -10.183)" fill="#1f7762"/>
  <path id="Trazado_25158" data-name="Trazado 25158" d="M14.25,52.7l.3-.29a.48.48,0,0,1,.09-.13s0-.06,0-.1a1.28,1.28,0,0,1-.39.52Z" transform="translate(-4.47 -10.183)" fill="#1f7762"/>
  <path id="Trazado_25159" data-name="Trazado 25159" d="M46.28,30.73c.13,1.5-.64,2.53-1.07,3.6.1.36.17.62.26,1A5.551,5.551,0,0,1,45,35l-.49.49c.1.61.16,1.3.29,2-.26.16-.58.39-1,.62a5.24,5.24,0,0,0-1.23.1h0v.09h-.55v-.2l.55-.1v.13h0v-.09h0c.07-.17.17-.36.26-.59l-3.66,1a.42.42,0,0,0,0,.19,6.79,6.79,0,0,0,1.4-.1h0v-.09H41.7v.13H40.61v.1h0c0,.52-.56.16-.78.33a.14.14,0,0,0-.07.12c.36.26,0,.59,0,.88v.16a.64.64,0,0,0,.1.13.1.1,0,0,1,.09.07,3.571,3.571,0,0,1,.39.19c-.09.46-.19.78-.29,1.14s-.19.62-.36,1.13c.43-.16.65-.26.88-.32v1.17c-.36-.46-.65-.46-.91-.16-.36-.13-.71-.23-1.1-.36.13-.71.29-1.43.42-2.11l.75-.1a3.69,3.69,0,0,1-.26-.58.687.687,0,0,0-.1-.46c-.1-.1-.1,0-.19,0h0c-.07.07-.13.16-.2.23l-.1-.1c.07-.06.17-.13.23-.19h0c.1-.16.16-.29.26-.46L39,38.94c-.55,0-1.3.23-1.65-.06s-1.17.06-1.53-.52c-1.14.13-2-.88-3.05-.59-.23-.19-.39-.29-.58-.45a1.87,1.87,0,0,1,1.26.06,3.82,3.82,0,0,0,2.24.43c-.1-.13-.26-.3-.26-.43,0-.48-.29-.45-.58-.45v.49a6.81,6.81,0,0,1-.94-.23c-.1,0-.17-.19-.23-.26h0c-.65-.16-1.3-.29-2.14-.48a2,2,0,0,1,2.17.45H34.8l-.36-.29a2,2,0,0,1-.23-.3,6.371,6.371,0,0,0-.81,0c.49-.26.49-.26.81,0h0a10.32,10.32,0,0,0,2.18-.09L35.71,36c.58-.26,1.16-.55,1.81-.85-.45-1.75.29-3.31.16-4.93-.22-.36-.45-.71-.68-1.1a4.32,4.32,0,0,0-1,2.66h.09c.43.16.1.55.2.84h0a2.48,2.48,0,0,0,.45-.33c0,.07.13.16.13.23-.09.39-.26.75-.48,1.4a12.28,12.28,0,0,1-.1-1.3h0a.51.51,0,0,0-.26.2,2.68,2.68,0,0,0-.29.36v1.39c-.42-.61-.23-1-.29-1.39-.1-.1-.26-.23-.26-.33a5.48,5.48,0,0,1,0-.81,2,2,0,0,0-.3.23l-.06.06c-.1.1-.16.29-.2.85.17.48.3.42.65.26-.19.42-.32.68-.45,1L34.41,34c-.07.33-.13.62-.2,1-.61-.88.49-1.5.07-2.28.32.23.35.33.35.46v-.65s-.07.06-.07.1a4.8,4.8,0,0,1,.13-.88c.06-.33.1-.78.13-1.13a.8.8,0,0,0-.29.22,17.19,17.19,0,0,0-.88,3.31,3,3,0,0,1-.35.75,2.11,2.11,0,0,1-.17-1.56,1.84,1.84,0,0,0,.17-1.23l-.46.58c-.1-1.07.59-1.95.36-2.95-.26.68-.52,1.33-.88,2.24a2.89,2.89,0,0,1,.13-1.92h-.06A1.38,1.38,0,0,0,31.9,30c-.1,0-.16.1-.19.29v-.03a2.65,2.65,0,0,1,0,1.88,7.3,7.3,0,0,0-.46,2.08c-.39-.23-.09-.62-.16-.91s.16-.68.26-1,0-.75.1-1.1a6.741,6.741,0,0,0,.23-.91c-.33.32-.62.65-.95,1V33a7.11,7.11,0,0,1-.55.55c.49.36.23.81.3,1.33a4.2,4.2,0,0,1-.82-.1A6.82,6.82,0,0,1,30,33.13a3.15,3.15,0,0,0,.23-1.75c-.13.1-.16.1-.19.13s0,.26-.07.39V32c-.06.32-.49,1.62-.55,1.75h0a5.11,5.11,0,0,0,0,.84c-.26-.48-.26-.48,0-.81h0c-.17-1.52.78-2.86.74-4.32a12,12,0,0,1-.78,2.11,3.22,3.22,0,0,0-.51,2.21c.06.75.19,1.49.29,2.43a7.06,7.06,0,0,0-.62-.58V34.24c-.36-.29-.65-.49-.88-.65a3.56,3.56,0,0,0,.3-1,5.2,5.2,0,0,1,.52-2.75,3,3,0,0,0-.36-.36A8.71,8.71,0,0,0,27.33,34c0,.42,0,.85,0,1.3,0,.23-.06.49-.09.94-.36-.84.06-1.56-.39-2a2.43,2.43,0,0,1,.19-.42,1.352,1.352,0,0,0-.52.06,10.7,10.7,0,0,1-.06,1.4.62.62,0,0,1-.26-.49c0-.94,0-1.88.06-2.82l.23-.1c.06-.62.1-1.27.16-1.95-.23-.1-.52-.26-.58-.29a10.49,10.49,0,0,0-1,.62c0,.61,0,1.1,0,1.55a2.344,2.344,0,0,1-.19,1.46,15.691,15.691,0,0,1-.1-1.81,8.37,8.37,0,0,0-.13-2.15,12.33,12.33,0,0,0-.26,1.21c-.13-.33-.2-.49-.26-.69-.1.1-.19.17-.26.23-.23-.1-.45-.16-.81-.29a4.38,4.38,0,0,1-.71,2.92l-.69.06c0,1-.52,1.89-.19,2.83h.1V36.7h-.13V35.57h0c-.2,0-.29,0-.36.19v.07c0,.07,0,.09.06.13-.16.16-.32.29-.51.48-.07-.29-.13-.58-.17-.81-.22.1-.45.16-.78.29a2.28,2.28,0,0,1,.13-.35c.26-.33.85-.33.88-.91a11.551,11.551,0,0,0,.45,1.07v-.19h0a2.32,2.32,0,0,0,0-.46v-.34c-.07-.39-.13-.71-.16-1a6.13,6.13,0,0,1,.22-3.31c.1-.23,0-.52,0-1-.94,1.78-.35,3.5-.68,5.22-.16-.32-.22-.49-.35-.74-.1.35-.17.64-.26,1.07-.33-.26-.52-.46-.78-.65v-.91l-.81.32a4.6,4.6,0,0,1,.09-.87c.3.09.52.16.81.22V31.15s-.13-.09-.29-.19V32.1a1.78,1.78,0,0,0-.35.06.388.388,0,0,1-.2-.1,7.54,7.54,0,0,1,1.43-3.57V29c.39,0,.23-.32.29-.52s.16-.35.23-.58H18.51c.13.29.22.52.32.78h-.42c-.16-.39-.29-.78-.39-1.07l-1.43-.1c1.23-.29,2.47-.1,3.67-.49H16.88v-.58h1.11c-.3-.46-1.11-.17-1.2-.75-.82-.13-1.53-.26-2.24-.36-.43.59-.94.17-1.43.13.19-.09.39-.16.78-.35-.59-.07-1-.1-1.53-.13.39-.17.59-.26.78-.36l-.1-.42H11.63c-.07,0-.13-.13-.43-.33a1.46,1.46,0,0,1-.19.07h0a3.33,3.33,0,0,0-.26-.29c.35.09.52.16.68.19h-.1A2,2,0,0,0,12,24v-.52c-.45,0-.91-.1-1.36-.13v-.13c.52-.06,1-.16,1.62-.23l.42.43a1.74,1.74,0,0,1,.3-.26c.13.09.29.22.45.32.2-.13.36-.36.49-.32.71.19,1.43.45,2.07.65a3.571,3.571,0,0,0,.07.84c.19-.2.29-.26.26-.23.42.07.75.1,1,.16.09-.29.16-.42.19-.52a13,13,0,0,1,2.27.26,10.85,10.85,0,0,0,3.64.56c.13,0,.36-.07.42,0,.42.48,1.07.06,1.43.32.52.36,1,.16,1.49.26a10.224,10.224,0,0,0,1.17.26c.39.03.94-.13,1.26,0,.72.42,1.53,0,2.18.29a6.94,6.94,0,0,0,2.34.26h4.57c1.52,0,3-.19,4.45-.29.06,0,.09-.1.16-.19a11.159,11.159,0,0,0-1.14-.16,5.36,5.36,0,0,1,.33-.43,3.29,3.29,0,0,0-.49,0,4.35,4.35,0,0,1-.23.58,5.155,5.155,0,0,1-.87-.06c.16-.29.29-.49.39-.68-1.43-.36-1.43-.36-1.92-.2a1.39,1.39,0,0,1,1.07.72c-.81,0-1.46-.55-2.27-.1a6.12,6.12,0,0,1-2.2.36,3.529,3.529,0,0,0-.17-.46c-.84-.32-1.68.23-2.4-.39a.57.57,0,0,0-.55,0c-.55.48-1.17.13-1.75.26a2.987,2.987,0,0,0-.1-.52c-.39-.1-.88-.1-1.17-.56h-.19a3.621,3.621,0,0,1-.2.55c-1.23-.55-2.53-.29-3.79-.39-.17-.26-.33-.51-.52-.84H23.41c-.36-.23-.56-.39-.78-.55a6.711,6.711,0,0,1-.59.45v-.74c-.45-.46-.87-.91-1.42-1.5v.62c.42,0,.22.36.38.58h.1v.56a.42.42,0,0,0-.19,0,2.841,2.841,0,0,0-.1-.55h0c-.42,0-.22-.36-.29-.59s-.42-.39-.74-.65c.32-.16.52-.22.74-.32a3.293,3.293,0,0,0-.06-.75H20v.62c-.91-.58-.72-1.56-1.1-2.3l.51.22v-.81l-.81-.13c.62-.84-.19-1.46-.22-2.14a4.53,4.53,0,0,0,.52-.19,2.72,2.72,0,0,0-.13-.49c-.17.13-.26.19-.49.39a1,1,0,0,0-.13-.65H18v-.84a.33.33,0,0,0,.19,0,8.534,8.534,0,0,0,.1.85h.55a.88.88,0,0,0-.13-.59h-.13v-.84a.42.42,0,0,0,.19,0c0,.26.07.52.1.81.13-.07.23-.1.26-.16,0-.39.06-.82.06-1.21h.17c.16.75.29,1.5.45,2.28a5.36,5.36,0,0,0,.2-1.14c.06-.36-.26-.78.29-1.17v2.08a1.623,1.623,0,0,0,.58-.07V12.53a4.93,4.93,0,0,1,.26,2.07c0,.75,0,1.5,0,2.28l.52-.13A7,7,0,0,1,21.91,12a6.529,6.529,0,0,0,.13.81,1.48,1.48,0,0,0,.23-.62,1.2,1.2,0,0,1,.23-.42l-.78-.36h1.72c.61.46,1.26,1,2,1.49.52.36,1.07.75,1.78.3-.32-.78-1.36-.91-1.46-1.72-.39-.13-.68-.36-1-.33-.55,0-.75-.49-1.14-.65a8,8,0,0,0-2.89-.29,2.4,2.4,0,0,0-1.75.55,4.16,4.16,0,0,1-.45-.32c-.49.48-.91.94-1.33,1.39-.39.17-.85.33-1.43.55l.88.75c-.33.16-.52.26-.69.36-.19,1.59.75,3,.88,4.41.78.42,1.07.81,2.08,3.21.26.62.74,1.27.35,2-1.59-.35-3.08-.71-4.64-1.07a2.41,2.41,0,0,1-1.78.17,15.17,15.17,0,0,0-3.28-.75c-.65-.07-1.3.13-1.88-.26a.89.89,0,0,0-.81.06c-.68.65-1.56.43-2.34.49a3.85,3.85,0,0,0,.36,2.5,1.54,1.54,0,0,0,1.33.71,2.971,2.971,0,0,0,.06.78l2.86.39-.88.46c-.26-.13-.48-.23-.81-.36,0,.26-.1.45,0,.49a3.829,3.829,0,0,1,.68.42,4.21,4.21,0,0,0,1.6.86,8.32,8.32,0,0,1,3.31,1.68h1.07a9.24,9.24,0,0,0,1.37,1,9.66,9.66,0,0,0,1.62.42c0,1.75.91,3.15,1.33,4.67.52,1.76,2,2.7,2.79,4.06.91.52,2.37.2,2.53,1.79l1.11.09a3.1,3.1,0,0,1-.1.56c-.26-.1-.49-.2-1-.39.59.71,1,1.2,1.43,1.75-.13.29-.23.58-.36.87.17.43.36.88.85,1v.39c.32.39.45.55.71.84H22.66c-.26-.45-.84-.61-1.17-1.13a4.27,4.27,0,0,0-1.39-1.11,1.84,1.84,0,0,0-1.82-.16,1.14,1.14,0,0,1-1.17,0,4,4,0,0,0-.81-.16c-.26,1-.49,1.91-.71,2.89l-.1.1-.36.35a3.77,3.77,0,0,1-.1.88.6.6,0,0,1-.16.29,1.29,1.29,0,0,0,0,1.75c.06.07,0,.3,0,.42s-.1.13-.13.23a3.25,3.25,0,0,0-.33-.29c-.26.13-.55.23-.81.36l-.22-.55c-.23.09-.46.22-.49.22a13.57,13.57,0,0,0-1.2,1.69c-.33.58-.55,1.2-.81,1.78.52.56.26,1.21.32,1.79s-.13,1.27.16,1.75c-.09.2-.19.36-.32.65a10.89,10.89,0,0,0-.84-1.85A10,10,0,0,0,8.8,55.2H8.09c-.1.36-.2.68-.23.88l.94,2a4.79,4.79,0,0,0-.22,1.85c.29.42.61.75.84,1.13a8.25,8.25,0,0,1,.42,1.3c.84.62,2,.88,2.76,1.72a1.45,1.45,0,0,1,.52,1.82c-.29.78-.39,1.72-1.2,2.14-1.95.42-3.31-.74-4.71-1.65A.73.73,0,0,0,6.3,67c.43.33.82.65,1.17.94v.91c1.27,1.14,3,.72,4.35,1.24.42-.23.88-.43,1.33-.65,0-.68.84-.78.94-1.46a6.36,6.36,0,0,1,.85-1.69,6,6,0,0,0-.49-2.5,1.9,1.9,0,0,1,.1-1.56c-.1-.65-.2-1.2-.26-1.72-.17-.32-.3-.61-.59-1.2l.94.55c0-.55.23-1.13-.74-1.52l-.33.45c.07-.45.13-1,.23-1.49s.23-1.14.32-1.72c.23.13.43.2.69.32.19-.32.39-.61.58-.94h.42c-.06-.61-.06-1.33.42-1.65.65-.42.17-1.2.69-1.59l.09-.1a16.12,16.12,0,0,0,1.85-3.31c.29.23.59.42.72.55.42-.06.71-.13,1-.16.19.45.36.81.55,1.2H22.2c-.09.75-.19,1.4-.26,1.88.1.56.17.94.23,1.4a6.25,6.25,0,0,0,2.95,2.17c.2.36.3.52.39.68-.13.17-.26.3-.39.46l-.81-.36c-1.78.81-1.82.81-2.63,2.08a11.77,11.77,0,0,0-.94,2c-.45,1.17-1,2.28-1.49,3.38-.75,1.52-1.1,3.15-1.95,4.64a14,14,0,0,1-1.91,2.82c-1-.16-1.46.65-2.14.94.13,1,.26,1.95.39,3a7.849,7.849,0,0,0,.42.78,1.79,1.79,0,0,0-.2.36c.26.39.49.68.62.91l1.36.09v.17c-.39,0-.74.09-1.46.16.72.22,1.07.35,1.46.45h0c.07-.06.13-.16.2-.23l.09.1c-.06.07-.16.13-.22.2h0a.57.57,0,0,0,.13.26c.17.13.43,0,.62,0h.07c.13,0,.22.1.35.13V79a8.309,8.309,0,0,0,.91.29l2.95-.52c.33-.22.65-.45,1-.68l-.55-.19V76.75l-.55-.55a3.533,3.533,0,0,0-.13-.78c-.88-.49-1.85-.78-2.27-1.88l.9-.2c0-.68.62-.68,1-.74,1.07-.2,2.17-.26,3.24-.39a5,5,0,0,0,.36-1.14c0-.32.45-.65.1-1a5.4,5.4,0,0,1,.52-.45V68.21a4.407,4.407,0,0,1,.94-1.26,8.69,8.69,0,0,0,2.72-3c.2.1.36.2.52.26a3.741,3.741,0,0,1,.36-.26,20.1,20.1,0,0,1,.32,2.24,14.2,14.2,0,0,0,1.3,3.76c.65.33.68,1.07,1,1.59.06.1,0,.26.06.43h.56c.55.42,1.1.84,1.62,1.26v.69c-.2.06-.36.13-.52.19a10.1,10.1,0,0,0,0,1.75c.1.55.59,1.07-.06,1.59.26.46.52.81.71,1.17a4.89,4.89,0,0,0,2.4-.29,2.35,2.35,0,0,1,2.31.06l1-.52c.16-.06.39-.16.52-.09.88.52,1.82.16,2.5.26.71-.3,1.27-.49,1.82-.72-.26-1.2.65-2.33.13-3.6-.49.2-1,.36-1.37.52-.68-.32-1.46.06-1.94-.23-.65-.39-1.37,0-2-.48a5.53,5.53,0,0,0-1.72-.65v-1.1c1,.1.94-1.1,1.65-1.46l1.24.81,2.11-.45a.88.88,0,0,0,.42.23,2.3,2.3,0,0,0,1.39-.2l.2.2c.39-.26.78-.55,1.2-.81a.51.51,0,0,0,.26.22c.23.07.45-.26.68-.26.75.36.94.43,1.43.1a3.791,3.791,0,0,0,.39-.29c-.36-.26-.68-.52-1-.78a.26.26,0,0,0,.16-.13c-.19-.45-.38-.88-.68-1.52a2.2,2.2,0,0,0,0-.91,31.818,31.818,0,0,1-.81-3.83,20.829,20.829,0,0,1-.26-2.89,10.41,10.41,0,0,0-.75-3.28c.91.1,1.66-.16,2.37.26.23-1-1-1.75-.19-2.85-.23-.13-.49-.26-.68-.39a6.561,6.561,0,0,0,.35-.75c-.52-.65-1-1.27-1.42-1.82-.07-.1-.23-.13-.43-.26-.09.2-.16.33-.26.59-.26.09-.61.26-.94.39-.81-.56-1.68-.23-2.43-.33-.39.29-.72.52-.94.72.06.26.13.45.19.74H38.11c-.68.29-.78,1-1.46.85.13.35.52.68.16,1.13a2.641,2.641,0,0,0-.29-.23c-.3.2-.56.43-.91.69-.07-.39-.13-.65-.16-1a4.05,4.05,0,0,0-.52-.09,6.261,6.261,0,0,0,0-.75,2.88,2.88,0,0,0-.33-.71,1.94,1.94,0,0,0,.29-.33,5.41,5.41,0,0,0-1.1-2,1.46,1.46,0,0,0-.26-.19h0c-.06.06-.13.16-.19.23l-.1-.1c.06-.07.16-.13.23-.2h0c-.1-.23-.23-.46-.49-1,.55.39.85.58,1.11.75.74,1.2,1.52,2.4,2.27,3.57,0,.06.16.06.22.09a2.9,2.9,0,0,0-.19-.61A10.56,10.56,0,0,1,35.25,51,18,18,0,0,0,34,48.48c-.16.13-.26.23-.26.23l-1.17-1.36c-.12.13-.22.19-.38.35-.07-.29-.1-.55-.17-.87-1,.26-1.1-.94-1.91-1.1a5.4,5.4,0,0,0,1-.17c-.39-.22-.62-.39-.72-.42a3,3,0,0,0,.3-.55c.74.13,1.29.19,1.88.29.16.16.32.46.52.49a4.93,4.93,0,0,1,2.66,1.56,16.57,16.57,0,0,0,2,1.68,6.25,6.25,0,0,0,1.36.85,6,6,0,0,0,2,.22c1.14-.77.59-1.65.33-2.33a10.37,10.37,0,0,0-1.53-2.18c1.07.39,2.11.2,2.92.81,1-.32,1.82.88,2.83.52A5.92,5.92,0,0,0,46,46a5.55,5.55,0,0,0,.65-1.59c-.06-.06-.13-.16-.16-.16h0c.06-.45.1-.78.16-1.07-.36-.06-.58-.1-.84-.13l.87-.65c-.06-.19-.06-.26-.09-.35-.36-.88-.1-1.92.61-2.05s1.11-.62,1.72-.68a3,3,0,0,0-.84-2.69c.19-.56-.58-.23-.62-.75,0-.32-.52-.65-.78-1,.17-.2.36-.39.59-.62-.07-.26-.16-.55-.26-.88a2.94,2.94,0,0,0,.19-.29,5.559,5.559,0,0,0,.26-.62,2.73,2.73,0,0,0-1.3-2.88h-.68c.07.19.07.45.23.61a2.6,2.6,0,0,1,.57.53ZM37,31.8h.1v.3H37Zm-.91,2.34a.21.21,0,0,0,.13,0,1.983,1.983,0,0,0,.1.45c.03.13-.16,0-.26,0a2.12,2.12,0,0,0,0-.45Zm-1.49.91h.29v.1H34.6Zm-1.23,1a8,8,0,0,0-1,.1V35.6c.28.1.51.23.97.4ZM32.62,33h.16l.1.78h-.26Zm-.1,1.17v.75h-.16l-.09-.78a.8.8,0,0,0,.25,0Zm-.29-1.72v1h-.16a6.342,6.342,0,0,0-.06-1.07.56.56,0,0,0,.22.04Zm-.45,1.43h.16l.1.78h-.26Zm2.89-8.67h.09v.3h-.09ZM23.44,23.53h.49a1.056,1.056,0,0,0,.09.13,4.919,4.919,0,0,1-.58.26Zm-1.92-.91h.1v.29h-.1Zm-.09.65H22v.13h-.58Zm-.59,0h.29v.1h-.29Zm-.84,0h.29v.1H20Zm-.78-11.84h.1v.29h-.1ZM7.12,25.12h-.3V25h.3ZM10,22.81H9.68v-.09H10Zm1,1.59h1.17a1.25,1.25,0,0,0,.06.43,4.216,4.216,0,0,1-.9-.07A3.4,3.4,0,0,0,11,24.4Zm1.4,3.09h-.1V27.2h.1Zm-.39-2v-.26h.48a.21.21,0,0,0,0,.13,2.14,2.14,0,0,0-.44.15Zm1.36,1.33h-.29v-.1h.29Zm1.14-1h.58V26h-.58ZM14,27.75c-.07-.36-.16-.72.61-.39C14.42,27.49,14.22,27.62,14,27.75Zm.84-1.2v-.13H16.2c0,.19.23.48-.22.42Zm.88.94v-.26h.48a.18.18,0,0,0,0,.13,2.657,2.657,0,0,1-.45.13Zm.81,1.62h-.29V29h.29Zm2.24,5.78h-.13a6.423,6.423,0,0,0-.1-.75h.26a6.779,6.779,0,0,0,0,.75Zm2,2.24h-.29V37h.29ZM14.16,51.89h0l.09.1-.22.19c-.07.07-.13.17-.2.23l-.09-.1.22-.19a1.569,1.569,0,0,1,.2-.23Zm-1,9.57c-.26.2-.55.39-.75.52a7.06,7.06,0,0,1-1.17-1.07,8.26,8.26,0,0,1-.71-1.49c.19-.07.32-.13.52-.19.06.22.13.38.19.55.33.09.65.16,1.08.29V59c.16.09.29.13.29.16v1.23a.42.42,0,0,0,.19,0c.07-.16.13-.33.2-.52.45.49.06.84-.17,1.17a1.93,1.93,0,0,0,.29.42Zm1.56-9.05v-.13a.48.48,0,0,0-.09.13l-.3.29a.954.954,0,0,1-.09.52c-.36.42-.17.75.06,1.07a6.06,6.06,0,0,0-.42.49c-.06-.33-.1-.59-.16-.84a.114.114,0,0,1-.1-.07c-.1.32-.23.65-.29.88.06.42.1.74.16,1.07l-.49.06c-.06-.48-.09-1-.16-1.43H12.6a8.41,8.41,0,0,1-.07,1.34c0,.12-.16.25-.26.35a8,8,0,0,1,0,1,1.51,1.51,0,0,0,.3,1h.22v.55h-.2a2.422,2.422,0,0,0-.1-.56h-.45c-.06.3-.1.59-.16.88h-.16c0-.26-.13-.58,0-.78a4.67,4.67,0,0,0,.3-1.88c0-.07.16-.16.25-.23V53.58c.39-.13.78-.26,1.47-.46,0,0,.29-.22.55-.39a2.35,2.35,0,0,0,.35-.48.263.263,0,0,0-.06-.2c-.06-.07.1-.09.32-.29-.13.33-.16.49-.22.65ZM37.81,40.66h.1V41h-.1Zm-3.08-.61a.13.13,0,0,1,.1,0h0l.19-.23.1.1a1.16,1.16,0,0,1-.23.19V41l.43-.32c.06.16.09.29.19.51a4.488,4.488,0,0,1,.91.2c-.2.29-.29.45-.42.62-.59-.1-1.14-.17-1.79-.26.2-.6.36-1.15.52-1.7Zm-.87-.75c-.36.26-.59.42-.88.65a5.31,5.31,0,0,1-.13-.65Zm-.23.81v.29h-.1v-.29Zm-1,.1h.29v.1h-.29ZM31.16,37H32v.13h-.85ZM31,36.09h.09v.29H31Zm-1,.06h.59v.13H30Zm-.35,3.38v.26h-.49a.19.19,0,0,0,0-.13,3.57,3.57,0,0,1,.48-.13Zm-.1-.3v-.29h.1v.29Zm-1.49-4.54a1.25,1.25,0,0,1,0,1.33Zm.06,2c.07.07.13.17.2.23h.19v.55h-.19l-.1-.52h0c-.06-.07-.16-.13-.23-.2s.09-.05.12-.05Zm.36,2V39h-.1v-.3ZM27,41.08c.07.69.07.69-.39.62A2.145,2.145,0,0,0,27,41.08Zm-.42-4.47v-.49a.21.21,0,0,0,.13,0l.1.48a.41.41,0,0,1-.19.01Zm-.07-1h.3v.1h-.3Zm-.32-5.48v.48h-.13l-.1-.49a.61.61,0,0,1,.27,0Zm-.49,1.16a3,3,0,0,1,0,2.21Zm-1.85-.84a8,8,0,0,1-.13,1c-.06.48-.09,1-.16,1.46h-.1c0-.81-.09-1.66-.13-2.63a1.9,1.9,0,0,1,.56.16Zm-1.55,2.5h.12v.58H22.3ZM22,35.18a.19.19,0,0,0-.13,0l-.1-.49H22A2.22,2.22,0,0,0,22,35.18Zm.22.91h-.09v-.3h.09Zm.17-2.24h.12a6.257,6.257,0,0,0,.1.74h-.26a5.1,5.1,0,0,0-.01-.74Zm.22,1.49h.29v.1h-.29Zm.59,1.23h-.3v-.09h.3Zm.19.94h-.1v-.29h.1Zm-.13-2.3a6.013,6.013,0,0,0-.1-.84h0a2.54,2.54,0,0,1-.07-2c0,.33.07.69.07,1V34a1.66,1.66,0,0,0,.22.32c0,.3,0,.56,0,.85a.46.46,0,0,1-.17.04Zm.46.81a.19.19,0,0,0-.13,0,1.983,1.983,0,0,0-.1-.45c-.03-.13.16,0,.26,0a2.43,2.43,0,0,0-.08.43ZM24,37.19a.21.21,0,0,0-.13,0l-.1-.48H24A2.12,2.12,0,0,0,24,37.19Zm.52,1.2h-.1V38.1h.1Zm.74-1.17a7.981,7.981,0,0,0-.09-.84h0c-.07-.07-.13-.1-.2-.16s-.06,0-.06-.07a2.68,2.68,0,0,1-.29-.36c-.07.07-.13.17-.2.23s-.06-.16-.1-.23c-.51-.12-.22-.51-.26-.81a1.62,1.62,0,0,0-.22-.06V33.78H24v.94a.87.87,0,0,0,.09.17c.56.13.17.58.3.84h.29v-1.4a.42.42,0,0,0,.19,0c.13.65.26,1.27.36,1.92a.376.376,0,0,1,.23.06c.1.06,0,.23.06.36v.13a.74.74,0,0,1-.3.42Zm.2.78v-.1h.29V38Zm.19.39v.29h-.09v-.29Zm-.13,2.89v-.46l.39.39c-.1,0-.2.04-.43.07Zm.33-4.67c-.23-.72-.46-1.43-.65-2.15a3.963,3.963,0,0,1,.1-.45,5.53,5.53,0,0,1,.29.65c.1-.1.22-.2.45-.39v1.49c0,.49.52.68.13,1.2-.17-.13-.33-.22-.36-.35Zm.39,7.75c.61-1,.61-1,1.59-.48a3.31,3.31,0,0,1,.39-.3c0,.07.13.13.13.23a3.72,3.72,0,0,1,0,.58c-.76-.03-1.35-.03-2.15-.03ZM28,45.79H26.59V45h1.29l.43.43-.49.19A1.646,1.646,0,0,0,28,45.79Zm-.88,1.27c-.42.26-.78.68-1.36.45.24-.78.86-.45,1.31-.45Zm-1.72.48v.26h-.48v-.13Zm2.27-.19v.06c0,.06.06.2.09.33l.49.19c-.1.23-.23.46-.36.75-1.29.1-2.43,1.1-4.05.81.65-.23,1.1-.42,1.69-.65a6.191,6.191,0,0,0-.75-.26c.99-.42,1.9-.81,2.84-1.23Zm-3.82-.1h.09v.29H23.8Zm-8.44,3.12a.21.21,0,0,0-.13,0l-.1-.49h.26a2.17,2.17,0,0,0-.08.49Zm1.13.9h-.13v-.58h.13Zm4.09-4,.23.2-.1.09-.19-.22.06-.07a7.73,7.73,0,0,1-.81-.16,5.1,5.1,0,0,0-.16.52c-.39-.07-.81-.1-1.36-.16-.26.61-.62,1.36-.94,2.14h-.17V48.8h-.13c-.16.3-.32.62-.48,1,.22.13.42.22.55.29a5,5,0,0,1-.33.52l-.29-.29-.71.52v.06c-.07.06-.13.16-.2.23l-.09-.1c.06-.07.16-.13.22-.19h0c0-.72.52-1.17.75-1.79a2.28,2.28,0,0,0,.1-.52l-.59.3a.73.73,0,0,1-.09.13.94.94,0,0,1,.06.29l-.32.29a6.62,6.62,0,0,1,.58-1.82s0-.1.07-.13h0a.241.241,0,0,1,.06-.19c.26.13.49.19.85.35-.17-.45-.3-.74-.46-1.13.46-.46.65-1.14,1.46-1.43l4.09,2.11c0,.19-.1.29-.13.45H22c-.55-.06-.94-.65-1.52-.55.06,0,.06,0,.09.13Zm2.14,1.43h0l-.19-.23h0a.231.231,0,0,1-.16-.07.48.48,0,0,1-.23.07s-.09-.1-.29-.33c.36.1.52.17.68.2h-.1l.13.07c.07.06.17.13.23.19Zm.46,1.85a1.3,1.3,0,0,1,.23-.1h0l.19-.23.1.1-.23.19h0v.29h0A11.63,11.63,0,0,0,28.5,49c.16.45.49.84.39,1.36h0l.23.19-.1.1c-.06-.06-.13-.16-.19-.23h0a11.389,11.389,0,0,0-2.27.68,1.07,1.07,0,0,1-.36.16,4.21,4.21,0,0,1-.71,0H23.11a2.9,2.9,0,0,0,.26-.45.2.2,0,0,1,.07-.13Zm.58,2.69a4.78,4.78,0,0,1-.22-.45s.06-.07.16-.17c-.1-.09-.16-.19-.13-.12.1-.26.19-.49.39-1,.22.55.29.72.42,1,1.65,0,2.95-1.56,4.77-1.43v.68c-.88.42-1.75.87-2.63,1.2a5.38,5.38,0,0,1-1.23.1,14.769,14.769,0,0,0-1.58.17Zm6.56,2.37h0a.83.83,0,0,1-.23.26l-.1-.1c.07-.06.17-.13.23-.19h0c.07-.06.13-.16.2-.23l.1.23h0c.06.07.16.13.22.2l-.09.09h0c-.07-.06-.13-.16-.2-.22h0a.54.54,0,0,0-.18-.06Zm0-.75c.61,0,.58-.71,1-1a7,7,0,0,0,.36.65,1.7,1.7,0,0,1-1.44.33Zm.35-1v.2a3.12,3.12,0,0,1-.58.12,2.369,2.369,0,0,0-.1-.74c.23.23.39.36.52.49v-.1a1.13,1.13,0,0,1,.2-.23l.09.1Zm-.48.62-.69.78-.22.71c.09.29.16.58.26.91l-1.46.29c-.07-.1-.23-.29-.39-.49.35-.26.65-.45,1-.68L28,55.79c.32-.23.55-.43.88-.69a2.933,2.933,0,0,1,.06-.61Zm-.52-.91c-1,.23-1.85,1.1-3.41.68A16.27,16.27,0,0,0,29.9,51.7c-.1.71-.17,1.3-.26,1.88Zm-2,1.72v.29h-.09V55.3Zm-1.52.58.19.23c.07.06.17.13.23.19l-.1.1c-.06-.06-.13-.16-.19-.23L26,56c.07,0,.07-.09.1-.12Zm-.62-1.49a3.83,3.83,0,0,1-.09-.55l1.07.1Zm-.35-.91v-.1h.29v.1Zm-.46,3h.1v.3h-.1Zm-9.44,14.9h.1v.29h-.1Zm-.16,4.25a1.21,1.21,0,0,1,0-1.33Zm.45.45a4.8,4.8,0,0,0,.32.39c-.52,0-.52,0-.42-.46Zm.23-1.55V73.37c-.29-.42-.49-.68-.68-1a2,2,0,0,1,.32-.16c.39.13.75.26,1.17.39,0,.09,0,.29-.07.35a.927.927,0,0,1-.39.13,1.49,1.49,0,0,0,.13,1.36,2.07,2.07,0,0,1-.58.04Zm1.36,2.79h-.29v-.1h.29Zm.55.32h-.13a4,4,0,0,0-.1-.46h.26a2.12,2.12,0,0,0-.13.42Zm1.11-.81V77h-.49a.21.21,0,0,0,0-.13,4,4,0,0,1,.39-.09Zm-.2-1.1c-.16.26-.29.48-.42.68L18,76.23v.52a4.4,4.4,0,0,0-.84.06v-.58c-.2,0-.52.13-.56-.23-.29-.06-.42-.06-.55-.09.29-.62.52-1.24,1.33-1.43-.09.65-.94.78-.81,1.49.2,0,.46-.1.55.16v.13c.16.1.29.16.42.26.13-.06.26-.16.42-.23h0v-.55a1,1,0,0,1,.61-.06ZM22,71.3a.19.19,0,0,0-.13,0l-.1-.49H22A2.17,2.17,0,0,0,22,71.3Zm2.1-4.48c0-.46-.06-.81-.09-1.53.29.56.45.78.58,1a3.23,3.23,0,0,1-.54.53Zm2-3.54v-.74h.17a5.758,5.758,0,0,0,.09.74.38.38,0,0,0-.36,0Zm1.69-.36H27.5v-.09h.29Zm1.11-1.36a.19.19,0,0,0-.13,0l-.1-.48h.26a2.12,2.12,0,0,0-.1.48Zm6.26,9.9c-.26-.16-.52-.33-.88-.58.59-.2.75.06.85.38a2.39,2.39,0,0,0,.35.07,3.29,3.29,0,0,0,.07.81H34.7c.07-.32.39-.42.62-.62a.35.35,0,0,0-.23-.06Zm4.15,2.47a.7.7,0,0,1,.49.84H40v.84a.36.36,0,0,0-.2,0,7.892,7.892,0,0,0-.09-.85h-.43l-.38.78.22.23a4.92,4.92,0,0,1-.58.26s.06.09.1.09h1.49c.36-.64.68-1.33,1.07-2,.32.42.29.75,0,1a.85.85,0,0,0-.23,1.1c.39-.13.78-.23,1.14-.32.19-.39.35-.78.51-1.14a1.55,1.55,0,0,1,.23.07v.52c.13-.2.29-.36.49-.62V75.9a3.15,3.15,0,0,1-1.85.61H38.8a1.49,1.49,0,0,0-.59.17c-.81-.07-1.49-.1-2.14-.2-.23,0-.62.2-.65-.29h0c-.16-.1-.29-.16-.42-.26a3.742,3.742,0,0,1-.36.26l-.16-.2c.19-.29.42-.55.65-.87v-.84a4.311,4.311,0,0,0,.84-.17v-.78h-.42c-.16-.52-.16-.52.42-.58a2.42,2.42,0,0,0,.36-.49,1.46,1.46,0,0,0-.07-.19s.1-.1.33-.29c-.1.35-.16.52-.2.68v-.13a.53.53,0,0,0-.1.13l-.29.29v.58c.62.2.1.75.23.91.65.49,1.2.88,1.78,1.3a4.69,4.69,0,0,1-.16.52,6.31,6.31,0,0,0-.71-.55c-.29-.16-.62-.36-.85.1h0c.07.06.17.13.23.19l-.1.1-.19-.23h-.58l-.29.58H38c.1-.23.23-.45.42-.81s-1.07-.1-.75-.94c.26.1.56.23.85.36a4.74,4.74,0,0,0,.72-.93ZM35.48,71a.18.18,0,0,0,0-.12l.48-.1V71a1.61,1.61,0,0,0-.48,0Zm.45.62v.59H35.8v-.59Zm.36-.94v-.1h.29v.1Zm1.26,2.95s.1.1.3.33l-.68-.2h.09a.348.348,0,0,1-.13-.06,2.089,2.089,0,0,1-.22-.2l.09-.1c.07.07.13.17.2.23h0a.247.247,0,0,1,.16.07C37.43,73.77,37.49,73.67,37.55,73.63Zm-.68-1.23v-.1h.3v.1Zm5.36-2.5H42.1v-.58h.13Zm.55-.29h-.1v-.29h.1Zm2.3-7.17a.73.73,0,0,1-.42-1.07.71.71,0,0,1,.42,1.07Zm0,.65v.74H45a5.352,5.352,0,0,0-.09-.74Zm-.46-2.47v-3h.13v3.15s-.02-.12-.09-.15Zm.23-8.11h.29v.09h-.29ZM38,54a3.13,3.13,0,0,1,.33-.78c1.1.26,1.91-.45,2.85-.71.16-.06.36-.06.52-.13V51.6H44c.36.59.71,1.2,1.1,1.85l-.22.23.19.19c-.42,1.07-.06,2.18-.26,3.38-.26-.33-.45-.59-.68-.91-.52,1.26.42,2.4,0,3.86l-.39.39a2.789,2.789,0,0,0,.43.1v.87c-.17-.16-.26-.22-.43-.39v.95a4.06,4.06,0,0,1,.36-.26c.78.9.32,2,.49,3L45,65l.29-.58c0,1.36.78,2.6.71,4.09-.22-.16-.29-.26-.42-.36-.1.2-.16.39-.26.55h-.39a6.644,6.644,0,0,0-.13-1.13h-.16v.94c-.45.23-.81.42-1.2.58a5.116,5.116,0,0,1-.1.52c-.26-.52-.49-.94-.71-1.43a31.531,31.531,0,0,0-.39-4.47A25.85,25.85,0,0,1,42,59.55c0-.36.13-.78-.29-1a10.12,10.12,0,0,1,.16-1.95,9.48,9.48,0,0,0,.16-2.4,3.81,3.81,0,0,0-.45-.13c-.2.75-.39,1.46-.62,2.24A1.34,1.34,0,0,1,41,57.7,1.39,1.39,0,0,0,41,59a3,3,0,0,1,.16,1.43A9.91,9.91,0,0,0,41.58,63c0,.13.13.26.1.39-.1,1.49.48,2.92.29,4.41h.19a.665.665,0,0,0,.07.36v.13a.46.46,0,0,1-.2.36,7.892,7.892,0,0,0-.09-.85h0c-.49,0-.2-.42-.29-.65s.22-.65-.3-.68v1.59a4.79,4.79,0,0,1,.1,1.43c-.06-.16-.13-.32-.26-.62a5.221,5.221,0,0,0-.42.36H41v.55h-.2a3.7,3.7,0,0,0-.09-.55l-1,.1a6.937,6.937,0,0,0-.26-.75c-.1.1-.2.2-.32.3-.2-.39.12-1-.36-1.3a1.51,1.51,0,0,0,0-1.07,6.8,6.8,0,0,1,0-1.43,9.027,9.027,0,0,0-.23-1.23c.07-.07.13-.17.16-.2a4.48,4.48,0,0,1-.19-.81c0-2.11-.42-4.19-.33-6.33C38.3,55.82,37.91,54.94,38,54Zm-2.56,1.43a19.681,19.681,0,0,0,1.65,1.23c-.16,1,.49,2.15.3,3.35.38.74.16,1.55.32,2.3a26.52,26.52,0,0,1,.26,5c0,.1.16.23.23.32-.1.23-.23.46-.33.72-.06,0-.16,0-.19-.1a30.5,30.5,0,0,1-2.11-5.55c-.1-.35-.1-.71-.23-1.07A5.12,5.12,0,0,0,34,59.39a19.9,19.9,0,0,1-1.72-1.72c-.59-.16-1.08-.29-1.56-.39-.49.55.19.91.22,1.43.13-.1.23-.17.33-.26l1,.81v-.52h0c-.07-.07-.17-.13-.23-.2l.1-.09.19.22h0c.19.13.39.29.78.58H32.3a.69.69,0,0,0,.58.84v-.65A2.31,2.31,0,0,1,34,61.56a6.92,6.92,0,0,1,1.26,2.53,19.87,19.87,0,0,0,2.4,5l-1.59,1c-.09-.17-.26-.36-.38-.56a1.76,1.76,0,0,0-.91.26c-.59.33-1.11.88-1.85.59a.83.83,0,0,1-.36-.49l-.1-.39a1.571,1.571,0,0,0,0-.16s0-.1,0-.13a1.11,1.11,0,0,0-.07-.16,2.26,2.26,0,0,0-.13-.2A2.559,2.559,0,0,0,32,68.7v.52a.46.46,0,0,0-.2,0,2.779,2.779,0,0,0-.1-.55,3.9,3.9,0,0,1-.32-.42c-.07-.07-.1-.16-.16-.23a2.62,2.62,0,0,1-.23-.48,2.22,2.22,0,0,1-.16-.82c0-.13-.16-.22-.26-.35a.1.1,0,0,1-.07.09h0a1.2,1.2,0,0,1-.06.94C30.38,67,30,66.56,30,66a.65.65,0,0,1,.06-.23,2.58,2.58,0,0,1,.42.75h0a15.739,15.739,0,0,0,.07-1.63,6,6,0,0,0-.52.43c-.16-.39-.29-.72-.49-1.14L29.12,64c.26-.16.52-.29.81-.46a6,6,0,0,0,.13.85c.1-.07.23-.1.23-.16a9.78,9.78,0,0,0-.2-2.41c-.06.46-.1.94-.16,1.4h-.1c-.1-.55-.19-1.07-.29-1.66a2.07,2.07,0,0,0,.32-.06,1,1,0,0,0,.14-.2,2.62,2.62,0,0,0-.35-1.85,4.37,4.37,0,0,1-.23-1.33h-.29v2.14l-.33.33-.13.13c-.06-.33-.13-.62-.22-1.07-.2.91-.36,1.68-.52,2.43a.46.46,0,0,1-.2,0V61h-.16c-.13.3-.26.59-.36.88a4.23,4.23,0,0,1-.32,1.07c0-.48-.1-.94-.13-1.59-.16.36-.26.55-.33.68-.16-.19-.35-.39-.74-.81a8.88,8.88,0,0,1,0,1.85,6.63,6.63,0,0,1-.65,1.4c-.13-.29-.23-.49-.33-.72-.1.23-.19.43-.42.88,0-.75-.23-1.23.36-1.62a4.479,4.479,0,0,0-.52-.1c-.26.62-.2,1.43-1,1.75-.06.39-.13.78-.23,1.3a1.14,1.14,0,0,1,.17.23c-.1.74-.2,1.43-.33,2.33.29-.22.42-.29.62-.45.1.81-.78,1.3-.52,2H23v.56h-.2a2.084,2.084,0,0,0-.09-.46,1.6,1.6,0,0,1-.72.2.74.74,0,0,1-.58-.29l-.49.81c-.35-.16-.65-.33-1-.52-.17.26-.33.52-.56.84a1.49,1.49,0,0,0-.13-.39c-.09-.26.26-.68-.29-.78v.78H17.53l.29-1.23c-.77,0-.42.71-.64,1.07a1.76,1.76,0,0,1-.49-.13c.1-.84.94-1.36.87-2.24.82-1.17,1-2.63,1.89-3.8a12.56,12.56,0,0,0,1.26-2.75c.39-.88.75-1.79,1.17-2.66a.48.48,0,0,1,.2-.17.059.059,0,0,0,.06-.06.36.36,0,0,1,.1-.13,1.11,1.11,0,0,1-.07-.29s.1-.1.33-.3c-.1.36-.16.52-.2.69v-.07a2,2,0,0,0-.1.65c.23-.13.39-.19.59-.29a2.35,2.35,0,0,1,1-1.69l.62.58c.06-.19.13-.35.19-.58a2.132,2.132,0,0,1,.62,0c.42.39.78.39,1.23-.13v1.37c.17.16.33.29.46.42,0,0,.16-.1.16-.13V57.63c.42.52.71.13,1,.1A2,2,0,0,1,29,58l.19-.22a2.14,2.14,0,0,1,.1.22h.81c.26-.71-1-.87-.26-1.72h.59c.06-.06.13-.16.19-.23l.1.1c-.06.07-.16.13-.23.2h0V57c1-.59,1.92-.94,2.24-2.05l-.1-.09c.07-.56.13-1.07.2-1.59a2.52,2.52,0,0,1,.58.94,5.69,5.69,0,0,1,2.07,1.25ZM23.67,67.79l-.46.1v-.26h.49Zm9.89-16.13c-.13-.22-.26-.39-.35-.58.39-.08.68-.2.35.58Zm-.09.65a1,1,0,0,1,0,.33c-.71.13-1.46.29-2.07.42-.26-.23-.43-.36-.62-.55.26-.33.52-.62.71-.88.39.13.75.39,1.07.36a1.41,1.41,0,0,1,.91.32ZM32.59,51h.2v.55h-.2a3.626,3.626,0,0,0-.09-.56c-.72.07-1.33-.25-1.85.26-.26-.29-.52-.61-.91-1.07.78-.06,1.39-.13,2.21-.19C32.17,50.2,32.69,50.37,32.59,51Zm-.68-2.3a2.39,2.39,0,0,0,.13.51l-1.92.33c-.16-.07-.58-.2-1-.33v-.58c.97-.63,1.88.37,2.79.02ZM30.42,47a7.69,7.69,0,0,1,1.2.94,6.36,6.36,0,0,1-1.92.23c-.13-.42-.23-.75-.36-1.2C29.8,47,30.16,46.86,30.42,47Zm-1.08-4.06H26.72c-.17-.81-.17-.81.55-.81s1.3.13,1.72-.39c.42.3.61.43.87.59-.22.21-.35.41-.52.6Zm10.45,3.74c.33.13.2.39.23.58h0c.2.16.42.36.65.58-.65.33-1.3-.32-1.85.26-.65-.52-1.27-1-2-1.59.07-.06.1-.16.2-.26a.09.09,0,0,1,0-.06,3.486,3.486,0,0,1-.72-.16.44.44,0,0,1-.16-.17,2.18,2.18,0,0,1-.32-.35,2.49,2.49,0,0,0-1-.75v-.42a3.82,3.82,0,0,1-1.49-1.1,4.39,4.39,0,0,1-1.4-1.56,2.24,2.24,0,0,0-.78-.81,4.45,4.45,0,0,1-1.49-2.66,3.59,3.59,0,0,0-.23-.59,4.261,4.261,0,0,1,.36-.39,2.92,2.92,0,0,1,.29.26l.42-.35v.64a4.28,4.28,0,0,1,.88,1.5c0,.09.19.16.29.22v-.74l-.23-.13v-.55h.2a3.122,3.122,0,0,0,.09.56h0c.39.29.39.58,0,.84V40h.59v.59l.29.29c.45.39.91.78,1.33,1.2.1.1.06.33.1.52h.84v.58l.29.3c.55-.07.13-.56.36-.78.32.06.65.16,1.07.26v-1.5H37c.06.2.13.36.22.59.1-.23.2-.39.29-.59.2.23.43.49.72.85v.81c-.39-.29-.84,0-1.23-.29a5.13,5.13,0,0,1-.46.42c.65.78,1.27,1.52,2,2.4,0,.13.07.39.13.75.26-.17.46-.26.55-.33.22.3.38.53.57.6Zm3.67-8.18h.29v.1h-.29Zm-1.07,1h.1v.29h-.1Zm-1.23-.2h.29v.1h-.29Zm.13,4.42c-.1-.3-.23-.69-.36-1.11.1-.32.26-.71.45-1.26.07.42.1.71.13,1H42l.1-.78h.22v1.92h.2c0-.3.06-.59.06-.88a2.26,2.26,0,0,1,.1-.81,9.74,9.74,0,0,1,.23,2.14,15.26,15.26,0,0,1-1.62-.19Zm2.37-4.84a10,10,0,0,0,.16,1.1l-.62-.61a5.539,5.539,0,0,1,.46-.46Zm.13,6.3a1.575,1.575,0,0,0-.1-.13c.19-.1.39-.17.61-.26l.82.42H43.79Zm1.39-1c-.62.49-1.1-.09-1.65-.19V40.21c.22.68.39,1.17.52,1.65h.19c.06-.39.1-.75.16-1.13h.2v2.49a2,2,0,0,0,.29-1.39,5.77,5.77,0,0,1,.1-1.1,3.74,3.74,0,0,1,.19,1.68Zm.2-6.75h-.1v-.29h.1Zm.35,1.63h-.29V39h.29Zm0-2.53h-.58V36.4h.58Zm.88.39a.77.77,0,0,1,.26,0v.74c.26,0,.52.1.84.13a1.879,1.879,0,0,1-.06.56.5.5,0,0,1-.19-.2.64.64,0,0,0-.17-.13l-.52.52c-.06,0-.19-.06-.19-.1Zm-.2-1.76h.1v.3h-.1Z" transform="translate(-4.47 -10.183)" fill="#1f7762"/>
  <path id="Trazado_25160" data-name="Trazado 25160" d="M20.58,47.25Z" transform="translate(-4.47 -10.183)" fill="#1f7762"/>
  <path id="Trazado_25161" data-name="Trazado 25161" d="M28.27,37h.04Z" transform="translate(-4.47 -10.183)" fill="#1f7762"/>
  <path id="Trazado_25162" data-name="Trazado 25162" d="M25.13,36.31v.07h.19A.49.49,0,0,0,25.13,36.31Z" transform="translate(-4.47 -10.183)" fill="#1f7762"/>
  <path id="Trazado_25163" data-name="Trazado 25163" d="M23.37,34.37a2.1,2.1,0,0,1-.22-.33v.33Z" transform="translate(-4.47 -10.183)" fill="#1f7762"/>
  <path id="Trazado_25164" data-name="Trazado 25164" d="M33.21,33.39c.29-.45.16-.87.22-1.33a.118.118,0,0,1-.06.1A1.84,1.84,0,0,1,33.21,33.39Z" transform="translate(-4.47 -10.183)" fill="#1f7762"/>
  <path id="Trazado_25165" data-name="Trazado 25165" d="M18,26.35Z" transform="translate(-4.47 -10.183)" fill="#1f7762"/>
  <path id="Trazado_25166" data-name="Trazado 25166" d="M42.62,38.1a3.43,3.43,0,0,1,.22-.59,3.7,3.7,0,0,1-.26.59Z" transform="translate(-4.47 -10.183)" fill="#1f7762"/>
  <path id="Trazado_25167" data-name="Trazado 25167" d="M39.18,39.82h0l.26-.46A3.11,3.11,0,0,0,39.18,39.82Z" transform="translate(-4.47 -10.183)" fill="#1f7762"/>
  <path id="Trazado_25168" data-name="Trazado 25168" d="M21.13,35.5v0Z" transform="translate(-4.47 -10.183)" fill="#1f7762"/>
  <path id="Trazado_25169" data-name="Trazado 25169" d="M15.49,47.06l-.36.35a3.77,3.77,0,0,1-.1.88,3.77,3.77,0,0,0,.1-.88Z" transform="translate(-4.47 -10.183)" fill="#1f7762"/>
  <path id="Trazado_25170" data-name="Trazado 25170" d="M21,34.66v.26a.86.86,0,0,0,0-.26Z" transform="translate(-4.47 -10.183)" fill="#1f7762"/>
  <path id="Trazado_25171" data-name="Trazado 25171" d="M34.83,32.36l.06-.07S34.83,32.32,34.83,32.36Z" transform="translate(-4.47 -10.183)" fill="#1f7762"/>
  <path id="Trazado_25172" data-name="Trazado 25172" d="M32.43,30.12c-.16,0-.36-.13-.49-.07a1.19,1.19,0,0,1,.49.07Z" transform="translate(-4.47 -10.183)" fill="#1f7762"/>
  <path id="Trazado_25173" data-name="Trazado 25173" d="M39.83,40.27a.15.15,0,0,1-.1-.13.15.15,0,0,0,.1.13Z" transform="translate(-4.47 -10.183)" fill="#1f7762"/>
  <path id="Trazado_25174" data-name="Trazado 25174" d="M40.61,38.68h0c-.1.46-.56.17-.78.33C40.05,38.81,40.54,39.2,40.61,38.68Z" transform="translate(-4.47 -10.183)" fill="#1f7762"/>
  <path id="Trazado_25175" data-name="Trazado 25175" d="M15.68,77.66h0a.36.36,0,0,0,.13.26,1,1,0,0,1-.13-.26Z" transform="translate(-4.47 -10.183)" fill="#1f7762"/>
  <path id="Trazado_25176" data-name="Trazado 25176" d="M30,32c-.06.29-.45,1.49-.55,1.75h0A16.059,16.059,0,0,0,30,32Z" transform="translate(-4.47 -10.183)" fill="#1f7762"/>
  <path id="Trazado_25177" data-name="Trazado 25177" d="M34.67,32.55a3.17,3.17,0,0,1,.06-.78c-.06.33-.1.62-.13.88C34.6,32.61,34.63,32.58,34.67,32.55Z" transform="translate(-4.47 -10.183)" fill="#1f7762"/>
  <path id="Trazado_25178" data-name="Trazado 25178" d="M39.44,40.34a.687.687,0,0,0-.1-.46C39.47,40,39.4,40.18,39.44,40.34Z" transform="translate(-4.47 -10.183)" fill="#1f7762"/>
  <path id="Trazado_25179" data-name="Trazado 25179" d="M47.61,21.42a17,17,0,0,0-4.57-1A14.44,14.44,0,0,0,39.15,20a1.25,1.25,0,0,1-.72,0c-.78-.58-1.62-.13-2.37-.29-.1.26-.13.42-.23.65-.22-.45-.38-.81-.51-1.1-.59-.17-.82-.68-1.14-.88-1.36-.19-1.82-1.65-2.92-1.85a5.21,5.21,0,0,0-.52-.75,9.64,9.64,0,0,1-1-.71,6.4,6.4,0,0,0-2.34-1.62.638.638,0,0,0-.29.06v.52c1.26,1.27,2.43,2.47,3.63,3.7a.125.125,0,0,1,.07-.1c.29.17.58.33,1.13.62-.42.23-.65.33-1.13.59l1.1.06,4.54,3.41c1.46.22,2.76,1.2,4.45,1.17.1-.39.16-.72.29-1.14-.52,0-1,.16-1.23,0-.42-.33-.75.13-1.07,0a2.81,2.81,0,0,1-.59-.36c.26-.29.46-.55.65-.78h1.76l.32-.71c.06.45.1.71.16,1h1.59a10.831,10.831,0,0,1,1.14,0,2.14,2.14,0,0,1,.87.29c.46.29,1,.13,1.43.32a3.35,3.35,0,0,0,1.33.23c.55.26.85.45,1.17.58a6.19,6.19,0,0,1,1.75.85h0c.07-.07.13-.16.2-.23l.1.1c-.07.06-.17.13-.23.19h0c-.1.62-.23,1.23-.33,1.88a6,6,0,0,1-.52.55c-1.36.36-2.59.65-3.86.95l-.65-.56c-.06.36-.13.62-.16.85-1.2.13-2.4-.2-3.51.29l-.81-.71c-.13.25-.19.42-.29.64s-.55.26-.84.43c-.13-.13-.26-.23-.36-.33-.39.49-1,.23-1.46.26s-1.14,0-1.72,0H32.91a8.86,8.86,0,0,0-1.55,0c-.52.07-.94-.29-1.5-.06a4.22,4.22,0,0,1-1.55,0H23.47a12.48,12.48,0,0,1-1.3-.23c-.09.33-.19.65-.29.95l.78.38a3.06,3.06,0,0,1,.49-.22,9.251,9.251,0,0,1,1.29,0,6.942,6.942,0,0,1,1,.26c.31.04.85-.23,1.07-.07.39.29.52-.22.82-.1A2.54,2.54,0,0,0,29.6,29c.33-.16.88.1,1.27.16a7.71,7.71,0,0,1,1.2-.16h3.7a36.022,36.022,0,0,0,3.73-.29,6.43,6.43,0,0,0,.91-.3c.1.1.23.3.29.26a12.17,12.17,0,0,1,2.3-.34c.09,0,.19-.16.29-.26l.36.72c-.1.16-.13.25-.33.58.49-.23.72-.36.94-.45l.91.29c-.06-.26-.13-.49-.19-.72.45-.74,1.42-.16,2.07-.68.23-.19.75,0,.94,0l3.09-1.33v-.13h1.24A7.28,7.28,0,0,1,53.42,24l-3.08-2.11a12.74,12.74,0,0,1-2.73-.47Zm-12-.52h-.1v-.29h.1Zm2.34.49c-.49.22-.75-.17-.72-1l.72.35Zm6.81.09h-.1v-.29h.1Zm6.3,4.29H51v-.29h.1Zm.35-.62H51a1.575,1.575,0,0,0-.1-.13,4.92,4.92,0,0,1,.58-.26Z" transform="translate(-4.47 -10.183)" fill="#1f7762"/>
  <path id="Trazado_25180" data-name="Trazado 25180" d="M50.6,23.76c-.1.64-.19,1.26-.32,1.91C50.37,25.02,50.5,24.4,50.6,23.76Z" transform="translate(-4.47 -10.183)" fill="#1f7762"/>
  <path id="Trazado_25181" data-name="Trazado 25181" d="M37.75,34.3c-.16.75.26,1.4.36,2.05.45.32.84.58,1,.68a13.31,13.31,0,0,0,2.5-.33,5,5,0,0,0,1.66-1.23l-.36-.39c.71-.13,1-.84,1.43-1.3.19-.68.42-1.36.58-1.91-.42-.42-.78-.78-1.17-1.2-.74.26-.87-1.17-1.65-.75l-1.27,1.27.33.09v.85c-.3-.26-.52-.49-.75-.65-.32.16-.62.29-.71.32-.39.72-.72,1.3-1.07,1.95a6,6,0,0,1-.26,2c-.1-.55-.23-1.1-.36-1.68C37.91,34.17,37.75,34.24,37.75,34.3Zm6.36-2.79h.1v.29h-.1Zm-1.53-.78h.3v.1h-.3Zm-.45,1.63h.1v.29h-.1Zm-.58-1.43h.09v.29h-.09Zm-.69,2.4h.3v.1h-.3Zm.49.71-.61.62-.49-.49Z" transform="translate(-4.47 -10.183)" fill="#1f7762"/>
  <path id="Trazado_25182" data-name="Trazado 25182" d="M38,34.07h0c.13.59.23,1.14.32,1.69C38.24,35.21,38.14,34.66,38,34.07Z" transform="translate(-4.47 -10.183)" fill="#1f7762"/>
  <path id="Trazado_25183" data-name="Trazado 25183" d="M25.71,15.16l-.29-.3-.85-.26h0c-.06.07-.13.17-.19.23l-.1-.1.23-.19h0a.74.74,0,0,0-.16-.32,1.48,1.48,0,0,0-.91-.3c-.06-.71-.68-.77-1.23-1.07a17.48,17.48,0,0,0,.13,2.6c.32-.45.45-.65.61-.88h.88a1.31,1.31,0,0,0,.23.52,2,2,0,0,0,.74.52h0v-.09h.56a.46.46,0,0,0,0,.2l-.55.09v-.13h0v.1h0v.13c0,.42.39.62.58.85s.68.48.58,1c.1.13.2.23.3.36a1.5,1.5,0,0,0-.3.23c.13.19.26.39.39.55.17-.2.33-.36.49-.55v-.56h0c-.06-.06-.16-.13-.23-.19l.1-.1c.07.07.13.16.2.23h0A6.39,6.39,0,0,1,29,20.22,13.62,13.62,0,0,0,30.22,22l.23-.13c-.2-.43-.36-.82-.55-1.24.39-.42.32-1.23,1.07-1.39-.36-.23-.52-.78-1.14-.68a3.07,3.07,0,0,1,.26.51,1.85,1.85,0,0,1-.42,0c-.13-.29-.29-.59-.42-.85L29,18l-.3-.29c-.16,0-.42,0-.52-.1-.71-.71-1.39-1.46-2.07-2.2A1.15,1.15,0,0,1,25.71,15.16Zm3.25,4h.09v.29H29ZM28.11,18h.1v.3h-.1Zm-2-1.42h.1v.29h-.1Z" transform="translate(-4.47 -10.183)" fill="#1f7762"/>
  <path id="Trazado_25184" data-name="Trazado 25184" d="M24.57,14.6h0a.64.64,0,0,0-.16-.32A.53.53,0,0,1,24.57,14.6Z" transform="translate(-4.47 -10.183)" fill="#1f7762"/>
  <path id="Trazado_25185" data-name="Trazado 25185" d="M26.85,17.75h0a6.12,6.12,0,0,1,2.07,2.47,6.12,6.12,0,0,0-2.07-2.47Z" transform="translate(-4.47 -10.183)" fill="#1f7762"/>
  <path id="Trazado_25186" data-name="Trazado 25186" d="M41.48,22.72v.71h1.07a2.92,2.92,0,0,1,.1-.42c.45.1.91.19,1.36.32-.09.13-.19.23-.29.39.62.1,1.14.17,1.72.23.07-.1.23-.26.49-.62C44.3,23.11,43,22.23,41.48,22.72Z" transform="translate(-4.47 -10.183)" fill="#1f7762"/>
  <path id="Trazado_25187" data-name="Trazado 25187" d="M21.13,25.54l-2-.49c.1-.09.16-.19.26-.29-.55-.42-.55-.42-1.65-.13h1.2c-.29.33-.46.55-.68.78,1,.13,1.94.26,2.85.36a.61.61,0,0,0,.02-.23Z" transform="translate(-4.47 -10.183)" fill="#1f7762"/>
  <path id="Trazado_25188" data-name="Trazado 25188" d="M8.71,63.15c-.36.13-.56.2-.78.26,1.39.16,2.56,1,4.12.68v-.06C10.68,63.7,9.55,63.38,8.71,63.15Z" transform="translate(-4.47 -10.183)" fill="#1f7762"/>
  <path id="Trazado_25189" data-name="Trazado 25189" d="M12,64a.09.09,0,0,0,0,.06.14.14,0,0,0,.1,0C12.08,64.06,12.05,64.06,12,64Z" transform="translate(-4.47 -10.183)" fill="#1f7762"/>
  <path id="Trazado_25190" data-name="Trazado 25190" d="M27.4,23.72v-.48l-.81-.1a2.77,2.77,0,0,0,.22-.46h-1c.1.36.2.69.3,1Z" transform="translate(-4.47 -10.183)" fill="#1f7762"/>
  <path id="Trazado_25191" data-name="Trazado 25191" d="M21.78,29.24c-.06,1.27-.65,2.11-.65,3.12h.59a5,5,0,0,1,0-1.4A2.05,2.05,0,0,0,21.78,29.24Z" transform="translate(-4.47 -10.183)" fill="#1f7762"/>
  <path id="Trazado_25192" data-name="Trazado 25192" d="M26.75,33.26c.1-.19.23-.35.39-.65v-2c-.49,0-.23.42-.29.64s.09.49-.3.49v1.4Z" transform="translate(-4.47 -10.183)" fill="#1f7762"/>
  <path id="Trazado_25193" data-name="Trazado 25193" d="M28.86,30.7a2.76,2.76,0,0,0-.39,2.76C28.6,32.55,28.73,31.64,28.86,30.7Z" transform="translate(-4.47 -10.183)" fill="#1f7762"/>
  <path id="Trazado_25194" data-name="Trazado 25194" d="M25.84,22.33c-.29-1.07-.65-1.37-1.23-1.3C25,21.45,25.45,21.91,25.84,22.33Z" transform="translate(-4.47 -10.183)" fill="#1f7762"/>
  <path id="Trazado_25195" data-name="Trazado 25195" d="M23.08,17.72a3.69,3.69,0,0,0,.78,0c-.16-.43-.29-.75-.42-1.07h-.29v.65C23.15,17.46,22.56,17.56,23.08,17.72Z" transform="translate(-4.47 -10.183)" fill="#1f7762"/>
  <path id="Trazado_25196" data-name="Trazado 25196" d="M16,25.12h2V25H16Z" transform="translate(-4.47 -10.183)" fill="#1f7762"/>
  <path id="Trazado_25197" data-name="Trazado 25197" d="M26,15.45c.13-.1.23-.2.46-.36l-1.07-.78a1.434,1.434,0,0,0-.2.13c.1.16.16.29.26.46l.29.29Z" transform="translate(-4.47 -10.183)" fill="#1f7762"/>
  <path id="Trazado_25198" data-name="Trazado 25198" d="M40.35,22h1.52s.07-.13.13-.23H40.35Z" transform="translate(-4.47 -10.183)" fill="#1f7762"/>
  <path id="Trazado_25199" data-name="Trazado 25199" d="M20.52,26.38H18.9a1.75,1.75,0,0,0,1.62,0Z" transform="translate(-4.47 -10.183)" fill="#1f7762"/>
  <path id="Trazado_25200" data-name="Trazado 25200" d="M20.65,27.84c-.13.43-.26.82-.39,1.24C20.94,28.75,20.94,28.75,20.65,27.84Z" transform="translate(-4.47 -10.183)" fill="#1f7762"/>
  <path id="Trazado_25201" data-name="Trazado 25201" d="M21.62,27.81a.77.77,0,0,0-.42,1.11.76.76,0,0,0,.42-1.11Z" transform="translate(-4.47 -10.183)" fill="#1f7762"/>
  <path id="Trazado_25202" data-name="Trazado 25202" d="M24.35,22.81a2.56,2.56,0,0,0-.68-.45c-.17-.07-.36.06-.62.1a1.42,1.42,0,0,0,1.3.35Z" transform="translate(-4.47 -10.183)" fill="#1f7762"/>
  <path id="Trazado_25203" data-name="Trazado 25203" d="M22.56,30.44a2.59,2.59,0,0,1,.26-.71l-.55.13a8.727,8.727,0,0,0,.07,1.36h.19A6.78,6.78,0,0,1,22.56,30.44Z" transform="translate(-4.47 -10.183)" fill="#1f7762"/>
  <path id="Trazado_25204" data-name="Trazado 25204" d="M25.13,17.23c0,.59.42.85.84,1.11v-.59A4,4,0,0,0,25.13,17.23Z" transform="translate(-4.47 -10.183)" fill="#1f7762"/>
  <path id="Trazado_25205" data-name="Trazado 25205" d="M25.13,17.17h0c.29.16.58.36.84.52A9.225,9.225,0,0,1,25.13,17.17Z" transform="translate(-4.47 -10.183)" fill="#1f7762"/>
  <path id="Trazado_25206" data-name="Trazado 25206" d="M20,19.76a1.36,1.36,0,0,0-.59-1.42A1.4,1.4,0,0,0,20,19.76Z" transform="translate(-4.47 -10.183)" fill="#1f7762"/>
  <path id="Trazado_25207" data-name="Trazado 25207" d="M33.79,30.57a12.05,12.05,0,0,0-.32,1.33C33.76,31.54,34.24,31.22,33.79,30.57Z" transform="translate(-4.47 -10.183)" fill="#1f7762"/>
  <path id="Trazado_25208" data-name="Trazado 25208" d="M33.79,30.57c-.16.55-.29,1-.45,1.49,0-.06.06-.09.09-.16C33.53,31.48,33.66,31.06,33.79,30.57Z" transform="translate(-4.47 -10.183)" fill="#1f7762"/>
  <path id="Trazado_25209" data-name="Trazado 25209" d="M29.15,18.34h.71c-.48-.46-.65-.95-1.26-.85v.29l.29.3Z" transform="translate(-4.47 -10.183)" fill="#1f7762"/>
  <path id="Trazado_25210" data-name="Trazado 25210" d="M39.86,41.34a4.93,4.93,0,0,1-.65-.13v1C39.47,41.9,39.63,41.67,39.86,41.34Z" transform="translate(-4.47 -10.183)" fill="#1f7762"/>
  <path id="Trazado_25211" data-name="Trazado 25211" d="M44.37,34.85c.23-.48.39-.78.52-1.1a.5.5,0,0,0-.13-.23,4.409,4.409,0,0,0-.39.3Z" transform="translate(-4.47 -10.183)" fill="#1f7762"/>
  <path id="Trazado_25212" data-name="Trazado 25212" d="M44.76,33.52h0c0,.07.13.17.13.23S44.79,33.59,44.76,33.52Z" transform="translate(-4.47 -10.183)" fill="#1f7762"/>
  <path id="Trazado_25213" data-name="Trazado 25213" d="M39.89,24.05,40,24v-.1a5.35,5.35,0,0,0-.81-.35,2.073,2.073,0,0,0-.36.13c.23.13.42.26.68.42Z" transform="translate(-4.47 -10.183)" fill="#1f7762"/>
  <path id="Trazado_25214" data-name="Trazado 25214" d="M36.09,27.71h1v-.13a2.2,2.2,0,0,1-.43-.09c-.13-.07-.19-.2-.29-.29.07.12.1.25.16.35H36C36,27.65,36,27.68,36.09,27.71Z" transform="translate(-4.47 -10.183)" fill="#1f7762"/>
  <path id="Trazado_25215" data-name="Trazado 25215" d="M12.89,65.42c-.26-.16-.52-.29-.78-.42C12.24,65.36,12.37,65.88,12.89,65.42Z" transform="translate(-4.47 -10.183)" fill="#1f7762"/>
  <path id="Trazado_25216" data-name="Trazado 25216" d="M22.3,27.45h1V27.2l-1.07.06A.42.42,0,0,1,22.3,27.45Z" transform="translate(-4.47 -10.183)" fill="#1f7762"/>
  <path id="Trazado_25217" data-name="Trazado 25217" d="M14.94,24.53c-.36-.19-.59-.32-.88-.45a4.08,4.08,0,0,0-.1.58C14.29,24.6,14.55,24.57,14.94,24.53Z" transform="translate(-4.47 -10.183)" fill="#1f7762"/>
  <path id="Trazado_25218" data-name="Trazado 25218" d="M28.27,27.75c0-.65-.22-.65-.58-.43a2.59,2.59,0,0,1,.06.43Z" transform="translate(-4.47 -10.183)" fill="#1f7762"/>
  <path id="Trazado_25219" data-name="Trazado 25219" d="M16.82,54.39v-.55c-.33.19-.59.32-1,.55Z" transform="translate(-4.47 -10.183)" fill="#1f7762"/>
  <path id="Trazado_25220" data-name="Trazado 25220" d="M15.65,54.71a6.1,6.1,0,0,0,.13,1c.19-.39.32-.65.45-.94a2.84,2.84,0,0,0-.55,0Z" transform="translate(-4.47 -10.183)" fill="#1f7762"/>
  <path id="Trazado_25221" data-name="Trazado 25221" d="M16.23,54.75h-.55A2.524,2.524,0,0,1,16.23,54.75Z" transform="translate(-4.47 -10.183)" fill="#1f7762"/>
  <path id="Trazado_25222" data-name="Trazado 25222" d="M25.29,20a9.08,9.08,0,0,0-.65-.85C24.67,19.73,24.67,19.73,25.29,20Z" transform="translate(-4.47 -10.183)" fill="#1f7762"/>
  <path id="Trazado_25223" data-name="Trazado 25223" d="M27.17,29.79v.81C27.43,30.28,27.43,30.28,27.17,29.79Z" transform="translate(-4.47 -10.183)" fill="#1f7762"/>
  <path id="Trazado_25224" data-name="Trazado 25224" d="M36,30.6v-.74h-.25l.09.78A.25.25,0,0,1,36,30.6Z" transform="translate(-4.47 -10.183)" fill="#1f7762"/>
  <path id="Trazado_25225" data-name="Trazado 25225" d="M23,18.73l.62.38C23.67,18.66,23.67,18.66,23,18.73Z" transform="translate(-4.47 -10.183)" fill="#1f7762"/>
  <path id="Trazado_25226" data-name="Trazado 25226" d="M22.56,21.87c-.29.23-.42.36-.58.46l.58.29Z" transform="translate(-4.47 -10.183)" fill="#1f7762"/>
  <path id="Trazado_25227" data-name="Trazado 25227" d="M30.9,24.6a.79.79,0,0,0,.68-.29l-.68.09A.23.23,0,0,0,30.9,24.6Z" transform="translate(-4.47 -10.183)" fill="#1f7762"/>
  <path id="Trazado_25228" data-name="Trazado 25228" d="M30.9,24.6h.85v-.26a.34.34,0,0,0-.17,0A.85.85,0,0,1,30.9,24.6Z" transform="translate(-4.47 -10.183)" fill="#1f7762"/>
  <path id="Trazado_25229" data-name="Trazado 25229" d="M35.19,31.22V32C35.45,31.71,35.45,31.71,35.19,31.22Z" transform="translate(-4.47 -10.183)" fill="#1f7762"/>
  <ellipse id="Elipse_700" data-name="Elipse 700" cx="0.62" cy="0.1" rx="0.62" ry="0.1" transform="translate(19.32 17.077)" fill="#1f7762"/>
  <path id="Trazado_25230" data-name="Trazado 25230" d="M35.74,32.36c-.55.12-.16.58-.29.84h.29Z" transform="translate(-4.47 -10.183)" fill="#1f7762"/>
  <path id="Trazado_25231" data-name="Trazado 25231" d="M47.74,23.79h-.81C47.26,24.08,47.26,24.08,47.74,23.79Z" transform="translate(-4.47 -10.183)" fill="#1f7762"/>
  <path id="Trazado_25232" data-name="Trazado 25232" d="M40.93,37.48h.75v-.26l-.78.1A.32.32,0,0,1,40.93,37.48Z" transform="translate(-4.47 -10.183)" fill="#1f7762"/>
  <path id="Trazado_25233" data-name="Trazado 25233" d="M31.45,21.81a2.358,2.358,0,0,0,.56-.1c-.23-.16-.39-.26-.56-.36Z" transform="translate(-4.47 -10.183)" fill="#1f7762"/>
  <path id="Trazado_25234" data-name="Trazado 25234" d="M33.43,20.32h-.58a4.7,4.7,0,0,0,.58.51Z" transform="translate(-4.47 -10.183)" fill="#1f7762"/>
  <path id="Trazado_25235" data-name="Trazado 25235" d="M33.43,20.9h0c-.19-.17-.39-.33-.58-.52a7.34,7.34,0,0,1,.58.55Z" transform="translate(-4.47 -10.183)" fill="#1f7762"/>
  <path id="Trazado_25236" data-name="Trazado 25236" d="M12.89,23.72h.49v-.26l-.46.1C12.86,23.63,12.89,23.66,12.89,23.72Z" transform="translate(-4.47 -10.183)" fill="#1f7762"/>
  <path id="Trazado_25237" data-name="Trazado 25237" d="M42.94,23.72h.49v-.26l-.46.1C42.91,23.63,42.94,23.66,42.94,23.72Z" transform="translate(-4.47 -10.183)" fill="#1f7762"/>
  <path id="Trazado_25238" data-name="Trazado 25238" d="M46.71,23.63h.19C46.77,23.59,46.67,23.56,46.71,23.63Z" transform="translate(-4.47 -10.183)" fill="#1f7762"/>
  <path id="Trazado_25239" data-name="Trazado 25239" d="M46.71,23.63a3,3,0,0,1-.52-.2c.19.23.26.33.29.33a1,1,0,0,0,.29-.07Z" transform="translate(-4.47 -10.183)" fill="#1f7762"/>
  <path id="Trazado_25240" data-name="Trazado 25240" d="M46.77,23.69h-.06Z" transform="translate(-4.47 -10.183)" fill="#1f7762"/>
  <path id="Trazado_25241" data-name="Trazado 25241" d="M46.9,23.63c-.16-.07-.36-.1-.68-.2l.52.2C46.67,23.56,46.77,23.59,46.9,23.63Z" transform="translate(-4.47 -10.183)" fill="#1f7762"/>
  <path id="Trazado_25242" data-name="Trazado 25242" d="M45.08,32.68a.22.22,0,0,0-.13,0v.49h.26C45.15,33,45.12,32.84,45.08,32.68Z" transform="translate(-4.47 -10.183)" fill="#1f7762"/>
  <path id="Trazado_25243" data-name="Trazado 25243" d="M12.4,63.9c-.06.16-.09.36-.19.68.23-.2.32-.26.32-.29a.94.94,0,0,0-.06-.29C12.34,64.19,12.37,64,12.4,63.9Z" transform="translate(-4.47 -10.183)" fill="#1f7762"/>
  <path id="Trazado_25244" data-name="Trazado 25244" d="M12.47,64v-.13C12.37,64,12.34,64.19,12.47,64Z" transform="translate(-4.47 -10.183)" fill="#1f7762"/>
  <path id="Trazado_25245" data-name="Trazado 25245" d="M35.74,37.94c.16.06.35.09.71.19-.19-.23-.26-.32-.29-.32a.94.94,0,0,0-.29.06C36,38,35.87,38,35.74,37.94Z" transform="translate(-4.47 -10.183)" fill="#1f7762"/>
  <path id="Trazado_25246" data-name="Trazado 25246" d="M35.83,37.9h-.12C35.87,38,36,38,35.83,37.9Z" transform="translate(-4.47 -10.183)" fill="#1f7762"/>
  <path id="Trazado_25247" data-name="Trazado 25247" d="M20.1,33.2a.22.22,0,0,0,.13,0v-.49h-.26C20,32.87,20.06,33,20.1,33.2Z" transform="translate(-4.47 -10.183)" fill="#1f7762"/>
  <path id="Trazado_25248" data-name="Trazado 25248" d="M45.18,26v-.13H44.6V26Z" transform="translate(-4.47 -10.183)" fill="#1f7762"/>
  <path id="Trazado_25249" data-name="Trazado 25249" d="M31.84,24.34l.46-.1v-.19a.51.51,0,0,0-.46.29Z" transform="translate(-4.47 -10.183)" fill="#1f7762"/>
  <path id="Trazado_25250" data-name="Trazado 25250" d="M31.84,24.34a.41.41,0,0,1,.43-.26h-.56v.26Z" transform="translate(-4.47 -10.183)" fill="#1f7762"/>
  <path id="Trazado_25251" data-name="Trazado 25251" d="M36,31.8c-.42,0-.23.36-.29.59C36.16,32.36,36,32,36,31.8Z" transform="translate(-4.47 -10.183)" fill="#1f7762"/>
  <path id="Trazado_25252" data-name="Trazado 25252" d="M42.81,24.05l-.48.09a.19.19,0,0,0,0,.13h.48A.56.56,0,0,1,42.81,24.05Z" transform="translate(-4.47 -10.183)" fill="#1f7762"/>
  <path id="Trazado_25253" data-name="Trazado 25253" d="M24.31,18.56a3.336,3.336,0,0,0-.09-.52.36.36,0,0,0-.2,0A.48.48,0,0,0,24.31,18.56Z" transform="translate(-4.47 -10.183)" fill="#1f7762"/>
  <path id="Trazado_25254" data-name="Trazado 25254" d="M24.31,18.6h0a.59.59,0,0,1-.29-.52c0,.19,0,.35,0,.55a.72.72,0,0,1,.26,0Z" transform="translate(-4.47 -10.183)" fill="#1f7762"/>
  <path id="Trazado_25255" data-name="Trazado 25255" d="M43.4,22.1h-.49v.26l.49-.1A.15.15,0,0,0,43.4,22.1Z" transform="translate(-4.47 -10.183)" fill="#1f7762"/>
  <path id="Trazado_25256" data-name="Trazado 25256" d="M14.38,25a.34.34,0,0,0,.17,0h0a1.461,1.461,0,0,1-.17,0Z" transform="translate(-4.47 -10.183)" fill="#1f7762"/>
  <path id="Trazado_25257" data-name="Trazado 25257" d="M14.38,25a4.84,4.84,0,0,1-.51-.16c.19.23.25.32.29.32a1.07,1.07,0,0,0,.29-.06C14.35,25.05,14.35,25,14.38,25Z" transform="translate(-4.47 -10.183)" fill="#1f7762"/>
  <path id="Trazado_25258" data-name="Trazado 25258" d="M14.55,25.05c-.17-.06-.36-.09-.68-.19l.51.16A.746.746,0,0,0,14.55,25.05Z" transform="translate(-4.47 -10.183)" fill="#1f7762"/>
  <path id="Trazado_25259" data-name="Trazado 25259" d="M14.38,25l.07.1c.07.1.06,0,.1,0S14.42,25.05,14.38,25Z" transform="translate(-4.47 -10.183)" fill="#1f7762"/>
  <path id="Trazado_25260" data-name="Trazado 25260" d="M35.06,30.47v.17h0a.23.23,0,0,1,0-.17Z" transform="translate(-4.47 -10.183)" fill="#1f7762"/>
  <path id="Trazado_25261" data-name="Trazado 25261" d="M35.06,30.47a3.721,3.721,0,0,1,.16-.52c-.23.2-.33.26-.33.3a1.11,1.11,0,0,0,.07.29C35,30.44,35.06,30.44,35.06,30.47Z" transform="translate(-4.47 -10.183)" fill="#1f7762"/>
  <path id="Trazado_25262" data-name="Trazado 25262" d="M35,30.64c.07-.17.1-.36.2-.69-.07.2-.1.36-.17.52a.4.4,0,0,1-.03.17Z" transform="translate(-4.47 -10.183)" fill="#1f7762"/>
  <path id="Trazado_25263" data-name="Trazado 25263" d="M35.06,30.47h-.1c-.1,0,0,.06,0,.09S35,30.54,35.06,30.47Z" transform="translate(-4.47 -10.183)" fill="#1f7762"/>
  <path id="Trazado_25264" data-name="Trazado 25264" d="M42.84,25.09a.19.19,0,0,0,0-.13h-.48v.26C42.55,25.18,42.68,25.12,42.84,25.09Z" transform="translate(-4.47 -10.183)" fill="#1f7762"/>
  <path id="Trazado_25265" data-name="Trazado 25265" d="M43.46,25.12h.59V25h-.59Z" transform="translate(-4.47 -10.183)" fill="#1f7762"/>
  <path id="Trazado_25266" data-name="Trazado 25266" d="M19.54,29.11v-.19C19.54,28.86,19.51,29.14,19.54,29.11Z" transform="translate(-4.47 -10.183)" fill="#1f7762"/>
  <path id="Trazado_25267" data-name="Trazado 25267" d="M19.54,29.11a2.27,2.27,0,0,1-.19.49c.23-.2.32-.26.32-.3a1.07,1.07,0,0,0-.06-.29C19.58,29.08,19.58,29.11,19.54,29.11Z" transform="translate(-4.47 -10.183)" fill="#1f7762"/>
  <path id="Trazado_25268" data-name="Trazado 25268" d="M19.58,28.92c-.07.16-.1.35-.2.68a3.5,3.5,0,0,1,.2-.49C19.51,29.14,19.54,29,19.58,28.92Z" transform="translate(-4.47 -10.183)" fill="#1f7762"/>
  <path id="Trazado_25269" data-name="Trazado 25269" d="M19.54,29.11l.07-.07v-.06C19.61,28.92,19.58,29.08,19.54,29.11Z" transform="translate(-4.47 -10.183)" fill="#1f7762"/>
  <path id="Trazado_25270" data-name="Trazado 25270" d="M35.38,21.81h-.49v.26l.45-.1A.155.155,0,0,0,35.38,21.81Z" transform="translate(-4.47 -10.183)" fill="#1f7762"/>
  <path id="Trazado_25271" data-name="Trazado 25271" d="M21.07,19.24h-.49v.26l.45-.09C21.1,19.31,21.1,19.28,21.07,19.24Z" transform="translate(-4.47 -10.183)" fill="#1f7762"/>
  <path id="Trazado_25272" data-name="Trazado 25272" d="M22,19.5h-.49v.26l.49-.09Z" transform="translate(-4.47 -10.183)" fill="#1f7762"/>
  <path id="Trazado_25273" data-name="Trazado 25273" d="M26.55,21.52a3.393,3.393,0,0,0,.1.52.36.36,0,0,0,.2,0C26.81,21.84,26.81,21.65,26.55,21.52Z" transform="translate(-4.47 -10.183)" fill="#1f7762"/>
  <path id="Trazado_25274" data-name="Trazado 25274" d="M26.55,21.48h0a.63.63,0,0,1,.3.52v-.55a.74.74,0,0,1-.26,0Z" transform="translate(-4.47 -10.183)" fill="#1f7762"/>
  <path id="Trazado_25275" data-name="Trazado 25275" d="M21.07,20.28V19.8h-.26l.1.48Z" transform="translate(-4.47 -10.183)" fill="#1f7762"/>
  <path id="Trazado_25276" data-name="Trazado 25276" d="M47.39,53v-.58h-.13V53Z" transform="translate(-4.47 -10.183)" fill="#1f7762"/>
  <path id="Trazado_25277" data-name="Trazado 25277" d="M22.24,26.38h-.49v.26l.46-.09Z" transform="translate(-4.47 -10.183)" fill="#1f7762"/>
  <path id="Trazado_25278" data-name="Trazado 25278" d="M32.85,20.32c0-.43-.36-.26-.58-.3C32.33,20.48,32.65,20.28,32.85,20.32Z" transform="translate(-4.47 -10.183)" fill="#1f7762"/>
  <path id="Trazado_25279" data-name="Trazado 25279" d="M21.49,21.48l.46-.09a.16.16,0,0,0,0-.13h-.48a.48.48,0,0,1,.02.22Z" transform="translate(-4.47 -10.183)" fill="#1f7762"/>
  <path id="Trazado_25280" data-name="Trazado 25280" d="M26.85,20.9h0a.63.63,0,0,0,.16.26l.1-.1a.87.87,0,0,0-.26-.16Z" transform="translate(-4.47 -10.183)" fill="#1f7762"/>
  <path id="Trazado_25281" data-name="Trazado 25281" d="M26.85,20.9a.87.87,0,0,1,.26.16.87.87,0,0,0-.26-.16Z" transform="translate(-4.47 -10.183)" fill="#1f7762"/>
  <path id="Trazado_25282" data-name="Trazado 25282" d="M18,26.35h0a.57.57,0,0,0,.16.26l.1-.1a.87.87,0,0,0-.26-.16Z" transform="translate(-4.47 -10.183)" fill="#1f7762"/>
  <path id="Trazado_25283" data-name="Trazado 25283" d="M18,26.35a.87.87,0,0,1,.26.16.87.87,0,0,0-.26-.16Z" transform="translate(-4.47 -10.183)" fill="#1f7762"/>
  <path id="Trazado_25284" data-name="Trazado 25284" d="M27.92,21.19V20.9h-.1v.29Z" transform="translate(-4.47 -10.183)" fill="#1f7762"/>
  <path id="Trazado_25285" data-name="Trazado 25285" d="M28.86,20.8v-.1h-.29v.1Z" transform="translate(-4.47 -10.183)" fill="#1f7762"/>
  <path id="Trazado_25286" data-name="Trazado 25286" d="M33.43,20.9h0a.78.78,0,0,0,.17.26l.09-.1a.68.68,0,0,0-.26-.16Z" transform="translate(-4.47 -10.183)" fill="#1f7762"/>
  <path id="Trazado_25287" data-name="Trazado 25287" d="M33.43,20.9a.68.68,0,0,1,.26.16A.68.68,0,0,0,33.43,20.9Z" transform="translate(-4.47 -10.183)" fill="#1f7762"/>
  <path id="Trazado_25288" data-name="Trazado 25288" d="M26.59,21.45c-.07-.06-.13-.16-.2-.23l-.1.1a.86.86,0,0,0,.3.13Z" transform="translate(-4.47 -10.183)" fill="#1f7762"/>
  <path id="Trazado_25289" data-name="Trazado 25289" d="M26.55,21.52h0l.07-.07h0a.79.79,0,0,1-.29-.13C26.39,21.35,26.46,21.45,26.55,21.52Z" transform="translate(-4.47 -10.183)" fill="#1f7762"/>
  <path id="Trazado_25290" data-name="Trazado 25290" d="M26.29,20.45a.87.87,0,0,0,.26.16h0c-.07-.07-.13-.17-.2-.23Z" transform="translate(-4.47 -10.183)" fill="#1f7762"/>
  <path id="Trazado_25291" data-name="Trazado 25291" d="M26.55,20.61a.87.87,0,0,1-.26-.16,1.53,1.53,0,0,0,.26.16Z" transform="translate(-4.47 -10.183)" fill="#1f7762"/>
  <path id="Trazado_25292" data-name="Trazado 25292" d="M25.42,20.51h.29v-.1h-.29Z" transform="translate(-4.47 -10.183)" fill="#1f7762"/>
  <path id="Trazado_25293" data-name="Trazado 25293" d="M28.27,20v-.1H28V20Z" transform="translate(-4.47 -10.183)" fill="#1f7762"/>
  <path id="Trazado_25294" data-name="Trazado 25294" d="M46.71,44.1v.29h.09V44.1Z" transform="translate(-4.47 -10.183)" fill="#1f7762"/>
  <ellipse id="Elipse_701" data-name="Elipse 701" cx="0.19" cy="0.06" rx="0.19" ry="0.06" transform="translate(18.03 11.367)" fill="#1f7762"/>
  <path id="Trazado_25295" data-name="Trazado 25295" d="M31.84,19.5l-.09.1a.57.57,0,0,0,.26.16h0a1.57,1.57,0,0,0-.17-.26Z" transform="translate(-4.47 -10.183)" fill="#1f7762"/>
  <path id="Trazado_25296" data-name="Trazado 25296" d="M31.75,19.57l.22.19h0A1.242,1.242,0,0,1,31.75,19.57Z" transform="translate(-4.47 -10.183)" fill="#1f7762"/>
  <path id="Trazado_25297" data-name="Trazado 25297" d="M30.77,21.74v-.29h-.09v.29Z" transform="translate(-4.47 -10.183)" fill="#1f7762"/>
  <path id="Trazado_25298" data-name="Trazado 25298" d="M26.85,19.28h-.3v.09h.3Z" transform="translate(-4.47 -10.183)" fill="#1f7762"/>
  <path id="Trazado_25299" data-name="Trazado 25299" d="M34.41,21.48v.3h.09v-.3Z" transform="translate(-4.47 -10.183)" fill="#1f7762"/>
  <path id="Trazado_25300" data-name="Trazado 25300" d="M38.89,21.94h.29v-.1h-.29Z" transform="translate(-4.47 -10.183)" fill="#1f7762"/>
  <path id="Trazado_25301" data-name="Trazado 25301" d="M27.43,18.89h0a.87.87,0,0,0,.16.26l.1-.1a.63.63,0,0,0-.26-.16Z" transform="translate(-4.47 -10.183)" fill="#1f7762"/>
  <path id="Trazado_25302" data-name="Trazado 25302" d="M27.43,18.89a.63.63,0,0,1,.26.16A.63.63,0,0,0,27.43,18.89Z" transform="translate(-4.47 -10.183)" fill="#1f7762"/>
  <path id="Trazado_25303" data-name="Trazado 25303" d="M42.39,21.74V22h.1v-.3Z" transform="translate(-4.47 -10.183)" fill="#1f7762"/>
  <ellipse id="Elipse_702" data-name="Elipse 702" cx="0.19" cy="0.06" rx="0.19" ry="0.06" transform="translate(20.63 8.807)" fill="#1f7762"/>
  <path id="Trazado_25304" data-name="Trazado 25304" d="M24.54,18.79a.49.49,0,0,0-.29-.13l.19.23C24.48,18.82,24.51,18.82,24.54,18.79Z" transform="translate(-4.47 -10.183)" fill="#1f7762"/>
  <path id="Trazado_25305" data-name="Trazado 25305" d="M24.31,18.56h0l-.06.07h0a.79.79,0,0,1,.29.13,1.31,1.31,0,0,1-.23-.2Z" transform="translate(-4.47 -10.183)" fill="#1f7762"/>
  <path id="Trazado_25306" data-name="Trazado 25306" d="M20.19,18v-.29H20.1V18Z" transform="translate(-4.47 -10.183)" fill="#1f7762"/>
  <path id="Trazado_25307" data-name="Trazado 25307" d="M25.13,17.17h0a.69.69,0,0,0-.17-.26l-.09.1A1,1,0,0,0,25.13,17.17Z" transform="translate(-4.47 -10.183)" fill="#1f7762"/>
  <path id="Trazado_25308" data-name="Trazado 25308" d="M25.13,17.17a.68.68,0,0,1-.26-.16A1,1,0,0,0,25.13,17.17Z" transform="translate(-4.47 -10.183)" fill="#1f7762"/>
  <path id="Trazado_25309" data-name="Trazado 25309" d="M28,16.88h0a.57.57,0,0,0-.16-.26l-.1.09A.56.56,0,0,0,28,16.88Z" transform="translate(-4.47 -10.183)" fill="#1f7762"/>
  <path id="Trazado_25310" data-name="Trazado 25310" d="M28,16.88a.9.9,0,0,1-.26-.17A.56.56,0,0,0,28,16.88Z" transform="translate(-4.47 -10.183)" fill="#1f7762"/>
  <path id="Trazado_25311" data-name="Trazado 25311" d="M22.66,16.62v.29h.1v-.29Z" transform="translate(-4.47 -10.183)" fill="#1f7762"/>
  <path id="Trazado_25312" data-name="Trazado 25312" d="M37,22.91v.29h.1v-.29Z" transform="translate(-4.47 -10.183)" fill="#1f7762"/>
  <path id="Trazado_25313" data-name="Trazado 25313" d="M42.23,37.22v-.29h-.1v.29Z" transform="translate(-4.47 -10.183)" fill="#1f7762"/>
  <path id="Trazado_25314" data-name="Trazado 25314" d="M27.24,16v.29h.09V16Z" transform="translate(-4.47 -10.183)" fill="#1f7762"/>
  <path id="Trazado_25315" data-name="Trazado 25315" d="M23.15,15.84h-.3v.09h.3Z" transform="translate(-4.47 -10.183)" fill="#1f7762"/>
  <path id="Trazado_25316" data-name="Trazado 25316" d="M19,16v-.29h-.09V16Z" transform="translate(-4.47 -10.183)" fill="#1f7762"/>
  <path id="Trazado_25317" data-name="Trazado 25317" d="M38,34.07h0a.63.63,0,0,0,.26-.16l-.1-.09a1.17,1.17,0,0,0-.16.25Z" transform="translate(-4.47 -10.183)" fill="#1f7762"/>
  <path id="Trazado_25318" data-name="Trazado 25318" d="M38,34.07a.72.72,0,0,1,.16-.25,1.17,1.17,0,0,0-.16.25Z" transform="translate(-4.47 -10.183)" fill="#1f7762"/>
  <path id="Trazado_25319" data-name="Trazado 25319" d="M19.61,33.78v-.29h-.1v.29Z" transform="translate(-4.47 -10.183)" fill="#1f7762"/>
  <path id="Trazado_25320" data-name="Trazado 25320" d="M38.2,33.23h-.09v.29h.09Z" transform="translate(-4.47 -10.183)" fill="#1f7762"/>
  <path id="Trazado_25321" data-name="Trazado 25321" d="M19.12,14.21h.29v-.09h-.29Z" transform="translate(-4.47 -10.183)" fill="#1f7762"/>
  <path id="Trazado_25322" data-name="Trazado 25322" d="M22.08,32.06v.3h.09v-.3Z" transform="translate(-4.47 -10.183)" fill="#1f7762"/>
  <path id="Trazado_25323" data-name="Trazado 25323" d="M41,24.05v.29h.1v-.29Z" transform="translate(-4.47 -10.183)" fill="#1f7762"/>
  <path id="Trazado_25324" data-name="Trazado 25324" d="M23,12.59v.29h.1v-.29Z" transform="translate(-4.47 -10.183)" fill="#1f7762"/>
  <path id="Trazado_25325" data-name="Trazado 25325" d="M39.44,72.4v-.1h-.29v.1Z" transform="translate(-4.47 -10.183)" fill="#1f7762"/>
  <path id="Trazado_25326" data-name="Trazado 25326" d="M34.57,27.68v-.1h-.29v.1Z" transform="translate(-4.47 -10.183)" fill="#1f7762"/>
  <path id="Trazado_25327" data-name="Trazado 25327" d="M33.63,27.78v-.29h-.1v.29Z" transform="translate(-4.47 -10.183)" fill="#1f7762"/>
  <path id="Trazado_25328" data-name="Trazado 25328" d="M22.66,25.77v.29h.1v-.29Z" transform="translate(-4.47 -10.183)" fill="#1f7762"/>
  <path id="Trazado_25329" data-name="Trazado 25329" d="M25.71,27.39v-.1h-.29v.1Z" transform="translate(-4.47 -10.183)" fill="#1f7762"/>
  <path id="Trazado_25330" data-name="Trazado 25330" d="M21.78,27.49h.1V27.2h-.1Z" transform="translate(-4.47 -10.183)" fill="#1f7762"/>
  <path id="Trazado_25331" data-name="Trazado 25331" d="M21,27.49V27.2h-.1v.29Z" transform="translate(-4.47 -10.183)" fill="#1f7762"/>
  <path id="Trazado_25332" data-name="Trazado 25332" d="M27.43,26.74v.1h.29v-.1Z" transform="translate(-4.47 -10.183)" fill="#1f7762"/>
  <path id="Trazado_25333" data-name="Trazado 25333" d="M23.41,26.84h.29v-.1h-.29Z" transform="translate(-4.47 -10.183)" fill="#1f7762"/>
  <path id="Trazado_25334" data-name="Trazado 25334" d="M21.23,26.35v.29h.1v-.29Z" transform="translate(-4.47 -10.183)" fill="#1f7762"/>
  <path id="Trazado_25335" data-name="Trazado 25335" d="M44.21,26.06v-.29h-.1v.29Z" transform="translate(-4.47 -10.183)" fill="#1f7762"/>
  <path id="Trazado_25336" data-name="Trazado 25336" d="M33,77.92h0v-.29h0Z" transform="translate(-4.47 -10.183)" fill="#1f7762"/>
  <path id="Trazado_25337" data-name="Trazado 25337" d="M30.93,61.07c-.19-.61-.35-1-.48-1.46C30.32,60.13,30.09,60.69,30.93,61.07Z" transform="translate(-4.47 -10.183)" fill="#1f7762"/>
  <path id="Trazado_25338" data-name="Trazado 25338" d="M33.43,61A2.2,2.2,0,0,0,34,62.57v-1a1.48,1.48,0,0,1-.29-.22,3.809,3.809,0,0,1-.28-.35Z" transform="translate(-4.47 -10.183)" fill="#1f7762"/>
  <path id="Trazado_25339" data-name="Trazado 25339" d="M32.65,63.7v1h.46Z" transform="translate(-4.47 -10.183)" fill="#1f7762"/>
  <path id="Trazado_25340" data-name="Trazado 25340" d="M31.71,68.25v.52H32a3.658,3.658,0,0,0-.1-.56.36.36,0,0,0-.19.04Z" transform="translate(-4.47 -10.183)" fill="#1f7762"/>
  <path id="Trazado_25341" data-name="Trazado 25341" d="M33.14,60.46c0,.23-.13.55.29.58C33.4,60.82,33.56,60.46,33.14,60.46Z" transform="translate(-4.47 -10.183)" fill="#1f7762"/>
  <path id="Trazado_25342" data-name="Trazado 25342" d="M30.06,59.29h.13v-.58h-.13Z" transform="translate(-4.47 -10.183)" fill="#1f7762"/>
  <path id="Trazado_25343" data-name="Trazado 25343" d="M31.45,61l-.19-.23-.1.1A2.729,2.729,0,0,0,31.45,61Z" transform="translate(-4.47 -10.183)" fill="#1f7762"/>
  <path id="Trazado_25344" data-name="Trazado 25344" d="M31.39,61l.06-.06c-.13,0-.19-.07-.29-.13a1.55,1.55,0,0,1,.23.19Z" transform="translate(-4.47 -10.183)" fill="#1f7762"/>
  <path id="Trazado_25345" data-name="Trazado 25345" d="M31.42,61c.07.07.13.16.2.23l.09-.1a2,2,0,0,0-.29-.13Z" transform="translate(-4.47 -10.183)" fill="#1f7762"/>
  <path id="Trazado_25346" data-name="Trazado 25346" d="M31.42,61a.49.49,0,0,1,.29.13L31.49,61h0Z" transform="translate(-4.47 -10.183)" fill="#1f7762"/>
  <path id="Trazado_25347" data-name="Trazado 25347" d="M31.45,61h0l-.06.06h0Z" transform="translate(-4.47 -10.183)" fill="#1f7762"/>
  <path id="Trazado_25348" data-name="Trazado 25348" d="M34.47,63.31h-.1v.3h.1Z" transform="translate(-4.47 -10.183)" fill="#1f7762"/>
  <path id="Trazado_25349" data-name="Trazado 25349" d="M33.92,63.9h-.1v.29h.1Z" transform="translate(-4.47 -10.183)" fill="#1f7762"/>
  <path id="Trazado_25350" data-name="Trazado 25350" d="M40.83,63.41c.13,1,.26,1.92.49,3a3.75,3.75,0,0,0-.49-3Z" transform="translate(-4.47 -10.183)" fill="#1f7762"/>
  <path id="Trazado_25351" data-name="Trazado 25351" d="M41.29,66.66v-.3c-.23-1-.36-2-.49-3C41,64.42,41.12,65.46,41.29,66.66Z" transform="translate(-4.47 -10.183)" fill="#1f7762"/>
  <path id="Trazado_25352" data-name="Trazado 25352" d="M42.88,65.55a12.625,12.625,0,0,0,.06,1.5h.16v-2.5l-.48-.49C42.71,64.64,42.84,65.1,42.88,65.55Z" transform="translate(-4.47 -10.183)" fill="#1f7762"/>
  <path id="Trazado_25353" data-name="Trazado 25353" d="M39.44,65.72v-1c0-.48.13-1-.2-1.42v.45A4.94,4.94,0,0,0,39.44,65.72Z" transform="translate(-4.47 -10.183)" fill="#1f7762"/>
  <path id="Trazado_25354" data-name="Trazado 25354" d="M39.18,66.17h.29v-.49a5,5,0,0,1-.23-1.94A22.26,22.26,0,0,0,39.18,66.17Z" transform="translate(-4.47 -10.183)" fill="#1f7762"/>
  <path id="Trazado_25355" data-name="Trazado 25355" d="M42.58,61v-.68a5.541,5.541,0,0,0-.06-1A2.21,2.21,0,0,0,42.58,61Z" transform="translate(-4.47 -10.183)" fill="#1f7762"/>
  <path id="Trazado_25356" data-name="Trazado 25356" d="M42.52,59.32a2.55,2.55,0,0,0,.06,2V61a2.21,2.21,0,0,1-.06-1.68Z" transform="translate(-4.47 -10.183)" fill="#1f7762"/>
  <path id="Trazado_25357" data-name="Trazado 25357" d="M40.86,61.76v-.59a5.6,5.6,0,0,0-.06-1,1.94,1.94,0,0,0,.06,1.59Z" transform="translate(-4.47 -10.183)" fill="#1f7762"/>
  <path id="Trazado_25358" data-name="Trazado 25358" d="M40.86,61.76a1.74,1.74,0,0,1-.06-1.59,2.55,2.55,0,0,0,.06,2Z" transform="translate(-4.47 -10.183)" fill="#1f7762"/>
  <path id="Trazado_25359" data-name="Trazado 25359" d="M40.54,58.22a1.69,1.69,0,0,0,0,1.62Z" transform="translate(-4.47 -10.183)" fill="#1f7762"/>
  <path id="Trazado_25360" data-name="Trazado 25360" d="M43.69,66.17V64.51h-.23V66S43.59,66.1,43.69,66.17Z" transform="translate(-4.47 -10.183)" fill="#1f7762"/>
  <path id="Trazado_25361" data-name="Trazado 25361" d="M42.81,62.73a3.33,3.33,0,0,0-.13-1.14,1.3,1.3,0,0,0,.13,1.14Z" transform="translate(-4.47 -10.183)" fill="#1f7762"/>
  <path id="Trazado_25362" data-name="Trazado 25362" d="M42.81,61.3a1.05,1.05,0,0,0-.13.26,3.42,3.42,0,0,1,.13,1.14Z" transform="translate(-4.47 -10.183)" fill="#1f7762"/>
  <ellipse id="Elipse_703" data-name="Elipse 703" cx="0.1" cy="1.01" rx="0.1" ry="1.01" transform="translate(39.9 55.427)" fill="#1f7762"/>
  <path id="Trazado_25363" data-name="Trazado 25363" d="M44.27,54.75c-.06.45-.48.94,0,1.42Z" transform="translate(-4.47 -10.183)" fill="#1f7762"/>
  <path id="Trazado_25364" data-name="Trazado 25364" d="M44,66.49h-.16v1h.26A5,5,0,0,1,44,66.49Z" transform="translate(-4.47 -10.183)" fill="#1f7762"/>
  <path id="Trazado_25365" data-name="Trazado 25365" d="M39.53,67.31h.13a1.42,1.42,0,0,0-.13-.72Z" transform="translate(-4.47 -10.183)" fill="#1f7762"/>
  <path id="Trazado_25366" data-name="Trazado 25366" d="M39.53,66.59a1.42,1.42,0,0,1,.13.72V66.17h-.13Z" transform="translate(-4.47 -10.183)" fill="#1f7762"/>
  <path id="Trazado_25367" data-name="Trazado 25367" d="M40.86,62.31l-.09.1c.06.22.13.45.19.64a2.261,2.261,0,0,0,.2-.13,1.18,1.18,0,0,0-.23-.68S40.9,62.31,40.86,62.31Z" transform="translate(-4.47 -10.183)" fill="#1f7762"/>
  <path id="Trazado_25368" data-name="Trazado 25368" d="M41.16,62.92a4.5,4.5,0,0,0-.07-.9,1.28,1.28,0,0,0-.16.19,1.12,1.12,0,0,1,.23.71Z" transform="translate(-4.47 -10.183)" fill="#1f7762"/>
  <path id="Trazado_25369" data-name="Trazado 25369" d="M40.77,62.41Z" transform="translate(-4.47 -10.183)" fill="#1f7762"/>
  <path id="Trazado_25370" data-name="Trazado 25370" d="M42.65,63.09v.74h.26a5.3,5.3,0,0,0-.1-.74C42.75,63.05,42.68,63.09,42.65,63.09Z" transform="translate(-4.47 -10.183)" fill="#1f7762"/>
  <path id="Trazado_25371" data-name="Trazado 25371" d="M45.08,65.65h-.16v.75h.26C45.15,66.14,45.12,65.91,45.08,65.65Z" transform="translate(-4.47 -10.183)" fill="#1f7762"/>
  <path id="Trazado_25372" data-name="Trazado 25372" d="M40.83,66.69v-.75h-.26a6.423,6.423,0,0,0,.1.75.29.29,0,0,0,.16,0Z" transform="translate(-4.47 -10.183)" fill="#1f7762"/>
  <path id="Trazado_25373" data-name="Trazado 25373" d="M42.84,52.09v-.26l-.74.09v.13a5,5,0,0,0,.74.04Z" transform="translate(-4.47 -10.183)" fill="#1f7762"/>
  <path id="Trazado_25374" data-name="Trazado 25374" d="M41.12,67.86v-.49h-.26l.1.49Z" transform="translate(-4.47 -10.183)" fill="#1f7762"/>
  <path id="Trazado_25375" data-name="Trazado 25375" d="M45.38,67.05h-.13v.58h.13Z" transform="translate(-4.47 -10.183)" fill="#1f7762"/>
  <path id="Trazado_25376" data-name="Trazado 25376" d="M40.25,67.27v-.48H40l.1.48C40.15,67.31,40.22,67.27,40.25,67.27Z" transform="translate(-4.47 -10.183)" fill="#1f7762"/>
  <path id="Trazado_25377" data-name="Trazado 25377" d="M44.21,64.19a.21.21,0,0,0-.13,0v.49h.26A2.38,2.38,0,0,1,44.21,64.19Z" transform="translate(-4.47 -10.183)" fill="#1f7762"/>
  <path id="Trazado_25378" data-name="Trazado 25378" d="M43.4,62.18h-.13v.58h.13Z" transform="translate(-4.47 -10.183)" fill="#1f7762"/>
  <path id="Trazado_25379" data-name="Trazado 25379" d="M42.36,57.83h.26a1.955,1.955,0,0,0-.1-.46c-.03-.13-.1,0-.13,0A2.12,2.12,0,0,0,42.36,57.83Z" transform="translate(-4.47 -10.183)" fill="#1f7762"/>
  <path id="Trazado_25380" data-name="Trazado 25380" d="M41.74,52.41h0a.76.76,0,0,0,.16.26l.1-.1a.92.92,0,0,1-.26-.16Z" transform="translate(-4.47 -10.183)" fill="#1f7762"/>
  <path id="Trazado_25381" data-name="Trazado 25381" d="M41.74,52.41Z" transform="translate(-4.47 -10.183)" fill="#1f7762"/>
  <path id="Trazado_25382" data-name="Trazado 25382" d="M42,52.6c-.06-.06-.16-.12-.23-.19h0a1.11,1.11,0,0,0,.23.19Z" transform="translate(-4.47 -10.183)" fill="#1f7762"/>
  <path id="Trazado_25383" data-name="Trazado 25383" d="M41.16,53.09h-.3v.1h.3Z" transform="translate(-4.47 -10.183)" fill="#1f7762"/>
  <path id="Trazado_25384" data-name="Trazado 25384" d="M40.22,53.87h-.1v.29h.1Z" transform="translate(-4.47 -10.183)" fill="#1f7762"/>
  <path id="Trazado_25385" data-name="Trazado 25385" d="M42.49,56.14h-.1v.29h.1Z" transform="translate(-4.47 -10.183)" fill="#1f7762"/>
  <path id="Trazado_25386" data-name="Trazado 25386" d="M39.63,57.31h-.1v.29h.1Z" transform="translate(-4.47 -10.183)" fill="#1f7762"/>
  <path id="Trazado_25387" data-name="Trazado 25387" d="M39.08,61H39v.29h.1Z" transform="translate(-4.47 -10.183)" fill="#1f7762"/>
  <path id="Trazado_25388" data-name="Trazado 25388" d="M43.36,61h-.09v.29h.09Z" transform="translate(-4.47 -10.183)" fill="#1f7762"/>
  <path id="Trazado_25389" data-name="Trazado 25389" d="M39.15,62h-.3v.1h.3Z" transform="translate(-4.47 -10.183)" fill="#1f7762"/>
  <path id="Trazado_25390" data-name="Trazado 25390" d="M39.92,68.47h-.09v.3h.09Z" transform="translate(-4.47 -10.183)" fill="#1f7762"/>
  <path id="Trazado_25391" data-name="Trazado 25391" d="M18.64,69a1.909,1.909,0,0,1-.07.64,1.17,1.17,0,0,1-.23.43l.36.35.45-.26V69.9C18.54,69.84,19.06,69.22,18.64,69Z" transform="translate(-4.47 -10.183)" fill="#1f7762"/>
  <path id="Trazado_25392" data-name="Trazado 25392" d="M22.5,60.52c.61-.39.81-.71.42-1.23-.07.19-.13.36-.2.52a3.16,3.16,0,0,1-.22.71Z" transform="translate(-4.47 -10.183)" fill="#1f7762"/>
  <path id="Trazado_25393" data-name="Trazado 25393" d="M22.5,60.52c.61-.39.84-.71.45-1.29a.1.1,0,0,1,0,.06C23.31,59.81,23.11,60.17,22.5,60.52Z" transform="translate(-4.47 -10.183)" fill="#1f7762"/>
  <path id="Trazado_25394" data-name="Trazado 25394" d="M20.71,66.07c-.19.46-.32.81-.52,1.3C20.84,67.05,21,66.72,20.71,66.07Z" transform="translate(-4.47 -10.183)" fill="#1f7762"/>
  <path id="Trazado_25395" data-name="Trazado 25395" d="M19.61,69.58a1.65,1.65,0,0,0,.1-.81,1.23,1.23,0,0,0-.43.48,1.27,1.27,0,0,0-.13.65.78.78,0,0,0,.46-.32Z" transform="translate(-4.47 -10.183)" fill="#1f7762"/>
  <path id="Trazado_25396" data-name="Trazado 25396" d="M19.61,69.58a.69.69,0,0,1-.49.32A.69.69,0,0,0,19.61,69.58Z" transform="translate(-4.47 -10.183)" fill="#1f7762"/>
  <path id="Trazado_25397" data-name="Trazado 25397" d="M19.12,69.9a1.51,1.51,0,0,1,.13-.65,1.43,1.43,0,0,0-.13.65Z" transform="translate(-4.47 -10.183)" fill="#1f7762"/>
  <path id="Trazado_25398" data-name="Trazado 25398" d="M23.41,61.56h0V61.3c-.29.62-.46,1-.65,1.46a.8.8,0,0,0,.65-.68A2.53,2.53,0,0,1,23.41,61.56Z" transform="translate(-4.47 -10.183)" fill="#1f7762"/>
  <path id="Trazado_25399" data-name="Trazado 25399" d="M23.41,62.05a2.17,2.17,0,0,0,0-.46h0Z" transform="translate(-4.47 -10.183)" fill="#1f7762"/>
  <path id="Trazado_25400" data-name="Trazado 25400" d="M27.53,61c.16-.39.26-.59.32-.75H27.4C27.43,60.43,27.46,60.56,27.53,61Z" transform="translate(-4.47 -10.183)" fill="#1f7762"/>
  <path id="Trazado_25401" data-name="Trazado 25401" d="M19.87,68.41a1,1,0,0,0,0,.29h0C19.87,68.6,19.93,68.41,19.87,68.41Z" transform="translate(-4.47 -10.183)" fill="#1f7762"/>
  <path id="Trazado_25402" data-name="Trazado 25402" d="M19.74,68.34h0a.51.51,0,0,0,0,.23l.1-.13C19.84,68.31,19.74,68.31,19.74,68.34Z" transform="translate(-4.47 -10.183)" fill="#1f7762"/>
  <path id="Trazado_25403" data-name="Trazado 25403" d="M19.87,68.41l-.1.13c0,.06,0,.13.07.16a1.09,1.09,0,0,1,.03-.29Z" transform="translate(-4.47 -10.183)" fill="#1f7762"/>
  <path id="Trazado_25404" data-name="Trazado 25404" d="M19.87,68.41c.06,0,0,.16,0,.36.06-.17.09-.36.19-.69a2.51,2.51,0,0,1-.29.26S19.84,68.31,19.87,68.41Z" transform="translate(-4.47 -10.183)" fill="#1f7762"/>
  <path id="Trazado_25405" data-name="Trazado 25405" d="M22.5,69.06h-.13v.58h.13Z" transform="translate(-4.47 -10.183)" fill="#1f7762"/>
  <path id="Trazado_25406" data-name="Trazado 25406" d="M22.53,65.75h0v-.16a.73.73,0,0,1-.13.09C22.43,65.78,22.5,65.78,22.53,65.75Z" transform="translate(-4.47 -10.183)" fill="#1f7762"/>
  <path id="Trazado_25407" data-name="Trazado 25407" d="M22.4,65.68a.76.76,0,0,0,.06-.26s0-.06,0-.09C22.37,65.49,22.34,65.68,22.4,65.68Z" transform="translate(-4.47 -10.183)" fill="#1f7762"/>
  <path id="Trazado_25408" data-name="Trazado 25408" d="M22.4,65.68c-.06,0,0-.19,0-.35-.06.16-.09.35-.19.71.16-.16.29-.23.32-.29a.1.1,0,0,1-.13-.07Z" transform="translate(-4.47 -10.183)" fill="#1f7762"/>
  <path id="Trazado_25409" data-name="Trazado 25409" d="M22.4,65.68l.13-.09a1.22,1.22,0,0,0-.07-.17.76.76,0,0,1-.06.26Z" transform="translate(-4.47 -10.183)" fill="#1f7762"/>
  <path id="Trazado_25410" data-name="Trazado 25410" d="M22.59,64.9v.43a.4.4,0,0,0,.26-.1,1.008,1.008,0,0,0,0-.46.2.2,0,0,0-.26.13Z" transform="translate(-4.47 -10.183)" fill="#1f7762"/>
  <path id="Trazado_25411" data-name="Trazado 25411" d="M22.82,65.2c.07-.13,0-.33,0-.46A1.008,1.008,0,0,1,22.82,65.2Z" transform="translate(-4.47 -10.183)" fill="#1f7762"/>
  <path id="Trazado_25412" data-name="Trazado 25412" d="M22.59,64.9a.25.25,0,0,1,.26-.13C22.69,64.74,22.59,64.81,22.59,64.9Z" transform="translate(-4.47 -10.183)" fill="#1f7762"/>
  <path id="Trazado_25413" data-name="Trazado 25413" d="M22.85,64.22v.52h.3a3.534,3.534,0,0,0-.1-.55.46.46,0,0,1-.2.03Z" transform="translate(-4.47 -10.183)" fill="#1f7762"/>
  <path id="Trazado_25414" data-name="Trazado 25414" d="M23.44,61.53v.06h0l.23-.2-.1-.1a.94.94,0,0,0-.13.24Z" transform="translate(-4.47 -10.183)" fill="#1f7762"/>
  <path id="Trazado_25415" data-name="Trazado 25415" d="M23.41,61.56h0v0Z" transform="translate(-4.47 -10.183)" fill="#1f7762"/>
  <path id="Trazado_25416" data-name="Trazado 25416" d="M24.93,63.61H25v-.3h-.1Z" transform="translate(-4.47 -10.183)" fill="#1f7762"/>
  <path id="Trazado_25417" data-name="Trazado 25417" d="M21.72,65.52H22v-.1h-.29Z" transform="translate(-4.47 -10.183)" fill="#1f7762"/>
  <path id="Trazado_25418" data-name="Trazado 25418" d="M20.1,67.89h.09V67.6H20.1Z" transform="translate(-4.47 -10.183)" fill="#1f7762"/>
  <path id="Trazado_25419" data-name="Trazado 25419" d="M20.1,69.9h.09v-.29H20.1Z" transform="translate(-4.47 -10.183)" fill="#1f7762"/>
  <path id="Trazado_25420" data-name="Trazado 25420" d="M20.55,70.1h.29V70h-.29Z" transform="translate(-4.47 -10.183)" fill="#1f7762"/>
  <path id="Trazado_25421" data-name="Trazado 25421" d="M35.83,45h.46c-.2-.29-.39-.55-.58-.85h0a7.6,7.6,0,0,1-.56-.58l-.29-.29L34,43a5.62,5.62,0,0,0,.58.71.74.74,0,0,1,.26.71h.46A4.251,4.251,0,0,1,35.83,45Z" transform="translate(-4.47 -10.183)" fill="#1f7762"/>
  <path id="Trazado_25422" data-name="Trazado 25422" d="M35.71,44.1l-.56-.55C35.35,43.75,35.54,43.91,35.71,44.1Z" transform="translate(-4.47 -10.183)" fill="#1f7762"/>
  <path id="Trazado_25423" data-name="Trazado 25423" d="M36.29,45c-.2-.29-.36-.55-.55-.85h0C35.93,44.39,36.09,44.69,36.29,45Z" transform="translate(-4.47 -10.183)" fill="#1f7762"/>
  <path id="Trazado_25424" data-name="Trazado 25424" d="M35.74,44.1h0l.13.13c.13-.19.26-.42.42-.68h-.55v.58Z" transform="translate(-4.47 -10.183)" fill="#1f7762"/>
  <path id="Trazado_25425" data-name="Trazado 25425" d="M35.77,43.55a3.841,3.841,0,0,0,0,.55h0a3.84,3.84,0,0,1,0-.55Z" transform="translate(-4.47 -10.183)" fill="#1f7762"/>
  <path id="Trazado_25426" data-name="Trazado 25426" d="M35.74,44.13a.734.734,0,0,1,.13.13C35.91,44.32,35.77,44.17,35.74,44.13Z" transform="translate(-4.47 -10.183)" fill="#1f7762"/>
  <path id="Trazado_25427" data-name="Trazado 25427" d="M35.71,44.1Z" transform="translate(-4.47 -10.183)" fill="#1f7762"/>
  <path id="Trazado_25428" data-name="Trazado 25428" d="M40,47.25h0a.76.76,0,0,0-.26.16l.1.1A.51.51,0,0,0,40,47.25Z" transform="translate(-4.47 -10.183)" fill="#1f7762"/>
  <path id="Trazado_25429" data-name="Trazado 25429" d="M39.86,47.54l.19-.22h0A1.44,1.44,0,0,0,39.86,47.54Z" transform="translate(-4.47 -10.183)" fill="#1f7762"/>
  <ellipse id="Elipse_704" data-name="Elipse 704" cx="0.06" cy="0.19" rx="0.06" ry="0.19" transform="translate(34.19 36.747)" fill="#1f7762"/>
  <path id="Trazado_25430" data-name="Trazado 25430" d="M37.72,46.31H38v-.1h-.29Z" transform="translate(-4.47 -10.183)" fill="#1f7762"/>
  <path id="Trazado_25431" data-name="Trazado 25431" d="M36.58,45.27h0a.68.68,0,0,0,.16.26l.1-.1A.68.68,0,0,0,36.58,45.27Z" transform="translate(-4.47 -10.183)" fill="#1f7762"/>
  <path id="Trazado_25432" data-name="Trazado 25432" d="M36.84,45.43c-.06-.06-.16-.13-.23-.19h0C36.68,45.3,36.78,45.37,36.84,45.43Z" transform="translate(-4.47 -10.183)" fill="#1f7762"/>
  <path id="Trazado_25433" data-name="Trazado 25433" d="M36.58,45.27Z" transform="translate(-4.47 -10.183)" fill="#1f7762"/>
  <path id="Trazado_25434" data-name="Trazado 25434" d="M36.87,44.88h.3v-.1h-.3Z" transform="translate(-4.47 -10.183)" fill="#1f7762"/>
  <path id="Trazado_25435" data-name="Trazado 25435" d="M36.39,44.39h.09V44.1h-.09Z" transform="translate(-4.47 -10.183)" fill="#1f7762"/>
  <path id="Trazado_25436" data-name="Trazado 25436" d="M17.43,47.28v.81C17.69,47.74,17.69,47.74,17.43,47.28Z" transform="translate(-4.47 -10.183)" fill="#1f7762"/>
  <path id="Trazado_25437" data-name="Trazado 25437" d="M17.43,48.09h0c.26-.32.26-.32,0-.81C17.69,47.74,17.69,47.74,17.43,48.09Z" transform="translate(-4.47 -10.183)" fill="#1f7762"/>
  <path id="Trazado_25438" data-name="Trazado 25438" d="M16.72,48.06a.87.87,0,0,0-.06.23v.13C16.72,48.22,16.79,48.06,16.72,48.06Z" transform="translate(-4.47 -10.183)" fill="#1f7762"/>
  <path id="Trazado_25439" data-name="Trazado 25439" d="M16.59,48h0a.49.49,0,0,0,0,.22.64.64,0,0,0,.1-.13C16.69,48,16.59,48,16.59,48Z" transform="translate(-4.47 -10.183)" fill="#1f7762"/>
  <path id="Trazado_25440" data-name="Trazado 25440" d="M16.72,48.06c.07,0,0,.16,0,.36.06-.16.1-.36.19-.68-.16.16-.26.22-.29.26S16.69,48,16.72,48.06Z" transform="translate(-4.47 -10.183)" fill="#1f7762"/>
  <path id="Trazado_25441" data-name="Trazado 25441" d="M16.72,48.06a.639.639,0,0,1-.1.13c-.04.03,0,.07,0,.1A.87.87,0,0,1,16.72,48.06Z" transform="translate(-4.47 -10.183)" fill="#1f7762"/>
  <path id="Trazado_25442" data-name="Trazado 25442" d="M17.4,48.13a.48.48,0,0,0-.22.06c-.13.13,0,.36-.07.52a.52.52,0,0,0,.23-.06C17.47,48.52,17.37,48.29,17.4,48.13Z" transform="translate(-4.47 -10.183)" fill="#1f7762"/>
  <path id="Trazado_25443" data-name="Trazado 25443" d="M17.21,48.19c-.13.1,0,.36-.07.52C17.14,48.55,17.08,48.32,17.21,48.19Z" transform="translate(-4.47 -10.183)" fill="#1f7762"/>
  <path id="Trazado_25444" data-name="Trazado 25444" d="M17.34,48.61a.442.442,0,0,1-.23.07C17.24,48.68,17.31,48.68,17.34,48.61Z" transform="translate(-4.47 -10.183)" fill="#1f7762"/>
  <path id="Trazado_25445" data-name="Trazado 25445" d="M20.55,47h0a.76.76,0,0,0-.16-.26l-.1.1C20.39,46.84,20.45,46.97,20.55,47Z" transform="translate(-4.47 -10.183)" fill="#1f7762"/>
  <path id="Trazado_25446" data-name="Trazado 25446" d="M20.55,47Z" transform="translate(-4.47 -10.183)" fill="#1f7762"/>
  <path id="Trazado_25447" data-name="Trazado 25447" d="M20.29,46.8l.23.19h0C20.45,47,20.39,46.86,20.29,46.8Z" transform="translate(-4.47 -10.183)" fill="#1f7762"/>
  <path id="Trazado_25448" data-name="Trazado 25448" d="M42.88,75.35h0a.69.69,0,0,0-.26.17l.09.09A.69.69,0,0,0,42.88,75.35Z" transform="translate(-4.47 -10.183)" fill="#1f7762"/>
  <path id="Trazado_25449" data-name="Trazado 25449" d="M42.71,75.61c.07-.06.13-.16.2-.22h0C42.84,75.45,42.78,75.55,42.71,75.61Z" transform="translate(-4.47 -10.183)" fill="#1f7762"/>
  <path id="Trazado_25450" data-name="Trazado 25450" d="M31.26,40.34c.42.42.88.81,1.33,1.2V41l-.29-.29-.59-.58-.58-.29C31.19,40,31.16,40.24,31.26,40.34Z" transform="translate(-4.47 -10.183)" fill="#1f7762"/>
  <path id="Trazado_25451" data-name="Trazado 25451" d="M30.58,38.94V37.81l-.75.13C30.16,38.36,30.35,38.65,30.58,38.94Z" transform="translate(-4.47 -10.183)" fill="#1f7762"/>
  <path id="Trazado_25452" data-name="Trazado 25452" d="M30.58,38.94a.7.7,0,0,0,.58.85.73.73,0,0,0-.58-.85Z" transform="translate(-4.47 -10.183)" fill="#1f7762"/>
  <path id="Trazado_25453" data-name="Trazado 25453" d="M34,43v-.3l-.23.1A1.57,1.57,0,0,0,34,43Z" transform="translate(-4.47 -10.183)" fill="#1f7762"/>
  <path id="Trazado_25454" data-name="Trazado 25454" d="M33.14,42.09h0a.68.68,0,0,0,.16.26l.1-.1Z" transform="translate(-4.47 -10.183)" fill="#1f7762"/>
  <path id="Trazado_25455" data-name="Trazado 25455" d="M33.4,42.29c-.06-.07-.16-.13-.23-.2h0C33.24,42.16,33.34,42.22,33.4,42.29Z" transform="translate(-4.47 -10.183)" fill="#1f7762"/>
  <ellipse id="Elipse_705" data-name="Elipse 705" cx="0.06" cy="0.19" rx="0.06" ry="0.19" transform="translate(21.6 38.177)" fill="#1f7762"/>
  <path id="Trazado_25456" data-name="Trazado 25456" d="M35.64,74.8a.42.42,0,0,0-.19,0,2,2,0,0,0,.16.85h.16C35.74,75.35,35.67,75.06,35.64,74.8Z" transform="translate(-4.47 -10.183)" fill="#1f7762"/>
  <path id="Trazado_25457" data-name="Trazado 25457" d="M35.51,75.65h.13a2.6,2.6,0,0,1-.16-.85,8.14,8.14,0,0,0,.03.85Z" transform="translate(-4.47 -10.183)" fill="#1f7762"/>
</svg>
