<svg id="Calavera_nachos-yucatan" xmlns="http://www.w3.org/2000/svg" width="52.7" height="76.3" viewBox="0 0 52.7 76.3">
  <path id="Trazado_25458" data-name="Trazado 25458" d="M30.89,30.81h-.03Z" transform="translate(-4.65 -6.37)" fill="#1f7762"/>
  <path id="Trazado_25459" data-name="Trazado 25459" d="M48.17,76Z" transform="translate(-4.65 -6.37)" fill="#1f7762"/>
  <path id="Trazado_25460" data-name="Trazado 25460" d="M45.31,75.1s.07-.06.1-.06l.06.06a.107.107,0,0,0,.09-.06,3.17,3.17,0,0,1-.4-.49,4,4,0,0,1,.15.55Z" transform="translate(-4.65 -6.37)" fill="#1f7762"/>
  <path id="Trazado_25461" data-name="Trazado 25461" d="M48.42,76h.09a.09.09,0,0,1,.06,0,1.27,1.27,0,0,1-.15-.21.33.33,0,0,1,0,.21Z" transform="translate(-4.65 -6.37)" fill="#1f7762"/>
  <path id="Trazado_25462" data-name="Trazado 25462" d="M36.26,57.08a.125.125,0,0,0-.1.07l-.06-.07v.13a1.59,1.59,0,0,1,.16.4Z" transform="translate(-4.65 -6.37)" fill="#1f7762"/>
  <path id="Trazado_25463" data-name="Trazado 25463" d="M36.2,64.56l-.07-.06v.12a.278.278,0,0,0,.13.19.651.651,0,0,1,.18.21,2.66,2.66,0,0,1-.18-.52Z" transform="translate(-4.65 -6.37)" fill="#1f7762"/>
  <path id="Trazado_25464" data-name="Trazado 25464" d="M51,76Z" transform="translate(-4.65 -6.37)" fill="#1f7762"/>
  <path id="Trazado_25465" data-name="Trazado 25465" d="M32.16,22.16Z" transform="translate(-4.65 -6.37)" fill="#1f7762"/>
  <path id="Trazado_25466" data-name="Trazado 25466" d="M54.12,74.58a6,6,0,0,0-.65-.5c-.34.09-.74.22-1.14.34-.1-.21-.16-.4-.25-.59a7.51,7.51,0,0,1-1.65-.12,16.08,16.08,0,0,0-3-.53H45.88c-.24.78-.87-.22-1.18.25-.65-.28-1.3.37-1.86,0a3.14,3.14,0,0,0-1.58-.28,2.82,2.82,0,0,1-.59-.18c-.31.09-.49.15-.74.24a5.69,5.69,0,0,0-.41-1.42,1.19,1.19,0,0,1-.15-1.37c.25-.46-.56-.87,0-1.27a4,4,0,0,0,.78-.06c.15-.37.28-.78.43-1.21h1.09c1.05-.71,2.35-.9,2.45-2.27a1.64,1.64,0,0,1-.28-.4c.34-.34.59-.62.87-.93,0,0,.18.12.37.28l1.67-1.4c.22.38.44.69.69,1.06H49a5,5,0,0,0,.21.62c.44-.53.9-.34,1.62-.25l-1.15.71c.25.19.46.35.68.5a3.86,3.86,0,0,0,.44-.34c.15.12.21.19.4.37.12-.43.22-.81.34-1.15,0-.06.12-.09.16-.12.27.15.52.28.83.43v.56c.62.37,1.18.68,1.59.93.4-.06.77-.09,1.08-.15.06.28.09.4.12.56.59.12,1.12.15,1.49-.44-.68-.37-.09-.9-.09-1.36h-.5c-.06.09-.15.15-.21.24l-.1-.09a2.62,2.62,0,0,0,.25-.22h0v-.78L55.55,64v-.68a9.74,9.74,0,0,0-2.7-.65h0c-.06.09-.15.15-.21.24l-.1-.09a2.62,2.62,0,0,0,.25-.22h0v-.16c-.77-.06-1.55-.09-2.33-.12l-.09.09-.09.43H49.5a3.78,3.78,0,0,1-.18-.55h-2c-.06.09-.16.15-.22.24l-.1-.05c.09-.06.15-.15.25-.22-.34-.31-.68-.62-1-.9-.12.13-.24.31-.34.31a2.82,2.82,0,0,0-1.89.62,8,8,0,0,1-.9.35A18,18,0,0,1,41.65,58a3.56,3.56,0,0,0-1-2.51c-.12-.09-.15-.34-.18-.53-.31-1.27-.59-2.51-.93-3.78s-.66-2.51-.94-3.78a3.17,3.17,0,0,0-.6-1.08c-.24-.34-.06-.71-.15-1a15.93,15.93,0,0,1-.71-2.92,13.11,13.11,0,0,0-1.52-5.24,9,9,0,0,1-.38-1.71,14,14,0,0,1,2.61.65,3,3,0,0,0,1.12.28c-.25-.18-.5-.59-.75-.56-1,.1-1.52-1.08-2.51-1l-3.6-2.85a.57.57,0,0,0,.16-.13c-.22-.52-.44-1-.66-1.58,0-.06.13-.15.19-.25a5.62,5.62,0,0,1-.37-.46c.68-.65.65-1.65,1.27-2.39a3.218,3.218,0,0,0,.3-1.72c.06-1,0-2,0-2.79l-.43-.87c-.16.1-.31.19-.47.31h0c-.06.1-.15.16-.21.25l-.1-.09c.1-.06.16-.16.25-.22h0v-.55a2.52,2.52,0,0,0-.5,0c-.09.22-.18.44-.27.62a1.16,1.16,0,0,0-.84.28.32.32,0,0,1,0,.16h0s-.16.12-.34.28a6.29,6.29,0,0,1,.22-.75v.13a2,2,0,0,0,.09-.5.84.84,0,0,0,0-.25c-.41.16-.84.31-1.27.5l.28.56c-.38.25-.72.5-1.15.77v-.65c-.22.13-.41.28-.72.47v2.05c-.21-.16-.31-.25-.46-.38-.06.44-.12.84-.19,1.21h-.21V24.7l-1.31-.25c.13.68.25,1.21.34,1.77l-.27.37c.12.37.21.68.31,1a.75.75,0,0,1,.62.93l.31.31.31.31.31.31c.46,0,.24.37.31.62h.62c-.1-.31-.22-.62-.31-.9h0c-.1-.06-.16-.16-.25-.22l.09-.09c.06.09.16.15.22.25h0c.34,0,.68-.07.65.46,0,.16.19.31.28.44h0c.09.06.15.15.25.21l-.1.1c-.06-.1-.15-.16-.21-.25h-.62c-.13.09-.25.21-.38.31-.09-.1-.15-.22-.24-.31-.47,0-.25-.37-.31-.62l-.31-.31-.31-.31-.31-.31c-.22-.1-.41-.22-.62-.31v.62a.8.8,0,0,1-.62-.93c-1.09-.41-1-1.74-1.83-2.33.49-.53.31-1.12.27-1.64a3.64,3.64,0,0,1,1.24-3.17,4.43,4.43,0,0,1,1.4-2.17l.47.47c.9-.07,1.64-.13,2.45-.22.15-.19.31-.37.49-.56a2.38,2.38,0,0,0,1.93.65h4.46a5.64,5.64,0,0,1,3.07.84c.5.28,1,.59,1.34.77.4.66.71,1.18,1,1.71-.06.09-.25.25-.22.34A24.78,24.78,0,0,1,42.43,26c-.15.47-.34,1-.53,1.52a8.36,8.36,0,0,0,3.48-.4l-.93-.22v-.15h1.11c.16.37.31.68.44,1a1.77,1.77,0,0,1-.31.31c.18.46.34.9.46,1.24l-.65.84-.59-.59L44,30c-.06-.06-.19-.15-.28-.24-.09.09-.22.18-.25.21-.31-.09-.56-.12-.77-.18v.83a13.74,13.74,0,0,0,2.23.35,13.5,13.5,0,0,0,2.17-.31,4.66,4.66,0,0,1,.59.58H49.1c-.22-.4-.4-.71-.59-1,.71-.87,0-1.67-.09-2.7-.34-.31-1-.59-1.12-1.05-.47-1.68-2.17-2-3.16-3.17a5,5,0,0,0-1.28-.93c-.62-.37-.65-1-1-1.55s-1-.71-1.11-1.39a4.73,4.73,0,0,0-.44-.87,10.4,10.4,0,0,0,1.33-1.43c.44-.43.66-1.12,1.09-1.52s1.06-.77,1.15-1.52c.84-.15,1-.87,1.3-1.64a2.14,2.14,0,0,1-2-.62A12.7,12.7,0,0,0,40.1,10a1.9,1.9,0,0,1-.37-.22,5.9,5.9,0,0,0-1.95-1.3c-1.12-.65-2.3-1.21-3.63-1.9a8.38,8.38,0,0,1-2.67-.21,5.19,5.19,0,0,0-1,.68c-1.43,1.71-3.54,2.45-5.3,3.69a9.46,9.46,0,0,1-2.95,1.46c-.28.06-.53.34-.93.59.62.43.87,1.11,1.61,1.24l.09.09c.38,1.34,1.59,2,2.21,3.32a1.36,1.36,0,0,1-.41,1.21c-.25.22-.31.68-.77.71-.37,1.34-1.65,2.05-2.17,3.17a13.06,13.06,0,0,1,.24,1.36,32.229,32.229,0,0,1,0,3.26,1.91,1.91,0,0,0,.35,1.09h0c.09.06.15.15.24.21l-.09.1a2.62,2.62,0,0,0-.22-.25h-.52c-.16.43-.31.86-.47,1.27l1.27,1.18h.47c.28.31.59.65.87,1l.56-.56a8.75,8.75,0,0,1,2.32.62c.75.5,1.52.81,2.24,1.24a2,2,0,0,0,.09.37l2,.5c.53.53,1,1.06,1.56,1.55.15.16.43.19.62.34a3.08,3.08,0,0,1,.65.65,10.9,10.9,0,0,1,1.55,4.28,2.64,2.64,0,0,0,.68,1.65c-.28,1,.62,1.86.22,2.82-2,.34-4.1.28-6,.75l-.37.46-.09.12-.31.32v.93c.4-.38.8-.78,1.27-1.21l.28.09a1.24,1.24,0,0,1-.1.43c-.18.28-.55.47-.8.9a.92.92,0,0,0,0,.41h.74a2.36,2.36,0,0,0,.4-.69s-.06-.06-.06-.09l.72-.46v.58a3.61,3.61,0,0,1-.62,0h0v.68c1.14-.28,1.3-1.4,2.08-1.8a1,1,0,0,0,.09.31c0,.09.12.12.25.28l.86-.65c.07,0,.22-.07.35,0,.4.12,1,.12,1.21.4.4.47,1.24.47,1.39,1.27a4.79,4.79,0,0,1-.65.31c.09.37.19.72.31,1.09h0c.25-.1.5-.22,1-.47a3.09,3.09,0,0,1-.71,1v1l.5.18c.37.59-.22,1-.31,1.46a1.45,1.45,0,0,0-1.65-.16,1.37,1.37,0,0,1-1,0,2.37,2.37,0,0,0-2.39.24c-.47-.28-.87-.52-1.21-.74v-.81l1.18.31v-.68l-.31-.31c-.34-.12-.71-.28-1.06-.4-.34.74-.83,1.36-.18,2.11-.75,1-1.8.15-2.76.59a6.27,6.27,0,0,0,0-.75l-.47.28c-.84-.53-1.83-.22-2.64-.31L24.32,51c.43-.15.83-.27,1.36-.46a8.679,8.679,0,0,1,.71.65c0-.15.13-.34.1-.43-.19-.41-.41-.75-.62-1.12-.1-.12-.22-.25-.31-.37a3.76,3.76,0,0,1,.31-.25v-.47c-.22-.12-.44-.21-.81-.43l.81-.68V46a3.9,3.9,0,0,1-.56-.16c.53-.86.22-1.83.25-2.76a10.31,10.31,0,0,1,.59-2.73c-.41-1.39-1-2.66-.35-3.94-.12-.55-.24-1-.37-1.51l-1.8-2.21H22.58c-.19.65-.34,1.24-.62,2.17-.13-.77-.19-1.17-.25-1.58h-.22v1.83c.19-.09.38-.15.53-.21a14.34,14.34,0,0,0-.19,1.92,2.79,2.79,0,0,1-.46,1.36c0,.1-.31.1-.47.13s-.09.18-.15.28c.28.12.56.28.65.31-.09.71-.16,1.24-.19,1.76a11.51,11.51,0,0,1,0,1.56,10.61,10.61,0,0,1-.49,1.33,1.86,1.86,0,0,0,.21,1.8c-.12.25-.37.53-.31.68.31.65-.09,1.27,0,1.92a17.608,17.608,0,0,1,0,2.18c0,.31.13.71,0,.89-.53.72,0,1.59-.34,2.18-.43.77-.15,1.48-.25,2.23s.41,1.3.34,2.05-.28,1.42.28,2a4.11,4.11,0,0,0-.28,1.34,5,5,0,0,0,.34,1.67c-.52-.21-.8-.37-1.08-.49a4.229,4.229,0,0,1-.5.37c-.25-.13-.43-.19-.65-.31v.62c-.9.9-1.77-.62-2.57.22-.28-.25-.59-.5-.81-.69V60.12a14.91,14.91,0,0,0,0-2c-.09-.59.87-1.18,0-1.74a4.62,4.62,0,0,0,.34-.47c0-.06-.06-.09-.09-.15a4.044,4.044,0,0,0-.25-.37h0l.59-.59c-1.06-.59.49-1.52-.28-2.17.25-.53.12-1.15.5-1.74.09.37.15.65.21,1,0-1.18.75-2.23.53-3.41,0-.16-.06-.37,0-.44.47-.37.19-.86.28-1.27a7.44,7.44,0,0,0,.28-1.42A15.16,15.16,0,0,1,18,41c.06-.25-.44-.44,0-.69.28-.15-.22-.74.37-.83-.09-.16-.19-.31-.28-.5.56-.43.09-1.09.34-1.55a7.15,7.15,0,0,0,.57-3.3,4.88,4.88,0,0,1,1.06-2.61L21.24,31a4.869,4.869,0,0,1-.18-.47c-.87.47-1.74.9-2.58,1.3a7.8,7.8,0,0,0-.37,1,23.3,23.3,0,0,0-.65,5.46,4.9,4.9,0,0,1-.19,1c0,.34-.55.49-.21,1,.12.15-.13.59-.22.9a9.455,9.455,0,0,0-.31,1.12c-.12.71-.22,1.45-.31,2.2a8,8,0,0,1-.34,2.17c-.25.59-.06,1.24-.31,1.74-.75,1.52-.53,3.16-.84,4.74a13.89,13.89,0,0,0-.4,3.41,5.93,5.93,0,0,1-.59,1.93c.09.18.22.4.34.62l-.28.43a32.44,32.44,0,0,0,1,5.12h2.73c.65,1.3,1.31,2.51,1.15,3.72.4.62.68,1.09,1,1.55-.62.84-1.21,1.62-2,2.64v.43c-.56-.46-1,0-1.21.22-.81.84-2,1.3-2.51,2.48-.1.19-.16.34-.31.68-.25-.77-.38-1.17-.53-1.58.31-.71.31-.71.15-1.83-1.08.13-.55,1.24-1.14,1.65.18.18.28.31.37.4-.09.12-.22.22-.31.34.09.34.18.68.31,1.06H10.88c-1.27.46-2.23.83-3,1.11-.53-.09-.84-.15-1.37-.22.19,1,.34,1.74.53,2.77.15-.44.22-.62.25-.75l4.56-.93.09.09c.56-.21,1.09-.43,1.55-.62.25.41.44.72.53.84a20.382,20.382,0,0,1,2.11.56,2,2,0,0,1,1.42,1.43c.81.06,1.4-.69,2.24-.07.53.41,1.49-.18,2.14.35.8-.56,1.67-.13,2.51-.28L27,80.25l.5-.49c.4,0,.77-.1,1.18-.13.22-.59.4-1.11.56-1.64l-.84-.4-.31.24c-.16-.27-.25-.55-.37-.8a2.76,2.76,0,0,0,.52-1.68,11.56,11.56,0,0,0-2.6.56c-1-.46-2.08-.93-3.1-1.36-.19-.81-.38-1.52-.59-2.39l-.5-.28.34-.34c-.09-.1-.18-.22-.25-.31.9-1.52.9-1.52,1.68-2,.12.09.22.22.31.28a5.66,5.66,0,0,1,1.15-.28,5.52,5.52,0,0,0,3.94-1.64c1,.12,2.17.28,3.07.37a11.21,11.21,0,0,0,1,.74c-.4.28-.78.53-1.18.84H30.27c-.12.19-.28.4-.4.62l.9.19.9.18c.06.35.09.59.15.9.25-.21.37-.34.53-.46-.12-.13-.22-.22-.5-.56l1.06.34c.18-.09,0-.65.56-.65.18,0,.4-.59.59-.9.4.19.71.31,1.17.5.19,1.3.38,2.7.59,4.12a2.52,2.52,0,0,0-.43.09l-.84,1.68a5.13,5.13,0,0,0,1,2.54c.44.1,1.06,0,1.15.53s.59.62.93.75a26.66,26.66,0,0,1,3,.93c.37.18.93-.1,1.49-.19a.985.985,0,0,0,1.3,0A5.42,5.42,0,0,0,47.05,80c.56.28.9.43,1.24.28,1.12-.5,2.3-.19,3.51-.35.53-.8,1.11-1.64,1.61-2.41a7.836,7.836,0,0,0,1.18-.07c-.47-.37-.68-.56-.9-.74C54.59,76.16,53.57,75.29,54.12,74.58Zm1.49-8.41h.31v.09h-.31ZM54.5,63.29h.09v.31H54.5Zm-.44,1.64h.31V65h-.31Zm-.43-.37h0l.09.09c-.09.06-.15.16-.25.22a.641.641,0,0,0-.21.25l-.1-.1c.1-.06.16-.15.25-.21a2.319,2.319,0,0,0,.22-.25ZM53,64.22h0v.31h0ZM49,63l.09.09c-.09.06-.16.16-.25.22a.9.9,0,0,0-.22.25l-.09-.1c.09-.06.16-.15.25-.21A2.621,2.621,0,0,1,49,63Zm-4.1,0H45v.31h-.09ZM31.64,22.75h.09v.31h-.09ZM27.08,28c-.07-.06-.1-.13-.16-.19a.51.51,0,0,0-.15.06c-.07-.28-.16-.52-.22-.8l-.22.21V26.22c.13,0,.25.06.25.09.12.44.22.9.34,1.37a2.619,2.619,0,0,1,.25.22.16.16,0,0,0-.09.1Zm.34-1.21h-.1v-.31h.1Zm.28.62h-.1V27.1h.1Zm.43-3.2v-.09h.31v.09Zm.62,4.35h-.31v-.1h.31Zm19.51,1.21c-.22.12-.4.21-.77.43l-.93-.4c.21-.56.4-1,.58-1.46.94.05.56.95,1.12,1.42Zm-1.92-2.89h.31V27h-.31Zm-2.14-.93h.62v.16H44.2Zm0,.93V27h-.62v-.16ZM44.14,25c-.28.34-.38.46-.53.43a.4.4,0,0,1,0,.19c-.06.09-.16.15-.22.25l-.09-.1c.06,0,.09-.09.15-.12A3.54,3.54,0,0,0,43.2,25ZM25.56,19.05h-.1v-.31h.1ZM28,17.5h-.16v-.62H28Zm-.13-.93v-.31H28v.31Zm.16-1.39c-.25-.44-.4-.68-.56-1l.56-.09Zm.74,1.42v-.27h.81a.27.27,0,0,0,0,.15c-.21.03-.49.06-.77.12Zm.9.84v-.15a3.069,3.069,0,0,0,.5-.13v.28Zm1.71-1.52c-.28-.37-.5-.68-.75-1.05.31-.16.66-.31,1.06-.5.19.63.31,1.15-.27,1.55Zm.4.44v.09h-.31v-.09Zm-1,0a.27.27,0,0,0,0,.15,7.537,7.537,0,0,0-.81.12v-.27Zm-.53,1a11,11,0,0,0,1.15-.25,5,5,0,0,0,.74-.34c-.35.89-.91.76-1.84.58Zm2.36.77h-.09v-.31h.09ZM33,17.5h-.09v-.31H33Zm.62,0H33.5v-.31h.09Zm.62,0h-.15v-.62h.15Zm1.64-.09h-.62v-.15h.62Zm.44-1.08a7.44,7.44,0,0,0,.31-.72l.43.9H35.58v-.22a4.35,4.35,0,0,0,.71.04Zm-.44-1.06v-.15h.62v.15Zm1-.56V14.4H37v.31Zm1.18,2.86a4.148,4.148,0,0,1-.13.8,4.5,4.5,0,0,0-.65-.25c-.22-.06-.53.1-.53-.31-.21-.15-.4-.31-.83-.62h.8c.06-.09.16-.15.22-.25L37,17c-.09.06-.15.15-.25.21h0v.62h.78c.34-.18.09-.62.15-.93a.154.154,0,0,1,.07-.15.38.38,0,0,1,.24-.16h0a2.62,2.62,0,0,0,.22-.25l.09.1c-.09.06-.15.15-.24.21h0v.5a2,2,0,0,1,.37.12,1.38,1.38,0,0,1,.28.19Zm-.34-2.3H37.1v-.15h.62Zm.27.47v.09h-.31v-.09Zm1.15,2.38h-.09v-.31h.09Zm.06-1.95-.09.09c-.15-.21-.31-.46-.46-.71a2.87,2.87,0,0,1,.09-.28l.15.16c.19.21.5.37.31.74Zm.44-.81a1.59,1.59,0,0,1,2-.46c-.85.18-1.44.34-2,.46Zm0-1v-.31h.09v.31Zm1.21-2.48H41v.31h-.09Zm-1.64-.74h-.1c-.03,0,.1,0,.13.06.31.34.59.59.86.9h-.86v-.75L39,11.24a.44.44,0,0,1-.19,0,3.66,3.66,0,0,0-.31-.34Zm-1.43-.78h.09v.31h-.09ZM38.27,12a.3.3,0,0,0,0,.16,3.25,3.25,0,0,0-.52.12V12Zm-1.17-.56h.31v.1H37.1Zm-.94-1.55h.31V10h-.31Zm.31,1.49v.22a7.453,7.453,0,0,0-1.14.06,3.77,3.77,0,0,0-.16-.62,3.51,3.51,0,0,0,.62.31,5,5,0,0,0,.68.01Zm-1.24-.77v-.1h.31v.1ZM35,8.23c.28.34.5.62.69.84H35ZM34.71,11h.09v.31h-.09Zm-.9-1.8c.06.09.15.16.21.25h0a1.81,1.81,0,0,0,.34.28,2.62,2.62,0,0,1,.25.22l-.09.09c-.06-.09-.16-.16-.22-.25h0A1.34,1.34,0,0,0,34,9.5c-.09-.06-.15-.15-.25-.22Zm-1,.59h.09v.31h-.09Zm0,.62h.09v.31h-.09Zm-.35,1h1.18v.16c-.31.06-.62.12-.87.15a4.14,4.14,0,0,0-.18.53h-.16a6.791,6.791,0,0,0,.07-.86Zm.87.65v.1h-.31V12ZM31.6,10.7h.09V11H31.6Zm-1.56,0h.1V11h-.1Zm.19.5v1.11c-.43-.15-.81-.31-1.27-.49.44-.21.78-.4,1.31-.64Zm-1.83-.44h.9a.67.67,0,0,0,0,.22,4.632,4.632,0,0,0-.9.12,2.62,2.62,0,0,1-.22.25l-.09-.09a1.64,1.64,0,0,0,.25-.22.8.8,0,0,1,.1-.3Zm-.62-.56h.31v.1h-.31ZM27,11.61h.1v.31H27Zm-1.92,1.64a7.43,7.43,0,0,0,.81-.09c.8-.12,1.7.28,2.48-.25.4.31,1-.24,1.33.25h2.9c.12,0,.21-.18.34-.28a2.56,2.56,0,0,0,.34.31c.59-.12,1.15-.71,1.77-.09a.53.53,0,0,0,.43.06c2.05-.65,4.13-.15,6.17-.31h.63c.15.28.31.5.49.84-.71-.16-1.3-.53-1.83.06-.59-.65-1.18-.22-1.77,0-.15-.09-.31-.22-.52-.34a2.86,2.86,0,0,0-.41.19,9.21,9.21,0,0,0-1.14-.16,1.71,1.71,0,0,0-1.28.31c-.31-.68-.87-.22-1.33-.28a7.21,7.21,0,0,0-1.4,0H30.36c2.24.5,3.57.78,4.32,1a1.168,1.168,0,0,1,.43.06h.09a.735.735,0,0,1,.38.07v-1l.52,1.09a3.2,3.2,0,0,1-.52,0v-.06a1.75,1.75,0,0,0-.38-.09v.06h-.31v-.1H35a.461.461,0,0,1-.28-.06H34.5v.31h-.1v-.31h.09c-4.19-.65-4.25-.5-4.34-.34a3.15,3.15,0,0,1-.5,0c.12-.19.19-.34.34-.59-.56.09-1-.19-1.36.22-1.18-.48-2.42-.07-3.57-.48ZM23.6,21.54h.1v.31h-.1ZM22.92,24v-.53h.15a2.96,2.96,0,0,0,.13.49q-.141.013-.28.04Zm2.3,5.27h0c-.07-.09-.16-.16-.22-.25a2.62,2.62,0,0,1-.25-.22l.09-.09c.06.09.16.16.22.25a1.067,1.067,0,0,0,.25.22Zm1.14,0h.16v.62h-.16ZM26,30.53c-.06.09-.15.16-.22.25l-.09-.09c.09-.07.16-.16.25-.22h0v-.31a1.54,1.54,0,0,0-.34-.28c-.09-.06-.16-.15-.25-.22l.09-.09c.07.09.16.16.22.25h0l.31.31a.75.75,0,0,1,.25.22L26,30.5Zm1,.31h-.37c-.06.09-.15.16-.22.25L26.33,31c.09-.07.16-.16.25-.22h0a1.57,1.57,0,0,1,.22-.25.47.47,0,0,1,.06.19.107.107,0,0,0,.09-.06l1,.62C27.29,31.52,27.11,31.24,27,30.84Zm1.74.16h-.31v-.1h.31ZM31,28.64h.09V29H31ZM30.08,24h.1v.31h-.1Zm0,3.41h.1v.31h-.1ZM29.46,29h.1v.31h-.1Zm-.09-1.33h-.31v-.1h.31Zm.4,2.6-.37-.56.59-.18V28.39a1.74,1.74,0,0,1,.28,1.37,6.257,6.257,0,0,0-.5.46Zm.5-5.52h.62v.16h-.62Zm.81,6.39a1.64,1.64,0,0,0-.22-.25h-.22a1.975,1.975,0,0,0-.06-.59h.19a3.729,3.729,0,0,0,.12.56h0c.09.06.16.15.25.22a.16.16,0,0,1-.06.01Zm1.05,1.46h-.31v-.1h.31Zm-15.54,31H16.5v-.31h.09Zm2.33.87v-.53a.27.27,0,0,0,.15,0,3.3,3.3,0,0,0,.13.52.78.78,0,0,1-.28.01ZM19.69,63H19.6v-.31h.09Zm10.61-.5a2.78,2.78,0,0,1,.1,1.15l-.19-.56-.19.12v-2a.61.61,0,0,0,.25,0,10.06,10.06,0,0,0,.03,1.27Zm0-7v-.15h.62v.15ZM27,54.32h.1v.31H27Zm-.71-.87a1.21,1.21,0,0,1,.06.31c-.25.19-.46.41-.87.72-.09-.44-.12-.72-.18-1.06.35.03.7.03.97.03Zm-.37,4v2.66a4.55,4.55,0,0,1-.02-2.62Zm-.16-1v-.31h.1v.31Zm0-1a3.64,3.64,0,0,0-.12-.53h.28v.53a.513.513,0,0,1-.18.08Zm-1.21-3.07h.1v.31h-.1Zm0,1.58c.06.1.16.16.22.25a.764.764,0,0,0,.25.22l-.1.09h0c-.06-.09-.15-.15-.21-.25a.721.721,0,0,0-.25-.21Zm.45,2.5h-.5V55.25a.86.86,0,0,1,.5,1.21Zm-1.43-7.13-.5.28-.86-1c.83.28,1.95,0,2.32,1.49-.46-.34-.71-.55-.99-.77Zm-.15.65v.31h-.1V50Zm0,8.06.1.1c-.1.06-.16.15-.25.21a.881.881,0,0,0-.22.25l-.09-.09c.09-.06.15-.16.25-.22a.74.74,0,0,0,.14-.29Zm-.12-3.16v-.53h.16a3.026,3.026,0,0,0,.12.5.48.48,0,0,1-.35.03Zm-.06,1.49h-.31v-.09h.31Zm-.41-6.08v.31h-.09v-.31Zm-.4,1.24v-.31h.09v.31ZM22.45,54v.31h-.09V54Zm.44-6.08a3.64,3.64,0,0,0,.53-.12.92.92,0,0,0,0,.28h-.53c.03-.08.03-.08,0-.15Zm1.21-.21v-.1h.31v.1Zm.9-8.15h.31v.09H25ZM25,50.1h.31v.1H25Zm-.19-1.05h.1v.31h-.1Zm-.12-1.95h-.31V47h.31Zm-.19-9.5h.1v.31h-.1Zm-.12,8.56H24.1v-.09h.31Zm0-5.73a10.385,10.385,0,0,1-.47,1c-.06-.4-.12-.65-.18-1Zm-1.55-.28v.52h-.16a2.8,2.8,0,0,0-.12-.5A.46.46,0,0,1,22.83,40.15Zm.34,1.55v.15h-.62V41.7Zm-.65,2.76V45h-.16a3.026,3.026,0,0,0-.12-.5c-.03-.16.18-.01.28-.04Zm.59,1.39c.18-.31.34-.58.65-1.08V46a3.235,3.235,0,0,0-.69.06,1.14,1.14,0,0,1-.12.34c-.09.19-.31.31-.77.12ZM21.9,53.33h-.53v-.16l.49-.12A.72.72,0,0,1,21.9,53.33Zm-.38,8.1v.31h-.09v-.31Zm-.18-11.64h.31v.1h-.31Zm-.22,1.74h.09v.31h-.09Zm-.31,2.17h.09V54h-.09Zm-.25,11.23a7.1,7.1,0,0,1,0,2.95c-.09-.47-.18-.9-.28-1.37a13.1,13.1,0,0,1,.28-1.58Zm-.37,5.18h.09v.31h-.09ZM21,72v1.43l-.16.06a2.881,2.881,0,0,0-.12-.4,3.021,3.021,0,0,0-.06-.47H20.1V73.8h-.22c-.06-.28-.12-.56-.22-.9-.12.1-.25.19-.37.31a2.41,2.41,0,0,1-.12-.34C19.76,72.56,20.07,71.79,21,72Zm-4.31,1.93H17V74h-.31Zm-1,3.41s-.25-.13-.65-.31c.37-.06.59-.13.87-.16.09-.18.22-.4.37-.65a.107.107,0,0,0,.09-.06V76.1l.53-.19a.43.43,0,0,0-.09-.31.47.47,0,0,0-.31-.22.11.11,0,0,1-.09,0,2,2,0,0,1-.62-.12c.31-.56.8-.56,1.33-.56.19-.28.4-.59.59-.9l.37.34.19-.59h1.11a6.269,6.269,0,0,0,.07,1.06l-.9.62L18,74.92c-.1.37-.16.68-.25,1a2.45,2.45,0,0,1-.37-.34c-.06.19-.13.34-.19.59h-.84l.1.31a3.88,3.88,0,0,1-.76.86Zm3.48-1.27v.09h-.31v-.09Zm-1,.21v.31h-.09v-.31Zm2.14,2.8h-.09v-.32h.09Zm3.45.52-.66-.21a2.31,2.31,0,0,1-.8-.25h1.92Zm2.45-.84h-.1v-.31h.1Zm-.44-2.17h.1v.31h-.1Zm0,.59c.16.13.25.22.37.31s.1,0,.1-.09.12-.34.21-.65c.28.71.5,1.3.72,1.92-.59.31-.47-.28-.68-.46a6.81,6.81,0,0,0-.84-.56,2.15,2.15,0,0,0,.09-.47ZM25.62,79c-.37,0-.75.07-1.15.07V78.8h1.12a.59.59,0,0,1,.03.2Zm-2-3.41c.5.56,1,1.15,1.43,1.68l-.31.52h0A2.619,2.619,0,0,0,25,78l-.1.09h0c-.06-.09-.15-.15-.21-.24h-.5c-.06.16-.12.35-.18.56h-.75a4.691,4.691,0,0,1-.19-.52c-.12,0-.31-.1-.4,0a18.77,18.77,0,0,1-3.16.87,1.44,1.44,0,0,1-1.43-.21,5.38,5.38,0,0,0-1.39-.5,3.6,3.6,0,0,1,.12-.62c.28.19.5.28.71.43a3.669,3.669,0,0,1,.13-.46c.52-.31,1.05-.78,1.73-.22.07-.22.13-.37.28-.81.06.53.13.81.16,1.06.25.12.49.25.84.4l.31-.59a5.209,5.209,0,0,1,.34-.59h0c-.1-.06-.16-.15-.25-.21l.09-.1c.06.1.16.16.22.25h0c.68-.31,1.39-.65,2.23-.99ZM20,76.69c.25-.07.41-.07.59-.13a4.789,4.789,0,0,0,.19.87C20.41,77.06,20.25,76.9,20,76.69Zm1.68-1.34c-.25,0-.5,0-.59-.12a2,2,0,0,1-.28-.5,3.24,3.24,0,0,0-.12.37,1,1,0,0,1-.19.63c-.06-.53-.5-.87-.43-1.34a.93.93,0,0,1,.12-.34,7.158,7.158,0,0,0,.37.65,1,1,0,0,0,.16-.22l.4-.15a9,9,0,0,0,.56,1.02Zm0-6.45h0a.27.27,0,0,0-.13.13.69.69,0,0,1,.07.24,3.953,3.953,0,0,0-.34.31c.09-.37.15-.55.21-.74v.09a.273.273,0,0,1,.07-.12,1.322,1.322,0,0,0,.21-.25l.1.09c-.04.1-.13.16-.19.25Zm-.31-.71v-2A2.48,2.48,0,0,1,21.37,68.19Zm.77-2.73h-.09v-.31h.09Zm.25-2.17v-.07c0-.07-.06.16-.09.25-.37.16-.75.31-1.24.5.18-.62.56-.68.93-.59.09-.09.22-.25.34-.4s0-.1,0-.13.12-.09.34-.31c-.15.37-.22.56-.28.75Zm.22-10.77h.15a3.069,3.069,0,0,0,.13.5h-.28Zm.15,2.42v.31h-.09v-.31Zm-.09,8.87c.22.44.4.78.59,1.21-.62-.28-.62-.28-.59-1.21Zm1-3.66a.8.8,0,0,1-.15-.18h-.06l-.56-.56c.12-.19.28-.34.56-.68v1.08h.09c.09.07.16.16.25.22a.2.2,0,0,0-.14.12Zm.13-3.47h-.31v-.09h.31Zm0-4h-.62v-.16h.62Zm.2,2.88h-.1v-.31H24Zm.55,12.66c-.12-.13-.28-.25-.34-.34.25-.28.47-.56.72-.84.29.5.07.87-.37,1.18Zm-.21-5,.49-.49c.25.09.28,1.12,0,3.35-.06-.5-.12-1-.22-1.46a13.451,13.451,0,0,0-.26-1.4ZM25.8,68c-.15-.25-.27-.43-.4-.62C25.8,67.26,26.15,67.23,25.8,68Zm-.37-1.49c.1-.74.19-1.52.31-2.26h.16v2.67l-.13.12c0-.25-.09-.5-.12-.78a1.13,1.13,0,0,1-.22.28Zm1.37-.15h-.1v-.31h.1Zm0-1.61h-.16a3.026,3.026,0,0,0-.12-.5h.28Zm-1.15-.93V61.21l-.56-.16c-.06.47-.09.87-.12,1.18a5.39,5.39,0,0,1-.68-.43c.15-.22.27-.37.4-.56-.4-.31-.37-.62,0-.93l-.65-.65c.25-.16.49-.31.77-.47-.18-.31-.28-.52-.43-.84.12-.24.28-.58.46-1,.07.07.19.13.19.19v3.23l.81-.28a4.59,4.59,0,0,0,.28.52c-.1.75-.16,1.37-.22,2.08.37.06.68.13,1.18.25a9.477,9.477,0,0,1-1.4.51Zm1-.87v-.62h.16V63ZM27.11,58H27v-.31h.1Zm-.5-2.2v-.18a1.61,1.61,0,0,1,.37-.07v-.12a7.07,7.07,0,0,0,.81-.28,8.086,8.086,0,0,1,.12-.84h.19c0,.47.06.93.09,1.43-.25-.06-.49-.15-.84-.25a2.3,2.3,0,0,0-.09.25,4.79,4.79,0,0,1-.65.1ZM28,65.46h-.1v-.31H28ZM27.88,58v-.52a.61.61,0,0,0,.16-.13,4.29,4.29,0,0,0,.31.65Zm.56-1.61h-.62v-.15h.62Zm.19,5h-.1v-.31h.1Zm-.06-5.59-.1-.09c.1-.06.16-.16.25-.22h0V55H28.5a2.008,2.008,0,0,0-.06-.59h.19a3.855,3.855,0,0,0,.12.59h0c.09.13.22.25.31.38l-.28.21v.06a2.7,2.7,0,0,0-.21.19Zm.8,7.07h-.62v-.15h.62Zm0-4.37h-.31v-.09h.31Zm.19,7.54h-.1v-.31h.1Zm0-11.14h-.1v-.31h.1Zm1.24-1.8c-.47.22-.75.38-1.06.53a5.512,5.512,0,0,0-.12-.62ZM30,55.66v.09h-.31v-.09Zm-.34.59h.5c-.07.15-.19.37-.38.77-.07-.43-.1-.56-.13-.77Zm.25,1.58c.31-.06.31-.06.28.74a4.59,4.59,0,0,1-.1,2.2,10.419,10.419,0,0,0-.31-1.05c.1-.31.22-.65.38-1.18-.16-.4-.23-.62-.26-.71Zm.28,8.5h-.1C30,65.55,30,64.78,29.93,64a.322.322,0,0,0,.22-.06c.15.28.28.59.37.77-.09.59-.22,1.12-.34,1.62Zm1.24.37h-.09v-.31h.09Zm-.16-1v-.53h.16c.06,0,.09.34.12.49a.41.41,0,0,1-.29.05Zm.25-3.38a7.81,7.81,0,0,1-.28.86l.19.1v1.45a.38.38,0,0,1-.13.16c-.06-.22-.15-.47-.21-.68-.1.06-.22.09-.31.15.12-.34.28-.71.4-1.05h0c-.09-.13-.31-.28-.28-.41.06-.37.25-.74.28-1.08s-.25-.62-.28-.93a10.439,10.439,0,0,1,0-1.37,5.68,5.68,0,0,0-.28-2.48c-.09-.15-.12-.53.28-.53h0c.06-.09.16-.15.22-.24h0l.09.09c-.09.06-.15.15-.25.22h0c.09.41.25.84.31,1.25a10.737,10.737,0,0,1,0,1.39,7.47,7.47,0,0,0,.19,1s-.13.22-.31.47l.62.28a12.691,12.691,0,0,1-.26,1.36Zm.9-7.33v1.74A1.94,1.94,0,0,1,32.41,55Zm-.06,2.42v.31h-.09v-.31Zm.09,3.29h-.31v-.09h.31Zm-.4,9.4H32v-.3h0ZM48.6,74.42h.16V75H48.6ZM39.24,62.54a6.65,6.65,0,0,0-.31-1.7,2.3,2.3,0,0,1-.16-1.74c.12.28.22.46.28.65,0,0,.06-.06.06-.09.28,1.36.56,2.73.87,4.31a1.82,1.82,0,0,1-.74-1.43ZM39,62.17c-.22.22-.38.37-.59.62-.13-.34-.22-.65-.31-.93A4.42,4.42,0,0,0,39,62.17Zm2.73.71h-.31v-.09h.31Zm-.59-2,.62-.1a1.78,1.78,0,0,1-.22.41l.19-.1c.09.07.15.16.24.22l-.09.09-.09-.09a2.77,2.77,0,0,0-.68.71c.02-.59.02-.84.02-1.15Zm-.84-4.07h.09v.31H40.3Zm0,1.55a1,1,0,0,0,.22.25h.21a1.678,1.678,0,0,0,.07.59h-.19a3.61,3.61,0,0,0-.12-.55h0c-.1-.07-.16-.16-.25-.22a.3.3,0,0,1,.05-.08ZM40,59.94a2,2,0,0,0,.13.65,3.63,3.63,0,0,0,.49.59c-.06.34-.15.65-.21,1,0,0,.06.06.09.06l.56.56c-.13.19-.28.34-.56.68v-1h-.13A2.5,2.5,0,0,1,40,60.53v-.25h0Zm-.9-4.69c-.21,1.4.78,2.58.53,4.07-.09-.19-.19-.34-.37-.75.13-.9-.71-2.08-.12-3.32ZM39,58.54c-.31.19-.56.31-1.06.62.19-.68.31-1.15.47-1.64l-1.12-.16c.5-.25.87-.4,1.21-.59C38.89,57.3,38.3,58,39,58.54Zm-1.15,4.84-.4-.62c.42-.16.73-.19.39.62Zm-.43-5.15v-.09h.31v.09Zm-.22-1.8c.53-.28.77-.4,1.05-.56a4.511,4.511,0,0,0,.1.56Zm.56-1.77h.52v.87h-.52ZM36.6,53a.56.56,0,0,1-.06.81.86.86,0,0,0-.13.34,1.91,1.91,0,0,0,.34-.28v-.19a.69.69,0,0,0,.25,0,2.67,2.67,0,0,0,.16.53,2.23,2.23,0,0,0,.28.34,2.625,2.625,0,0,0-.56.15,1.191,1.191,0,0,0-.07-.49,5.71,5.71,0,0,0-.43.49l-.5-.49C36.1,53.83,36.35,53.45,36.6,53Zm-.13,2.76H36.2v-.53h.15c.03.21.09.4.12.55Zm-1-1.27c.19.34-.09.4-.65.22a3.78,3.78,0,0,0,.69-.2Zm0,.77v.81h-.15a5.08,5.08,0,0,0-.13-.81.34.34,0,0,0,.29.02Zm-.8-2.66c.27.4.46.65.71,1-.31.06-.47.09-.71.12Zm-1.34,7.22c.34-.31.59-.59.9-.86v.86h-.77l-.07.07c-.06.09-.15.15-.21.24l-.1-.09a1,1,0,0,0,.25-.22Zm-.18-3.32a6.643,6.643,0,0,0,.93-.06c-.19.5-.34.84-.56,1.37-.15-.51-.24-.81-.36-1.29Zm.8,3.63a5.46,5.46,0,0,0,.56.38c-.5.24-.77.4-1.09.55-.23-.5.2-.66.58-.91Zm.34-3.47v-.09h.31v.09Zm-.83-1c-.07-.31-.1-.5-.13-.72h1.12a7.8,7.8,0,0,1-.98.75Zm-.69-2.21c.81-.4,1.06.35,1.52.66l-.46.46c-.09-.22-.19-.43-.28-.62H32.8a3.35,3.35,0,0,1-.02-.47Zm0,.94h.28v.53H32.9a3.92,3.92,0,0,1-.15-.5Zm.53,14.76h-.09v-.31h.09Zm.09-5.06h-.31V64h.31Zm-.43-1.92a6.622,6.622,0,0,1,.74-.28h0l.16.16.31-.28.34.34c-.12.22-.25.43-.37.62a11,11,0,0,0-1.2-.53ZM34,65.05h-.31V65H34Zm.22.72h-.09v-.31h.09Zm.09-1c-.4-1.21-.4-1.21.5-2a3.91,3.91,0,0,0-.47,1,4.77,4.77,0,0,0-.04,1.04Zm.81,1.64a.82.82,0,0,1-.16-.34.72.72,0,0,1,0-.25V65.3a.72.72,0,0,0-.31-.59.72.72,0,0,0,.31-.55,8.8,8.8,0,0,0,0-1V61.27c.34.34.5.53.65.68-.78,1.43-.1,2.98-.5,4.5Zm.12-6.67v-.09h.31v.09Zm-.68-2c.37-.41.62-.66.9-1a.73.73,0,0,1,.65.41v-.13c.06-.09.16-.15.22-.25l.09.1c-.06.06-.12.09-.18.15v.53a2.65,2.65,0,0,1,.06.87c-.28-.4-.47-.71-.59-.9-.32.09-.66.15-1.16.25Zm1.74,1.55c-.06-.25-.16-.47-.19-.62h.34v.52Zm.06.55v.31h-.09v-.31Zm-.46,5.68c0-.4-.1-.71,0-.93s.18-.15.24,0a.23.23,0,0,0,0-.12c.07-.1.16-.16.22-.25l.09.09c-.06,0-.09.09-.15.12a1.52,1.52,0,0,0,.18.53,5.179,5.179,0,0,1-.59.59Zm-.13-2.82a1.593,1.593,0,0,0,.62-.06c-.09-.44-.22-.9-.37-1.62.37.19.53.31.71.38a4.261,4.261,0,0,0,.62,0c-.56,1-.06,2.1-.43,3.38-.09-.56-.13-.84-.13-.9-.41-.41-.69-.75-1.03-1.15Zm1.58,8v.53a.27.27,0,0,0-.15,0,2.56,2.56,0,0,0-.13-.53c.09.09.18.06.27.06Zm-.37-1v.31h-.09V69.8Zm.44,8.56H37.1v-.09h.31Zm1.61.09v-.27h.52v.15a4.8,4.8,0,0,1-.55.22Zm1.36.31H40.3v-.31h.09Zm3.38,0h-.09v-.31h.09Zm.53.87c-.06-.43-.09-.59-.12-.77h.49a7.291,7.291,0,0,0-.38.87Zm.84-3.07a6.72,6.72,0,0,0,0,.78l-.5.49-.18-.52a7.908,7.908,0,0,0-4.19-.69,4,4,0,0,1-.19.53.66.66,0,0,1-.15-.09.87.87,0,0,1-.37-1c-.25-.13-.53-.25-.81-.41-.06.07-.19.16-.28.25-.09-.09-.22-.18-.31-.28-.16.13-.31.22-.5.38l-.59-.53V73.15h-.24a1.706,1.706,0,0,0-.07-.59h.19a4.115,4.115,0,0,0,.12.59h.53a4.35,4.35,0,0,1-.25-.71c0-.25,0-.5,0-1.06.31.68.5,1.09.69,1.49l.24-.06v-.87c-.43,0-.28-.34-.31-.59a.58.58,0,0,0-.24,0v-.9a.61.61,0,0,0,.22,0,6.287,6.287,0,0,0,.13.9h0c.47,0,.25.37.31.62.59.5.78,1.36,1.56,1.7.06,0,0,.28,0,.44h.71l.84.93h0l1.27-.65c.12.46.25.93.37,1.43.22.18.47.43.81.74h.52c.25-.31.53-.65,1-1.21a6,6,0,0,0-.34,1.21Zm.68,1.58v-2c.31.62.53,1.05.78,1.58a7.4,7.4,0,0,0-.79.52Zm1.74.56-.47.1c-.25-.41-.25-.66.47-.66Zm-.47-2c-.09-.44-.15-.75-.21-1.12l-.75.34c0-.37-.25-.62-.56-.93a.107.107,0,0,0-.09.06c-.03.06-.16.16-.22.25h0l-.09-.09c.06,0,.09-.09.15-.13a2.3,2.3,0,0,0-.15-.55c.93.12,1.46.21,2.05.28.78.67.17,1.29-.14,2.01Zm2.36-.41a7.389,7.389,0,0,0,0,.84c-.37-.53-.59-.87-.87-1.24a.1.1,0,0,0-.06,0,1,1,0,0,1-.22.25h0a.787.787,0,0,0-.09-.22h0c-.09-.06-.16-.15-.25-.21l.09-.1c.07.1.16.16.22.25h.22v-.25a9.649,9.649,0,0,0,1.3-.06c-.16.49-.29.68-.35.86Zm.53.59h-.16v-.62H50Zm2.08.62c-.1-.21-.19-.43-.38-.8-.06.56-.09.93-.12,1.36h-1c.31-.43.49-.74.8-1.18-.09-.21-.21-.59-.31-.9h0a2.619,2.619,0,0,0-.25-.22l.1-.09c.06.09.15.15.21.24h0c.41-.18.75-.4,1.21-.65.19.47.41,1,.59,1.46a8,8,0,0,0-.86.9Z" transform="translate(-4.65 -6.37)" fill="#1f7762"/>
  <path id="Trazado_25467" data-name="Trazado 25467" d="M26.73,27.86c.07,0,.13,0,.16-.06l-.06-.06a.16.16,0,0,1-.1.12Z" transform="translate(-4.65 -6.37)" fill="#1f7762"/>
  <path id="Trazado_25468" data-name="Trazado 25468" d="M29,30.16Z" transform="translate(-4.65 -6.37)" fill="#1f7762"/>
  <path id="Trazado_25469" data-name="Trazado 25469" d="M41.81,61.3c0-.06-.09-.09-.12-.15l.06-.07a.386.386,0,0,0-.19.1,8.422,8.422,0,0,0-.4.8A2.73,2.73,0,0,1,41.81,61.3Z" transform="translate(-4.65 -6.37)" fill="#1f7762"/>
  <path id="Trazado_25470" data-name="Trazado 25470" d="M34.3,9.78h0L34,9.47h0a2.27,2.27,0,0,1,.3.31Z" transform="translate(-4.65 -6.37)" fill="#1f7762"/>
  <path id="Trazado_25471" data-name="Trazado 25471" d="M34,9.47h0l.31.31h0A2.27,2.27,0,0,0,34,9.47Z" transform="translate(-4.65 -6.37)" fill="#1f7762"/>
  <path id="Trazado_25472" data-name="Trazado 25472" d="M26.61,30.84Z" transform="translate(-4.65 -6.37)" fill="#1f7762"/>
  <path id="Trazado_25473" data-name="Trazado 25473" d="M20.59,74.73a1.31,1.31,0,0,1,.13.41c.06-.16.09-.28.12-.38a1.46,1.46,0,0,1-.09-.21,1.07,1.07,0,0,1-.16.18Z" transform="translate(-4.65 -6.37)" fill="#1f7762"/>
  <path id="Trazado_25474" data-name="Trazado 25474" d="M38,71.32h-.24a.58.58,0,0,1,.24,0Z" transform="translate(-4.65 -6.37)" fill="#1f7762"/>
  <path id="Trazado_25475" data-name="Trazado 25475" d="M31.76,47.75v.06C31.76,47.75,31.79,47.78,31.76,47.75Z" transform="translate(-4.65 -6.37)" fill="#1f7762"/>
  <path id="Trazado_25476" data-name="Trazado 25476" d="M28.44,11v-.03h0Z" transform="translate(-4.65 -6.37)" fill="#1f7762"/>
  <path id="Trazado_25477" data-name="Trazado 25477" d="M23.51,59.84h-.09V60h.06l-.06-.07C23.48,59.91,23.51,59.87,23.51,59.84Z" transform="translate(-4.65 -6.37)" fill="#1f7762"/>
  <path id="Trazado_25478" data-name="Trazado 25478" d="M39.3,11.46v-.19a.45.45,0,0,0-.13-.06l-.15.06Z" transform="translate(-4.65 -6.37)" fill="#1f7762"/>
  <path id="Trazado_25479" data-name="Trazado 25479" d="M31.2,63.29v-.07c0-.07.16,0,.22.07a1.09,1.09,0,0,1-.19-.1.118.118,0,0,1-.06.1Z" transform="translate(-4.65 -6.37)" fill="#1f7762"/>
  <path id="Trazado_25480" data-name="Trazado 25480" d="M26.86,30.75v.06c0,.06.06,0,.12,0s0-.09,0-.15S26.89,30.72,26.86,30.75Z" transform="translate(-4.65 -6.37)" fill="#1f7762"/>
  <path id="Trazado_25481" data-name="Trazado 25481" d="M25.62,29.91a1.54,1.54,0,0,1,.34.28,1.54,1.54,0,0,0-.34-.28S25.65,29.91,25.62,29.91Z" transform="translate(-4.65 -6.37)" fill="#1f7762"/>
  <path id="Trazado_25482" data-name="Trazado 25482" d="M22,63.38l.31.09c0-.12.09-.18.09-.25L22.27,63A1.54,1.54,0,0,1,22,63.38Z" transform="translate(-4.65 -6.37)" fill="#1f7762"/>
  <path id="Trazado_25483" data-name="Trazado 25483" d="M21.52,69v.07a.91.91,0,0,1,.1-.16h0a.42.42,0,0,1-.1.09Z" transform="translate(-4.65 -6.37)" fill="#1f7762"/>
  <path id="Trazado_25484" data-name="Trazado 25484" d="M30.86,56.46Z" transform="translate(-4.65 -6.37)" fill="#1f7762"/>
  <path id="Trazado_25485" data-name="Trazado 25485" d="M27,55.44v.12h.22v.28a.679.679,0,0,1,.09-.25.69.69,0,0,0-.31-.15Z" transform="translate(-4.65 -6.37)" fill="#1f7762"/>
  <path id="Trazado_25486" data-name="Trazado 25486" d="M36.82,54.2v-.31a1.91,1.91,0,0,1-.34.28,1.632,1.632,0,0,1-.06.52,2.53,2.53,0,0,1,.4-.49Z" transform="translate(-4.65 -6.37)" fill="#1f7762"/>
  <path id="Trazado_25487" data-name="Trazado 25487" d="M38,16.54Z" transform="translate(-4.65 -6.37)" fill="#1f7762"/>
  <path id="Trazado_25488" data-name="Trazado 25488" d="M43.55,25.51l.06.06a.42.42,0,0,1,0-.19c-.09,0-.22-.18-.43-.43a4.09,4.09,0,0,1,.24.65Z" transform="translate(-4.65 -6.37)" fill="#1f7762"/>
  <path id="Trazado_25489" data-name="Trazado 25489" d="M35.61,14.68v-.09l-.38-.06h0Z" transform="translate(-4.65 -6.37)" fill="#1f7762"/>
  <path id="Trazado_25490" data-name="Trazado 25490" d="M35.14,14.53a2.14,2.14,0,0,0-.43-.07.82.82,0,0,0,.28.07Z" transform="translate(-4.65 -6.37)" fill="#1f7762"/>
  <path id="Trazado_25491" data-name="Trazado 25491" d="M40.48,58.67h.03Z" transform="translate(-4.65 -6.37)" fill="#1f7762"/>
  <path id="Trazado_25492" data-name="Trazado 25492" d="M33.4,59.91l.07-.07h-.13S33.37,59.91,33.4,59.91Z" transform="translate(-4.65 -6.37)" fill="#1f7762"/>
  <path id="Trazado_25493" data-name="Trazado 25493" d="M26,30.53Z" transform="translate(-4.65 -6.37)" fill="#1f7762"/>
  <path id="Trazado_25494" data-name="Trazado 25494" d="M40.54,62.48v-.22s-.06-.06-.09-.06a2.33,2.33,0,0,0-.07.25.29.29,0,0,1,.16.03Z" transform="translate(-4.65 -6.37)" fill="#1f7762"/>
  <path id="Trazado_25495" data-name="Trazado 25495" d="M28.78,55.59v0Z" transform="translate(-4.65 -6.37)" fill="#1f7762"/>
  <path id="Trazado_25496" data-name="Trazado 25496" d="M28.75,54.94H28.5a1,1,0,0,1,.25.1Z" transform="translate(-4.65 -6.37)" fill="#1f7762"/>
  <path id="Trazado_25497" data-name="Trazado 25497" d="M30.4,46.44a1.575,1.575,0,0,1-.1.13h0A.53.53,0,0,0,30.4,46.44Z" transform="translate(-4.65 -6.37)" fill="#1f7762"/>
  <path id="Trazado_25498" data-name="Trazado 25498" d="M30.4,69.49c-.13.19-.28.4-.41.62h0a4.44,4.44,0,0,1,.41-.62Z" transform="translate(-4.65 -6.37)" fill="#1f7762"/>
  <path id="Trazado_25499" data-name="Trazado 25499" d="M30.58,21.54h0a.65.65,0,0,0,0,.24Z" transform="translate(-4.65 -6.37)" fill="#1f7762"/>
  <path id="Trazado_25500" data-name="Trazado 25500" d="M40.17,69.18v-.06a3.831,3.831,0,0,1-.78.06Z" transform="translate(-4.65 -6.37)" fill="#1f7762"/>
  <path id="Trazado_25501" data-name="Trazado 25501" d="M30,70.11c.31.06.62.12.9.19A4.529,4.529,0,0,0,30,70.11Z" transform="translate(-4.65 -6.37)" fill="#1f7762"/>
  <path id="Trazado_25502" data-name="Trazado 25502" d="M32.13,22.13Z" transform="translate(-4.65 -6.37)" fill="#1f7762"/>
  <path id="Trazado_25503" data-name="Trazado 25503" d="M15.75,54.79l-.58.59C15.38,55.19,15.54,55,15.75,54.79Z" transform="translate(-4.65 -6.37)" fill="#1f7762"/>
  <path id="Trazado_25504" data-name="Trazado 25504" d="M47.24,62.33c-.34-.31-.68-.63-1-.9C46.59,61.74,46.93,62.02,47.24,62.33Z" transform="translate(-4.65 -6.37)" fill="#1f7762"/>
  <path id="Trazado_25505" data-name="Trazado 25505" d="M39.67,37c.68.22,1.3.56,1.95.84l.53-.34c.75,1.24,2.08,1.18,3.16,1.55.16-.22.28-.65.56-.74a2.81,2.81,0,0,0,1.21-1.18,23.88,23.88,0,0,0,1.4-2.76c-.25-.28-.5-.56-.71-.81H46.34c-1.43-.93-2.61-2.08-4.38-2.23l.5-1.06-1-.18V28.58c-.31-.37-.56-.62-.84-.93-.34.06-.68.12-1,.15v.13a5.618,5.618,0,0,1,.9.15l-.68.53h.43a2.24,2.24,0,0,1,.5,1.86l.31.31h.62v.59c-.28-.19-.5-.34-.72-.47l.16-.15-.31-.31c-.37-.16-.78-.28-1.18-.43a1.52,1.52,0,0,1,.25-1.4h-.53l-.19-.56H37.44c0,1,1.42,1,1.21,2-.22.12-.44.31-.69.46-.24-.4-.46-.71-.68-1.08-.37.09-.68.18-1,.28a5.89,5.89,0,0,0-.44-.44l.81-.12-.71-.81H35a4.12,4.12,0,0,0-.19.56L33.48,28c-.19.22-.44.47-.69.74v1.49a5.56,5.56,0,0,1,1.74.28c.13.31.28.62.34.81-.12.43-.25.74-.37,1.21,1.06.62,2.08,1.24,3.16,1.92a2,2,0,0,1,.53-1.3,4.58,4.58,0,0,0,.5-1.46c.62,0,1.21-.15,1.49.65-.19.56-.44,1.21-.62,1.8h0c.09.06.15.16.24.22l-.09.09c-.06-.09-.15-.15-.22-.25l-.77.69c.53.24.9.4,1.21.52.74-1.3.84-2.85,2.14-3.9.22.31.37.49.53.74V33.4a2,2,0,0,0-.6,1.19c-.06.41-.58.75-1.05,1.31.25.21.47.37.56.46h1c.41-1,.81-2,1.09-2.79a1.26,1.26,0,0,1,1.8.9c-1.37.25-1.18,1.8-2.11,2.39a1.12,1.12,0,0,0,1.3.46,7.54,7.54,0,0,0,1.06-1.61,2,2,0,0,1,1.17-1.52c.25.4.53.78.75,1.12-.28.43-.56.84-.84,1.24s-.53.93-.9,1.08c-.53.19-.31,1-1,1a18.05,18.05,0,0,0-2.36-1.21,8.39,8.39,0,0,0-3.47-1C39.05,36.74,39.27,36.89,39.67,37Zm-2.51-4c0-.31-.1-.59-.13-.93l-.68,1c-.12-.24-.22-.46-.31-.68a2.39,2.39,0,0,1-.34.31.8.8,0,0,1,.3-1.24c.53.13,1.06.25,1.64.41C37.84,32.27,37.72,32.67,37.16,33ZM39,30.81v-.28h.8v.16a6.13,6.13,0,0,1-.8.12Zm4.28,1.43H43v-.1h.31Z" transform="translate(-4.65 -6.37)" fill="#1f7762"/>
  <path id="Trazado_25506" data-name="Trazado 25506" d="M41.1,30.81a2.27,2.27,0,0,1-.31-.31C40.88,30.59,41,30.69,41.1,30.81Z" transform="translate(-4.65 -6.37)" fill="#1f7762"/>
  <path id="Trazado_25507" data-name="Trazado 25507" d="M39.51,34.22h0l-.77.69A5.5,5.5,0,0,0,39.51,34.22Z" transform="translate(-4.65 -6.37)" fill="#1f7762"/>
  <path id="Trazado_25508" data-name="Trazado 25508" d="M38.09,20.67a7.909,7.909,0,0,1-.31.74c-.06-.8-.1-1.3-.13-1.83-1.89.93-1.89.34-3.32,3.1V25.1c1.21.62,2.36,1.18,3.32,1.68a11.509,11.509,0,0,0,1.49-1.06,3.93,3.93,0,0,0,1-1.27c.28-.65.62-1.33.06-2.05-.16-.18,0-.58,0-.93C39.27,21.66,39.11,20.17,38.09,20.67Zm-.62,1.49h.15v.93h-.15ZM37,25.54h-.09v-.31H37Zm-.74-.22c-.07-.25-.07-.4-.13-.59a7.76,7.76,0,0,0,.87-.19c-.37.38-.53.53-.77.78Zm1.21.16V25a.27.27,0,0,0,.15,0,2.47,2.47,0,0,0,.13.52.7.7,0,0,1-.31-.04Zm1.14-.59a.27.27,0,0,0-.15,0,2.56,2.56,0,0,0-.13-.53.86.86,0,0,0,.28,0Zm-.43-1.46.4-.06v.49a5.63,5.63,0,0,0-.43-.43Zm0-.9c-.06-.31-.06-.31.77-.28-.52.15-.74.25-.83.28Zm1,.84h-.09v-.31h.09Z" transform="translate(-4.65 -6.37)" fill="#1f7762"/>
  <path id="Trazado_25509" data-name="Trazado 25509" d="M52.2,71v.03h0Z" transform="translate(-4.65 -6.37)" fill="#1f7762"/>
  <path id="Trazado_25510" data-name="Trazado 25510" d="M52.76,69.18H51.3c-.18.68-.9.62-1.33,1l-.59-.71a10.38,10.38,0,0,1-1.24.5,11.559,11.559,0,0,1-1.43.15c-.06.34-.09.59-.12.87a7.318,7.318,0,0,0-.84,0c.06.47.46.28.71.28a2.27,2.27,0,0,1,1.83.56l2-.62-.47.53c.34.24.71.46,1.12.74h2.2c0-.84.81-.78,1.15-1.21a.868.868,0,0,1,.09-.37c-.34.12-.56.22-.9.37C53.22,70.58,53,69.86,52.76,69.18Zm-1.89,2.76h-.1v-.31h.1Zm1.36-.68a2.008,2.008,0,0,0-.59.06v-.19a3.73,3.73,0,0,0,.56-.12h0c.06-.09.16-.15.22-.25l.09.1a2.14,2.14,0,0,0-.25.21Zm.16-1.55c.15.25.28.43.4.62C52.39,70.45,52.05,70.51,52.39,69.71Z" transform="translate(-4.65 -6.37)" fill="#1f7762"/>
  <path id="Trazado_25511" data-name="Trazado 25511" d="M45.75,71Z" transform="translate(-4.65 -6.37)" fill="#1f7762"/>
  <path id="Trazado_25512" data-name="Trazado 25512" d="M49.87,68.25a1.23,1.23,0,0,1,.22.09c.44.16.81,0,1.58-.52l-1.11-.59c-.16.15-.28.24-.38.34-.09-.1-.21-.19-.34-.31a6.24,6.24,0,0,1-.34.71c-.37-.12-.74-.28-1.11-.4-.5.59-1,.28-1.52,0a5.851,5.851,0,0,0-.53.37,6.83,6.83,0,0,1-.62-.31c-.31.15-.5.28-.65.34.18.37.34.62.4.77l2,.38a5.41,5.41,0,0,0,.19-.53h.06A5.7,5.7,0,0,0,49.87,68.25Z" transform="translate(-4.65 -6.37)" fill="#1f7762"/>
  <path id="Trazado_25513" data-name="Trazado 25513" d="M50.12,68.34l-.21-.09a.27.27,0,0,0,.21.09Z" transform="translate(-4.65 -6.37)" fill="#1f7762"/>
  <path id="Trazado_25514" data-name="Trazado 25514" d="M47.49,69.12c.06-.16.12-.34.18-.53h0A4.608,4.608,0,0,1,47.49,69.12Z" transform="translate(-4.65 -6.37)" fill="#1f7762"/>
  <path id="Trazado_25515" data-name="Trazado 25515" d="M27.91,47.16l.38.34.62-.62H30l.31-.31h0v-.68c-1.05.21-2,.37-2.88.55l-1.09-.18a.9.9,0,0,0,0,.4.4.4,0,0,0,.13.25c.18.22.52.28.74.46v.78h.53C27.79,47.84,27.85,47.53,27.91,47.16Z" transform="translate(-4.65 -6.37)" fill="#1f7762"/>
  <path id="Trazado_25516" data-name="Trazado 25516" d="M30,46.88l.31-.31h0Z" transform="translate(-4.65 -6.37)" fill="#1f7762"/>
  <path id="Trazado_25517" data-name="Trazado 25517" d="M55.09,67.94c-.1-.19-.19-.34-.28-.5a4.21,4.21,0,0,1-.25-.43,6.147,6.147,0,0,0-.68,0,8.268,8.268,0,0,0-.69.81c-.06.09.07.28.1.43l.93-.81c.31.47.59.9.74,1.15a11.011,11.011,0,0,0,1.34-.09v-.44c-.28-.12-.56-.27-.81-.4A2,2,0,0,0,55.09,67.94Z" transform="translate(-4.65 -6.37)" fill="#1f7762"/>
  <path id="Trazado_25518" data-name="Trazado 25518" d="M54.78,67.44a4.21,4.21,0,0,1-.25-.43h-.69a6.318,6.318,0,0,1,.69,0A2.65,2.65,0,0,1,54.78,67.44Z" transform="translate(-4.65 -6.37)" fill="#1f7762"/>
  <path id="Trazado_25519" data-name="Trazado 25519" d="M42.65,29.26c.06.15.21.25.37.43l.9-1.73c-.62.09-1.12.18-1.58.28a10.571,10.571,0,0,0,.31,1.02Z" transform="translate(-4.65 -6.37)" fill="#1f7762"/>
  <path id="Trazado_25520" data-name="Trazado 25520" d="M26.58,74.76c.59-.18.71-.59.56-1.21H26.05a.84.84,0,0,0,.53,1.21Z" transform="translate(-4.65 -6.37)" fill="#1f7762"/>
  <path id="Trazado_25521" data-name="Trazado 25521" d="M45.07,28.05h-.81c.16.47.31.84.43,1.21l.41-.06C45.07,28.83,45.07,28.45,45.07,28.05Z" transform="translate(-4.65 -6.37)" fill="#1f7762"/>
  <path id="Trazado_25522" data-name="Trazado 25522" d="M40,69.55c.12.41.25.78.37,1.21l.53-.53a4.18,4.18,0,0,0-.65-1A3.71,3.71,0,0,1,40,69.55Z" transform="translate(-4.65 -6.37)" fill="#1f7762"/>
  <path id="Trazado_25523" data-name="Trazado 25523" d="M40.85,70.23c-.19-.4-.37-.74-.56-1.11a.41.41,0,0,0-.09.12A3.15,3.15,0,0,1,40.85,70.23Z" transform="translate(-4.65 -6.37)" fill="#1f7762"/>
  <path id="Trazado_25524" data-name="Trazado 25524" d="M42.68,69.86c.4-.15.68-.28,1-.4.16.12.31.22.5.34v-.59H42.62a3.17,3.17,0,0,1,.06.65Z" transform="translate(-4.65 -6.37)" fill="#1f7762"/>
  <path id="Trazado_25525" data-name="Trazado 25525" d="M26.58,23c-.4.41-.37.5-.12,1.24.12-.4.55-.77.4-1.24a1.459,1.459,0,0,1-.09-.21A.5.5,0,0,1,26.58,23Z" transform="translate(-4.65 -6.37)" fill="#1f7762"/>
  <path id="Trazado_25526" data-name="Trazado 25526" d="M26.58,23c-.4.41-.37.5-.12,1.24h0C26.21,23.49,26.18,23.4,26.58,23Z" transform="translate(-4.65 -6.37)" fill="#1f7762"/>
  <path id="Trazado_25527" data-name="Trazado 25527" d="M53.66,69l.65,1.31V68.84A2.776,2.776,0,0,0,53.66,69Z" transform="translate(-4.65 -6.37)" fill="#1f7762"/>
  <path id="Trazado_25528" data-name="Trazado 25528" d="M41.38,69.46c.09-.19.18-.34.34-.62h-1c.07.28.13.43.16.59a1.36,1.36,0,0,0,.5,0Z" transform="translate(-4.65 -6.37)" fill="#1f7762"/>
  <path id="Trazado_25529" data-name="Trazado 25529" d="M41.38,69.46h-.5a1.36,1.36,0,0,0,.5,0Z" transform="translate(-4.65 -6.37)" fill="#1f7762"/>
  <path id="Trazado_25530" data-name="Trazado 25530" d="M30,70.11l-.46-.28-.47.28c.16.22.31.4.5.68a3.35,3.35,0,0,1,.43-.68Z" transform="translate(-4.65 -6.37)" fill="#1f7762"/>
  <path id="Trazado_25531" data-name="Trazado 25531" d="M18.76,41.26a6.44,6.44,0,0,0-.09-1.42,1.93,1.93,0,0,0,.09,1.42Z" transform="translate(-4.65 -6.37)" fill="#1f7762"/>
  <path id="Trazado_25532" data-name="Trazado 25532" d="M18.76,41.26v-1.8l-.09.38a6.58,6.58,0,0,1,.09,1.42Z" transform="translate(-4.65 -6.37)" fill="#1f7762"/>
  <path id="Trazado_25533" data-name="Trazado 25533" d="M26,27.71l-.62-.28V28c.22.09.4.22.62.31Z" transform="translate(-4.65 -6.37)" fill="#1f7762"/>
  <path id="Trazado_25534" data-name="Trazado 25534" d="M25.34,27.4h0a2,2,0,0,1,.62.28A5.646,5.646,0,0,1,25.34,27.4Z" transform="translate(-4.65 -6.37)" fill="#1f7762"/>
  <path id="Trazado_25535" data-name="Trazado 25535" d="M44.42,71.94v-.65a2.9,2.9,0,0,0-.56.12,2.9,2.9,0,0,0,.12.56A2,2,0,0,1,44.42,71.94Z" transform="translate(-4.65 -6.37)" fill="#1f7762"/>
  <path id="Trazado_25536" data-name="Trazado 25536" d="M27.2,48.68v-.53h-.62C26.58,48.46,26.49,48.89,27.2,48.68Z" transform="translate(-4.65 -6.37)" fill="#1f7762"/>
  <path id="Trazado_25537" data-name="Trazado 25537" d="M19.72,52.83c-.24.56-.37.84-.52,1.15h.52Z" transform="translate(-4.65 -6.37)" fill="#1f7762"/>
  <path id="Trazado_25538" data-name="Trazado 25538" d="M47,66.54l-.09-.46h-.56C46.34,66.79,46.59,66.79,47,66.54Z" transform="translate(-4.65 -6.37)" fill="#1f7762"/>
  <path id="Trazado_25539" data-name="Trazado 25539" d="M26.58,48.12V47.5H26v.62Z" transform="translate(-4.65 -6.37)" fill="#1f7762"/>
  <path id="Trazado_25540" data-name="Trazado 25540" d="M18.39,56c.31.18.5.31.65.4C19.14,55.94,19.14,55.94,18.39,56Z" transform="translate(-4.65 -6.37)" fill="#1f7762"/>
  <path id="Trazado_25541" data-name="Trazado 25541" d="M42.06,69.68a.86.86,0,0,0-.1-.16h-.58a1.227,1.227,0,0,0,.06.31h0A2.556,2.556,0,0,1,42.06,69.68Z" transform="translate(-4.65 -6.37)" fill="#1f7762"/>
  <path id="Trazado_25542" data-name="Trazado 25542" d="M41.38,69.46h.55a3.769,3.769,0,0,1-.55,0Z" transform="translate(-4.65 -6.37)" fill="#1f7762"/>
  <path id="Trazado_25543" data-name="Trazado 25543" d="M21.59,36.05v-.87C21.31,35.53,21.31,35.53,21.59,36.05Z" transform="translate(-4.65 -6.37)" fill="#1f7762"/>
  <path id="Trazado_25544" data-name="Trazado 25544" d="M25.68,71.48V72c.28-.06.4-.06.59-.12a4.081,4.081,0,0,1-.59-.4Z" transform="translate(-4.65 -6.37)" fill="#1f7762"/>
  <path id="Trazado_25545" data-name="Trazado 25545" d="M27.05,71.54c-.35.84,0,.71.4.65Z" transform="translate(-4.65 -6.37)" fill="#1f7762"/>
  <path id="Trazado_25546" data-name="Trazado 25546" d="M42.31,72.16a.3.3,0,0,0,0-.16H41.5v.28C41.75,72.25,42,72.19,42.31,72.16Z" transform="translate(-4.65 -6.37)" fill="#1f7762"/>
  <path id="Trazado_25547" data-name="Trazado 25547" d="M14.89,80.1v.15h.52v-.28a3.92,3.92,0,0,1-.52.13Z" transform="translate(-4.65 -6.37)" fill="#1f7762"/>
  <path id="Trazado_25548" data-name="Trazado 25548" d="M54.43,74.79v.53a.86.86,0,0,0,.28,0,3.37,3.37,0,0,0-.12-.53C54.53,74.76,54.5,74.79,54.43,74.79Z" transform="translate(-4.65 -6.37)" fill="#1f7762"/>
  <path id="Trazado_25549" data-name="Trazado 25549" d="M28.6,22.56a5.38,5.38,0,0,0,.18-.53c-.25.22-.34.28-.34.31a1.49,1.49,0,0,0,.09.31Z" transform="translate(-4.65 -6.37)" fill="#1f7762"/>
  <path id="Trazado_25550" data-name="Trazado 25550" d="M28.6,22.56a.23.23,0,0,0,0,.12s0,0,0,.07S28.66,22.53,28.6,22.56Z" transform="translate(-4.65 -6.37)" fill="#1f7762"/>
  <path id="Trazado_25551" data-name="Trazado 25551" d="M28.6,22.56l-.07.06v.06A.18.18,0,0,1,28.6,22.56Z" transform="translate(-4.65 -6.37)" fill="#1f7762"/>
  <path id="Trazado_25552" data-name="Trazado 25552" d="M28.57,22.75c.06-.19.09-.38.21-.75a3.68,3.68,0,0,0-.18.53C28.66,22.53,28.6,22.65,28.57,22.75Z" transform="translate(-4.65 -6.37)" fill="#1f7762"/>
  <ellipse id="Elipse_706" data-name="Elipse 706" cx="0.12" cy="0.43" rx="0.12" ry="0.43" transform="translate(18.24 66.38)" fill="#1f7762"/>
  <path id="Trazado_25553" data-name="Trazado 25553" d="M12.31,73.43V72.9h-.28a3.069,3.069,0,0,0,.13.5.13.13,0,0,0,.15.03Z" transform="translate(-4.65 -6.37)" fill="#1f7762"/>
  <path id="Trazado_25554" data-name="Trazado 25554" d="M27.76,22.71v-.52a.89.89,0,0,0-.28,0,3.64,3.64,0,0,0,.12.53A.25.25,0,0,1,27.76,22.71Z" transform="translate(-4.65 -6.37)" fill="#1f7762"/>
  <path id="Trazado_25555" data-name="Trazado 25555" d="M41.16,27.46v.28l.5-.12v-.16Z" transform="translate(-4.65 -6.37)" fill="#1f7762"/>
  <path id="Trazado_25556" data-name="Trazado 25556" d="M25.4,22.4h.28a2.916,2.916,0,0,0-.12-.49H25.4Z" transform="translate(-4.65 -6.37)" fill="#1f7762"/>
  <path id="Trazado_25557" data-name="Trazado 25557" d="M41.9,28.33a1.86,1.86,0,0,0,.38-.12c-.28-.13-.13-.07.06,0-.19-.06-.38-.09-.75-.21C41.81,28.21,41.87,28.33,41.9,28.33Z" transform="translate(-4.65 -6.37)" fill="#1f7762"/>
  <path id="Trazado_25558" data-name="Trazado 25558" d="M42.28,28.21h.06C42.15,28.14,42,28.08,42.28,28.21Z" transform="translate(-4.65 -6.37)" fill="#1f7762"/>
  <path id="Trazado_25559" data-name="Trazado 25559" d="M28.57,70.3a2.77,2.77,0,0,0-.19.56c.25-.22.34-.28.34-.31a1.77,1.77,0,0,0-.09-.32A.07.07,0,0,1,28.57,70.3Z" transform="translate(-4.65 -6.37)" fill="#1f7762"/>
  <path id="Trazado_25560" data-name="Trazado 25560" d="M28.57,70.3a.28.28,0,0,0,0-.13.1.1,0,0,0,0-.06C28.57,70.2,28.53,70.33,28.57,70.3Z" transform="translate(-4.65 -6.37)" fill="#1f7762"/>
  <path id="Trazado_25561" data-name="Trazado 25561" d="M28.57,70.3l.06-.07v-.06a.21.21,0,0,1-.06.13Z" transform="translate(-4.65 -6.37)" fill="#1f7762"/>
  <path id="Trazado_25562" data-name="Trazado 25562" d="M28.6,70.11c-.07.19-.1.37-.22.75a4.639,4.639,0,0,0,.19-.56A.689.689,0,0,1,28.6,70.11Z" transform="translate(-4.65 -6.37)" fill="#1f7762"/>
  <path id="Trazado_25563" data-name="Trazado 25563" d="M16.13,52.71h.28a5.11,5.11,0,0,0-.13-.53.27.27,0,0,0-.15,0Z" transform="translate(-4.65 -6.37)" fill="#1f7762"/>
  <path id="Trazado_25564" data-name="Trazado 25564" d="M28.75,69.52v.56h.31L29,69.49A.64.64,0,0,1,28.75,69.52Z" transform="translate(-4.65 -6.37)" fill="#1f7762"/>
  <path id="Trazado_25565" data-name="Trazado 25565" d="M19.54,35.74v.62h.15v-.62Z" transform="translate(-4.65 -6.37)" fill="#1f7762"/>
  <path id="Trazado_25566" data-name="Trazado 25566" d="M27.39,23.4h-.16V24h.28a3.25,3.25,0,0,0-.12-.6Z" transform="translate(-4.65 -6.37)" fill="#1f7762"/>
  <path id="Trazado_25567" data-name="Trazado 25567" d="M25.34,21.29c-.09-.13-.22-.25-.31-.37a4.159,4.159,0,0,0,0,.59C25.15,21.44,25.25,21.35,25.34,21.29Z" transform="translate(-4.65 -6.37)" fill="#1f7762"/>
  <path id="Trazado_25568" data-name="Trazado 25568" d="M25,21.54Z" transform="translate(-4.65 -6.37)" fill="#1f7762"/>
  <path id="Trazado_25569" data-name="Trazado 25569" d="M28.38,19.92V19.4H28.1a2.916,2.916,0,0,0,.12.49Z" transform="translate(-4.65 -6.37)" fill="#1f7762"/>
  <path id="Trazado_25570" data-name="Trazado 25570" d="M52.29,67.63v.62h.16v-.62Z" transform="translate(-4.65 -6.37)" fill="#1f7762"/>
  <path id="Trazado_25571" data-name="Trazado 25571" d="M17.86,54.57V54h-.28a5.111,5.111,0,0,0,.13.53A.14.14,0,0,0,17.86,54.57Z" transform="translate(-4.65 -6.37)" fill="#1f7762"/>
  <path id="Trazado_25572" data-name="Trazado 25572" d="M48.76,65.83h-.53v.28l.5-.12C48.79,65.92,48.79,65.86,48.76,65.83Z" transform="translate(-4.65 -6.37)" fill="#1f7762"/>
  <ellipse id="Elipse_707" data-name="Elipse 707" cx="0.22" cy="0.06" rx="0.22" ry="0.06" transform="translate(14.14 53.6)" fill="#1f7762"/>
  <path id="Trazado_25573" data-name="Trazado 25573" d="M27.2,24.51h.31v-.09H27.2Z" transform="translate(-4.65 -6.37)" fill="#1f7762"/>
  <path id="Trazado_25574" data-name="Trazado 25574" d="M53.44,62.17h-.31v.09h.31Z" transform="translate(-4.65 -6.37)" fill="#1f7762"/>
  <path id="Trazado_25575" data-name="Trazado 25575" d="M17.93,55h-.31v.09h.31Z" transform="translate(-4.65 -6.37)" fill="#1f7762"/>
  <path id="Trazado_25576" data-name="Trazado 25576" d="M24.41,22.65h.31v-.09h-.31Z" transform="translate(-4.65 -6.37)" fill="#1f7762"/>
  <path id="Trazado_25577" data-name="Trazado 25577" d="M48,65.15v.31h.1v-.31Z" transform="translate(-4.65 -6.37)" fill="#1f7762"/>
  <path id="Trazado_25578" data-name="Trazado 25578" d="M45.22,66.08v.31h.09v-.31Z" transform="translate(-4.65 -6.37)" fill="#1f7762"/>
  <path id="Trazado_25579" data-name="Trazado 25579" d="M45.84,66.08v.31h.1v-.31Z" transform="translate(-4.65 -6.37)" fill="#1f7762"/>
  <path id="Trazado_25580" data-name="Trazado 25580" d="M49.22,66.08v.31h.1v-.31Z" transform="translate(-4.65 -6.37)" fill="#1f7762"/>
  <path id="Trazado_25581" data-name="Trazado 25581" d="M53.78,67c-.06-.1-.15-.16-.21-.25l-.1.09a.82.82,0,0,0,.31.16Z" transform="translate(-4.65 -6.37)" fill="#1f7762"/>
  <path id="Trazado_25582" data-name="Trazado 25582" d="M53.47,66.82c.1.06.16.16.25.22l.06-.06a.82.82,0,0,1-.31-.16Z" transform="translate(-4.65 -6.37)" fill="#1f7762"/>
  <path id="Trazado_25583" data-name="Trazado 25583" d="M57.26,67.63h.09v-.31h-.09Z" transform="translate(-4.65 -6.37)" fill="#1f7762"/>
  <ellipse id="Elipse_708" data-name="Elipse 708" cx="0.22" cy="0.06" rx="0.22" ry="0.06" transform="translate(51.83 61.35)" fill="#1f7762"/>
  <path id="Trazado_25584" data-name="Trazado 25584" d="M30.58,21.54h0c.13,0,.19-.13.28-.19l-.09-.09a1,1,0,0,0-.19.28Z" transform="translate(-4.65 -6.37)" fill="#1f7762"/>
  <path id="Trazado_25585" data-name="Trazado 25585" d="M30.58,21.54c0-.13.13-.19.19-.28-.06.09-.16.15-.22.25h0Z" transform="translate(-4.65 -6.37)" fill="#1f7762"/>
  <path id="Trazado_25586" data-name="Trazado 25586" d="M42.46,68.9l-.09.09a2.621,2.621,0,0,0,.25.22l.06-.06a1.861,1.861,0,0,0-.22-.25Z" transform="translate(-4.65 -6.37)" fill="#1f7762"/>
  <path id="Trazado_25587" data-name="Trazado 25587" d="M56,69.8h.09v-.31H56Z" transform="translate(-4.65 -6.37)" fill="#1f7762"/>
  <path id="Trazado_25588" data-name="Trazado 25588" d="M45.31,70.42v-.31h-.09v.31Z" transform="translate(-4.65 -6.37)" fill="#1f7762"/>
  <path id="Trazado_25589" data-name="Trazado 25589" d="M55.74,70.42h.09v-.31h-.09Z" transform="translate(-4.65 -6.37)" fill="#1f7762"/>
  <path id="Trazado_25590" data-name="Trazado 25590" d="M45.75,71h0a.77.77,0,0,0-.19-.28l-.09.09A.43.43,0,0,0,45.75,71Z" transform="translate(-4.65 -6.37)" fill="#1f7762"/>
  <path id="Trazado_25591" data-name="Trazado 25591" d="M45.72,71c-.13,0-.19-.12-.28-.19a2.62,2.62,0,0,0,.25.22h0Z" transform="translate(-4.65 -6.37)" fill="#1f7762"/>
  <path id="Trazado_25592" data-name="Trazado 25592" d="M45.75,71Z" transform="translate(-4.65 -6.37)" fill="#1f7762"/>
  <path id="Trazado_25593" data-name="Trazado 25593" d="M25,21.51h0c-.13,0-.19.12-.28.18l.09.09A.41.41,0,0,0,25,21.51Z" transform="translate(-4.65 -6.37)" fill="#1f7762"/>
  <path id="Trazado_25594" data-name="Trazado 25594" d="M25,21.54c0,.12-.13.18-.19.28.06-.1.16-.16.22-.25h0Z" transform="translate(-4.65 -6.37)" fill="#1f7762"/>
  <path id="Trazado_25595" data-name="Trazado 25595" d="M40.69,71.63v-.31H40.6v.31Z" transform="translate(-4.65 -6.37)" fill="#1f7762"/>
  <path id="Trazado_25596" data-name="Trazado 25596" d="M41.62,71.63v-.31h-.09v.31Z" transform="translate(-4.65 -6.37)" fill="#1f7762"/>
  <path id="Trazado_25597" data-name="Trazado 25597" d="M24.1,72.16v-.1h-.31v.1Z" transform="translate(-4.65 -6.37)" fill="#1f7762"/>
  <path id="Trazado_25598" data-name="Trazado 25598" d="M46.87,72.56v-.31h-.1v.31Z" transform="translate(-4.65 -6.37)" fill="#1f7762"/>
  <path id="Trazado_25599" data-name="Trazado 25599" d="M25.34,27.4h0c0-.13-.12-.19-.19-.28l-.09.09a.66.66,0,0,0,.28.19Z" transform="translate(-4.65 -6.37)" fill="#1f7762"/>
  <path id="Trazado_25600" data-name="Trazado 25600" d="M25.34,27.4c-.12,0-.19-.13-.28-.19.09.06.16.16.25.22h0Z" transform="translate(-4.65 -6.37)" fill="#1f7762"/>
  <path id="Trazado_25601" data-name="Trazado 25601" d="M19.17,38.94h-.31V39h.31Z" transform="translate(-4.65 -6.37)" fill="#1f7762"/>
  <path id="Trazado_25602" data-name="Trazado 25602" d="M32.13,76.5h.31v-.09h-.31Z" transform="translate(-4.65 -6.37)" fill="#1f7762"/>
  <path id="Trazado_25603" data-name="Trazado 25603" d="M21,39.25h-.31v.09H21Z" transform="translate(-4.65 -6.37)" fill="#1f7762"/>
  <ellipse id="Elipse_709" data-name="Elipse 709" cx="0.22" cy="0.06" rx="0.22" ry="0.06" transform="translate(29.59 70.63)" fill="#1f7762"/>
  <path id="Trazado_25604" data-name="Trazado 25604" d="M31.33,77.52h.09v-.31h-.09Z" transform="translate(-4.65 -6.37)" fill="#1f7762"/>
  <path id="Trazado_25605" data-name="Trazado 25605" d="M4.65,79.57H5v-.09H4.65Z" transform="translate(-4.65 -6.37)" fill="#1f7762"/>
  <path id="Trazado_25606" data-name="Trazado 25606" d="M19.48,40.8h-.31v.09h.31Z" transform="translate(-4.65 -6.37)" fill="#1f7762"/>
  <ellipse id="Elipse_710" data-name="Elipse 710" cx="0.22" cy="0.06" rx="0.22" ry="0.06" transform="translate(3.32 73.42)" fill="#1f7762"/>
  <path id="Trazado_25607" data-name="Trazado 25607" d="M7.41,80.19h.31V80.1H7.41Z" transform="translate(-4.65 -6.37)" fill="#1f7762"/>
  <ellipse id="Elipse_711" data-name="Elipse 711" cx="0.22" cy="0.06" rx="0.22" ry="0.06" transform="translate(15.07 35.67)" fill="#1f7762"/>
  <path id="Trazado_25608" data-name="Trazado 25608" d="M16.69,80.5H17v-.09h-.31Z" transform="translate(-4.65 -6.37)" fill="#1f7762"/>
  <path id="Trazado_25609" data-name="Trazado 25609" d="M14.64,81.25h.09v-.31h-.09Z" transform="translate(-4.65 -6.37)" fill="#1f7762"/>
  <path id="Trazado_25610" data-name="Trazado 25610" d="M19.38,46.29V46h-.09v.31Z" transform="translate(-4.65 -6.37)" fill="#1f7762"/>
  <path id="Trazado_25611" data-name="Trazado 25611" d="M35.33,82.18h.09v-.31h-.09Z" transform="translate(-4.65 -6.37)" fill="#1f7762"/>
  <path id="Trazado_25612" data-name="Trazado 25612" d="M14.86,82.67h.31v-.09h-.31Z" transform="translate(-4.65 -6.37)" fill="#1f7762"/>
  <path id="Trazado_25613" data-name="Trazado 25613" d="M24.32,24.92v-.31h-.1v.31Z" transform="translate(-4.65 -6.37)" fill="#1f7762"/>
  <path id="Trazado_25614" data-name="Trazado 25614" d="M30.27,51.28c-.53-.18-.68-1-1.39-1-.07.15-.1.28-.16.4.22.25.43.5.65.78a1.07,1.07,0,0,0-.65.4c.19.25.31.44.47.65C29.53,52.06,30.33,52.15,30.27,51.28Z" transform="translate(-4.65 -6.37)" fill="#1f7762"/>
  <path id="Trazado_25615" data-name="Trazado 25615" d="M29.37,51.44l-.8.21a.84.84,0,0,1,.12.19,1.21,1.21,0,0,1,.68-.4Z" transform="translate(-4.65 -6.37)" fill="#1f7762"/>
  <path id="Trazado_25616" data-name="Trazado 25616" d="M37.19,51.78a24.319,24.319,0,0,0-2.3-1.37C35.39,51.22,36,52,37.19,51.78Z" transform="translate(-4.65 -6.37)" fill="#1f7762"/>
  <path id="Trazado_25617" data-name="Trazado 25617" d="M34.86,50.45a19.44,19.44,0,0,1,2.3,1.36c-.9-.59-1.68-1.09-2.45-1.61h0a.62.62,0,0,1,.15.25Z" transform="translate(-4.65 -6.37)" fill="#1f7762"/>
  <path id="Trazado_25618" data-name="Trazado 25618" d="M28.07,50.41l-1.15-.68v.68c.4.35.71.59,1.15,1Z" transform="translate(-4.65 -6.37)" fill="#1f7762"/>
  <path id="Trazado_25619" data-name="Trazado 25619" d="M34,50.79l-.18-.19c-.1-.12-.19-.25-.31-.37a.83.83,0,0,0-.72-.25h0v.62l.31.31c.28.19.56.37.9.62Z" transform="translate(-4.65 -6.37)" fill="#1f7762"/>
  <path id="Trazado_25620" data-name="Trazado 25620" d="M33.81,50.6l.18.19a1.53,1.53,0,0,1-.18-.19Z" transform="translate(-4.65 -6.37)" fill="#1f7762"/>
  <path id="Trazado_25621" data-name="Trazado 25621" d="M33.5,50.23a.83.83,0,0,0-.72-.25h0a.92.92,0,0,1,.72.25Z" transform="translate(-4.65 -6.37)" fill="#1f7762"/>
  <path id="Trazado_25622" data-name="Trazado 25622" d="M30.86,50.48l-.68-.75H29.5l1.05,1.06a1.45,1.45,0,0,0,.31-.31Z" transform="translate(-4.65 -6.37)" fill="#1f7762"/>
  <ellipse id="Elipse_712" data-name="Elipse 712" cx="0.62" cy="0.37" rx="0.62" ry="0.37" transform="translate(31.98 44.17)" fill="#1f7762"/>
  <path id="Trazado_25623" data-name="Trazado 25623" d="M29.43,48.74a.75.75,0,0,0,.56-.9h-.62a4.54,4.54,0,0,0,.06.9Z" transform="translate(-4.65 -6.37)" fill="#1f7762"/>
  <path id="Trazado_25624" data-name="Trazado 25624" d="M29.43,48.74a4.54,4.54,0,0,1-.06-.9v.93h0A.1.1,0,0,1,29.43,48.74Z" transform="translate(-4.65 -6.37)" fill="#1f7762"/>
  <path id="Trazado_25625" data-name="Trazado 25625" d="M33.34,49.05h0a5.34,5.34,0,0,0-.06-.62,1.879,1.879,0,0,0-.59.06,3.32,3.32,0,0,1,0,.53,4.6,4.6,0,0,0,.65.03Z" transform="translate(-4.65 -6.37)" fill="#1f7762"/>
  <path id="Trazado_25626" data-name="Trazado 25626" d="M32.81,49h.56a1.75,1.75,0,0,1-.56,0Z" transform="translate(-4.65 -6.37)" fill="#1f7762"/>
  <path id="Trazado_25627" data-name="Trazado 25627" d="M32.75,50h0v-.62a1.879,1.879,0,0,0-.59.06,3.32,3.32,0,0,1,0,.53,4.16,4.16,0,0,0,.59,0Z" transform="translate(-4.65 -6.37)" fill="#1f7762"/>
  <path id="Trazado_25628" data-name="Trazado 25628" d="M32.19,50a3.76,3.76,0,0,0,.59,0h0A3.76,3.76,0,0,1,32.19,50Z" transform="translate(-4.65 -6.37)" fill="#1f7762"/>
  <path id="Trazado_25629" data-name="Trazado 25629" d="M32.78,50a5.34,5.34,0,0,0-.06-.62A1.979,1.979,0,0,0,32.78,50Z" transform="translate(-4.65 -6.37)" fill="#1f7762"/>
  <path id="Trazado_25630" data-name="Trazado 25630" d="M32.75,50Z" transform="translate(-4.65 -6.37)" fill="#1f7762"/>
  <path id="Trazado_25631" data-name="Trazado 25631" d="M28.53,48.49a6.359,6.359,0,0,1-.21-.71,1.24,1.24,0,0,0-.22.12,5.324,5.324,0,0,0,.12.9Z" transform="translate(-4.65 -6.37)" fill="#1f7762"/>
  <path id="Trazado_25632" data-name="Trazado 25632" d="M28.53,48.49Z" transform="translate(-4.65 -6.37)" fill="#1f7762"/>
  <path id="Trazado_25633" data-name="Trazado 25633" d="M37.72,49.67h0a2.31,2.31,0,0,0-.44.06c.06.19.16.41.22.62a.65.65,0,0,0,.15-.12,1.541,1.541,0,0,1,.07-.56Z" transform="translate(-4.65 -6.37)" fill="#1f7762"/>
  <path id="Trazado_25634" data-name="Trazado 25634" d="M37.68,49.64a1.6,1.6,0,0,0-.43.09A2.13,2.13,0,0,0,37.68,49.64Z" transform="translate(-4.65 -6.37)" fill="#1f7762"/>
  <path id="Trazado_25635" data-name="Trazado 25635" d="M37.68,50.23v-.56h0A2.64,2.64,0,0,0,37.68,50.23Z" transform="translate(-4.65 -6.37)" fill="#1f7762"/>
  <path id="Trazado_25636" data-name="Trazado 25636" d="M37.68,49.67Z" transform="translate(-4.65 -6.37)" fill="#1f7762"/>
  <path id="Trazado_25637" data-name="Trazado 25637" d="M34,50.26a1.11,1.11,0,0,0,.69-.09h0c-.22-.16-.44-.28-.72-.47a3.7,3.7,0,0,1,.03.56Z" transform="translate(-4.65 -6.37)" fill="#1f7762"/>
  <path id="Trazado_25638" data-name="Trazado 25638" d="M34.71,50.17a1.14,1.14,0,0,1-.69.09,4.8,4.8,0,0,0,.62,0,.174.174,0,0,1,.07-.12Z" transform="translate(-4.65 -6.37)" fill="#1f7762"/>
  <path id="Trazado_25639" data-name="Trazado 25639" d="M33.34,49.08a1.5,1.5,0,0,0,.09.43c.19-.06.41-.15.63-.21a2.139,2.139,0,0,1-.13-.19H33.4Z" transform="translate(-4.65 -6.37)" fill="#1f7762"/>
  <path id="Trazado_25640" data-name="Trazado 25640" d="M33.93,49.08H33.4a3.12,3.12,0,0,1,.53,0Z" transform="translate(-4.65 -6.37)" fill="#1f7762"/>
  <path id="Trazado_25641" data-name="Trazado 25641" d="M33.34,49.08Z" transform="translate(-4.65 -6.37)" fill="#1f7762"/>
  <path id="Trazado_25642" data-name="Trazado 25642" d="M26,49.05v.62h.84A6.932,6.932,0,0,1,26,49.05Z" transform="translate(-4.65 -6.37)" fill="#1f7762"/>
  <path id="Trazado_25643" data-name="Trazado 25643" d="M29.43,48.83h0a.107.107,0,0,0-.06-.09h-.62v.59A1.491,1.491,0,0,0,29.43,48.83Z" transform="translate(-4.65 -6.37)" fill="#1f7762"/>
  <path id="Trazado_25644" data-name="Trazado 25644" d="M29.37,48.74l.06.06h0Z" transform="translate(-4.65 -6.37)" fill="#1f7762"/>
  <path id="Trazado_25645" data-name="Trazado 25645" d="M29.43,48.83a2.29,2.29,0,0,1-.65.56c.28-.19.5-.34.72-.46,0-.07,0-.07-.07-.1Z" transform="translate(-4.65 -6.37)" fill="#1f7762"/>
  <path id="Trazado_25646" data-name="Trazado 25646" d="M35.11,47l-.4.65C35.17,47.78,35.17,47.78,35.11,47Z" transform="translate(-4.65 -6.37)" fill="#1f7762"/>
  <ellipse id="Elipse_713" data-name="Elipse 713" cx="0.12" cy="0.43" rx="0.12" ry="0.43" transform="translate(29.69 41.63)" fill="#1f7762"/>
  <path id="Trazado_25647" data-name="Trazado 25647" d="M30.58,48.89h0v-.15l-.12.09C30.46,48.93,30.55,48.93,30.58,48.89Z" transform="translate(-4.65 -6.37)" fill="#1f7762"/>
  <path id="Trazado_25648" data-name="Trazado 25648" d="M30.43,48.8v-.34h0C30.4,48.62,30.33,48.8,30.43,48.8Z" transform="translate(-4.65 -6.37)" fill="#1f7762"/>
  <path id="Trazado_25649" data-name="Trazado 25649" d="M30.43,48.8c-.07,0,0-.18,0-.37-.06.19-.1.37-.22.74a3.44,3.44,0,0,0,.34-.28S30.46,48.93,30.43,48.8Z" transform="translate(-4.65 -6.37)" fill="#1f7762"/>
  <path id="Trazado_25650" data-name="Trazado 25650" d="M30.43,48.8l.12-.09-.09-.25a1.31,1.31,0,0,0-.03.34Z" transform="translate(-4.65 -6.37)" fill="#1f7762"/>
  <path id="Trazado_25651" data-name="Trazado 25651" d="M28.29,50.1c.06-.15.12-.34.18-.55-.25.21-.34.27-.34.31a1.34,1.34,0,0,0,.09.31Z" transform="translate(-4.65 -6.37)" fill="#1f7762"/>
  <path id="Trazado_25652" data-name="Trazado 25652" d="M28.29,50.1v.19C28.29,50.35,28.32,50.07,28.29,50.1Z" transform="translate(-4.65 -6.37)" fill="#1f7762"/>
  <path id="Trazado_25653" data-name="Trazado 25653" d="M28.29,50.1l-.07.07v.06C28.22,50.29,28.29,50.17,28.29,50.1Z" transform="translate(-4.65 -6.37)" fill="#1f7762"/>
  <path id="Trazado_25654" data-name="Trazado 25654" d="M28.25,50.29c.07-.19.1-.37.22-.74-.06.21-.15.4-.18.55C28.32,50.07,28.29,50.2,28.25,50.29Z" transform="translate(-4.65 -6.37)" fill="#1f7762"/>
  <path id="Trazado_25655" data-name="Trazado 25655" d="M36.35,50h-.09v.31h.09Z" transform="translate(-4.65 -6.37)" fill="#1f7762"/>
  <path id="Trazado_25656" data-name="Trazado 25656" d="M35.73,48.12h-.09v.31h.09Z" transform="translate(-4.65 -6.37)" fill="#1f7762"/>
  <path id="Trazado_25657" data-name="Trazado 25657" d="M39.55,74.11h0a2.62,2.62,0,0,1-.22-.25l-.09.1a.67.67,0,0,0,.28.18Z" transform="translate(-4.65 -6.37)" fill="#1f7762"/>
  <path id="Trazado_25658" data-name="Trazado 25658" d="M39.27,73.93c.09.06.15.15.24.21h0A2.762,2.762,0,0,0,39.27,73.93Z" transform="translate(-4.65 -6.37)" fill="#1f7762"/>
  <path id="Trazado_25659" data-name="Trazado 25659" d="M38.43,74.42h.09v-.31h-.09Z" transform="translate(-4.65 -6.37)" fill="#1f7762"/>
  <path id="Trazado_25660" data-name="Trazado 25660" d="M39.67,74.36a.75.75,0,0,1,.22-.25h-.31A1.72,1.72,0,0,0,39.67,74.36Z" transform="translate(-4.65 -6.37)" fill="#1f7762"/>
  <path id="Trazado_25661" data-name="Trazado 25661" d="M39.55,74.11Z" transform="translate(-4.65 -6.37)" fill="#1f7762"/>
  <path id="Trazado_25662" data-name="Trazado 25662" d="M41.41,75h0c-.1.06-.16.16-.25.22l.09.09c.06-.09.16-.15.19-.28Z" transform="translate(-4.65 -6.37)" fill="#1f7762"/>
  <path id="Trazado_25663" data-name="Trazado 25663" d="M41.44,75.07Z" transform="translate(-4.65 -6.37)" fill="#1f7762"/>
  <path id="Trazado_25664" data-name="Trazado 25664" d="M41.41,75Z" transform="translate(-4.65 -6.37)" fill="#1f7762"/>
  <path id="Trazado_25665" data-name="Trazado 25665" d="M41.44,75.07Z" transform="translate(-4.65 -6.37)" fill="#1f7762"/>
  <path id="Trazado_25666" data-name="Trazado 25666" d="M41.22,75.32c.06-.09.16-.15.22-.25h0C41.38,75.17,41.28,75.23,41.22,75.32Z" transform="translate(-4.65 -6.37)" fill="#1f7762"/>
  <path id="Trazado_25667" data-name="Trazado 25667" d="M41.41,75Z" transform="translate(-4.65 -6.37)" fill="#1f7762"/>
  <path id="Trazado_25668" data-name="Trazado 25668" d="M42,75.26h.31v-.09H42Z" transform="translate(-4.65 -6.37)" fill="#1f7762"/>
  <path id="Trazado_25669" data-name="Trazado 25669" d="M18.89,78.11h0a5.969,5.969,0,0,0-.13-1l-.49,1A4.281,4.281,0,0,0,18.89,78.11Z" transform="translate(-4.65 -6.37)" fill="#1f7762"/>
  <path id="Trazado_25670" data-name="Trazado 25670" d="M18.27,78.11a3.82,3.82,0,0,0,.59,0h0a4.281,4.281,0,0,1-.59,0Z" transform="translate(-4.65 -6.37)" fill="#1f7762"/>
  <path id="Trazado_25671" data-name="Trazado 25671" d="M23.39,76.28h-.1v.31h.1Z" transform="translate(-4.65 -6.37)" fill="#1f7762"/>
  <ellipse id="Elipse_714" data-name="Elipse 714" cx="0.22" cy="0.06" rx="0.22" ry="0.06" transform="translate(17.83 70.63)" fill="#1f7762"/>
  <path id="Trazado_25672" data-name="Trazado 25672" d="M18.86,78.14h0l.18.28.1-.09c-.1-.06-.16-.15-.25-.15S18.86,78.14,18.86,78.14Z" transform="translate(-4.65 -6.37)" fill="#1f7762"/>
  <path id="Trazado_25673" data-name="Trazado 25673" d="M18.89,78.14l.25.16c-.1-.06-.16-.16-.25-.22Z" transform="translate(-4.65 -6.37)" fill="#1f7762"/>
  <path id="Trazado_25674" data-name="Trazado 25674" d="M18.89,78.11Z" transform="translate(-4.65 -6.37)" fill="#1f7762"/>
  <path id="Trazado_25675" data-name="Trazado 25675" d="M19.07,73.74a8.909,8.909,0,0,1-.77.78c.53-.13.68-.16.87-.19a2,2,0,0,0-.1-.59Z" transform="translate(-4.65 -6.37)" fill="#1f7762"/>
  <path id="Trazado_25676" data-name="Trazado 25676" d="M36.57,63.29h.18a1.1,1.1,0,0,0-.18-.59h-.13a4.9,4.9,0,0,0,.13.59Z" transform="translate(-4.65 -6.37)" fill="#1f7762"/>
  <path id="Trazado_25677" data-name="Trazado 25677" d="M36.69,62.67h-.15a.89.89,0,0,1,.18.59,1.94,1.94,0,0,0-.03-.59Z" transform="translate(-4.65 -6.37)" fill="#1f7762"/>
</svg>
