<svg id="Calavera_quesadilla" xmlns="http://www.w3.org/2000/svg" width="57.66" height="79.081" viewBox="0 0 57.66 79.081">
  <path id="Trazado_24376" data-name="Trazado 24376" d="M23,56.75v-.08a.68.68,0,0,1-.12.23h0A.52.52,0,0,1,23,56.75Z" transform="translate(-0.77 -6.719)" fill="#1f7762"/>
  <path id="Trazado_24377" data-name="Trazado 24377" d="M10.47,28l-.34-.15a.2.2,0,0,0-.19.08h0c.11.07.19.15.27.19a.15.15,0,0,0,0-.12Z" transform="translate(-0.77 -6.719)" fill="#1f7762"/>
  <path id="Trazado_24378" data-name="Trazado 24378" d="M16.71,30.5Z" transform="translate(-0.77 -6.719)" fill="#1f7762"/>
  <path id="Trazado_24379" data-name="Trazado 24379" d="M9.29,56.06a24,24,0,0,1,3-2,14.14,14.14,0,0,1,1.56-.57,7.24,7.24,0,0,1,1.75-.54,13.219,13.219,0,0,0,1.78,0,5.88,5.88,0,0,1,1.56-.27,3,3,0,0,0,1.15-.08c.49-.15,1.1.23,1.48-.34.34.38.64,0,.95,0a4.47,4.47,0,0,1,1,.27l1.67-.38a1.7,1.7,0,0,1,.23.34,2.3,2.3,0,0,1,.3.88,10.16,10.16,0,0,1,0,1.55c-.07.08-.15.12-.19.19s0,0,0,.08a3.1,3.1,0,0,0-.22.65c-.27-.27-.54-.5-.73-.69a2.93,2.93,0,0,1-.61.31c-1.14.15-2.28.26-3.42.42a2.654,2.654,0,0,1-.11.26h.72v.68l-.83-.53c0-.07.11-.11.15-.19-.31.08-.61.15-.95.27l-.35-.69a7.3,7.3,0,0,1-.72.38c-.11-.07-.23-.19-.42-.3-.07.42-.11.76-.19,1.25-.19-.38-.3-.64-.45-.95-.54.19-1,.38-1.52.54.26.64.53,1.21.95,2.16.34.27,1,.8,1.71,1.3.15-.12.34-.27.57-.42C20.4,61,22.37,60.7,24,61.46c0-.53.12-1,.15-1.4h.65c.23-.31.46-.61.76-1a14.85,14.85,0,0,0-1.6-1.49h-.15a2.282,2.282,0,0,0-.07-.68h.22a5.57,5.57,0,0,0,.16.72H25.3a.28.28,0,0,1,.19.23v.61a.32.32,0,0,0,.35.23v.08h0a11,11,0,0,0,0-1.11,6,6,0,0,1,.69-.07c-.23.45-.42.8-.69,1.29v-.11h0a6.209,6.209,0,0,0,0,.8c.22.12.45.23.79.38-.68.31-1.29.08-1.9.16-.11.19-.23.38-.3.53.26.3.57.61.84.91.11-.11.22-.27.26-.27,1.07.46,2.17.16,3.23.27.42,0,.92-.11,1.22.08.91.53,1.79.22,2.78.22-.65-1-1.14-1.14-2-.68-1-.68-2-.3-2.93,0l-.53-.53c.12-.12.23-.27.31-.35-.23-.45-.46-.91-.69-1.33.19-.26.3-.49.46-.72a2.42,2.42,0,0,1-.38-.46c.11-.23.26-.45.38-.68-.35-.34-.61-.65-.8-.84.15-.49.38-.83.34-1.14,0-.49-.49-1-.08-1.48-.53-.76-.15-1.49,0-2.28a12.48,12.48,0,0,0,.19-2.48c0-.15.19-.26.27-.41A2.08,2.08,0,0,1,27,46.4c.22-.68-.16-1.25,0-1.86.15-.8-.42-1.41-.46-2.17,0-.11-.15-.3-.11-.38.38-.46-.31-.76-.15-1.22a1.65,1.65,0,0,0-.31-1.29c-.23-.34,0-.95-.11-1.41-.15-.64-.72-1.33-.57-1.86.19-.69-.27-1.26-.12-1.9h0q-.16-.23-.45-.57L26,33.55c-.11-.46-.23-.8-.34-1.26,0-.07.19-.23.3-.42-.15-.3-.3-.53-.45-.83.6-.65,1.17-1.33,1.9-2.13V27.84a2.351,2.351,0,0,1,.64.12c-.15.3-.3.53-.49.95H29c.38.83-.23,1.56.08,2.32s0,1.59.15,2.47l.57-.57c-1-1,.69-2,0-2.85l.8-.8a3.86,3.86,0,0,1,.76-2.78c-.3-.3-.53-.57-.76-.8.27-.3.53-.61.76-.91-.34-.46-.61-.84-.91-1.22.34-.15.57-.26,1-.49h0c-.69-.08-1.14-.11-1.56-.15-.08-.31-.12-.46-.27-1.1-.27,1.52-1.29.91-1.9,1.33s-1.67-.16-2.28.57l-1.87-.5c.65-.42,1.11-.76,1.6-1.06-.15-.15-.26-.31-.38-.42.12-.11.23-.27.27-.27a9.6,9.6,0,0,0-.27-1c.34.07.5.07.69.11,0,.61.07,1.18.11,1.75.34-.87,1.37-.42,1.75-1.06H26.25V20.35h0a1.83,1.83,0,0,1-.3-.27l.11-.11a2.44,2.44,0,0,0,.27.3h0c.19-.11.38-.23.46-.26.38.11.68.19,1,.26a.79.79,0,0,1,.38-.91.9.9,0,0,1,.3-.11v.53a4.53,4.53,0,0,1,.11.49l.57-.11c-.15-.23-.22-.42-.34-.57.38-1.22,1.68-2.17.84-3.58a1,1,0,0,1,1.29-.34c.91.38,1.87.65,2.85,1a2.969,2.969,0,0,1,.08-.53c-.84-.38-1.67-.73-2.47-1.11a1.87,1.87,0,0,0-2.59.88c-.49.76-.23,1.6-.38,2.36-.49.38-1,1.1-1.52,1.06a1.74,1.74,0,0,0-1.52.5c-.46-.54-1-.42-1.6-.23-.23.07-.45.15-.76.23.31-.65.53-1.15.84-1.72-1.56-.45-1.71-1.9-2.4-3A3.68,3.68,0,0,1,21.54,11l1.29-1.29H24a3.25,3.25,0,0,1,2.89-1.48l.76-.76a12.1,12.1,0,0,0,1.26.26c.38,0,.61.65,1.14.27.19-.15.68.11,1.06.23a6.74,6.74,0,0,1,1.26.45,7.79,7.79,0,0,1,1.14.76c.38.23.76.46,1.18.73v.68c.68.72,1.29,1.29,1.86,1.9-.19,1.29-.34,2.47-.49,3.54a4.08,4.08,0,0,0-.69.57c-.19.19-.38.68-.49.65a1,1,0,0,0-1,.26c-.27.27-.46.65-.72.91a1.87,1.87,0,0,0,1,.39,1.56,1.56,0,0,0,.42-.08,8.52,8.52,0,0,0,1.26-.65l.22-.45c.12-.27.23-.5.38-.8.19-.46.42-.92.69-1.49,0-.15-.11-.91.19-1.14.61-.49-.3-.87.08-1.33.15-.19-.16-1-.5-1.29a1.81,1.81,0,0,1-.49-1.18c-1.22-1.79-3-2.24-4.53-3.12a3.06,3.06,0,0,1-.3.31,11.28,11.28,0,0,0-1.33-.69A2.054,2.054,0,0,0,28.92,7c-.65.42-.92-.5-1.45-.23h-.19c-1.06.61-2.39.76-3.23,1.75a1.18,1.18,0,0,1-.57.38,3.91,3.91,0,0,0-2.7,2.13c-.12.23-.46.34-.53.38v3.42c.76,1,.72,2.21,1.1,3.27s.68,2,1,3,.58,2.17.92,3.35a26.42,26.42,0,0,0,5.55-.69c.46.34.84.61,1.07.76.22,1.45.79,2.66.22,4.07-.34-.27-.61-.46-.91-.68V27.2a10.63,10.63,0,0,0-1.22-.38,4.63,4.63,0,0,1-1.4.22,4.81,4.81,0,0,0-2.55.46,2.67,2.67,0,0,1-1.48.23,2.94,2.94,0,0,0-1.45,0c-.11-.27-.19-.5-.3-.76-.38.11-.76.19-1.22.3-.31-.23-.88-.34-1-.91-.3.26-.61.49-1.07.91-.3-.65-.53-1.14-.72-1.6l-.53.65c0,.27.19.68-.34.72,0,.31-.15.76.45.72.08,0,.19.23.27.35l.65-.8v2.2h-.88a3.747,3.747,0,0,1-.15.8h.76a1.83,1.83,0,0,1,.27-.3l.11.11a1.83,1.83,0,0,0-.3.27h0c-.19.15-.46.27-.61.42a3.879,3.879,0,0,0-.42,1V29l.69.35V28.22l-.92.5c-.11-.23-.22-.54-.34-.84h0a.71.71,0,0,1,.15-.15l-.34-.57h-1V25.71h.15a7.148,7.148,0,0,0,.19,1.07c.19-.12.35-.19.61-.34a2.127,2.127,0,0,0,.08.72h.72c0-.27-.19-.69.34-.72V25.07a13.6,13.6,0,0,1-1.37-.46c-.95-.53-2-1-2.2-2.32a.93.93,0,0,0-.65-.87c-.8.38-1.44.72-2.09,1h0l-.19-.19L9.6,22a1.23,1.23,0,0,0,.3-1.37,1.72,1.72,0,0,0-.3-.46c.68-.57.07-1.41.38-2a5.64,5.64,0,0,0,.34-2c.11-.65.72-1.22.08-2a12.34,12.34,0,0,0-.4,2.15,3.85,3.85,0,0,1-.84,2.13c.34-1.79.61-3.23.84-4.41.49-.31.76-.5,1.14-.76-.34-.73.38-1.75-.8-2.4-.19.84-.34,1.6-.53,2.51-.84.53-.65,1.71-1.11,2.55-.15-.12-.26-.23-.38-.34A4.31,4.31,0,0,1,8.49,18c-.41-.26-.76-.53-.87-.61-.31-1.52-.53-2.73-.76-4,.23-.34.34-.84.95-1-.19-.53-.38-1-.57-1.6l-.08.08c-.26.38.15.95-.45,1h0a2.44,2.44,0,0,1-.27.3l-.11-.11a2.44,2.44,0,0,0,.3-.27h0c0-.65-.15-1.3.42-1.75C6.4,9.4,6.78,8.52,6.63,7.8c-.19-.23-.34-.42-.49-.57l-.65.65a27.67,27.67,0,0,1,.42,3.19c.07,1.48,0,3,0,4.53v.07l.11.23c.19.08.38.11.61.19-.12.19-.31.34-.31.46s.23.26.27.42a2.34,2.34,0,0,1,0,.53V18l.11.42c.23-.15.42-.31.5-.34.53.49,1,.95,1.52,1.44-.15.91.87,1.87.19,2.89h-.8a2.36,2.36,0,0,0-1.18-2.32c-1.14-.64-1.52-1.75-2.09-2.74,0,0,.08-.19.12-.26.26.11.57.23,1,.38.07-1.22-.8-1.9-.92-2.89a7.62,7.62,0,0,0-.87-2.89A13.15,13.15,0,0,1,3.25,8.9c-.54.23-.92.42-1.3.61.91,1.67,1.75,3.23,2.7,4.91a2.174,2.174,0,0,0-.76.07,4.17,4.17,0,0,1-.23-.72H2.83c-.5-.57-1-1.18-1.56-1.86-.15.11-.31.26-.5.42.8.91,1.52,1.74,2.36,2.66a7.14,7.14,0,0,1-.8.45c.46.57.92,1.07,1.33,1.64a8.45,8.45,0,0,1,.65,1A42.56,42.56,0,0,0,6.74,22a4.19,4.19,0,0,1,.42,1c-.49.34-.87.57-1.21.8,0,1.37,1.48,1.52,1.9,2.51A9.35,9.35,0,0,0,10.13,29c.8.84,1.6,1.64,2.43,2.44s1.79,1.48,2.74,2.28a5.73,5.73,0,0,1,2.51.95l.27-.27c.11.12.26.31.42.35.91.22,1.67.87,2.7.91a3.89,3.89,0,0,1,2.66.84c.23-.16.42-.27.68-.42.23.26.42.45.5.57.42,3.53,1,6.92,1.29,10.3,0,.08.15.16.27.27-1,.57,0,1.22,0,1.6l-.35.64.65.16c-.27.6-.49,1.14-.72,1.71l-.76-.42c-.19.19-.34.3-.46.42-.11-.12-.27-.23-.23-.19a6.14,6.14,0,0,1-1.25.19c-2.25-.23-4.45.38-6.73.42a5.29,5.29,0,0,0-2.32.45c-1.6.8-3.54,1-4.8,2.4-.76.07-.83.8-1,1.25A3.3,3.3,0,0,0,8.23,58a8.39,8.39,0,0,0,1.21,3.12H10c-.19-1.29-.38-2.58-.57-3.92C9,57.05,9.1,56.67,9.29,56.06Zm8.83,2.47a6.891,6.891,0,0,1-.69-.45,6.314,6.314,0,0,0,.69-.12ZM18.19,57c.15,0,.38-.07.65-.11v1.37C18.5,57.62,18.34,57.35,18.19,57Zm.65,2.36h-.19a4.472,4.472,0,0,0-.15-.95.71.71,0,0,0,.3,0,8.189,8.189,0,0,1,.04.96Zm3.31-2.51a1.6,1.6,0,0,0,.22-.27c0,.12.08.19.12.31h.3l.12-.23a.7.7,0,0,1-.08-.27s.12-.11.42-.38a7,7,0,0,1-.27.88s0-.12,0-.15a.39.39,0,0,0-.12.15c-.07.11-.15.19-.23.3a.912.912,0,0,0-.11-.3,1,1,0,0,1-.34,0,4.17,4.17,0,0,0,0,.68c-.08,0-.12.08-.19.12a7.251,7.251,0,0,1-.15-.72,1.77,1.77,0,0,1,.31-.11Zm-2.06,0h.12v.34h-.12Zm-.42,2.55a3.91,3.91,0,0,1,.16-.54c-.08-.22-.16-.57-.27-.91-.08-.07-.19-.15-.27-.23l.12-.11a1.74,1.74,0,0,0,.26.3h.64a8.048,8.048,0,0,0,.08,1.37,4.06,4.06,0,0,0-.72.17Zm2.74.68c-.49.12-1-.3-.95-.57.08-.68-.64-.34-.76-.8l1.64-1c-.31.72-.46,1.06-.57,1.4.38.27.76.5,1.21.8a2.67,2.67,0,0,1-.57.22Zm.73-1.44h-.57a4.391,4.391,0,0,0-.08-1l.65-.12Zm1.55-.08c-.41,1.1-.41,1.1-1.44,1.06a14.858,14.858,0,0,0,1.44-1.01Zm1.64,2.24h-.11v-.34h.11ZM35,18.6h-.11v-.34H35ZM23,20.73c.54.19.84.19,1,.38s.27.31-.11,1.48C23.55,21.87,23.36,21.45,23,20.73ZM28.38,28h.12v.35h-.12ZM26,28.41a.4.4,0,0,0,0,.19,4.15,4.15,0,0,0-.6.16v-.31a3.34,3.34,0,0,1,.6-.04Zm-.12,1.07a7.83,7.83,0,0,1-.45.68,5.8,5.8,0,0,0-.12-.68ZM6.1,14.65H6V14.3h.1Zm-3,.26c.27.5.46.91.8,1.64-.96-.42-1.04-.92-.77-1.64Zm4.1,8.75H7.09v-.34H7.2ZM7.69,25H7.35v-.11h.34Zm5.48.91h.19a5.39,5.39,0,0,0,.15,1,.71.71,0,0,0-.3,0,8.45,8.45,0,0,1-.04-1.01Zm-.23-1.4c.12.53.12.53-.76.49.38-.24.61-.39.76-.5Zm-.61,1.78v.57H11.27c.57-.31.8-.42,1.06-.58ZM12,23.73c-.27.84-.38,1.3-.53,1.79-.15-.34-.31-.61-.5-1C11.19,24.34,11.5,24.15,12,23.73Zm-3.76,1a2.14,2.14,0,0,1,0-1.82c.07.23.11.45.19.68l.22-.15a4.35,4.35,0,0,0-.3.69.93.93,0,0,1-.08.59Zm.57,2.13v-.6a.34.34,0,0,0,.19,0,2.4,2.4,0,0,0,.15.57.75.75,0,0,1-.31.02Zm1.48,1.87-.12-.57A1.09,1.09,0,0,0,9.94,28a2,2,0,0,0-.23.07s-.11-.11-.38-.42c.42.12.65.19.84.23H10.1l.34.15a2.039,2.039,0,0,0,.08.69c-.05-.04-.12,0-.2,0Zm.57-2.17h-.34v.3H9.45a.49.49,0,0,0,0-.23l1-.11c-.23-.65-.64-.72-1.18-.69l-.6-1.21c.19-.42.38-.88.68-1.56.08.57.15.91.19,1.25h.15a7.685,7.685,0,0,1,.19-1,6.813,6.813,0,0,0,1.07-.07c-.19.26-.34.49-.5.72s-.42.61-.61.87a1.86,1.86,0,0,1,.88.92,1.76,1.76,0,0,1,.15.49c.08,0,.08.15,0,.23h.3a1.953,1.953,0,0,0,.08.68h-.23c-.02-.15-.09-.33-.13-.6Zm.91,1.79.34.34,1.15-.57a7.034,7.034,0,0,0-1.5-.12l-.11-.46c.8-.8,1.18.42,1.83.15v.84a4.13,4.13,0,0,1-2.25,1.22Zm.12,2.16c.3-.34.49-.53.79-.83l.65.83Zm1.82.35a.44.44,0,0,0-.19,0,3.16,3.16,0,0,0-.11-.6.78.78,0,0,0,.3,0Zm1.45,1.4-.16.12c-.07-.27-.19-.53-.22-.72h.38Zm-1-2a5.8,5.8,0,0,0,.68-.12v.61a4.18,4.18,0,0,0-.68-.51Zm.08-.46v-2c.41.8.68,1.34,1,2Zm1.52,2.74c.38-.42.64-.72,1.14-1.22.07.61.15.95.19,1.22Zm1.56,1.26H17.2v-.35h.12Zm6.39-5.06h.11v.34h-.11ZM23,30c.19.08.45.19.91.42l-.91.15Zm-3-2.2h.34v.11H20Zm-.9,6.7H19v-.34h.11Zm1.18,0h-.19a6.25,6.25,0,0,0-.15-1,.73.73,0,0,0,.31,0c.03.31.03.62.03.96Zm1.18.46a1.74,1.74,0,0,1-.26.3h0l-.12-.11L21.2,35a6.62,6.62,0,0,0-.88-1.06c.65-.08.95-.12,1.37-.15a7.633,7.633,0,0,0,.08,1.25,3.09,3.09,0,0,1-.42-.34.61.61,0,0,1,.11.22Zm2.06.6a.31.31,0,0,0-.19,0,3.29,3.29,0,0,0-.12-.61h.31Zm.76-2.39c-.38.46-.35,1.25-1.18,1.41a4.59,4.59,0,0,0-.61-.92,5.63,5.63,0,0,0-.72-.57c-.31.08-.61.15-1,.27V32h.64a2.42,2.42,0,0,1,.35-1.64l-.5-.49c-.19.49-.42,1-.64,1.48-.23-.19-.38-.3-.69-.57.12.61.15,1,.27,1.6a5.489,5.489,0,0,1-.31.65c-.76,0-1.21.83-1.94,1.33a2.61,2.61,0,0,1-.07-.42c0-.72.8-.69,1-1.22-.27,0-.65.15-.69-.34l-.72.42V31.2c0-.11.23-.19.34-.27-.19-.95.34-1.93-.42-2.89.8.19,1.41.31,2.25.5a2.29,2.29,0,0,1,.26.34c.08.12,0,.31.08.65a3.1,3.1,0,0,1-.5-.38c-.41.38-1.29.3-1.29,1.48.27-.19.42-.3.61-.46a3.211,3.211,0,0,0,.15.69h-1.1a2,2,0,0,0,.34,1.52c.5,0,.34-.42.34-.68h0a2.49,2.49,0,0,1-.31-.27l.12-.11a1.74,1.74,0,0,0,.26.3h0l.69.42V30.62l1.06-.12v-1c.84,0,1.52-.23,1.68-1.11.26.31.49.61.8.92a4.85,4.85,0,0,0-.65.3l.46,1c-.16.19-.27.3-.42.45.22.12.49.23.8.38-.16.27-.27.5-.46.84h.68v-.3h1.07a.63.63,0,0,0,0,.23,7.73,7.73,0,0,0-1.06.15h0c-.08.3-.15.61-.27,1l.42.42c.19-.27.34-.54.53-.84l.23-.34c.04.26.19.49.12.53Zm.15-4.41h.11v.34h-.11Zm.8,27.87a1,1,0,0,0-.12.19c-.26.08-.45.12-.72.19a3.6,3.6,0,0,0-.11-.95c.26.23.41.38.57.54v-.08c.45-.34.72-.27.91,0a1.81,1.81,0,0,1,.27.5Z" transform="translate(-0.77 -6.719)" fill="#1f7762"/>
  <path id="Trazado_24380" data-name="Trazado 24380" d="M23.21,32.33V32.3Z" transform="translate(-0.77 -6.719)" fill="#1f7762"/>
  <path id="Trazado_24381" data-name="Trazado 24381" d="M24.85,56.52a2.1,2.1,0,0,0,.26.23c0-.08.08-.12.12-.19a2.24,2.24,0,0,1-.38-.16Z" transform="translate(-0.77 -6.719)" fill="#1f7762"/>
  <path id="Trazado_24382" data-name="Trazado 24382" d="M21.2,35l.15-.15.07.08a.75.75,0,0,1-.07-.23l-1-.76A4.23,4.23,0,0,1,21.2,35Z" transform="translate(-0.77 -6.719)" fill="#1f7762"/>
  <path id="Trazado_24383" data-name="Trazado 24383" d="M36.26,17.38a8.34,8.34,0,0,1-.38.8A6.4,6.4,0,0,1,36.26,17.38Z" transform="translate(-0.77 -6.719)" fill="#1f7762"/>
  <path id="Trazado_24384" data-name="Trazado 24384" d="M20.44,55.87s-.08.19-.12.27h0C20.36,56.06,20.4,55.87,20.44,55.87Z" transform="translate(-0.77 -6.719)" fill="#1f7762"/>
  <path id="Trazado_24385" data-name="Trazado 24385" d="M35.65,18.64h0a6.92,6.92,0,0,1-1.26.65A8.52,8.52,0,0,0,35.65,18.64Z" transform="translate(-0.77 -6.719)" fill="#1f7762"/>
  <path id="Trazado_24386" data-name="Trazado 24386" d="M34.66,17.8a1,1,0,0,0-.95.27A1.21,1.21,0,0,1,34.66,17.8Z" transform="translate(-0.77 -6.719)" fill="#1f7762"/>
  <path id="Trazado_24387" data-name="Trazado 24387" d="M11.73,21.53c-.8.38-1.45.72-2.1,1h0A16.783,16.783,0,0,0,11.73,21.53Z" transform="translate(-0.77 -6.719)" fill="#1f7762"/>
  <path id="Trazado_24388" data-name="Trazado 24388" d="M5.53,15.82l.11.23a6.34,6.34,0,0,0,.61.19c-.19-.07-.38-.11-.61-.19Z" transform="translate(-0.77 -6.719)" fill="#1f7762"/>
  <path id="Trazado_24389" data-name="Trazado 24389" d="M20.32,56.18c-.3.07-.61.15-.95.26a8.39,8.39,0,0,1,.95-.26Z" transform="translate(-0.77 -6.719)" fill="#1f7762"/>
  <path id="Trazado_24390" data-name="Trazado 24390" d="M6.25,12.1h0c0-.65-.15-1.3.42-1.75C6.06,10.8,6.25,11.49,6.25,12.1Z" transform="translate(-0.77 -6.719)" fill="#1f7762"/>
  <path id="Trazado_24391" data-name="Trazado 24391" d="M9.14,22.06l.3.31-.3-.31a1.2,1.2,0,0,0,.3-1.37,1.2,1.2,0,0,1-.3,1.37Z" transform="translate(-0.77 -6.719)" fill="#1f7762"/>
  <path id="Trazado_24392" data-name="Trazado 24392" d="M34.43,19.29a2.45,2.45,0,0,1-.42.07A2.45,2.45,0,0,0,34.43,19.29Z" transform="translate(-0.77 -6.719)" fill="#1f7762"/>
  <path id="Trazado_24393" data-name="Trazado 24393" d="M25.08,36.4c.19-.69-.27-1.26-.08-1.86h0C24.81,35.14,25.27,35.68,25.08,36.4Z" transform="translate(-0.77 -6.719)" fill="#1f7762"/>
  <path id="Trazado_24394" data-name="Trazado 24394" d="M22.22,66.56h-.07v.07C22.15,66.6,22.18,66.6,22.22,66.56Z" transform="translate(-0.77 -6.719)" fill="#1f7762"/>
  <path id="Trazado_24395" data-name="Trazado 24395" d="M54.17,66c-1.18.26-.15,1.52-1,1.94l.15.15H54V66.33c.27.57.38.8.53,1.1h1.18v1.75H55.1a1.78,1.78,0,0,1-.26.31l-.12-.12a1.78,1.78,0,0,0,.31-.26h0c.12-.3.27-.6.46-1.06a4.93,4.93,0,0,0-.84,0h0c-.22.23-.49.42-.72.64l.38.84c-1.22-.15-1.1-1.25-1.56-1.79h-1.2c.53.23.72.35,1,.46,0,.42-.07.84-.11,1.33a5.281,5.281,0,0,1-.42-.38l-.46.27c0-.08-.11-.12-.15-.19.12-.23.27-.46.38-.69l-.45-.91L51,68l-.57-.34c0,.27.19.69-.34.72v.73h-.72c-.19.57-.8.45-1.18.72a2.27,2.27,0,0,0-.27-.34h0a2.44,2.44,0,0,1-.3-.27l.11-.11a1.83,1.83,0,0,0,.27.3l.68-.68a.235.235,0,0,1-.15-.08c-.08-.08-.23-.15-.19-.11l-1.41.15c-.07-.46-.15-.72-.19-1h-.26V69h-1a7.73,7.73,0,0,1-.13-1l-.65.38v.34h0A1.74,1.74,0,0,1,45,69l-.11.12a1.87,1.87,0,0,0-.27-.31h0l-.34-.35c-.19.12-.38.19-.65.35a5.449,5.449,0,0,0-.07-1.07c-.19.23-.38.46-.61.76-.08-.38-.12-.72-.19-1.1-.27.19-.53.38-.76.57.38.53.64,1,1.06,1.6-1.18-.31-1.21-1.37-2-1.9V69h-.23c-.08-.19-.15-.42-.27-.69a3,3,0,0,1-.45.35c-.12-.23-.27-.46-.46-.84.08-.08.27-.57.49-.57a3.07,3.07,0,0,0,1.3-.42v-1l-1.64.61c-.45-.23-.95-.45-1.52-.72A2.78,2.78,0,0,1,35.5,66c-.54.23-1,.42-1.72.72.19-.38.27-.57.38-.76a1.871,1.871,0,0,1-.64-.08c-.19.73-.42,1.41-.65,2.25-.11-.34-.19-.53-.3-.84-.15.31-.27.53-.38.8a1.1,1.1,0,0,1-.5-.08c.12-.3.23-.57.34-.87l-.79-.27a6.361,6.361,0,0,1,.72-.57c-.19-.23-.38-.45-.57-.72-.27.38-.57.76-.91,1.25-.27-.38-.46-.6-.65-.87h0c-.57-.23-1.14-.45-1.6-.61l-.57.27v.34c.27.23.57.5.8.72-.11.19-.15.27-.19.27a3.65,3.65,0,0,1-.53-.23c-.12.23-.23.57-.34.84l-.84-.5c-.27.65.57.88.68,1.41h-2a7.032,7.032,0,0,0-.15-1,1.82,1.82,0,0,0-.61.07c.11.23.19.38.26.5l-.41.53c-.23-.15-.42-.31-.57-.38L23,68.5a.53.53,0,0,0-.15-.19c.42-.53.84-1,1.14-1.45-.27-.87-.53-1.59-.8-2.47-.42.69-.95.53-1.37.53L21.5,66h.72a1.4,1.4,0,0,0,.08.64l.07-.07c.16.26.35.49.54.84h-.69a4.79,4.79,0,0,1,0-.72H21.5V66H20.1v-.61c.6-.15,1.17-.3,1.78-.49-.53-.8-1.14-.23-1.71-.08a3.61,3.61,0,0,0-.19-.5c-.68-.19-1.29-.34-1.86-.49A1.67,1.67,0,0,1,16,63.9a3.27,3.27,0,0,0-2-.46c-1.68-.8-3-1.6-4.45-2.17v.91a11.3,11.3,0,0,0,1.56,1.53c1.56,1.14,1.29,3.08,2.05,4.56.08.11,0,.38-.07.49-.42.42-.12,1.34-1,1.37,0,.69-.61.84-.88,1.26a.9.9,0,0,1-.15.23l.27.26c-.16.31-.27.57-.42.92l-1.33.11c.26,1.9-1.07,3-1.79,4.75A3.72,3.72,0,0,0,8,79.6c-.12.12-.19.19-.19.23.11.27.23.5.42.88l-.84.53a7.65,7.65,0,0,1,0,2.32c-.27.72.19,1.22.11,1.79.61.11,1.15.22,1.68.34.07,0,.19-.15.3-.23.15.15.23.27.31.34l.49-.49V84.09c-.8-.46-1.37-1.44-1-2.09a3.43,3.43,0,0,0,.31-1.33,21.149,21.149,0,0,1,.64-2.85,6.12,6.12,0,0,0,.46-2.21c1-1.33,2-2.51,2.85-3.84a5,5,0,0,0,.72-2.21,21.77,21.77,0,0,0,0-3.23.85.85,0,0,0-.19-.42c.08-.53.16-1,.23-1.33-.61-.23-.61-.23-.57-.84.53.16,1.07.31,1.6.5a8.651,8.651,0,0,0,1.6.49,5.53,5.53,0,0,0,1.52-.3c.42.87,1.33,1.29,1.37,2,1.25.92,2.58,1.41,3.19,2.51l2.93.88c.57-.23,1.22-.46,1.83-.69.38.38.72.8,1.1,1.18a5.77,5.77,0,0,1,2-.23,10.81,10.81,0,0,0,3.16.08h0a.65.65,0,0,0,.07-.23h0a1.74,1.74,0,0,1-.3-.26l.11-.12a2.49,2.49,0,0,0,.27.31h0c.38.11.88.45,1.07.3.76-.49,1.56-.27,2.36-.34a3.689,3.689,0,0,0,.34-.35l.61.46c-.08-.42-.08-.61-.16-1a6.37,6.37,0,0,1-3.53.5c.19-.35.34-.57.45-.8a1.71,1.71,0,0,0-1.06-.46h0a.58.58,0,0,1-.27.19c-.07-.72-.11-.91.23-1.14a2.41,2.41,0,0,1,.5-.23.228.228,0,0,0,.19-.07c-.35.53-.35,1.14-.65,1.25h0a1.4,1.4,0,0,1,.3-.15h0c.23-.11.5-.26.65-.34.53.19,1,.34,1.44.49.08.19.12.38.2.57H37v-.92h-.08c-.34-.19-.87.22-.95-.42h0a2.44,2.44,0,0,1-.3-.27L35.8,67l.23.3c.19-.23.34-.46.57-.72.38.49.72,1,1.1,1.41a6.15,6.15,0,0,0,.34-.84c.12.61.19,1,.23,1.22l.8-.42c.19.42.34.72.53,1.06l-.72.23a3,3,0,0,0,.15.57h3.81a6.82,6.82,0,0,1,2,0,4.32,4.32,0,0,0,1.72,0,2.48,2.48,0,0,1,.72,0,12.18,12.18,0,0,0,1.29.42c.42.08.53-.72,1-.15.34.42.83,0,1.25-.23.12,0,.31.19.46.19a2.1,2.1,0,0,0,.68-.19c.31-.15.5.68.84.11h3.42l.61.61h1.6V66c-.31-.16-.65-.35-1-.5C56.22,66.25,55.12,65.76,54.17,66ZM22.91,66a.34.34,0,0,0,.19,0,3.26,3.26,0,0,0,.11.61.78.78,0,0,0-.3,0ZM13,63.74h-.11V63.4H13ZM8.53,77.85h.12v.35H8.53Zm.53.54v1.29c-.26,0-.49-.11-.83-.15.3-.42.49-.69.83-1.14Zm-.41,3.08v.34H8.53v-.34ZM8.42,83h.34v.11H8.42Zm.68,1.18-.1.14A2.38,2.38,0,0,0,8.72,84a1.74,1.74,0,0,1-.3-.26l.11-.12a1.87,1.87,0,0,0,.27.31,3.975,3.975,0,0,1,.3.28Zm-.23-7.34c.46-.46.61-.65.88-.92a6.17,6.17,0,0,0,.15.69,10.12,10.12,0,0,1-1.03.26Zm2.29-2.63H11V73.9h.12Zm1.14-1.82h-.19v-.73h.19Zm1.06-6.51h-.19v-.72h.19Zm.38.46V67a.44.44,0,0,0-.19,0,3.159,3.159,0,0,0-.11-.6.88.88,0,0,1,.3-.03Zm7.3.15H20.7v-.11H21Zm4.57,2.66h-.12v-.34h.12ZM29.3,68c.38.6.61,1,.95,1.55-1.07-.3-1.9-.57-2.7-.79v-1.3c.8,0,1.44-.22,1.59-1.06.69.38,1.41.8,2.25,1.25-.38.38-.61.61-.8.84C30.17,68.31,29.83,68.19,29.3,68Zm2.43,1.55a1.83,1.83,0,0,0-.27-.3h-.61a.59.59,0,0,0-.15-.19c.23-.07.5-.19.72-.26a1.492,1.492,0,0,0,.08.45h0a2.44,2.44,0,0,1,.3.27Zm.5,0a6.55,6.55,0,0,1,.15-.84c.38.3.68.49,1.14.84Zm1.93-.69h.12v.34h-.12Zm4.53-1.48a.33.33,0,0,0-.19,0,4.343,4.343,0,0,0-.11-.61.78.78,0,0,0,.3,0Zm11.87,1.86h-.12V68.9h.12Zm5.66-1.82h.12v.34h-.12Zm.16,1.82h-.19V68.12h.19Zm1.17-.42a2.49,2.49,0,0,1,.31.27l-.12.11c-.07-.07-.15-.19-.22-.26-.35-.08-.5-.08-.73-.12.19-.6.38-1.14.69-2.09a17.85,17.85,0,0,0,.07,2.09Z" transform="translate(-0.77 -6.719)" fill="#1f7762"/>
  <path id="Trazado_24396" data-name="Trazado 24396" d="M48.5,68.8a.251.251,0,0,1-.15-.07C48.43,68.73,48.46,68.8,48.5,68.8Z" transform="translate(-0.77 -6.719)" fill="#1f7762"/>
  <path id="Trazado_24397" data-name="Trazado 24397" d="M34.05,69.91h0c.38.11.88.45,1.07.3C34.93,70.36,34.43,70,34.05,69.91Z" transform="translate(-0.77 -6.719)" fill="#1f7762"/>
  <path id="Trazado_24398" data-name="Trazado 24398" d="M55.46,68.08h-.8A4.74,4.74,0,0,1,55.46,68.08Z" transform="translate(-0.77 -6.719)" fill="#1f7762"/>
  <path id="Trazado_24399" data-name="Trazado 24399" d="M34.43,68.12c.34-.19.53-.27.65-.34A3.419,3.419,0,0,0,34.43,68.12Z" transform="translate(-0.77 -6.719)" fill="#1f7762"/>
  <path id="Trazado_24400" data-name="Trazado 24400" d="M55,69.18h0a10.39,10.39,0,0,1,.45-1.06C55.26,68.54,55.15,68.88,55,69.18Z" transform="translate(-0.77 -6.719)" fill="#1f7762"/>
  <path id="Trazado_24401" data-name="Trazado 24401" d="M34,70.17Z" transform="translate(-0.77 -6.719)" fill="#1f7762"/>
  <path id="Trazado_24402" data-name="Trazado 24402" d="M45.61,40.24v.95c-.49.23-1,.5-1.67.84a8.835,8.835,0,0,0,1,.49c-.53.38-1,.95-1.33.95-1.14,0-1.1.8-1.29,1.49-.31-.35-.61-.65-.92-1,.19-.16.34-.31.54-.46a3.39,3.39,0,0,1,.76-.3c-.69-.58-1.15-1-1.72-1.41a6,6,0,0,0-.22-.8,8,8,0,0,0-.61-.8,5.931,5.931,0,0,1,.45-.49c-.22-.08-.41-.16-.76-.27V38.11c-.26.19-.45.27-.68.42v-.61a3.17,3.17,0,0,0,.65-.27c-.19-.34-.38-.64-.58-1-1.25.57-1.06,2-1.86,2.77.15.19.23.31.34.46-.45.08-.76.15-1.1.19a1.74,1.74,0,0,0,0,.53v-.08l.64.65c-.15.19-.3.42-.64.8a14.059,14.059,0,0,0,0-1.41h0c-.11.08-.3.15-.34.27-.15.38-.27.79-.38,1.17.19.12.38.19.57.31a3.88,3.88,0,0,1,.42-.38,4.978,4.978,0,0,0,.11.8c.34-.35.72-.69,1.07-1-.12-.34-.27-.68-.42-1.1h1.59c-.15.72-.26,1.37-.41,2a1.08,1.08,0,0,1,.53.08c.15-.31.3-.61.46-.88-.23-.64-.42-1.33-.65-2h0a1.78,1.78,0,0,1-.31-.26l.12-.12a1.78,1.78,0,0,0,.26.31h.49c.27.57.57,1.14,1,2v1.26h0a1.87,1.87,0,0,1,.31.27l-.12.11a1.74,1.74,0,0,0-.26-.3h0c-.23.15-.46.34-.8.57a2.1,2.1,0,0,1,1.59,1.36,5.351,5.351,0,0,1-.76.35c.38.26.73.53,1.11.8a.58.58,0,0,0,.23,0,4.71,4.71,0,0,0,.19-.64,2.93,2.93,0,0,0,.57,0V44.31a2.61,2.61,0,0,1,.3.19,3.93,3.93,0,0,1,.15-.68.83.83,0,0,1,.19.64c0,.15-.19.27-.34.5a.94.94,0,0,0,.84-.31.45.45,0,0,1,0-.23h0a4.249,4.249,0,0,1,.38-.35c-.12.46-.19.65-.27.88a.21.21,0,0,0-.07-.19l-.5,1.41c.8.76,1.75,1.59,1.45,2.92l1.14,1.14v1.15c.26.07.45.15.68.22-.15.16-.26.31-.45.54.64.57.53,1.59,1.18,2.2V53.13c.38.16.64.23.76.31.68-.12,1.33-.19,2.13-.31v-.61c-.31.08-.65.16-1,.27a11.771,11.771,0,0,1-.08-1.25.34.34,0,0,1-.19,0c-.07.3-.15.64-.3,1.14-.15-.38-.23-.57-.34-.8-.23.11-.46.27-.84.46a11.751,11.751,0,0,0-.15-1.41c.42-.19.76-.38,1.1-.53h0a1.87,1.87,0,0,1,.27-.31l.11.12a1.74,1.74,0,0,0-.3.26h0V51a11.252,11.252,0,0,1,1.52.08c-.19-.46-.3-.8-.53-1.33.19-.08.49-.23.72-.35,0,.38.08.92.11,1.45a7.469,7.469,0,0,1,.54.57l.22-.68c.08,0,.23,0,.23.07.19.42.35.8.54,1.26l.91.11a5.229,5.229,0,0,0-.31.69,5.751,5.751,0,0,0,0,.72c.12.07.35.19.35.26-.16.92.41,1.53.76,2.25h0a1.74,1.74,0,0,1,.3.26l-.11.12a2.49,2.49,0,0,0-.27-.31h0L53,56.4c-.34.23-.61.27-.69-.22-.19.11-.38.19-.64.34a4.07,4.07,0,0,1-.08-.72c-.34.49-.72,1-1.06,1.44.34.34.72.72,1.1,1.07s.46.41.76.68c-.23.19-.49.38-.76.57.42.27.76.5,1.41.95a8.88,8.88,0,0,0-2.1.15v.5l-.22.11c-.16-.3-.35-.57-.57-1-.23.46-.31.69-.5,1a5.7,5.7,0,0,1-.15-1.9h-.34v1.45l-.27-.08v-.08h0c0-.41-.26-.95.27-1.29v.08h0a.62.62,0,0,0,.26-.27l.12.3c.34-.15.68-.3,1.06-.49V57.35c-.68-.15-.23-.72-.34-1.06a4.851,4.851,0,0,1-.38.46,1.92,1.92,0,0,1-.34.26.35.35,0,0,0,.15.34h.15v1.07a.47.47,0,0,0-.23,0,10.189,10.189,0,0,0-.15-1.07h-.3a2.49,2.49,0,0,1-.27.31l-.12-.12a1.48,1.48,0,0,0,.31-.26h0l.34-.34a1.92,1.92,0,0,1-.23-.42,2.17,2.17,0,0,1-.15-.49c.46-.11.87-.46,1.14.19a6.761,6.761,0,0,0,.65-.46c-.12-.3-.23-.6-.42-1.06l1.18.57v.53h.72c-.34-.53-.65-1.06,0-1.63.08-.08,0-.35,0-.54H51.7a3.57,3.57,0,0,1,.3-.53s-.07-.15-.15-.15H50.48c.38.42.61.65.88.91-.65.57-1.15-.3-1.94-.38-.27.27-.54.5-1.11,1,.84.19,1.18.3,1.56.38,0,.07-.11.23-.15.23a12,12,0,0,0-1.22,0h0a1.74,1.74,0,0,1-.26.3l-.12-.11a2.491,2.491,0,0,0,.31-.27h0c-.15-.38-.26-.73-.41-1.11-.31.19-.5.27-.69.38.12,1.11-.26,2.25.42,3.35-.87.5,0,1.52-.68,2.17a2.16,2.16,0,0,1,0,2.13c1.59-.15,3,.19,4.49-.34a7,7,0,0,1,1.78,0,10.83,10.83,0,0,0,1.83-.38,6.56,6.56,0,0,0,1.25-.69c-1-.26-1.59-.38-2.39-.6.45-.46.83-.8,1.29-1.22h-.68a2.44,2.44,0,0,1-.27.3h-.12a1.831,1.831,0,0,0,.3-.27h0a4.38,4.38,0,0,0-.38-2.62c.19-.27.3-.42.34-.5a13.509,13.509,0,0,1-.65-2.58,3.32,3.32,0,0,0-1-2.36,1.94,1.94,0,0,0,.07-.61,24.07,24.07,0,0,0-1.21-2.55,1.88,1.88,0,0,0-1.15-1.25c.12-.16.23-.27.46-.54-.61-.8-1.25-1.63-1.82-2.39a10.251,10.251,0,0,0-.39-.95c-.34-.57-1-.73-1.55-1a1,1,0,0,1-.69-1.11l-.53.31A1,1,0,0,0,45.61,40.24Zm-4.22,2.59h.11v.34h-.11Zm6.47,18a.31.31,0,0,0,0-.19,3,3,0,0,0,.57-.16v.31a2.73,2.73,0,0,1-.57.03ZM47.74,56a5.429,5.429,0,0,1,.57-.19c.15.38.34.72.53,1.14A1,1,0,0,1,47.74,56Zm4.6,2.39h-.11V58h.11Zm1.49.35c-.92.19-.54-.84-.95-1a3.73,3.73,0,0,0-1.18-.12c.07-.3.15-.49.26-.91l1,.91a2.63,2.63,0,0,0,.84-.26Zm-1.6-8.29h.11v.34h-.11Zm-7.64-4.64h.6V47.5c-.26-.79-.41-1.21-.6-1.74Zm6.69,3.76c-.42-.3-.69-.49-1.1-.8.82-.05.82-.05,1.1.75ZM49.83,44.8a4.326,4.326,0,0,0,.12.84h-1.3C49.15,45.3,49.42,45.11,49.83,44.8Zm-1.25-1.63h.19v.72h-.19Zm-1.48-.61a2.43,2.43,0,0,0,.68,1.29v-1.4c.23.11.34.15.34.22v2.25a2.76,2.76,0,0,1-.53.07c-.23-.45-.46-1-.8-1.59-.42.34-.8.64-1.33,1,.3.12.46.16.8.27v1.67c.38-.49.53-.76.72-1a1.55,1.55,0,0,0-.23-.07,2.315,2.315,0,0,0-.07-.69h.23a4.52,4.52,0,0,0,.15.73h0c.3.15.57.3.87.42.5.15-.19,1,.57,1v-.64c.08,0,.12-.08.19-.12a7.252,7.252,0,0,1,.15.72,1.41,1.41,0,0,1-.34.08l.34.68h.54l.68-1.1.23.12c-.11.26-.19.57-.3.83.11.19.22.46.45.92-.45-.19-.64-.31-.87-.39a2.55,2.55,0,0,0-.73,0v.92c-.45.42-1,.87-1.63,1.52a3.659,3.659,0,0,0-.11-.72,1.043,1.043,0,0,1,0-.31h-.34c-.2,0-.39,0-.39-.38a2.41,2.41,0,0,0-.6-.42.265.265,0,0,0-.23.08c-.07.08-.12-.11-.38-.42.45.12.64.19.87.27h-.15a1.18,1.18,0,0,0,.15.11l.34.34c.77-.23.12-.95.54-1.44.15.3.34.57.45.83-.07.35-.19.69-.26,1,1.1.12,1-.8,1.21-1.44h.61V47.5c-.76.12-1-.38-1.18-1H46.3c-.69-.95-1.26-1.79-1.9-2.7.57-.27,1-.46,1.52-.69.11-.38.26-.83.38-1.29h0a1.87,1.87,0,0,1-.31-.27l.12-.11a1.74,1.74,0,0,0,.26.3h0a1,1,0,0,1,.73.82ZM45.61,46.9h.31v.61a.4.4,0,0,0-.19,0C45.69,47.28,45.65,47.09,45.61,46.9Z" transform="translate(-0.77 -6.719)" fill="#1f7762"/>
  <path id="Trazado_24403" data-name="Trazado 24403" d="M45.8,48.49h-.11a2.84,2.84,0,0,1,.61.42l-.3-.3a.19.19,0,0,0-.2-.12Z" transform="translate(-0.77 -6.719)" fill="#1f7762"/>
  <path id="Trazado_24404" data-name="Trazado 24404" d="M47.06,45.34h-.27a2,2,0,0,1,.23.07v-.07Z" transform="translate(-0.77 -6.719)" fill="#1f7762"/>
  <path id="Trazado_24405" data-name="Trazado 24405" d="M42.72,45.72h0a3.31,3.31,0,0,1-.57,0Z" transform="translate(-0.77 -6.719)" fill="#1f7762"/>
  <path id="Trazado_24406" data-name="Trazado 24406" d="M40.55,43.17h0a8.52,8.52,0,0,0-.79.61C40.06,43.55,40.29,43.36,40.55,43.17Z" transform="translate(-0.77 -6.719)" fill="#1f7762"/>
  <path id="Trazado_24407" data-name="Trazado 24407" d="M36.6,40.66h0c-.15.08-.31.15-.34.27C36.29,40.77,36.45,40.74,36.6,40.66Z" transform="translate(-0.77 -6.719)" fill="#1f7762"/>
  <path id="Trazado_24408" data-name="Trazado 24408" d="M54.66,58.69h0a4.33,4.33,0,0,0-.38-2.63,4.56,4.56,0,0,1,.38,2.63Z" transform="translate(-0.77 -6.719)" fill="#1f7762"/>
  <path id="Trazado_24409" data-name="Trazado 24409" d="M34.05,27.27a5.66,5.66,0,0,0,1.07-1.06c.38-.69,1.14-1,1.55-1.64.23-.34,1-.38,1.45-.53a10.259,10.259,0,0,0,1,.49v1.18l-.57.46c-.15.11-.3.23-.3.34h.15a2.315,2.315,0,0,0,.07.69h-.22a4.44,4.44,0,0,0-.16-.68c-.53.11-.22.53-.34.8a1.21,1.21,0,0,1-.19.23c-.11-.12-.26-.23-.38-.35-.15.31-.3.61-.57,1.07a6.38,6.38,0,0,0,.19,2.05,21.4,21.4,0,0,0,2.74,4.34v-1h0a2.38,2.38,0,0,1-.31-.27l.12-.11.23.3h0a1.13,1.13,0,0,1,.19-.19.33.33,0,0,0,.11-.23c-.11-.72-.3-1.4-.49-2.2-.35.19-.57.3-1,.53v-.72H37.7v-.61a2.45,2.45,0,0,0,.69-.07,4.79,4.79,0,0,1,0,.72c.45-.19,1-.38,1.33-.5-.08-.34-.15-.64-.23-.95h0a6.18,6.18,0,0,0-1,.34V28c.15.61,1.18.54,1,1.26h0a15.2,15.2,0,0,0,1.25-1c.27.19.57.42.92.65.11-.54.38-.42.68-.23,0,.68.08,1.37.08,2l.64-.38.46-.34a3,3,0,0,0,.3.34h0a1.87,1.87,0,0,1,.31.27l-.12.11a1.74,1.74,0,0,0-.26-.3h-.73a.85.85,0,0,0,.35.91c.34.23.41.54.68.38h.08c.08,0,.19-.34.26-.53v1.29a2.08,2.08,0,0,0-.72.12,3.13,3.13,0,0,0,.38-.92,4,4,0,0,0-.34.23v.27a.52.52,0,0,0-.27.07,1.88,1.88,0,0,0-.07.61h0a1.83,1.83,0,0,1,.3.27l-.11.11c-.08-.07-.16-.19-.23-.26a.17.17,0,0,0-.08.15l-.57.91h0a2.75,2.75,0,0,1,.65,2.36c-.46-.46-.95-.88-1.41-1.33a.75.75,0,0,0,0,.42c.12.34.53.57.72.87V38.1a2.936,2.936,0,0,1,.35.19v-1.4a2.55,2.55,0,0,1,2.16.73c.84-.73.88-.92.57-1.75-.07-.27-.15-.5-.22-.76h-.35c-.07.11-.15.19-.22.3,0-.11-.08-.19-.38-.11s-.12.07-.08,0h0c0,.07-.15.11-.23.19l-.65-.65a3.4,3.4,0,0,1,1.07,0c.46.26-.11.26-.19.42h.08a1.46,1.46,0,0,0,.3-.11h.35c.07-.11.15-.19.22-.3l.12.3L46,35c.27.23.57.54.92.88-.08.34-.19.76-.31,1.22h0l.69.68h.34a2.5,2.5,0,0,0,0-.95c-.11-.53-.34-1-.46-1.52a.741.741,0,0,1-.38-.08c-.16-.08-.11,0-.15,0V35c-.08-.68.15-1.48-.42-2.05a2,2,0,0,0-.3-.23h0a1.83,1.83,0,0,1-.27.3l-.11-.11a1.83,1.83,0,0,0,.3-.27h0v-1a4.2,4.2,0,0,0-.72-.22c.15-.23.3-.38.49-.65l-.76-.76c-.19-.23.08-.65-.15-.88a.52.52,0,0,0-.27-.07h0a1.74,1.74,0,0,1-.26.3l-.12-.11a1.87,1.87,0,0,0,.31-.27h0c-.42-.8-.92-1.52-.8-2.13-.54-.65-.84-1.1-1.18-1.45a5.13,5.13,0,0,0-1.49-1.17c-.45-.19-.72-.84-1.17-1.34-.84-.19-1.83-.38-2.86-.6-.23.15-.53.38-.87.6-.53.35-1.14.65-.91,1.45h.15a2.218,2.218,0,0,0,.07.68h-.22a3.442,3.442,0,0,0-.12-.64c-.72.38-.53,1.21-.87,1.71-.16-.12-.27-.23-.57-.46v.84C34.24,26.59,34,27,34.05,27.27Zm3.35,1.49a4.808,4.808,0,0,0-.23-1c.46.45.65.61.91.87a4.18,4.18,0,0,1-.68.13Zm7.76,7.07c.07.34.11.49.15.76H43.63c.58-.3.96-.49,1.53-.76Zm-1.3-1.41v-.61a.4.4,0,0,0,.19,0,3.189,3.189,0,0,0,.12.6.73.73,0,0,1-.31.01Zm1-1c.38.16.76.38,1.1.54,0,.83-.57.41-.91.57-.19-.42-.34-.69-.46-1,.11-.02.22-.14.3-.1Zm-1.67-5.06h.11v.35h-.11ZM42.08,27a.34.34,0,0,0,.19,0,3.26,3.26,0,0,0,.11.61h-.3Zm-.8,1.14h.34v.11h-.34ZM39.57,24h.19v.72h-.19Zm-.31,2.55h0a.66.66,0,0,1,.27.19h0v-.23c0-.3-.15-.76.46-.72a.98.98,0,0,0,.19-.19c.08-.11,0-.08.07-.12h0a1.74,1.74,0,0,1-.3-.26l.11-.12a1.87,1.87,0,0,0,.27.31h0c.11.16.3.27.34.42a4.9,4.9,0,0,1,0,.76,3.48,3.48,0,0,0,.68-.19v1.11c-.41-.35-.57-.46-.49-.65h-.19a6.779,6.779,0,0,1-.61-.34h-.23c.12.23.23.49.42.8l-.91,1a10.4,10.4,0,0,0-.08-1.63c-.08-.03-.04-.06,0-.1Zm-1.1-3.27h.11v.34h-.11Zm-1.83.34h.12V24h-.12Z" transform="translate(-0.77 -6.719)" fill="#1f7762"/>
  <path id="Trazado_24410" data-name="Trazado 24410" d="M44.62,35.41h-.07S44.47,35.49,44.62,35.41Z" transform="translate(-0.77 -6.719)" fill="#1f7762"/>
  <path id="Trazado_24411" data-name="Trazado 24411" d="M40,27.2l-.42-.42h0a4.159,4.159,0,0,0,.42.42Z" transform="translate(-0.77 -6.719)" fill="#1f7762"/>
  <path id="Trazado_24412" data-name="Trazado 24412" d="M40.1,27.39c-.19-.35-.31-.61-.42-.8h-.23a.45.45,0,0,1,0,.23l.42.41A.42.42,0,0,1,40.1,27.39Z" transform="translate(-0.77 -6.719)" fill="#1f7762"/>
  <path id="Trazado_24413" data-name="Trazado 24413" d="M40.74,27a1.93,1.93,0,0,1,.5-.46,3.7,3.7,0,0,1-.69.19v.23C40.63,26.93,40.71,26.93,40.74,27Z" transform="translate(-0.77 -6.719)" fill="#1f7762"/>
  <path id="Trazado_24414" data-name="Trazado 24414" d="M43.79,30.5Z" transform="translate(-0.77 -6.719)" fill="#1f7762"/>
  <path id="Trazado_24415" data-name="Trazado 24415" d="M43.82,32.06a.73.73,0,0,0-.26.35.42.42,0,0,1,.26-.08Z" transform="translate(-0.77 -6.719)" fill="#1f7762"/>
  <path id="Trazado_24416" data-name="Trazado 24416" d="M39.68,33.55l-.19.19A1.13,1.13,0,0,0,39.68,33.55Z" transform="translate(-0.77 -6.719)" fill="#1f7762"/>
  <path id="Trazado_24417" data-name="Trazado 24417" d="M38.39,30.88c.45-.19,1-.38,1.33-.53C39.34,30.54,38.88,30.69,38.39,30.88Z" transform="translate(-0.77 -6.719)" fill="#1f7762"/>
  <path id="Trazado_24418" data-name="Trazado 24418" d="M39.72,30.39c-.08-.3-.15-.61-.23-.95h0C39.57,29.74,39.64,30.05,39.72,30.39Z" transform="translate(-0.77 -6.719)" fill="#1f7762"/>
  <path id="Trazado_24419" data-name="Trazado 24419" d="M43.33,33.24c-.19.31-.42.61-.61.92h0a8.241,8.241,0,0,1,.61-.92Z" transform="translate(-0.77 -6.719)" fill="#1f7762"/>
  <path id="Trazado_24420" data-name="Trazado 24420" d="M46.72,35c-.08-.72.15-1.52-.42-2.05C46.83,33.47,46.64,34.27,46.72,35Z" transform="translate(-0.77 -6.719)" fill="#1f7762"/>
  <path id="Trazado_24421" data-name="Trazado 24421" d="M45,30.05c-.23-.23.11-.69-.16-.88C45,29.4,44.74,29.86,45,30.05Z" transform="translate(-0.77 -6.719)" fill="#1f7762"/>
  <path id="Trazado_24422" data-name="Trazado 24422" d="M47.74,36.78c-.11-.53-.34-1-.45-1.52a.705.705,0,0,1-.38-.08,1.52,1.52,0,0,0,.38.08C47.4,35.79,47.63,36.29,47.74,36.78Z" transform="translate(-0.77 -6.719)" fill="#1f7762"/>
  <path id="Trazado_24423" data-name="Trazado 24423" d="M44.51,29.06h0c-.42-.8-.91-1.52-.8-2.13C43.6,27.54,44.09,28.3,44.51,29.06Z" transform="translate(-0.77 -6.719)" fill="#1f7762"/>
  <path id="Trazado_24424" data-name="Trazado 24424" d="M28,76.75c-.35-.61,0-1.56-.8-2.17-.38.12-.8.27-1.33.46-.16-.91-1.11-1-1.56-1.6-.23.19-.35.38-.5.38-.38.08-.8.08-1.52.15a5.379,5.379,0,0,1-.34.65l-.34-.34c-.65.72-1.6,1.41-1.83,2.24-.3,1.11-1.37,1.56-1.52,2.7l.27.27c-.88.68.15,1.9-.73,2.59,0,1-.8,1.67-1,2.54.57.31.83-.19,1-.49.41-.91.76-1.86,1.1-2.78.42-1.18.76-2.39,2.09-2.89.53-1.25,1.06-2.55,1.6-3.72.34-.16.64-.27.95-.42a13.37,13.37,0,0,0,.15,1.4h.65v-1h.19c.11.23.19.45.3.68.12-.11.27-.23.46-.42.07.38.11.69.19,1.14h.64v-.64a.66.66,0,0,0,.19-.15c.08.22.19.49.27.72a2.9,2.9,0,0,0-.5.11v.92l.76.26c-.11.27-.22.57-.34.84a5.1,5.1,0,0,1,.38.49H26c-.16.65.45.88.76,1.33a5.25,5.25,0,0,1-.69,1.33c-.11-.07-.23-.11-.34-.19.11-.38.19-.76.34-1.21-.42-.31-.8-.57-1.25-.88.15-.23.3-.42.42-.57a8,8,0,0,1-.69-.53H23.9c-.07.57-.11,1-.15,1.37l-.45.11c-.31.88-.54,1.6-.88,2.63V85.5h2.7c1.37-1.18,1.41-3,2.32-4.34-.15-.87.46-1.48.65-1.94C27.93,78.2,28.38,77.47,28,76.75Zm-6.89,0h0c-.07.23.15.65-.38.68-.23.42-.38.88-1.22.57.46-.3.8-.49,1.11-.72.15-.11-.08-.53.42-.57h0a1.74,1.74,0,0,1,.26-.3l.12.11a1.87,1.87,0,0,1-.34.27Zm4,3.69h.34v.11H25ZM24.58,79v.61a.33.33,0,0,0-.19,0,4,4,0,0,0-.15-.57A.65.65,0,0,1,24.58,79Zm-.53,1.37h.11v.35h-.11Zm.07,4c.23-.23.38-.42.54-.58H24.5c-.15-.26-.34-.49-.53-.83h.69v.61h.23c.08.26.12.45.19.72-.27.03-.46.03-.96.11Zm1-1.56a.31.31,0,0,0,0-.19,3,3,0,0,0,.57-.16c0,.12,0,.19,0,.31a2.46,2.46,0,0,1-.61.07Zm-.61-.69-.5-1a1.79,1.79,0,0,1,.61,0c.19.08.27.38.53.08a1.088,1.088,0,0,1,.38.07c.15.07.42.16.65.27a1.522,1.522,0,0,1-1.71.61Zm3-4H27.4v-.35h.11Zm0-1.79H27.4v-.34h.11Z" transform="translate(-0.77 -6.719)" fill="#1f7762"/>
  <path id="Trazado_24425" data-name="Trazado 24425" d="M24.66,83.52v.08l-.19.19h.15c.07-.08.15-.19.23-.27a.16.16,0,0,1-.19,0Z" transform="translate(-0.77 -6.719)" fill="#1f7762"/>
  <path id="Trazado_24426" data-name="Trazado 24426" d="M21,76.71Z" transform="translate(-0.77 -6.719)" fill="#1f7762"/>
  <path id="Trazado_24427" data-name="Trazado 24427" d="M52.08,82c-.27-.72-.12-1.56-.46-2.2-.49-.88,0-1.75-.3-2.55-.76-.27-1.07-1.3-2.06-1.18-.64-.76-1.75,0-2.39-.72-.15.11-.27.3-.42.34-1.41.42-1.33,1.79-1.9,2.77.83.54-.19,1-.12,1.53a6.72,6.72,0,0,1-.26,1.67l.23.3c-.16.92-.23,1.56-.35,2.32.42.19.73.35,1.18.54V83c0-.46-.15-1.1.12-1.37.41-.49-.54-.87.11-1.33.34-.23.42-.91.49-1.37a9.131,9.131,0,0,1,.31-1.33c.19-.49.15-1,.65-1.14L48.46,78h0c.08.61.77,1.26,0,1.87.12,1.25-.3,2.58.35,3.72a11.831,11.831,0,0,0-.46,1.15c1.26-.19,2.24-.38,3.39-.57C51.51,83.44,52.42,82.84,52.08,82Zm-1.33-3a.44.44,0,0,0,.19,0,2.4,2.4,0,0,0,.15.57h-.31a3.57,3.57,0,0,1-.03-.57Zm-.54-.3c-.3-.42-.49-.68-.79-1.06.76.25.76.25.79,1.05Zm0,4.91a.94.94,0,0,1-.53-1.41,2.37,2.37,0,0,1,.53,0ZM49.76,81c-.23-1-.31-1.63.42-2.05C50.63,79.68,50,80.14,49.76,81Zm1,.76a2.53,2.53,0,0,0-.12-.53c.5-.27.76-.27.76.53Z" transform="translate(-0.77 -6.719)" fill="#1f7762"/>
  <path id="Trazado_24428" data-name="Trazado 24428" d="M36.56,43.89Z" transform="translate(-0.77 -6.719)" fill="#1f7762"/>
  <path id="Trazado_24429" data-name="Trazado 24429" d="M35.88,42.1c-1,.73-.65,1.79-.76,2.89.38.12.76.23,1.1.35l.34-1.07h-.65c0-.07-.07-.11-.11-.19.27-.07.57-.11.72-.15h0a2,2,0,0,0,.08.38.1.1,0,0,1,.07,0c.54.27.08.8.31,1.14v.08c.23.23.45.45.83.87H36.79c-.23.31-.42.53-.61.8v1.22c-.46,1-.76,1.67-1,2.36l.69.15c-.42.38-.8.72-1.18,1.1-.27,1.14.87,2.09.34,3.12-.57-.46-1.1-.88-1.67-1.37a2.41,2.41,0,0,0,0-.42h-1c.73,1.14,1.11,2.55,2.44,3,.34.73.68,1.37,1,2h.38c.57-.68-.08-1.29-.16-1.94s-.19-1.48-.26-2.21a4.19,4.19,0,0,0,.23-.91,4.5,4.5,0,0,1,1-3c.31-.34.31-1,.46-1.41.19-.64.34-1.29.46-1.86a7.94,7.94,0,0,1,.91-.61V45.37c-.23.2-.34.31-.49.42-.16-.22-.54-.45-.5-.64.12-.88-.49-1.49-.76-2.25H35.88ZM34.47,55.76a.31.31,0,0,0,0-.19,4,4,0,0,0,.57-.15v.3a2.38,2.38,0,0,1-.57.04Zm2.47-7.3H36.6v-.12h.34Zm-.27-.58a1,1,0,0,0,0-.3h.61a.42.42,0,0,0,0,.19Z" transform="translate(-0.77 -6.719)" fill="#1f7762"/>
  <path id="Trazado_24430" data-name="Trazado 24430" d="M33.33,53.29h0a2.33,2.33,0,0,1,0,.41Z" transform="translate(-0.77 -6.719)" fill="#1f7762"/>
  <path id="Trazado_24431" data-name="Trazado 24431" d="M34.39,77l-.11.11a1.83,1.83,0,0,0-.27-.3h0a1,1,0,0,0-.49.31,1.07,1.07,0,0,0-.23.57,9.117,9.117,0,0,1-.34,1.29c-.07.46.15,1-.38,1.29.68.38-.16.72,0,1.14a11.12,11.12,0,0,1,.26,1.75c-.19.5-.42,1.11-.61,1.71a5.78,5.78,0,0,1,.42.61l.84-.45c.26-1.87.49-3.66.76-5.56-.08-.19-.19-.57-.31-.91A2.94,2.94,0,0,0,35.12,76l-1,.68A1.83,1.83,0,0,0,34.39,77Z" transform="translate(-0.77 -6.719)" fill="#1f7762"/>
  <path id="Trazado_24432" data-name="Trazado 24432" d="M34.09,76.75l1-.68Z" transform="translate(-0.77 -6.719)" fill="#1f7762"/>
  <path id="Trazado_24433" data-name="Trazado 24433" d="M34.05,76.75a1.17,1.17,0,0,0-.53.31A1.17,1.17,0,0,1,34.05,76.75Z" transform="translate(-0.77 -6.719)" fill="#1f7762"/>
  <path id="Trazado_24434" data-name="Trazado 24434" d="M39.07,81.47a8,8,0,0,0,0,1c-.3-.57-.3-.57,0-1h0c-.11-.31-.27-.61-.38-.88a3.25,3.25,0,0,0,.38-.45l-.53-.54a4.381,4.381,0,0,1-.38.35H38c.11.57.26,1.14.42,1.86-.35-.19-.5-.31-.73-.42a4.73,4.73,0,0,0,0,.61l.72.27a6.743,6.743,0,0,1-.08,1.14c-.45-.27-.72-.46-1-.65V80.44c0-.15-.23-.3-.35-.46a4.29,4.29,0,0,0-.34,1.11v2.66a2.85,2.85,0,0,1-.3.8c.57.76,1.29.57,2.05.23l.23.22.91-.45c0-.38-.07-1,.16-1.14.57-.5-.42-.65-.12-1,0-.08.08-.11.12-.19h0c.11-.23.15-.46.26-.69a6.11,6.11,0,0,0-.88-.06Zm-2,2.47a.31.31,0,0,0,0-.19,5.515,5.515,0,0,0,1-.15v.3a7.631,7.631,0,0,1-1.07.04Z" transform="translate(-0.77 -6.719)" fill="#1f7762"/>
  <path id="Trazado_24435" data-name="Trazado 24435" d="M38.2,80h0Z" transform="translate(-0.77 -6.719)" fill="#1f7762"/>
  <path id="Trazado_24436" data-name="Trazado 24436" d="M32.68,19.06l.12-.12a.7.7,0,0,0,.15-.49c-.5-.27-1-.5-1.45-.72a2.956,2.956,0,0,0-.07-.84h-1a26.18,26.18,0,0,0,0,3.08c.11,1-.88,1.94-.12,3.08a5.91,5.91,0,0,1,.69-.38,3,3,0,0,0,.45.34V20.24C31.54,19.55,32.26,19.44,32.68,19.06Zm-.8-.31h.35v.12h-.35Z" transform="translate(-0.77 -6.719)" fill="#1f7762"/>
  <path id="Trazado_24437" data-name="Trazado 24437" d="M32.83,18.94l-.11.12A.441.441,0,0,0,32.83,18.94Z" transform="translate(-0.77 -6.719)" fill="#1f7762"/>
  <path id="Trazado_24438" data-name="Trazado 24438" d="M49.23,69.18l.72-.72v-.72l-.31-.23c.12,0,.19-.08.31-.11s.15-.19.23-.31c0,.12.07.19.11.31l.57-.35a3.17,3.17,0,0,0,.38.31l.69-.69a2.53,2.53,0,0,0,.38.31l.34-.35c.19,0,.19.46.64.12a11.22,11.22,0,0,1-.53-1.22c-1.82.76-1.9.91-2.32.61s-.72.23-1.1-.19c-.15-.19-.91.15-1.37.27a3.169,3.169,0,0,1-.38-.31c-.15.72-.3,1.37-.49,2.17l1-.27c.12.08.19.16.34.27.08-.42.16-.76.23-1.14a2.64,2.64,0,0,0,.54,0v1.21c-.19.16-.35.31-.5.42l-.15.12a1.56,1.56,0,0,0,.67.49ZM48.16,66.9h-.34v-.11h.34Z" transform="translate(-0.77 -6.719)" fill="#1f7762"/>
  <path id="Trazado_24439" data-name="Trazado 24439" d="M48.65,68.69a1.274,1.274,0,0,0-.15.11h0A.768.768,0,0,0,48.65,68.69Z" transform="translate(-0.77 -6.719)" fill="#1f7762"/>
  <path id="Trazado_24440" data-name="Trazado 24440" d="M38.35,61.77c-.27.15-.8-.12-1.22-.16s-1,0-1.44,0c-.16,0-.27-.23-.31-.27-.8.57-1.6.23-2.39,0v.42c.34.19.68.38,1.14.61.19-.16.42-.39.42-.39.41.42,1,.27,1.48.31,1.25.11,2.58-.34,3.8.34a.61.61,0,0,0,.53,0c.84-.68,1.83-.19,2.74-.34,1,.84,1.87-.19,2.82-.19-1.3-.42-2.7.23-3.77-.46a12.069,12.069,0,0,1-1.29.27,5.5,5.5,0,0,0-1.41,0C39,62.15,38.84,61.5,38.35,61.77Z" transform="translate(-0.77 -6.719)" fill="#1f7762"/>
  <path id="Trazado_24441" data-name="Trazado 24441" d="M38.46,75.38Z" transform="translate(-0.77 -6.719)" fill="#1f7762"/>
  <path id="Trazado_24442" data-name="Trazado 24442" d="M40.21,76.52c-.68-.45-1.25-.8-1.71-1.1l.08.08c-.27.15-.5.34-.84.53v-.69a6.551,6.551,0,0,1,.72,0A2.08,2.08,0,0,0,38.2,75a1.26,1.26,0,0,0-1.11-.38c-.15,0-.3.23-.45.34h1c-.5.38-.77.54-1,.73v1.18c.45-.16.72-.27,1-.39l.22.23c.31-.11.57-.23.92-.34a18.151,18.151,0,0,0,.15,2.21h.19c.07-.38.15-.73.23-1.07h.15a2.781,2.781,0,0,1,.3,0c0,.26,0,.45,0,.64a1.42,1.42,0,0,1-.11.5,4.62,4.62,0,0,1-.5.87c.27.19.57.38.84.54-.34-.69.84-1,.3-1.75C40,77.93,40.21,77.09,40.21,76.52Zm-.87.23h-.12v-.34h.12Z" transform="translate(-0.77 -6.719)" fill="#1f7762"/>
  <path id="Trazado_24443" data-name="Trazado 24443" d="M38.39,75.31h0a2.929,2.929,0,0,0-.3-.34,1.16,1.16,0,0,1,.27.31Z" transform="translate(-0.77 -6.719)" fill="#1f7762"/>
  <path id="Trazado_24444" data-name="Trazado 24444" d="M39.6,78.65a1.11,1.11,0,0,0,.12-.49A1.11,1.11,0,0,1,39.6,78.65Z" transform="translate(-0.77 -6.719)" fill="#1f7762"/>
  <path id="Trazado_24445" data-name="Trazado 24445" d="M29.45,45.76a1.65,1.65,0,0,0,.49-.12c-.07-.91-.19-1.75-.22-2.59V35.49a8.09,8.09,0,0,0-.08-1c-.31.34-.23.68-.31,1a4.53,4.53,0,0,1-.3.73,3.9,3.9,0,0,1,0,3.19l.3.31C28.61,41.72,29,43.66,29.45,45.76Z" transform="translate(-0.77 -6.719)" fill="#1f7762"/>
  <path id="Trazado_24446" data-name="Trazado 24446" d="M22.76,14.53c.45,1.1.45,2.28,1.44,3.08.49-.34,1-.64,1.45-1A7.1,7.1,0,0,0,24,13.85C23.55,14.07,23.21,14.3,22.76,14.53ZM24.31,16H24v-.12h.34Z" transform="translate(-0.77 -6.719)" fill="#1f7762"/>
  <path id="Trazado_24447" data-name="Trazado 24447" d="M34.24,50.93c.31-.84.57-1.52.76-2.06-.34-.38-.57-.64-.76-.87a.54.54,0,0,0-.38.23c-.27.26-.11.72-.11,1.1h0a1.83,1.83,0,0,1,.3.27l-.11.11a2.44,2.44,0,0,0-.27-.3h0a8.79,8.79,0,0,0-1,.76,4.14,4.14,0,0,0-1.22,3.19h.72c.31-1.14.84-2.13,1.22-3.38A3.82,3.82,0,0,1,34.24,50.93Z" transform="translate(-0.77 -6.719)" fill="#1f7762"/>
  <path id="Trazado_24448" data-name="Trazado 24448" d="M33.71,49.29h0a6.73,6.73,0,0,0-1,.76,11.231,11.231,0,0,1,1-.76Z" transform="translate(-0.77 -6.719)" fill="#1f7762"/>
  <path id="Trazado_24449" data-name="Trazado 24449" d="M33.82,48.19A.58.58,0,0,1,34.2,48a4.23,4.23,0,0,0-.38.19Z" transform="translate(-0.77 -6.719)" fill="#1f7762"/>
  <path id="Trazado_24450" data-name="Trazado 24450" d="M31.35,23.43c.57.38.91.57,1.18.8a1.62,1.62,0,0,0-.3.49,2,2,0,0,0,.34,1.53c-.19.34-.27.76-.61,1a.69.69,0,0,1-.42.15,2.55,2.55,0,0,0,0,.57h.65a3.81,3.81,0,0,1,.38-.91c.07-.15.38-.15.61-.23.07.46.11.76.15,1.18a2.621,2.621,0,0,0,.64-.15v-.61c-.53,0-.3-.45-.34-.72s-.34-.3-.34-.46V23.75c0-.15-.23-.3-.34-.45l-.23.3-.11-.3H31.16a.38.38,0,0,1,.19.11h0Z" transform="translate(-0.77 -6.719)" fill="#1f7762"/>
  <path id="Trazado_24451" data-name="Trazado 24451" d="M32.61,26.25a1.91,1.91,0,0,1-.35-1.53,2.12,2.12,0,0,0,.35,1.53c-.19.34-.27.76-.61,1C32.34,27,32.42,26.55,32.61,26.25Z" transform="translate(-0.77 -6.719)" fill="#1f7762"/>
  <path id="Trazado_24452" data-name="Trazado 24452" d="M42.57,67l.38-.31c.19.38.34.73.49,1.07.19-.12.38-.19.65-.34a4.736,4.736,0,0,0,.08,1.06h.34a.87.87,0,0,1,.38-.91.8.8,0,0,0,.27-1.14c-.65-.16-1.26-.31-1.68-.38l-1.86.38V67l.57-.34a2.59,2.59,0,0,0,.38.34Z" transform="translate(-0.77 -6.719)" fill="#1f7762"/>
  <path id="Trazado_24453" data-name="Trazado 24453" d="M37,79a9.8,9.8,0,0,0,1.29-.15c-.15-.49-.3-.91-.42-1.29-.3-.11-.57-.27-.87-.38-.08.38-.12.72-.19,1a4.519,4.519,0,0,0-.54.11V80H37Z" transform="translate(-0.77 -6.719)" fill="#1f7762"/>
  <path id="Trazado_24454" data-name="Trazado 24454" d="M42.76,40.05l-.95.38c.46.15.68.23.87.31-.15.53-.26,1.06-.38,1.55l1.49.38a8,8,0,0,0-.27-2.13,7.42,7.42,0,0,1-.76-.49Zm.42,1.67V41h.19v.72Z" transform="translate(-0.77 -6.719)" fill="#1f7762"/>
  <path id="Trazado_24455" data-name="Trazado 24455" d="M43.82,42.71v-2a1.47,1.47,0,0,1-.26-.2,10.53,10.53,0,0,1,.26,2.2Z" transform="translate(-0.77 -6.719)" fill="#1f7762"/>
  <path id="Trazado_24456" data-name="Trazado 24456" d="M39.15,45.79a3,3,0,0,0,.34,1.45c.42.15.49,0,.57-.08l.11.12a1.74,1.74,0,0,0-.3.26l-.38-.3a3.57,3.57,0,0,0,.61.64,5.815,5.815,0,0,0,1.14-.07v-1c-.23.11-.38.19-.57.3a11.327,11.327,0,0,0-.19-1.25c-.38.38-.65.61-.88.87-.07-.34-.15-.64-.22-1Z" transform="translate(-0.77 -6.719)" fill="#1f7762"/>
  <path id="Trazado_24457" data-name="Trazado 24457" d="M32.8,30.54a9.9,9.9,0,0,1,.57-1c.23-.32.45-.69.72-1.15-.8,0-1.07.35-1.14.92a.979.979,0,0,0-.38.11c.11-.53.19-.95.26-1.41h-.6c-.12.84-.23,1.68-.31,2.51A6.48,6.48,0,0,0,32.8,30.54Z" transform="translate(-0.77 -6.719)" fill="#1f7762"/>
  <path id="Trazado_24458" data-name="Trazado 24458" d="M31.88,30.54h0c.12-.87.23-1.71.35-2.51C32.11,28.83,32,29.71,31.88,30.54Z" transform="translate(-0.77 -6.719)" fill="#1f7762"/>
  <path id="Trazado_24459" data-name="Trazado 24459" d="M47.06,38.49c-.19,0-.5.08-.65-.07a.78.78,0,0,1-.11-.27c-.54,0-.31.46-.35.72h.61a.57.57,0,0,1,.08.19c-.11.19-.27.34-.38.5.15.3.3.53.42.76l.57-.35c.11.12.23.19.15.16.3-.12.61-.27.84-.35-.23-.41-.35-.68-.5-.91C47.51,38.8,47.1,39,47.06,38.49Z" transform="translate(-0.77 -6.719)" fill="#1f7762"/>
  <path id="Trazado_24460" data-name="Trazado 24460" d="M41,35.3c-.15-.31-.3-.57-.45-.84a2.67,2.67,0,0,0,.22-.34,5.371,5.371,0,0,0-.38-.76c-.22.49-.41.83-.57,1.25.12.15.23.34.35.5a1.23,1.23,0,0,0-.19.22,8.629,8.629,0,0,1,.79,1A1.237,1.237,0,0,0,41,35.3Z" transform="translate(-0.77 -6.719)" fill="#1f7762"/>
  <path id="Trazado_24461" data-name="Trazado 24461" d="M40.78,36.29l.46-.46c-.08-.15-.19-.34-.27-.5C41.05,36,40.9,36.13,40.78,36.29Z" transform="translate(-0.77 -6.719)" fill="#1f7762"/>
  <path id="Trazado_24462" data-name="Trazado 24462" d="M34.55,47.2a.47.47,0,0,0,0,.23,8.81,8.81,0,0,1,.83.34c.35-.23.61-.42.88-.61V46.1A1.64,1.64,0,0,0,34.55,47.2Z" transform="translate(-0.77 -6.719)" fill="#1f7762"/>
  <path id="Trazado_24463" data-name="Trazado 24463" d="M14.43,76.18c.07.19.19.42.26.61.15-1.1.46-2.13-.42-3a3.338,3.338,0,0,0-.38.15c.16.8.27,1.56.42,2.32C14.35,76.29,14.39,76.22,14.43,76.18Z" transform="translate(-0.77 -6.719)" fill="#1f7762"/>
  <path id="Trazado_24464" data-name="Trazado 24464" d="M25.34,76.71h0l-.68-.8a2,2,0,0,0-.35-.26,2,2,0,0,0-.34,1.6c.34.26.5.41.69.57a8,8,0,0,0,.68-1.11Z" transform="translate(-0.77 -6.719)" fill="#1f7762"/>
  <path id="Trazado_24465" data-name="Trazado 24465" d="M41,38.91c.38-.15.65-.23,1-.34.08.3.16.64.23,1h.19V38.26l-.15.16c-.11-.27-.23-.58-.34-.8-.31.19-.5.3-.92.53A5.89,5.89,0,0,0,41,38.91Z" transform="translate(-0.77 -6.719)" fill="#1f7762"/>
  <path id="Trazado_24466" data-name="Trazado 24466" d="M41.81,37.62c-.42.26-.65.38-.91.53h0a10.2,10.2,0,0,0,.91-.53Z" transform="translate(-0.77 -6.719)" fill="#1f7762"/>
  <path id="Trazado_24467" data-name="Trazado 24467" d="M40.55,33c.35.22.57.38.73.49.34-.23.53-.38.95-.65-.61-.07-.95-.15-1.41-.19.15-.34.27-.57.38-.83-.08-.12-.19-.31-.3-.5a1,1,0,0,0-.35,0Z" transform="translate(-0.77 -6.719)" fill="#1f7762"/>
  <path id="Trazado_24468" data-name="Trazado 24468" d="M14.24,77.17V79.3C15.15,78.39,15.15,78,14.24,77.17Z" transform="translate(-0.77 -6.719)" fill="#1f7762"/>
  <path id="Trazado_24469" data-name="Trazado 24469" d="M26.52,65c-.84.68-1.79-.11-2.74.42.91.15,1.6.23,2.36.34C26.25,65.53,26.37,65.27,26.52,65Z" transform="translate(-0.77 -6.719)" fill="#1f7762"/>
  <path id="Trazado_24470" data-name="Trazado 24470" d="M44.89,38.83c-.08.16-.15.27-.23.42-.19.31-.26.53.23.65.27-.8.65,0,1.06,0v-1l-.53.31Z" transform="translate(-0.77 -6.719)" fill="#1f7762"/>
  <path id="Trazado_24471" data-name="Trazado 24471" d="M44.66,39.25c-.23.34-.26.61.23.69h0C44.4,39.78,44.47,39.52,44.66,39.25Z" transform="translate(-0.77 -6.719)" fill="#1f7762"/>
  <path id="Trazado_24472" data-name="Trazado 24472" d="M27,38.22c.22-.41.38-.72.45-.83-.15-.69-.26-1.22-.34-1.75A4.87,4.87,0,0,0,27,38.22Z" transform="translate(-0.77 -6.719)" fill="#1f7762"/>
  <path id="Trazado_24473" data-name="Trazado 24473" d="M40.93,31.27c.35-.12.73-.23,1.26-.42-.46-.61.27-1.33-.53-1.75v1.18C41.39,30.62,41.16,30.92,40.93,31.27Z" transform="translate(-0.77 -6.719)" fill="#1f7762"/>
  <path id="Trazado_24474" data-name="Trazado 24474" d="M27.24,31.68v2.4a3.08,3.08,0,0,0,0-2.4Z" transform="translate(-0.77 -6.719)" fill="#1f7762"/>
  <path id="Trazado_24475" data-name="Trazado 24475" d="M46.64,66.25c-.42.08-.69.12-1.26.19a8.6,8.6,0,0,1,1,.38c-.38.16-.57.23-1.18.5h1.45a9.3,9.3,0,0,0-.01-1.07Z" transform="translate(-0.77 -6.719)" fill="#1f7762"/>
  <path id="Trazado_24476" data-name="Trazado 24476" d="M33.33,53.21a5.1,5.1,0,0,0,.57.42c.15-.46.26-.92.42-1.41C33.63,52.11,33.44,52.52,33.33,53.21Z" transform="translate(-0.77 -6.719)" fill="#1f7762"/>
  <path id="Trazado_24477" data-name="Trazado 24477" d="M34.32,52.22c-.73-.11-.92.34-1.07,1l.08.08C33.44,52.52,33.63,52.11,34.32,52.22Z" transform="translate(-0.77 -6.719)" fill="#1f7762"/>
  <path id="Trazado_24478" data-name="Trazado 24478" d="M43.82,37.92c.54.46.8.69,1.07.95l.34-1.06A12.25,12.25,0,0,0,43.82,37.92Z" transform="translate(-0.77 -6.719)" fill="#1f7762"/>
  <path id="Trazado_24479" data-name="Trazado 24479" d="M35.15,76c.31.07.61.15,1,.26l.5-.6V75C36.1,75.31,35.61,75.69,35.15,76Z" transform="translate(-0.77 -6.719)" fill="#1f7762"/>
  <path id="Trazado_24480" data-name="Trazado 24480" d="M47.44,37.77c-.53,0-.31.45-.34.72.26,0,.68-.19.72.34.49-.38.49-.72,0-1.06l-.23.3a2.07,2.07,0,0,1-.15-.3Z" transform="translate(-0.77 -6.719)" fill="#1f7762"/>
  <path id="Trazado_24481" data-name="Trazado 24481" d="M25.3,66.86c.08.23.16.38.23.61.34-.15.61-.3.91-.46v-.72Q25.93,66.58,25.3,66.86Z" transform="translate(-0.77 -6.719)" fill="#1f7762"/>
  <path id="Trazado_24482" data-name="Trazado 24482" d="M41.28,34.88h.11a3.89,3.89,0,0,0,.61.34c0-.38-.08-.72-.15-1.44A2,2,0,0,0,41.28,34.88Z" transform="translate(-0.77 -6.719)" fill="#1f7762"/>
  <path id="Trazado_24483" data-name="Trazado 24483" d="M40.93,34.88h.35a1.84,1.84,0,0,1,.61-1.07,14.062,14.062,0,0,0-.96,1.07Z" transform="translate(-0.77 -6.719)" fill="#1f7762"/>
  <path id="Trazado_24484" data-name="Trazado 24484" d="M45,40a3.74,3.74,0,0,0-.72.38c-.11.12-.07.38-.11.69.45-.27.8-.46,1.14-.65A.72.72,0,0,0,45,40Z" transform="translate(-0.77 -6.719)" fill="#1f7762"/>
  <path id="Trazado_24485" data-name="Trazado 24485" d="M45.31,40.39a3.58,3.58,0,0,0-.19-.45L45,40A1.1,1.1,0,0,1,45.31,40.39Z" transform="translate(-0.77 -6.719)" fill="#1f7762"/>
  <path id="Trazado_24486" data-name="Trazado 24486" d="M33,22.21a5,5,0,0,0-.84.16,10.458,10.458,0,0,1,.46,1H33a10.48,10.48,0,0,0,0-1.16Z" transform="translate(-0.77 -6.719)" fill="#1f7762"/>
  <path id="Trazado_24487" data-name="Trazado 24487" d="M28.23,20.88l-.68-.45c-.12.34-.23.72-.35,1.06a.85.85,0,0,0,1.03-.61Z" transform="translate(-0.77 -6.719)" fill="#1f7762"/>
  <path id="Trazado_24488" data-name="Trazado 24488" d="M44.21,39.9a1.1,1.1,0,0,0-.42-.91c-.16.26-.31.49-.46.76v.07a5.83,5.83,0,0,0,.88.08Z" transform="translate(-0.77 -6.719)" fill="#1f7762"/>
  <path id="Trazado_24489" data-name="Trazado 24489" d="M44.21,39.9c0-.46-.08-.76-.12-1.41-.11.19-.19.34-.3.5a1.1,1.1,0,0,1,.42.91Z" transform="translate(-0.77 -6.719)" fill="#1f7762"/>
  <path id="Trazado_24490" data-name="Trazado 24490" d="M43.37,39.82v0Z" transform="translate(-0.77 -6.719)" fill="#1f7762"/>
  <path id="Trazado_24491" data-name="Trazado 24491" d="M40.21,44.8a1.764,1.764,0,0,0-.11-.49H39c.08.3.08.49.12.57C39.57,44.84,39.87,44.8,40.21,44.8Z" transform="translate(-0.77 -6.719)" fill="#1f7762"/>
  <path id="Trazado_24492" data-name="Trazado 24492" d="M40.25,37.46a.59.59,0,0,0,.46.69C40.82,37.92,40.67,37.81,40.25,37.46Z" transform="translate(-0.77 -6.719)" fill="#1f7762"/>
  <path id="Trazado_24493" data-name="Trazado 24493" d="M40.25,37.46v1.11a2.76,2.76,0,0,0,.46-.46C40.25,38,40.25,37.73,40.25,37.46Z" transform="translate(-0.77 -6.719)" fill="#1f7762"/>
  <path id="Trazado_24494" data-name="Trazado 24494" d="M25,67.21a3.91,3.91,0,0,0,0-.92c-.23-.11-.46-.19-.95-.45A16.248,16.248,0,0,0,25,67.21Z" transform="translate(-0.77 -6.719)" fill="#1f7762"/>
  <path id="Trazado_24495" data-name="Trazado 24495" d="M25,67.21c0-.5.08-.69.08-.92Q25.063,66.752,25,67.21Z" transform="translate(-0.77 -6.719)" fill="#1f7762"/>
  <path id="Trazado_24496" data-name="Trazado 24496" d="M27.55,65.91c-.35.15-.92-.34-1.07.34.19.12.34.19.61.35C27.2,66.41,27.4,66.18,27.55,65.91Z" transform="translate(-0.77 -6.719)" fill="#1f7762"/>
  <path id="Trazado_24497" data-name="Trazado 24497" d="M7.58,13.2H7.39v1.07h.19Z" transform="translate(-0.77 -6.719)" fill="#1f7762"/>
  <path id="Trazado_24498" data-name="Trazado 24498" d="M40.82,29.48h-.19v.95a.68.68,0,0,0,.3,0C40.9,30.12,40.86,29.82,40.82,29.48Z" transform="translate(-0.77 -6.719)" fill="#1f7762"/>
  <path id="Trazado_24499" data-name="Trazado 24499" d="M28.65,30.58H27.59v.57C27.85,31,28.08,30.88,28.65,30.58Z" transform="translate(-0.77 -6.719)" fill="#1f7762"/>
  <path id="Trazado_24500" data-name="Trazado 24500" d="M43.79,38.45a3.94,3.94,0,0,1-.08-.68.47.47,0,0,0-.23,0C43.48,38.07,43.48,38.34,43.79,38.45Z" transform="translate(-0.77 -6.719)" fill="#1f7762"/>
  <path id="Trazado_24501" data-name="Trazado 24501" d="M43.79,38.45c-.31-.11-.31-.38-.35-.68v1.06h.34A1.85,1.85,0,0,0,43.79,38.45Z" transform="translate(-0.77 -6.719)" fill="#1f7762"/>
  <path id="Trazado_24502" data-name="Trazado 24502" d="M32.57,65.91c-.27,0-.65-.15-.69.34.19.12.42.19.73.38a4.17,4.17,0,0,0-.04-.72Z" transform="translate(-0.77 -6.719)" fill="#1f7762"/>
  <path id="Trazado_24503" data-name="Trazado 24503" d="M32.61,66Z" transform="translate(-0.77 -6.719)" fill="#1f7762"/>
  <path id="Trazado_24504" data-name="Trazado 24504" d="M42.84,45.76c-.19.19-.35.38-.65.68a6.872,6.872,0,0,0,1-.11,1.05,1.05,0,0,0-.35-.57Z" transform="translate(-0.77 -6.719)" fill="#1f7762"/>
  <path id="Trazado_24505" data-name="Trazado 24505" d="M43.14,46.36c-.08-.26-.11-.45-.19-.72a1.739,1.739,0,0,1-.11.15A1.033,1.033,0,0,1,43.14,46.36Z" transform="translate(-0.77 -6.719)" fill="#1f7762"/>
  <path id="Trazado_24506" data-name="Trazado 24506" d="M43,32l-1,.11v.19h1Z" transform="translate(-0.77 -6.719)" fill="#1f7762"/>
  <path id="Trazado_24507" data-name="Trazado 24507" d="M27.32,65.34l-.65-.19c.23.27.31.42.38.42a1,1,0,0,0,.27-.08.16.16,0,0,0,.08,0C27.28,65.38,27.28,65.34,27.32,65.34Z" transform="translate(-0.77 -6.719)" fill="#1f7762"/>
  <path id="Trazado_24508" data-name="Trazado 24508" d="M27.55,65.42h-.08S27.55,65.38,27.55,65.42Z" transform="translate(-0.77 -6.719)" fill="#1f7762"/>
  <path id="Trazado_24509" data-name="Trazado 24509" d="M27.32,65.34h0Z" transform="translate(-0.77 -6.719)" fill="#1f7762"/>
  <path id="Trazado_24510" data-name="Trazado 24510" d="M27.47,65.38h0a3.55,3.55,0,0,1-.8-.23,3.47,3.47,0,0,0,.65.19A.754.754,0,0,0,27.47,65.38Z" transform="translate(-0.77 -6.719)" fill="#1f7762"/>
  <path id="Trazado_24511" data-name="Trazado 24511" d="M27.32,65.34l.08.12c.08.12.11,0,.15,0h-.08A.584.584,0,0,0,27.32,65.34Z" transform="translate(-0.77 -6.719)" fill="#1f7762"/>
  <path id="Trazado_24512" data-name="Trazado 24512" d="M41.2,40.28v-.72H41v.72Z" transform="translate(-0.77 -6.719)" fill="#1f7762"/>
  <path id="Trazado_24513" data-name="Trazado 24513" d="M39.83,80.93a.62.62,0,0,0,.12.35c.07-.19.19-.42.3-.73C40,80.82,39.83,80.9,39.83,80.93Z" transform="translate(-0.77 -6.719)" fill="#1f7762"/>
  <path id="Trazado_24514" data-name="Trazado 24514" d="M40,81.31a.3.3,0,0,1,0,.16C40.06,81.28,40.1,81.09,40,81.31Z" transform="translate(-0.77 -6.719)" fill="#1f7762"/>
  <path id="Trazado_24515" data-name="Trazado 24515" d="M40,81.31c.15-.19.11,0,0,.16.08-.23.12-.42.27-.88-.11.27-.23.5-.3.72Z" transform="translate(-0.77 -6.719)" fill="#1f7762"/>
  <path id="Trazado_24516" data-name="Trazado 24516" d="M38,80h0a2.46,2.46,0,0,0-.12-.72h-.23A1,1,0,0,0,38,80Z" transform="translate(-0.77 -6.719)" fill="#1f7762"/>
  <path id="Trazado_24517" data-name="Trazado 24517" d="M37.7,79.34a1.981,1.981,0,0,0,.08.68H38A.76.76,0,0,1,37.7,79.34Z" transform="translate(-0.77 -6.719)" fill="#1f7762"/>
  <path id="Trazado_24518" data-name="Trazado 24518" d="M5.64,18.6a.31.31,0,0,0,.19,0V18a.78.78,0,0,0-.3,0C5.57,18.18,5.6,18.37,5.64,18.6Z" transform="translate(-0.77 -6.719)" fill="#1f7762"/>
  <path id="Trazado_24519" data-name="Trazado 24519" d="M42.72,39.4a2.261,2.261,0,0,0,.15.5c.08-.23.12-.42.27-.88C42.87,39.29,42.72,39.37,42.72,39.4Z" transform="translate(-0.77 -6.719)" fill="#1f7762"/>
  <path id="Trazado_24520" data-name="Trazado 24520" d="M38.46,43.59v.3a4.48,4.48,0,0,0,.61-.15.33.33,0,0,0,0-.19,3.34,3.34,0,0,1-.61.04Z" transform="translate(-0.77 -6.719)" fill="#1f7762"/>
  <path id="Trazado_24521" data-name="Trazado 24521" d="M45.92,68.38v-.6a1.09,1.09,0,0,0-.31,0,3.29,3.29,0,0,0,.12.61A.34.34,0,0,0,45.92,68.38Z" transform="translate(-0.77 -6.719)" fill="#1f7762"/>
  <path id="Trazado_24522" data-name="Trazado 24522" d="M32,21.87l.61-.11a.31.31,0,0,0,0-.19H32a.78.78,0,0,1,0,.3Z" transform="translate(-0.77 -6.719)" fill="#1f7762"/>
  <path id="Trazado_24523" data-name="Trazado 24523" d="M36.22,45.34v.72l.34-.46a1.92,1.92,0,0,1-.34-.26Z" transform="translate(-0.77 -6.719)" fill="#1f7762"/>
  <path id="Trazado_24524" data-name="Trazado 24524" d="M41.92,36.36h-.3a3.26,3.26,0,0,0,.11.61.31.31,0,0,0,.19,0Z" transform="translate(-0.77 -6.719)" fill="#1f7762"/>
  <path id="Trazado_24525" data-name="Trazado 24525" d="M29.79,65.84v.07l.61-.11v-.23A.88.88,0,0,0,29.79,65.84Z" transform="translate(-0.77 -6.719)" fill="#1f7762"/>
  <path id="Trazado_24526" data-name="Trazado 24526" d="M29.72,65.65v.26l.07-.07S29.75,65.72,29.72,65.65Z" transform="translate(-0.77 -6.719)" fill="#1f7762"/>
  <path id="Trazado_24527" data-name="Trazado 24527" d="M29.75,66h.08a.14.14,0,0,0,0-.08V66Z" transform="translate(-0.77 -6.719)" fill="#1f7762"/>
  <path id="Trazado_24528" data-name="Trazado 24528" d="M30.4,65.57a1.953,1.953,0,0,0-.68.08c0,.07,0,.15.07.19a.88.88,0,0,1,.61-.27Z" transform="translate(-0.77 -6.719)" fill="#1f7762"/>
  <ellipse id="Elipse_677" data-name="Elipse 677" cx="0.08" cy="0.27" rx="0.08" ry="0.27" transform="translate(41.68 26.251)" fill="#1f7762"/>
  <ellipse id="Elipse_678" data-name="Elipse 678" cx="0.27" cy="0.08" rx="0.27" ry="0.08" transform="translate(45.49 54.971)" fill="#1f7762"/>
  <path id="Trazado_24529" data-name="Trazado 24529" d="M32.61,66h0a2,2,0,0,0,.34-.23l-.12-.11a.51.51,0,0,0-.22.34Z" transform="translate(-0.77 -6.719)" fill="#1f7762"/>
  <path id="Trazado_24530" data-name="Trazado 24530" d="M32.61,65.91a.82.82,0,0,1,.22-.34.82.82,0,0,0-.22.34Z" transform="translate(-0.77 -6.719)" fill="#1f7762"/>
  <path id="Trazado_24531" data-name="Trazado 24531" d="M25,66.33a1.83,1.83,0,0,0,.3-.27L25.23,66a.85.85,0,0,0-.19.38Z" transform="translate(-0.77 -6.719)" fill="#1f7762"/>
  <path id="Trazado_24532" data-name="Trazado 24532" d="M25.23,66a1.83,1.83,0,0,1-.27.3h0a2.5,2.5,0,0,1,.27-.3Z" transform="translate(-0.77 -6.719)" fill="#1f7762"/>
  <path id="Trazado_24533" data-name="Trazado 24533" d="M40.55,31.27h0a1.69,1.69,0,0,0-.22-.35l-.12.12a2.92,2.92,0,0,0,.34.23Z" transform="translate(-0.77 -6.719)" fill="#1f7762"/>
  <path id="Trazado_24534" data-name="Trazado 24534" d="M40.55,31.27a1.07,1.07,0,0,1-.34-.23A2.92,2.92,0,0,0,40.55,31.27Z" transform="translate(-0.77 -6.719)" fill="#1f7762"/>
  <path id="Trazado_24535" data-name="Trazado 24535" d="M31.88,30.54h0a1.7,1.7,0,0,0-.34.23l.11.11a.79.79,0,0,0,.23-.34Z" transform="translate(-0.77 -6.719)" fill="#1f7762"/>
  <path id="Trazado_24536" data-name="Trazado 24536" d="M31.88,30.54a.79.79,0,0,1-.23.34.79.79,0,0,0,.23-.34Z" transform="translate(-0.77 -6.719)" fill="#1f7762"/>
  <ellipse id="Elipse_679" data-name="Elipse 679" cx="0.08" cy="0.27" rx="0.08" ry="0.27" transform="translate(37.35 37.811)" fill="#1f7762"/>
  <path id="Trazado_24537" data-name="Trazado 24537" d="M25,34.5h0a1.7,1.7,0,0,0,.34-.23l-.11-.11a.79.79,0,0,0-.23.34Z" transform="translate(-0.77 -6.719)" fill="#1f7762"/>
  <path id="Trazado_24538" data-name="Trazado 24538" d="M25.23,34.19c-.08.12-.15.19-.23.31h0a.73.73,0,0,1,.23-.31Z" transform="translate(-0.77 -6.719)" fill="#1f7762"/>
  <path id="Trazado_24539" data-name="Trazado 24539" d="M25,34.5Z" transform="translate(-0.77 -6.719)" fill="#1f7762"/>
  <path id="Trazado_24540" data-name="Trazado 24540" d="M41.66,67h-.35c.08.12.16.2.23.31C41.54,67.21,41.62,67.13,41.66,67Z" transform="translate(-0.77 -6.719)" fill="#1f7762"/>
  <path id="Trazado_24541" data-name="Trazado 24541" d="M50,67.74h.34V67.4H50Z" transform="translate(-0.77 -6.719)" fill="#1f7762"/>
  <ellipse id="Elipse_680" data-name="Elipse 680" cx="0.27" cy="0.08" rx="0.27" ry="0.08" transform="translate(24.53 61.131)" fill="#1f7762"/>
  <path id="Trazado_24542" data-name="Trazado 24542" d="M42.72,34.16h0a.63.63,0,0,0-.34.22l.11.12a.93.93,0,0,0,.23-.34Z" transform="translate(-0.77 -6.719)" fill="#1f7762"/>
  <path id="Trazado_24543" data-name="Trazado 24543" d="M42.49,34.46c.08-.11.16-.19.23-.3h0A.39.39,0,0,1,42.49,34.46Z" transform="translate(-0.77 -6.719)" fill="#1f7762"/>
  <path id="Trazado_24544" data-name="Trazado 24544" d="M42.72,34.16Z" transform="translate(-0.77 -6.719)" fill="#1f7762"/>
  <path id="Trazado_24545" data-name="Trazado 24545" d="M54.66,68.08h0a1.63,1.63,0,0,0-.22-.34l-.12.11a.69.69,0,0,0,.34.23Z" transform="translate(-0.77 -6.719)" fill="#1f7762"/>
  <path id="Trazado_24546" data-name="Trazado 24546" d="M54.32,67.89a1.87,1.87,0,0,1,.31.27h0a3.339,3.339,0,0,1-.31-.27Z" transform="translate(-0.77 -6.719)" fill="#1f7762"/>
  <path id="Trazado_24547" data-name="Trazado 24547" d="M54.66,68.08Z" transform="translate(-0.77 -6.719)" fill="#1f7762"/>
  <path id="Trazado_24548" data-name="Trazado 24548" d="M37.89,43.55v-.34h-.11v.34Z" transform="translate(-0.77 -6.719)" fill="#1f7762"/>
  <path id="Trazado_24549" data-name="Trazado 24549" d="M27.43,34.5h-.11v.34h.11Z" transform="translate(-0.77 -6.719)" fill="#1f7762"/>
  <path id="Trazado_24550" data-name="Trazado 24550" d="M41.62,41a1.46,1.46,0,0,0,.27.3l.11-.11a.69.69,0,0,0-.38-.19Z" transform="translate(-0.77 -6.719)" fill="#1f7762"/>
  <path id="Trazado_24551" data-name="Trazado 24551" d="M41.69,41l-.07.08a.4.4,0,0,1,.34.19Z" transform="translate(-0.77 -6.719)" fill="#1f7762"/>
  <path id="Trazado_24552" data-name="Trazado 24552" d="M7.92,14.65H7.81V15h.11Z" transform="translate(-0.77 -6.719)" fill="#1f7762"/>
  <path id="Trazado_24553" data-name="Trazado 24553" d="M41.66,41a2.44,2.44,0,0,0-.27-.3l-.11.11C41.43,40.93,41.5,41,41.66,41Z" transform="translate(-0.77 -6.719)" fill="#1f7762"/>
  <path id="Trazado_24554" data-name="Trazado 24554" d="M41.66,41a.39.39,0,0,1-.35-.19,2.49,2.49,0,0,1,.31.27h0Z" transform="translate(-0.77 -6.719)" fill="#1f7762"/>
  <path id="Trazado_24555" data-name="Trazado 24555" d="M41.69,41h0l-.07.08h0Z" transform="translate(-0.77 -6.719)" fill="#1f7762"/>
  <path id="Trazado_24556" data-name="Trazado 24556" d="M31.54,53.63h0a.65.65,0,0,0,.23.34l.11-.11Z" transform="translate(-0.77 -6.719)" fill="#1f7762"/>
  <path id="Trazado_24557" data-name="Trazado 24557" d="M31.54,53.67a.82.82,0,0,1,.34.22.82.82,0,0,0-.34-.22Z" transform="translate(-0.77 -6.719)" fill="#1f7762"/>
  <path id="Trazado_24558" data-name="Trazado 24558" d="M31.54,53.59v-.3a.912.912,0,0,0-.3.11.77.77,0,0,0,.3.19Z" transform="translate(-0.77 -6.719)" fill="#1f7762"/>
  <path id="Trazado_24559" data-name="Trazado 24559" d="M31.54,53.63h0a1.25,1.25,0,0,1-.3-.19A2,2,0,0,0,31.54,53.63Z" transform="translate(-0.77 -6.719)" fill="#1f7762"/>
  <path id="Trazado_24560" data-name="Trazado 24560" d="M22.07,32.48a2,2,0,0,0-.65-.49c.12.34.23.72.35,1.06C22.22,33.05,22.22,32.71,22.07,32.48Z" transform="translate(-0.77 -6.719)" fill="#1f7762"/>
  <path id="Trazado_24561" data-name="Trazado 24561" d="M19.6,32.6v-.23a1.55,1.55,0,0,0-.68.19v.19a3.55,3.55,0,0,1,.68-.15Z" transform="translate(-0.77 -6.719)" fill="#1f7762"/>
  <path id="Trazado_24562" data-name="Trazado 24562" d="M18.88,32.41v.15a1.16,1.16,0,0,1,.68-.19C19.33,32.37,19.1,32.41,18.88,32.41Z" transform="translate(-0.77 -6.719)" fill="#1f7762"/>
  <path id="Trazado_24563" data-name="Trazado 24563" d="M50.21,51.5h-.22a1.38,1.38,0,0,0,.19.68h.19a6,6,0,0,1-.16-.68Z" transform="translate(-0.77 -6.719)" fill="#1f7762"/>
  <path id="Trazado_24564" data-name="Trazado 24564" d="M50,52.22h.16a1.12,1.12,0,0,1-.19-.68A5.159,5.159,0,0,1,50,52.22Z" transform="translate(-0.77 -6.719)" fill="#1f7762"/>
  <path id="Trazado_24565" data-name="Trazado 24565" d="M50.33,52.26v.3l.3-.11C50.52,52.37,50.44,52.33,50.33,52.26Z" transform="translate(-0.77 -6.719)" fill="#1f7762"/>
  <path id="Trazado_24566" data-name="Trazado 24566" d="M50.33,52.22h0a.82.82,0,0,1,.3.19A2,2,0,0,1,50.33,52.22Z" transform="translate(-0.77 -6.719)" fill="#1f7762"/>
  <path id="Trazado_24567" data-name="Trazado 24567" d="M50.63,59.48a4.31,4.31,0,0,0,.23,1.11c.19-.5.34-.8.5-1.18a4.511,4.511,0,0,1-.73.07Z" transform="translate(-0.77 -6.719)" fill="#1f7762"/>
  <path id="Trazado_24568" data-name="Trazado 24568" d="M50.78,60.85a.758.758,0,0,1,.12-.26,4.31,4.31,0,0,1-.23-1.11,11.9,11.9,0,0,0,.11,1.37Z" transform="translate(-0.77 -6.719)" fill="#1f7762"/>
  <path id="Trazado_24569" data-name="Trazado 24569" d="M52.5,55.83v.35l.3-.12a1.48,1.48,0,0,1-.3-.23Z" transform="translate(-0.77 -6.719)" fill="#1f7762"/>
  <path id="Trazado_24570" data-name="Trazado 24570" d="M46.72,37.05h0a.85.85,0,0,0-.35.22l.12.12Z" transform="translate(-0.77 -6.719)" fill="#1f7762"/>
  <path id="Trazado_24571" data-name="Trazado 24571" d="M46.75,37.08Z" transform="translate(-0.77 -6.719)" fill="#1f7762"/>
  <path id="Trazado_24572" data-name="Trazado 24572" d="M46.72,37.05Z" transform="translate(-0.77 -6.719)" fill="#1f7762"/>
  <path id="Trazado_24573" data-name="Trazado 24573" d="M46.49,37.35a1.74,1.74,0,0,1,.26-.3h0C46.64,37.16,46.56,37.27,46.49,37.35Z" transform="translate(-0.77 -6.719)" fill="#1f7762"/>
  <path id="Trazado_24574" data-name="Trazado 24574" d="M46.72,37.05Z" transform="translate(-0.77 -6.719)" fill="#1f7762"/>
  <path id="Trazado_24575" data-name="Trazado 24575" d="M46.33,38.11h0a.67.67,0,0,0,.35-.23l-.12-.11A1,1,0,0,0,46.33,38.11Z" transform="translate(-0.77 -6.719)" fill="#1f7762"/>
  <path id="Trazado_24576" data-name="Trazado 24576" d="M46.33,38.11Z" transform="translate(-0.77 -6.719)" fill="#1f7762"/>
  <path id="Trazado_24577" data-name="Trazado 24577" d="M46.56,37.81a1.74,1.74,0,0,1-.26.3h0a.94.94,0,0,1,.26-.3Z" transform="translate(-0.77 -6.719)" fill="#1f7762"/>
  <path id="Trazado_24578" data-name="Trazado 24578" d="M25.38,76.75h0a.85.85,0,0,0,.34-.23l-.11-.11a1.7,1.7,0,0,0-.23.34Z" transform="translate(-0.77 -6.719)" fill="#1f7762"/>
  <path id="Trazado_24579" data-name="Trazado 24579" d="M25.34,76.71Z" transform="translate(-0.77 -6.719)" fill="#1f7762"/>
  <path id="Trazado_24580" data-name="Trazado 24580" d="M25.38,76.75Z" transform="translate(-0.77 -6.719)" fill="#1f7762"/>
  <path id="Trazado_24581" data-name="Trazado 24581" d="M25.61,76.45a1.83,1.83,0,0,1-.27.3h0A2,2,0,0,1,25.61,76.45Z" transform="translate(-0.77 -6.719)" fill="#1f7762"/>
  <path id="Trazado_24582" data-name="Trazado 24582" d="M25.38,76.75Z" transform="translate(-0.77 -6.719)" fill="#1f7762"/>
  <ellipse id="Elipse_681" data-name="Elipse 681" cx="0.08" cy="0.27" rx="0.08" ry="0.27" transform="translate(24.72 70.671)" fill="#1f7762"/>
  <path id="Trazado_24583" data-name="Trazado 24583" d="M26.1,78.58h0a1.87,1.87,0,0,0-.27-.31l-.11.12a2.26,2.26,0,0,0,.34.23Z" transform="translate(-0.77 -6.719)" fill="#1f7762"/>
  <path id="Trazado_24584" data-name="Trazado 24584" d="M25.76,78.35a1.74,1.74,0,0,1,.3.26h0a2,2,0,0,0-.3-.26Z" transform="translate(-0.77 -6.719)" fill="#1f7762"/>
  <path id="Trazado_24585" data-name="Trazado 24585" d="M26.1,78.58Z" transform="translate(-0.77 -6.719)" fill="#1f7762"/>
</svg>
