<svg id="Calavera_tequenos" xmlns="http://www.w3.org/2000/svg" width="58.76" height="48.744" viewBox="0 0 58.76 48.744">
  <path id="Trazado_24586" data-name="Trazado 24586" d="M59.15,77.72c.08-.09.14-.19.28-.35H58.16l-.46-.46.56-.27v-.58l-.54-.26.26-.32c-.61-.08-.89-.71-1.58-.7s-1.1-.37-1.75,0c-.28.16-.83-.21-1.26-.21A7,7,0,0,1,51.63,74l-1.11.32a4.86,4.86,0,0,1-.33-1.2A9.52,9.52,0,0,1,52,69.74a7.159,7.159,0,0,0,.62-1v-1L52,67.4l.37-.52c-.29-.62-1-.68-1.46-.82-.83-.22-1.19.84-1.81.71a18.249,18.249,0,0,1-1.3-1.45,11.661,11.661,0,0,1-.75-1.5l1.19-.43a2.07,2.07,0,0,1,.61-1.89.58.58,0,0,0,.2-.33c0-.77.49-1.47.29-2.26.67-.71,0-1.44,0-2.14A6.09,6.09,0,0,0,49,55.36c-.22-.67-.19-1.56-1.05-1.89.08-.1.18-.2.28-.33a4.87,4.87,0,0,1-.3-.71,6.51,6.51,0,0,0-1.54-2.7c-.63-.77-1.34-1.46-2-2.18-.06.11-.14.29-.21.44l-.72-.37.31-.32c-.49-.93-.21-2.38-1.74-2.65l-3.24,2.84c-1-1.37-1-3.09-1.47-4.63l.4-.37c1,.82,1.7-.52,2.57-.31.79-1.88,1.64-3.67,1.5-5.47a22.839,22.839,0,0,1-1.38-2.21c-.14-.3-.25-.56-.55-.68-1-.41-1.72-1.19-2.83-1.28a10.411,10.411,0,0,1-1.37-.38,1.76,1.76,0,0,0-1.07.08c-1,.5-2.06.39-2.88.73-.44.4-.79.7-1.08,1,0,1-.83,1.6-1.16,2.41a25.193,25.193,0,0,1-1.21,2.3c.38.34.69.6.95.82a9.63,9.63,0,0,0,1.69,5.8,11.24,11.24,0,0,1,2.83-1.19A1.83,1.83,0,0,0,35.1,43c0-.12.23-.19.39-.31a3.24,3.24,0,0,1-.12,1.56l1.05,2.39L34.92,48l-1,1.42c-.4.14-.77-.12-.82.34a1.07,1.07,0,0,0,1.12.26,4.29,4.29,0,0,1,2-.26,1.79,1.79,0,0,0,1.3-.26c.17-.13.53,0,1,0-.47.72-1.15.69-1.72.84s-1.11-.26-1.56.27c-.48-.46-.93.2-1.45.05-.29-.08-.7.28-1.16.49a2.03,2.03,0,0,0-1.05.12c-.29.19-.71.11-1.05.18s-.91.06-1.11.31-.68.17-1,.34a5.89,5.89,0,0,1-1.13.32c-.32.11-.69.43-.93.35-.4-.14-.71-.43-1,.39l-.65-.86.5-.58h1.33c.08,0,.15-.17.22-.27a4,4,0,0,0,2.53-.57,2.58,2.58,0,0,1,1.14-.27c.75-.07,1.5-.15,2.23-.29.2,0,.35-.35.53-.54l-2.34.36c-.28-.33-.65-.57-.71-.88a4.21,4.21,0,0,0-.32-.93c-.33-.7-.78-1-1-.47.34.59.62,1.22,1,1.79v.27l-.19.15-1.94-3.25c-.06.51-.1.83-.14,1.12a1.89,1.89,0,0,1,.79,1.93c-.21-.28-.37-.44-.48-.63a15.5,15.5,0,0,0-1.33-2.38,1.32,1.32,0,0,1-.33-1.38l1.05,1.06c.4-.3.69-.69.61,0a4.61,4.61,0,0,1,.63.77,9.129,9.129,0,0,0-.41-1c-.13-.25-.15-.3-.22-.42a3.6,3.6,0,0,0-.79-.93c-1.05-1.1-1.1-1.28-.63-2.41.89-.75,1.29-1.62,2-2.16l-.53-1-.87.3-.85-.2-.12.22.67.42L25.3,41.41c.35,0,.73.1,1-.28a.63.63,0,0,1,1-.13c-1.41.47-1.56,1.93-2.32,2.89-1.13,0-2-.78-3.13-.84a.8.8,0,0,1-.79-.83c-.17.14-.26.22-.31.25l-1-1.26V39.93h.53c-.19-.25-.39-.49-.55-.75a2.52,2.52,0,0,1,.08-.37c.36.15.48.76,1.06.45-.47-.4-.78-.89-1.37-1.1s-.7-.3-1.16.45l1.14.89c-.06.28-.12.51-.23,1a13.17,13.17,0,0,1-2-2.22L16,38.73a15.96,15.96,0,0,0,1.5,1.34c.5.34,1.1.74,1.78,1.19-1.31.28-1.8-.91-2.76-1.08-.25,0-.41-.52-.67-.86H14.77l.69-.33-.64-.94-.54.38.35.54c-.09.15-.2.32-.27.45l1.73,1.16c-.16.2-.22.29-.28.37.19.23.43.35.55.65-1,.13-.72-1.05-1.41-1.09A3.58,3.58,0,0,0,13,42.27l-.58-.65a2,2,0,0,0-1.67-1.11c-.41-.48-.82-1-1.25-1.44l-1.21.19c.36.38.59.59.77.83.06.08,0,.25,0,.39l-.71-.36c-.1-.36-.19-.64-.25-.88s.1-.44.17-.81l-.43.4c-.4-.49-.93-.19-1.42-.28l-.75.91.13.2.85-.25.6.4-.94.61a1.387,1.387,0,0,0,.12.41,2.56,2.56,0,0,1,.66-.3h0c.09,0,.21.17.29.26h.17c.8,0,.68,1,1.11,1.38a.1.1,0,0,0,.05,0l-.92-.35-.41-1h0a6.44,6.44,0,0,0-1.63,1h0l-.08.08-.09.1v.06l-.1.15,2,.7v.48L6.56,43l-.7.3c-.09-.27-.15-.43-.22-.65l-.32.69-.57-.32L4,43.67l2,1c.43-.09.92-.32,1.07-.19.36.34.6.21.92,0a2.58,2.58,0,0,0,.12.56c.94-.26,1.7,1.06,2.75.27l1.72.88.48-.37c.88.45,1.67,1.1,2.53.91.73.26.78.93,1.33,1.23a8.807,8.807,0,0,1,1.41,1.33c.48.43,1,.52,1.13.91.27.65.85.94,1.22,1.44l1.13,1.52H23l.44,1.07c2-.51,3.82-1,5.63-1.44.68.59.72,1.53,1.44,2a.86.86,0,0,1,.18.14l.11.11.1.11a1.33,1.33,0,0,1,.14.19c.34.47.61,1,1.26,1.12a1.45,1.45,0,0,0,.94-.69l.09-.12c0-.06.09-.12.14-.17a1.07,1.07,0,0,1,.14-.16c.46-.45,1.07-.74,1.35-1.45A26.68,26.68,0,0,1,37,58.34c.52,1.55,1,3.11,1.46,4.51l1,1.11a18.161,18.161,0,0,0,2.33,0,17.439,17.439,0,0,0,2.28-.6A14.84,14.84,0,0,1,46,66.49c-1.24.08-2.09-.7-3.19-.73-.26.47-.57,1-.79,1.37-.7.45-1.18.07-1.63-.15-1.15-.59-2.28-1.24-3.4-1.89a8.43,8.43,0,0,1-2.77-1.74.83.83,0,0,0-.34-.2c-1-.28-1.84-.92-2.82-1.27-.17-.06-.35-.07-.51-.13a5.261,5.261,0,0,1-.57-.26c-.37,1.08-1.32,1.8-1.47,3a1.52,1.52,0,0,1-.49.77,7,7,0,0,0-.91,1.44c-.49.83-.83,1.86-1.88,2.22a1.58,1.58,0,0,0,.16.2L24,70.73l-1.13-.24a1.11,1.11,0,0,0-.78.67c-1.53.11-3,.22-4.52.35-.15,0-.29.19-.46.22a25.361,25.361,0,0,1-3,.58c-.81.07-1.54.34-2.32.48h-.21l-.2.06-.21.06a1.27,1.27,0,0,1-1.07-.07,5.31,5.31,0,0,1-1.18.56H8.67c-.38-.44-.86-.19-1.29-.27S6.45,73,6,72.88a1.341,1.341,0,0,1-.24-.12v-.55a4.29,4.29,0,0,1-1.83-1.77h-1c.13.9,1.12,1.47.79,2.48A9.47,9.47,0,0,1,2.5,70.59c-.42-.89.17-1.81.14-2.76l-.48.09a1.137,1.137,0,0,1-.06.54l-1.43.86.31.37c-.08.11-.16.2-.21.26A5.71,5.71,0,0,0,2,71.85c.12.09.15.31.2.47a5.3,5.3,0,0,0,1.57,2.4v.4c.52.51.93.94,1.19,1.2l1,.51-.32,1-.91-.28c.27.28.36.38.44.48l-.26.29.72.37c.27-.21.47-.56,1-.56A2,2,0,0,0,7.41,78a11,11,0,0,1,4.47-.71c1.12,0,2.19-.6,3.34-.68a3.82,3.82,0,0,0,.83-.41H14.96c-.26,0-.47.48-.77,0a6.169,6.169,0,0,0-.73.35l-.76-.92a4.49,4.49,0,0,0,1.82-.29,1.42,1.42,0,0,1,.94-.15c.41.11.67-.23,1.08-.17a2.58,2.58,0,0,0,1.71-.22c.26-.14.72.08,1.14.14l1.91-.78v.85l-.46.05c-.73.65-1.31,1.17-1.84,1.62a20.4,20.4,0,0,0-6.08,2.19v.8l-.3-.62c-1.51-.52-2.57.57-4,.92l2.45.63c.25-.1.51-.29.64-.23.73.33,1.5-.08,2.23.24.4.17.86-.15,1.28-.22a12.12,12.12,0,0,1,3.59.37,8.589,8.589,0,0,0,1.6.09,5.71,5.71,0,0,0,1.18-.35c.11-.29.25-.65.37-1l-.68-.88,6.11-5.64c.51-.3,1.32,1,2.08.07l.53.37.42-.3c.13.08.28.24.43.24h1.7a8.41,8.41,0,0,0,2.18-.17l.21.21.07.07.07.07a2.47,2.47,0,0,1,.75-.18,13,13,0,0,1,2.83.21,10.14,10.14,0,0,0,2.8,0l1.41.7c-.9.39-2,.42-2.41,1.53H38.65c-.6,0-1.2-.22-1.73.19-.42-.54-1,.06-1.47-.14a5,5,0,0,0-1.74,0c-.07.21-.13.37-.19.54-.25-.18-.46-.62-.78,0l.79.84.74-.36c.13.12.23.22.34.31.1-.09.19-.25.3-.26,1.12-.09,2.28.19,3.38-.28.09,0,.24.09.37.11s.52.09.77.16c.42.13.78-.22,1.21-.13a9.251,9.251,0,0,0,1.48.13h5.17a7.821,7.821,0,0,1,1.16.2l1.89-.4.09.09.1.1.24.24.3-.18.09-.06h.18l.33.29a9,9,0,0,0,2.56-.2h.06l.56.28h0l-.28.31c.31.15.62.31.91.44l.48-.38,1.36.88h1.61l.44-.47a1.9,1.9,0,0,0-.22-.33ZM30.23,42.43c-.6-.33-.47-.83-.37-1.5l.72,1v.06Zm4.15.06s-.1.24-.21.49H33L31.55,44.1H31a1.59,1.59,0,0,1,1-1.22c1.11-.37,1.5-1.4,2-2.35a5.369,5.369,0,0,1,.34-.51,1.36,1.36,0,0,1,0,1.4C34.22,41.65,34.36,42,34.38,42.49Zm.39-2.4c.12-.2.2-.52.38-.59a2,2,0,0,0,1.22-1.38l.65.53a6.77,6.77,0,0,1-2,1.64Zm.9,9.13V48.06c.32.15.58.29,1,.48Zm.07-4.91a4.18,4.18,0,0,1,.52-.63,1.18,1.18,0,0,1,.36-.14C36.78,44.39,36.78,44.39,35.74,44.31Zm.29-2.1-.21-.6-.61.56c0-.08-.14-.2-.12-.23A7,7,0,0,1,38,39.21l-.55-1.33-1.15-.37-1.42.91V39c-.7.3-1,1-1.5,1.45-.16.17-.14.7-.22.7-.56,0-.51,1-1.21.75a.7.7,0,0,1-.16.14c-.38.28-.76.12-1.14-.14h0V40.47L29.84,39l.18-.24-.28-.44c.22-.37.44-.75.68-1.14.6.53-.18.9-.06,1.4.29.51.62,1.07,1,1.68.64,0,1-.5,1.43-.89-.09-.31-.18-.59-.24-.83L31,36.37l-.23.24-.24.24a.93.93,0,0,1,0-.13.49.49,0,0,1,0-.15v-.08a.11.11,0,0,1,0-.08v-.08l.24-.27c.16-.61.3-1.11.41-1.52l2.63-1.61.23.56h1.59v-.15l-1.24-.13.81-.42,2.19.76.42-.26a1.889,1.889,0,0,0,.1.43h-.14l-.37.13v.21a1.49,1.49,0,0,0,.28.29l.13.1.28.19a5.57,5.57,0,0,0,.6.32l-.38-1.27c1.4,1.25,1.42,1.45,1.59,3,.07.6.09,1.21.17,1.8a12.53,12.53,0,0,1-.3,2.51c0,.1-.19.2-.34.35h-.88l-.46.46L37,42.08c-.31.03-.65.08-1,.13Zm-18.48-.62,1.66.58.58-.32c.16.14.32.31.63.6-.69,0-1.31.19-1.65,0s-.9-.08-1.29-.3c.03-.22.04-.35.07-.56ZM15.49,45.5c-.71.13-.66-.52-1.1-.64l.4-.4.7.34Zm7.67,6.27c0-.44-.06-.79-.08-1.15l.25-.13.9.76C23.89,51.41,23.59,51.55,23.16,51.77Zm-.28-2.55-.34.26v-.61L19.8,46.72l-.35.2v.41c.66.5,1.55.72,1.95,1.55h-.74l-.47-.56h-.74v.56l.48-.23c.27.32.58.71.92,1.08s.56.55.84.82c.1-.19.2-.36.27-.5-.1-.34-.19-.62-.27-.89l.81.62v.77h-.81c.1.23.22.45.34.71l-.36.13c-.76-.87-1.48-1.69-2.22-2.51A2.55,2.55,0,0,1,18,47.63c-.26-.61-1-.85-1.59-1.07v-1a.77.77,0,0,1,.23.09l2.8,2.66a4.361,4.361,0,0,0-.17-.59c-.11-.31-.32-.63.17-.81v-.27a8,8,0,0,0-2.81-1.94l.28.43c-.22.21-.28.18-.76-.36l.27-.26-.89-.69V42.77h-.89l.29.39-1.1.84v1c-.29-.27-.51-.47-.77-.69l-.47.35a5.88,5.88,0,0,1-2.94-.42c.09-.18.17-.37.24-.52L8.8,42.89c.53-.36.84.13,1.1.28a1.715,1.715,0,0,0,1.31.41l-.4.43c.44.35.76.11,1-.21-.63-.58-1-1.47-2-1.63l.52-.52,1,.27v.47l.35.1.49-.57a3.86,3.86,0,0,0,1.44,1.78l.83-1.83a3.68,3.68,0,0,0,.92.31,3.12,3.12,0,0,0,.88-.3c.05.19.12.49.2.79.1-.1.19-.22.29-.32,1.25.34,2.5.67,3.74,1,.72.21.72.24,1.33-.07.67.39,1.33.82,2,1.16,1.36.66,1.81,1.94,2.32,3.19.21.51.21,1.12.69,1.54.15.13.07.51.15.75a3.59,3.59,0,0,0,.3.65c-.17.48-.82-.08-.87.51l-.48.28C24.62,51.13,24.17,49.58,22.88,49.22ZM6.12,75.29c-.08-.37-.4-.39-.58-.58a2.84,2.84,0,0,1-.37-.84c.19-.18.38-.34.66-.59L6.91,75.5a.45.45,0,0,1-.79-.21Zm1.26-.49.32-.39-.5-.24.49-.58,1,1C8.23,75,7.85,74.78,7.38,74.8Zm9.68,4.48a2.28,2.28,0,0,1-2.16-.79h2l.43.53c-.17.14-.21.25-.27.26Zm2.51.37-1.8-.47a1,1,0,0,1,0-.26c.1-.34.46-.12.67-.2L19,78.2l1.11.66c-.18.29-.34.5-.54.79Zm.95-2.12-.75.61V76.9l.75-.38Zm-10.1-1a2.21,2.21,0,0,1-.75-.81h2.74a1.076,1.076,0,0,0,.05.41Zm6.71-1.74c-.7-.47-1.37-.09-2.07,0s-1.5.21-2.25.29a3,3,0,0,1-.42,0,3.26,3.26,0,0,0-1.8.2l-.17-.48-1.27.31V74.6c2-.18,2.2-.17,2.9.18.07-.07.13-.18.2-.19l3.75-.4.82-.43.25.21.29-.25c.33.42.13.73-.23,1.04ZM18.64,73a3.05,3.05,0,0,1-.06.33c-.37,0-.68-.29-1.16,0a5,5,0,0,1-1.91.39,3.64,3.64,0,0,1-1-.29l-.33.52c-.77.16-1.45-.13-2,.35l-.83-.39a.88.88,0,0,1,.12-.19,2.51,2.51,0,0,1,1.44-.57c1.45-.37,3-.13,4.4-.8A21.58,21.58,0,0,0,21,71.76a3.12,3.12,0,0,1,.71.13C20.64,72.73,19.61,72.66,18.64,73ZM47,53.06a16.841,16.841,0,0,0,.76,1.61,4.37,4.37,0,0,1,.78,2.74,7.63,7.63,0,0,0,.24,1.27,10.461,10.461,0,0,1,0,1.26l-.63.44c-.1-.12-.22-.2-.2-.26,0-.28.29-.69.18-.81-.36-.39.27-.59.1-.93a1.9,1.9,0,0,1-.28-.85,9.73,9.73,0,0,0-.58-2.67c-.08-.33-.29-.63-.39-1a7.4,7.4,0,0,1-.15-.82Zm-2.16-3.8a4.43,4.43,0,0,1,.85,1.16,1.66,1.66,0,0,0,1.08,1v1.31c-.9,0-.82-1-1.55-1.17V50.35c-.27-.06-.4-.1-.61-.16a3.21,3.21,0,0,0,.21-.3c-.07-.19-.16-.4-.26-.67.13.02.23,0,.26.04Zm-4.69-1.51a3.17,3.17,0,0,1,2.14-2,6.13,6.13,0,0,1-.75,2.12v1.27l-.75.91c-.17-.11-.31-.16-.37-.25a3.74,3.74,0,0,1-.29-2.05Zm-8.64,4L34,51.34c-.13,1-.81,1.48-1.4,2.12l-1.12-1.05ZM32.76,55c-1-.17-2-1.07-3-2.65,1-.19,1-.19,1.38.7a.84.84,0,0,0,.12.23l.58.62A3.19,3.19,0,0,0,34,52.6c.47-.49.91-1,1.5-1.71.09.42.14.66.18.83Zm2.53-1.18c.17-.6.31-1.1.48-1.67.23.28.43.52.6.74-.07.28-.16.6-.27,1ZM36.93,55h-.72c.26-.39.48-.72.72-1.06l.34.39C37.17,54.5,37.06,54.73,36.93,55Zm.75-.3a2.79,2.79,0,0,1,.53.21,18.88,18.88,0,0,0,4.18,1.66c.23.09.46-.21.73.08A1.47,1.47,0,0,0,44,57a6.309,6.309,0,0,0,1,0,7.851,7.851,0,0,0,1,0c.13,0,.24-.17.36-.26a2.4,2.4,0,0,0-.71-.27,13.519,13.519,0,0,1-4.34-1c-.71-.19-1.28-.78-2.08-.71-.28-.53-.87-.09-1.23-.38l.22-.28c-.16-.34-.56-.56-.88-1h.64c-.09-.14-.17-.29-.3-.51.92-.12,1.43.78,2.26.81a22.32,22.32,0,0,1,2.47.36l.29.26v-.81c-.44.06-.89.28-1.16.14-1-.49-2.34-.06-3.1-1.43a6.93,6.93,0,0,0,.91.34,5.75,5.75,0,0,0,.83,0V51.8l.56-.26a.68.68,0,0,0,0-.14l-1,.13c-.19-.23-.47-.23-.72.09l-1-.67c.35-.11.7-.21,1-.33.06.16.11.33.2.57,1.11-.67,2.41-.43,3.65-1a4.19,4.19,0,0,0,.52.82,3,3,0,0,0,.77.43l-.46.47H40.55l-.39.31.63.5c.54-.49,1.21-.13,1.81-.26s1.07-.3,1.63-.47l.62.62-.4.4H43.28l-.48.78,2.48-.51c.14.28.26.51.37.74l-.91.46H42.39l-.12.14h0a.9.9,0,0,1-.15-.19,2.38,2.38,0,0,1-.06-.35H41v.41l.87.32.35.11.36.11c.23.06.47.13.71.18a9.4,9.4,0,0,0,3.52.21v.76l-.51.4c.46.06.21.41.31.71l-.87.57.34.12c.28.1.54.22.85.34l-.48.49H45a2.623,2.623,0,0,1-.15.49c-.22-.07-.44-.13-.66-.21a4.82,4.82,0,0,0-.72-.27c-.2,0-.38-.5-.62-.05a3.07,3.07,0,0,0-.6-.49,2.31,2.31,0,0,0-.75-.2.843.843,0,0,1-.38-.06h-.41a1.36,1.36,0,0,0-.42-.49c-.67-.38-1.14-.49-1.52-.75v-.37l1.87.72c.16-.49-.13-.7-.51-.78a3.9,3.9,0,0,1-2.45-1.63Zm1.88,3.46V57.9c0-.08.18-.13.24-.11l1.29.64.92.46c0,.32.06.54.08.81.36.1.83.4,1.09.28a3.45,3.45,0,0,1,1.57-.24h1.64l.29.29L46,61l-.46-.35c-.66.54-1.32.25-2-.08-.1.24-.16.41-.26.69-.09-.22-.14-.36-.19-.5a2.42,2.42,0,0,1-.89-.41c-.31-.34-.66-.22-1-.3a6.93,6.93,0,0,1-1.07-.51L41,59c-.49-.27-1-.54-1.44-.82ZM40,63.51,38.94,62a.749.749,0,0,0,.06-.1h0v-.07l.15-.25-.24-.1-.4-.16.79-.22h0l.38.16c.17.69.22,1.48,1.43,1.76Zm5.17-.95c-.54-.24-.89-.54-1.23-.54a4.21,4.21,0,0,1-2.78-1.15c.33,0,.65-.09.74,0,.6.69,1.53.33,2.2.75a.287.287,0,0,0,.19-.07,1.84,1.84,0,0,1,1.77.15l.34-.28c.21.26.42.54.69.9l-.33.42c-.57-.34-1.2-.11-1.58-.18Zm1.46,5.89,1.08-.4.46.78-.36,1.79h-.35c-.06-.28-.11-.56-.17-.85l-1.49.38c.39-.75.61-1.21.84-1.7ZM44.21,67a2.72,2.72,0,0,1,.76.31,2.78,2.78,0,0,1,.42.74l-1.67.65C43.85,68.09,43.48,67.47,44.21,67Zm-4,6.39a2.832,2.832,0,0,0-.08-.4c-.02-.14-.06-.09-.1-.09h-2.5a2,2,0,0,0-.62.21c-.21-.34-.61-.19-1-.23s-.67-.09-1.25-.17a4.43,4.43,0,0,1-2.64,0l-1.54-.32-.52-.1h-.05a.61.61,0,0,1-.3.19h-.82a1.7,1.7,0,0,0-.55,0c-.17-.22-.33-.42-.49-.64a2.53,2.53,0,0,1,2.16-.24,1.22,1.22,0,0,0,.27,0c2.75.07,5.5.45,8.25.27a8.6,8.6,0,0,0,1-.25,9.352,9.352,0,0,1,1.21,0l.36.85a5.148,5.148,0,0,1-.83.91Zm5.92.65c-1.15-.16-2-1-3.09-1.24-.27-.06-.45-.42-.67-.63,0-.26.05-.47.08-.78l.82.41.43-.3a.822.822,0,0,0,.09.31L45.91,73a4.841,4.841,0,0,0,.47.21c.63.22.63.22.67,1-.37.16-.65-.14-.96-.21Zm2.25-.87c-1.06-.26-1.84-1.25-3-1.13-.32-.43-.89-.42-1.23-.7s-.89-.26-1.17-.57-.72-.31-1.06-.49c-.88-.45-1.73-1-2.6-1.46a4.32,4.32,0,0,0-.69-.22c.88,1.13,2,1.46,3,2.18l-.8.57c-.29-.51-.84.18-1.23-.06-.6-.38-1,.38-1.53.21s-1,.05-1.61-.19a3.64,3.64,0,0,0-1.62-.09,5.07,5.07,0,0,1-1.56-.29c-.52-.11-1-.19-1.63-.29l-.18.47a4.9,4.9,0,0,0-.64-.18c-.27,0-.67.11-.81,0s-.4,0-.64,0c-.43.09-.93.13-1.16-.37l1-.76V68.47H29a2.77,2.77,0,0,1-.79,1.36,2.42,2.42,0,0,0-.58.87,6.17,6.17,0,0,1-2,2.79l.28.33-.41.35-.52-.38-.18-.13c.23,1.12-.76,1.51-1.32,2.19l-.05.07L23,75.78c.25-.42.43-1.06.76-1.17.54-.16.64-.62.92-1a2.43,2.43,0,0,1,.93-1.45,3,3,0,0,0,1.07-2.06,8.74,8.74,0,0,0-2,2.32,11,11,0,0,1-.83.75c-.07.19.06.89-.86.82a2.94,2.94,0,0,1,.86-1.47,20.18,20.18,0,0,1,2.33-3,1.58,1.58,0,0,0,.47-1.44c.61-.65,1.05-1.27,1.54-1.85s.48-1.54,1.47-1.83v1.34L28.1,67.57c-.57.13-.1.82-.61,1.08-.34.17-.54.66-.78,1-.06.1,0,.27,0,.4l1.2-1c.23-.57.35-.88.48-1.19.56-.16.93.17,1.29.6l1.84-3.14.33.27c.14-.08.27-.18.42-.27a7.59,7.59,0,0,0,3.36,1.57,15,15,0,0,0-2.08-1.5,5.1,5.1,0,0,1-1.92-2,13.79,13.79,0,0,1,4.33,2l.4-.28h0a2.7,2.7,0,0,0,1.78,1.51,2.8,2.8,0,0,0,.31.09,22.14,22.14,0,0,1,5.93,2.87c1,.65,2,1.33,3.09,2a4.4,4.4,0,0,1,1.48,1.93,2.56,2.56,0,0,0-.61-.35Zm1.13-1c-.31-.91.23-1.53.33-2.21a13,13,0,0,1,.78-2.23l.56.32.34-.19c0,.12.1.22.07.29-.59,1.38-.75,2.94-2.12,4.04Z" transform="translate(-0.67 -32.112)" fill="#1f7762"/>
  <path id="Trazado_24587" data-name="Trazado 24587" d="M20,40.93l1.44,1.12,2.38.91.65-.8c-1.05-.62-1.37-1.67-1.95-2.54-.07-.11,0-.33,0-.64a10,10,0,0,1,1.93,3.15h0c.26,0,.53.07.57-.25v-.06h0v-.09c0-.13.17-.27.25-.4a1.07,1.07,0,0,1-1.13-1.15,15.16,15.16,0,0,1-.94-1.36,3.31,3.31,0,0,0-1.33-1.42,1.32,1.32,0,0,1-.2-.12,2.71,2.71,0,0,1-1-1.25h0l-.48.93-.15.29c.53.74,1.09,1.47,1.57,2.26.12.19-.06.56-.11.94l1.06,1.14c-.12.16-.17.23-.31.4-.29-.27-.72-.48-.85-.81a2.62,2.62,0,0,0-1.14-1.25C20.27,40.29,20.4,40.69,20,40.93Z" transform="translate(-0.67 -32.112)" fill="#1f7762"/>
  <path id="Trazado_24588" data-name="Trazado 24588" d="M27.05,39.11h.46v-.8a1.71,1.71,0,0,1-.46.28,4.12,4.12,0,0,1-.65.06,1.922,1.922,0,0,0,.1.51Z" transform="translate(-0.67 -32.112)" fill="#1f7762"/>
  <path id="Trazado_24589" data-name="Trazado 24589" d="M36,67.34a4.48,4.48,0,0,0,2.12,1C37.53,68,37.15,67.18,36,67.34Z" transform="translate(-0.67 -32.112)" fill="#1f7762"/>
  <path id="Trazado_24590" data-name="Trazado 24590" d="M43.86,58.13c.55.35,1,.16,1.56.21V57.9c-.48-.33-.93.24-1.44-.07a6.45,6.45,0,0,0-1.5-.36c-.47-.14-.93-.35-1.44-.55v.58a2.217,2.217,0,0,1,1.39.3C42.82,58.1,43.48,57.88,43.86,58.13Z" transform="translate(-0.67 -32.112)" fill="#1f7762"/>
  <path id="Trazado_24591" data-name="Trazado 24591" d="M39,53.9c.17.15.32.32.49.48.33-.37.75-.24,1.1,0l.41-.19c-.07-.09-.14-.26-.22-.26a2.52,2.52,0,0,1-1.15-.27,8.11,8.11,0,0,0-1.7-.58C38,53.63,38.61,53.61,39,53.9Z" transform="translate(-0.67 -32.112)" fill="#1f7762"/>
</svg>
