<svg id="Calavera_yuca-frita" xmlns="http://www.w3.org/2000/svg" width="52.782" height="62.31" viewBox="0 0 52.782 62.31">
  <path id="Trazado_24592" data-name="Trazado 24592" d="M27.49,35.41l-.06.06a.156.156,0,0,1,.11.06c.05.06,0-.06,0-.09A.08.08,0,0,1,27.49,35.41Z" transform="translate(-3.64 -25.39)" fill="#1f7762"/>
  <path id="Trazado_24593" data-name="Trazado 24593" d="M42.06,47.18v-.06h.27L42.09,47l-.08.09a.06.06,0,0,0,.05.09Z" transform="translate(-3.64 -25.39)" fill="#1f7762"/>
  <path id="Trazado_24594" data-name="Trazado 24594" d="M45.61,65.24h0a.08.08,0,0,0,.08,0h0a.08.08,0,0,1-.08,0Z" transform="translate(-3.64 -25.39)" fill="#1f7762"/>
  <path id="Trazado_24595" data-name="Trazado 24595" d="M32.43,37.05c0,.26-.06.5-.08.76a1.67,1.67,0,0,1,.08-.2,1.73,1.73,0,0,0,0-.56Z" transform="translate(-3.64 -25.39)" fill="#1f7762"/>
  <path id="Trazado_24596" data-name="Trazado 24596" d="M45.69,65.27a.07.07,0,0,0,0-.06.11.11,0,0,0-.09,0C45.64,65.24,45.67,65.27,45.69,65.27Z" transform="translate(-3.64 -25.39)" fill="#1f7762"/>
  <path id="Trazado_24597" data-name="Trazado 24597" d="M56.41,45.28c-.24-.38-.44-.7-.65-1.06H54.54a13.93,13.93,0,0,1-1.38-1.4A11,11,0,0,0,50,40.56a4.92,4.92,0,0,0-2.9-.76H45.84c-.67.56-1.35,1.09-1.73,1.38-.32.91-.52,1.49-.82,2.31a8.154,8.154,0,0,1-.08,1.17c-.18-.38-.3-.58-.38-.79l-1.91.38c.09-1.31-1.43-1.52-1.49-2.6-.23-.12-.56-.21-.59-.35-.2-.59-.73-.76-1.11-1.15A4.71,4.71,0,0,1,36,37.26a4.16,4.16,0,0,0-.65-1.76,2.7,2.7,0,0,0-2.49-1c-.47,1.58-.9,3.11-1.4,4.69H30.7c-.74.35-.44.91-.53,1.23-.29.32-.5.58-.64.73h-.77a2.06,2.06,0,0,1,0-.35v-.27a.76.76,0,0,0-.15-.52.65.65,0,0,0-.15-.12h0c.06-.06.12-.09.18-.15s0,0,0-.05a6.85,6.85,0,0,1,.9-2.7c.12-.2,0-.58-.08-1.08.26-.47,1.34-.62,1.31-1.76-.61-.67-.26-1.46.09-2.31a7.53,7.53,0,0,1-1.29-2.52c0-.06-.14-.06-.23-.11-.06.26-.15.49-.26.93.23.68.52,1.52.85,2.46-.12.26-.27.62-.39.91-.49.12-1,.2-1.58.35-.17-.18-.41-.44-.7-.79.32-.06.59-.09,1-.15-.15-.32-.24-.61-.38-1l.47-.18c-.06-.64-.15-1.29-.24-2.11-.35.24-.64.44-1,.68a2.06,2.06,0,0,0-1.85.79c.18.58.38,1.2.65,2-.27.17-.68.41-.79.82A9,9,0,0,0,25,35.18c.61.06.61.06,1.67-.47-.06.29-.15.58-.18.85a6.92,6.92,0,0,0,0,.79c-.64.26-1.32-.15-1.87.32-.21-.09-.44-.2-.73-.35l.17-.26c-.09-.74-.14-1.32-.2-1.91a4.09,4.09,0,0,0-1.41-3c-.23.09-.44.14-.67.23s-.32.15-.5.21c-.2.23.21.73-.35.79a2.59,2.59,0,0,1,.2.47,2.221,2.221,0,0,1-.2.29,7.47,7.47,0,0,1,.29.91,6.45,6.45,0,0,1,0,1.08c.41-.21.65-.29.79-.53h0l-.12-.08c.41,0,.68-.06.94-.06,0,.06.09.11.12.17l-.76.09c.09.12.2.21.29.32a2.77,2.77,0,0,0-.53-.38.22.22,0,0,1,0,.15l.09-.06c-.12.47-.26.94-.38,1.4-1.67-.49-2.22-1.34-1.67-2.48-.11-.38-.23-.76-.38-1.26h1.26c0-.24.12-.59,0-.71-.73-.73-.53-1.66-.55-2.54a7.66,7.66,0,0,1,2.95-3.4c.88.12,1.61.21,2.55.29a3.2,3.2,0,0,0,1,.65c.58.17.67.85,1,.94.61.14.56.73.88,1s.44.35.67.53v-1a20.358,20.358,0,0,1-1.52-1.7,2.8,2.8,0,0,1-.7-.29,6.17,6.17,0,0,1-.82-.79H22.3c-.2.59-.82.41-1.17.67a6.81,6.81,0,0,0-.88,1h-.52a2.851,2.851,0,0,1-.12.29c-.29,1.44-1.14,2.78-.58,4.3a.19.19,0,0,1,0,.15c-.71.64-.18,1.35,0,1.93a5.89,5.89,0,0,0,2.84,3.84h1.56v1.11c.84.44,1.61.85,2.31,1.26v.91c.32-.33.58-.68.85-1,.82,1.14.82,1.14.79,1.87-.62-.29-1.17-.55-1.64-.79h-.06a1.43,1.43,0,0,0-.59.23c-.64-.41-1.26-.79-2-1.2H20.78a1.24,1.24,0,0,0-.5-1.14c-.64-.47-1.25-1-2-1.52a4.62,4.62,0,0,0-1.05,4.8c-.26.35-.47.58-.62.82-.32.55-.49,1.29-.93,1.61s-.65,1.11-1.38,1.17c0,.53-.44.7-.73,1a10.78,10.78,0,0,1-1,.74,3.56,3.56,0,0,0-1.17,2.43,27.91,27.91,0,0,1-.82,3.33A20.88,20.88,0,0,0,10,55.64,7.21,7.21,0,0,1,8.66,59C7.29,58.8,7,60,6.35,60.76A2.45,2.45,0,0,0,9,62.81a9.8,9.8,0,0,0,1.64,3.55,9.261,9.261,0,0,1,1.06-.24,22.2,22.2,0,0,1,2.78-.73,1.87,1.87,0,0,0,1.64-.79h1c.15.35.27.61.35.85L15.8,66.94c.09.91.12,1.64.24,2.37a8.64,8.64,0,0,0,.47,1.41c.11.29.29.55.38.85a6.39,6.39,0,0,0,.64,2.05,18.74,18.74,0,0,1,1,2.07,8.29,8.29,0,0,1,.52,1.41L20,78c.41,1,.73,1.87,1.06,2.72a6.61,6.61,0,0,1-2.29,2c-.47-.06-1-.15-1.67-.26a5,5,0,0,1-.76.2H14.59c-.09,0-.15.09-.24.15v.55c-.44.27-.85.56-1.26.82-.14-.14-.26-.23-.35-.32-.67.67-1.73-.12-2.4.56a.56.56,0,0,1-.44,0,4.171,4.171,0,0,1-.55-.32l-.62.38L8,84l3-.5.36-.35c-.33-.15-.65-.32-.94-.47l-.5.35a2.4,2.4,0,0,1-.44-.26A4,4,0,0,0,8,83c-.47.35-.7-.23-1.11-.06a4,4,0,0,1-1.35.3,11.368,11.368,0,0,1-1.43,0c-.15.26-.27.5-.47.88H6.91c-.36.32-.53.46-.68.58H4.74c-.18.18-.32.35-.64.67.32.15.55.24.76.36.61.32,1.4-.09,2.13.32s1.44-.21,2.17-.21a3.85,3.85,0,0,0,2.22-.29,3.93,3.93,0,0,1,2-.29l.91-.65c.18.15.29.27.47.41.06-.41.09-.64.12-.87h.91c-.15.32-.24.52-.39.87.56-.08,1-.17,1.44-.26l.09.09.08.09c.12-.09.21-.18.3-.24.26.15.49.26,1,.59a6.08,6.08,0,0,0-3.69.55H17.4a8.92,8.92,0,0,0,4.63-1.49c.91-.53,1.7-1.26,2.63-1.7a2.28,2.28,0,0,1,.33-.12V81.46c-.33-.73-.56-1.32-.85-1.87a6.22,6.22,0,0,1-.85-1.82c-.09-.76-.79-1-.88-1.7a6.81,6.81,0,0,0-.94-3.39,9.77,9.77,0,0,1-1.14-4.8c.21-.21.38-.41.59-.62v-1.2c1.78-2.37,3.54-4.74,5.21-7,2-.5,3.75.49,5.53.08.15-.47,0-.9-.35-1-.67-.21-.61-.82-.91-1.26l-1.64-.41c.21-.18.38-.47.5-.44a3.78,3.78,0,0,0,2.17-.79,2.65,2.65,0,0,1,1.67-.38c.23-.35.38-.62.55-.88.15.73.27,1.46.41,2.2A3.2,3.2,0,0,0,35.36,58h1.41v-.73c.55-.26.82.12,1.17.35s.82.18,1.17.35c.73.38,1.4.82,2.13,1.23s1.64.24,2.26.91a1,1,0,0,1,1.08.76c.12.59.65.62,1,.94-.12.23-.24.49-.35.7a6,6,0,0,1,.38.56l-1,1.31a6.67,6.67,0,0,0-.7,1,26.23,26.23,0,0,0-1.14,2.6,11.39,11.39,0,0,0-1.06,4.69,2.16,2.16,0,0,1,0,.44c-.38,1.81-.47,2.46,0,3.68A3.56,3.56,0,0,1,42,78.33c-.59.5-1.09.94-1.73,1.46l-2.43-.35a10.069,10.069,0,0,1-1.49,1.11,8.11,8.11,0,0,1-1.79.5c.21.44.38.76.5,1a5.33,5.33,0,0,0,2.49-.27c.67-.23,1.28-.76,2.08-.38.43-.55,1.2.09,1.69-.47s1.17-.17,1.73-.38,1-.2,1.49-.38c.62-.26,1.32.12,1.91-.41.17-.14.67.06,1.08.12a10.87,10.87,0,0,0,3.22-1.43c.2-.15.53-.12.79-.18a7.849,7.849,0,0,0,1-.41v-.94a4.51,4.51,0,0,0-2.81-1c-1-.09-2,0-3.08,0-.09,0-.17-.09-.23-.12s-.06-.26-.09-.38c-.59-.44-1.11.62-1.7.06.29-.38.59-.73.91-1.11a6.13,6.13,0,0,0-.73-.41,13.681,13.681,0,0,0,1-1.55c.53-1.23.94-2.55,1.5-3.75a1.6,1.6,0,0,0,0-1.76c.55-.91,1.05-1.75,1.58-2.6s1-1.73,1.58-2.64V60.5c-.21-.12-.35-.23-.53-.32-1.11-.5-2.25-.94-3.36-1.41s-2.35-.93-3.46-1.52c-1.35-.73-2.66-1.55-4-2.31h0c-.06.09-.15.14-.21.23l-.08-.09c.08,0,.14-.14.23-.2h0c.09-.35.23-.7.29-1a8.41,8.41,0,0,0,0-1.23c.76-.15,1.44.14,2-.36A1.73,1.73,0,0,1,42.5,52c.44,0,1,.18,1.29,0,.56-.41,1.08-.14,1.52-.23a15.16,15.16,0,0,0,5.1,4.83c1.14-.18,2.08-.32,3.25-.53.61-.91,1.31-1.93,2-3-.21-1.46.29-3-.3-4.36a5,5,0,0,0,1.05-3.43Zm-34.22-13h.26v.76H22.3a5.79,5.79,0,0,0-.11-.73Zm.2,1.87c.21-.32.32-.52.59-.93.06.43.09.7.14,1a5.56,5.56,0,0,1-.73-.04ZM15,83.66v-.27h.49v.15C15.31,83.57,15.13,83.63,15,83.66Zm.84-.06v-.15a6.838,6.838,0,0,0,.79-.12v.27Zm.3.88v-.15l.47-.12v.27Zm1.61-.82h-.09v-.3h.09ZM40.92,45.78,42,45.07c.23.38.46.76.76,1.2-.21.24-.41.47-.68.76l.24.09a1.783,1.783,0,0,0,.06.56H42.2l-.09-.53L42,47.12c-.38-.23-.74-.47-1.06-.67a4.861,4.861,0,0,1-.02-.67Zm-6.15-7.91h.3V38h-.3Zm.77,1,1.87,2.4a8.82,8.82,0,0,0,.61.76A6,6,0,0,1,40,45a8.4,8.4,0,0,1-1.79-1.34,13.5,13.5,0,0,0-2.08-2,26.1,26.1,0,0,0-2.31-1.91c.23-.14.47-.32.73-.46s.58-.22.99-.39Zm-6.85-4.31h.49v.82h-.49ZM25.61,39.1l.94-.26a1.886,1.886,0,0,1,.06-.5c-.85.64-1.58,0-2.34-.12.58-.5.58-.5,2.37-.88.26-.55.58-1.2.9-1.84a.174.174,0,0,1-.11-.06,1.213,1.213,0,0,0-.24-.2l.09-.09c.06.09.15.14.21.23h.08l1.12.7c-.15.3-.27.53-.38.79l.17.27a.39.39,0,0,0,.12.14h0l-.41.41-.47.47v1.26a16.66,16.66,0,0,1-2.11-.29ZM34,44.81a2.12,2.12,0,0,1-1.5,1.55,3.33,3.33,0,0,1-3.1-.35c-.53-.15-1.05-.29-1.58-.41.35-.35.7-.67,1.08-1,.65.2.94-.68,1.67-.71.56,0,1.11-.52,1.79-.85a10.5,10.5,0,0,0,.11,1.06c-.61.73-1.52.73-2.25,1.05-.47.18-.5.18-.67.82C31.09,45.51,32.46,45.19,34,44.81Zm-.5,3.51H31.61c.09.29.18.5.3.79l-.53.09c-.06-.29-.09-.56-.18-.94-.61.06-1.26.09-1.93.15a7.13,7.13,0,0,1-.32-.64,4.67,4.67,0,0,1,2.19-.65c.8-.14,1.61.27,2.38-.26l.44.44c-.15.32-.3.64-.5,1.02Zm.41,1.7h-.5V48.61A11.25,11.25,0,0,0,33.87,50Zm-1.61-.67c.11-.09.29-.24.38-.33-.01.41-.01.41-.42.33Zm-.41,1.08v.09h-.3v-.09Zm-3-2.81c-.17-.32-.29-.53-.41-.73.15-.09.41-.24,1-.53a4.741,4.741,0,0,0-.65,1.26Zm-1,1.49h-.27v-.5a.39.39,0,0,0,.15,0,.777.777,0,0,0,.01.5Zm-.06-4.86v.15l-.47.12v-.27Zm-.5,5.18H28c0-.23.09-.49.18-1.11a9.311,9.311,0,0,0,.29.91,10.813,10.813,0,0,1,1.11-.41c-.26.5-.41.79-.58,1.14.14.06.35.18.53.27v.35a2.22,2.22,0,0,0-1,.08c-.56,0-.67.41-.82.79-.32-.05-.82-.26-1-.11-.46.41-.7-.3-1.14-.12-.23.12-.67-.2-1-.32v-.82h2c0-.21.09-.32.06-.38a3.62,3.62,0,0,0-.38-.47c-1,.12-2,.2-3,.32-.15-.2-.29-.38-.47-.58.15-.41.27-.85.5-1.5.06.59.09.94.15,1.35L26.08,48l1.08.73c0,.21.03.41.06.7Zm1.61,2.38v.29h-.09v-.29Zm-1.46.58v.29h-.09v-.29Zm-2.64-.58v.29h-.08v-.29Zm-3.89-11.1h.09V41h-.09Zm-2.37,3.63c.06-.12.15-.26.23-.41h-.52c-.15.56-.33,1.11-.47,1.73l-.47.06c-.5.58-.94,1.08-1.41,1.64a6.49,6.49,0,0,1-.11.7c-1.17-.67.2-1.49-.21-2.11a17.72,17.72,0,0,0,2.87-5.36c-.82-.9.47-1.23.47-1.9,1,.12.47,1.11,1,1.35a5.36,5.36,0,0,0-.44,2.46c.09-.18.18-.35.3-.62.14.29.29.53.32.59.88-.3,1.58-.5,2.22-.73.62.2,1.26.38,1.91.58l.11.47c.77.09,1.67-.21,2.29.56l-1.23,1,.2.18c-.93.09-1.87.17-2.92.29L22,44.43a15.22,15.22,0,0,1-2-1.32c-.12.09-.2.21-.32.26a1.1,1.1,0,0,1-.32,0c-.06-.17-.12-.35-.27-.73-.11.32-.2.53-.29.76l-.15-.14V44H19c.44.53.85,1,1.28,1.52.47-.38.88.21,1.47,0a6.76,6.76,0,0,1,1.58-.38A3.12,3.12,0,0,0,25,44.93c.47-.27,1.2-.06,2-.06-.29.58-.5,1-.73,1.43H24.06l-.15.15c.12.15.27.29.47.5l2.4-.38v1.2c-1.37-.12-2.78.32-4.07-.59.09.62-.41.82-.87,1.29V47.18h-.15c-.03,0-.26.26-.44.41v1a5.1,5.1,0,0,0,.79.67c.38.17.18.82.79.88.18,0,.32.58.44.93s.15.71.26,1.2c-.11.24-.32.59-.52.94l.58.59c-.67.26-1.52.32-1.9.79-.56.61-1.29.49-1.9.76a6.65,6.65,0,0,1-2,.79,10.36,10.36,0,0,0-1.91.67c-.67.24-1.37.41-2.13.62a3,3,0,0,1-.15-2.61,19.54,19.54,0,0,0,.7-3.16c.56-.38.56-1.11.79-1.76.15-.41.33-.82.47-1.26.56.09.38-.87,1-.67v-.61c.32-.27.67-.47,1-.76s.53-.74.85-1.06c.47-.47.29-.82.06-1.2ZM13.2,47.71h1.2l-.44-.5,1-.09c-.71.82-.12,1.32.2,2-.47.35-1,.74-1.49,1.15.61,1.08.17,2-.18,3-.38,1.17-.79,2.31-1.26,3.43a.283.283,0,0,0-.2.08h0c-.06.09-.15.15-.21.24l-.08-.09c.08-.06.14-.15.23-.21h0a6.27,6.27,0,0,1,.7-3.19,1.68,1.68,0,0,0,.15-.67,4.62,4.62,0,0,1,.26-2.08c.06-.15-.12-.41-.2-.67l.32-.59c-.35-.06-.62-.12-1-.17A13.257,13.257,0,0,0,13.2,47.71Zm-2.69,9.63.05.06a9.75,9.75,0,0,1,.21-2.4c.2-.68.32-1.41.56-2.11a20.32,20.32,0,0,0,.49-2.49h.76c-.11.62-.2,1.29-.38,1.93a9.3,9.3,0,0,0-.46,1.7,2.36,2.36,0,0,1-.33,1,1.49,1.49,0,0,0-.29,1c.09.56-.32.88-.53,1.29a2.49,2.49,0,0,0-.23.23l-.09-.09a1,1,0,0,1,.24-.12Zm.79.61v.3h-.09V58Zm-.82,3.37c.52-.44.67.06.79.44a4.77,4.77,0,0,1-.79-.44Zm.9,1c.06-.09.15-.15.21-.24l.09.09c-.09.06-.15.15-.24.2a.677.677,0,0,0-.2.24l-.09-.09a1.666,1.666,0,0,1,.23-.23Zm1.18,2.31a2.62,2.62,0,0,0-.59-.24h-.76c-.12-.41-.21-.7-.32-1.11l.93-.11c.24.26.47.55.74.87Zm1.08.7c-.47-.53.06-.67.44-.79a7.317,7.317,0,0,0-.44.76Zm-.47-1.7.09-.08c.06.08.14.14.2.23a.661.661,0,0,0,.24.2l-.09.09c-.06-.09-.15-.14-.21-.23a1.7,1.7,0,0,0-.23-.24Zm1.35.47h-.09v-.29h.09Zm3.3,2.67,1.09.41a2.38,2.38,0,0,0,.12.35c.17.06.32.14.46.2l-1.28,1.09a.81.81,0,0,1,.26.11,1.28,1.28,0,0,1,.32-.09,4.19,4.19,0,0,0,.29.33c-.35-.09-.52-.15-.7-.21h0l-.26-.09-.88-.41a1.93,1.93,0,0,0-.15-.41c-.06-.11-.17-.2-.29-.41a12.1,12.1,0,0,1,1.02-.9Zm.09-.62v-.29H18v.29Zm1.47,9.93c-.15-.47-.06-1.18-.85-1.21a5.79,5.79,0,0,1-.41-1.14c-.06-.41-.21-.82-.27-1.2s-.52-.7,0-1.11a4.34,4.34,0,0,1-1-2l.94-.09c0,.7-.15,1.47.32,1.9s-.15,1.35.7,1.62c.06,1.14,1,2,1.05,3.19h0c.09,0,.15.14.24.2l-.09.09c-.06-.09-.15-.15-.2-.24h0Zm3.89,5c-.2.67-.44,1.35-.64,2-.85.09-1.44,1.14-2.52.79A5.63,5.63,0,0,1,22,81.08c.29-.09.62-.18,1-.26Zm-1.2-.91c-.67-.76-1.67-1.31-1.64-2.54a3.4,3.4,0,0,1-.56-.21.931.931,0,0,1,.06-.41c.06-.12.27-.09.3-.06a2.6,2.6,0,0,1,.52.62c.32.76,1.09,1.23,1.38,2,.06.2.44.29.88.55-.47.02-.68.02-.94.02Zm-.44-5.65c-.06,1.58,1.05,2.87,1.08,4.42C21.66,77,21.1,74.82,19.9,72.85h-.17c-.35-.91-.68-1.79-1.06-2.81a12.693,12.693,0,0,0,1.44-.12V71.1c.99.96.82,2.37,1.52,3.39Zm2.61-14A4.09,4.09,0,0,0,23,62c-.33.59-.88,1-1.23,1.53a5.64,5.64,0,0,1-1.35,1.28c-.53.36-.44,1.32-1.29,1.32-.52-.94.47-1.76.15-2.58-.44.5-.85.94-1.26,1.41l-.21-.09c.21-.61.44-1.26.65-1.84-.29-.7-.56-1.38-.88-2.11.67-.56,1.41-1.14,2.2-1.79h1c.67-.52.67-.52,1.41-.52-.18.35-.36.67-.56,1.11a1.3,1.3,0,0,0,1.17-.91c.21-.41.44-.79.64-1.17H24.5c.32.44.64.94,1.08,1.52-.64.35-.76.99-1.34,1.34Zm-6.36-.85v-.5a.27.27,0,0,0,.15,0,2.8,2.8,0,0,0,.12.5.83.83,0,0,0-.27-.02Zm5-2.57v-.3H23v.3Zm7.26,1c-.5.24-.94.47-1.35.65-.52-.27-1.08-.53-1.61-.8-.2.12-.35.21-.47.3l-.43-.44a4.6,4.6,0,0,0,.55-.12l-.17-.26h.67c.5,0,1,.23,1.52,0a1,1,0,0,1,1.3.57ZM26.7,56.49V56.2h.08v.29Zm1.72.59v-.59h.15v.59Zm.7-1.18H29v-.29h.08Zm5.07-2.31h.53l.08.44c-.38.21-.64.21-.61-.44Zm2.2,1.64c-.62.32-.62.32-1.18,1.52h-.32c-.47-.79.44-1.46.06-2.46.5.21.76.3,1.08.41.21-.29.44-.58.68-.93.06.17.14.26.11.32a10.861,10.861,0,0,1-.43,1.14Zm-1.23-2V53h.08v.29Zm10.71,24c.15-.12.59.11,1,.23.38-.41,1-.23,1.52-.26s1,.23,1.55-.36a3.851,3.851,0,0,0,.09.62H49l-.91.91c-.43-.12-.93-.38-1.14-.27a1.58,1.58,0,0,1-.67.27,1.19,1.19,0,0,1-.32,0,.27.27,0,0,1-.15,0,1,1,0,0,1-.29-.06l-.15-.06a6.6,6.6,0,0,1-.85-.47,1,1,0,0,1-.17.18c-.06.06-.12.06-.15,0a.5.5,0,0,1-.09-.3v-.17c.65-.07,1.23.14,1.76-.24ZM44.11,73.5h.27v.76h-.15C44.17,74,44.14,73.73,44.11,73.5Zm3.11-8.26a17.54,17.54,0,0,0-1.35,4.25,25.88,25.88,0,0,1-1.32,3.6c-.14-1.55.65-2.93.79-4.42s1.14-2.75,1.17-4.39l-.61.44V65a.27.27,0,0,1-.21.29v.06a31,31,0,0,0-1.26,3.4,22.941,22.941,0,0,0-.93,3.39,22.659,22.659,0,0,1-.73,3.63,16.35,16.35,0,0,1,.29-5.21,22.86,22.86,0,0,1,2.34-5.35l.18.08c0-.23-.15-.55.29-.58v-.53a5.325,5.325,0,0,0,1-.06C47.3,64.45,47.51,64.75,47.22,65.24Zm-.3-4.62h1v1.61c-.67.32-1.2-.09-1.79-.41.24-.38.47-.76.79-1.2Zm-7.61-4.74c.82.46,1.41.81,2,1.17,1.53.9,3,1.81,4.54,2.72.06,0,0,.23.09.53-.94-.44-1.79-.79-2.58-1.23-1.46-.82-3.07-1.2-4.54-2-.38-.21-.73-.47-1.25-.82a12.99,12.99,0,0,0,1.74-.37Zm-1.9-2.11v-.09h.29v.09Zm.67.55a2.47,2.47,0,0,0,.38-.32c.06.41.06.41-.38.32Zm2.29-4.12c-.09,0-.15,0-.24.14L40,50.25c.09,0,.15-.14.24-.2l.06.06V48.59c.2.46.29.64.41.9A7.081,7.081,0,0,0,40.37,50.2Zm1.05-.15h-.15v-.59h.15Zm-3.19-1c.35.24.64.41,1,.62-.06.59-.71.76-1,1.26a5.16,5.16,0,0,0-1,.06,7.87,7.87,0,0,0-.93.58,5.74,5.74,0,0,1-.91.35,3.44,3.44,0,0,0-.18.5c-.11-.12-.23-.2-.35-.32-.41.15-.85.26-1.29.41a1.418,1.418,0,0,1-.08.38,15.45,15.45,0,0,0-4.86,1.46h0l-.12-.11c-.67.2-1.26.55-1.9.79a5.83,5.83,0,0,1-1.23.32,3.36,3.36,0,0,0-1.73.7c-.76.62-1.67.5-2.58.82a3.35,3.35,0,0,1-.14.47l-1-.18c-.32.18-.73.38-1.23.62l-.09.38A2.48,2.48,0,0,1,18,57.6l-1.35.68v2c.71.53.09,1.35.47,2,.3.5.12,1.29.15,2.17a5,5,0,0,1-2.17-2.69,9.75,9.75,0,0,1-.82-3.13,2.7,2.7,0,0,0-.44.17l-.58.24a2.21,2.21,0,0,0,.14,1.66,1.35,1.35,0,0,1,0,.77,1.36,1.36,0,0,1,.27.14l.41.15c-.27.09-.38.14-.62.23a8.154,8.154,0,0,1-.17.88c-1.23-.44-.88-1.7-1.55-2.46-.3.09-.65.21-1,.35l-.09-.06a.92.92,0,0,1-.14-.11.65.65,0,0,1-.15-.12l-.35.35L9.92,61c-.7-.09-1.35-.15-2.11-.24.15-.2.21-.41.33-.49a6.67,6.67,0,0,1,2.6-.62c.76-1.37,2.31-1.49,3.6-2,.7-.29,1.44-.5,2.26-.76a2,2,0,0,0,.23.21A41.7,41.7,0,0,1,22.22,55c.79-.82,1.93-.68,2.89-1.14a11.17,11.17,0,0,1,2.76-1.09c1.81-.29,3.36-1.43,5.21-1.58.73-.61,1.75-.5,2.51-1,.3-.18.56-.12.8-.21a4.75,4.75,0,0,0,.81-.38,3,3,0,0,0-1.84.24L35,50h0a1.72,1.72,0,0,1-.23-.17,1.36,1.36,0,0,1-.24-.44.83.83,0,0,1,0-.27,1.37,1.37,0,0,0-.41-1c.32-.21.59-.35.7-.41.09-1.61,0-2.93-1.11-4,.24-.77-.67-1-.7-1.79a7.33,7.33,0,0,0-.47-2,4,4,0,0,1-.29.47,1,1,0,0,1-.21.2v-.08c-.18,1.28-.24,1.75-.27,2.16v.06c-.55.29-1,.5-1.58.82-.29.09-.88-.26-1.46.5.11-.5.17-.76.23-1.06a3.07,3.07,0,0,1-.38-.05c-.09.2-.17.38-.35.76V42.09h1.2c.67-.53,1.26-1,1.9-1.47h.71a.11.11,0,0,1,0-.08c0-.06-.08-.12-.08-.21a5.54,5.54,0,0,1,.47-2.61,2.591,2.591,0,0,1,.08-.76l1-1c.2.44.41.85.67,1.37-.88.47-.53,1.73-1.4,2.29.67.61.93,1.73,2.22,1.61.56.67,1.17,1.4,1.79,2.11a19.83,19.83,0,0,1,1.81,2c.5.82,1.41,1.17,1.9,2,.33,0,.71.06,1.18.08A8.06,8.06,0,0,1,38.23,49Zm5.56.5c-.47-.09-.91-.14-1.35-.23a3.681,3.681,0,0,1-.4.23l-.39-.35c.21-.2.44-.41.88-.88h0a.57.57,0,0,0,.3,0c.14,0,.26-.23.43-.38.21.18.36.3.53.47Zm11,2.34c-.06.06-.12.18-.09.24.09,1.64-.85,2.46-2.22,3-.09,0-.15.14-.27.26h-1.4a6.72,6.72,0,0,0-1-.73,1,1,0,0,0-.67-.15A8.22,8.22,0,0,0,48,53.27c-.5-.35-.53-1.11-1.2-1.23-.33-.88-1-1.52-1.38-2.34a17.769,17.769,0,0,1-.7-2.34c-.12-.44,0-.91-.29-1.35a.73.73,0,0,1,0-.7c.52-.56.11-1.2.41-2l1.72-.79L45.9,42v-.67h3.66a17.539,17.539,0,0,1,2.37,1.52,14.15,14.15,0,0,1,1.64,1.9c.23.64.35,1,.5,1.44a5.85,5.85,0,0,1,.58,2.66,2.56,2.56,0,0,0,.21,1.38,1.59,1.59,0,0,1-.12,1.63Z" transform="translate(-3.64 -25.39)" fill="#1f7762"/>
  <path id="Trazado_24598" data-name="Trazado 24598" d="M18.44,68.87h.06a.73.73,0,0,1-.27-.11h0a2.289,2.289,0,0,0,.21.11Z" transform="translate(-3.64 -25.39)" fill="#1f7762"/>
  <path id="Trazado_24599" data-name="Trazado 24599" d="M12,56.78Z" transform="translate(-3.64 -25.39)" fill="#1f7762"/>
  <path id="Trazado_24600" data-name="Trazado 24600" d="M28.36,40h0c.06-.06.12-.09.18-.15S28.39,39.92,28.36,40Z" transform="translate(-3.64 -25.39)" fill="#1f7762"/>
  <path id="Trazado_24601" data-name="Trazado 24601" d="M28.51,40.1a.64.64,0,0,1,.15.52.76.76,0,0,0-.15-.52Z" transform="translate(-3.64 -25.39)" fill="#1f7762"/>
  <path id="Trazado_24602" data-name="Trazado 24602" d="M39.17,55h0a8.611,8.611,0,0,0,.26-1A8.611,8.611,0,0,1,39.17,55Z" transform="translate(-3.64 -25.39)" fill="#1f7762"/>
  <path id="Trazado_24603" data-name="Trazado 24603" d="M32.7,56.23H31.35c.06.05.09.11.15.17a3.87,3.87,0,0,1-.56.15c0,.06.06.09.09.14h1.34a1.816,1.816,0,0,0-.14-.17,3.751,3.751,0,0,1,.55-.15Z" transform="translate(-3.64 -25.39)" fill="#1f7762"/>
  <path id="Trazado_24604" data-name="Trazado 24604" d="M6.5,87.7H7v-.41a4.21,4.21,0,0,0-.61.29C6.44,87.58,6.47,87.64,6.5,87.7Z" transform="translate(-3.64 -25.39)" fill="#1f7762"/>
  <path id="Trazado_24605" data-name="Trazado 24605" d="M14.37,85.44v.76a.74.74,0,0,0,.26,0,6,6,0,0,0-.11-.76.22.22,0,0,1-.15,0Z" transform="translate(-3.64 -25.39)" fill="#1f7762"/>
  <path id="Trazado_24606" data-name="Trazado 24606" d="M6.2,87.14h.15v-.59H6.2Z" transform="translate(-3.64 -25.39)" fill="#1f7762"/>
  <path id="Trazado_24607" data-name="Trazado 24607" d="M52.11,79h.08v-.29h-.08Z" transform="translate(-3.64 -25.39)" fill="#1f7762"/>
  <path id="Trazado_24608" data-name="Trazado 24608" d="M46.87,81H47v-.29h-.08Z" transform="translate(-3.64 -25.39)" fill="#1f7762"/>
  <path id="Trazado_24609" data-name="Trazado 24609" d="M8.28,82.49v.29h.09v-.29Z" transform="translate(-3.64 -25.39)" fill="#1f7762"/>
  <path id="Trazado_24610" data-name="Trazado 24610" d="M37.44,49.7c.23-.12.41-.24.85-.47h-.85Z" transform="translate(-3.64 -25.39)" fill="#1f7762"/>
  <path id="Trazado_24611" data-name="Trazado 24611" d="M22.22,45.6c.05.09.08.18.14.29-.29.09-.58.15-.76.21.15.47.24.76.32,1h.88v-1a6.68,6.68,0,0,0-.58-.5Z" transform="translate(-3.64 -25.39)" fill="#1f7762"/>
  <path id="Trazado_24612" data-name="Trazado 24612" d="M20.75,46.24h0v.59h.56C21.16,46.54,21.05,46.33,20.75,46.24Z" transform="translate(-3.64 -25.39)" fill="#1f7762"/>
  <path id="Trazado_24613" data-name="Trazado 24613" d="M20.75,46.24c.3.06.41.27.59.56-.18-.26-.32-.47-.44-.67-.06,0-.09.08-.15.11Z" transform="translate(-3.64 -25.39)" fill="#1f7762"/>
  <path id="Trazado_24614" data-name="Trazado 24614" d="M20.46,46h0c0-.12-.12-.17-.18-.26l-.08.09a.52.52,0,0,0,.26.17Z" transform="translate(-3.64 -25.39)" fill="#1f7762"/>
  <path id="Trazado_24615" data-name="Trazado 24615" d="M20.46,46h0c-.12,0-.18-.12-.26-.17a.52.52,0,0,0,.26.17Z" transform="translate(-3.64 -25.39)" fill="#1f7762"/>
  <path id="Trazado_24616" data-name="Trazado 24616" d="M53.74,46.92l-.55-.21c-.06-1.2-.15-1.2-1.08-2.34-.39-.47-.94-.67-1.26-1.2-.5-.82-1.53-.56-2.2-1-.35-.24-.7.14-1,.26a.47.47,0,0,1-.3,0c-1.52.91-1.55,2.28-1.4,3.75.2.11.44.26.67.41.18-.33.29-.56.35-.65-.06-.44-.11-.76-.17-1.11.09,0,.14-.09.23-.12.18.18.38.38.59.62l2.37.44a.25.25,0,0,1,0,.14H48.12l-.46.47c.26.15.52.26.61.32a7.82,7.82,0,0,1,3.16,0,32.2,32.2,0,0,1-4.65,1.2l-.53.18c0,1,.7,1.55.88,2.34A1.8,1.8,0,0,0,48,51.6c.76.26.9,1.08,1.58,1.41.26.11.38.49.64.82.62.14,1.38-.18,2.14.29A15.34,15.34,0,0,0,53.72,52a5.67,5.67,0,0,0,.38-2.31,16.78,16.78,0,0,0-.5-2.46C53.57,47.21,53.66,47.06,53.74,46.92ZM49.32,45a7.56,7.56,0,0,1-2.72-1.08c.29-.32.56-.58.88-.94a7.64,7.64,0,0,1,1.58.21,7.58,7.58,0,0,1,1.38,1A7.849,7.849,0,0,1,49.32,45Zm2.93,6.59c-.38.29-.67.53-1,.76a3.3,3.3,0,0,1-1.55-.26c-.53-.24-.5-1-1.15-1.06-.08-.73-.87-1-1.17-1.55-.08-1.14,1.12-.9,1.53-1.43l2.51-.29a4.7,4.7,0,0,1,1.14,2.07c-.16.75-.22,1.27-.31,1.77Zm1.14-.38h-.08v-.29h.08Z" transform="translate(-3.64 -25.39)" fill="#1f7762"/>
  <path id="Trazado_24617" data-name="Trazado 24617" d="M19.73,63.49a7,7,0,0,1,1.49-2.4c.12-.09.09-.33.09-.53H20.9a4.38,4.38,0,0,0-.5.79.165.165,0,0,1-.06.15.369.369,0,0,0-.09.14,11.5,11.5,0,0,0-.84,1.26,1.35,1.35,0,0,0-.12.62A2.17,2.17,0,0,1,19.73,63.49Z" transform="translate(-3.64 -25.39)" fill="#1f7762"/>
  <path id="Trazado_24618" data-name="Trazado 24618" d="M19.41,62.87a11.5,11.5,0,0,1,.84-1.26C20,62.05,19.61,62.43,19.41,62.87Z" transform="translate(-3.64 -25.39)" fill="#1f7762"/>
  <path id="Trazado_24619" data-name="Trazado 24619" d="M21.31,60.56c0,.17,0,.44-.09.53C21.34,61,21.31,60.76,21.31,60.56Z" transform="translate(-3.64 -25.39)" fill="#1f7762"/>
  <path id="Trazado_24620" data-name="Trazado 24620" d="M21.34,60.56h0c.08-.06.14-.15.23-.21l-.09-.08a1.06,1.06,0,0,0-.17.26Z" transform="translate(-3.64 -25.39)" fill="#1f7762"/>
  <path id="Trazado_24621" data-name="Trazado 24621" d="M21.51,60.3c-.06.08-.14.14-.2.23h0a2.359,2.359,0,0,0,.2-.23Z" transform="translate(-3.64 -25.39)" fill="#1f7762"/>
  <path id="Trazado_24622" data-name="Trazado 24622" d="M21.34,60.56Z" transform="translate(-3.64 -25.39)" fill="#1f7762"/>
  <path id="Trazado_24623" data-name="Trazado 24623" d="M28.28,49.76h-.15v.58h.15Z" transform="translate(-3.64 -25.39)" fill="#1f7762"/>
  <path id="Trazado_24624" data-name="Trazado 24624" d="M27,38.66h.09v-.29H27Z" transform="translate(-3.64 -25.39)" fill="#1f7762"/>
  <path id="Trazado_24625" data-name="Trazado 24625" d="M49.38,51.19c.44.24.88.44,1.29.67l.5-.49c-.53-.38-1.17-.15-1.67-.47a.84.84,0,0,0-.12.29Z" transform="translate(-3.64 -25.39)" fill="#1f7762"/>
</svg>
