<svg xmlns="http://www.w3.org/2000/svg" width="78.323" height="117.799" viewBox="0 0 78.323 117.799">
  <g id="Calavera_entrantes" transform="translate(-4.083 -6.584)">
    <path id="Trazado_26261" data-name="Trazado 26261" d="M24.525,54.09v.015H24.51Z" transform="translate(10.557 24.552)" fill="#774234"/>
    <path id="Trazado_26262" data-name="Trazado 26262" d="M35.49,17.019c1.517.319,1.35-1.289,2.048-1.9a1.365,1.365,0,0,0-.349-1.517,2.761,2.761,0,0,0-2.958-.167.971.971,0,0,1-.637.607,4.384,4.384,0,0,1,0,.44,2.124,2.124,0,0,0,1.9,2.533Z" transform="translate(15.23 3.362)" fill="#774234"/>
    <path id="Trazado_26263" data-name="Trazado 26263" d="M54.843,75.044a.758.758,0,0,0,0-1.229h0c-.137-1.805-1.38-3.261-1.517-5.066h0c-.212-.895-.425-1.79-.652-2.685h0c0-.592-.683-.485-.865-.88.182-.41-.182-.622-.319-.925h0c.212-.561-.091-1-.319-1.517h0c-.152-.288-.334-.561-.485-.834a.415.415,0,0,0-.288.243c-.091.455-.091.88.5,1-.121.364-.319.728.091,1.062h0c.47.728-.137,1.7.546,2.4h0a11.391,11.391,0,0,1,.88,3.549,4.353,4.353,0,0,1-2.579-3.246h0c.5-.561-.121-.667-.394-.94h0c0-.152,0-.288-.258-.273,0-.758-.683-1.168-.834-1.851-.091-.455-.44,0-.683.091l-.895-.106c-.258.076-.652-.182-.637.364-.41,0-.8.167-.88.531a.592.592,0,0,0,.607.652h.212c.5.652-.91.531-.455,1.168h0c-.167.137-.5,0-.546.319h0c-.182.2-.334.364-.485.561-.349.8.349,1.077.774,1.517h0c-.379,1-1.32.834-2.124.956h0a8.934,8.934,0,0,0-.88-.364c-.106-.485-.743-.106-.91-.455a.531.531,0,0,0,.106-.228,1.76,1.76,0,0,0-.516-1.107l.728-.076c.683.2,1.4-.273,2.108,0h0c.288,0,.576,0,.683-.3-.212-.425-.243-1.047-.986-.8h-.349c-.485-.137-.91-.5-1.517-.41h0c0-.319-.349-.243-.576-.288h0c-.3-.394-.667-.637-1.168-.394h0c-.152-.258-.7-.485,0-.789a3.034,3.034,0,0,0,.44-.44.667.667,0,0,0,.2.455h4.02a18.2,18.2,0,0,1-4.02-1.122h0a4.186,4.186,0,0,1-1.047-.334c-.728-.455-.243-.531.152-.683h0a.2.2,0,0,1,.121,0,3.413,3.413,0,0,1,1.7-.273c.94-.076,1.957.137,2.776-.576h0a7.9,7.9,0,0,1,2.685,1.183v.516c.971.106,1.183,0,.94-.819h0a4.55,4.55,0,0,1-.622-3.034h0c.364-.531,1.138,0,1.517-.561h0c.167,0,.394.076.516-.167s0-.425-.243-.425-.895-.243-1.2.273h0c-.3,0-.667-.137-.91.2-1.82-.561-1.926-.91-.592-2.351.319-.334.94,0,1.153-.546h0a4.217,4.217,0,0,1,2.7-2.715c.47.106.683,0,.561-.546-.334-.258-.561-.743-1.107-.652-.212-.774-.41-1.517-.592-2.351h0a1.274,1.274,0,0,0,.228-1.183h0c.137-.683.258-1.38.379-2.063h0c.364-.2.607-.44.485-.895h0c.106-.319-.652-.228-.288-.8a10.345,10.345,0,0,1,1.517-2.124c.531.561,0,1.517.8,2.124,0-1.229.94-1.957,1.031-3.034H54.1c.182.364-.334.925.319,1.183a10.845,10.845,0,0,0,.865-5.445h0a26.454,26.454,0,0,1,0-4.778h0V30.662h0a8.069,8.069,0,0,1,.228-1.274A11.558,11.558,0,0,0,56.573,24.7c.925-.091.334-.819.531-1.229h0c.121-.167.258-.349.364-.516h0c.349,0,.7,0,.44-.607s-.774-.789-1.062-1.274l-.576-1.031h0c-.121-.819-.212-1.623-1.365-.91-.152.258-.44.288-.7.364H52.174a1.957,1.957,0,0,0-1.517.3.91.91,0,0,1,.288.091h-.3c-.91.592-2.427,0-3.034,1.411h0c-1.077.288-1.623-.607-2.351-1.092h0a18.2,18.2,0,0,1-3.034.895,1.122,1.122,0,0,0-1.213.516c-.607,0-.834.743-1.517.637h-.607c-.485-.88-.986-.774-1.517,0,.576.713,1.38,0,2.033.319h0c0,.288.258.7-.288.865a3.367,3.367,0,0,0,.47,1.7c.485.182,1.016.41.88.986a1.062,1.062,0,0,1-1.289.91c-.106-1.365-.106-1.365-1.517-1.38h0c-.576.319-1.441.485-1.426,1.229,0,.425.728.212,1.138.212h0a1.638,1.638,0,0,1,1.517,1.122l-2.457.774h0c-.622-.091-.743.622-1.213.7.3.091.607.137.925.212h0c.288.485,1.016-.076,1.259.516v.865h0c-1.517.88-3.034.561-5.112.713,1.638.652,2.154,2.412,3.9,1.987.41-.319.47,0,.622.334.106.592-.258.546-.7.576a7.584,7.584,0,0,0-3.337.455,3.185,3.185,0,0,0,1.82,1.289,1.289,1.289,0,0,1,.44,2.306,2.715,2.715,0,0,1-1.82,1.092h0v.106c-.137.379-.394.774.121,1.077a.561.561,0,0,1,0,.167c.364.819-.425.971-.789,1.35-.288-.41-.743-.334-1.138-.364s-.728,0-.758-.5v-.2c.455-.212,1.077-.121,1.32-.7-.334-.516-.652-1.153-1.517-.94s-1.517-.622-1.9.546c-.485.91.41.394.637.561s0,0,0,.121c-1.274,1.016-.243,1.972,0,2.943h0c0,.455-.182.971.212,1.38-.925,1-.3,1.517.637,1.851v-.546h0c.167-.683-.592-1.517.243-2.108h0c.121-.152,0-.546.349-.44a9.677,9.677,0,0,0,2.381.152h0v1.016h-.228c-.622.394-.667,1.031-.743,1.684a13.424,13.424,0,0,1-.91,3.671h0c-.683-.971-.212-2.321-1.047-3.231a2.624,2.624,0,0,0-.258,3.337h0c0,1.517.971,2.73,1.107,4.186l.137.167a.683.683,0,0,0-.394.091c-.7.971-1.138.91-2.154,0a2.306,2.306,0,0,1-1.077-1.8c0-1.016-1.335-1.38-1.077-2.472h0V48.1h0c0-.485.364-1.122-.5-1.229-.516-.076-.728.106-.607.637h0a1.229,1.229,0,0,0-.2.88c.137.819.91,1.426.743,2.321h0a.956.956,0,0,0-.47,1.426c.592.789.394,1.668.592,2.5h0a1.536,1.536,0,0,0,.182,1.229h0c.137.516-.956.849-.228,1.426h0a3.534,3.534,0,0,0,.425,3.61c-.258,0-.637.182-.576.319.394,1.092-.561,1.881-.576,2.852h0a11.755,11.755,0,0,0-1.517,3.595v.137c-.137.228-.273.455-.394.683l-.137.106c-.273,1.138-.865,1.517-2.017,1.016a1.608,1.608,0,0,0-1.881.167h0c-.212.137-.41.273-.637.394h0c-.546.667-1.4,1.183-1.2,2.26h0a5.627,5.627,0,0,0,.7,3.58c0,.531.44.607.865.607.364.834.41,1.82,1.517,2.184s1.274,1.517,2.427,1.365h0a.167.167,0,0,0,.2.091h0c.182.622.44,1.183,1.259,1.138.121-.728.106-1.38-.819-1.517h0c.349-.379-.971-1.031,0-1.32l.2.228a.834.834,0,0,0,.758.258h0c.334.455.546,1.062,1.32.986a6.34,6.34,0,0,0,3.034,2.715c-.091.531.212.607.607.561,0,.2-.106.394.091.561,0,.455.182.576.592.561l.106-.106-.091.121c-.288,1.062.94.425,1.092,1h0A2.26,2.26,0,0,0,32.743,86.6c1.092,2.23,3.14,1.775,5.021,1.805A18.2,18.2,0,0,0,33.638,84.3h0c-.5-.455-.516-1.274-1.229-1.517,0-.364-.258-.5-.531-.592a9.268,9.268,0,0,0-1.4-2.093h0c0-.425-.167-.7-.652-.622.091-.7-.561-.956-.91-1.365-.41,0-.561-.334-.8-.607-.182.531-.121.834.41.895.106.607,0,1.32.925,1.441,0,.394.121.743.637.637h0c0,.986.819,1.517,1.229,2.306h0c.8.8,1.835,1.426,2.063,2.67-.956.455-1.092-.8-1.79-.849h0a.3.3,0,0,0-.212,0h0c-.212-.349-.44-.683-.94-.607a.865.865,0,0,0-.91-.607h0c-.364-.319-.091-.925-.561-1.183h0c-.334-.728-1.517-.47-1.623-1.517h0c-.516-.319-.516-1.244-1.35-1.213h0c0-.2-.121-.258-.273-.273h0c0-.622-.364-1.517.228-1.79,1.335-.758.956-1.9.925-3.034h0c.3-.091.774.2.865-.364,1.062-.212.576-1.062.667-1.668a4.338,4.338,0,0,1,4.171,1.638c.152.258.41.683.076.728-1.35.167-1.031,1.517-1.638,2.184a1.122,1.122,0,0,0,.152,1.653c1.608.546,2.7,2,4.353,2.427.607-.7.273-1.7.8-2.4a3.474,3.474,0,0,0,.152-1.623,5.264,5.264,0,0,0,.7.607c-.592,0-.425.561-.44,1.031.637.394.88,0,1.153-.516.091.516-.182,1.122.2,1.517A50.647,50.647,0,0,1,41.1,84.3h0c.3.531.349,1.244.865,1.653-.485,0-1.016-.228-1.517,0,0-.956-.956-.667-1.35-1.107v.106a2.533,2.533,0,0,0,1.365,1.7h0l.228.288h0A3.034,3.034,0,0,0,42.208,88.1h0c.728,1.031,1.153,2.336,2.412,3.034h0c.121.455.516.834.364,1.365h0a3.9,3.9,0,0,0,.212.925.712.712,0,0,1,.152.152c0,.334-.394,1.047.531.683a.774.774,0,0,0,.258,0h0c.106.5,1.183,0,.94.91a.485.485,0,0,0,.622-.3h.546c.394.3.273.758.319,1.168a1.85,1.85,0,0,0,.925-2.048c.91-.182.743-.925.8-1.517-.182-.3-.349-.622-.516-.91h-.091c.334-1-.88-1.517-.728-2.4.243-1.274,0-2.579.152-3.853h0a17.458,17.458,0,0,0,2.685-3.291h0a17.852,17.852,0,0,0,2.685-3.9h0c.243-.152.546-.212.531-.576h0a1.744,1.744,0,0,0-.167-2.5Zm-9.192-7.766h.243a.44.44,0,0,1-.212.106h0Zm-3.489,2.594v.137c-.091.425-.182.849-.258,1.274-.455-.243-.895-.364-1.168.258-.576,0-.819-.774-1.32-.971.3-.288.789-.364,1.016-.713a.455.455,0,0,1,0-.152ZM43.24,59.724a.849.849,0,0,0-.455.88v.167l-2.078.758h0a.364.364,0,0,0,0-.137c-.546-.516-1.092,0-1.638,0-1.092.121-1.517-.288-1.517-1.38,0-.683.44-.94.774-1.32.622.47,1.411-.273,2.033.228.607.228,1.2-.091,1.79,0a.485.485,0,0,0,.531,0h0a1.3,1.3,0,0,0,.713.683c.167.076.455,0,.516.137s-.076.167-.2.228a.478.478,0,0,0-.531-.243Zm4.657-19.6c-.3-.152-.379,0-.44.319-.3,1.517-1.365,1.274-2.4,1.062a2.729,2.729,0,0,0-.288-.3h0c-.455-.743-.971-.607-1.517-.106h0l-.592.212h-.3c-.288-.273-.592-.425-.895,0h-.819l-.334-.334c-.592-.986,0-1.411.849-1.714s1.972-.137,2.791-.8a.668.668,0,0,1,.121-.167,3.838,3.838,0,0,0,1.38,0,1.062,1.062,0,0,0,.561.106c1,0,1.729-.258,1.517-1.517v-.091l.5-.516h0c.212-.076.212-.288.349-.44.637-1.213-.3-2.488.243-3.731.228-.546.41-1.213.925-1.153s.637.713.516,1.3a3.155,3.155,0,0,0,.091.986h0a1.623,1.623,0,0,0,.576,1.259h0a5.248,5.248,0,0,1-.273,1.714c-.152.319-.743.8,0,1.213h0a1.517,1.517,0,0,0-.228,1.183h0c-.485,1.031-.667,2.366-2.4,1.517ZM44.5,29.691a.364.364,0,0,0-.137.182,1.077,1.077,0,0,0-.819.076l-.152-.091c-.895-.637-.834-1,.273-1.35.758-.228,1.668-.076,2.336-.652h0a1.593,1.593,0,0,0,1.062.3c.971.076.455.91.637,1.35.319.713-.455.349-.667.576v.106H46.91a.744.744,0,0,0,0-.167C46.137,29.327,45.287,29.691,44.5,29.691Zm10.117-9.359c.3.152.516,0,.713-.212h0a1.107,1.107,0,0,0,.364.106.561.561,0,0,0,.137.789h0c-.607.121-1.3.137-.743.986h0a.652.652,0,0,0-.212.349.7.7,0,0,0-.076.349c-.288.212-.622.364-.516.849-.167.334-.758.364-.576.88s0,.576,0,.849a3.034,3.034,0,0,1-.349.895,9.571,9.571,0,0,0,.44,5.036,1.957,1.957,0,0,0-.091,1.851c.137.258.288.485.41.728a3.729,3.729,0,0,0,0,.425h-.182a3.58,3.58,0,0,0-.228,3.519h-.121A2.321,2.321,0,0,0,52.462,40.2a.561.561,0,0,0,.076.167c-.561.379-.394.834-.2,1.3a1.077,1.077,0,0,0-.531.379c-1-.607-.971-1.517-.8-2.579h0l1.153-.455a3.473,3.473,0,0,1-1.32-2.548,8.251,8.251,0,0,0,0-3.034h0a.273.273,0,0,0,.076-.228,1.775,1.775,0,0,1,.394,0c.849-.667.607-1.608.592-2.472a36.495,36.495,0,0,1,.091-5.309c.228-1.926.152-2.29-1.517-3.17a16.685,16.685,0,0,0,4.141-1.881ZM44.7,22.107l.076-.091c.789.956,1.653.683,2.533.137h0a1.656,1.656,0,0,1,1.517,1.517h.152c-.425.076-.531.394-.546.758v.167c-.561.2-1.365-.774-1.79.3.561.364,1.213,0,1.805.243a1.38,1.38,0,0,0,0,.258c.228.925-.106,1.411-1.062,1.517a1.79,1.79,0,0,0-1.016.228.531.531,0,0,0-.713-.485,1.092,1.092,0,0,1-.41.137,1.608,1.608,0,0,0-1.107-.137l-.3-.091a5.2,5.2,0,0,1-1.092-.379c-1.517-.7-1.517-1.077-.576-2.306a4.55,4.55,0,0,0,0-.91.5.5,0,0,0,.152-.683C43.088,22.289,43.922,22.653,44.7,22.107Zm-4.641,9.708c.44-.243.258-.683.106-1.047a1.623,1.623,0,0,1-.212-.865.363.363,0,0,1,.364-.379c.228,0,.243.152.3.273a1.972,1.972,0,0,1,0,.728c0,1.7.228,1.987,1.911,1.942a3.322,3.322,0,0,0,1.79-.334l2.442,3.489a.592.592,0,0,0,0,.212.622.622,0,0,0-.334,0L46.2,36a9.813,9.813,0,0,0-2.472.5h-.2a1.365,1.365,0,0,0-.41.106l-.2.076c-.364-.273-.47-1.122-1.2-.652a1.168,1.168,0,0,0-.44-.152.652.652,0,0,1-.455-.47.349.349,0,0,0,0-.212,1.047,1.047,0,0,0-.152-.379c-1.213-.758-2.2-1.638-1.729-3.291a.743.743,0,0,0,1.107.228ZM39.4,42.9a.591.591,0,0,0,.152-.121,3.231,3.231,0,0,0,2.457-.561h2.124c.319,0,.622-.106.925.228a11.027,11.027,0,0,1,3.216,5.445h0a10.277,10.277,0,0,0,.121,1.926h-.091a2.139,2.139,0,0,0-.667,1.32,3.292,3.292,0,0,1-.106.364.971.971,0,0,0-.425.743l-.212.288a1.183,1.183,0,0,0-.258.971.743.743,0,0,1,0,.167,15.168,15.168,0,0,0-1.4,2.139H45.09c-1.76-.228-1.942-.091-2.882,2.017a.44.44,0,0,0,0,.2L41.5,57.4c-.8-.667-1.168.728-1.9.41a11.251,11.251,0,0,0-1.517.2c-.182-.425-.728-.789-.243-1.335.273-.3.121-.288-.2-.379-1.047-.3-1.744-.106-1.987,1.077a1.016,1.016,0,0,1-1,.7c-.819-.106-.94.516-.971.925a1.987,1.987,0,0,1-1,1.426h-.228a4.793,4.793,0,0,1-.956-2.654c-.152-.667.956-.546,1.168-1.122v-.167H32.8c1.744-.2,1.972-.455,1.426-1.517a.789.789,0,0,0-.379,0v-.288h.076a.986.986,0,0,0,.41-.379,17.1,17.1,0,0,0,3.14-.485.548.548,0,0,0,.5-.758c-.531-1-.152-2.048-.319-3.034a.652.652,0,0,0-.637-.88c-.455,0-.576.167-.531.576h0a6.067,6.067,0,0,0-.88,1.987c-.106.592-.334,1.107-1.031,1.077v-.152a6.28,6.28,0,0,1-.121-3.352c.228-1.32.94-2.457,1.107-3.762h0a.728.728,0,0,1,.212,0,12.772,12.772,0,0,1,3.625-2.67Zm-5.43,1.957c-.228-.258-.47-.516-.895-.349l.106-.121a.652.652,0,0,0,0-.531C33.729,43.964,33.881,44.389,33.972,44.859ZM32.728,54.2c.152-.167.319.121.516.273a.516.516,0,0,0-.167.47h0C32.8,54.764,32.455,54.506,32.728,54.2Zm-3.17,8.1c-.258.288-.258.728.076.607.728-.243,1.365.561,2,0-.228-.683-.774-.364-1.2-.425.516-.455,1.213-.637,1.729-1.122a.379.379,0,0,1,0-.212h.895c.88.41,2.108-.789,2.821.637h.288a1.517,1.517,0,0,1,1.972.91h0c.319.425-.546.652-.2,1.122s.137.607-.44.485-.7.364-.925.728c.394.865,1.653,1.729,0,2.609h0l-.8.137h0a6.553,6.553,0,0,1-2.366-.364h0c-.258-.425-.637-.288-.986-.228l-.106-.137a3.853,3.853,0,0,0-.849-.592,3.64,3.64,0,0,1,1.623-.561l.592.076h0c.334.364.561-.152.865-.076.546-.137,1.32.44,1.517-.561H34.806c-.273-.455-.546-.288-.834,0h0a5.9,5.9,0,0,1-.576-.243h-.3c-.152-.152-.319-.334-.592-.258a.5.5,0,0,0-.106-.2c-.516-.364-1.229-.091-1.684-.44-.956-.728-1.517-.106-2.093.516a10.511,10.511,0,0,0-1.775,2.9c-.288-1.122.349-2.215,0-3.352h0c.683,0,.834-.637.895-1.122a10.208,10.208,0,0,0,.091-2.154h0a1.426,1.426,0,0,0,.713-.288.546.546,0,0,0,0,.137A2.67,2.67,0,0,1,29.558,62.3Zm-1.092-2.791c-.622-.485-1-1.229-1.653-1.668h0C28.527,57.949,28.633,57.979,28.466,59.511ZM20.776,76.56Zm-.592-3.034A6.067,6.067,0,0,0,21.7,75.514h0a2.214,2.214,0,0,0-1.3-.41h-.152l-.652-.41a1.517,1.517,0,0,1,0-.273,1.517,1.517,0,0,0-1.047-1.062.88.88,0,0,0-.121-.925,1.517,1.517,0,0,1,1.76,1.153Zm4.96,5.005h0A.167.167,0,0,1,25.3,78.4a.364.364,0,0,0-.152.2Zm1.4-4.4c-.485-.182-.865.106-1.289.212-.971.288-1.335-.273-1.517-1.092s0-1.335.819-1.517,1.653-.576,1.79.743l.137.137c-.47.637-.106,1.153.288,1.653a.759.759,0,0,1-.228-.076Zm1.638-1.851h0a.546.546,0,0,1,.106-.152.759.759,0,0,0,0,.2ZM32,71.995h-.091c.121-.728-.7-.789-.94-1.274a4.9,4.9,0,0,0,1.2-.652c-.455-.2-.849-.394-1.259-.592v-.121c-.137-.971.834-.455,1.138-.819l.137-.091.956.212h0a2.321,2.321,0,0,0,2.108-.288h0c.319,0,.7.137.971-.2h0c.273.288.364.743.8.88a.94.94,0,0,0,.592.561v.561h0a.182.182,0,0,0-.228.091h0a9.469,9.469,0,0,0-.88.561h0c-.425.2-.637-.47-1.047-.273,0,.47.091.91.728.865h0c.212.758-.91.713-.925,1.32A3.58,3.58,0,0,0,32,71.995ZM49.034,83.613c-.106-.47.091-1.031-.334-1.38,1.031,0,.334-.834.546-1.213.713-.258.728-.319.319-.88L49.231,81c-.592.2-.546.728-.607,1.213h0a4.884,4.884,0,0,0-1.517,2.791h-.288c-.607.561-.44,1.517-1.183,2.078a2.048,2.048,0,0,0-2.078-2.033h0c-.167-.47.228-1.077-.288-1.517h0c-.212-.273-.41-.561-.622-.849,0-.849-.758-.8-1.168-1.153a1.734,1.734,0,0,0-.121-.834,6.522,6.522,0,0,1-1.623-4.748c0-.561.819-1.744-.652-1.942h0c-.212-.212-.394-.212-.561,0h-.91c-.152.592-.652,0-.88.243a1.453,1.453,0,0,1-1.335-.228l.091-.182a1.517,1.517,0,0,0-.121-1.016l1.517-.667h0a8.873,8.873,0,0,0,4.232.455h0c.683,0,1.411.334,2.048-.152h0c.789,0,.865-.971,1.517-1.213h0c.379-.334,1-.5.834-1.213h0c.137-.182.243-.379.379-.561h0c.288,0,.319-.288.334-.531h0c.667-.349-.273-1.517.774-1.668a.531.531,0,0,0,0,.212c.212.5.485.986.652,1.517.334.956.364,2.048,1.289,2.73l.182.106a5.066,5.066,0,0,0,.592,1.805,1.516,1.516,0,0,0,.091.379.8.8,0,0,0,.182.334h0c.091.652-.319,1.38.273,1.957h0c0,.212,0,.394.2.531h0a7.7,7.7,0,0,0,.152,1.168c.228-.41.683-.47,1.047-.683h.137a.637.637,0,0,0,.364-.137h0l.121.137a.744.744,0,0,1,0,.167c0,.5.394.88.516,1.335a.2.2,0,0,1,0,.091c-1.213.137-1.3,1.168-1.517,2.093l-.288.531h-.152c-1.289,0-1.335,1.229-1.881,2.063Zm3.534-7.2a.152.152,0,0,0,0-.2h0a1.3,1.3,0,0,1-.865-1.7h.015c.5-.137.8-.622,1.289-.774a.592.592,0,0,1,.228-.061.683.683,0,0,0,.561.182h.076c-.228.364-.258.652.3.819h0c-.592.516-1.047,1.229-1.684,1.729Z" transform="translate(6.843 6.344)" fill="#774234"/>
    <path id="Trazado_26264" data-name="Trazado 26264" d="M21.141,31.68c1-.364,2.017,1.4,2.912-.121.273-.455-.243-.288-.243-.394-.091-1.016-1.668-.865-1.4-2.184-.834.47-.8,1.092-1.092,1.517S20.974,31.771,21.141,31.68Z" transform="translate(8.768 11.575)" fill="#774234"/>
    <path id="Trazado_26265" data-name="Trazado 26265" d="M31.052,15.837c.091.531,0,1.335.94,1.259s1.7.152,1.623-.895c0-.774-.895-1.153-1.517-1.4A1.013,1.013,0,0,0,31.052,15.837Z" transform="translate(13.935 4.241)" fill="#774234"/>
    <path id="Trazado_26266" data-name="Trazado 26266" d="M29.172,85.075h0c-.319-1.229-1.82-1.623-2.033-2.943.956-.713.5-1.517.258-2.4h0c.106-.364.212-.743.319-1.153h0c.531-.425.774-.834,0-1.229h0c-.243-.137-.5-.273-.834-.425.076.425.47.607.334.971.273.561-1.259.44-.455,1.213a1.744,1.744,0,0,0-.743,1.775h0v.561h0l-.652.607h0a.243.243,0,0,0-.258.258h0c-.167.531-1.2.137-1.031.531.41,1.031-.455,1.653-.516,2.488h0c.228.44-.2,1.82,1.016.88a17.564,17.564,0,0,1,2.048-1.2h0a3.563,3.563,0,0,0,.561,0A2.093,2.093,0,0,0,28.7,86.183c.8-.319,1.077,1.229,1.517.531S29.658,85.621,29.172,85.075Z" transform="translate(10.066 36.356)" fill="#774234"/>
    <path id="Trazado_26267" data-name="Trazado 26267" d="M17.076,37.233c0,.531.394.91.865.713.774-.349,1.775-.47,2.139-1.593-.895-.485-1.668.137-2.472.106S17,36.824,17.076,37.233Z" transform="translate(6.675 15.289)" fill="#774234"/>
    <path id="Trazado_26268" data-name="Trazado 26268" d="M23.634,22.433s.121.121.2.212h0c-.455.622,0,1.031.379,1.517.88.273,1.35.091,1.153-.546-.288-.94-.137-2-.819-2.836-.106-.425-.2-.849-.288-1.259l.834-.774h0c.758,0,1.4.531,2.2.319.273-.076.106.379.182.576.152,1.259,1.593,1.138,2.169,2,.2.334.228-.44.622-.531s0-.334-.137-.485c-.41-.834-1.35-.637-2.017-.986-.273-.971-1.077-1.365-1.866-1.775h0a1.3,1.3,0,0,0-1.426-.925h0c-.971-.3-1.138-.106-1.153,1.213h0v.288C22.967,19.7,23.831,21.083,23.634,22.433Z" transform="translate(9.977 5.289)" fill="#774234"/>
    <path id="Trazado_26269" data-name="Trazado 26269" d="M51.261,50.725c.44-.319.319-.8.319-1.244h0V48.45c0-.334-.273-.622-.637-.2-1.092,1.259-.546,2.594-.258,3.929-.379.41,0,.8,0,1.2a1.835,1.835,0,0,0,.288,1.593V53.364c.379-.349.182-.789.152-1.213A9.811,9.811,0,0,1,51.261,50.725Z" transform="translate(23.88 21.425)" fill="#774234"/>
    <path id="Trazado_26270" data-name="Trazado 26270" d="M38.285,82.38c-.288.334.076,1.062-.667,1.122-.137,0-.334-.091-.41,0s-.8-.774-.971.167c-.137.713.44.592.8.7a3.456,3.456,0,0,0,.561,0,.925.925,0,0,0,1.517-.379A1.075,1.075,0,0,0,38.285,82.38Z" transform="translate(16.607 39.172)" fill="#774234"/>
    <path id="Trazado_26271" data-name="Trazado 26271" d="M33.079,74.745c-.106.182-.228.394-.334.607h0a.47.47,0,0,0-.2.849c.212.258.485.106.576-.212h0a.971.971,0,0,0,.546-.91h0c.865-.44.758-1.517,1.38-2.124h0c.106-.273.485-.425.3-.758a.86.86,0,0,0-.364-.136.358.358,0,0,0-.2.531h0a5.84,5.84,0,0,0-1.714,2.154Z" transform="translate(14.608 33.839)" fill="#774234"/>
    <path id="Trazado_26272" data-name="Trazado 26272" d="M27.363,73.876h0c.394-.319.728-.683.243-1.2h0l.349-.516a1.213,1.213,0,0,0,.2-1.517c.121-.212.212-.394.319-.607s.258-.8-.121-.895-.652.425-.774.849h0a1.092,1.092,0,0,0,0,1.517h0c-.379.334-.91.576-.789,1.229h0c-.273.546-.986,1.031-.364,1.775-.774.288-.152.819-.258,1.244-.652.394-.7,1.092-.865,1.744h0c-.137.288-.47.5-.3.895h0c0,1.016-.94,1.911-.516,3.034h0c-1,1.047-1,1.517.106,2.381.137-.7.288-1.4.425-2.078h0a5.4,5.4,0,0,0,.88-2.381c.622-.516.167-1.38.637-1.957h0c.379-.379.228-.865.212-1.3s.7-.516,0-.834h0C27.773,75.12,27.166,74.3,27.363,73.876Zm.319-2.366Z" transform="translate(10.161 32.326)" fill="#774234"/>
    <path id="Trazado_26273" data-name="Trazado 26273" d="M12.965,43.094a.9.9,0,0,0-.212.349h0c-.182.167-.349.364-.531.561h0c-.273.683-.925,1.229-.607,2.078-.455,1.016-1.7,1.623-1.517,3.034h0c0,.319-.41.592-.137.834s.576.152.607,0,.895-.485.622-1.092h0c.212-.8.91-1.426.986-2.306a6.583,6.583,0,0,0,1.517-2.427,3.032,3.032,0,0,1,.167-.394c.182-.683.683-1.668-.091-1.9C12.586,41.441,13.405,42.715,12.965,43.094Z" transform="translate(2.99 18.18)" fill="#774234"/>
    <path id="Trazado_26274" data-name="Trazado 26274" d="M25.817,64.946c.41.637.683,1.426,1.517,1.744h0c.288.485.47,1.077,1.229.925.091,1.031,1.062,1.517,1.517,2.336h0c-.94.394-.228.8,0,1.229h0c0,.394.228,1.047.531.865.925-.607,1.775.2,2.078.44,1.926,1.517,2.472.3,3.428-1.2s1.047-2.412-.121-3.656c-1.168.228-.88,1.32-1.229,2.048a.531.531,0,0,0-.258,0h0c-1.411.425-1.411-1.3-2.366-1.517,0-.182.091-.47-.212-.546a.319.319,0,0,0-.425.228h0a1.517,1.517,0,0,0-1.168.394,3.034,3.034,0,0,0-1.744-.667c.182-.576-.576-.485-.683-.865h0A4.839,4.839,0,0,0,25.893,64.6a1.926,1.926,0,0,0-.865-1.517h0a1.062,1.062,0,0,0-.622-.607c-.743,0-.319-1.274-1.2-1.213-.3-.394-.516-.925-1.2-.8a1.79,1.79,0,0,0,1.153,1.2c0,.637.121.986.834.865a3.35,3.35,0,0,0,.121.561h0a3.792,3.792,0,0,0,1.7,1.866Z" transform="translate(9.265 27.833)" fill="#774234"/>
    <path id="Trazado_26275" data-name="Trazado 26275" d="M37.648,82.072c0-.956-1.092.137-1.229-.622h0a1.335,1.335,0,0,0-1.122-.607c-.652-.516-1.168-.455-1.517.334h0a1.759,1.759,0,0,0,1.517.849h0c.8.091,1.517.531,2.381.2a.546.546,0,0,0-.03-.152Z" transform="translate(15.348 38.206)" fill="#774234"/>
    <path id="Trazado_26276" data-name="Trazado 26276" d="M23.972,32.372h0c.228,1.107,1.593,2.063.44,3.367,0,0,.106.394.243.485a.47.47,0,0,0,.7-.288c.243-.713.774-.819,1.426-1.016a3.9,3.9,0,0,0,1.775-1.213c.394-.516.925-1.365.152-1.942-1.244-.91-.865-1.79-.182-2.761.561-.273,1.3,0,1.805-.516s.091-1.957,1.229-2.366h.531c.349-.137.7.607.971.091s-.394-.652-.7-.849a2.093,2.093,0,0,0-.834-.152.243.243,0,0,0-.334-.182h0c-1.638-.485.683-.819,0-1.259a6.689,6.689,0,0,1,2.124-2.518c.167-.106.652-.47.258-.819s-.607-.652-1.107-.5c-1.092.349-2.063.94-3.2,1.213-.212,0,.2.41.41.561s.94.531.956,1.077c-.349-.41-.728-.637-1.244-.182,0,.3,0,.7-.516.592a.865.865,0,0,0-1.031.546c-.607.349,0,.607,0,.895h0c-.076.364,0,.758-.319,1.077a1.047,1.047,0,0,0,0,1.517h0l-.273.3h0c-.334.561-.713,1.138.212,1.517h0c0,.546-.5.7-.774,1.016s-.47.607-.228.895.8,0,.425.576-.652.2-.94.076c-.592-.228-1.138-.47-1.7,0h0A1.957,1.957,0,0,0,22,32.038C22.5,33.024,23.4,31.825,23.972,32.372Zm5.415-5.127h0s-.015,0,0,0Z" transform="translate(9.26 6.879)" fill="#774234"/>
    <path id="Trazado_26277" data-name="Trazado 26277" d="M21.747,35.81a.531.531,0,0,0-.546.576c.228.652,1.138.652,1.365,1.335a.44.44,0,0,0,.273-.652,1.32,1.32,0,0,0-1.092-1.259Z" transform="translate(8.845 15.104)" fill="#774234"/>
    <path id="Trazado_26278" data-name="Trazado 26278" d="M28.148,17.378h0v.091c0,.091,0,.137.076.2l.091.091h-.106c.576.531-.516,1.289.212,1.805h0c.152.91-.425,1.866.273,2.7h0c.2,1.38,1.426,1.517,2.4,2.093h0a2.732,2.732,0,0,0,0,.425c1.517.228,3.034.925,4.657.364a6.811,6.811,0,0,1,1.259-.182h0a3.185,3.185,0,0,0,4.338-.319h.137a3.337,3.337,0,0,0,3.034-.849h0l.637-.531h0c1.729-1.972,1.274-4.338,1.213-6.659h0c-.546-1.411-.212-3.034-.88-4.384a.38.38,0,0,0,0-.106,3.428,3.428,0,0,0-1.153-2.67c-.121-.364-.106-.986-.8-.7-.455.2-.652,0-.743-.379-.273-.849-.865-.774-1.517-.592s-.713-.758-1.153-.561h0c-.713-.834-1.077-.849-1.517,0h0a.364.364,0,0,0-.076.243h0a.44.44,0,0,1-.546-.243c-.258-.44-.349,0-.334.152.076.622.576.364.925.44h0a2.5,2.5,0,0,0,1.517.576h0l1.153.121h0c-.349,1.35,1.077.895,1.517,1.426h0c0,.44.121.667.592.561h0c.485,1.062.319,2.306.91,3.322h0c.076.394.167.774.243,1.168h0c0,.895-.137,1.805-.212,2.7h0c0,.319.182.819,0,.94-1.138.88-1.138,2.245-1.577,3.519h0c-.592.516-1.411.485-2.078.819-1.138-.713-2.366.2-3.534-.182h0a1.615,1.615,0,0,0-1.517.576H33.5L32.35,22.96h0c-.44-.349-1.335-.334-1.183-1.168s-.41-1.4-.667-2.063h0c.091-.273.394-.212.622-.288.713-.212.728-.986,1.138-1.517h0c.288-.834.637-1.744-.2-2.427s-1.047-1.38-1.7-1.972c.849.137.667-.379.455-.834a2.063,2.063,0,0,1,.2-2.442h0c.652,0,.713-.925,1.411-1,.228,0,.561-.379.3-.667a.9.9,0,0,0-.8-.121c-.425.728-1.517.7-1.79,1.517h0a.273.273,0,0,0-.3.288v-.015l-.865,1.168h0a1.229,1.229,0,0,0-.546,1.517h0a.288.288,0,0,0,0,.288h0v1.441A4.171,4.171,0,0,0,28.148,17.378Zm.743-2.321h0a1.744,1.744,0,0,0,1.047.592h.212v.167h-.137c-.531.592-.212,1.229-.167,1.866-.2-.41-.228-.956-.819-1.062h0A1.972,1.972,0,0,0,28.892,15.057Z" transform="translate(12.379 0)" fill="#774234"/>
    <path id="Trazado_26279" data-name="Trazado 26279" d="M34.408,76.42h0a3.883,3.883,0,0,0-1.2,2.4c.895.2.94-.971,1.653-1.062l.41.2h0a.758.758,0,0,0,0,.258c.758,0,.713-.652.834-1.183h0c.607-.288.728-.986,1.183-1.38h0a.94.94,0,0,0,.546-1.244h0c.152-.561.895-.728.956-1.38-.637-.288-.865.743-1.517.44h0c-.152-.44.5-.713.228-1.168.349-.531.865-1.016.637-1.744-.986.3-.94,1.244-1.259,1.957-.516.137-.485.561-.5.956h0c-.425.106-.774.243-.319.713.516.182.319.713.485,1.062a.8.8,0,0,0-.44.152q0-.364,0-.728c-.728-.152-.94.228-.91.865h0a1.714,1.714,0,0,0-.789.895Zm2.624-3.913ZM35.925,76a1.4,1.4,0,0,0,.137.849l.106.121a.364.364,0,0,0-.3,0,.409.409,0,0,0-.212-.212,1.805,1.805,0,0,0,0-.7A.516.516,0,0,0,35.925,76Z" transform="translate(15.053 33.059)" fill="#774234"/>
    <path id="Trazado_26280" data-name="Trazado 26280" d="M38.3,84.569a3.186,3.186,0,0,0-.834,0,6.429,6.429,0,0,0-.895-.349h0c-.212-.592-.789-.622-1.229-.8h0c-.758-.849-.091-1.851-.288-2.761a15.492,15.492,0,0,0-.228-1.684h0c.273-.349.334-.849.774-1.031-.152-.273.652-.849-.273-.91-.182.319-.394.637-.592.94-.288,0-.607.182-.865-.212s-.713,0-.91.212c-.47.394,0,.485.288.622.106.546-.243.652-.652.592s-.849,0-.834.592h0A5.567,5.567,0,0,0,29.681,81.5c-.228,0-.516,0-.622.258h0a3.383,3.383,0,0,0-1.759.561,4.884,4.884,0,0,0,2.093.425h.076a1.517,1.517,0,0,0,1.517.531h0a3.125,3.125,0,0,1,1.775.607h0c.743-.3,1.259.758,2.017.334h0l.349-.349h0l.895.637h0a1.866,1.866,0,0,0,1.517.561h0a1.439,1.439,0,0,1,.561.182c.167.076.607.667.865,0S38.57,84.569,38.3,84.569Z" transform="translate(11.999 36.408)" fill="#774234"/>
    <path id="Trazado_26281" data-name="Trazado 26281" d="M26.1,80.672c-.2-.7.182-1.411-.652-1.76h0c-.3-.106-.152-.652-.592-.622a2.73,2.73,0,0,0-2.685,0h-.076l-.243.243h0c-1.047-.865-2.154-.182-3.231-.167-.152.364-.455.758.258.91,1.517-.41,1.517.925,2.108,1.714h0l.228.076c.91,0,.743-.728.849-1.259.3,1.517.258,1.851-.7,1.851.137-.243-.167-.44-.349-.652l-3.034.319h0a3.034,3.034,0,0,0-2.108-.258h0c-.364.243-1.517,0-.637,1.062.121.137,0,.561-.137.819-.152.5-.667,1.153-.167,1.426s1.168.789,1.835.182h.091a2.624,2.624,0,0,0,2.351,0h0c.228.364.607.152.925.212h0c.47.743,1-.106,1.517,0l-.137-.121.152.106c1.047,0,2.124.334,3.034-.622.425-.273.592-.561,0-.849h0c-.258-1.016.516-2.093-.167-3.034a4.1,4.1,0,0,1,.47-.3h0Zm-6.7,1.2Z" transform="translate(5.497 36.876)" fill="#774234"/>
    <path id="Trazado_26282" data-name="Trazado 26282" d="M10.045,43.949c.652.106.44-.47.516-.743s.288-.728-.152-.8-.576.561-.774.895a.455.455,0,0,0,.41.652Z" transform="translate(2.846 18.508)" fill="#774234"/>
    <path id="Trazado_26283" data-name="Trazado 26283" d="M22.1,36.071c.379,0,.3-.531,0-.819h0a8.832,8.832,0,0,0-.091-1.517c-.091-.546.394-.956,0-1.411,0,0-.3.106-.485.182-.2-.5.076-.971.137-1.517-.865.47-.334,1.107-.44,1.517h0c-.319.683.364.834.652,1.2,0,.485-.076.971-.106,1.517h0c-.273.546-1.107-.7-1.077.258C20.705,36.132,21.646,36.041,22.1,36.071Z" transform="translate(8.582 12.613)" fill="#774234"/>
    <path id="Trazado_26284" data-name="Trazado 26284" d="M11.937,41.066a1.3,1.3,0,0,0,.561-1.274c0-.258-.228-.349-.394-.2s-.121.334-.182.5h0c-.425.728-1.4,1.229-1.047,2.275C11.1,41.764,11.679,41.567,11.937,41.066Z" transform="translate(3.472 17.023)" fill="#774234"/>
    <path id="Trazado_26285" data-name="Trazado 26285" d="M47.8,50.957c0-.212,0-.576-.288-.546a.681.681,0,0,0-.516.713c-.015.379.288.485.379.758a.986.986,0,0,0,.425-.925Z" transform="translate(22.18 22.649)" fill="#774234"/>
    <path id="Trazado_26286" data-name="Trazado 26286" d="M38.249,70.27a1.138,1.138,0,0,0-.895,1.517A1.38,1.38,0,0,0,38.249,70.27Z" transform="translate(17.159 32.914)" fill="#774234"/>
    <path id="Trazado_26287" data-name="Trazado 26287" d="M62.956,78.421h0c-.561.121-.895-.228-1.2-.622h-.046c-.167-.652.106-1.517-.88-1.805,0,.425.182.88-.3,1.183H59.68a2.943,2.943,0,0,1-1.517-.349h0c0-.7-.455-.637-.895-.622h0c-.425-.106-.182-.728-.637-.819s-.834-.743-1.517-.7V73.567h0a1.046,1.046,0,0,0,.167-.2l.44-.212c.576,0,.986.41,1.517.622l.652.319h0a.849.849,0,0,0,.88.576h0A1.835,1.835,0,0,0,60.575,75.9,2.381,2.381,0,0,0,58.8,73.749h0l-.758-.743-.2-.349h0a1.259,1.259,0,0,0-1.517-.546.91.91,0,0,1-.288-.091h0a3.034,3.034,0,0,1-.288-2.609h0c.576-.88-.2-.607-.576-.683h0l-.379-.546h0v-.895h0a8.738,8.738,0,0,0-.273-.895.576.576,0,0,0,0-.258,4.55,4.55,0,0,0-.592-3.034c0-.273,0-.561,0-.849a3.853,3.853,0,0,0-.319-2.108c0-.47,0-.956,0-1.517a14.788,14.788,0,0,0-.212-2.654h0v-.925h0c-.2-.592-.394-1.168-.576-1.76h0c0-.607.652-.774.925-1.2h0l1.517.607h0a.3.3,0,0,0,.243.106c0,.394-.41.88.228,1.062s.561-.243.728-.531.485-.8.713-1.213.637-.743.212-1.244c-.5.121-1.289-1.3-1.517.288-.637.121-1.289.425-1.926.106v-.3a6.356,6.356,0,0,1,.091-3.2V47.66c.592.273,1.168.561,1.76.865.228.774.758.3,1.168.3h0V49.4c.243,0,.607.152.743-.137s-.2-.379-.425-.485h0c-.106-.41-.091-.88-.47-1.183a2.017,2.017,0,0,0-1.638-1.122h0l-1.426-.167a.242.242,0,0,0,0,.106h0c-.137-.258-.379-.2-.607-.212h0c-.561-.774-1.775.182-2.048-.561a3.292,3.292,0,0,0-2.761-2.169h0a2.245,2.245,0,0,0-1.183-1.122h0a1.244,1.244,0,0,0-1.653,0h0a.425.425,0,0,0-.106-.258h0c0-.865-.455-1.077-1.2-.865h0a2.108,2.108,0,0,1-1.2-.364h0l-.273-.288c-.728-.986-.485-2.245-.986-3.276h0c.137-.607.243-1.213.379-1.79-.956.364-.7,1.092-.607,1.805A6.492,6.492,0,0,0,40.492,39.3c-.379.88.546,1.7-.182,2.457.607.182.774-.455,1.2-.607h0a1.517,1.517,0,0,0,1.517.288h0l.834.394h0c.485.212.7.8,1.244.895h0l.849.576h0a2.4,2.4,0,0,0,1.517.895h0a2.306,2.306,0,0,0,1.517,1.168h0a7.144,7.144,0,0,0,2.381,1.805h0c.137.47,1,1.335-.516.925-.273-.076-.607.152-.94.243.273.273-.667.758.076.895,1.517.243,1.668,1.517,1.517,2.518s.243,1,.637,1.365c-.94.576-.713,1.517-.758,2.412h0c-.121.212-.485.47,0,.683s.7,0,.956-.394h0q.432-.159.592.319h0a14.8,14.8,0,0,0,.2,1.623c-.531,1.016-.167,2.063-.212,3.034v.94h0v1.79h0a10.193,10.193,0,0,0,.774,2.73c0,.258,0,.531.364.592v.561c-.076.531-.243,1.047.2,1.517h0L53.7,71.019c-.394-.971-.243-1.79-.849-2.26h0a1.714,1.714,0,0,0-.561-1.411c-.228-.379.288-1.168-.652-1.168h0a5.263,5.263,0,0,0-.364-2.048h0c0-.243.106-.531-.288-.607,0-.895.394-1.805-.167-2.821-.667,1.077-.273,2.124-.349,3.034h0a1.322,1.322,0,0,0,.485.986h0c.137.47-.137,1.016.349,1.411v.3c0,.5-.106,1.077.364,1.517,0,.425-.167.88.258,1.229.091.288,0,.667.3.88h0a4.717,4.717,0,0,0,2.048,3.625h0c.182.47,0,1.3.91,1.168,0,.683.561.8.91,1.138a1.426,1.426,0,0,0,1.213.986h0c.137.425.531.607.849.895h0a.41.41,0,0,0,.47.319c.637.106.91.925,1.638.8l.607.319c.379.152.728.47,1.183.273h1.411C62.9,79.452,64.109,78.163,62.956,78.421Z" transform="translate(18.722 14.949)" fill="#774234"/>
    <path id="Trazado_26288" data-name="Trazado 26288" d="M55.72,64.59Z" transform="translate(26.687 29.978)" fill="#774234"/>
    <path id="Trazado_26289" data-name="Trazado 26289" d="M13.67,41.672h0c.137.364-.379.667-.091,1.153.849-1.9,1.942-.41,2.306.076.774,1.031,1.153.379,1.653-.076a10.982,10.982,0,0,0,.94-1.107h0a1.517,1.517,0,0,0,.819-.925c.076-.273.592-.561.137-.849a.652.652,0,0,0-1,.2l-.334.622h0c-.182-.106-.41-.319-.5-.258-1.153.576-1.79.349-1.805-1.047,0-.273-.273-.516-.394-.774-.425-.652-.121-1.092.379-1.517s.8-.137,1.2,0c1.3.592,2.306.394,2.867-1.047h.394c1.138.516,1.668-.47,2.4-.94h0c.273,0,.713.228.713-.258s-.152-.819-.728-.576h0c-1.213-.364-2.336.349-3.534.273h0c-.774.319-1.668.243-2.336.834a4.338,4.338,0,0,0-.091.986l-.47.2h0a.425.425,0,0,0-.091-.273l.273-.485c-.228,0-.334-.485-.561-.258s-.7.334-.349.8a3.9,3.9,0,0,0-1.183,2.336c-.364.288-.607-.531-.865-.167-.47.667-1.2,1.32-.531,2.275C13.079,41.1,12.9,41.793,13.67,41.672Z" transform="translate(4.408 14.294)" fill="#774234"/>
    <path id="Trazado_26290" data-name="Trazado 26290" d="M33.412,78.2a3.671,3.671,0,0,0,.91-1.8,1.623,1.623,0,0,0-.91,1.8Z" transform="translate(15.14 36.082)" fill="#774234"/>
    <path id="Trazado_26291" data-name="Trazado 26291" d="M35.7,69.84c-.728,0-1.259.212-1.031,1.411C35.108,70.674,35.669,70.507,35.7,69.84Z" transform="translate(15.779 32.692)" fill="#774234"/>
    <path id="Trazado_26292" data-name="Trazado 26292" d="M49.091,45.2c-.167-.212-.334-.455-.622-.485h0c-.41-.5-.986-.228-1.517-.349h0c-.182-.561-.7-.561-1.183-.607-.121-.3-.364-.243-.607-.212h0a.288.288,0,0,0-.243,0h0a.254.254,0,0,0-.334-.228H44.01a.592.592,0,0,0-.273,0,1,1,0,0,0-1.183-.592c0-.652-.47-.728-.88-.91h0c-.3-.622.212-1.668-.94-1.866-1.107.182-.592,1.365-1.122,1.881a.322.322,0,0,1-.121.3c.273.622.41,0,.607,0h0l.88.364h0a1.684,1.684,0,0,0,1.229.576h0c.516.212.758,1.107,1.517.607h.789a.258.258,0,0,0,0,.228h0c.212.667.88.667,1.38.94s.394.834.986.592c.319.167.592.364.91.531h0l.592.273h0c.47,0,1.229.667,1.138-.546C49.622,45.259,49.364,45.259,49.091,45.2Z" transform="translate(18.299 17.244)" fill="#774234"/>
    <path id="Trazado_26293" data-name="Trazado 26293" d="M26.785,76.257c.288.152.334.8.865.44a.516.516,0,0,0,.152-.379c0-.652-.576-.364-.88-.485s-.243-.137-.379-.182c-.576,0-.44.607-.622.971a.743.743,0,0,0,.349.152c.349,0,.152-.394.228-.592Z" transform="translate(11.286 35.694)" fill="#774234"/>
    <path id="Trazado_26294" data-name="Trazado 26294" d="M19.914,43.144c.455-.44.334-.834,0-1.3-.425.47-.273.88-.319,1.289h0a2.017,2.017,0,0,0-.667,1.426h0a.288.288,0,0,0-.228.091h0l-2.124,2.912a.849.849,0,0,0-.607.622h0c-.319.076-.228.349-.258.576h0a7.584,7.584,0,0,1-.607.607h0c-.364.106-.2.394-.182.637-.774.228-.88.774-.667,1.517-.986.167-.349.743-.288,1.183s-.349.243-.561.212h0c-.44-.379-.607-.2-.652.288h0c-.561.425-1.183-.774-1.729.091h0c-.273.364,0,.758,0,1.138h0a.836.836,0,0,1-.895-.834h-.106c-.137-.455.637-1.2-.273-1.4-.546-.091-.8.5-.865,1.077,0,.3-.455.516-.258.925H8.507c-.106.273-.243.561-.379.834h0c-.986,0-1.38.88-1.942,1.517h0c-.652.152-1.259.349-.94,1.244,0,.394-.637.121-.592.576s-.895.88-.3,1.517h0a.5.5,0,0,0,0,.258h0c-.394.182-.319.394,0,.622h0q-.44.713.364.546h0a.622.622,0,0,0,.243,0c0,.228,0,.531.258.607h0c.7.88,1.229.91,1.517-.288.425,0,.622-.41.91-.622.652,0,1.183-.091,1.274-.865a3.458,3.458,0,0,0,1.107-1.183c.212-.288.425-.576.637-.834h0l1.517-2.124h0l.956-1.517h0c.182-.212.349-.394.516-.607h0a1.047,1.047,0,0,0,.561-1.213,1.3,1.3,0,0,1,.622-.94h0a1.714,1.714,0,0,0,.91-1.517c.182-.212.379-.41.546-.576h0c1.274-.167.895-1.35,1.259-2.078a6.993,6.993,0,0,0,1.517-2.108h0c.364-.212.243-.546.212-.865h0C19.489,44.146,20.035,43.8,19.914,43.144ZM13.634,53.9Zm-9.1,6.886Zm2.67-.5a.3.3,0,0,0,0,.106c-.561,0-.652.288-.546.819a.44.44,0,0,0-.273,0h0a.349.349,0,0,0-.288-.228v-.121a1.244,1.244,0,0,0-.106-.789A1.306,1.306,0,0,1,6.1,59.92a2,2,0,0,0,.228-1.729.41.41,0,0,0-.091-.152c.273-.273.516-.561.774-.865a.364.364,0,0,0,.121.091,3.033,3.033,0,0,0,1.638-.319.455.455,0,0,0,.2.182h0c-.243.44-.94.834-.425,1.365a1.926,1.926,0,0,0-.3.47C7.506,59.071,7.355,59.723,7.2,60.284Zm6.416-6.431Zm1.077-2.2h0Z" transform="translate(0 18.221)" fill="#774234"/>
    <path id="Trazado_26295" data-name="Trazado 26295" d="M37.867,82.42c-.592-.379-.834-.91-1.517-.88v.152C36.623,82.238,36.76,82.875,37.867,82.42Z" transform="translate(16.676 38.738)" fill="#774234"/>
    <path id="Trazado_26296" data-name="Trazado 26296" d="M8.638,47.6c.607-.2.425-.652.349-1.153-.41.258-.865.425-.728,1.016C8.274,47.542,8.516,47.648,8.638,47.6Z" transform="translate(2.145 20.603)" fill="#774234"/>
    <path id="Trazado_26297" data-name="Trazado 26297" d="M14.747,41.766a1.141,1.141,0,0,0,.394.091c.789-.076.3-.652.3-1.077C15.142,41.114,14.611,41.19,14.747,41.766Z" transform="translate(5.5 17.673)" fill="#774234"/>
    <path id="Trazado_26298" data-name="Trazado 26298" d="M15.72,78.272h0c.258,1.153,1.168.44,1.76.637a.531.531,0,0,0,0-.622h.47C17.206,77.938,16.448,77.665,15.72,78.272Z" transform="translate(6.014 36.864)" fill="#774234"/>
    <path id="Trazado_26299" data-name="Trazado 26299" d="M32.365,62.442a.212.212,0,0,0,0-.091,2.275,2.275,0,0,0-1.153-.834h0A2.033,2.033,0,0,0,29.331,60c-.485,1.168.607,1.38,1.168,1.9h0c.137.622.743.789,1.153,1.168h0c.3.319.485.728.971.834h0a.243.243,0,0,0,.349-.137l.091-.106C33.29,63.034,32.744,62.776,32.365,62.442Z" transform="translate(12.986 27.606)" fill="#774234"/>
    <path id="Trazado_26300" data-name="Trazado 26300" d="M29.346,69.885c.455,0,.531-.47.88-.667-.319,0-.819-.379-.956.273a.819.819,0,0,0,.076.394Z" transform="translate(13.016 32.313)" fill="#774234"/>
    <path id="Trazado_26301" data-name="Trazado 26301" d="M28.97,71.531a1.016,1.016,0,0,0,.364-1.411A1.229,1.229,0,0,0,28.97,71.531Z" transform="translate(12.816 32.836)" fill="#774234"/>
    <path id="Trazado_26302" data-name="Trazado 26302" d="M25.72,84.339c.622,0,1.031.137,1.4-.243C26.706,84.263,26.3,83.687,25.72,84.339Z" transform="translate(11.182 40.02)" fill="#774234"/>
    <path id="Trazado_26303" data-name="Trazado 26303" d="M28.487,72.1v.819a1.4,1.4,0,0,1-.076.425c-.106.212-.7.091-.379.576a.318.318,0,0,0,.243.137.637.637,0,0,0,.394-.561l.091-.576c.228-.182.41-.394.076-.667A3.476,3.476,0,0,0,28.487,72.1Z" transform="translate(12.329 33.86)" fill="#774234"/>
    <path id="Trazado_26304" data-name="Trazado 26304" d="M33.083,76.2l-.243.258C33.083,76.473,33.083,76.382,33.083,76.2Z" transform="translate(14.862 35.979)" fill="#774234"/>
    <path id="Trazado_26305" data-name="Trazado 26305" d="M32.691,43.891h0a3.307,3.307,0,0,0,3.034-.592h0c1.2-.41,1.517-1.517,2-2.533.152-.288.212-1.016-.121-1.077a13.485,13.485,0,0,1-2.533-.88c-.228.819-1.016,1.426-.925,2.381a1.517,1.517,0,0,1,0,.576c-.228.743-.637.546-1.092.2-.47-.895-1.047-.364-1.517,0-.728.455,0,.895.182,1.213A1.335,1.335,0,0,0,32.691,43.891Z" transform="translate(14.025 16.655)" fill="#774234"/>
    <path id="Trazado_26306" data-name="Trazado 26306" d="M32.379,43.274c-.637-.091-.485.41-.516.743s0,.47.425.41c0-.379.728,0,.743-.637S32.652,43.319,32.379,43.274Z" transform="translate(14.352 18.956)" fill="#774234"/>
    <path id="Trazado_26307" data-name="Trazado 26307" d="M32.41,28.5c.713.7,1.714.121,2.791.865C34.352,27.755,33.3,28.423,32.41,28.5Z" transform="translate(14.64 11.222)" fill="#774234"/>
    <path id="Trazado_26308" data-name="Trazado 26308" d="M38.72,59.29c.8-.091,1.047-.576.88-1.32C38.963,58.167,38.8,58.683,38.72,59.29Z" transform="translate(17.901 26.557)" fill="#774234"/>
    <path id="Trazado_26309" data-name="Trazado 26309" d="M34.539,22.927h0a1.76,1.76,0,0,0,1.229.455c.3.091.667.334.849-.2-.425,0-.683-.121-.531-.592h0l.167-.182V22.29A6.613,6.613,0,0,0,34.008,22C34.008,22.4,33.811,22.912,34.539,22.927Z" transform="translate(15.453 7.965)" fill="#774234"/>
  </g>
</svg>
