<svg xmlns="http://www.w3.org/2000/svg" width="81.323" height="125" viewBox="0 0 81.323 125">
  <g id="Calavera_refrescos-mexicanos" transform="translate(-8.825 -15.71)">
    <path id="Trazado_26194" data-name="Trazado 26194" d="M41.774,67.065c-.243-.139-.468-.312-.745-.451a2.375,2.375,0,0,0-1.162.139c-.381.139-.8-.1-1.214.139s-.659,0-1.04.173a.592.592,0,0,1-.451-.173.78.78,0,0,1-.988.277c-.364-.416-.832-.988-1.248-1.456-.1-.312-.191-.607-.295-1.023-.139-.139-.416-.364-.641-.607s-.416-.572-.589-.745c.191,0,.329-.225.52-.312v-.295c-.191-.173-.329-.468-.711-.468-.087,0-.277-.139-.277-.225,0-.468-.5-.659-.555-1.11,0-.191-.329-.381-.468-.572s-.329-.693-.52-1.023a1.331,1.331,0,0,1-.312-1.11c-.191-.139-.329-.329-.52-.468v-.85c-.277-.416-.607-.78-.884-1.214a2.132,2.132,0,0,1-.329-.555,2.618,2.618,0,0,0-.832-1.439,4.872,4.872,0,0,0,0-.711,5.2,5.2,0,0,0-.277-.641c-.1-.416-.139-.884-.243-1.4a1.274,1.274,0,0,1-.277-.277V48.792a8.252,8.252,0,0,0,.555-1.11,4.455,4.455,0,0,1-.364-.416,3.779,3.779,0,0,0-.468.416h-.52a1.578,1.578,0,0,1-.225-.277c-.139-.277-.277-.52-.659-.52s-.364-.191-.416-.5c-.329,0-.745.087-.971-.191s-.52-.329-.659-.555a5.2,5.2,0,0,0-1.82-1.456c-.329-.173-.8-.329-.936-.832h-.5a2.618,2.618,0,0,1-.277-.468c-.191,0-.329.139-.52.191-.693-.8-1.734-.745-2.6-1.318a2.445,2.445,0,0,0-1.4-1.248c-.52-.139-1.023-.659-1.6-.243a7.1,7.1,0,0,1-.832-.173,16.175,16.175,0,0,0-2.635-1.924c-.1-.416-.191-.78-.243-1.023l-.78-1.162c-.1-.607-.139-1.162-.243-1.734s-.364-.971,0-1.387c0-.381-.139-.745-.173-1.266l-.416-.832a1.61,1.61,0,0,0-.156-1.04.849.849,0,0,1,0-.416c.381-.416.1-.78,0-1.214l.329-.607c0-.416.139-.832.173-1.352a5.9,5.9,0,0,1-.5-.555c.191-.468.191-.468,0-1.11a6.605,6.605,0,0,1,.5-.52,3.467,3.467,0,0,1,1.04,1.266l-.52,1.248a3.727,3.727,0,0,0,.191.416.391.391,0,0,1-.139.243c.277.225-.1.745.468.936v.919a6.137,6.137,0,0,0,0,1.6c.139.468,0,1.023.277,1.439a.208.208,0,0,1,0,.243c-.225.225-.139.555-.139.832l.659.8v.745c.139.139.329.277.5.468a2.6,2.6,0,0,0,.329-.243V33.6a1.491,1.491,0,0,0,1.352-.468c0-.243.139-.52-.139-.8a.52.52,0,0,1,0-.329c.277-.329.1-.607,0-.971-.225-.745-.225-.745.1-1.82a.5.5,0,0,0,.173.139l.243-.225a6.52,6.52,0,0,0-.711-.659l.191-.416c-.364-.329,0-.884-.277-1.4a4.161,4.161,0,0,1,0-1.543,5.1,5.1,0,0,1-.312-.607c.312-.5.139-1.11.173-1.734h-.416a4.238,4.238,0,0,1-.364,1.162l.364.277a13.731,13.731,0,0,1-.607,1.248,7.524,7.524,0,0,0,.52.8v.884a21.594,21.594,0,0,0,.225,2.375,1.439,1.439,0,0,0-.416.295.954.954,0,0,1,.087.312c.191.433.191.433-.277.711-.139-.277-.277-.572-.468-.884a1.6,1.6,0,0,0,.139-.433c-.312-.884-.087-1.959-.832-2.843.087-.312-.225-.745.225-.971a2.271,2.271,0,0,0-.173-.329l.693-.693a7.6,7.6,0,0,0-.277-1.491c0-.1-.139-.139-.277-.277l-.988.971a2.08,2.08,0,0,1-.555-.243,6.189,6.189,0,0,1,.191-1.11c.087-.381.312-.745.416-1.179s0-.78.277-1.11h1.075l.173.191h0c-.416.468.139.936,0,1.352a4.265,4.265,0,0,0,0,.832l.607-.78c.1-.52.191-.936.243-1.318l.971-.745V20.2l.225.225h.52a4.681,4.681,0,0,1,.329.555l.5-.139.243.243a5.131,5.131,0,0,1-.243,1.075,6.935,6.935,0,0,0-.884.5,7.976,7.976,0,0,0-.745.884A1.612,1.612,0,0,0,13.6,24.9c.1.277-.139.607.243.884-.277.416-.139.8,0,1.266a8.356,8.356,0,0,1,.191,2.375,1.127,1.127,0,0,0,0,.416c.087.381.191.711.277,1.075a6.449,6.449,0,0,1,.191.659,9.883,9.883,0,0,0-.329,1.214c.329.277.659.555,1.023.919v.468h-.364a1.543,1.543,0,0,0,0,1.734,5.893,5.893,0,0,1,.468-.364h1.387c0,.139.139.225.191.364s0,.329.225.433a16.4,16.4,0,0,0,3.086,2.1,2.028,2.028,0,0,1,1.075.78h.884a3.225,3.225,0,0,0,1.543.884c0,.433.416.52.693.659s.8.243,1.162.416a1.4,1.4,0,0,1,.52.381,2.566,2.566,0,0,0,1.734.78,9.848,9.848,0,0,1,1.959.329c.139,0,.277.243.468.381s.173-.139.277-.191H31.2l1.595.693a2.34,2.34,0,0,0,.451-.416,7.576,7.576,0,0,0,2.15,1.3,6.137,6.137,0,0,0,2.479,1.734c.5,0,.745-.433.971-.85h.745c.243.277.416.572.659.884l.971-.277-.745-.5V43.487c0-.243-.191-.555-.087-.745a1.231,1.231,0,0,0,.087-.693,1.179,1.179,0,0,0-.139-.8c-.191-.277,0-.607.243-.884a1.058,1.058,0,0,0-.1-1.456v-.641l-.139-.243h-1.4a4.542,4.542,0,0,0-.416.52,4.074,4.074,0,0,1-4.144-2.618,2.7,2.7,0,0,0-.52-.468c-.416-.173-.416-.5-.468-.884a12.842,12.842,0,0,1-.191-1.734c0-.191-.173-.381-.277-.572.329-.607-.087-1.162-.191-1.855.1-.139.191-.381.329-.607-.173-.277-.364-.52-.555-.85.52-.364.225-1.023.555-1.491a8.669,8.669,0,0,0,.85-1.387,4.248,4.248,0,0,1,.919-1.266,14.3,14.3,0,0,1,1.4-.971,8.252,8.252,0,0,0,2.982-1.179,7.854,7.854,0,0,0,3.086-.312,11.269,11.269,0,0,1,1.734.641c.52.381,1.266.277,1.63.85a1.248,1.248,0,0,0,.329-.191,3.086,3.086,0,0,0,1.734,1.214,24.74,24.74,0,0,0,2.93,2.427,1.422,1.422,0,0,1,.693,1.387,4.161,4.161,0,0,0,.139,1.456c.139.468.243.919.329,1.352s.468.832,0,1.248v1.3a2.306,2.306,0,0,1-.139,1.127,1.162,1.162,0,0,0,.139.884c.191.277-.191.468,0,.693a2.323,2.323,0,0,0-.52,1.734l-.364.364c-.243-.087-.416-.225-.659-.312a1.734,1.734,0,0,0-.329.277,1.56,1.56,0,0,0,.988,1.11,6.484,6.484,0,0,1-.381,2.063,4.126,4.126,0,0,1-3.277-.173c-.416-.191-.884-.277-1.456-.468l-.173-.173-.884.641-.191-.191c0,.1-.139.191-.191.295a4.386,4.386,0,0,0,.139,1.023c.052.277,0,.139,0,.173-.364.433-.277.988-.555,1.595a4.491,4.491,0,0,0-.416.416c.139.659-.243,1.266-.381,1.959-.225.139-.451.225-.78.416l.416.1-.139.139.884-.468v-.85a6.31,6.31,0,0,0,.832-.607c.277.191.8.191.711.85h-.607v.572a2.739,2.739,0,0,1,1.578-.416,3.849,3.849,0,0,0,.936-.295,1.422,1.422,0,0,0,1.162,0c.416-.139.659-.555,1.075-.555a3.711,3.711,0,0,1,.277-.468l1.127.139,1.578-.971c.693-.1,1.4-.191,2.011-.243.416.329.468.8.78,1.179a11.13,11.13,0,0,0,1.872,1.387c.191.139.416.277.468.416.225.85,1.11,1.04,1.63,1.595h.277a23.286,23.286,0,0,0,2.1,1.855c.381.295.832.572.971,1.04a4.768,4.768,0,0,0,1.734,2.236.988.988,0,0,1,.364.416,3.1,3.1,0,0,0,.8-.243c.191.381.745.329.884.85,0,.139.364.191.555.225s.191.52.277.8c.329,0,.381-.225.468-.416.416-.139.85-.277,1.3-.468.329.191.711.364,1.266.659h1.127c.312-.191.607-.329.884-.468a3.122,3.122,0,0,1,.364.139,1.941,1.941,0,0,1,.416.173,1.892,1.892,0,0,0,.572-.277c.312.277.745,0,1.214.139l.225.329a6.172,6.172,0,0,0,1.976-.156c.468,0,.693.468,1.214.572a1.734,1.734,0,0,0,1.075,0,.728.728,0,0,1,.468,0,2.566,2.566,0,0,1,.641.277,2.6,2.6,0,0,0,1.907-.1c.277-.087.5-.225.8-.329s.173,0,.364.139c.329-.277.693-.607,1.214-1.023l2.011.139c.225.277.451.52.589.659l.711.225v1.734a6.226,6.226,0,0,1,.364.607c.433-.191.8-.329,1.214-.468.243.191.468.364.468.693a3.329,3.329,0,0,0,.329.936.572.572,0,0,1,0,.416c-.468.52-.277,1.127-.329,1.734-.416.468-.607,1.075-1.3,1.266l-.139-.139c-.329.139-.659.225-1.023.364l-.659-.329a4.006,4.006,0,0,1-.381.555c-.139.745.156,1.543-.173,2.34a.139.139,0,0,0,0,.087c.191.329,0,.8.468.988a4.092,4.092,0,0,0,.277.971,3.156,3.156,0,0,1,0,.988,1.352,1.352,0,0,0,.381,1.058c-.1.468-.139.988-.243,1.543l-.277.277c.087.243,0,.52.139.85a1.543,1.543,0,0,1,0,1.11,2.358,2.358,0,0,0-.225,1.266,5.978,5.978,0,0,1-.225.884c-.035.277-.156.277-.1.364A2.635,2.635,0,0,1,86.1,78.3v.1a2.947,2.947,0,0,1-.607,2.1c-.555.416-1.2,0-1.855,0l-.329-.329h-.832a1.422,1.422,0,0,1-1.214.468c-.277-.329-.607-.659-.85-.936a5.445,5.445,0,0,0-.173-1.023c-.191-.468.139-.988.173-1.491,0-.139.139-.329.1-.468a6.935,6.935,0,0,1-.1-2.809c0-1.248-.277-2.514-.191-3.762a3.762,3.762,0,0,1,.329-1.179c.277,0,.555-.139.884-.173a8.534,8.534,0,0,0-.191-1.543c0-.243.329-.52,0-.8a3.693,3.693,0,0,1,.988-1.439,1.6,1.6,0,0,0,.5-2.011c0-.087,0-.225,0-.329L81.58,61.24a9.572,9.572,0,0,1,.225-.971,4.264,4.264,0,0,0-.607.416,7.473,7.473,0,0,1-1.352.191c-.416,0-.832-.156-1.248-.191s-.468.468-.745.5a1.352,1.352,0,0,0-.711.381c-.555-.1-1.058.087-1.63-.191a.624.624,0,0,0-.555,0c-.277.243-.5.087-.832.139l-.416-.555a5.618,5.618,0,0,0-1.352.225c-.468.243-.8,0-1.179,0a.936.936,0,0,0-.364,0c-.139.225-.277.451-.52.5a7.4,7.4,0,0,1-1.075,0l-.884-.191-.26.277h-.589l-.85-.85a2.2,2.2,0,0,0-1.578-.745c-.52-.468-1.023-.936-1.63-1.543a3.244,3.244,0,0,0-.139-.364,2.635,2.635,0,0,0-.329-.468,5.6,5.6,0,0,1-1.127-.607c-.277-.277-.555-.693-.936-.745s-.555-.52-.971-.555c-.139,0-.225-.191-.381-.329a4,4,0,0,1-.5-.745c-.381-.139-.607-.191-.8-.277a3.466,3.466,0,0,1-.225-.416,1.251,1.251,0,0,0-.711.139,3.571,3.571,0,0,1-.451-.433l-.52.52v.087a7.716,7.716,0,0,1,.329.884,17.805,17.805,0,0,1,0,1.924,1.4,1.4,0,0,1-.191.745.763.763,0,0,0-.087.78,1.3,1.3,0,0,1,0,1.214s0,.1,0,.191A22.88,22.88,0,0,1,56.2,62.61a5.028,5.028,0,0,1-.468,1.578c-.087.52-.087.988-.191,1.491-.225.884-.191.988-.5,1.352,0,0,.087.1.087.139v.295a1.023,1.023,0,0,0-.329.225,1.976,1.976,0,0,0-.381.381,2.253,2.253,0,0,1,.139.5c-.139,0-.225.381-.555.381-.225.312-.139.78-.555,1.023a9.189,9.189,0,0,1-1.023.468c-.277-.295-.85,0-1.075-.52a3.069,3.069,0,0,1-1.266-.364c-.364-.156-.745-.381-1.162-.607v-.607a5.721,5.721,0,0,0-.659.225c-.277-.225-.555-.416-.832-.607.087-.364.139-.745.243-1.162.173,0,.312.225.555.364H49a3.693,3.693,0,0,0,1.543.711,2.045,2.045,0,0,1,.555.277c.139-.191.364-.468.607-.745h.416v-.555a4.612,4.612,0,0,1-2.236-.329.711.711,0,0,0-.295.191c-.451-.295-.971-.572-1.387-.8s-.329-.745-.468-1.023c-.52-.1-.936.468-1.4-.139-.087.173-.173.277-.277.451a1.734,1.734,0,0,1,.139.52,2.687,2.687,0,0,1-.087.607h.745a11.338,11.338,0,0,1,.225,1.162h-.416l-.693-.832c-.139.364-.277.693-.416,1.023s.173.468.139.607a1.959,1.959,0,0,0,0,1.3v1.352c0,.1.139.243.173.329a4.924,4.924,0,0,1-.277.607c-.364.139-.607-.139-.936-.277h-.745a1.734,1.734,0,0,1-.312.277s0,.191.139.225a12.514,12.514,0,0,1,1.162.659c.191-.087.329-.191.5-.277.156.225.243.52.433.884s-.1.832-.191,1.4a1.94,1.94,0,0,0,.277.173,2.618,2.618,0,0,1-.381,1.768,2.873,2.873,0,0,1-.659-.191,3.226,3.226,0,0,0-.381.329c.191.139.329.329.433.329a.763.763,0,0,1,.693.277l.936-.936a2.912,2.912,0,0,1,.5,0A4.022,4.022,0,0,1,49.437,74.8a6.935,6.935,0,0,1,3.918-2.34,1.543,1.543,0,0,0,.381.191,1.612,1.612,0,0,1,.971-.659c.468-.139.711-.607,1.075-.884h.468c.416.329.832.711,1.266,1.023v.659c.173.329.364.555.555.85a2.531,2.531,0,0,0,0,2.1l-1.023.589a1.561,1.561,0,0,1-.1.433l-.277.277v.139a6.12,6.12,0,0,0,.121,1.942,1.352,1.352,0,0,1-.1.85,1.318,1.318,0,0,0,0,1.11.589.589,0,0,1,0,.381,11.6,11.6,0,0,0,.173,2.184,6.935,6.935,0,0,0,.52,1.959,1.422,1.422,0,0,1,.139.607v1.578a2.2,2.2,0,0,0,.225,1.058,3.779,3.779,0,0,1,.277,1.075c0,.1.1.139.156.191a1.144,1.144,0,0,0,0,1.11.364.364,0,0,1,0,.243c0,.329-.295.555-.1.936a4.178,4.178,0,0,1,.191.971,2.047,2.047,0,0,1,.277.139c0,.745.191,1.491-.52,1.959a3.9,3.9,0,0,0,.156.693,1.092,1.092,0,0,1,.364.295.851.851,0,0,0,.191.607c-.329.641,0,1.387-.139,1.994-.191.277-.329.468-.468.711a1.491,1.491,0,0,0,.139,1.023.936.936,0,0,1,0,.971,2.5,2.5,0,0,0-.243,1.075c0,.364,0,.745-.416.884v.225c-.243.659-.468,1.266-.659,1.872-.191,0-.329.225-.555.329.468.659.087,1.162-.277,1.734a5.409,5.409,0,0,1-.711,2.7v.832a2.965,2.965,0,0,0-.641,1.924,2.514,2.514,0,0,1-.8,1.578h-.191a15.5,15.5,0,0,1-.329,2.947,24.766,24.766,0,0,1-.607,2.791c-.191.139-.381.329-.555.468v.693l-.381.381a8.668,8.668,0,0,1,.139.971c-.329.139.139.745-.468.936a8.408,8.408,0,0,1-.832-.607c.381-1.248.555-2.462,1.023-3.589a4.316,4.316,0,0,0-.191-.468c.295-.5.52-1.023.85-1.578a2.549,2.549,0,0,1,.468-1.734,2.982,2.982,0,0,0,.416-1.439,6.38,6.38,0,0,1,.225-1.179.849.849,0,0,0,.243-.225v-.555c.277-.607.468-1.075.693-1.63-.139-.607.191-1.266.191-1.959a.451.451,0,0,1,.225,0c.1-.52.139-.971.277-1.578l.468-.329a4.351,4.351,0,0,1,.243-1.595,9.588,9.588,0,0,1,.416-1.491c.087-.277.225-.5.329-.78a4.664,4.664,0,0,0,.364-1.734,5.635,5.635,0,0,1,.468-1.335,1.456,1.456,0,0,1,.277-1.127.624.624,0,0,0,0-.607c-.173-.277,0-.416.1-.745l-.8.329-.277-.277c-.381.173-.277.641-.555.919s-.191.659-.329,1.04l.277.693-.693.693c-.381-.329-.745-.832-1.456-.641v-.52c0-.191-.139,0-.243,0-.139.52-.312,1.075-.5,1.734l-.52.191v.78a2.167,2.167,0,0,0-.693,1.734,10.94,10.94,0,0,1-.191,1.214l-.5.329c.087.607.139,1.214.225,1.855-.225.243-.416.468-.607.711a2.323,2.323,0,0,1,0,.607c-.139.139-.225.277-.364.416s.087.329.191.607-.277.555-.468.936v1.959a2.652,2.652,0,0,1-.329.312,5.028,5.028,0,0,0,.191,1.075c.052.277-.381.659-.52.988a2.548,2.548,0,0,1,.468,1.994c.52.416.8-.329,1.266-.225a5.357,5.357,0,0,0,.277.468c-.139.364-.243.832-.416,1.214a1.89,1.89,0,0,0-.433,1.11c-.364.139-.745.243-1.162.381a2.045,2.045,0,0,1,.191.468h.5a.758.758,0,0,1,.1.173,2.566,2.566,0,0,1-.139,1.023,2.063,2.063,0,0,0-.191.745v1.335l-1.162.572v.641c-.191.243-.329.468-.52.745a5.565,5.565,0,0,0,.468.711,4.045,4.045,0,0,1-.191.416h-.5l-.329.329a2.618,2.618,0,0,1-.225-.433,6.3,6.3,0,0,1,.173-.78c.035-.277-.329-.243-.5-.329v-2.358h.277v-.8c.329-.225.555-.468.8-.659h.451c.156-.416.8-.173.936-.745a1.144,1.144,0,0,1-.5-.139c-.139,0-.191-.277-.329-.468a.938.938,0,0,1-.1.52c-.416,0-.5-.416-.78-.555a1.959,1.959,0,0,1,.468-1.543,9.05,9.05,0,0,0,0-.971c-.1-.329.173-.572,0-.884s.243-.52.139-.745.295-.295.1-.52a.485.485,0,0,1,0-.468,1.924,1.924,0,0,1,.139-.52,12.933,12.933,0,0,1,.329-1.63,3.623,3.623,0,0,0,0-.971l.52-.381a3.814,3.814,0,0,1,.139-1.352,6.016,6.016,0,0,0,0-1.248,1.283,1.283,0,0,1,.312-.1s0-.312,0-.364a6.488,6.488,0,0,1-.139-.8,7.436,7.436,0,0,1,.329-.936,3.156,3.156,0,0,0,.191-.693,5.79,5.79,0,0,1,.087-.745c.1-.329.243-.693.381-1.11l.225-.243v-1.491h0s.416-.416.416-.659c0-.745.555-1.266.52-2.011A5.374,5.374,0,0,0,53.6,98.983a6.935,6.935,0,0,1,1.734-1.352,1.526,1.526,0,0,0,.711-.693c0-.191.329-.277.468-.416-.191-.607.416-.555.555-.832s.555-.381.693-.745c-.277-.329-.555-.711-.832-1.075h-.745c0,.139-.191.312-.329.5a4.441,4.441,0,0,1-.416-.191c-.381.1-.277.433-.381.659s-.607.381-.641.381l-.607-.745a3.086,3.086,0,0,0-.191-1.318.433.433,0,0,1,0-.5.572.572,0,0,0-.139-.745,1.214,1.214,0,0,0,.1-1.075,3.988,3.988,0,0,1,0-1.3.212.212,0,0,1,.139-.191,3.745,3.745,0,0,1-.52-1.491,3.138,3.138,0,0,0-.173-.745,5.079,5.079,0,0,1-.191-1.734,7.542,7.542,0,0,0-.087-.832c.225-.329,0-.8.087-1.075-.225-.555-.416-1.023-.659-1.543V80.848c-.277-.139-.555-.295-.971-.468a.9.9,0,0,0-.607-.433,9.362,9.362,0,0,0-.693.85c0,.225.139.364.139.5l-.988.745a2.614,2.614,0,0,0-.087-.832l.555-.555a2.93,2.93,0,0,0-.277-.884h-.329c-.5.78-1.3,1.439-1.907,2.236l-.936-.416c-.191.173-.5.312-.555.607a1.578,1.578,0,0,1-.468.745h-.693c-.191-.381-.8-.381-.936-.9a2.011,2.011,0,0,1-.139-.693,6.224,6.224,0,0,1-.607-.364s-.191.225-.329.416H41.028a1.179,1.179,0,0,1-.745-.745l-.711-.277c.139-.139.191-.277.295-.381s.277.139.451.243l.468-.607c-.225-.277-.468-.659-.693-.936h-.416a5.6,5.6,0,0,1-.243-.884c-.364-.52-.693-.988-1.075-1.491-.451.329-.919.607-1.491.971l-.139-.416a2.564,2.564,0,0,1,.381-.225v-.381h-.381c-.173.243-.416.468-.607.745.243.381.243.381-.139.693-.173-.225-.416-.416-.693-.745v-1.11a5.2,5.2,0,0,0-.364-1.63c-.1-.329-.468-.555-.8-.884l-.381.277.139.139c-.139.364,0,.745-.312,1.11a1.092,1.092,0,0,0-.191,1.266c.191.381,0,.832.364,1.214v2.9c0,.277-.087.555.139.78a.364.364,0,0,1,0,.329c-.277.243-.087.555-.225.8s-.139.225-.139.329-.191,0-.243-.1-.225-.555-.364-.832a.364.364,0,0,1,0-.329c.277-.329.087-.745.139-1.11a.694.694,0,0,0,0-.329c-.364-.416-.225-.936-.277-1.4a2.878,2.878,0,0,1-.329-.607c-.087-.8-.139-1.63-.225-2.514-.139-.139-.381-.381-.555-.52a1.335,1.335,0,0,1,.277-1.248,2.063,2.063,0,0,0-.277-1.3c-.1,0,0-.312-.1-.451a6.936,6.936,0,0,1,.52-.745c-.191-.381-.329-.711-.468-.988a2.08,2.08,0,0,1,.8-1.162A11.633,11.633,0,0,1,35.064,70c.329-.139.555,0,.8.329h.416l.191.087a1.6,1.6,0,0,0,1.023.607c.277,0,.416.468.78.329.1.381.468.381.711.52a3.745,3.745,0,0,1,.641.641,2.046,2.046,0,0,0,1.734.85,4.49,4.49,0,0,1,.884,2.427l.607.416.191-.191a6.309,6.309,0,0,0-.139-.884c-.1-.659.139-1.3-.191-1.959h0c.416-.607,0-1.127-.191-1.734h0c.191-.329.329-.659.52-.988a.884.884,0,0,0,.763,0c.329-.277.555,0,.832,0s.139-.173.277-.312-.139-.433-.225-.607l-.745-.295c.225-.364.364-.641.607-.971l-.52-.745v-.537l-.693-.555,1.023-.277c.087-.243.139-.572.225-.8s-.277-.277-.364-.416v-.191c.364-.52,0-1.127.364-1.63-.225-.139-.451-.329-.745-.52a13.4,13.4,0,0,1,.243-1.734.78.78,0,0,0-.85.087,3.2,3.2,0,0,1-.641-.225v.832a3.468,3.468,0,0,1,.971,1.075c-.139.139-.329.381-.555.607.139.468.329,1.023.52,1.63-.1.087-.243.277-.433.468l-.641-.243a3.745,3.745,0,0,1-.243.572l-.173-.191v.607h.693l.225.225c-.277.607-.641,0-1.058.1C42.069,66.562,41.722,66.649,41.774,67.065Zm25.4-8.894h0v.936l.139.139c.139.139.225-.243.364-.329a1.56,1.56,0,0,0-.607-.693c0-.572.139-1.075.191-1.734a1.37,1.37,0,0,1-.884-.277c-.555-.364-1.162-.693-1.872-1.11a5.427,5.427,0,0,0,.156.693,2.514,2.514,0,0,1,0,.8,1.491,1.491,0,0,0,.52,1.734,14.234,14.234,0,0,1,1.994-.156ZM37.7,50.11l-.832-.329a2.254,2.254,0,0,1-.468.139,8.46,8.46,0,0,1-2.375-.555c-.555-.277-1.11-.52-1.63,0a.155.155,0,0,1-.087.139c-.087.035.225.381.312.607l-.173.191.277.555a3.467,3.467,0,0,0,1.023,0,2.739,2.739,0,0,1,.971-.139,1.734,1.734,0,0,0,2.1.243,8.339,8.339,0,0,0,.9-.884c.225,0,.416.277.693,0s.659.1.8-.416v-.225l-.243-.243a1.092,1.092,0,0,0-.225.191,5.669,5.669,0,0,0-1.4-.364,2.15,2.15,0,0,1,.693.139c.277.173.433-.277.711-.139.173-.295.5-.1.693-.295a1.7,1.7,0,0,1,.416-.312c-.191-.433-.641-.52-.884-.884H37.89a1.214,1.214,0,0,1-1.023-.433,3.835,3.835,0,0,0-.087-.919l-.381.451h-.936l-1.3-1.023c-.416.139-.832.433-1.214,0-.139.139-.225.277-.277.329.191.416.277.745.416,1.075s.607.416.936.607h.243a2.219,2.219,0,0,1,1.387.693h1.214c.156.191.329.364,1.543.832,0,.1-.087.243-.191.243a.919.919,0,0,0-.451.728Zm6.519,1.214h0a.277.277,0,0,0-.087-.191h0l.139.139v.693a2.08,2.08,0,0,0,.745-.225,5.531,5.531,0,0,1,.693,1.734,1.6,1.6,0,0,1-.139.433,2.653,2.653,0,0,0-.5-.243l-.936,1.352a1.127,1.127,0,0,0,.416,0l.468-.225a1.266,1.266,0,0,0,1.075.555,3.1,3.1,0,0,0,1.63,1.023l.191-.139.416.191a2.635,2.635,0,0,0,0,.329c.555.5,1.11.971,1.63,1.491h.78c.1.225.191.468.295.745.277-.988.312-.988,1.11-1.456.277.277.693.1.971.191a3.19,3.19,0,0,0,1.127.139l.555-.364v-.659H52.471a1.37,1.37,0,0,1-.971-.277,7.8,7.8,0,0,0-.85.416c-.364-.191-.78-.225-1.023-.468a2.1,2.1,0,0,0-1.162-.468,11.494,11.494,0,0,0-1.162-.225v-.659h-.728L46,54.6v-.607a.919.919,0,0,1,.9.329,2.271,2.271,0,0,0,.277.641l1.023-.173c.364.364.971.277,1.023.919l.659-.225c.225.139.451.225.641.329s.191-.139.243-.191c.416.139.832.243,1.214.329l.78-.555h1.179l.277-.381a9.016,9.016,0,0,1-.884-.659,7.467,7.467,0,0,0-1.352.191.641.641,0,0,1-.659,0,.884.884,0,0,0-.607-.1H49.558a3.093,3.093,0,0,0-.191-.416,1.006,1.006,0,0,1-1.127.087c-.451-.087-.555-.5-.919-.693h-.277c-.139-.191-.139-.52-.572-.52s-.416-.277-.364-.607a3.467,3.467,0,0,1,.641-.173,1.335,1.335,0,0,1,.711.277c.225.191.468-.277.693,0a9.779,9.779,0,0,0,1.6.191.954.954,0,0,1,.312,0c.329.243.607.1.884,0a4.352,4.352,0,0,0,2.618.451s.139-.173.225-.277-.225-.468-.364-.693a1.734,1.734,0,0,1-.191-.8,9.6,9.6,0,0,1-1.162.1c-.329,0-.8.173-1.023-.277.225-.191.468-.433.693-.659-.555-.139-.416-.8-.8-1.075a12.483,12.483,0,0,0-1.439.555,1.04,1.04,0,0,1-1.214-.225,4.682,4.682,0,0,1-.468-.52c.329-.225.468-.607.884-.641h0a2.618,2.618,0,0,1,.139-.607c-.364-.243-.416-.243-.555-.139A4.248,4.248,0,0,1,46,48.393a7.49,7.49,0,0,1-.312-.711H45.4l.1-.087-.381-.243v.329h.416a2.531,2.531,0,0,1,.139.468l-1.162.711h-.745l-.381.364.433.191a1.167,1.167,0,0,1,.641.139,6.414,6.414,0,0,0,1.214.277,6.294,6.294,0,0,0,1.266.139h1.023c0,.555.555.468.884.693.745-.555,1.214.329,1.872.381v.329a9,9,0,0,1-1.924-.139,8.409,8.409,0,0,0-1.491,0c-.468,0-.971-.139-1.439-.139a3.9,3.9,0,0,1-1.578.277Zm-5.2-14.684c.225-.139.641,0,.693-.52a1.924,1.924,0,0,1-.693-1.075,6.6,6.6,0,0,0,1.075-.5,2.618,2.618,0,0,1,1.734-.381,2.747,2.747,0,0,1,.745.191,8.392,8.392,0,0,0,.555.659H43.8a4.785,4.785,0,0,0,1.075.451,1.526,1.526,0,0,1,.971.468.26.26,0,0,0,.191,0,4.958,4.958,0,0,0,.329-.52,9.242,9.242,0,0,0,1.162.329c.416.1.8.381,1.162,0a3.3,3.3,0,0,1,.607.329,4.628,4.628,0,0,0,.607-.381c.1-.555.139-1.075.243-1.439-.277-.277-.468-.52-.711-.745H49c-.277-.191-.225-.693-.641-.659-.243-.468-.711-.884-.572-1.439a1.976,1.976,0,0,0,0-1.023,14.806,14.806,0,0,1,1.058-1.959c-.225-.191-.416-.329-.451-.381-.243-.693-.381-1.214-.52-1.734a.8.8,0,0,0,.139-.277,3.64,3.64,0,0,0-.52-.416,3.207,3.207,0,0,0-1.023-.329c-.364,0-.607-.416-.971-.416a8.946,8.946,0,0,1-1.734-.607.676.676,0,0,1-.277.173,4.178,4.178,0,0,0-1.907-.5,19.4,19.4,0,0,1-2.288.191,1.335,1.335,0,0,0-.693.277,2.271,2.271,0,0,1-1.023.364,1.144,1.144,0,0,0-.884.416c-.139.243-.277.52-.433.85v.364c0,.1-.225.191-.312.277v.659l-.433.416h-.381c-.277.381-.555.745-.884,1.127a1.89,1.89,0,0,0,.364,1.214,1.144,1.144,0,0,1,.139,1.387c.243.52.52.988.711,1.4l.971.693a5.322,5.322,0,0,0,1.37,2.2c.1.087.243.225.329.225.381,0,.52.295.693.468s-.087.607.329.711a1.213,1.213,0,0,1-.087-.537Zm.5,22.781-.641.85a4.976,4.976,0,0,0-1.162.416.8.8,0,0,1-.85,0,3.364,3.364,0,0,0-.884-.243.867.867,0,0,0-.225.191l-.52-.277v-.312c-.329-.5-.607-.971-.884-1.352a4.093,4.093,0,0,0,.277-.364c.243,0,.381.191.52.225l.416.745c.607.191.607-.312.832-.555a.832.832,0,0,0,.277-.936c-.277.329-.468,0-.745,0a1.838,1.838,0,0,1-.919,0,2.306,2.306,0,0,1-.711-.364,7.489,7.489,0,0,1-.607.8,4.889,4.889,0,0,1-.971-1.734A.5.5,0,0,1,33,55.814a3.571,3.571,0,0,1,.745,0,2.254,2.254,0,0,0,1.023.139c.329.416.693-.087,1.023,0l.381.139,1.734-.555c.139.277.225.52.416.936.087-.329.139-.416.191-.659s.277-.225.5-.468c.416.468.85.139,1.214,0,.277-.381.607-.693.884-1.075-.277-.468-.832-.329-1.248-.555-.191.329-.433.641-.659.971H38.081a10.018,10.018,0,0,0-.832-.745c.329-.277.693-.5.971-.745a4.648,4.648,0,0,0,.607.191c.191-.191.329-.416.468-.555h.884l.433-.381c.277.191.416.555.832.329v-.693c-.139-.191-.277-.381-.416-.607a4.579,4.579,0,0,0-.468.173,9.015,9.015,0,0,1-1.4.52,1.045,1.045,0,0,0-.277-.087.364.364,0,0,0-.225,0,3.467,3.467,0,0,0-.381.555l-.364-.364-.381.364a4.457,4.457,0,0,1-.832,0c-.277,0-.52.277-.745,0l-.745.381c-.329-.468-.85-.416-1.266-.607,0-.607-.832-.277-.884-.745H32.5c-.1-.1-.139-.191-.243-.243a2.463,2.463,0,0,1-.277-.087,1.578,1.578,0,0,1-1.075-.884c0-.139-.173-.191-.225-.277l-.693.225h0L29,51.375c.191.381.156.936.607,1.266a3.883,3.883,0,0,0,1.82.832c.139-.225.243-.468.381-.745l.693.416V53.8l.191.52c.243-.381.416-.416.711-.277a.763.763,0,0,0,.607,0,2.237,2.237,0,0,1,1.11-.139c.087,0,.225-.139.329-.191.416.555.832-.225,1.248.1s.191.451.156.745l-.8.555c-.381,0-.8.139-1.214-.191-.191,0-.381.225-.607.329-.555-.52-1.266-.243-1.872-.329-.364-.416-.5-1.075-1.162-1.4v.52a4.085,4.085,0,0,0,.468,1.162,4.2,4.2,0,0,1,.191,1.734c.139.139.329.277.416.381a6.83,6.83,0,0,1,.191.971c.381.329.659.572.884.8a2.235,2.235,0,0,1,.381,1.127,11.41,11.41,0,0,1,.139,1.248c.364.555,1.075.745,1.63,1.075a15.432,15.432,0,0,0,1.734-.607h.745a1.959,1.959,0,0,0,1.075-.988h.607l.971-.971c0-.277.087-.607-.381-.711a2.045,2.045,0,0,0-.676.156ZM55.938,81.282c-.451-.416-.277-1.058-.5-1.526v-.243a.988.988,0,0,0,0-.919,3.26,3.26,0,0,1-.139-.9v-.832c-.191-.191-.381-.416-.555-.555h-.433v.329l-1.214,1.214a4.334,4.334,0,0,0,.191,1.734,1.89,1.89,0,0,1,.191,1.023,3.138,3.138,0,0,0,.277,1.734.312.312,0,0,1,0,.225c-.1.8.277,1.543.191,2.288a1.422,1.422,0,0,1,.5,1.023,6.935,6.935,0,0,1,.277.988c0,.5.416,1.023.1,1.63a1.04,1.04,0,0,0,.139,1.023.919.919,0,0,1,0,1.127l.971,2.115h.329l.451-.607v-.9c0-.329-.139-.659.156-.936-.295-.329-.1-.659-.156-1.023a2.61,2.61,0,0,1,0-.659,1.335,1.335,0,0,0,.1-1.266,5.409,5.409,0,0,1-.139-1.352,1.144,1.144,0,0,1-.381-.277,21.965,21.965,0,0,0-.139-3.017l-.364-.139C55.713,81.992,55.574,81.611,55.938,81.282Zm-9.83-23.8V57.7a7.231,7.231,0,0,1-.433.8l.52-.139c.225.173.745.173.5.693a.441.441,0,0,0-.451.555,1.352,1.352,0,0,0,.78-.5c.243.277.416.555.659.884l.659-.8.884.277c.087.416.5.381.745.555a1.734,1.734,0,0,0,.468.243v.607a4.662,4.662,0,0,0-.607.364c-.433-.173-.433-.173-.711,0s-.641-.659-1.248-.329l.607.884L48.8,61.6a8.668,8.668,0,0,0,1.942,1.04,5.011,5.011,0,0,0,.329.468h.745c0,.139.173.225.277.364l-.381.295h-.884l-.225.364c-.711-.139-1.127-.832-1.734-.693a1.994,1.994,0,0,1-.468-.468V62.7a7.055,7.055,0,0,1-.8-.711l-.641-.641v-.988c-.52.468-.884,0-1.352-.139a3.127,3.127,0,0,0,.191.745c-.243.1-.433.139-.659.243s0,.607,0,.832h.225a6.293,6.293,0,0,0,.277-.8c.243.243.381.572.607.659.555.225.8.693,1.214,1.075s1.075.641,1.266,1.3h0c.433.087.607.468.936.745.416,0,.936-.1,1.3.329h1.075c.572-.295,1.075-.52,1.63-.745-.555-.468.1-.936-.139-1.4l-1.058-.364v-.416c.277-.156.607-.295,1.075-.52,0,0,.277-.225.468-.416s-.156-.139-.156-.191a.434.434,0,0,1,0-.225,2.133,2.133,0,0,0-1.266.225v.416c0,.139-.416,0-.693-.087s-.468.087-.693.139c-.1-.243-.191-.381-.277-.607a5.53,5.53,0,0,1,.745-.555l.277.173.555-.555c.468.1.884.139,1.3.243a.27.27,0,0,0,.191-.1c.087-.1.191-.329.329-.555a10.28,10.28,0,0,1-.693-.884l-.936.225-.277.277-2.236-.225-.711-.468h-.607c-.312-.277-.641-.5-.919-.8s-.745-.225-.884-.641c-.381-.1-.711-.139-1.075-.243v.329C45.779,57.478,45.917,57.478,46.108,57.478ZM22.1,40.4a3.779,3.779,0,0,1-.745-.087c-.555-.277-1.3-.329-1.734-.884,0,0-.1-.087-.139,0-.52,0-.8-.364-1.127-.693h-.693c-.243-.225-.416-.468-.607-.607L15.2,37.506c-.139.139-.225.277-.329.381.468.416.884.78,1.352,1.162.711-.1.607.641.988,1.023.191-.225.364-.277.607-.087.555.451,1.3.607,1.734,1.248a.312.312,0,0,0,.225,0c0,.277-.087.659.295.8a1.491,1.491,0,0,1,.139-.381c.5.087,1.023.139,1.491.243s.416.416.693.5a3.138,3.138,0,0,1,1.023.693,7.854,7.854,0,0,0,1.352.936,8.355,8.355,0,0,1,1.162.745,3.329,3.329,0,0,1,.607.8,4.248,4.248,0,0,0,2.288.225c-.225-.607-.832-.919-.693-1.63-.468-.329-.884-.607-1.318-.936a8.325,8.325,0,0,0-.78-.451,2.184,2.184,0,0,0-.884-.468,1.526,1.526,0,0,1-.884-.329c-.243-.277-.572-.243-.85-.416A6.467,6.467,0,0,1,22.1,40.4Zm15.6,31c-.641,0-1.075-.451-1.63-.5-.225,0-.416-.329-.555-.416-.607-.1-1.075-.139-1.6-.243v.381l.52.641c.191.191.364.433.607.468a1.04,1.04,0,0,1,.659.572,2.306,2.306,0,0,0,.745.832l1.11.971a1.144,1.144,0,0,1,.416.936l-.468.329a2.466,2.466,0,0,1-.225.555h.52a5.877,5.877,0,0,1,.364-.5c.381.225.659.607.988.641a.659.659,0,0,1,.641.572c0,.416.329.607.555.884l.381.364a3.051,3.051,0,0,0,1.3.884c.243-.555-.087-1.11-.191-1.63a6.36,6.36,0,0,0-.416-1.075,2.687,2.687,0,0,0-.5-1.023c-.191-.277-.52-.468-.52-.884a.329.329,0,0,0-.069-.243h-.52a3.779,3.779,0,0,1-.468-.416v-.745h-.381a15.754,15.754,0,0,1-1.3-1.352Zm46.636-6.155h-.1a1.387,1.387,0,0,0-.225.364,18.377,18.377,0,0,0-.711,3.918,2.5,2.5,0,0,1-.139.85,3.086,3.086,0,0,0-.173,1.439v.364a1.732,1.732,0,0,1-.139.711,3.277,3.277,0,0,0-.139.693,1.925,1.925,0,0,0,.139.52c-.416.78,0,1.439.364,2.184v.936c.277.191.572.364.8.555s.52-.277.693-.468V75.283s.1-.1.1-.139a.4.4,0,0,0-.191-.191,1.37,1.37,0,0,0,0-1.456c.277-.277.191-.589.139-.919a2.739,2.739,0,0,1,.468-1.734,2.877,2.877,0,0,0,.225-.607l-.745-.745s.1,0,.1-.087c-.243-.659-.468-1.3-.745-1.959a2.41,2.41,0,0,0,.087-1.578A.953.953,0,0,0,84.336,65.245ZM56.822,51.93c.659,0,.988.416,1.4.832.139.139.191.329.329.468a.971.971,0,0,0,.468.225,2.062,2.062,0,0,0,0,.468c.52.139.936.329,1.3.416s.607.659.884.988h.277L62.7,56.3h.884c.572-.641-.173-1.3,0-1.959l-1.959-.78a1.023,1.023,0,0,0-.191-.468c-.173-.277-.451-.329-.693-.468a5.288,5.288,0,0,1-1.11-.884c-.329-.277-.243-.693-.659-1.023h-.8a5.027,5.027,0,0,0-.277-.659l-.329.225a3.173,3.173,0,0,0-2.1-.312A12.467,12.467,0,0,1,56.822,51.93ZM77,58.865l.988.451h.832V58.57c.381-.312.572-.693.416-1.058a1.335,1.335,0,0,0-.173-.433,3.069,3.069,0,0,0-.468.433c-.468.139-.745-.243-1.162-.329-.295.364-.572,0-.85,0l-1.023-.139-.555.572a3.1,3.1,0,0,0-.607.173l-.139-.139a3.017,3.017,0,0,1-.468.659h-.52l-.468-.468a6.935,6.935,0,0,1-.8.52c-.225-.1-.468-.139-.641-.243a3.779,3.779,0,0,0-.468.416.867.867,0,0,0-.884-.173,5.2,5.2,0,0,0-.85.225c0,.139-.173.329-.277.52a2.93,2.93,0,0,0,2.653.468c.295-.295.468,0,.711,0l.8-.156c.364-.173.589-.416.884-.451a3.918,3.918,0,0,1,1.734,0c.5.277.832,0,1.335-.139Zm-28.8-18.5c.139-.191.191-.329.329-.381A1.733,1.733,0,0,1,49,39.846a.936.936,0,0,0-.156-.693,2.254,2.254,0,0,1-.173-.85c.329-.277.087-.589.139-.832a.693.693,0,0,0-.8-.225,3.33,3.33,0,0,0-.087.5c-.381-.139-.607-.555-1.075-.329l-.416.433a2.132,2.132,0,0,0-.659.173,1.422,1.422,0,0,1-1.266-.312,2.392,2.392,0,0,1-.451-.8c-.572,0-.711.191-.8.832l-.607.416c.087.433.139.85.225,1.266l.572.329a4.49,4.49,0,0,1,2.375.641c.173,0,.5.156.745-.139C47.044,40.314,47.547,39.846,48.206,40.366ZM39.121,62.7h-.85l-.277.329h-.832a3.8,3.8,0,0,1-.52.277,1.006,1.006,0,0,1-.329,0c-.277,0-.364.139-.468.433l.572.451-.243.329s0-.087.139-.087,0,.329.139.607c.139-.468,0-.85.468-1.023s1.266.139,1.907.225V64.9a4.246,4.246,0,0,0-.641-.191c-.191.191-.381.329-.468.416v.607c.416.1.832.139,1.11.191.468-.243.8-.381,1.075-.555l.191.173c.416-.173.659-.468.607-.832-.468-.607-.936-.191-1.4-.139,0-.139-.139-.277-.225-.416s.225-.381.329-.607h1.3c-.087-.745.555-.8.936-1.023a3.312,3.312,0,0,1,.225-.433c-.139-.173-.277-.416-.468-.641-.225.139-.468.225-.5.364s-.52,0-.572.329C39.867,62.09,39.572,62.454,39.121,62.7Zm13.089,14.58c.381-.5.693-.971,1.023-1.491a1.855,1.855,0,0,0,.555-.277c.191-.139.329-.364.572-.52a.607.607,0,0,0,.416-.451l1.162.225.243-.225V73.6l-.243.139a1.734,1.734,0,0,0,0-.468,4.82,4.82,0,0,0-.329.607h-.416v-.745h0a2.2,2.2,0,0,1-.277-.433c-1.127-.173-1.491.572-1.872,1.266a2.166,2.166,0,0,1-.555.139.659.659,0,0,1-.277-.139c-.329.225-.433.52-.243.8a.728.728,0,0,1,0,.745,2.549,2.549,0,0,0-.191.832,6.651,6.651,0,0,0,.191.8.555.555,0,0,0,.243.139ZM81.944,58.639c.416.139.8-.139,1.075.191a.26.26,0,0,0,.225,0c.381-.295.85-.1,1.214-.191.243.191.416.364.607.5.745-.277.555-1.058,1.023-1.439v-.659l-.087.1c0-.191-.225-.381-.277-.52h-.468c-.329.381-.659.693-.884.988a6.24,6.24,0,0,0-.988,0,10.712,10.712,0,0,0-1.734.607.953.953,0,0,0,.295.416ZM39.1,57.374H38.081c.1.659-.78.277-.832.884a4.421,4.421,0,0,0,.277.8c.243-.225.416-.468.659-.693a2.184,2.184,0,0,1,1.734-.711,6.277,6.277,0,0,0,.988,0c.555-.277,0-.919.416-1.248-.416-.329-.555-.329-.988,0s-.9.641-1.318.971ZM13.1,35.183c-.381.329-.607.572-.936.85.139.364.329.78.468,1.162l.693-.468h.85a5.791,5.791,0,0,0,.156.78c.156-.277.295-.451.433-.745l-.607-.173c-.1-.381-.191-.8-.277-1.179a5.479,5.479,0,0,1-.867-.225ZM43.8,58.119l.936-.468a1.526,1.526,0,0,1,.416-1.352c.087-.087,0-.277.087-.5l-1.11.225a3.121,3.121,0,0,0-.329-.364c-.243.364-.659,0-.936.277V56.3a4.681,4.681,0,0,1,.364.572h.607v.468l-.364.1ZM43.2,78.681c.329.693.641,1.3.936,1.907h.277l.641-.832c-.087-.243-.173-.416-.225-.572-.468-.277-.988-.225-1.162-.693s.468-.745-.1-1.023l-.225.225c.017.295.295.711-.069.988ZM53.684,48.705c.225-.555.78-.693.971-1.162a1.734,1.734,0,0,0-1.63-.607c-.295.5-.555.468.728,1.768ZM31.372,45.637a5.125,5.125,0,0,0-.225-1.04l-.329-.312a6.414,6.414,0,0,0-.745.555,1.318,1.318,0,0,0,.693,1.491,8.269,8.269,0,0,1,.607-.693Zm42.7,10.94H72.114c-.139.191-.225.416-.416.693.277-.087.364-.191.555-.225.555.416,1.4-.139,2.011.555v-.832ZM47.27,78.768c.312.243.468.607.919.711,0-.659-.416-1.04-.5-1.491l-1.127-.381a1.058,1.058,0,0,1-.225.277l.555.85a1.56,1.56,0,0,0,.381.035Zm-5.548-26.8c.329,0,.329.468.745.329,0-.329-.329-.607-.139-.936s.416-.225.607-.277c.087-.745-.659-.468-.936-.832C41.913,50.8,41.809,51.375,41.722,51.965Zm1.734-10.211-1.387-.78c-.433.243-.381.52-.295.884s.607.329.9.468a5.808,5.808,0,0,1,.78-.572Zm-1.6,2.566c.555-.277.329-.884.745-1.11a2.6,2.6,0,0,1-.364-.416h-.607v1.214A1.613,1.613,0,0,1,41.861,44.319Zm.52,11.148c.364-.277.78,0,1.11-.243l.52-.173a5.687,5.687,0,0,0-2.34-.208A4.681,4.681,0,0,0,42.381,55.467ZM45.12,75.04c-.225-.225-.468-.416-.693-.607-.087.1-.191.139-.277.243v.693c.329,0,.607.416.971.139ZM42.745,53.924c-.329-.329-.5-.555-.693-.745-.468,0-.607.243-.85.52l.52.364ZM44.7,58.31c-.329.312-.607.468-.555.832l.555.555c.191,0,.329-.225.52-.329A6.657,6.657,0,0,1,44.7,58.31Zm.555,14.962a4.161,4.161,0,0,1-.416-.381h-.693c-.139.416.191.607.364.8h.745Zm4.906,45.076a7.438,7.438,0,0,0-.659-.572h0c-.1.329-.139.659-.243.988h.988ZM46.7,79.426l-.277-.884c-.329,0-.572,0-.659.312l.468.936a1.734,1.734,0,0,0,.485-.312ZM41.757,36.084v-.607a.155.155,0,0,1-.139-.087l-.52.277c0,.277-.364.468-.087.745.243-.052.52.087.763-.347Zm8.131,40.777c.555-.277.416-.693.451-1.11l-.832.451a2.912,2.912,0,0,1,.381.659Zm-10.4-30.114c.139.277.277.416.5.381s.381-.277.329-.607-.225-.191-.364-.329a4.941,4.941,0,0,1-.555.555Zm9.449,30.946a7.36,7.36,0,0,0,.156,1.127h.5s.087,0,.139-.139a3.849,3.849,0,0,0-.884-.988Zm-15.6-33.6c-.173.364,0,.659.191.971s.139,0,.277,0a4.022,4.022,0,0,1-.087-.659.665.665,0,0,1,.087-.312,1.734,1.734,0,0,0-.52,0Zm-1.387,4.612c.191,0,.364.191.607.277.087-.191.173-.329.225-.468-.277-.087-.468-.173-.693-.225s-.1,0-.139,0Zm9.414-.139c-.1.225-.139.416-.243.659a5.531,5.531,0,0,1,.711.277v-.468Zm28.987,8.01c-.191.191-.329.381-.607.693h.607l.555.139a3.762,3.762,0,0,0-.555-.832ZM53.424,66.458c.416.156.607.1.693,0s-.139-.329-.173-.52A6.674,6.674,0,0,0,53.424,66.458ZM41.913,46.417a.485.485,0,0,0-.139-.607.815.815,0,0,0-.277,0,6.279,6.279,0,0,1,.173.641Zm42.7,16.921c-.329,0-.381.277-.659.468C84.613,63.858,84.648,63.806,84.613,63.338ZM47.651,124.451a.812.812,0,0,0-.191.243,1.04,1.04,0,0,0,.191.225,4.262,4.262,0,0,0,.555-.191C47.876,124.589,47.79,124.5,47.651,124.451ZM42.069,39.812v-.191h-.52a4.663,4.663,0,0,1,.087.555C41.913,39.985,42.069,39.9,42.069,39.812Zm-13.28,7.212a1.91,1.91,0,0,0,.087.711,3.693,3.693,0,0,0,.468-.381ZM85.9,60.893c0,.364.173.555.555.416.017-.295-.069-.485-.485-.433ZM49.281,74.988a1.092,1.092,0,0,0,.087.433h.659a.121.121,0,0,1,0-.1,4.733,4.733,0,0,1-.745-.329ZM33.573,72.18h-.52a1.508,1.508,0,0,1,.1.277,3.97,3.97,0,0,0,.416-.277Zm-3.311-23.89c-.139-.191.139-.52-.381-.468v.468ZM42.4,59.524v.52a.918.918,0,0,1,.277,0v-.468ZM30.5,48.705v.607l.381-.139a2.41,2.41,0,0,0-.312-.468Zm12.413-5.2c.173-.243.277-.329.416-.52h-.416Zm-2.566,5.08c0-.381-.139-.381-.329-.243s0,.139,0,.243Zm-2.08,10.94c0,.364.139.364.329.225s0-.139,0-.225Zm9.691-12.136c0-.364-.139-.364-.312-.225s0,.139,0,.225ZM31.84,43.92h-.173v.416h.087ZM44.288,48.2c.139,0,.225-.139.52-.277h-.52Zm-.8,28.571v.139h.277v-.1ZM42.277,62.28h.139V62h-.1ZM35.134,33.414H35v.277h.139Zm14.528,88.748h-.087v.295h.087ZM42.727,37v-.139H42.45v.087Zm-30.34.381H12.3v.329h.087ZM46.42,47.076v-.139h-.277v.087Zm9.917,29.317Zm-13.176-35.8h0V40.4h0Zm-1.734-2.132Zm4.109,25.867ZM29.274,48.376ZM55,56.68h0v-.1h0Zm-5.773-7.507Zm-8.894.607h0v.191h0ZM37.526,24h0v.191h0ZM40.04,50.474h0v.191h0Zm0,3.173h0v-.191h0ZM55.089,92.516h0v-.173h0Z" transform="translate(0 2.979)" fill="#774234"/>
    <path id="Trazado_26195" data-name="Trazado 26195" d="M28.339,91.246V89.512a4.367,4.367,0,0,1-.468-.312,3.174,3.174,0,0,0-.191-.607c.329-.52.087-.988-.381-1.4a2.7,2.7,0,0,0-.139-1.023,1.855,1.855,0,0,1,0-1.63c0-.1,0-.277,0-.381l-.5-.5a4.074,4.074,0,0,1,0-.8,1.3,1.3,0,0,0-.191-.832,1.734,1.734,0,0,1-.087-1.266c0-.191.139-.381.087-.555a2.531,2.531,0,0,1,0-1.734,2.791,2.791,0,0,0,0-.849c0-.277-.087-.555.139-.78s0-.243,0-.329-.468-.693,0-1.023V74.273a1.734,1.734,0,0,1-.329-1.318,4.906,4.906,0,0,1-.659-1.352A2.341,2.341,0,0,0,26,71.187l-.052-.381a2.288,2.288,0,0,1-.607-1.734c0-.329-.225-.607-.173-.936s-.1-.693.173-1.023a.364.364,0,0,0,0-.329,9.4,9.4,0,0,0-.884-3.467,3.918,3.918,0,0,1-.607-2.236,7.16,7.16,0,0,1-.139-1.352c0-.1,0-.139,0-.277.416,0,.52.416.8.555a3.467,3.467,0,0,0,.225,1.3,3.623,3.623,0,0,1,.139,1.3l.243.243c.139-.1.225-.243.329-.329h.5l.277.277c0,.139-.139.277-.173.416a4.345,4.345,0,0,0,.173,1.075A12.019,12.019,0,0,0,26.5,65.5a6.761,6.761,0,0,1,.191,1.734c0,.416.139.832.191,1.352.139,0,.329.277.468.364v.433l-.329.139v.971c.139.243.329.468.52.745a1.166,1.166,0,0,1-.156,1.162,3.815,3.815,0,0,0,.52.329,1.37,1.37,0,0,0,.191,1.734l-.884,1.3c.277.555.277.555-.139,1.266a8.668,8.668,0,0,1,.139,4.178H27.3a.416.416,0,0,0,.243,0,3.559,3.559,0,0,0,.225.919,3.311,3.311,0,0,1,0,2.236c.191.295.433.607.659.988a7.468,7.468,0,0,1,.225,2.011,1.734,1.734,0,0,1,.433,1.2,1.734,1.734,0,0,0,.225.988c.139.225,0,.5.191.832l.364.381c.139.364.277.641.416,1.11v1.474a1.127,1.127,0,0,1,.329.936,3.97,3.97,0,0,0,.468,1.63v-1.3a5.53,5.53,0,0,1,.711-.277v-.416h-.641c.1-.659.139-1.214.191-1.734-.607-.225-.468-.693-.52-1.162a5.027,5.027,0,0,0,.381-.329A13.869,13.869,0,0,0,32,92.65a.988.988,0,0,1,0,.936c.139.277.225.52.364.8s.191.329.139.416a4.247,4.247,0,0,0-.139,1.734s-.087.139-.139.139a.641.641,0,0,0,.659.555v.607c.173.139.329.329.5.468s.191,0,.191-.139v-.884a.855.855,0,0,1-.468-.1,3.467,3.467,0,0,1-.225-1.387,8.666,8.666,0,0,0,.139-.936,1.579,1.579,0,0,1,.191-.936c.191-.277-.243-.468,0-.8s0-.5-.156-.745a5.947,5.947,0,0,1-.277-.971c.191-.381.433-.884.711-1.4a3.345,3.345,0,0,0,.468.329l-.156.416a.659.659,0,0,0,0,.711,1.526,1.526,0,0,1,.243,1.11l-.381.243.381.364c.087.607-.1,1.023.173,1.439a.624.624,0,0,1,0,.433,2.462,2.462,0,0,0-.139,1.11v1.075l.329.329v.693l-.277.277-.329-.173-.225.364c-.329-.139-.52-.277-.85-.416H31.98a2.475,2.475,0,0,0-.225-.693,2.062,2.062,0,0,1,.225-.381,2.847,2.847,0,0,0-.329-.139c-.139-.416,0-.8-.364-.936v.988a9.483,9.483,0,0,1-.8.693l-.329-.329h-.641a1.491,1.491,0,0,1-.607-1.075c.191-.277.5-.468.555-.884s.087-.364,0-.555a.85.85,0,0,1,0-.884,5.755,5.755,0,0,1-.659-.52l.139-.555c-.364-.225,0-.5,0-.832a2.9,2.9,0,0,1,.191-.884ZM26.605,70.078a4.749,4.749,0,0,1-.312.555l.693-.087a3.693,3.693,0,0,0-.433-.468Z" transform="translate(10.921 32.092)" fill="#774234"/>
    <path id="Trazado_26196" data-name="Trazado 26196" d="M27.225,65.04a1.924,1.924,0,0,1,.659,1.491,8.235,8.235,0,0,0,.451,2.34c0,.139.1.277,0,.364a.746.746,0,0,0,0,.8,7.108,7.108,0,0,1,.468,1.491.954.954,0,0,1-.087.936c.659.451,1.491.78,1.734,1.734.139.1.277.139.468.277-.1.711.5,1.266.312,1.959a6.068,6.068,0,0,1,.711,1.959,1.634,1.634,0,0,1-.329.884c-.139.225.139.52.191.745A2.656,2.656,0,0,0,32.08,81.2a.416.416,0,0,1,0,.364c-.329.329-.1.607,0,.849l-.191.173h0a10.94,10.94,0,0,1,.659,2.514,5.1,5.1,0,0,0,.468.988c.139.416-.139.884.225,1.214-.173.277-.312.5,0,.78a1.317,1.317,0,0,0-.139.191,3.987,3.987,0,0,0,.173.607c-.277.139-.364.416-.555.607l-.641-.173-.711-.884c.243-.329.139-.8.607-.971a5.444,5.444,0,0,1-.416-.572c.087-.555.225-1.162.364-1.734a3.156,3.156,0,0,0-.641-.225V83.8l.468-.693c-.607,0-.468-.745-.884-1.023h-.607c-.243.329-.52.745-.85,1.162h-.277s-.087,0-.087-.139a3.675,3.675,0,0,1,.139-1.439.745.745,0,0,1,.364-.468c.1,0,.139-.191.243-.329.5,0,.8.416,1.162.607.139-.277.277-.555.468-.884a4.421,4.421,0,0,1-.693-.468l-.243.191c-.364-.1-.745-.139-1.214-.243a3.866,3.866,0,0,0,.555-.659,1.63,1.63,0,0,0,.329.243.815.815,0,0,0,.1-.329l.087.087V79.1l-.468-.659c-.191.191-.329.277-.5.468a8.5,8.5,0,0,1-1.127-.191c-.087-.225-.191-.364-.225-.5l.832-.85c.416,0,.745-.416,1.127-.745a2.271,2.271,0,0,0-.433-1.734L28.8,74.61c-.087-.139-.277-.416-.468-.659a5.426,5.426,0,0,0,.191-.832l-.468-.468H27.5c.139-.884-.416-1.734-.225-2.7a5.357,5.357,0,0,1-.191-.659,2.774,2.774,0,0,0,0-1.058,5.01,5.01,0,0,1-.295-1.734c0-.451-.312-.78-.416-1.248a2.219,2.219,0,0,1,0-1.214l-.416-1.4c-.139-.468-.191-.936-.329-1.352a5.028,5.028,0,0,1-.416-1.023,2.445,2.445,0,0,1-.087-.607c0-.329.139-.745,0-.971s0-.659-.277-.884,0-.329,0-.468a.78.78,0,0,0,.329-.659c-.329-.416-.988-.8-.468-1.543L24.33,54.9v-.607c.277-.381.745-.607.936-1.162l.745.5a6.259,6.259,0,0,0,.191.884,4.8,4.8,0,0,1-.416.468h-.52a1.456,1.456,0,0,1-.468-.225,1.3,1.3,0,0,0,1.491.745c.191.693-.139,1.491.243,2.1a7.315,7.315,0,0,0-.745.693,1.2,1.2,0,0,0,.225.277,2.445,2.445,0,0,1,.832,2.011c0,.225-.087.52.139.693,0,.8.52,1.595.329,2.375A7.2,7.2,0,0,0,27.225,65.04Zm5.2,22.538a8.55,8.55,0,0,1-.243.832.173.173,0,0,1,.1,0l.416-.8A.867.867,0,0,0,32.426,87.579ZM25.145,54.292c.277-.225.381-.416.243-.693h-.243Z" transform="translate(11.376 27.455)" fill="#774234"/>
    <path id="Trazado_26197" data-name="Trazado 26197" d="M30.055,84.872v-.8c-.139.139-.277.225-.277.329a3.172,3.172,0,0,0,.087.693.607.607,0,0,1-.277.1,3.694,3.694,0,0,0-.52-.468c-.087-.607.52-.988.884-1.4.277.139.572.225.85.381A4.456,4.456,0,0,0,31.078,83c.832,0,1.075.711,1.63.884v.329a3.711,3.711,0,0,1-.468.277V85.1l-.329.243c0,.5.1.971.139,1.387L31.407,87v.8h.919v-.5c.329-.433.988-.52.85-1.266a4.32,4.32,0,0,0,.468-.381,9.69,9.69,0,0,0,.173-1.11c-.087,0-.173-.277-.364-.468a.815.815,0,0,1,.277-.087c.329,0,.416.225.659.416l-.139.139c0,.191.139.416.173.659a2.167,2.167,0,0,0-.416.312,1.873,1.873,0,0,1,.329.295h.745a3.005,3.005,0,0,0-.139-.745c-.052-.225-.087-.52-.139-.8l.659-.52V83.1l.641.277a1.491,1.491,0,0,1-.191.416,8.858,8.858,0,0,0,.381.832l-.607.468.139.139c-.087.329-.225.711-.329,1.075a1.734,1.734,0,0,1,.139.468c-.416,0-.364.468-.641.745h-.277a2.947,2.947,0,0,1-1.734,1.023c-.555.607-1.439.8-2.046,1.352a4.768,4.768,0,0,1-1.734.85,5.634,5.634,0,0,1-1.491.139c-.1-.243-.139-.468-.243-.659h-.78c-.191.139-.329.329-.659.329s-.277.416-.329.78l-.745-.641a9.466,9.466,0,0,0-.971.191,1.179,1.179,0,0,1-.139-.381l-1.023.191-.295-.277-.971-.277v-.9c.329.191.607.381.971.572h1.127c.087-.243,0-.572.416-.659l.381.52c.139-.191.225-.381.364-.572l.52.243.277-.416c.364.416.745.139,1.11.277a.745.745,0,0,1,.139.329l.329-.243a2.774,2.774,0,0,1,.329-.277h.52a2.1,2.1,0,0,1,1.734-1.023c.1-.52.52-.52.884-.745a3.649,3.649,0,0,0-.139-.555c-.052-.225.191-.295.277-.468s0-.468.139-.607a.7.7,0,0,0,.191-.659L30.8,85.1C30.419,85.288,30.228,85.1,30.055,84.872Zm-1.04,4.473c0-.416,0-.416-.312-.659l-.277.416.225.243Zm-2.687.884.139-.139-.295-.381a1.734,1.734,0,0,1-.381.225Z" transform="translate(9.344 49.37)" fill="#774234"/>
    <path id="Trazado_26198" data-name="Trazado 26198" d="M12.994,22.783v-.468c.5-.468,1.248-.225,1.82-.607v-.745a2.115,2.115,0,0,0-1.491.416,1.872,1.872,0,0,1-1.266.433c-1.127.641-1.439.641-1.82,0H9.908l-.416-.4A2.41,2.41,0,0,1,10.1,19.68a5.22,5.22,0,0,0-.139-1.04c.659-.277.416-1.11.971-1.352.243-.451.243-1.11.745-1.387l1.734-.191a.381.381,0,0,1,.173.416.988.988,0,0,0,.468.884c1.075.8.8.659,2.15.659l.364.364a.461.461,0,0,0,.156.433,1.456,1.456,0,0,1,.277.971.884.884,0,0,0,.087.381.746.746,0,0,1,0,.693.329.329,0,0,0-.087.225,1.491,1.491,0,0,1-.936,1.491c-.139,0-.191.329-.416.381v.52l-.572.277-.641-.329A9.242,9.242,0,0,0,12.994,22.783Zm-.243-3.866c-.139-.191-.173-.416-.329-.468a7.68,7.68,0,0,0-1.248-.225v1.058l.8-.364c.087.416.173.884.277,1.439.329-.277.555-.555.832-.78h.763a1.352,1.352,0,0,0,.572-1.214c-.572.173-1.092.364-1.664.555Zm.243,1.491v.364a1.006,1.006,0,0,1,.329,0,.624.624,0,0,1,0-.277.468.468,0,0,0-.329-.087Zm-1.543.971V21.24h-.277v.173Zm-.381.381h0v.191h0Z" transform="translate(0.486)" fill="#774234"/>
    <path id="Trazado_26199" data-name="Trazado 26199" d="M35.1,85.4a.62.62,0,0,0-.173-.381h-.572a.383.383,0,0,1-.139.329,12.917,12.917,0,0,1-1.959-.884,5.985,5.985,0,0,0,.468-.5l.52.139.416-.191a4.4,4.4,0,0,0-.191-.659.468.468,0,0,1,.191-.087c.277,0,.416-.139.52-.416a2.6,2.6,0,0,1,.312-.659v-.52a2.168,2.168,0,0,1,.295-.277l.139.139c.468,0,.173-.5.312-.745a1.889,1.889,0,0,0,.295,0v-.832c.312-.295.555,0,.745,0a18.346,18.346,0,0,1,1.578,1.162,5.2,5.2,0,0,1,.555-.139c.139.243.381.555.572.884s.919.1.971.8c.52-.191.8.191,1.127.416a6.4,6.4,0,0,1,1.2,1.075h.659l.936.659h1.63c.329.225.607.451.971.745-.277.312-.5.641-.745.919a8.894,8.894,0,0,0-2.7.243c0-.139-.225-.277-.451-.607a3.933,3.933,0,0,1,.745.225c0-.087.139-.173.225-.277a.849.849,0,0,0-.329-.745c-.364-.277-.78-.555-1.214-.832a2.982,2.982,0,0,0-.468.416c-.919-.468-1.907-.988-2.843-1.543a5.2,5.2,0,0,1-.5.191c-.139-.139-.277-.225-.416-.381s-.381.156-.659.243c-.191-.381-.416-.693-.607-1.075a2.393,2.393,0,0,0-.225.381c-.52-.1-.936-.139-1.4-.243v.607c0,.087.277.191.555.416h.191l.52.52.277.884.832-.416c.607.329,1.266.641,1.959.971,0,.243-.139.381-.468.381a6.935,6.935,0,0,0-.693-.381c-.243.277-.416.52-.555.711C36.7,85.819,35.953,85.681,35.1,85.4ZM34.271,84a3.119,3.119,0,0,1,0,.329h.1v-.277Z" transform="translate(17.194 46.967)" fill="#774234"/>
    <path id="Trazado_26200" data-name="Trazado 26200" d="M29.157,47c.329.433.607.277.884.1.607.78,1.162,1.023.936,2.323h-2.7a4.525,4.525,0,0,1-.381-.468h-.919c-.329-.277-.659-.5-1.023-.78,1.023-.572,1.058-.433,3.207.139Z" transform="translate(12.564 22.957)" fill="#774234"/>
    <path id="Trazado_26201" data-name="Trazado 26201" d="M35.066,74.941l-1.023,1.023.277.329.225-.243a1.231,1.231,0,0,0-.277-.277l.607.191c-.225.468-.416.884-.641,1.439v.659l-.607.607c-.191-.329-.381-.693-.607-1.127a1.128,1.128,0,0,0,.329-.173,6.344,6.344,0,0,1,.225-1.214,3.838,3.838,0,0,1,.139-1.023c.139-.312,0-.572,0-.85A10.6,10.6,0,0,1,34.13,72.7c.087-.555.468-.659.659-.884H35.2a.139.139,0,0,1,0,.139,2.462,2.462,0,0,1-.139,1.11.815.815,0,0,0,0,.607,6.1,6.1,0,0,1,0,1.266Z" transform="translate(17.752 41.168)" fill="#774234"/>
    <path id="Trazado_26202" data-name="Trazado 26202" d="M36.546,67.476V67.06a1.613,1.613,0,0,0,.468,0c.191.607-.277,1.023-.468,1.491.1.191.243.416.329.607-.191.329-.416.659-.641.988v1.162a4.542,4.542,0,0,0-.52.416v.433l-.329.329v.971c-.277.433-.607.9-.971,1.456a9.69,9.69,0,0,0-.433-1.266,12.414,12.414,0,0,0,.659-1.11,2.289,2.289,0,0,0,0-.745c.139-.329.225-.607.329-.85s.277-.5.5-.919a1.474,1.474,0,0,1,.277-.988,6.231,6.231,0,0,1,.191-1.162,5.2,5.2,0,0,0,.607-.4Z" transform="translate(18.456 37.675)" fill="#774234"/>
    <path id="Trazado_26203" data-name="Trazado 26203" d="M24.348,61.717h-.329l-.225-.225a3.779,3.779,0,0,0-.329-1.872c-.139-.173,0-.555,0-.832s.139-.225.139-.329a1.63,1.63,0,0,0,0-.5l-.5-.52a8.722,8.722,0,0,1,.225-1.4h.225a4.733,4.733,0,0,0,.745,1.647c-.139.832.295,1.734.156,2.514a2.375,2.375,0,0,1,.139,1.352.711.711,0,0,0-.243.173Z" transform="translate(10.473 29.583)" fill="#774234"/>
    <path id="Trazado_26204" data-name="Trazado 26204" d="M30.268,75.506a5.409,5.409,0,0,1,0,1.6,5.929,5.929,0,0,0,0,1.578l-.329.329c-.087-.277-.191-.52-.277-.884a1.6,1.6,0,0,1-.243-.191V77.24c-.087,0-.225-.173-.312-.277v-.468l.693-.971-.555-.555a1.11,1.11,0,0,0-.295.225l-.451-.745.451-.139a1.352,1.352,0,0,0,1.04.191,9.207,9.207,0,0,1,.277,1.006Z" transform="translate(14.435 42.995)" fill="#774234"/>
    <path id="Trazado_26205" data-name="Trazado 26205" d="M26.019,85.8c-.139.5-.52.607-.85.78H24.2l-.191.243c-.364.225-.745-.1-.971.277-.381-.139-.745-.225-1.127-.381.1-.225.191-.364.277-.589.607,0,1.075-.711,1.734-.711.277.1.364.468.693.329.139.225.416,0,.555.191C25.412,85.663,25.689,85.749,26.019,85.8Z" transform="translate(9.6 51.146)" fill="#774234"/>
    <path id="Trazado_26206" data-name="Trazado 26206" d="M27.379,73.89c.173.329.277.468.364.641v.433a7.559,7.559,0,0,0,.381,2.583,7.264,7.264,0,0,1,.277,2.184l-.191.191-.416-.191c-.191-.364-.381-.745,0-1.11A11.424,11.424,0,0,0,27.24,77.5c.191-.329.277-.555.416-.8l-.364-.364A18.325,18.325,0,0,1,27.379,73.89Z" transform="translate(13.511 42.686)" fill="#774234"/>
    <path id="Trazado_26207" data-name="Trazado 26207" d="M27.022,71.937a3.345,3.345,0,0,1,.329-.277,7.229,7.229,0,0,1,.451.641c-.087.711.243,1.491-.364,2.2v.745a3.866,3.866,0,0,1-.468-.243C27.022,73.983,27.022,73.012,27.022,71.937Z" transform="translate(13.313 41.05)" fill="#774234"/>
    <path id="Trazado_26208" data-name="Trazado 26208" d="M32,49.15c.243.243.416.416.659.693v.381c-.139.329-.607.416-.659.832a1.352,1.352,0,0,0-.8.85,2.132,2.132,0,0,1-.173-.555,1.283,1.283,0,0,1,.468-1.075v-.711a2.983,2.983,0,0,0,.5-.416Z" transform="translate(16.291 24.535)" fill="#774234"/>
    <path id="Trazado_26209" data-name="Trazado 26209" d="M32.44,82.327a4.084,4.084,0,0,0,.173.659h-.468c-.225-.225-.468-.468-.745-.8a1.734,1.734,0,0,1,.433,0s.139.1.173.139.329-.312.52-.451,0,0,.087,0A1.11,1.11,0,0,0,32.44,82.327Z" transform="translate(16.563 48.501)" fill="#774234"/>
    <path id="Trazado_26210" data-name="Trazado 26210" d="M29.618,82.156c.8-.225.468.607.936.8l-.381.364h-.225a1.162,1.162,0,0,1-.329-1.162Z" transform="translate(15.225 48.723)" fill="#774234"/>
    <path id="Trazado_26211" data-name="Trazado 26211" d="M10.975,26.985a4,4,0,0,0-.364.329c-.191-.087-.191-.087-.139-.832l.225-.243A7.438,7.438,0,0,1,10.975,26.985Z" transform="translate(1.187 7.726)" fill="#774234"/>
    <path id="Trazado_26212" data-name="Trazado 26212" d="M27.394,71.772h-.277A1.11,1.11,0,0,1,27.5,70.61c.139.277,0,.416-.1.607S27.394,71.581,27.394,71.772Z" transform="translate(13.392 40.28)" fill="#774234"/>
    <path id="Trazado_26213" data-name="Trazado 26213" d="M26.117,55.85c0-.312-.1-.607.225-.78l.243.225v.555Z" transform="translate(12.675 28.878)" fill="#774234"/>
    <path id="Trazado_26214" data-name="Trazado 26214" d="M33.771,80c.139.156.225.243.277.243s-.277.329-.468.607a1.491,1.491,0,0,0-.191-.416A4.608,4.608,0,0,0,33.771,80Z" transform="translate(18.023 47.169)" fill="#774234"/>
    <path id="Trazado_26215" data-name="Trazado 26215" d="M25.35,85.547c.191-.711.191-.711.572-.8C25.783,85.357,25.783,85.357,25.35,85.547Z" transform="translate(12.124 50.654)" fill="#774234"/>
    <path id="Trazado_26216" data-name="Trazado 26216" d="M26.3,65.654V64.77a3.83,3.83,0,0,0,.555.381A5.2,5.2,0,0,1,26.3,65.654Z" transform="translate(12.821 35.995)" fill="#774234"/>
    <path id="Trazado_26217" data-name="Trazado 26217" d="M25.031,85.969H24.65v-.416l.225-.243C25.083,85.5,25.257,85.691,25.031,85.969Z" transform="translate(11.611 51.065)" fill="#774234"/>
    <path id="Trazado_26218" data-name="Trazado 26218" d="M28,81.777a6.415,6.415,0,0,1-.277.693l-.277-.295V81.76Z" transform="translate(13.665 48.461)" fill="#774234"/>
    <path id="Trazado_26219" data-name="Trazado 26219" d="M12.64,28.21h.5v.277h-.468a1.127,1.127,0,0,1-.035-.277Z" transform="translate(2.799 9.171)" fill="#774234"/>
    <ellipse id="Elipse_733" data-name="Elipse 733" cx="0.329" cy="0.191" rx="0.329" ry="0.191" transform="translate(43.352 121.968)" fill="#774234"/>
    <path id="Trazado_26220" data-name="Trazado 26220" d="M26.48,54.377V54.1H27a1.924,1.924,0,0,1-.52.277Z" transform="translate(12.953 28.167)" fill="#774234"/>
    <ellipse id="Elipse_734" data-name="Elipse 734" cx="0.052" cy="0.139" rx="0.052" ry="0.139" transform="translate(40.456 74.344)" fill="#774234"/>
    <ellipse id="Elipse_735" data-name="Elipse 735" cx="0.052" cy="0.139" rx="0.052" ry="0.139" transform="translate(51.188 41.663)" fill="#774234"/>
    <path id="Trazado_26221" data-name="Trazado 26221" d="M28.79,27.709c-.139-.191-.277-.416-.468-.659a9.067,9.067,0,0,1,.243-2.93l1.734.225c.139.243.277.52.416.745a3.467,3.467,0,0,1,.659,1.734,4.281,4.281,0,0,1,.139.745,5.582,5.582,0,0,1,0,.936,4.247,4.247,0,0,0,.468.416h-.988c-.555.468-1.11.832-1.63,1.248a.52.52,0,0,0,0,.243h-.433a20.8,20.8,0,0,0-.191-2.271A1.955,1.955,0,0,1,28.79,27.709Zm1.162-.381v-.5a1.612,1.612,0,0,1-.364.087,1.855,1.855,0,0,1,.364.468Z" transform="translate(14.284 6.17)" fill="#774234"/>
    <path id="Trazado_26222" data-name="Trazado 26222" d="M25.273,26.951c.451-.139.607.329.919.52s.52-.139.85-.243v1.179a2.167,2.167,0,0,0-.416,0,1.179,1.179,0,0,0-.329.329l-.884-.277a1.266,1.266,0,0,0-.381-1.075A4.334,4.334,0,0,1,25.273,26.951Z" transform="translate(11.889 8.229)" fill="#774234"/>
    <path id="Trazado_26223" data-name="Trazado 26223" d="M32.693,28.214a11.945,11.945,0,0,1-3.173.589c.139-.173.191-.277.277-.312a4.334,4.334,0,0,1,.711-.329,2.219,2.219,0,0,1,1.352-.329H32.5a2.011,2.011,0,0,0,.191.381Z" transform="translate(15.184 8.889)" fill="#774234"/>
    <path id="Trazado_26224" data-name="Trazado 26224" d="M28.015,27.736a3.624,3.624,0,0,0-.693.329c-.156-.087-.243-.243-.381-.381.139-.139.225-.277.329-.364a5.08,5.08,0,0,0,.745.225Z" transform="translate(13.291 8.518)" fill="#774234"/>
    <path id="Trazado_26225" data-name="Trazado 26225" d="M32.191,28.76l-.277.277-.433-.745C32.052,28.153,32.087,28.153,32.191,28.76Z" transform="translate(16.622 9.176)" fill="#774234"/>
  </g>
</svg>
