<svg xmlns="http://www.w3.org/2000/svg" width="85.533" height="85.756" viewBox="0 0 85.533 85.756">
  <g id="Calavera_tres-leches" transform="translate(-1.52 -23.132)">
    <path id="Trazado_26226" data-name="Trazado 26226" d="M14.034,27.323c.724-1.645,2.61-1.675,3.787-2.655,1.343.272,2.339-.679,3.455-1.071a6.035,6.035,0,0,1,3.712-.3c1.735.528,3.651.785,5.009,2.308a12.8,12.8,0,0,0,2.339,1.856c.091.966-.453,1.629-.256,2.414.5,1.509,2.324,1.071,3.365,2.233a7.544,7.544,0,0,0,.724,2.459c.739,1.056,0,1.8-.241,2.927l1.72-.981c.181.332.377.739.6,1.207l-.8.166,1.343,2.263c-.211.332-.377.573-.483.724l.483,2.1c-.83.6-1.811.905-1.977,2.022a6.955,6.955,0,0,0-2.127,1.373l1.735.2c.453.075.89.181,1.328.241.091,0,.3-.181.317-.151.981,1.117,2.6,1.343,3.546,2.55A9.717,9.717,0,0,0,44.3,51.509a4.179,4.179,0,0,0,4.406.468,26.192,26.192,0,0,1,6.352-1.811,36.362,36.362,0,0,1,5.552-.422,3.017,3.017,0,0,0,.951-.438,11.373,11.373,0,0,0,1.192.453c.287,0,.739-.121.89,0,1.071,1.056,2.6,1.162,3.832,1.841a7.272,7.272,0,0,0,2.761,1.071c1.433.166,2.127,1.675,3.5,1.946a4.526,4.526,0,0,0,2.339,3.334c.272,1.117.513,2.158.754,3.184l1.509.136c-.377.6-.664,1.056-.981,1.509a5.748,5.748,0,0,1,.8,2.912c-.121,1.086.347,2.218-.287,3.3A3.018,3.018,0,0,0,77.72,70.5a9.052,9.052,0,0,1-.5,4.149,54.908,54.908,0,0,1-2.806,5.613A12.584,12.584,0,0,1,73.239,81.9c.181,1.192.317,2.037.362,2.414a43.753,43.753,0,0,1,2.2,6.2c.392,2.052,1.871,3.757,1.418,6.322l1.9-1.388c-.121.709-.2,1.237-.3,1.9l.317.317,4.391-.8a4.366,4.366,0,0,1,.211-.709L84.691,96c.347.543.709,1.056,1.192,1.78v2.1c-.785,1.509-2.489,2.022-4.119,3.018-.619.2-1.675-.5-2.474.407L78.9,102.9l-2.625.453c-3.214-1.961-3.214-1.961-4.888-5.748.151-.287.3-.528.438-.754a15.193,15.193,0,0,1-2.852-3.878c-.905-1.373-1.509-3.018-3.138-3.817h0a3.772,3.772,0,0,0-.332-.362l-.151.136.392.3c-.121,1.841.951,3.47,1.026,5.3,0,.211.453.392.6.649a3.153,3.153,0,0,1,.664,2.459l1.011,1.056c-.091.528-.166,1.1-.3,1.961.619,1.041,2.127,1.222,3.41,2.188v.815c1.388.739,2.761,1.509,4.119,2.173A2.429,2.429,0,0,1,74.311,108a5.1,5.1,0,0,0-2.7.407c-.241.151-.785-.181-1.388-.362a2.6,2.6,0,0,1-.951.392c-3.214.181-6.443.347-9.656.453h-6.85l.754-1.916c1.132.453,2.233,1.071,3.319,0a21.531,21.531,0,0,0,4.949.513,51.027,51.027,0,0,0,5.235-.181,31.685,31.685,0,0,1-6.367-4.692,6.46,6.46,0,0,0,0-.935c-.241-1.222-.287-2.369-1.7-3.2a12.9,12.9,0,0,1-3.018-3.214,18.106,18.106,0,0,0-4.526-4.345,14.153,14.153,0,0,1-2.052-1.9,3.439,3.439,0,0,0-.679.5,14.468,14.468,0,0,0-1.222,1.8c-.3.588.634,1.192.121,1.856.513.3.362.815.3,1.237a13.248,13.248,0,0,0,.453,3.018,8.51,8.51,0,0,0,.845,2.867,5.778,5.778,0,0,1,.151,1.509l1.509,1.222-.8.8-1.026-.92c-1.509.211-3.018-.362-4.526.543-.226-.3-.664-.649-.679-1a12.87,12.87,0,0,0-.905-3.968,7.966,7.966,0,0,1,0-1.811c-.151-1.237.422-2.55-.422-3.727-.136-.2.136-.664.211-1.011s.2-1,.3-1.509l-.845-.815-1.418.6c0,.136-.121.256-.106.392.136,2.158.3,4.3.453,6.458.966,1.086,0,2.61.875,3.757.256.332,0,1.026,0,1.509H37.556l-.634-.619V99.443c0-.845.3-1.856,0-2.474s0-1.509-.332-2.233.211-1.8-.121-2.459a6.035,6.035,0,0,1-.407-2.49l1.056-.739-2.474-1.237-1.237,2.64c-.075-.2-.181-.453-.347-.935l.272-1.509c-.86-.634-.86-.634-1.841-.528l.317.438-2.716,3.953C27.9,91.3,28.338,90,27.749,89.44l-1.811-1.313c-.332.272-.724.588-1.056.83l-1.373-.392c-.151.2-.317.317-.3.407.091,1.086-.272,2.2.392,3.274.2.317-.181.966-.2,1.509,0,1.328-.075,2.655-.075,3.983,0,.181.241.332.422.573l-.634.8.573,1.132-.588.664-4.526.724c.166-1.3-.422-2.474.453-3.561v-.453c.2-2.308.392-4.526.573-6.669-.5-.769-.845-1.3-1.252-1.946l-1.977,1.056v8.132L14.864,99.7v.769l-1.72,1.614-2.912,1.192L8.874,102.6c.739-1.856.453-3.938,1.267-5.839a8.706,8.706,0,0,0,.181-2.686,25.069,25.069,0,0,1,.3-2.565l-.256-.317a7.363,7.363,0,0,0,0-4.632,15.209,15.209,0,0,1-.106-3.636c0-.935.438-1.946-.407-2.806-.151-.151-.106-.619,0-.89.739-2.082-.136-4.164-.106-6.261a17.517,17.517,0,0,0-.694-4.225c-.287-1.177-.3-2.459-.588-3.666a56.579,56.579,0,0,0-1.177-5.93,23.3,23.3,0,0,1-.573-3.018c-.241-1.222-.181-2.52-.528-3.7a10.562,10.562,0,0,1-.438-2.324,4.533,4.533,0,0,0-.241-2.414,6.458,6.458,0,0,1-.256-2.354c-.256-.483-.5-.92-.739-1.4,0,0,0-.226.121-.241.981-.091,1.192-.724,1.117-1.69l-1.4-.905a2.143,2.143,0,0,1,.226-.558c.8.121.6-.679.92-.951.92.287.588,1.916,2.173,1.765a9.053,9.053,0,0,1-.558-1.494,11.452,11.452,0,0,1,0-1.75L5.842,36.844c-.272.347-.528.709-.89,1.192L3.82,37.1c.332-.92,1.162-1.358,1.75-2.1l2.4,1.192c0,.543.362,1.222-.287,1.765.5,1.132,1.011,2.263,1.509,3.546.241-.121.588-.317.92-.468A3.591,3.591,0,0,0,9.4,38.156c.136-.332.377-.89.362-.905-.709-.362.241-1.117-.392-1.584-.166-.136.317-1.026.392-1.584a12.553,12.553,0,0,1,.121-2.022c.2-.6.86-.981,1.237-1.509.573-.8.935-1.735,1.509-2.58a1.177,1.177,0,0,1,1.343-.634l-.558,2.474,1.675-.679-.769,1.4L13.3,30.009l-.468.981-.619-.513v1.509c-.453.558-.453.558,0,1.313V31.985l.468-.287,1.252.528-1.162,1.267v3.018l.724-.649c0,.513.181,1.1,0,1.313-.543.543-.272,1.147-.317,1.7,0,.091.151.181.287.347.106-.5.2-.951.332-1.509.362.769.649,1.343.92,1.916l.5-.091a15.48,15.48,0,0,1-1.026-8.313c.347.664.558,1.116.754,1.509-.151.528-.558,1.162-.392,1.433a4.436,4.436,0,0,1,.377,2.5c.619,1.509,1.026,2.55,1.3,3.214-.166.89-.272,1.418-.407,2.1.407-.211.634-.3,1.207-.573l.573.92.166-.121c-.121-.3-.256-.6-.407-1.026,1.222-1.765,4.089-1.252,5.16-3.259H24.6a1.836,1.836,0,0,1-.075.694l-1.509.6c1,.287,1,1.192,1.886.785.075-.407.136-.815.211-1.313h2.127V37.568c-1.343-1.509-3.123-1.011-4.421-1.086l-3.787,1.961-1.871-1.871c.2-1.72.407-3.546.558-4.783l1.464-1.313a7.544,7.544,0,0,0,0,4.526l.785.256v1.222h0l-.377.317.151.136a2.7,2.7,0,0,0,.3-.392,4.255,4.255,0,0,1,1.388-.438A1.358,1.358,0,0,0,22.8,35c-1.1-1.75-.241-3.546.106-5.356l.664-.151c.075-.438.151-.845.2-1.132l2.459-.573,2.022,1.433v6.035L26.92,36.527a5.764,5.764,0,0,0,3.274-1.192c-.347-1.675-.709-3.365-1.026-4.873l1.977-1.584-.724-1.9c-1.358-.347-2.248-1.509-3.515-2.022s-3.018.3-4.059-.785c-.951.347-1.8.543-2.535.905a8.283,8.283,0,0,1-2.64.875,2.882,2.882,0,0,0-2.308,1.78,4.194,4.194,0,0,1-.6.845C14.17,28.244,14.91,27.459,14.034,27.323Zm0,12.87.106-.091a3.952,3.952,0,0,0-.332-.377l-.151.136a1.162,1.162,0,0,0,.769.256h-.392l.181.89h.3a.83.83,0,0,0-.543-.815ZM28.745,80.93l.468.453c-.075.966-1.132,0-1.509.935v.86l-1.509.075-.815.8H22.2c-.241-.6-.453-1.192-.679-1.78h-.453C19,81.368,18.2,79.256,16.72,77.747l-1.373-1.418v-.935c1.041-.151,1.282.694,1.675,1.509,1.026-.875,2.173-.468,3.531-.588-.513.588-.83.966-1.162,1.328a11.6,11.6,0,0,0,.588,1.041l-.091-.106-.377.332.151.136a1.358,1.358,0,0,0,.272-.422c.634-.136,1.328.287,1.946-.287a1.373,1.373,0,0,1,1.056-.121,10.109,10.109,0,0,1,1.509.664,2.912,2.912,0,0,1-.091.543c-1.4.694-2.7-.86-4.1-.136.091.287.151.5.2.679,1.509.226,3.35-.573,4.285,1.509l.86-2.308.573.453,1.147-.558.558.483.694-.528.785.543c.287-.453.573-.875.875-1.313l.6.6c0,.649.075,1.388.121,2.459.3-.679.453-.981.6-1.3l1.509.468c-.739-.754-.241-1.509-.377-2.565l1.328,2.354a6.277,6.277,0,0,0-.256-3.259c.151-.3.256-.558.438-.92l-.709-.347a23.838,23.838,0,0,0-.649,2.308c-.89-.166-.287-.86-.453-1.282a3.017,3.017,0,0,1-.2-.543H30.676l-.905,1.328c-.075-1.509,0-1.509.951-1.8l2.022-.6.453-1.1-.89-.317V68l-1.4.106c.226.619.377,1.086.573,1.509.438,1.1-1.192,2.142-.091,3.244l-.166.151h-.573c0-.6-.136-1.207-.256-2.308-.513,1.509,0,2.7-.468,3.7l-.664-.091c-.226-1.78-.468-3.561-.694-5.341l-1.3-.2c.106-.377.166-.588.241-.785l.815.543c-.075-.664-.121-1.056-.166-1.509l-.6.5-.83-.83-.694.453-1.086-.573a16.359,16.359,0,0,0-.151-1.765,2.007,2.007,0,0,0,.256-.483,2.4,2.4,0,0,0-.211-.5l-1.765,2.565a6.518,6.518,0,0,1,1.192.739,13.578,13.578,0,0,1,.86,1.162.585.585,0,0,1,.317.091c.106-.287.2-.558.287-.845l.573.121c.2,1.011.347,1.931.543,3.018,0,0-.211.226-.091.106.106.377.226.709.347,1.056l.3-.166V69.252l.754.694c.211,1.509.422,3.018.619,4.526H26.723l-.769.739c.543.257,1.026.513,1.509.739l.573-.528.6.679v1.916l-1.313.543v-.8l.649-.136c-.106-.272-.211-.588-.347-.905l-.256.181v.8l-.83.392c-.106-.332-.181-.588-.317-1.056l-.83,1.086-1.313-.664a5.733,5.733,0,0,1,.709-.558c.256-.151.558-.226.89-.377-.256-.483-.422-.785-.634-1.132l.091.091a2.37,2.37,0,0,0,.362-.317l-.151-.136a1.871,1.871,0,0,0-.256.407h-.92V74.065l.468-.347c-.151-.181-.3-.377-.468-.558s.241-.875-.453-.92l.377-.649-.619-1.207-.438.935h-.6c-.075-.619-.151-1.222-.226-1.9l-.905.241c.2.664.392,1.282.453,1.509-.211.513-.347.83-.573,1.328-.317-1.117-.634-1.75-1.6-1.629v-.815l1.9-.3c-1.086-.468-1.7-.709-2.233-.951l.573-.724c.272.407.513.588.86.151,0,0,.438.181.664.272l.2-.272-.981-1.313.845-.83-.438-.5c.106-.091.3-.2.317-.3V59.913l-1.041-3.168h-.966c-.392.407.272,1.207-.256,1.509L18,56.639l-.709.769,1.373.649.619.935.6-.528.754,1.373H17.9l-.8-.8L14.985,58.9a5.537,5.537,0,0,0-.211-1.871l1.177.543c0-.694-.121-1.237-.2-2.052a4.225,4.225,0,0,0-.785,1.645c-.151.106-.438.241-.438.347V62.04c0,1.509.317,3.018-.438,4.375.181.3.362.6.543.86-.241.256-.377.422-.407.438a9.173,9.173,0,0,1,.332,3.319l-.694.709a10.29,10.29,0,0,1-.724-4.1c0-2.761-.256-5.522-.453-8.268a2.927,2.927,0,0,0-.468-1.056l.407-.558c-.422-2.61-.785-4.949-1.177-7.363.091-.241.241-.6.573-1.418l-1.011.8c-.407-.8-.8-1.509-1.343-2.686-.121.785-.2,1.192-.287,1.8l-2.112-.3A6.865,6.865,0,0,0,7.622,51.9c.392,1.614.392,3.289.935,4.873a8.9,8.9,0,0,1,.453,1.871A14,14,0,0,0,9.4,62.161c.407,1.026,0,2.308.5,3.455.347.86-.106,1.826.422,2.806s-.106,2.037.543,3.018c-.151,2.852.754,5.643.468,8.51a3.289,3.289,0,0,0,.121,1.765c.619,1.162.211,2.354.3,3.515,0,.392-.438.815-.392,1.192s.769,1.086.241,1.8.528,1.1.211,1.765c-.106.2.392.664.3.89-.8,2.142-.226,4.33-.3,6.488a4.179,4.179,0,0,1-1.1,3.259c.3.543.6,1.056.875,1.509,1.9-1.056,1.841-1.086,2.489-2.912a23.612,23.612,0,0,0,.89-4.888,15.521,15.521,0,0,0,0-2.052c0-.679-.2-1.509.136-1.977.6-.785-.709-1.132-.166-1.78a4.209,4.209,0,0,0,.528-1.117c2.112-.166,4.149.287,6.035-.573.392.362.724.664,1.026.966.754-.845,1.72-.272,2.58-.438l2.55-.5,1.3,3.244h.468c.256-1.056.528-2.127.815-3.244l.905.724c-.272-.905-.422-1.509-.694-2.324l.905.815.694-1.509c-.558-.724-.966-1.313-1.433-1.841a13.273,13.273,0,0,0-1.509-1.388,1.826,1.826,0,0,1-.528-.407l-.347-.468a2.671,2.671,0,0,0-.513.5l-.091-.091-.377.317.151.136a1.283,1.283,0,0,0,.272-.407ZM8.03,46.606l.091-.091L7.8,46.138l-.151.136a1.252,1.252,0,0,0,.392.256c0,.287,0,.573,0,.935l.875-.091v-.769a3.394,3.394,0,0,0-.89,0ZM24.068,62.161l.091-.091-.317-.362-.151.136a1.509,1.509,0,0,0,.407.257,7.227,7.227,0,0,0,0,.966l-.091-.091-.362.317.151.136a1.252,1.252,0,0,0,.256-.407l1.8.287v-.543C25.215,62.538,24.687,62.327,24.068,62.161Zm1.69,19.071c-.2.5-1.132.6-.438,1.629.392-.3.739-.543,1.086-.785a4.2,4.2,0,0,1-.528-.785l.091.091a3.8,3.8,0,0,0,.377-.317L26.2,80.93A.77.77,0,0,1,25.758,81.232ZM22.74,68.076a4.31,4.31,0,0,0-.075-.935l-.86.091v.785a1,1,0,0,0,.935-.317v1.75l1.826-.106c-.091-.377-.151-.588-.2-.8L23.4,69.1a2.64,2.64,0,0,0-.649-1.026ZM30.5,47.918H29.077c.438.739.769,1.313,1.132,1.9.181-.2.272-.362.407-.392.558-.106,1.1-.151,1.765-.256-.075-.317-.121-.558-.166-.785h-.785V47.194Zm-9.053,41.2h.392l-.181-.89h-.287c0,.287,0,.573.422.634-.181.422-.377.845-.619,1.373l-1.192-1.765V98.493c.6.92,1.4.724,2.263.558a39.319,39.319,0,0,0-.785-9.928Zm16.34-.407.106-.091a3.952,3.952,0,0,0-.332-.377l-.151.136c.136.106.256.211.543,0-.468,1.222-1.509,2.112-.981,3.018a8.374,8.374,0,0,1,.438,2.444,10.818,10.818,0,0,1,1.358,4.406,12.991,12.991,0,0,0,.5,2.535c.121.362.694.558,1.1.875.136-.362.226-.5.211-.6A34.324,34.324,0,0,0,40.3,96.4a25.86,25.86,0,0,1-.106-5.854,8.147,8.147,0,0,0-2.4-1.826Zm6.91-.287c-.3.3-.634.483-.694.709-.392,1.66-1.162,3.3-.392,5.07a2.188,2.188,0,0,1,.166,1.071,8.283,8.283,0,0,0,1.509,4.873c.407.739,1.313,1.207,1.977,1.811l.709-.754c-.166-1.886-.86-3.666-.935-5.583s-.377-3.938-.588-6.035c-.166-.166-.438-.407-.664-.6l-1,.558v-.875l1.358-.166a2.263,2.263,0,0,1,0-.3,4.526,4.526,0,0,0-1.433.226ZM12.661,45.7c0-1.645-1.841-1.645-2.293-2.9-.724.558-1.313,1-1.856,1.509a3.229,3.229,0,0,0-.543.724c1.69.256,3.168.483,4.436.634l1.614,1.614-.573.558a12.071,12.071,0,0,0,1.373,1.132,15.256,15.256,0,0,1,1.509.679,45.051,45.051,0,0,0,5.386,3.018c.619.347,1.207.769,1.886,1.207a4.421,4.421,0,0,1,2.248.407c.724.392,1.72.226,2.52.543s2.007.136,2.671,1.4c-1.735-.241-3.229.151-4.8-.468-1.086-.438-2.369-.453-3.5-.935-.287-.136-.966-.287-.951.634,2.52,1.388,5.417,2.263,7.544,4.36-.543-.075-1.041-.362-1.509-.438a11.512,11.512,0,0,0-1.9.075l-.075.332L29.59,61.98l-1.811.362a30.176,30.176,0,0,0,8,1.66l1.735,1.72a4,4,0,0,1,.754-.392,2.867,2.867,0,0,1,.8,0c.091-.392.136-.6.121-.558a10.908,10.908,0,0,0,2.384-1.252c.422-.392,1.192-.317,1.388-1.207.121-.528,1.132-.83,1.645-1.328.769-.709,1.041-2.037,1.026-4.059.634-.5-.136-.935-.091-1.418s0-1.343,0-2.142l-2.852-.935-3.063-2.339c-.8,1.056-1.946-.694-2.429.528l-1.7-1.509V48.4L34.4,47.073l-1.645.573,1.856,1.509a31.562,31.562,0,0,1-4.692,1.509,14.7,14.7,0,0,1-6.352-.634,21.123,21.123,0,0,1-5.9-2.308,1.509,1.509,0,0,0-.573-.272,9.626,9.626,0,0,1-2.837-1.418A2.61,2.61,0,0,0,12.661,45.7ZM48.39,58.781a12.463,12.463,0,0,1-5.07,5.779,7.77,7.77,0,0,1-.89,4.753c-.634,1.1-1.252,2.218-1.826,3.365a3.349,3.349,0,0,1-2.2,1.645c-.106-.3-.2-.528-.241-.679l-1.222,2.293a2.64,2.64,0,0,1,.075,3.018c.211.769.377,1.313.5,1.765.8,1.147,2.1,1.011,3.153,1.358a31.685,31.685,0,0,1,7.378,3.214,16.959,16.959,0,0,1,3.168,2.293c.679.709,1.388,1.4,2.1,2.1s1.207,1.509,1.841,2.188a12.252,12.252,0,0,1,1.9,1.977c.422.694,1.509.966,1.946,1.645s1.509.966,1.72,1.75c.317,1.1,1.313,1.267,1.992,1.886a9.294,9.294,0,0,1,1.026,1.373c1.086-1.011,1.871.151,2.278.3h1.509V98.131c-.649-1.614-2.007-2.837-2.158-4.526s-1.509-3.018-1.041-4.436c-.619-1.207-1.071-2.082-1.614-3.184l3.712-.905c.769-.694,1.8-1.66,2.9-2.535a7.227,7.227,0,0,1,1.66-.634c-.287-1.207,1.071-1.509,1.72-2.188,1.222-1.418,1.358-3.35,2.716-4.692-.347-1.75.634-3.425.528-5.251,0-.694.664-1.4,0-2.158a.86.86,0,0,1,0-.845c.513-.422.362-.951.362-1.509a8.525,8.525,0,0,0-1.992-4.617c-1.071-1.509-2.61-2.927-2.671-5.13-1.509-.483-2.4-1.811-3.863-2.414-.739-.317-1.509.075-2.263-.679s-1.584-.573-2.308-.981a4.707,4.707,0,0,0-3.018-.407c-1.629.241-3.229.377-4.843.528a2.776,2.776,0,0,0-2.565,1.3H50.668L48.4,55.13C48.39,56.428,48.39,57.71,48.39,58.781Zm-21.123-13.4c2.052-1.343,2.2-1.373,3.531-.769l3.742-.558.649.347.966-1.509h1.011a1.327,1.327,0,0,1,.151-.151A3.018,3.018,0,0,0,36.2,39.816c-1.071.588-2.127,1.162-3.2,1.72a6.79,6.79,0,0,1-3.923.377v-1.75l-1.086-.528c-.89,1.267.935,1.66.588,2.912-.588-.558-1-1.222-1.841-1.086-.226,0-.543-.453-.845-.679a.392.392,0,0,0-.2,0L24.671,42.29l2.082,1.343v1.509l-2.52.362c-.166-.89-.332-1.811-.513-2.821l.649-.905-1.946.769.422,1.826-1.343.709a2.332,2.332,0,0,1,1.056.106,2.184,2.184,0,0,0,.619.151,2.565,2.565,0,0,1,0,.5l-.136.181c-3.485.558-6.292-1.026-9.053-2.852l.573-.649h-.845c-.166.8-.317,1.509-.422,2.037,1.811.83,3.727,1.509,5.522,2.535,4.24,2.263,4.738,2.55,8.4,2.142a3.018,3.018,0,0,0,.89-3.018Zm18.86,40.254c-.83-.211-1.4-.317-1.946-.513-1-.332-1.992-.664-3.018-1.056a8.78,8.78,0,0,1-1.086-.679h0l-1.931.3-1.117-1.011c-1.086.468-2.022.86-2.927,1.267l2.339,3.862c1.4-.226,3.018.453,4.526-.422.528.151,1.026.468,1.509.377.815-.151,1.584-.558,2.4-.769s1.328-.347,1.871.272l.407-.256Zm15.782,16.9a25.847,25.847,0,0,0,2.671,2.112,6.428,6.428,0,0,0,3.018,1.4c.785,1.132,1.992-.287,2.837.453l1.282-.694-.528-.513-3.274-.483-1.509.438c-.2-.407-.332-.724-.483-1.026h-.875c-1-.724-1.509-1.871-2.686-2.369ZM33.966,40.148c.136-.3.287-.634.483-1.011H35.58a15.084,15.084,0,0,0-.226-1.72l-1.1,1.388-.86-.438-.287.845c-.679,0-1.418.287-1.871-.392l-1.207.664c.211,1.509,1.509.86,2.188,1.509l.8-.815Zm1.3-5.024c-1.358-.905-1.358-.905-1.977-2.731v2.49l-.86.8v1.086l1.69.513a11.955,11.955,0,0,1,.121-1.509ZM29.545,64.605c-.272.483-.543.966-.8,1.509l.287.287c.438-.332.86-.709,1.328-1.011.136-.091.407,0,.543.106-.151.392-.287.739-.453,1.192,1.841.121,1.117-1.509,1.871-2.082l-3.274-.558Zm1.147-29.044c-.091.241-.181.513-.256.785l-1.7.754,1.026,1.418L31.9,36.693a4.335,4.335,0,0,0-.106-1.132ZM34.66,76.3c0,2.4,0,2.4,1.222,3.561.181-.815.347-1.629.5-2.354ZM78.414,99.67c-.634.951-1.69.121-2.474.634v.754a19.372,19.372,0,0,0,4.028-.241Zm-49.171-52.6c.226-.2.317-.377.438-.392,1.011-.106,2.022-.166,3.138-.241V45.127c-1.147.905-2.746,0-3.621,1.267A1.924,1.924,0,0,0,29.243,47.073ZM69.12,90.451c-.649-1.509.83-2.912.136-4.632-.332.8-.815,1.328-.769,2.173a12.78,12.78,0,0,1-.317,2.459ZM34,73.039c.694-.769-.362-1.313-.3-1.931l.6-.785c-.739-.226-.241-1.6-1.509-1.282C33.739,70.293,32.668,72.014,34,73.039ZM72.078,94.3c.377-1.373.709-2.6,1.026-3.817,0-.121-.136-.272-.241-.483-.619,1.071-.573,2.324-1.509,3.018C71.61,93.408,71.791,93.846,72.078,94.3ZM29.741,70.671l.86-.528a15.241,15.241,0,0,1-.5-1.509,13.578,13.578,0,0,1-.136-1.509l-.815.694C30.148,68.649,29.183,69.886,29.741,70.671Zm-5.22,11.452-1.4-1.509-1.026,1.509Zm46.863,4.753v2.2h.875c-.106-.6-.226-1.162-.332-1.69l.332-.513ZM23.434,34.535h2.037v-.543l-1.252-.679Zm.211,22.632c-.92-.256-1.267.226-1.433,1.132h1.494ZM70.478,85.442c.257,1.117-1.026,2.037-.453,3.3a3.3,3.3,0,0,0,.453-3.3ZM20.688,41.823l1.132.2c-.226-.875.181-1.645-.3-2.414l-.8.272.649,1.358ZM38.794,71.5a9.5,9.5,0,0,1,0-1.373,7.77,7.77,0,0,1,.347-1.117h-.83a5.447,5.447,0,0,1,0,.86,4.723,4.723,0,0,1-.362.785ZM73.254,91.869v2.278a2.761,2.761,0,0,0,.362-1.222,6.743,6.743,0,0,1,.362-1.056Zm-61.2-55.357c-.332.845-.619,1.69.739,2.293-.226-.513-.377-.785-.468-1.071S12.149,36.949,12.058,36.512ZM74.145,93.65v2.278c.392-.935.634-1.509.905-2.112ZM26.9,64.545c.483-.377,1.4.377,1.282-.981H26.9ZM18.184,78.29l.875-.362c0-.739-.347-.92-.875-1.026Zm7.182-17.8V58.8l-1.026.392C24.7,59.641,24.973,59.973,25.365,60.486ZM37.013,72.994l.317.106c.181-.407.377-.8.619-1.343h-.935ZM12.646,49.819l.815-.528a3.8,3.8,0,0,1,.5-.211,1.735,1.735,0,0,1-.091-.256l-1.207.091C12.646,49.216,12.646,49.367,12.646,49.819ZM17.173,54.9h-.981a3.015,3.015,0,0,0,.181.83l.8-.151ZM11.138,34.686c.317.528.528.92.89,1.509V34.686ZM69.558,91.4H69.8V89.576h-.241ZM36.365,80.357l-.89.181a3.805,3.805,0,0,0,.151.845l.739-.136ZM7.109,42.954H6.7a7.816,7.816,0,0,0,.166,1.192h.241Zm9.732,11.452.89-.166-.89-.588ZM40.981,65.722c-.287.86-.091,1.147.347.951a3.239,3.239,0,0,1-.453-.951ZM21.216,56.971h.754a7.556,7.556,0,0,0-.211-1.177Zm1.946,7.318c-.332.347-.558.588-1.132,1.162l1.313-.272a3.084,3.084,0,0,1-.287-.89ZM25.547,29.33l-.951.438.166.226h.785Zm8.721,39.575h.407L34.509,67.7h-.241Zm33.465,32.6.724,1.358V101.51ZM19.451,42.849l-.724-1.358v1.358ZM6.415,45.67l.438.935.226-.151V45.67Zm29.21,28.667h.407a8.287,8.287,0,0,0-.166-1.207h-.241ZM10.444,37.779h.407l-.181-1.267h-.226Zm14.65,32.952H25.5a10.824,10.824,0,0,0-.166-1.222h-.241ZM40.3,88.339c-.151.679-.151.679.981.588Zm7.061,0h-.392a4.676,4.676,0,0,0,.166.769h.226Zm-11.708-16.6h.226v-.905h-.226Zm-4.6-38.55a3.109,3.109,0,0,0,.392,0,3.26,3.26,0,0,0-.166-.739h-.226ZM25.863,71.8h-.392a3.26,3.26,0,0,0,.166.739h.226Zm11.18-1.509h.241v-.905h-.226ZM22.6,62.508h-.226v.905H22.6Zm44.932,25.3h-.392l.181.739h.211ZM33.845,46.545h.226v-.981h-.226Zm38.9,52.264V99.2l.754-.166V98.81ZM23.117,40.057v-.392l-.754.181v.211Zm-6.261,12.81h.392a3.512,3.512,0,0,0-.166-.769h-.226Zm1.177-9.973h-.226V43.8h.226ZM24.49,83.088a3.108,3.108,0,0,0,0-.392l-.754.166v.226ZM14.653,55.236h.226v-.905h-.226Zm5.386.588v.3h.905v-.3ZM17.9,55.7h.151v-.468H17.9Zm1.509,0h-.226v.422h.151ZM30.36,80.417h-.151v.468h.151ZM26.241,65.33H26.09V65.8h.151ZM15.407,53.561v.151h.453v-.151Zm-1.69-1.509h.151V51.6h-.151Zm.166-1.826h-.151v.453h.151ZM33.724,86.211V86.06h-.468v.151Zm-22.9-37.629v.151h.453v-.151ZM33.724,73.7v.151h.543V73.7ZM23.8,61.2h.151v-.468H23.8Zm4.285,4.119H27.93v.468h.151Zm-3.365,6.865h.151v-.468h-.151Zm-.3-1.826h-.151v.468h.151ZM7.109,47.616v.151h.468v-.151Zm8.9,41.959h.151v-.453h-.151Zm19.237-19.69H35.4v-.453h-.151ZM26.2,31.442h-.151v.543H26.2Zm14.56,37.539h.151v-.468h-.151ZM12.646,40.314v.151h.5v-.151ZM73.888,96.441h-.151v.422h.151ZM32.5,38.307h.151v-.468H32.5Zm-8.857-7.544V30.9H24.1v-.136Zm11.6,37.373H35.4v-.453h-.151Zm32.831,35.773v.151h.453v-.151Zm-51-60.563h-.151V43.8h.151Zm50.846,63.626h-.151v.453h.151ZM39.065,66.687h-.151v.468h.151Zm-2.6-.3v.151h.468v-.151Zm3.2,5.643v-.151h-.453v.151Z" transform="translate(1.17 0)" fill="#774234"/>
    <path id="Trazado_26227" data-name="Trazado 26227" d="M1.565,35.313,3.5,34a3.621,3.621,0,0,0,.256.83c.166.256.438.422.619.664a5.809,5.809,0,0,1,.468.935H2.455c-.3,1.177.875,1.222,1.011,1.961H5.1v.8l-.905-.468-.875.483-1.8-.588Z" transform="translate(0 5.529)" fill="#774234"/>
    <path id="Trazado_26228" data-name="Trazado 26228" d="M50.5,62.71c.226.136.513.3.966.6C50.365,63.4,50.365,63.4,50.5,62.71Z" transform="translate(24.89 20.137)" fill="#774234"/>
    <path id="Trazado_26229" data-name="Trazado 26229" d="M15.148,50.039c.121.83.845.256,1.3.543v1.282H15.163a2.384,2.384,0,0,0-2.414-.905l-1.177-1.343a8.48,8.48,0,0,1,2.308.272c.241-.091.151-.256.106-.256a3.213,3.213,0,0,0-.649.2c.272,0,.543.166.543,0-.543-.5-.543-.724-.543-1.071l-1.75-.181a3.686,3.686,0,0,0-.106-.588c-.03-.181.136-.181.181-.181a11.9,11.9,0,0,1,3.018.226c.845.287,1.977.483,2.369,1.72-.6.5-1.3.166-1.931.287h0a2.475,2.475,0,0,0-.317-.377l-.151.151a3.349,3.349,0,0,0,.5.226Z" transform="translate(5.066 12.545)" fill="#774234"/>
    <path id="Trazado_26230" data-name="Trazado 26230" d="M15.873,55.03v.785a3.334,3.334,0,0,1-3.018-.558l-1.056.875.528.634H11c.106-.845.211-1.675.347-2.6l2.173.392C14.334,54.7,15.1,54.864,15.873,55.03Z" transform="translate(4.823 15.792)" fill="#774234"/>
    <path id="Trazado_26231" data-name="Trazado 26231" d="M16.006,51.065v1.509C14.5,52,12.989,51.473,11.48,50.9V50.13Z" transform="translate(5.068 13.736)" fill="#774234"/>
    <path id="Trazado_26232" data-name="Trazado 26232" d="M12.15,56.213l.483-.483c1.252.679,2.655.091,3.983.438v.679C15.032,57.465,13.689,55.986,12.15,56.213Z" transform="translate(5.408 16.585)" fill="#774234"/>
    <path id="Trazado_26233" data-name="Trazado 26233" d="M11.616,52.52l.664.724.89-.528.3.89a6.336,6.336,0,0,1,.543-.407l.362.6a4.525,4.525,0,0,0-.739.287,5.508,5.508,0,0,0-.679.483l-1.509-.679C11.525,53.455,11.571,53.048,11.616,52.52Z" transform="translate(5.052 14.952)" fill="#774234"/>
    <path id="Trazado_26234" data-name="Trazado 26234" d="M18.033,56.565v.905L15.74,56.7l1.9-1.071C17.641,55.992,17.354,56.52,18.033,56.565Z" transform="translate(7.235 16.534)" fill="#774234"/>
    <path id="Trazado_26235" data-name="Trazado 26235" d="M17.9,59v.5l-2.671-.332V58.4C16.12,58.6,16.98,58.792,17.9,59Z" transform="translate(6.975 17.944)" fill="#774234"/>
    <path id="Trazado_26236" data-name="Trazado 26236" d="M11.874,58.538,10.29,56.924l.649-.664,1.343,2.158Z" transform="translate(4.462 16.855)" fill="#774234"/>
    <path id="Trazado_26237" data-name="Trazado 26237" d="M11.5,52.144V51.42l2.339.935a1.642,1.642,0,0,1-.106.362Z" transform="translate(5.078 14.392)" fill="#774234"/>
    <path id="Trazado_26238" data-name="Trazado 26238" d="M20,63.835c.86-.106,1.237.347,1.509,1.117l-.679.377Z" transform="translate(9.402 20.701)" fill="#774234"/>
    <ellipse id="Elipse_736" data-name="Elipse 736" cx="1.614" cy="0.166" rx="1.614" ry="0.166" transform="translate(21.134 75.001)" fill="#774234"/>
    <path id="Trazado_26239" data-name="Trazado 26239" d="M14.347,57.889l-1.207-.619,1.977-.121.181.317Z" transform="translate(5.912 17.308)" fill="#774234"/>
    <path id="Trazado_26240" data-name="Trazado 26240" d="M15.619,63.5v.89H14.11Z" transform="translate(6.406 20.539)" fill="#774234"/>
    <path id="Trazado_26241" data-name="Trazado 26241" d="M13.36,52.05h.769a1.026,1.026,0,0,1,0,.211l-.739.181A1.787,1.787,0,0,0,13.36,52.05Z" transform="translate(6.024 14.713)" fill="#774234"/>
    <ellipse id="Elipse_737" data-name="Elipse 737" cx="0.317" cy="0.106" rx="0.317" ry="0.106" transform="translate(32.511 78.713)" fill="#774234"/>
    <ellipse id="Elipse_738" data-name="Elipse 738" cx="0.106" cy="0.317" rx="0.106" ry="0.317" transform="translate(18.524 74.382)" fill="#774234"/>
    <path id="Trazado_26242" data-name="Trazado 26242" d="M20.127,64.013a2.473,2.473,0,0,1-.377-.317l.151-.136.317.362A.513.513,0,0,1,20.127,64.013Z" transform="translate(9.275 20.569)" fill="#774234"/>
    <ellipse id="Elipse_739" data-name="Elipse 739" cx="0.317" cy="0.106" rx="0.317" ry="0.106" transform="translate(16.94 84.672)" fill="#774234"/>
    <ellipse id="Elipse_740" data-name="Elipse 740" cx="0.106" cy="0.317" rx="0.106" ry="0.317" transform="translate(18.524 84.461)" fill="#774234"/>
    <ellipse id="Elipse_741" data-name="Elipse 741" cx="0.106" cy="0.317" rx="0.106" ry="0.317" transform="translate(19.897 84.461)" fill="#774234"/>
    <ellipse id="Elipse_742" data-name="Elipse 742" cx="0.317" cy="0.106" rx="0.317" ry="0.106" transform="translate(32.058 74.126)" fill="#774234"/>
    <path id="Trazado_26243" data-name="Trazado 26243" d="M14.579,30.3c0-.875-.377-1.735.815-2.248C15.424,28.925,15.786,29.785,14.579,30.3Z" transform="translate(6.615 2.502)" fill="#774234"/>
    <path id="Trazado_26244" data-name="Trazado 26244" d="M15.894,31.163c-.679-.151-1.282-.347-.905-1.4Z" transform="translate(6.794 3.372)" fill="#774234"/>
    <path id="Trazado_26245" data-name="Trazado 26245" d="M15.506,30.73l.377.332-.151.136a3.954,3.954,0,0,0-.332-.377Z" transform="translate(7.062 3.866)" fill="#774234"/>
    <path id="Trazado_26246" data-name="Trazado 26246" d="M21.647,39.56l.92.468c-.166.845-.785.347-1.328.392C21.406,40.118,21.527,39.832,21.647,39.56Z" transform="translate(10.033 8.358)" fill="#774234"/>
  </g>
</svg>
