<svg xmlns="http://www.w3.org/2000/svg" width="76.573" height="67.921" viewBox="0 0 76.573 67.921">
  <g id="Calavera_tacos" transform="translate(-2.888 -20.35)">
    <path id="Trazado_26247" data-name="Trazado 26247" d="M58.488,69.539l.565,1.131c.212.127.537.226.622.594,0,.141.24.353.353.353.509,0,.678.382.947.636a2.007,2.007,0,0,0,1.244.438,1.893,1.893,0,0,0-.226-.269l.155-.17-.2-.2c.141-.24.254-.452.353-.594a3.717,3.717,0,0,1,1.936-.269,1.781,1.781,0,0,0,1-.254l-.184-.3.565-.339a4.027,4.027,0,0,0,.495.113h.523c.17,0,.3.141.438.17h.481l.353-.353h.579v.141L68,70.628c.749.113,1.413.4,1.979,0v-.339a5.144,5.144,0,0,0,1.3-.608l-.763-.4c.254-.509.608-.184.876-.085a1.681,1.681,0,0,1,.3-.212l.622.382a6.83,6.83,0,0,1-.113.806c.452-.551,1.159-.424,1.413-1.074a2.12,2.12,0,0,0,0-1.639c0-.141.17-.254.17-.382a9.582,9.582,0,0,0-.226-1.413.585.585,0,0,0-.509-.579c-.382-.071-.481-.325-.721-.495l-.678-.509h-.495a3.224,3.224,0,0,1-.523,0,3.8,3.8,0,0,0-1.908,0,9.427,9.427,0,0,0-1.215.4l-.678-.339-.2.2a6.77,6.77,0,0,1-.2-1.215,9.978,9.978,0,0,1,.3-1.3,4.24,4.24,0,0,1-.325-2.3c.17-.481.579-.495.763-.848s.565-.551.82-.862a1.625,1.625,0,0,1,1.074-.523,3.318,3.318,0,0,0,.608-.184,2.388,2.388,0,0,1,1.823,0,1.2,1.2,0,0,0,.565,0l.311-.085.692-.664a1.159,1.159,0,0,0-.3-1.1v-.777h1.1a6.063,6.063,0,0,1,.919,1.088.678.678,0,0,0-.141.848c.24.367.1.721.141,1.074a6.806,6.806,0,0,1,0,.933c0,.254.269.495.382.735a1.583,1.583,0,0,0,0,1.484c.071.127-.085.353-.141.537a.806.806,0,0,1,0,1.018,4.819,4.819,0,0,1,.24,1.314,1.13,1.13,0,0,1,.127.2c-.141.283-.254.537-.452.919.382-.1.636,0,.763.283-.325,0-.749-.113-.834.269s.212.608.127.692c-.325.325,0,.551,0,.834-.495.424-.424,1.074-.693,1.526.17.452.3.862.481,1.413.24.17.424.579.862.721.141,0,.17.24.226.424a2.219,2.219,0,0,0,.41.565h.791a2.148,2.148,0,0,1-.283-1,6.938,6.938,0,0,0-.254-1.116l.2-.269-.664-1.145a4.776,4.776,0,0,1,0-.636,6.417,6.417,0,0,1,.17-.707,3.3,3.3,0,0,1,.155-.65c.057-.24-.3-.608-.452-.919l.283-.1a1.413,1.413,0,0,1,.17-.876l-.184-.212.2-.41-.155-.254a4.156,4.156,0,0,1,.353-.353,7.041,7.041,0,0,0-.141-.9c-.042-.3.17-.594,0-.763a1.272,1.272,0,0,1-.127-.735V59.279l-.481-.212.481-.3a3.872,3.872,0,0,0,0-1.413,4.861,4.861,0,0,1-.127-.876,4.791,4.791,0,0,1-.17-.876,2.728,2.728,0,0,0-.269-1.258c-.212-.551-.481-1.06-.707-1.6a4.79,4.79,0,0,0-.24-.678c-.438-.636-.65-1.413-1.1-2.035s-.862-1.187-1.272-1.795c-.226-.353-.622-.424-.947-.608a9.752,9.752,0,0,1-1.569-1.413c0,.127-.113.226-.184.367-.17-.254-.325-.481-.438-.678s-.678.127-.89-.17c-.594.424-1.173-.311-1.795,0l-1.54,1.328-.269-.141-.82.89c.071.113.127.226.226.367l-.424.481h.975a1.1,1.1,0,0,1-.961.523,1.413,1.413,0,0,0-.947.24c-.1.551-.17,1.06-.269,1.654-.424.071-.537.551-.82.82.1.24.254.41.127.707a5.017,5.017,0,0,0-.226,1l.141.65-.353.141c0,.283.353.41,0,.664-.085.071.141.452,0,.551a.749.749,0,0,0-.113.565c0,.311-.17.678.141.947-.1.3-.24.579-.325.876a5.837,5.837,0,0,0-.17.89,5.215,5.215,0,0,0,.438,1.95,1.2,1.2,0,0,0,.085.509l-.226-.1-.721.551c.155-.579,0-1,.212-1.413a1.413,1.413,0,0,0-.367-1.54,1.032,1.032,0,0,0-.523.806c0,.311.127.537,0,.678-.269.481-.085.989-.155,1.413a2.12,2.12,0,0,1,.2.269c-.184.283-.339.523-.523.777,0,0,.085,0,.085.113a7.9,7.9,0,0,1-.113.834c0,.1-.141.184-.155.269a5.893,5.893,0,0,0-.2,1.215,8.337,8.337,0,0,1,0,1.032l-.834.579a2.827,2.827,0,0,1-.495,0c-.184,0-.353-.127-.537-.155a.777.777,0,0,0-.48,0c-.41.3-.791.1-1.159,0a1.244,1.244,0,0,0-.452-.17,15.366,15.366,0,0,1-1.809-.17c-.085,0-.184-.113-.283-.141-.565-.127-1.145-.41-1.682,0A.4.4,0,0,1,51,66.02c-.3-.353-.777,0-1.074-.3a10.881,10.881,0,0,0-2.332-.4h-.1l-.325-.481H46.8l-2.4-.862-.24.212v-.509l-1.06-.876c-.339-1.131-.636-2.063-.947-3.024l.141-.226.325-.367-.155-.17L43.155,57c0-.1-.184-.212-.17-.269a1.625,1.625,0,0,0,.085-.523,1.06,1.06,0,0,1,.127-.622c.283-.41.085-.777,0-1.145l.2-.269-.382-.721c.523-.495-.17-.989.071-1.512l.989-.269A1.71,1.71,0,0,1,45.317,51c-.155-.283-.254-.495-.382-.735l.65-.254v.311l-.311.113c.085.141.141.3.2.4.254-.254.509-.509.791-.763a1.625,1.625,0,0,0,0-1.413c.141-.622-.382-.989-.579-1.413a14.486,14.486,0,0,0-3.364-.622c0-.141.24-.155,0-.353l-2.374.226a1.413,1.413,0,0,1-1.187.325l-.141.141c-.311.212-.65.4-.947.608a1.6,1.6,0,0,1-1.724.254c-.226.113-.424.24-.636.339-.226-.339-.636,0-1-.269-.127-.594-.65-.862-1.3-.947-.085-.438-.184-.876-.3-1.328l1-.41a.467.467,0,0,1,.4-.466,1.922,1.922,0,0,0,.919-.678c.269-.311.495-.664.763-1-.127-.283.424-.537.085-.919l-1.244.806-.495-.2c.89-.212,1.413-.89,2.191-.989v-.339a1.881,1.881,0,0,1,0-.3h1.922c.777-.707,1.795-1.145,2.318-2.191-.212-.438.4-.876,0-1.413l.367-.113a1.852,1.852,0,0,0-.17-.269c.141-.452.269-.82.382-1.2a2.078,2.078,0,0,0,.071-.41.947.947,0,0,0-.155-.537c-.113-.24.1-.608-.184-.848h.283v-.523l-1.682.226-.579-.3-.876.3a.8.8,0,0,0-.155-.141l-.339.17c-.155.311-.283.537-.41.777a4.637,4.637,0,0,0-.2,1.018l.3.3c-.2.4,0,1.1.452,2.148.4.1.537.438.862.678-.226.212-.41.367-.579.551h-.339l-1.1-.608.353-.283V36.822a2.558,2.558,0,0,1-.325.283.96.96,0,0,1,.127-.452.883.883,0,0,0-.113-.565.608.608,0,0,1-.155-.452,2.083,2.083,0,0,1,.113-.495h-.664a.382.382,0,0,1-.212-.155l-.24.2-.127.127a4.819,4.819,0,0,1-.523.353l-.4.155c-.141.565-.721.862-.862,1.413l-.806.269c-.141-.269-.269-.537-.481-.9l.481-.212-.254-.353.141.127a1.63,1.63,0,0,1,.1-.382c.269.085.466.212.622.17a1.639,1.639,0,0,0,1.3-1.088,1.781,1.781,0,0,1,.367-.678,11.884,11.884,0,0,0-.2-1.625.777.777,0,0,1-.113-.141,1.526,1.526,0,0,0-.961-.735,6.105,6.105,0,0,1-2.2-.2l-.17.41c-.1-.155-.184-.3-.269-.41l-.692.466a.929.929,0,0,0,.721,1.018,4.24,4.24,0,0,0,.919,2.586l-.325.127c-.127.382-.24.763-.353,1.116a2.629,2.629,0,0,0,.141.283l-.353.311-1.2-.2c0-.565.495-.4.763-.622-.141-.17-.283-.254-.353-.41a2.247,2.247,0,0,1-.127-.466l-.961-.933a9.751,9.751,0,0,1,.382-2.827l.311-.071-.17-.2.2-.325-.254-.269-1.6-.24-.466.481v1.6h-.537c.085-.594.155-1.131.226-1.738a5.328,5.328,0,0,0-.89.9,4.48,4.48,0,0,0-.777.947,7.815,7.815,0,0,1-.678,1c-.226.325-.325.749-.707.989-.579,0-1.187-.184-1.795-.184a1.583,1.583,0,0,1-1.343-.65l.226-.466-.367-.17s.127-.1.113-.141a1.88,1.88,0,0,0-.791-1.23V31.2c.141-.127.339-.269.466-.4.1-.537.2-1.018.3-1.611l.664.65c-.311.254-.24.608-.353.876a1.187,1.187,0,0,0,0,1.413c.141.283.3.551.438.848a4.568,4.568,0,0,1,.24.791c.085.283.452.509.65.692l.749.226a.816.816,0,0,1,.141-.325h.565a.609.609,0,0,1,.127-.311c.495-.65.975-1.3,1.413-1.964a2.332,2.332,0,0,0,.339-.707,4.438,4.438,0,0,0,.184-.961c0-.353,0-.735,0-1.1a.636.636,0,0,1,.113-.367c.24-.24.721-.17.9-.466l-.085-.24.382-.382a3.717,3.717,0,0,0,2.162.622v-.975l-.579-.339c-.452.269-1,0-1.413.17s-.975-.085-1.244.382l.212.339c-.325.155-.608.254-.594.707s-.466.4-.65.155-.678-.17-.721-.636c0-.1-.283-.24-.438-.269l-1.993-.212c-.325.367-.664.565-.692,1.032,0,.113-.212.339-.481.071l.382-.495c0-.269-.1-.551.141-.791s-.141-.4,0-.65a4.805,4.805,0,0,0,.113-.806h.184A13.737,13.737,0,0,0,23.341,24.2c.254-.481.806-.622.975-1.116.3-.1.608-.353.919-.127a.777.777,0,0,0,.806.085,1.512,1.512,0,0,1,.806-.141h.594a8.946,8.946,0,0,1,1.781-.622,4.24,4.24,0,0,0,.806.311,9.819,9.819,0,0,1,1.413.155c.791.127,1.611,0,2.417.17a4.24,4.24,0,0,1,1.809.424c.085-.155.127-.269.184-.4h.212v.424a2.827,2.827,0,0,1,1.964.947h.353c.085.24.141.509.481.509,0-.113.113-.226.212-.466,0,.382.155.636-.1.876a10.613,10.613,0,0,1,.975,1.286,1.922,1.922,0,0,0,.848.89c0,.339,0,.65.481.678v.127h-.452c-.071.353-.155.721-.254,1.116l1.116.82c.311-.4.565-.735.848-1.074a4.239,4.239,0,0,0-.212-.367c.071-.155.141-.283.226-.438a3.25,3.25,0,0,1-.466-.212c.127-.353.24-.692.367-1.032a3.406,3.406,0,0,0-1.512-1.823v-.466a8.2,8.2,0,0,0-.82-1.06,5.512,5.512,0,0,0-1.06-.622h-.269l-1.555-1c0,.523-.3.466-.339.382h-.41l.071-.085.664-.2c-.565-.311-.989-.523-1.413-.777s-.82.085-1.173-.226a1.208,1.208,0,0,1-.2.127h0c-.254-.113-.452-.325-.664-.325s-.523-.184-.791-.2a2,2,0,0,1-.721-.085c-.127-.085-.523.3-.707-.071,0,0-.24.127-.325.1a4.89,4.89,0,0,0-1.752-.085c-.184,0-.382.226-.622.155s-.481-.226-.594-.141a1.837,1.837,0,0,1-.721.155c-.113,0-.226.141-.325.184l-.141-.17c-.339.311-.749.184-1.131.24a3.093,3.093,0,0,0-.806.311c-.269.1-.933.212-1.187.721-.113.2-.4.311-.565.438l-.466-.141c-.622.353-.806,1.145-1.555,1.286.127.466-.184.791-.325,1.145.24.382.127.89.509,1.187a.217.217,0,0,1-.071.155.89.89,0,0,1-.184-.155l-.17.339h-.41l-.339.367c-.113.481-.212.919-.311,1.413l-.2-.184c-.17.367-.367.749-.551,1.159.085.071.2.212.339.367-.155.212-.3.367-.452.551.41.212.594.495.509.834l-.17.367-.141-.155-.325.2.141.141c-.155.41-.325.791-.466,1.173a2.035,2.035,0,0,1,.17,1.159,7.5,7.5,0,0,0,1.555,2.021,1.654,1.654,0,0,0,1.215.594.551.551,0,0,1,.424.184c.424.495,1.145.466,1.512.848a2.275,2.275,0,0,1,.254.565,1.894,1.894,0,0,1-.155.65c.1.184.212.382.3.565s-.1.141-.1.155c.2.608.382,1.145.594,1.767l.438.495a1.993,1.993,0,0,1,.481.141,6.3,6.3,0,0,1,1.2.834c.283.269.636.481,1,.763,0,.382.41.339.65.4.1.3.17.537.269.89l-.608-.254a1.258,1.258,0,0,1-.254.184,3.406,3.406,0,0,1-1.314-1.032,2.035,2.035,0,0,1-1.654-.594,1.329,1.329,0,0,0-.678-.424,2.826,2.826,0,0,1-1.187-.65,18.048,18.048,0,0,0-2.148-1.244,5.653,5.653,0,0,1-1.258-.89,4.127,4.127,0,0,0-.862-.608A9.893,9.893,0,0,0,17.631,38h-.848l-.438.41V39.1c.141.692.692.283.961.579s.608.3.919.438v.848a1.074,1.074,0,0,1,.339.707,1.71,1.71,0,0,1,0,.269c0,.537,0,1.074,0,1.625l-.127-.1a3.01,3.01,0,0,0-.127.382,1.413,1.413,0,0,1-.975-1.088A1.413,1.413,0,0,0,16.26,41.7c.113.269.17.424.212.509-.184.537-.367,1.018-.481,1.5a.777.777,0,0,0,.141.721,4.042,4.042,0,0,1,.382,1.06h-.353a13.44,13.44,0,0,1-.876,1.145,2.826,2.826,0,0,0-.933,1.4c0,.155-.184.311-.3.466-.3.466-.622.933-.989,1.413a2.261,2.261,0,0,0-.834.947,5.936,5.936,0,0,1-1.413,1.781c0,.975-.989,1.413-1.06,2.332-.692.382-.919,1.159-1.328,1.88v.608l1.823,2.53h.367a1.6,1.6,0,0,0,.707,1.314,11.913,11.913,0,0,1,1.639,1.413,1.625,1.625,0,0,0,.4.226,1.272,1.272,0,0,0-.4-1.088c-.466-.565-.933-1.145-1.413-1.738-.141-.184-.155-.353.1-.565.382.367.749.749,1.145,1.116A3.632,3.632,0,0,0,14.013,61.7a7.829,7.829,0,0,0-.636-2.2,1.837,1.837,0,0,1,.692,1.71c.353.325.692.608,1,.9a6.261,6.261,0,0,0,1.032.82l-.226.3c.3.3.537.678.862.834s.4.735.9.735a.735.735,0,0,0,.325.721l1.018.763.678.113c-.41.41-.876.367-1.23.664l-.3-.41H16.246c-.254.226-.452.579-.89.382-.325.41-.594-.113-.9,0-.579.1-1.159-.254-1.738,0a.452.452,0,0,1-.41,0c-.212-.226-.481-.113-.707-.155a19.657,19.657,0,0,0-2.417.184H5.929a2.827,2.827,0,0,1-1.413-.24c-.184-.1-.353.127-.523-.085s-.367,0-.537.071a2.9,2.9,0,0,0-.565.325c.127.735-.184,1.5.184,2.007l.664.495H8.148a1.614,1.614,0,0,0,.777-.127c.283.367.551,0,.806,0a3.476,3.476,0,0,0,.721-.367.467.467,0,0,0,.127.382,3.166,3.166,0,0,1,1.159,0,1.074,1.074,0,0,0,1.018,0c.481.311.989.1,1.314.155l.622.481c-.071.269-.141.495-.17.594-.622.367-1.046-.212-1.569,0a4.621,4.621,0,0,1-1.413-.24c-.212.509-.89-.113-1.1.466.353.269,0,.777.311,1.06v.254c0,.071-.141.226-.212.353.509.382.636.961.947,1.413s.763.848.848,1.286l.65.551a1.894,1.894,0,0,0,.523,1.6,1.639,1.639,0,0,0,.353,1.413v.848l.3.1a2.184,2.184,0,0,0,.1.749,3.434,3.434,0,0,1,.3-.876,1.555,1.555,0,0,0,.495-1.173c.4-.565.071-1-.24-1.413a3.915,3.915,0,0,1-.481-.834c-.17-.565-.184-1.159-.4-1.724l-.367.226c.141-.283.2-.41.3-.636l-1.23-1.654c.085-.339.085-.339.551-.735A18.071,18.071,0,0,1,15.285,72a1.159,1.159,0,0,0,1.1.4l.551.749a9.171,9.171,0,0,1,1.116.226c.339.113.664.3,1.088,0,.127.4.226.749.339,1.116l-.466.495c.071.438.113.749.141.961-.24.226-.466.339-.509.509-.141.424-.4.862,0,1.328l-.594.085a4.157,4.157,0,0,1-.254.975h-.2c-.254.579-.509,1.187-.791,1.767.311.24.311.24.678.2.424-.269.283-.806.622-1.131A1.993,1.993,0,0,0,18.79,78.5c.438-.283.862.311,1.314.085,0-.4-.311-.41-.537-.565a1.215,1.215,0,0,1,1.3-.184,1.964,1.964,0,0,0,1.23.085c.382-.085.749-.085,1.131-.155a1.526,1.526,0,0,0,1.06-.466c.678-.184,1.272.438,1.95.155l1.823.622.325-.127a6.782,6.782,0,0,0,.424.735c0,.085.2.1.495.226-.353-.579-.551-1.018-.834-1.413a7.278,7.278,0,0,1-.961-1.116l-.438.057-.509-.622-.834.212c-.325-.367-.678-.085-.9-.127l-.579-.127.82-.721c-.085-.382-.155-.763-.226-1.131l.382-.452-.141-.2c.071-.311.113-.565.155-.82l.89-.367a4.239,4.239,0,0,1,.834-.3c.283-.071.565-.466.876,0,.3-.339.579,0,.975.085l.947-.947c.212-.113.283.283.438.325l.622-.2.509-.495,1,.353a3.772,3.772,0,0,0,.155.848,4.721,4.721,0,0,1-.367.565c-.184.226,0,.537-.212.777s-.071.537-.212.664,0,.551-.226.791c-.3-.071-.283.226-.339.339-.283.594-.269.594-.636.876.466.707,1.173,1.215,1.71,1.88l.424-.2.3.367c0,.353-.424,0-.495.212.452.82,1.145,1.413,1.526,2.247a1.032,1.032,0,0,0,1.413.509c.071.41-.594.311-.495.749.226.184.382.523.749.438.113.184.212.353.339.523.155-.283.65-.17.622-.579L36,81.467c-.155-.4-.24-.636-.283-.791l-.523-.325v-.806l-1.159-1,.141-.127-.848-.961c.085-.438-.367-.509-.523-.834V76.2l-.9-.848.749-.382a1.131,1.131,0,0,0-.184-.184c.367-.269.763-.495.876-.989,0-.212.367-.353.509-.551a6.588,6.588,0,0,0,.367-.707.763.763,0,0,1,.127-.17A2.629,2.629,0,0,1,35.1,70.1a9.546,9.546,0,0,0,1.555-.2.466.466,0,0,0,.184-.1l1.286-.17c.692.481,1.272-.2,1.95-.3v-.269H37.586a.82.82,0,0,0-.339.155.692.692,0,0,0-.269.141v.113h0a4.24,4.24,0,0,0-1.343-.141,12.027,12.027,0,0,1-1.413.085c-.495,0-.989.127-1.413.155a1.413,1.413,0,0,1-.961-.155,12.719,12.719,0,0,0-3.519.2c-.085.212-.2.424-.24.523l-.608.466c-.226,0-.523.085-.664,0s-.41.127-.65,0-.466.1-.692.141a2.516,2.516,0,0,1-1.555-.382c-.254-.113-.509-.212-.707-.1a.537.537,0,0,1-.664,0c-.184-.127-.509,0-.608-.367.254-.113.579-.4.763-.311a8.479,8.479,0,0,0,2.049.127,2.163,2.163,0,0,0,.254-.269,4.889,4.889,0,0,1-.919-.254,2.459,2.459,0,0,0-1.06-.155H21.913a.355.355,0,0,1-.212-.1l.2-.537,1.286-.212c.4-.071.848.155,1.215-.17.749.367,1.54,0,2.318.17.1,0,.226.1.325.085a8.481,8.481,0,0,1,1.682-.269.692.692,0,0,0,.311-.113c.311,0,.565.184.65.1a1.032,1.032,0,0,1,.975-.127c.283,0,.523.254.791,0,.283.283.65.1.975.127s.283-.085.382-.1l.311.127.254-.24.269.41a.791.791,0,0,1,0-.17,1.993,1.993,0,0,0,.749.17h.155a3.9,3.9,0,0,1,1.512.1l.1-.1a1.173,1.173,0,0,1,.24.17l.382-.2c.692.382.692.382,1.06.212.777.382,1.639-.113,2.4.325,0,0,.113-.141.17-.141a7.589,7.589,0,0,1,2.586.1,1.413,1.413,0,0,0,.579,0c.113,0,.254-.127.367-.127,1.3,0,2.586-.3,3.872-.17H48.4c.113-.2.212-.353.311-.495,0,.382.608.777,0,1.187H47.635c-.382,0-.791-.155-1.046,0a15.545,15.545,0,0,0-2.247,0l-.608.311a.4.4,0,0,0-.693.085c-.071.113,0,.3,0,.509a1.413,1.413,0,0,1,.269-.24l.325.184a.4.4,0,0,1,.141-.127h.4c.24.17.438.1.65.127a9.514,9.514,0,0,1,1.555.17,3.293,3.293,0,0,0,1.738,0,3.689,3.689,0,0,1,1.526,0c.551.17,1.131.3,1.682.495a2.615,2.615,0,0,0,.791.155.438.438,0,0,0,.184,0,5.5,5.5,0,0,0,.283-.495c.269-1.018-.424-1.6-.862-2.318.565-.141.919.4,1.413.17.085.367.1.749.523.876a3.674,3.674,0,0,0,.834,1.88c.311-.226.565-.353.806-.085a1.583,1.583,0,0,1,1.738,0l.452-.254-.254-.523A3.293,3.293,0,0,1,58.488,69.539Zm10.062-3.067.707-.806.791-.1.777-.085.085.113H71a.788.788,0,0,1,.41.071l.89.735h0c-.1.212-.17.367-.254.579H69.017l-.481-.523Zm-2.827-16.8.452.452h0s-.071,0-.127.113c.339.509,0,.9-.141,1.413h0c-.636-.678-.353-1.314-.17-2.007Zm-2.261,4.325h.353a2.594,2.594,0,0,0,.184.622c.057.212-.2.509-.311.834l.452.311-.749.325Zm-.692,10.43h0l.24.17h0l.311-.3h0a.947.947,0,0,1,.17.141h0a.975.975,0,0,1,.184-.155h0c.184,0,.339.2.537.184a.3.3,0,0,0,.2-.1l-.184-.212-1.413-.2h0l-.127.325h0l-1.413-.424.961-.481c-.085-.17-.141-.283-.254-.537h0c.353.184.481.438.678.551h0a.841.841,0,0,0,.551-.254,2.671,2.671,0,0,1,.509-.155.636.636,0,0,0-.155-.212c-.226-.283-.509-.339-1.413-.466v-.141a9.356,9.356,0,0,1,1.1-.424.579.579,0,0,1,.269,0h.1l.466.2H64.4c.226.283.452.537.622.763a3.547,3.547,0,0,1,.226,1.187l-.579.339.65.509c-.367.41-.678.763-.961,1.1a1.06,1.06,0,0,1-.3,0,4.353,4.353,0,0,0-.862,0,.763.763,0,0,0-.367.155h0a1.781,1.781,0,0,1-.269-.2h0a1.145,1.145,0,0,1-.678.184h-.763c.1-.3.17-.523.254-.862.141-.113.367-.339.608-.509a5.938,5.938,0,0,1,.735-.184ZM57.527,68.55a1.526,1.526,0,0,1,.254,0,23.7,23.7,0,0,0,2.827-.17c.1,0,.184-.113.226-.141a3.906,3.906,0,0,0,1.442.141h.763a2.5,2.5,0,0,1,.65.1c.2,0,.452-.311.594,0a1.215,1.215,0,0,1,1.1-.085c.085,0,.141.085.226.085l2.233.184,2.3.212a1.752,1.752,0,0,0,.254.2h0l-.495.254H68.876a13.686,13.686,0,0,0-1.724-.2,5.017,5.017,0,0,1-1.922.1,9.892,9.892,0,0,0-1.823-.127c-.353,0-.664-.254-1.046-.2a1.611,1.611,0,0,1-.735,0h-.1l-.212-.1a1.075,1.075,0,0,0-.537.127c-.481-.311-1.018-.085-1.555-.141-.424.41-1.06-.113-1.413.481L57.4,68.8h0c0-.17.028-.24.071-.254ZM11.215,55.591v.919h-.89L9.7,56.142h0a2.416,2.416,0,0,1,.41-.565c.367-.311.636-.3,1.116,0Zm5.271,13.143c-.4,0-.848.141-1.23-.17a5.653,5.653,0,0,1-2.713,0,.848.848,0,0,1-.919.071,2.614,2.614,0,0,0-1.413,0h-.1a.481.481,0,0,0-.2-.113H9.6a1.413,1.413,0,0,1-.763,0c-.424-.254-.89,0-1.328-.1a5.964,5.964,0,0,0-1.328,0L5.958,68.2h0a3.66,3.66,0,0,0,.17-.382,15.206,15.206,0,0,0,2.106.1,19.1,19.1,0,0,1,2.148-.1,11.477,11.477,0,0,0,2.077,0h2.191v-.481h.1l.1.452c.269.141.65,0,.989.17s.594.127.89.353h0a3.731,3.731,0,0,1-.24.424Zm3.01.65a.262.262,0,0,1-.1.2l-.113.2.2.3a5.3,5.3,0,0,1-1.413,1.964l-.466-.184h0c-.085-.4-.17-.721-.24-1.032.226-.367.424-.721.608-1.074,0-.085.113-.254.071-.3s.155-.622,0-.89l-.1-.085h0a2.392,2.392,0,0,1,.184-.692l.82-.269h0a1.413,1.413,0,0,0,.353,1.06h0a3.519,3.519,0,0,1,.212.4l-.184.184ZM41.2,48.129a.4.4,0,0,0,.17,0c.113,0,.24-.141.353-.184a.551.551,0,0,1,.2,0,11.63,11.63,0,0,1,1.413,0c.17.537.89.141,1.131.65l-.269.537a.961.961,0,0,1-.594.325,2.671,2.671,0,0,1-.678,0h0v.24c-.4.551-.721.961-1.032,1.413a3.01,3.01,0,0,1,0,1.837,2.134,2.134,0,0,0,0,.735v.961a5.231,5.231,0,0,0,.283.523c-.17.17-.339.325-.509.509.071.254.127.424.184.594a7.6,7.6,0,0,1-.155,1.215h.523v.085h0l-.551.085h0c-.071.212-.141.424-.226.707a1.216,1.216,0,0,0,.17.254c-.269.382-.155.876-.17,1.413h-.622a13.312,13.312,0,0,1-.283-2.106l-.311-.226c.339-.41.184-.862.184-1.258s-.113-.862-.155-1.3.1-.834-.184-1.187c.085-.141.155-.24.24-.4-.141-.071-.269-.113-.41-.2l.367-.254v-.693a2.145,2.145,0,0,1,.085-.692s-.085-.254-.141-.452l-.791-.41h-.848V50.39a2.53,2.53,0,0,0,.989-1.046c.212-.311.579-.452.806-.749a1.484,1.484,0,0,1,.4-.339,1.541,1.541,0,0,1,.438-.127Zm-4.692,7.914h0l-.2-.17L36,56.085l-.452.311c-.692-.226-1.583,0-2.3-.537-.481-.311-1.032-.254-1.5-.509H31.5a2.247,2.247,0,0,0-1.159-.664c.1-.367.17-.678.24-.947l1.018-.466c.127.113.24.226.353.311l-.155.155a.311.311,0,0,0,.071.113A5.865,5.865,0,0,0,33.658,54.9a7.575,7.575,0,0,0,2.021.509,2.968,2.968,0,0,1,.919.424ZM35.325,58.3a.17.17,0,0,0-.141,0h0a.367.367,0,0,1-.155,0,.466.466,0,0,0-.184,0,1.285,1.285,0,0,1-.579-.085.41.41,0,0,0-.254-.085.254.254,0,0,0-.155.127h0a9.794,9.794,0,0,0-2.417-.834c-.269-.184-.537-.367-.82-.594.127-.3.269-.579.41-.876l.424-.212h0a2.912,2.912,0,0,1,.65.382c.226.17.438.339.678.495a2.191,2.191,0,0,0,.311.17c.4.141.862.1,1.187.424s.834.212,1.258.226c.141.339.367.636.212.975a.127.127,0,0,1-.141,0c-.057,0-.17-.1-.24-.113Zm-2.954,3.434a1.144,1.144,0,0,0-.367.155c-.452-.2-.481-.2-.82,0h0c.283.495.763.141,1.173.325a1.074,1.074,0,0,0,.82.283c.24,0,.382.17.382.466h0a3,3,0,0,0-1.413.339c-.339.2-1.569-.24-1.908-.523l-1.781-1.413a10.048,10.048,0,0,1,.2-1.088h0l.707-.65a.89.89,0,0,1,.353.17,1.866,1.866,0,0,0,1.145.551,3.2,3.2,0,0,1,.608.155c.2.042.41,0,.565.1s.4-.269.622,0,.509,0,.749.2a3.208,3.208,0,0,0,.678.254.4.4,0,0,1,0,.184.325.325,0,0,1-.353.254C33.219,61.569,32.824,61.837,32.371,61.738Zm-7.462-.608a3.915,3.915,0,0,1-.41.367,5.087,5.087,0,0,1-.763.438c-.24.141-.438.325-.749.283a.806.806,0,0,0-.707.155h-.339a13.162,13.162,0,0,0-1.484-.353,8.013,8.013,0,0,0-1.5-.382h0a.777.777,0,0,1,.141-.155h0c-.3-.367-.721-.254-1-.269l-1.159-.594a6.865,6.865,0,0,0-.141-.791l.311-.82h.82c.523.283,1.018.594,1.569.834s.834.283,1.244.466a6.416,6.416,0,0,0,1.555.382c.565.085,1.145.1,1.724.184a6.884,6.884,0,0,1,.9.283ZM19.03,47.69c.2.212.579.071.791.353a1.131,1.131,0,0,0,.763.254l.367.424a24.025,24.025,0,0,0,3.067,1.1l.481-.071h1.4l.353.353c.382,0,.791.127,1.131-.113l1.23.382h0c-.622,0-1.088.325-1.654.226a.721.721,0,0,0-.424,0,2.827,2.827,0,0,1-2.289.17,9.652,9.652,0,0,0-.961-.184,3.109,3.109,0,0,1-.806-.325,2.7,2.7,0,0,0-.678,0c-.212-.1-.424-.311-.622-.311a1.781,1.781,0,0,1-1.343-.735l-.594.184c0-.155.1-.269.155-.452-.212-.212-.509-.452-.82-.735v-.24h0ZM30.789,58.247a5.1,5.1,0,0,0,.919.466,2.36,2.36,0,0,0,.848.24,14.343,14.343,0,0,1,1.668.24l.4.424h0a1.173,1.173,0,0,1-.9.353H32.442a1.413,1.413,0,0,0-.382.127,3.971,3.971,0,0,1-.622-.466,3.039,3.039,0,0,0-1.159-.509,2.744,2.744,0,0,0-.594.141,2.422,2.422,0,0,1,.269-1.116h0a.82.82,0,0,1,.834.1Zm-2.035-2.827c-.24.2-.452.424-.692.622a8.719,8.719,0,0,1-.707.65h-.622a.9.9,0,0,0,0,.1,9.553,9.553,0,0,1-1.809.565c-.41,0-.876.495-1.3,0H22.21c-.071,0-.113-.1-.2-.17s-.424.226-.664.353h0a1.167,1.167,0,0,0-.085-.495H20.175a3.971,3.971,0,0,0-1.526-.226c-.184-.155-.452-.269-.579-.481h0c-.141-.24-.071-.636-.24-.834s.254-.41,0-.636a.254.254,0,0,0-.113-.085h.876l.735.495a1.328,1.328,0,0,1,1.032.24c.2.184.481,0,.707.155s.071,0,.1.085,0,0,.1.1.551.17.791.339a.862.862,0,0,0,.551.1h2.219A5.738,5.738,0,0,0,26.86,55.8a11.306,11.306,0,0,1,1.625-.707l.3.3ZM20.119,51a.481.481,0,0,0,.622-.155l.254.24h0l-.141.184h.085c.622.085,1.116.466,1.724.579.311,0,.594.226.9.269a2.827,2.827,0,0,0,.763-.127l.184.127.919-.226.254-.254c.3-.085.636.113.89-.184s.41.339.636,0c.608,0,1.032-.4,1.583-.594h0a1.173,1.173,0,0,1-.452,1.286h0a.82.82,0,0,1,.141.17h-.1a1.668,1.668,0,0,0-1.795.141l-2.106.226c-.141.269-.254,0-.382,0s-.311.184-.438.155a7.251,7.251,0,0,1-.89-.325h-1.2c-.622-.24-1.215-.495-1.837-.707s-1.116-.622-1.823-.834l-.537-.594h0V49.74l.466-.184a6.8,6.8,0,0,0,.636.466,7.016,7.016,0,0,0,1.639,1Zm-2.94,1.95a2.118,2.118,0,0,1,.17-.622,1.413,1.413,0,0,1,1.032.1h.17a2.064,2.064,0,0,0,.424.1h0a.65.65,0,0,0,.2.3h0a.749.749,0,0,0,.24.113h.9l.579.311.3-.17.4.382a2.586,2.586,0,0,1,.636.1,1.95,1.95,0,0,0,1.1.24,1.715,1.715,0,0,1,.523.155c.466.141.89-.212,1.413-.2,0,0,.085-.113.127-.113.834.1,1.625-.24,2.487-.184h0v.325l-.579.707a2.827,2.827,0,0,0-1.2,0c-.424.24-.89,0-1.244.254-.4-.3-.777-.1-1.145,0l-.2-.184-.212.2-1-.509a11.266,11.266,0,0,1-1.922-.212,9.059,9.059,0,0,1-1.1-.452,4.466,4.466,0,0,0-1.2-.424c-.339,0-.65-.325-.947-.495ZM28.1,58.332a1.6,1.6,0,0,0-.452.311,1.5,1.5,0,0,1-1.018.452c-.325,0-.537.226-.848.3-.226-.17-.466-.113-.763,0a1.131,1.131,0,0,1-.82.1c-.325-.113-.565-.155-.82.071a7.9,7.9,0,0,0-2.827-.495l-.608-.353c-.155-.1-.339-.17-.65-.325H18.31c-.085-.325-.17-.636-.24-.848l.466-.692h0a2.385,2.385,0,0,1,1.2.537,3.293,3.293,0,0,0,1.314.339c.481.085.919.254,1.413.339a2.388,2.388,0,0,0,1.328,0,11.308,11.308,0,0,1,1.555-.127l.382.2c.579-.382,1.413.141,1.95-.424h0a3.152,3.152,0,0,0,0-.325h.127a3.341,3.341,0,0,0,.2.862Zm8.282-4.4a.155.155,0,0,0-.113,0h0c-.212,0-.452.141-.65.1a.269.269,0,0,1-.212-.17h0l-.311.184h0l-.184-.184h0l-.1.085L33.4,53.513a3.505,3.505,0,0,1-.523-.24L32.7,53.16a1.554,1.554,0,0,0-.353-.212,1.145,1.145,0,0,0-.692-.113h0c-.339-.791-.339-.806.113-1.23h0a1.3,1.3,0,0,0,.311.24c.226.113.481.184.721.3a1.017,1.017,0,0,1,.339.2,3.208,3.208,0,0,0,.481.269l.947.424c.113-.155.24-.339.382-.509h0l.071.269a.82.82,0,0,0,.367.184,9.383,9.383,0,0,0,1.314.1h0c.071.17.155.325.24.523Zm.438-4.24h0l-.141.283h.269v.876a5.724,5.724,0,0,1-1.639,1.413c-.226-.212-.452-.424-.749-.678l-.283.141a9.892,9.892,0,0,1-1.767-.579,2.3,2.3,0,0,1-.89-.777l.155-.226c-.226-.325,0-.707-.127-.989s-.438-.876-.692-1.413c.2,0,.466-.226.579-.155a1.272,1.272,0,0,0,.777.127,31.8,31.8,0,0,0,4.466,2.007ZM25.22,39.338a.763.763,0,0,1,.226-.424,1.668,1.668,0,0,1,.791-.155h0l-.226-.438h0a1.2,1.2,0,0,1,.155-.2l.608-.311c.283-.438.551-.89.848-1.286.1-.155.283-.212.41-.3h0a1.606,1.606,0,0,0-.141-.509h0a3.548,3.548,0,0,1,.325-.3c0,.17,0,.311,0,.466.876.212,1.032.226,1.413.127h0c-.141.65-.692.975-1.074,1.413h0a.9.9,0,0,1,.212.565c0,.2,0,.382,0,.579a4.028,4.028,0,0,0,.339.311h0l-.155.212h0c.495.424.862,1.032,1.54,1.258.481.622,1.413.721,1.738,1.328.636,0,.848.608,1.343.749h0c-.127.24-.24.438-.367.636h-2.12l-.947-.495h-.622a3.392,3.392,0,0,0-1.71-1.06L25.121,39.55h0a.565.565,0,0,1,.057-.184ZM20.232,44.5a3.477,3.477,0,0,0,.155-1.046,5.646,5.646,0,0,1,.226-1.074h0a4.142,4.142,0,0,1,.17.4l.664.254c.1-.155.17-.3.269-.481a1.032,1.032,0,0,0,.989.608,5.229,5.229,0,0,0,1.654.961,10.472,10.472,0,0,0,2.275.9c.353.085.551.424.933.438a2.064,2.064,0,0,1,.523.155v.367l.4.2h-.523c-.141.17-.269.311-.424.466h0v.537l.495.438v.41a4.438,4.438,0,0,1-2.657.438l-.367.367c-.495-.141-1.046-.226-1.569-.424a1.979,1.979,0,0,1-1.06-.523.466.466,0,0,0-.3-.1,1.7,1.7,0,0,1-.933-.622,4.409,4.409,0,0,1-.876-1.7,1.781,1.781,0,0,1-.085-.947Zm-8.07,9.511h0c0-.155-.1-.325,0-.367.424-.382.452-.961.777-1.413s.537-.622.806-.947.4-.3.452-.509a7.293,7.293,0,0,1,1.244-1.865,26.484,26.484,0,0,1,1.654-2.289c.184-.226,0-.678.452-.664l.4-.806h.481l.339.537a8.088,8.088,0,0,1-.17,1.116h-.2c-.537.622-1.1,1.23-1.569,1.894-.721,1.074-1.682,1.95-2.388,3.024a9.243,9.243,0,0,1-1.413,1.413Zm10.91,17.567c.1,0,.2.17.3.325a1.8,1.8,0,0,0,.184.269h1.032v.1h-.763c-.269.438.085.749.226,1.131a.933.933,0,0,0-.113.184.9.9,0,0,0,.141.763c-.127.17-.339.3-.438.495a.678.678,0,0,0,0,.24l.565.48-.071.127-.424-.1c-.141.141-.325.2-.466,0l-1.413.481a4.537,4.537,0,0,1-1.5-3.349c.382-.269.339-.707.551-.989a5.752,5.752,0,0,1,.89-.82C22.21,70.9,22.535,71.476,23.072,71.574Zm-.353-4.862-.565.636a.791.791,0,0,1-.424,0,.311.311,0,0,1-.17-.283.551.551,0,0,0-.212-.438.947.947,0,0,0-.382-.1h0c-.1,0-.2-.127-.3-.17h0l-.2.17h0l-.551-.339v-.565a1.286,1.286,0,0,1-.721-.636c-.141-.311-.523-.481-.664-.763s-.481-.41-.678-.65-.382-.523-.565-.777h-.41a3.053,3.053,0,0,1-.947-1.3c-.141-.481-.523-.848-.707-1.328a6.713,6.713,0,0,0-.876-1.258c-.127-.2-.4-.283-.636-.452.226-.565-.466-1.116,0-1.724-.1-.155-.184-.353-.3-.537l.141-.155-.367-.438c.212-.226.594-.212.551-.579.692-.82,1.046-1.894,2.035-2.487H16.1a.777.777,0,0,1,0,.24,12.21,12.21,0,0,1-.523,1.583,13.567,13.567,0,0,0-.509,1.512,4.578,4.578,0,0,1-.2.565c.438.438.311,1.088.537,1.639a.551.551,0,0,1,0,.495c-.325.4,0,.82-.184,1.2l.382.41v.4a4.649,4.649,0,0,0,1.032.763c.3.113.551.311.848.424l.3.1h0a3.505,3.505,0,0,1,.933.438l.226.1a1.1,1.1,0,0,0,.311,0h0a3.928,3.928,0,0,1,.4.509h0a14.9,14.9,0,0,1,1.654.24l.325.113a1.2,1.2,0,0,1,.791.777c0,.283-.113.622,0,.834s-.17.481,0,.777a2.982,2.982,0,0,0,.283.254,5.878,5.878,0,0,0,.014.806Zm1.159-2.94c.24-.311.424-.622.848-.523,0,.141.113.254.184.438h0l-.382.551C24.245,64.268,24.118,63.971,23.878,63.773ZM41.3,67.236l-.283.269c-.071,0-.141-.1-.2-.127h-.071a3.476,3.476,0,0,0-1.738.155.76.76,0,0,1-.452-.113l-.65.438a1.314,1.314,0,0,0-.311-.424,2.614,2.614,0,0,0-.452-.24H36.074a2.826,2.826,0,0,0-1.088,0c-.353.141-.579-.141-.9,0a3.208,3.208,0,0,1-1.1,0H31.849a.848.848,0,0,1-.1.452h-.3l.155-.2s0-.1-.071-.1c-.269,0-.481-.226-.777-.184a.735.735,0,0,1-.551-.113H29.46a1,1,0,0,0-.367-.113H26.945a6.714,6.714,0,0,1-.749,0,8.876,8.876,0,0,1-1.413-.339v-.353l.707-.353c-.085-.17-.155-.339-.269-.551h.707a2.982,2.982,0,0,0-.141.424,1,1,0,0,0,.933-.269c.17-.424.3-.749.424-1.032s-.127-.9-.17-1.286l.254-.254h.1c.24.141.495.438.678.4a.269.269,0,0,1,.353.127c.071.113.127.24.254.283.594.184,1.116.622,1.724.791a18.981,18.981,0,0,1,1.809.806l.269.1c.495-.1.523-.594.806-.82l.4-.382a1.074,1.074,0,0,1,.438-.254h0c.41-.085.509-.452.961-.523-.24-.24-.509-.283-.608-.481a.452.452,0,0,1,0-.254h0l.678.41c.155-.226.3-.41.41-.594l.1.085v-.707l.113-.127a.17.17,0,0,1,.127-.085c.353,0,.424-.311.537-.565.226-.495.452-1,.65-1.526a7.844,7.844,0,0,0,.367-1.187h.184c.071-.155.155-.311.212-.41-.141-.622-.24-1.159-.311-1.484l.269-.495h0l.438.452.495.509a2.049,2.049,0,0,1,0,.579c0,.184.155.325.113.481a.269.269,0,0,1-.127.17l.2.339c-.1.254-.311.481,0,.806a.862.862,0,0,1,.24.48.283.283,0,0,1,0,.184c-.226.254.085.424,0,.65a1.046,1.046,0,0,0,0,.749c.226.283-.184.382,0,.65s0,.735.212,1.032a1.413,1.413,0,0,1,0,1.173h0a1.215,1.215,0,0,0,0,.636,11.094,11.094,0,0,0,.353,1.187,4.041,4.041,0,0,1,.523,0,.749.749,0,0,1,.353.17c.254.424.89.24,1.046.763l-.085.113Zm2.007-1.23c.721.226,1.413.452,2.162.707v-.254h0s-.085-.1-.141-.1a1.348,1.348,0,0,1-.636-.141,6.134,6.134,0,0,0-.933-.382c-.311-.155-.579-.438-.975-.353a2.2,2.2,0,0,0-1.668-.495,1.258,1.258,0,0,1-.495-.2l-.41-.848h0l.353-.184v-.41h.579l.438.4.664-.226a.464.464,0,0,0,.071.3h0l-.4.141h0c.382.2.339.749.834.791.212.367.749.24.947.636h.721l.17.184.155.141a9.893,9.893,0,0,1,2.035.382l.212.071.438.127.834.113.41-.17v.17a8.709,8.709,0,0,1-.113.947c-.537,0-.537,0-1.413-.438-.155.127-.339.269-.523,0l-.17.17-.41-.4-.65.565a6.141,6.141,0,0,1-2.12-.749h0Z" transform="translate(0 0.091)" fill="#774234"/>
    <path id="Trazado_26248" data-name="Trazado 26248" d="M63.422,62.448a5.652,5.652,0,0,0-.735-.1c-.424-.325-.41-.777-.481-1.187h-.565a1.865,1.865,0,0,0-1.258-.509A2.463,2.463,0,0,1,58.97,60.5a2.441,2.441,0,0,0-.523.141,2.134,2.134,0,0,0-.537-.141h-.579a.82.82,0,0,0-.933,0c-.155.085-.17,0-.24,0a8.48,8.48,0,0,0-1.7,0c.481.438,1.06.184,1.413.481.085,0,.127-.113.184-.155a4.505,4.505,0,0,1,.283.452c.678,0,1.314.495,1.95,0,.127.226.254.382.367.551l.269-.17,1,.791a1.187,1.187,0,0,1,0,.325,1.414,1.414,0,0,1-.24.3,8.988,8.988,0,0,1-1.851,0,7.547,7.547,0,0,0-2.162-.311.876.876,0,0,1-.452-.155,5.1,5.1,0,0,0-.848-.184,4.664,4.664,0,0,0-.254.452c-.2-.254-.311-.41-.424-.579l-.933-.212c-.636-.184-1.286-.339-1.894-.579a12.508,12.508,0,0,0-1.682-.961A16.224,16.224,0,0,1,47,59.65h-.353l-.777-.678h-.495a10.274,10.274,0,0,0-2.827-2.261l-.848.283.254.283c.127-.466.481.113.65-.155l.325.24-.311.113.141.636c.2.325.3.65.509.763a.82.82,0,0,1,.481.579c0,.438.353.664.551.975a11.152,11.152,0,0,1,.693.919c.17.339.565.523.537.989,0,.1.269.226.424.339a2.572,2.572,0,0,0-.127.862,1.54,1.54,0,0,0,0,.254v.339a1,1,0,0,0,.085.311l-.113.127a.891.891,0,0,0,.155.17l-.127.155a4.653,4.653,0,0,0,.141.834c.042.254-.113.509.141.707-.269.24.1.438,0,.707s.141.509.226.763a1.526,1.526,0,0,1,.212-.184.916.916,0,0,0,.1.495H47.4c.127-.127.269-.254.339-.339.155-.82.311-1.569.452-2.261l.594-.636h.452c-.071.24-.127.41-.17.608.212.269.466.565.82.961v.509l1.724-.565.481.24v.594h.438a1.866,1.866,0,0,1,.89-1.1c.127-.1.382.594.608.127l.622.424a1.413,1.413,0,0,0-.155.523c0,.141.184.3.283.424l.495-.24a6.2,6.2,0,0,0,.608,1.894h.735l.763-1.1-.127-.141a5.652,5.652,0,0,0,.3-1.286c0-.537.4-.961.382-1.413,0-.085.141-.2.226-.226a3.067,3.067,0,0,1,.791-.184,10.953,10.953,0,0,0,2.968-.226l.82-.777v-.339h.254l.339-.622-.17-.2C63.323,62.773,63.323,62.617,63.422,62.448Z" transform="translate(16.039 15.026)" fill="#774234"/>
    <path id="Trazado_26249" data-name="Trazado 26249" d="M43.9,48.474a1.216,1.216,0,0,0,.1-.141c.1.212.184.438.3.749.311-.41.509-.692.763-1.018l-.367-.254c0-.664.4-1.116.495-1.682a1.936,1.936,0,0,1-.339-1.272c0-.325,0-.636,0-.806a3.491,3.491,0,0,1,.622-2.007,1.413,1.413,0,0,0-.17-.226c0-.311.212-.636.113-.834a2.063,2.063,0,0,1,.339-2.106c0-.085-.127-.17-.212-.311l.537-.353c-.1-.17-.3-.353-.283-.537A.848.848,0,0,0,45.458,37a12.168,12.168,0,0,0,1.116-.65,3.477,3.477,0,0,0,.4-.579c-.325-.269.127-.382.127-.594a3.208,3.208,0,0,1,.17-.707c.1-.424.481-.594.749-.947-.141-.537.325-.89.523-1.3L48.355,32,49.57,29.96v-.41c.466.071.41-.523.777-.579a.353.353,0,0,0,.184-.17,2.713,2.713,0,0,0,.17-.353,2.248,2.248,0,0,0,0-.325,13.566,13.566,0,0,1,.933-1.145c.17-.17-.141-.608.339-.537.17-.24.367-.466.523-.707l.523-.82a.212.212,0,0,0,.127,0,1.23,1.23,0,0,0,.24-.226,1.724,1.724,0,0,1,1.116-1,2.275,2.275,0,0,0,1.074-.707c.41-.495.862-.961,1.286-1.413L55.45,20.35a1.851,1.851,0,0,1-.24.438,5.371,5.371,0,0,0-1.1.876c-.3.382-.777.579-1.032,1,.113.353-.155.565-.4.678a1.512,1.512,0,0,0-.65.579c-.113.226-.41.339-.452.509s.071.367.1.551a3.758,3.758,0,0,1-.311-.226c-.226.1-.184.382-.466.424s-.254.3-.382.466a4.12,4.12,0,0,1-.4.452,1.8,1.8,0,0,0-.82,1.625.366.366,0,0,1-.113.212l-.537.17.113.226v.071c-.1.24-.41.339-.41.678s-.339.325-.452.551l-.4.848v.678l-.65.523a1.767,1.767,0,0,0,.212.269l-.367.424.17.226-.692.636a2.374,2.374,0,0,1-.254,1.6l-.283.085v1.074a3.236,3.236,0,0,0-1.131,1.71l.141.226c-.212.3-.382.608-.594.919l.438.339c-.367.3,0,.89-.551,1.046l.184.226c-.085.325-.438.565-.325.9a1.215,1.215,0,0,1,0,.551,2.614,2.614,0,0,0,.141.707,6.533,6.533,0,0,0,.141.933l-.155.2.226.4-.4.452.17.311-.141.155c0,.085.155.141.226.226v.085h0a.2.2,0,0,1,0,.085v.071a.523.523,0,0,1,0,.226h-.269l.184.269a3.716,3.716,0,0,1-.212.367l.212.353-.382.438A8.32,8.32,0,0,1,43.9,48.474Z" transform="translate(16.804)" fill="#774234"/>
    <path id="Trazado_26250" data-name="Trazado 26250" d="M10.645,66.868c0-.4.283-.48.537-.622a6.547,6.547,0,0,0-.2-1.116l.41-.495c-.1-.17-.184-.269-.24-.382a4.239,4.239,0,0,0,.353-.4l-.367-.608A4.084,4.084,0,0,0,10.009,64.9c0,.085.113.127.155.184a4.479,4.479,0,0,0-.184.509l.325.113a4.5,4.5,0,0,1-.226.452h-.4c-.212.353-.17.834-.551,1.074A1.413,1.413,0,0,1,8.61,68.3c.226.594-.155,1.018-.17,1.484.071.113.155.212.226.311l.24-.127a1.255,1.255,0,0,0,.1.579l.537-.184c.17-.65.339-1.187.481-1.71.551-.127.862-.367.806-.692h-.452l-.2-.452C10.334,67.221,10.645,67.136,10.645,66.868Z" transform="translate(2.294 17.729)" fill="#774234"/>
    <path id="Trazado_26251" data-name="Trazado 26251" d="M44.214,47.757a7.856,7.856,0,0,1,.17-1.088,1.145,1.145,0,0,1-.113-.353,2.714,2.714,0,0,1,0-1.018c.141-.325-.212-.594,0-.919l.226-.226a1.827,1.827,0,0,0-.17-.594l-.594-.17v.947a3.986,3.986,0,0,1,.382.127l-.579.339v.551l.353.127-.382.17v.777L42.9,47.446l.608.579A4.753,4.753,0,0,0,44.214,47.757Z" transform="translate(16.535 9.521)" fill="#774234"/>
    <path id="Trazado_26252" data-name="Trazado 26252" d="M28.559,66.093l-.537-.353a2.627,2.627,0,0,0,.155-.269l-.876-.636-.24.184v-.65l-.254-.269-.537.579.17.594a2.828,2.828,0,0,0,.382-.212c.1.438.2.806.325,1.272s.678.325,1.046.537a6.854,6.854,0,0,0,.367-.777Z" transform="translate(9.663 18.08)" fill="#774234"/>
    <path id="Trazado_26253" data-name="Trazado 26253" d="M29.232,67.6l-.24-.24.283-.113c-.113-.127-.24-.3-.382-.438-.2.24-.438.1-.678.1a3.158,3.158,0,0,1,.2-.763l-.933.339.382.452-.212.3c.636,0,.523.777.919,1.06l.481.1v.382l.325-.071a2.121,2.121,0,0,1-.2-.283.608.608,0,0,0,.057-.82Z" transform="translate(10.163 18.923)" fill="#774234"/>
    <path id="Trazado_26254" data-name="Trazado 26254" d="M30.319,28.269c-.3,0-.424.339-.622.495s-.2.579-.3.876c.325.283.636.537,1.06.438.141,0,.269-.212.4-.339l-.353-.4c.113-.367.212-.721.311-1.173Z" transform="translate(10.956 3.232)" fill="#774234"/>
    <path id="Trazado_26255" data-name="Trazado 26255" d="M12.746,63.4a1.413,1.413,0,0,0-.4,1.413l-.481.452.269.1a1.969,1.969,0,0,0,.085.622c.367-.834.678-1.512.961-2.176a.989.989,0,0,0,0-.353Z" transform="translate(3.712 17.791)" fill="#774234"/>
    <path id="Trazado_26256" data-name="Trazado 26256" d="M11.743,66.05c-.495.749-.975,1.413-1.413,2.176a1.413,1.413,0,0,0,.452,0,.5.5,0,0,0,.212-.1,1.682,1.682,0,0,0,.41-.636l-.127-.1.495-.325c.071-.269.4-.565.127-.933Z" transform="translate(3.076 18.886)" fill="#774234"/>
    <path id="Trazado_26257" data-name="Trazado 26257" d="M11.976,51.8c-.636-.17-.65-.848-1.088-1.258H10.28v.466l1.272,1.018A3.662,3.662,0,0,1,11.976,51.8Z" transform="translate(3.055 12.476)" fill="#774234"/>
    <path id="Trazado_26258" data-name="Trazado 26258" d="M29.39,55.376h1.54l.678-.466H29.644Z" transform="translate(10.952 14.282)" fill="#774234"/>
    <path id="Trazado_26259" data-name="Trazado 26259" d="M44.414,43.519c-.113-.155-.212-.155-.212-.283a1.512,1.512,0,0,0,.184-1.1l-.226.184-.353-.2c-.113.353-.184.65-.3.975.155.155.339.3.509.452Z" transform="translate(16.787 8.997)" fill="#774234"/>
    <path id="Trazado_26260" data-name="Trazado 26260" d="M21.27,62.021l.876,1.032H22.5v-.41l-.933-.933Q21.426,61.873,21.27,62.021Z" transform="translate(7.597 17.092)" fill="#774234"/>
  </g>
</svg>
