<svg id="Calavera_blondie" xmlns="http://www.w3.org/2000/svg" width="57.104" height="74.057" viewBox="0 0 57.104 74.057">
  <path id="Trazado_26132" data-name="Trazado 26132" d="M34.91,9.64V9.62h0Z" transform="translate(-1.423 -6.553)" fill="#774234"/>
  <path id="Trazado_26133" data-name="Trazado 26133" d="M25.8,11.84h0a.12.12,0,0,0,.09,0l.21-.21a1.12,1.12,0,0,1-.32.13.1.1,0,0,0,.02.08Z" transform="translate(-1.423 -6.553)" fill="#774234"/>
  <path id="Trazado_26134" data-name="Trazado 26134" d="M58.49,16.81c-2.27-2.35-2.46-2.53-2.94-2.63a5.38,5.38,0,0,0-1.16-1,.75.75,0,0,1-.28-.28c-.24-.28-.72-.78-1-.8s-.54-.34-.86-.41a5.89,5.89,0,0,1-1-.32l-.13-.26a.67.67,0,0,0-.13-.15,2.28,2.28,0,0,0-.22-.22l-.17-.13a4.73,4.73,0,0,1-.91-.65h-.51l-1.68-.9-.11.11c-.47-.11-.84-.56-1.42-.48l-.44-.49a1.14,1.14,0,0,0-.19.15L45,8c-.7.24-1.26-.3-2-.34-.06-.15-.11-.33-.21-.59l-.35-.3c-.22-.06-.52.11-.76-.15a.41.41,0,0,0-.45,0c-.26.26-.54.11-.82.15a3.968,3.968,0,0,1-.69,0c.06.28.13.52.17.74A2.48,2.48,0,0,1,38.1,7.2c-.37.46-.71-.06-1.08,0s-.82-.13-1.17.13a5.259,5.259,0,0,0-.47-.24c-.17.08-.32.17-.39.21l-.58-.08a2.33,2.33,0,0,1-.09.28c-.41-.07-.8-.11-1.1-.15l-.34.34H32.4a1.7,1.7,0,0,1-.3-.28,7.65,7.65,0,0,0-1.73.61c-.11-.11-.21-.22-.32-.31C29,7.63,28,8.15,27,8.07a2.94,2.94,0,0,0-.31.3c-.08.11-.13.24-.26.47-.1-.34-.26-.28-.38-.15a.35.35,0,0,0-.52-.08,1.2,1.2,0,0,0-.05.23,1.93,1.93,0,0,0-1.21.28,1.77,1.77,0,0,1-.08.22h-.5a2.21,2.21,0,0,1-1.27.76.36.36,0,0,0-.56,0c-.09.08-.2.19-.31.19a8.57,8.57,0,0,0-1,.28,9.17,9.17,0,0,1-1.79.54l-.11.3c-.39-.43-.73.05-1.14,0-.07-.09-.18-.21-.24-.3a2.543,2.543,0,0,1-1.51-.2,2.05,2.05,0,0,1-.09.48,3.19,3.19,0,0,0-.34.13l.49.26a4.31,4.31,0,0,0,.09-.56,8.941,8.941,0,0,1,.71,1c-.08.3-.15.56-.21.82-.44,0-.44,0-.69.28.32.15.69.21.84.65a.55.55,0,0,0,.56.34,1.24,1.24,0,0,1,.56.28,3.53,3.53,0,0,1,.17-.37c.18.16.3.29.43.39s.18-.13.24-.13a1.55,1.55,0,0,0,.89-.17,1.64,1.64,0,0,1,.95-.15l2.22.15a2.24,2.24,0,0,1,.41.17.69.69,0,0,0,.17-.17.71.71,0,0,1,.15.15.27.27,0,0,0,.13-.13c.37.15.76.2,1.08.33a10.06,10.06,0,0,0,1.1.36,9,9,0,0,0,1.17.18l1.62-.52.06.06,1.34-.45a1.87,1.87,0,0,1,1.54-.11l.51-.52c.63.22,1-.43,1.6-.3.13-.24.26-.45.35-.65-.33-.41-.63-.8-.93-1.16.3-.22,0-.59.21-.89l.59.18.39-.16c.06.54.13,1,.19,1.54l-.3.23v.67L34,13c.13.17.24.34.37.52.28-.31.63-.11.89-.24s.49,0,.75,0a2.72,2.72,0,0,1,.82.3c.07,0,.11-.1.18-.15.49.28,1.05.11,1.57.17.35.37.5.87.84,1.24l.11-.13h0a.69.69,0,0,0-.13.11h0a.78.78,0,0,0,.28.6l.2.13a1.671,1.671,0,0,1-.15.5h.13c.08-.22.17-.43.3-.71v.95c-.24.1-.43.19-.67.28l.13.23a4.586,4.586,0,0,1-.09,1.13l.18.06.47.18a8.131,8.131,0,0,1,0,.84.44.44,0,0,1-.06.23,1.84,1.84,0,0,0-.11.83c0,.15.13.32.13.47a2.31,2.31,0,0,1-.06.52,1.32,1.32,0,0,0,.13.93,1.5,1.5,0,0,1,.1.43v.45c.28.35.06.67.15,1.19l-.65-.52a2,2,0,0,0-.17-1.12,1.12,1.12,0,0,0-.22-.11c-.09.19-.19.35-.26.52.26.3.17.6.13,1-.28,0-.47-.35-.75-.09a2,2,0,0,1,0,.35v.11a.38.38,0,0,0,.17.32.32.32,0,0,0-.13.13c-.09.15,0,.34,0,.5a1.14,1.14,0,0,1,0,.58c-.09.21.06.49,0,.69a4.5,4.5,0,0,0-.13,1.7c.1.24.17.33.19.42l.28-.42.37.72c.11.19.39.15.45.43s.37.3.61.45c-.07.24-.11.5-.18.76.09.17.22.39.33.6-.13.35-.24.65-.37,1a3,3,0,0,1,.45.08c.07.24.13.46.2.69l-.8-.1c.15.49.26.93.39,1.34a4.139,4.139,0,0,0,.41.82c-.24.19-.13.43-.13.64l.28.11v.48a2.5,2.5,0,0,1,.28.3v.39c-.48.13-.65-.37-1-.41a3.55,3.55,0,0,0-.41.21,2.6,2.6,0,0,1-.63-.11,5,5,0,0,1,0,.52h1.19a.422.422,0,0,1-.11.54l-1.62-.32v-.39c-.19.11-.37.22-.54.3-.11-.15-.21-.3-.32-.47-.37,0-.71.36-1.08,0l-.48.26-.15-.13L36,37l-.66-.33c-.48-.75-1.45-.75-1.95-1.4a3.84,3.84,0,0,1-.52.19.82.82,0,0,0-.58,1,1.93,1.93,0,0,1,0,1.36c-.09-.26-.15-.5-.24-.78L31.54,37c.33-.54.18-1.15.41-1.71.05-.13.26-.34.05-.58s0-.37.28-.5v.58l.36.26c.41-.43.18-1,.5-1.42a.84.84,0,0,0-1,.52v-.91c-.17-.17-.26-.26-.43-.41H33c.17-.15.3-.26.43-.39a.18.18,0,0,0,.09,0,.352.352,0,0,1,.1.09h0a3.6,3.6,0,0,1,.82-.16h.22a1,1,0,0,1,.41.05l.49-.78a6.1,6.1,0,0,0,.63-.22V31h-.54l-.3.3H33.9c-.11.13-.26.33-.39.46H33c-.2-.2-.39-.41-.56-.61l-.48.24c-.21-.26-.43-.5-.56-.65-.37-.11-.6-.15-.82-.24-.06,0-.11-.15-.19-.3a2.33,2.33,0,0,1,.77,0c.2.09.37,0,.54.07a5.047,5.047,0,0,0,.76.11c0,.06.15.17.26.32h.52a.476.476,0,0,0,.06.28h.35a.73.73,0,0,0,.8-.47c.49,0,1-.22,1.51-.2a.77.77,0,0,0,.64-.43c.2-.34.35-.76.76-.88.09-.33-.15-.46-.28-.61a12.409,12.409,0,0,0,.75-1c-.28-.26-.1-.54-.15-.71-.41-.67-.62-1.45-1.49-1.45l-.88-.78v-.28a2.924,2.924,0,0,1-.46-.08,3.22,3.22,0,0,1,0-.44c0-.06.07-.13.11-.19a1.52,1.52,0,0,0,.22-.93,10.45,10.45,0,0,1,.11-1.45,1.93,1.93,0,0,0-.31-1.81,4.38,4.38,0,0,0-.71-.19,2.18,2.18,0,0,1-.8-.15.83.83,0,0,0-.69,0c-.3.19-.6.08-.88.15a3.23,3.23,0,0,1-1.45,0,.68.68,0,0,0-.52.08,1.15,1.15,0,0,1-.75.2c-.33-.13-.57.17-.82,0L28,19.25c-.28.32-.63,0-.95,0-.26.49-.76.9-.39,1.55-.15.24.09.43,0,.67a3.21,3.21,0,0,0,.13.73l-.34.18a4.25,4.25,0,0,0,.21.43c-.08.09-.19.15-.3.26-.11-.24.11-.63-.24-.74a5.35,5.35,0,0,1-.41.74c-.1.19-.21.41-.32.6a1.15,1.15,0,0,1,.17.48v.11a.48.48,0,0,1-.06.21,1.236,1.236,0,0,0-.11.17H26a.72.72,0,0,1,.21-.69l.09-.06v-.3c0-.1.17,0,.26,0a2.19,2.19,0,0,0,0,.31h-.32c.11.6.15.75-.11,1l-.09.09L26,25.1a.389.389,0,0,1-.11.09c-.05.02-.06,0-.1,0-.28-.35-.44.13-.63.09-.3.28,0,1-.78.88a1.44,1.44,0,0,0,0,1.47c.37.32.69.35.95.17l.41.07a1.18,1.18,0,0,1-.15-.33,1.1,1.1,0,0,1,0-.26h.39c.11.33.19.63.28.95a2.92,2.92,0,0,1,.93.85A3.35,3.35,0,0,0,28,30a8.81,8.81,0,0,1,.95.78c.15-.09.24-.18.35-.24-.07-.07-.15-.11-.15-.15a2.76,2.76,0,0,0-.8-1.56,3.51,3.51,0,0,1-.5-.73,3.19,3.19,0,0,0-.3-.45c.19-.22.41-.44.67-.69-.15-.18-.33-.35-.5-.52.17-.3.35-.61.56-1,.24.26.54.11.78.26,0-.11.11-.22.13-.28a2.62,2.62,0,0,0,1,.08c.28-.08.58.15.8-.08a4,4,0,0,1,.41.21c-.34.48-.15.95-.21,1.51L32.52,27a5.331,5.331,0,0,0,.28.58l.88.41c.09-.13.15-.26.26-.43a2.14,2.14,0,0,0,.65,1,.33.33,0,0,1,.06.15l-.41.5a.7.7,0,0,1-.06-.09l-.93.33a7.68,7.68,0,0,0-1.43-.76.94.94,0,0,0-1,0l-.21.13c-.22-.1-.41-.21-.46-.23l-1,.15c-.26.41.34.52.28.88s.19.59.41.84a6.7,6.7,0,0,1,.56.8l-.39.2v.37c-.41-.09-.82-.18-1.16-.24l-.31.13c.18.17.37.39.59.6h.36l.33-.3a1.26,1.26,0,0,1,.17,1.1l-.26.22a8.06,8.06,0,0,1,0,1.21c-.06.36.15.69,0,1.05a4.57,4.57,0,0,0,0,1.17v.52c-.58-.26-1-.67-1.53-.59-.37-.28-.78-.43-.91-.71a4.36,4.36,0,0,0-1.47-1.4,3.92,3.92,0,0,0-1.92-.89,11.409,11.409,0,0,1-.8,1.41,13.609,13.609,0,0,1-1.19,1.21c0,.32-.06.51-.41.56a.484.484,0,0,0-.36.21c0,.26-.35.33-.33.5s-.37.13-.34.41-.35,0-.5.22-.63.43-.84.82a4,4,0,0,1-.71.79,7.25,7.25,0,0,0-.87,1.26h-.54c.07.47,0,.93-.39,1.06a2.21,2.21,0,0,0-1,1c.06.13.13.24.19.37-.54.32-.56.92-.62,1.44a14.968,14.968,0,0,1-.46,1.6s.11.11.11.17a1.71,1.71,0,0,0,.15,1s0,.2,0,.22c-.32.24-.06.58-.19.86a2.92,2.92,0,0,0-.24.76c.39.28-.09.54,0,.82a1.71,1.71,0,0,1-.35,1.34c-.17.24,0,.52-.08.6-.28.13-.44.26-.59.26s-.3.26-.49.33-.39,0-.59.12-.39,0-.56.13a1.53,1.53,0,0,0-.73.52c-.15.22-.54.28-.84.41-.07,0-.11.11-.16.18s-.06.17-.12.21a1.23,1.23,0,0,1-.29.13l-.12-.13c-.26.33-1,.2-.85.93.35-.13.65.45,1,0a5.92,5.92,0,0,1,.32.52l.3-.17c.35.26.76.06,1.13.13a1.1,1.1,0,0,1,.13-.37c.13.3.36.19.56.19s.24-.1.41,0,.3-.15.41-.22a1.18,1.18,0,0,0,1.42-.32c.35,0,.63-.11.89-.11a1.34,1.34,0,0,1,.65.07c.23.15.45-.22.75,0,.13.08.43-.13.65-.22v-.5c-.56-.17-1-.67-1.58-.51l-.83-.5c.25-.18.49-.35.75-.52a2,2,0,0,1,.11.3c.28-.07.43.19.65.28A.88.88,0,0,1,17,54l.58-.37a4.156,4.156,0,0,0-.12-.69,4.34,4.34,0,0,0,.21-.43l-.15-.15c.11-.26.24-.52.32-.78a3.72,3.72,0,0,0,.22-.84A2,2,0,0,1,18.3,50c.13-.26,0-.58.11-.88a3.19,3.19,0,0,0,.12-.89c.05-.3.09-.6.16-1,.1-.15.23-.37.41-.62a2,2,0,0,1,.15-1,6.49,6.49,0,0,0,.3-1c-.32-.32.11-.62,0-.9.18-.26.31-.5.48-.72a12.94,12.94,0,0,1,.84-1c.17-.19.52-.37.52-.56s.26-.37.36-.56a9,9,0,0,1,1-1.28h.37a4.75,4.75,0,0,0-.15.52c.19.17.36.3.54.45a.59.59,0,0,0,0-.35,1.85,1.85,0,0,1,0-.47.78.78,0,0,1,.61-.61v1.19c-.15.32-.26.54-.39.78l-.48.19c-.13.59-.21,1.06-.32,1.58a.484.484,0,0,1,.09.13,2.91,2.91,0,0,1,.15.56c0,.17-.05.37.15.5-.28.17,0,.38,0,.49a1.63,1.63,0,0,1,.13.89,1.62,1.62,0,0,0,.34,1.06V48c.52.31,1.15.16,1.65.52a.46.46,0,0,0,.62-.13,2.13,2.13,0,0,1,.22.18,3.241,3.241,0,0,1,.36-.2l.39.28c-.19.22-.3.37-.41.48v.64a3.47,3.47,0,0,1,.26.24c.26-.11.43-.3.69-.08-.06.36-.15.75-.23,1.14l-.29.06a19.59,19.59,0,0,0,.41,2.62l-.32.64-.8-.79a1.24,1.24,0,0,1-1.12-.35h-.58c-.13-.19-.24-.32-.31-.41-.3,0-.58-.17-.73-.09-.3.16-.47-.08-.63-.1-.17.19-.3.32-.41.47.18.26,0,.61.09,1A10.2,10.2,0,0,1,21.53,54v-.7l-.5-.22a1.082,1.082,0,0,0-.22,1l.44.24a2.26,2.26,0,0,1,0,.69c0,.22.28.39.07.54.11.13.21.28.37.47.08-.36.41-.47.54-.75s.25-.58.38-.87h.22v.57a2.851,2.851,0,0,1-.32.1l.15.18-.37.41a2.27,2.27,0,0,1,.28.39,2.32,2.32,0,0,1,.59-.22h.64c-.08.11-.13.13-.15.17a3.05,3.05,0,0,1-1.53,1.86,3,3,0,0,0-.41.28c-.39.41-.54,1.06-1.23,1.21a.53.53,0,0,0-.35.54,1.23,1.23,0,0,1-.15.47c0,.13-.19.26,0,.44a4.019,4.019,0,0,1-.28.34c-.11.11-.28.24-.41.35a.22.22,0,0,0,0,.13h0a.362.362,0,0,1-.09.28h-.07l-.15-.16a14.489,14.489,0,0,0-1.66,2.38,2.271,2.271,0,0,0-.34.15l-.72-.26c-.34.15-.67.3-.73.71l.6.41h.69l-.34.52-.93-.3v-.09h-.67l-.28-.3a2,2,0,0,1-1.64-.5h-.73l-.3-.3a2.8,2.8,0,0,1-1.82-.34c-.11.06-.19.13-.28.19-.54-.34-1.14-.06-1.73-.19-.06-.09-.15-.18-.19-.24.17-.2.28-.37.41-.52l.88.32a.87.87,0,0,1,1,0c.13-.21.37-.17.56-.13a2.44,2.44,0,0,1,.56.28.59.59,0,0,0,.17-.13l1.82.8.19-.15a1.38,1.38,0,0,0,1.49.59c.11-.2.22-.44.32-.65a3.75,3.75,0,0,0-.41-.26,2,2,0,0,0-.66-.3,1.48,1.48,0,0,1-.91-.48h-1a2.1,2.1,0,0,1-.24-.3c-.84-.07-1.58-.56-2.51-.39-.19-.11-.49-.26-.8-.41a3.22,3.22,0,0,1-1.7.09,1.33,1.33,0,0,0-.58.13c-.26.08-.13.36-.22.54-.35.17-.37.17-.43.43a.92.92,0,0,1-.61.6,13.57,13.57,0,0,0-.69,2.16,2.46,2.46,0,0,1-.55.97A1.6,1.6,0,0,0,3.58,68a.844.844,0,0,1-.06.37c0,.51-.43.9-.52,1.38.26.21.58.34.71.58s.52.28.59.54h.52v-.15c.24-.22.47-.43.73-.63.07-.06.18-.08.26-.15.33-.19.5-.58.89-.69a19.02,19.02,0,0,0,1-1.62,2.61,2.61,0,0,1,.61-.9c.13-.13.28-.35.36-.37.35,0,.15-.45.43-.48h.67a2.55,2.55,0,0,1,.11.33c.22-.35.41.13.65,0s.52.08.8.13a5.34,5.34,0,0,0,.8,0,.8.8,0,0,0,.08.26,5.91,5.91,0,0,0,1.1.19,3.81,3.81,0,0,1,2.1.63l.24-.24c.58.09,1.16.11,1.51.58.34-.08.65-.15,1-.24l1.19-1.18h.32c.37-.41.86-.72.89-1.36,0-.09.13-.15.21-.22A3.38,3.38,0,0,0,21.4,64c.08-.11,0-.41.3-.37.21-.37.69-.5.86-.86a1.3,1.3,0,0,1,.48-.59,2.62,2.62,0,0,0,.8-.86,2.07,2.07,0,0,1,1-.86,2,2,0,0,0,.56-.35c.22-.21.39-.47.61-.67s.47-.37.66-.58.39-.52.61-.78a1.64,1.64,0,0,0,.5.17c.43,0,.49,0,.66.24a1.54,1.54,0,0,0,1.11.63c.21.34.6.54.9.9h.41a4.33,4.33,0,0,1,.76,1.24l.71.06c-.15.22-.28.37-.39.54.33,0,.48.43.87.41.13,0,.36.26.36.37,0,.43.33.56.54.8a6.1,6.1,0,0,0,.61.56.664.664,0,0,1-.05.36c-.32.5-.95.5-1.44.8a3.71,3.71,0,0,1,.21.48.436.436,0,0,1-.06.24c-.15-.09-.28-.13-.41-.2-.87.3-1.15,1.25-1.92,1.69.06.28.1.56.17.9-.17-.17-.28-.26-.45-.41-.37.76-1.17,1.21-1.34,2l-.52.24a2.7,2.7,0,0,1-.19.32c-.18.28-.46.54-.48.82a2,2,0,0,1-.65,1.26v.77c-.11.11-.21.22-.32.35v.63l-.33.32c.22.58-.45,1-.3,1.58l-.36.36H24.53c-.09-.11-.18-.19-.31-.36-.17.19-.3.38-.45.56-.3-.11-.65.13-.91-.18-.25.39-.47-.06-.73,0a2.73,2.73,0,0,1-.88-.11.69.69,0,0,0-.13.11l-.33-.32-.45.13-.41-.11-.52-.11c0,.48-.54.56-.58,1h1.62c.49.39,1.18-.09,1.62.37-.05.23-.09.45-.16.73l-.51.35c.23.13.43.23.58.3l.43-.22c0-.28.09-.56.11-.86a2.433,2.433,0,0,0-.09-.3.35.35,0,0,0,.11-.07l.22.37v.67l.23.24.35-.33.24.37-.07.06-.17.18h0l-.24-.18a2.85,2.85,0,0,1-1.06.37c-.64.09-.62.13-.92,0a.58.58,0,0,1-.72.13,1.81,1.81,0,0,0-.82-.13,2.33,2.33,0,0,1-.84,0,1.16,1.16,0,0,0-.73.06,5.75,5.75,0,0,1-1.36.13,1.86,1.86,0,0,1-.56-.15c-.07,0-.11.11-.18.15a1.3,1.3,0,0,1-.19-.17l-.84,1c.13.11.21.2.3.29a2.24,2.24,0,0,1,.19-.13,2.881,2.881,0,0,0,.52.08h.95a2.14,2.14,0,0,0,.89-.13c.26-.11.54.26,1,.07a3.422,3.422,0,0,0,.17-.33c.07.2.11.28.13.33.45.23.89-.41,1.3,0,.06,0,.1-.11.1-.09.39,0,.74.16,1,0a1.77,1.77,0,0,1,.67-.09c.21,0,.52.17.6.09.3-.28.46.19.78,0,.15-.11.41-.26.6-.39h1.75l.33.32.51-.19a1,1,0,0,0,.95.13,6.11,6.11,0,0,1,2-.13c.11,0,.22.11.32.15h.1a2.331,2.331,0,0,0,.11-.28h.35l.36.34a4.771,4.771,0,0,1,.54-.15c.2,0,.37.26.61,0,0-.21-.35-.41-.11-.67l1.81.78a4.081,4.081,0,0,0,.78-.26c.22.09.48.17.8.28v-.45c-.24-.39-.73-.41-1.1-.67a2.63,2.63,0,0,0-.8-.35,4.78,4.78,0,0,1-1.68-.67c-.13-.1-.39-.08-.61-.15-.21-.39-.82-.43-1-1,.26-.13.56-.21.47-.67L30.16,76a3,3,0,0,1,.3-1.83.53.53,0,0,1,.39-.33,1,1,0,0,0,.89-.69.37.37,0,0,1,.28-.24c.26,0,.37-.15.52-.28l.9-.62c.28-.33,0-.91.5-1.1v-.52l.76-.26v-.22a3,3,0,0,0,.32,0c.28-.24.54-.41.76-.63a2.54,2.54,0,0,0,.6-.58,8.329,8.329,0,0,1,.5-.67,3.41,3.41,0,0,0,.45-.65,7,7,0,0,0,.39-.82c-.21-.13-.37-.23-.52-.34a2.53,2.53,0,0,1-.19-1.08c-.2-.56-.32-.95-.45-1.34-.09-.22-.11-.54-.29-.65a1.53,1.53,0,0,1-.41-.62,3.12,3.12,0,0,1-.38-.78,1.47,1.47,0,0,0-.33-.89c-.26-.21-.15-.64-.49-.82-.07,0-.09-.17-.13-.26a3.56,3.56,0,0,0-1.26-1.55,1.35,1.35,0,0,1,.2-1.06c.21-.24.49-.43.73-.67a5.1,5.1,0,0,0,.5-.5,2.9,2.9,0,0,1,1.38-1.13c.3-.41.17-.88.19-1.31-.49-.43-1-.74-1.64-.37-.21-.37-.67,0-.91-.28-.34.19-.56-.24-.88-.19a18.45,18.45,0,0,1-2.22,1c.06.56-.39.56-.65.71l-.61-.54c-.08-.75.61-1.21.65-1.9-.15-.06-.3-.15-.39-.19a1.69,1.69,0,0,1-.3.13c-.13-.13-.24-.24-.39-.37H28v-.65c.45,0,.91.07,1.38.09.24.17.5.39.78.6h.37a6.75,6.75,0,0,1-.18-1.08c0-.36-.12-.77.13-1.05a3.73,3.73,0,0,0-1.14-2.31l.78-.26a.84.84,0,0,1,.06.19l1.17.61a1.74,1.74,0,0,1,.15-.13c.32.13.58.51.95.17.45.21.93.32,1.36.56.24.13.58.37.82.19.32-.67.63-1.23.91-1.79-.24-.17,0-.32,0-.49a3.294,3.294,0,0,0-.15-.63c-.06-.24.19-.24.34-.39-.06-.26-.13-.52-.19-.8s.19-.37.32-.6a5.76,5.76,0,0,0,0-.59c0-.1-.13-.21-.15-.32s-.07-.34,0-.45a2.58,2.58,0,0,0,.3-1.6c.13,0,.22-.09.37-.13-.13-.32-.24-.63-.39-1,.35-.15.76.06,1.1-.17a2.24,2.24,0,0,0,.2.21c.47-.06.88-.13,1.34-.21,0,0,.15.13.25.1a2.4,2.4,0,0,1,1.52.39,1.4,1.4,0,0,0,.23.54,2.19,2.19,0,0,0,.22.2.77.77,0,0,0,.19.08.37.37,0,0,1,.11,0l.07-.07h0A4.36,4.36,0,0,1,43,41.6c.41-.24.86.38,1.32,0a.7.7,0,0,0,.77.11v-.39c-.17.07-.32.11-.51.18a3.851,3.851,0,0,1-.26-.35H43.15a.72.72,0,0,1-.32-.15.37.37,0,0,1-.07-.13l.56-.32a4.56,4.56,0,0,0,1.41.13c.1-.13.17-.24.28-.37-.18-.11-.28-.2-.39-.26v-.69c0-.19-.15-.39-.15-.56a4.68,4.68,0,0,1,.15-1.9.41.41,0,0,0,0-.31c-.3-.45-.09-1-.15-1.42a1.81,1.81,0,0,0-.11-.67,1.35,1.35,0,0,1,0-1,1.85,1.85,0,0,0,.11-.58V31.49a1.23,1.23,0,0,0-.28-.95,3.42,3.42,0,0,0,.28-1.49,2.68,2.68,0,0,0-.2-.45c-.19-.26-.56-.39-.6-.78-.45,0-.43-.5-.61-.75-.06-.09-.13-.2-.21-.22-.54-.15-1-.61-1.51-.73a3.63,3.63,0,0,1-1-.52c-.09-.05-.11-.2-.22-.37.73,0,1.1.56,1.64.76l.26-.44a4.573,4.573,0,0,0-.11-.73c-.02-.19-.21-.24-.32-.37.34-.3.17-.58,0-.8.11-.21.22-.36.35-.62V21.6l.19.15c.09-.06.17-.13.3-.21-.28-.17-.47-.33-.69-.46.09-.36-.11-.73.13-1.07-.24-.37.2-.67,0-1,.2-.13.35-.21.41-.26.09-.34.16-.6.22-.84l-.17-.23c.24-.35.47-.67.62-.91a2.91,2.91,0,0,1-.15-.35,2.94,2.94,0,0,1-.34.18c-.18-.26-.56-.39-.33-.87l1.13-.47c.32-.74,1.12-.91,1.62-1.41.36.24.71.44,1.08.67.23-.06.53.13.75-.15.28.37.71,0,1.08.26a3.53,3.53,0,0,0,1.19.28c.15.3.65.17.84.52h.22a2.15,2.15,0,0,1,1,.5.82.82,0,0,0,.67.28c.34,0,.21.48.56.52a4.35,4.35,0,0,1,1,.37l.33.51h.77l.18.35.23-.24V17l-.36-.17-.52.13c.13-.22.17-.33.26-.48L53.07,16s-.11.08-.17.13c-.16-.26-.52-.37-.54-.8a2.207,2.207,0,0,1,.6.11,1,1,0,0,0,.15-.85L51.41,14v-.75c-.18-.24-.28-.41-.41-.61a5.86,5.86,0,0,0-.61,0c.2.3.3.56.65.6a1.59,1.59,0,0,0,.11.2c-.15.08-.3.15-.43.23.06-.23-.2-.23-.35-.36a.24.24,0,0,1-.06-.18c0-.13-.5,0-.57-.32.24-.09.59,0,.61-.45-.39-.2-.89-.16-1.12-.48a5.212,5.212,0,0,0-.59.09v-.59l-.3-.13L48,11.2v.32l.45.07a.07.07,0,0,1,0,.06,1.25,1.25,0,0,1-.3.67h0s.13.26.22.43l-.3.09c-.09-.2-.13-.37.06-.52h0a.44.44,0,0,0,0-.28,1,1,0,0,0-.15-.13h-.09a.75.75,0,0,1-.73.06,1.19,1.19,0,0,1-.33-.34,1.42,1.42,0,0,1-1.27,0l-.28.28-.6-.19c0-.26.06-.37.13-.43a1.2,1.2,0,0,1,.34-.11c-.06-.11-.11-.22-.19-.39l.34-.15c.11.15.26.11.41,0l.69.32v-.43l-.58-.71a.42.42,0,0,0-.5.39c0,.1-.21.19-.36.3-.13-.22-.24-.37-.35-.54h0a3.25,3.25,0,0,1-.37-.11l.07-.06L45,9.66a.318.318,0,0,0-.11-.26c-.25-.12-.54-.21-.79-.34C44,9,44,8.91,44,8.78h.73c.07.11.2.3.33.47h.58c.28.18.47.41.69.44.45,0,.6.3.78.66l.41-.1a3.263,3.263,0,0,1,.77.13,1.82,1.82,0,0,1,.22.28H49c.08.69.91.58,1.12,1.1l.74-.35c.1.35.19.65.3,1l.56-.16c.06.2.13.46.24.78l1.23,1.06.41-.19a1.84,1.84,0,0,0,0,.36c.08,0,.21,0,.26.07.28.32.56.65.82,1v.24h.13a11,11,0,0,0,.86.77,3.35,3.35,0,0,1,.8.76l-.5.06.2,1.06a2.761,2.761,0,0,0,.28.22c.17-.2.32-.37.49-.54-.12-.33-.25-.61-.38-.89a.8.8,0,0,0,.32-.11,1.936,1.936,0,0,1,.09-.92c.45.45.47.56.23,1.16a.85.85,0,0,1,0,1c.13.22.28.44.34.54a2.68,2.68,0,0,0,0,1.3l.06-.63c.13.09.22.13.28.18s.2-.11.26-.16l.17.13c.07-.34.11-.67.15-.88a2.329,2.329,0,0,0-.08-.89,1.33,1.33,0,0,0,.11-.92ZM18.33,14.22h-.09V13.9h.09ZM23,11.37h0v.15h0Zm-1.2,1.88-.11-.13L21.55,13h0l.11.13.13.1s0,0,0,.02Zm.15-.78H21.9v-.15h.05Zm.58-.84c-.15.28-.35.54,0,.84a1.28,1.28,0,0,1-.26,0c-.07-.34-.13-.69-.24-1.19a5.766,5.766,0,0,0,.49.35Zm.09,1.62h-.46V13h.46Zm.36-.63v-.26a.1.1,0,0,0,.07,0l.06.26a.32.32,0,0,0-.11,0Zm.41.17H23.3v-.32h.08ZM26,10.12c.3,0,.46.13.48.52C26.08,10.55,25.91,10.46,26,10.12Zm.48,1.21c-.11,0-.22.1-.33.15v-.22h.28Zm-.37.32a2.3,2.3,0,0,1,0,.35h-.37a.91.91,0,0,1,.13-.1h-.08l-.13-.11h0l.07.06c.07-.09.18-.11.33-.2Zm-.15-.3H25.7v-.09l.26-.06Zm-1.3-1.43.54.37h.59l-.39.3a1.08,1.08,0,0,1-.87-.47Zm.85,2.77Zm-1.71.56v-.09l.2-.06v.13a1.14,1.14,0,0,1-.25.02Zm0-.74a.39.39,0,0,1-.13.13s-.08-.08-.08-.13a.43.43,0,0,1,.06-.19.44.44,0,0,1,.56.34Zm.76.24h0Zm0-.95H24.2v-.09h.33Zm-.09-.45.19-.41c.05.21.05.3.07.41Zm.35,1.44h-.05v-.15h.05Zm.3-.15h0v-.15h0Zm.6.82-.34.18a1.543,1.543,0,0,0-.07-.35c.33,0,.63-.13.82.35-.2-.09-.33-.13-.44-.18Zm.82-.47c-.21-.11-.39-.17-.67-.33h.76a.994.994,0,0,0-.12.34Zm.35-1.3-.26-.45h.26Zm.17-1a1.56,1.56,0,0,0-.3-.2,2,2,0,0,0,.3-.06Zm-.37-.8c.13-.06.24-.13.35-.17-.04.14.08.33-.38.16Zm.48,4.79h0v-.15h0Zm12.11,9.46h0V24h0ZM33.38,32h0v.15h0Zm3.26-3h0Zm-.11-3.08h0V26h0ZM35.8,27a3.79,3.79,0,0,1,.39.43h.36c.09.15.15.3.24.48-.09.15-.17.32-.3.54-.37-.52-.69-.95-1.08-1.51A1.475,1.475,0,0,0,35.8,27Zm-8.34.11h0V27h0ZM30,23.31a2.29,2.29,0,0,1-.39-.33.525.525,0,0,0-.08-.25,1.507,1.507,0,0,0,.47-.05Zm4-.22c-.15.11-.25.22-.45.35a6.411,6.411,0,0,1-.08-.65C33.7,22.92,33.83,23,34,23.09Zm-1.59-.19H33v.26h-.6Zm-.93.26V22.9a.07.07,0,0,0,.06,0l.07.26Zm.17,2.72V25.4c.15.2.22.28.33.41C31.82,25.83,31.76,25.86,31.65,25.88Zm2.1.08c-.22.13-.44.22-.63.33l-.89-.37v-.34c.07,0,.18-.07.22,0,.3.28.58.16.89,0a5.16,5.16,0,0,0,.47.24.589.589,0,0,1-.06.18Zm.34,1c-.13-.39-.13-.39.3-.69.11.41,0,.6-.3.73Zm.58-.78a1.51,1.51,0,0,0-.28-.15c-.06,0-.13.07-.21.11-.2-.41.32-.24.34-.45.07.06.15.1.22.17s0,0,0-.05l.11-.12h0l-.13.11h0v.06a.53.53,0,0,1-.05.34Zm-.15,3.5a3.455,3.455,0,0,0,.09.56l-.39-.06c.09-.18.17-.24.3-.48ZM30,29.42a.51.51,0,0,1,.59-.24,5.119,5.119,0,0,0,.56.15.41.41,0,0,1,.15,0h.47c.11.16.2.28.31.46a1.28,1.28,0,0,1,.1.17c-.71.09-1.29-.41-2-.3A.85.85,0,0,0,30,29.42ZM12.65,55.13h0V55h0Zm-.26-.56c.2-.32.2-.32.61-.39.15.26.26.48.39.69a1.48,1.48,0,0,1-1-.3Zm2.36-1h-.46c0-.47.28-.19.46-.34Zm1.94-9.3a2.631,2.631,0,0,1,.35.15c-.13.15-.22.26-.35.43Zm-.5,2.68c.09.26.15.39.2.51s.26.65-.11.93c-.22-.06-.26-.23-.28-.45a1.74,1.74,0,0,0-.17-.54Zm-.9,5.24a2.789,2.789,0,0,1-.15-.39,1.08,1.08,0,0,1,.34-.58c.09.31.2.63-.19.93Zm0-1.31a1.72,1.72,0,0,1,.39-.13c.02.11.02.11-.42.09Zm.46-1.49.28-.07v.61l-.3.06Zm.6,3.21-.26.07c-.06,0-.1.08-.28.21.24-.49.24-.49.54-.62Zm.2-1.57.15.15-.26.52-.15-.31a5.432,5.432,0,0,1,.06-1c.06-.33.13-.58.2-.95l.36-.32a.67.67,0,0,1,.07.17,4.579,4.579,0,0,0,.11.67c-.16.29-.36.66-.57,1.04Zm1.06-3.74c-.22.35,0,.76-.29,1.08-.08.09,0,.3,0,.5h-.43a4.42,4.42,0,0,1,.39-2.31c.17.24.42.5.3.69Zm-.11-2.2v-.54c.15.19.23.32.39.54Zm.39-.65c-.24-.13-.48-.24-.8-.39.32-.15.6-.26,1-.41a1.848,1.848,0,0,0,.06.59,2.06,2.06,0,0,1-.29.17Zm.47,3.18h0v-.16h0Zm4.82-9.72c-.11.71-.83,1-1.32,1.45v.34c-.09.05-.2.07-.28.11s0,.24-.05.39a4.86,4.86,0,0,0-1.38,1.19,4.4,4.4,0,0,1-.52.43c-.15.15-.28.32-.43.47s-.15.07-.17.11c-.09.2-.09.45-.22.61a2.7,2.7,0,0,1-.62.38c-.15-.38-.15-.38,0-.9.41-.07.78-.2.78-.78.21-.22.47-.43.69-.67s.56-.3.67-.63c.26.07.19-.19.26-.28a2.88,2.88,0,0,1,.41-.45c.13-.13.19-.28.41-.37a1,1,0,0,0,.43-.51,6,6,0,0,1,.65-1.15,2.5,2.5,0,0,1,.3-.39c.56.09.56.09.6.59a.86.86,0,0,0-.24.02ZM5,68.52v-.26l.41.19a1.58,1.58,0,0,1-.41.07Zm.48-.67v-.41h.08a.848.848,0,0,0,.07.41Zm.54-.74a2,2,0,0,1-.28-.06c.08-.22.17-.41.25-.6a2.522,2.522,0,0,1,.29.06,4.19,4.19,0,0,0-.23.6Zm.47,1.71h0v-.15h0Zm.54-3a8.55,8.55,0,0,0-.71.5,1.355,1.355,0,0,0-.11-.43c.26-.24.5-.46.89-.8-.09.24-.13.34-.18.49Zm.2-2.7h0v.15h0ZM7.69,66h0Zm-.09-.78c-.13,0-.22-.21-.32.11,0-.5,0-.5.49-1a6.109,6.109,0,0,0,.31.58c-.22.09-.37.28-.48.26Zm3.28.09a.577.577,0,0,0-.06-.33h.47Zm1.1.11-.43-.44c.45,0,.45,0,.74.37a.77.77,0,0,0-.29.02Zm.85,0h-.05v-.16h.05Zm1.18.47a.3.3,0,0,0,0-.13h.26a.11.11,0,0,0,0,.07Zm1.67.26h-.13c-.22,0-.33-.06-.63-.28h0a.69.69,0,0,1-.13-.11h0l.11.13h0c.15-.2.41.09.54-.11l.45.35Zm1.74.73c-.13-.15-.23-.26-.32-.38a1,1,0,0,1,1.36,0Zm3.42,9.87h-.05V76.6h.05ZM16,80.33h-.05v-.15H16Zm8.52-.82a.07.07,0,0,0-.06,0l-.07-.26a.27.27,0,0,0,.13,0Zm.5-.72a4,4,0,0,1-.37-.34l.37-.28Zm1.45.29H26.1a1.2,1.2,0,0,1,.13-.36c-.32-.35.15-.65.06-1h.26c.2.45-.27.86-.12,1.36Zm4.75-11.36h0v.15h0Zm-3.31,6.91c.26.28-.06.34-.1.52l-.26-.26a2.7,2.7,0,0,1,.32-.26Zm-.13.73c.15.11.26.17.37.24l.41-.19.39.58v1l-.54.33-.78-.18c-.13-.24-.23-.47-.41-.77.14-.3.31-.62.52-1.01Zm.89-.28c.06-.15.13-.28.21-.45a.952.952,0,0,1,.33.13c-.17.17-.3.3-.43.41a.53.53,0,0,0-.15-.09Zm-1.34,2.4v.15h0ZM30.64,79a3.37,3.37,0,0,0,.49-.15c.22.28.41.52.61.74l-.26.25-2.33-.49c-.07.11-.2.26-.31.41-.06-.22-.15-.46-.23-.69a1.53,1.53,0,0,0-1-.22,3.265,3.265,0,0,0-.06-.6L27,78.21a2.619,2.619,0,0,0,.24-.26c.06,0,.15.09.24.15.19-.13.41-.26.62-.38l.5.41v-.65c.47.11.24.52.37.75l.86.44a4.046,4.046,0,0,1,.09-.46C30.38,78.34,30.46,78.73,30.64,79Zm6.24-12.39c.08-.11.17-.24.28-.37l.23.48c-.1.08-.23.17-.43.3a3.047,3.047,0,0,1-.21.5h-.18c-.1.28-.6,0-.6.41a1,1,0,0,0-.6.45c-.18.24-.46.35-.65.59a1.8,1.8,0,0,1-.67.41c-.22.08-.41.17-.43.45,0,.06-.09.13-.15.17s-.16,0-.2.07,0,.13-.09.19a.42.42,0,0,1-.17.11,2.76,2.76,0,0,0-.93,1,.3.3,0,0,1-.15.18.9.9,0,0,0-.6.6c-.09.26-.5.19-.56.54,0,.06-.24.15-.33.32a2.641,2.641,0,0,1-.56.52v.13h0v.09h0c-.17,0-.26.15-.34.3a.358.358,0,0,1-.41.24,2.016,2.016,0,0,0-.05-.56l-.54-.18a1.07,1.07,0,0,1-.06-.41.44.44,0,0,1,.15-.34l-.3-.3V72a.32.32,0,0,1,.13,0c.19.13.21.32.15.6a1.34,1.34,0,0,0,.86-.58,13.33,13.33,0,0,0,.93-1.42.61.61,0,0,1,.58-.39,1.53,1.53,0,0,1,.33-1,9.478,9.478,0,0,0,.67-1l.47-.24c.26-.3.48-.54.67-.77h.35l1-1.39h.82a4,4,0,0,0,.46.24c-.37.3-.74.58-1.08.87s-.67.53-1,.84-.65.64-1,.93c-.07.34-.2.64-.69.58-.72,1.08-1.47,2.09-2.27,3.09a1.27,1.27,0,0,0-.47.95h.38l.33-.65h.36a3.825,3.825,0,0,1,.07-.43c.76-.41,1-1.23,1.73-1.92.28-.07.49-.39.75-.65a1.8,1.8,0,0,1,.46-.35c.19-.08,0-.45.36-.41.24-.54.78-.69,1.23-1a2.08,2.08,0,0,0,.8-.71,4.81,4.81,0,0,1,.67-.69,3.329,3.329,0,0,1,.5.14ZM34,61.09a1.38,1.38,0,0,1,.71,1,3.91,3.91,0,0,1,.89,1.21,3.511,3.511,0,0,1,.22.5c.21.17.47.37.71.54v.54c-.22.08-.41.17-.63.26-.54-.35-.6-1-1-1.47a15.579,15.579,0,0,1-1.06-1.53A7.4,7.4,0,0,1,34,61.09Zm-.43-.6h0v.15h0Zm0,.77c-1.06-.71-.76-.49-1.45-2l.35-.28v-.52c-.17.39-.28.69-.62.58s-.41-.5-.58-.73c.36-.18.58.13.86.23l.24-.23v-.52a1.18,1.18,0,0,0,.26,0v.67l.32.3V59.9a2,2,0,0,1,.56,1.36ZM30.66,57a3.2,3.2,0,0,0,.45-.78.39.39,0,0,1,.43-.32l1.39-1.21c.1.56.19,1,.28,1.51a5,5,0,0,1-.48.35,3.91,3.91,0,0,0-.58.28.56.56,0,0,1-.52.17c0,.13-.09.24-.11.33H31.2c-.13.28-.24.6-.63.45-.15.19-.15.54-.52.47A2,2,0,0,1,30.66,57Zm-.82-17.74v.45l-.5.43a4.46,4.46,0,0,1-.43-.17s-.13,0-.15.11a4.2,4.2,0,0,1-.3.62,8.59,8.59,0,0,0-1.3.22c-.39.13-.75-.43-1.14,0a2.5,2.5,0,0,0-.24-.16l-.58.33-.2-.21c.09-.06.15-.13.26-.21h1.4a2.919,2.919,0,0,0,.18-.31c.56-.12,1,.29,1.44.07v-.35a3.15,3.15,0,0,1-1.19-.82l2.31.46c.2-.2.27-.26.44-.43Zm-4.38,2.82Zm3.17-4c.17.06.37.13.58.22l-.3.51a.44.44,0,0,1-.63-.17c-.08-.2.05-.41.35-.52Zm-1.08-1.4h0v.15h0Zm.6,1.49a2.55,2.55,0,0,0,0,.38,1.69,1.69,0,0,1-.39,0,.89.89,0,0,1-.41-.15,7.52,7.52,0,0,0-1.31-.8c-.05,0-.07-.13-.11-.25a2.61,2.61,0,0,1,2.22.86Zm-2.82,0a2.58,2.58,0,0,1,1.72,1c-.39,0-.58-.3-.84-.39a1.73,1.73,0,0,1-.82-.54h-.34c-.09-.17-.16-.36-.22-.49.17.15.34.32.5.45Zm-.61-3.74h0v.16h0Zm-.5,1.43c.13-.07.33-.13.48-.22a1.08,1.08,0,0,1,.43.89,1.66,1.66,0,0,1-.19.43c-.28-.09-.48-.15-.72-.24ZM25.89,47.1c-.35-.17-.63-.43-1-.58,0-.05.06-.11.1-.15l.28.15.33-.17.21.12a4.76,4.76,0,0,1,.82-.1,1.46,1.46,0,0,0,1-.33c.21.09.38.13.58.22.13-.17.24-.33.34-.48L29,46c-.05.3-.11.65-.18,1h-.39l-.23.24h-.91C26.9,47,26.36,47.17,25.89,47.1Zm1.72,1.1v.15h0V48.2Zm-.17.74.35-.22a2.291,2.291,0,0,0,.17.56c-.26.13-.35-.11-.52-.34ZM20.9,64.11a2.35,2.35,0,0,1-.91.61l-.43,1.36-.39-.3a2.67,2.67,0,0,1,.69-1h0c.18-.3.33-.54.48-.8h.52A.326.326,0,0,1,20.9,64.11Zm3.58-4.81c0,.13-.3.26-.47.32s-.58.26-.43.65a4.279,4.279,0,0,1-.43,0c-.11.48-.52.63-.93.8-.11.18-.24.39-.39.59a3.16,3.16,0,0,1-.48.49c-.15.15-.34.28-.49.46a3.443,3.443,0,0,1-.48.54,6.45,6.45,0,0,1-.71.43,2.54,2.54,0,0,0,.56-1.54c.35-.34.65-.75,1.19-.73a4.66,4.66,0,0,0,.52-.82,5.18,5.18,0,0,1,.49-1,3.88,3.88,0,0,1,.76-1,2,2,0,0,0,.75-1.23c.26.65,1,.67,1.08,1.21C24.87,58.89,24.55,59,24.48,59.3Zm2.81-1.64h0v-.15h0Zm.15-.91c-.21-.11-.41-.19-.65-.32,0,0-.06,0-.17.13-.15-.07-.41-.11-.52-.26a3.94,3.94,0,0,0-1-1.19,7.55,7.55,0,0,1-1.08-1.21v-.32h.41a.88.88,0,0,0,.5.52,5,5,0,0,1,1.6,1.1c.32.13.56.21.82.3l-.18.34.41.24a5.48,5.48,0,0,1-.14.67Zm1.28.11h0v-.15h0Zm.15.47h-.05v-.15h.05Zm.49-1a.67.67,0,0,0,.15-.13v.48h-.43l-.37-.37.06-.09c.23.03.38.08.59.12ZM28.56,55c-.28-.15-.41-.6-.88-.47v-.16c.34-.12.67-.23,1-.38.15.23.28.45.39.64S28.84,55,28.56,55Zm0-2.85c.46.28.46.28.18.93h-.57a1,1,0,0,1,.37-.95Zm-.34-1.88a.42.42,0,0,1,.19-.62.41.41,0,0,1,.54.28c-.13.43-.47.3-.75.32Zm.15-1.42V48.7h0Zm.86-.33c-.32-.06-.62-.15-.9-.21v-.17a1.73,1.73,0,0,1,.23-.24l.67.19Zm-.6-3.84a1.67,1.67,0,0,0-.87.24l-.19-.2a1.938,1.938,0,0,1-.07.63.27.27,0,0,0-.1,0,.43.43,0,0,0-.46-.41,1.64,1.64,0,0,1-.3-.11c-.28.32-.6,0-.93,0h-1.1a2.13,2.13,0,0,0-.21-.22l.58-.41a4.66,4.66,0,0,0,.5.26.43.43,0,0,0,.28.07c.41-.26.84-.11,1.27-.15a2.53,2.53,0,0,0,.52-.16l.21.16a4.307,4.307,0,0,0,.59-.16,4.276,4.276,0,0,1,.62,0c.21,0,.33-.23.56-.41v.72a3.778,3.778,0,0,0-.92.13Zm-.91-1.81.89-.41c0,.06.13.17.21.3.35-.13.65-.24,1-.39a3.582,3.582,0,0,0,.18.32A1.67,1.67,0,0,1,29,43a3.36,3.36,0,0,0-1.43.45c-.39.07-.77-.08-1.14.15a.64.64,0,0,1-.45,0c-.52-.21-1-.47-1.52-.71h0a.1.1,0,0,0-.06-.09l.11-.11.12-.13c.44.15.87.31,1.34.46a2.36,2.36,0,0,1,1.19-.13,2,2,0,0,0,.22-.28l-.56-.07-.31-.3h-.67c0-.06,0-.13.05-.13a1.24,1.24,0,0,1,.32-.17c.22,0,.45.06.65-.15a.855.855,0,0,1,.34.06c.08.06.16,0,.24,0a1.18,1.18,0,0,1,.41.06c.15-.1.37-.23.61-.41h.43c0,.11.11.22.17.35l.82-.41a.93.93,0,0,1,.07-.41H30a1.74,1.74,0,0,0,.07.56,2.53,2.53,0,0,1-.65.43,3.2,3.2,0,0,1-1.66.24l-.26.3a.93.93,0,0,0,.2.29Zm6.15-4.71h0v.15h0ZM33.62,38a2,2,0,0,0,.06.3h-.26A1.561,1.561,0,0,1,33.62,38Zm-2.36-1.62c-.1.06-.21.15-.41.3a2.729,2.729,0,0,0-.06-.73,2.86,2.86,0,0,1,.47.4ZM30.81,35h.13v.26a.11.11,0,0,0-.07,0Zm0-.82v-.56c.15.22.24.32.37.52a2.1,2.1,0,0,0-.35.07Zm.22-2.55c.19.35-.11.33-.13.48L30.79,32a1.6,1.6,0,0,0,.26-.34ZM34.2,47.09c-.13,0-.26.22-.37.3-.38-.06-.73-.12-1.08-.21v.11a1,1,0,0,1-.09.21H32.6a8.2,8.2,0,0,1-2.16-1.77,2.36,2.36,0,0,1,.93-.08,2,2,0,0,0,1,.62c.39.09.76.2,1.19.31a1.66,1.66,0,0,1,.2-.16,3.26,3.26,0,0,0,.38.18,4.16,4.16,0,0,0,.61,0c-.36.18-.23.5-.53.52ZM31,44.27v-.15h0Zm.88-.6c.13-.26.24-.52.37-.78a.74.74,0,0,1-.07.65l.39.39,1.1.26.26.26.39-.33c.45.39.11.91.24,1.36l-1.15.43c-.17-.23-.3-.43-.43-.6l-.28.19-.91-.9h.11c.18-.54.18-.54.01-.93Zm1.5-.67a6.1,6.1,0,0,0-.58-.28h-.2c-.28-.48-.78-.76-1.23-1.28l.69.11a.54.54,0,0,0,.09-.09l1.27.76a.62.62,0,0,0,.11-.09l1.23.35a2,2,0,0,0,0,.3A1,1,0,0,1,33.38,43ZM35,39c-.17.1-.35.19-.63.36l-2.24-.21a1.94,1.94,0,0,0,1.34.52,6.93,6.93,0,0,1,.9.19l.2.19-.24.24h-.82L33.27,40l-.15.15-.69-.24c-.13.11-.28.22-.5-.13a1.753,1.753,0,0,1-.06.56,1.91,1.91,0,0,1,1.6.54c.32,0,.6.15.92.07v.41c-.2,0-.33.32-.59.11-.17.15-.3.38-.65.25-.06-.08-.15-.23-.3-.41l-.3-.12-.76-.76-.06.06c-.11-.32-.24-.62-.37-1,.11-.09.24-.17.39-.28l-.56-.28L31,39.1l-.89-.49V38.5a5.52,5.52,0,0,1,1.06.15c.37.11.71.3,1,0,.16,0,.37.15.44.11.21-.2.47,0,.62-.09s.43.07.63.07.62.15.86-.11a2.26,2.26,0,0,1,.28.19C35,38.94,35.06,39,35,39Zm.19.82a3.489,3.489,0,0,0,.07-.37c.17.13.28.22.5.37Zm1.11-.5H36v-.09h.33Zm3.38-.28c-.75-.11-1.51-.54-2.35-.13-.24-.48-.82-.24-1.21-.58l.33-.15c.08,0,.23.19.49,0a1.32,1.32,0,0,1,.67-.09h.78c.26,0,.34.2.58,0s.46,0,.67,0l.58.37a3.148,3.148,0,0,1-.52.61Zm4.39,1.27h0v.15h0Zm-.65-3.86-.35.26c-.08-.07-.15-.09-.15-.11.07-.37-.15-.78.15-1.12-.17-.24,0-.5,0-.74a7.5,7.5,0,0,1,.18-.75h.3a.93.93,0,0,0-.17.22,1.66,1.66,0,0,0,.19.19l-.19.3c.47.63-.18,1.2.06,1.78Zm.09-3.39v.47l-.33-.41a1.91,1.91,0,0,1,.35-.03Zm-.07-.63v-.15h0Zm.2-1.1h0v-.15h0ZM43,30.15l.41-.34c.13.21.26.47.44.73-.13.15-.22.26-.33.41L43,30.78a4.43,4.43,0,0,1,0-.63Zm-.12-1.29h0V29h0ZM43,32.23c-.08.19-.15.34-.28.6a4,4,0,0,1-.19-.41s.13-.17.22-.3A1.45,1.45,0,0,1,43,32.23Zm-.62-4h0c.09.11.15.24.24.35s0,0,0,.13l-.09-.09c-.15-.09-.3-.17-.19-.35Zm.19,5.14c.09.2.26.41.2.54s0,.41-.13.56c-.28.41,0,.91-.3,1.3.08.24.17.5.28.75-.09.07-.22.13-.33.2s-.08-.07-.08-.09A6.31,6.31,0,0,0,42,35.4a2,2,0,0,1,.25-1.4c.09-.18.17-.39.28-.59Zm-.64-2c.34.15.25.46.21.76h-.39c-.1-.27-.15-.53.14-.75Zm.66,6.8c.13.07.29.18.46.26l.21-.15a.46.46,0,0,1,.31.61l-.28.08v.5l-.35.34a2.865,2.865,0,0,1,.13-.58l-.41.22c.06.21.11.36.17.58h-.65c-.17-.43-.36-.93-.56-1.42.38-.19.63-.3.93-.43ZM40,26.33h.08v.33H40Zm.88,1.15.63.62-.65.46a1.34,1.34,0,0,0-1.06-.85c-.32,0-.37-.28-.28-.6h.54a.79.79,0,0,0,.81.37ZM52.29,14.87c-.21.13-.34.19-.5.28v-.28Zm-1-.95v.71l-.33.28c-.24-.26-.45-.47-.67-.69a1.06,1.06,0,0,1,.97-.3Zm-2.7-.24.21-.17.56.56a2,2,0,0,1-.8-.39Zm1,.54-.1-.11c.06-.08.15-.17.28-.34a.671.671,0,0,0,.06.38.67.67,0,0,1-.22.07Zm-.75-1.6c.28-.3.54,0,.93.09l-.33.39-.3-.31a1,1,0,0,1-.13.11c-.17-.06-.28-.11-.5-.21Zm-1,.63a4.91,4.91,0,0,1,.43.24l-.3.23a3,3,0,0,1-.26-.34ZM46,11.74c.11.69.56.58,1,.58.09.17.13.28.22.45-.63-.13-.63-.13-1,0-.06,0-.1-.1-.17-.15s-.11.09-.17.15l-.26-.25A8.594,8.594,0,0,1,46,11.74Zm-.69,1.4h.52a6.69,6.69,0,0,1-.52.54ZM43.87,8.61h-.02ZM43,8.3l.49.37h-.56A2.037,2.037,0,0,0,43,8.3Zm.8.89.32.37c-.26.06-.43.13-.67.19-.13-.09-.32-.19-.56-.32Zm.15,1-.35.28-.13-.28Zm-.74.11v.15h0Zm0,.52c.11,0,.26.13.5.23h-.8a2.42,2.42,0,0,1,.27-.26Zm.52.64c0,.05.11.11.19.22l-.45.06a1.091,1.091,0,0,1-.13.35l-.52-.39c0,.31-.3.05-.35.13-.28.2.09.56-.28.65a2.719,2.719,0,0,0,.16.3h0a.69.69,0,0,0,.13.11h-.05a1.47,1.47,0,0,1-.1-.13h0l-.24.13c0-.06-.13-.13-.22-.24l.33-.23A.51.51,0,0,0,42,12a1.55,1.55,0,0,1-.24-.5c.32,0,.58.28.78,0a.71.71,0,0,1,.17.11v-.05a4.47,4.47,0,0,0,.99-.13ZM42.36,7.92h0v.15h0ZM41,8.65h-.52l-.21-.21a3.85,3.85,0,0,1,.26-.35A5.25,5.25,0,0,0,41,8.65Zm-.28-1.23c-.11.21-.17.34-.26.5a3.621,3.621,0,0,0-.32-.42,4.28,4.28,0,0,0,.6-.08Zm-1.12,2a.38.38,0,0,1,.11-.07c.17.28.26-.13.43,0a2.893,2.893,0,0,0,.58.26c.15.07.37-.09.61-.13V9c.1,0,.25-.07.34,0s.37.26.54.36-.22.24,0,.44a.873.873,0,0,1-.09.38,3.29,3.29,0,0,1,.43.09,2.207,2.207,0,0,1-.08.35v.1c0,.13.1.24.08.44a.67.67,0,0,0-.17-.13l-.41.32c-.09-.07-.15-.09-.15-.13V10c-.17-.24-.28-.41-.41-.58-.13.28-.22.43-.3.65a2.49,2.49,0,0,1-.33-.16,1.24,1.24,0,0,1-.15.13l-.21-.23c-.35-.09-.65-.18-1-.26a.86.86,0,0,0,.2-.12Zm1,1.25A2.61,2.61,0,0,1,39,10V9.69c.09,0,.2-.07.22,0a1.35,1.35,0,0,0,.63.35c.29.06.7.21.74.64ZM39.47,8.26a5.859,5.859,0,0,0-.46.52c-.08.11-.15.24-.28.41a2.282,2.282,0,0,0-.08-.69l-.24-.24Zm-1.69.13h0v.15h0Zm-.54,1.27c.5-.13.26-.54.41-.86a4.92,4.92,0,0,1,.5.37c-.28.23-.47.41-.71.62h-.78v-.3Zm-.13-.77a.8.8,0,0,1-.06.36l-.5-.36ZM33.85,7.76h0v.16h0Zm-2.24.37h0ZM29,9h0v.32h0Zm0,.82h.33V9.9H29Zm-1.75-.31h.15v.05h-.15Zm.28,1.84h0V11.2h0Zm.07,1.08V12h.08a2.929,2.929,0,0,0,.07.41Zm.06-1.86a.76.76,0,0,1-.17.15l-.24-.23a1.88,1.88,0,0,1,.24-.18c.17.07.39.13.63.2a3.319,3.319,0,0,0-.28.41.8.8,0,0,1-.25-.33Zm.54.74H28v-.05h.15ZM28.76,10l-.65-.09c-.39.19-.45.15-.56-.41a1.45,1.45,0,0,0,.41.19,3.71,3.71,0,0,1,.47,0,1.36,1.36,0,0,1,.37.21S28.76,9.92,28.76,10Zm0,2.39V12l.26.33Zm1.06.09-.52-.24.52-.08Zm-.15-1.38a4.43,4.43,0,0,1-.61.23V10.8H30a1.22,1.22,0,0,1-.29.27ZM29.54,10c.08-.15.13-.26.21-.39-.19-.15-.37-.3-.62-.52a1.75,1.75,0,0,1,1.27.09c.34-.22.67.13,1-.05v1c-.26.16-.57.31-.87.48l-.11-.11c-.08,0-.19.09-.32.17C30.05,10.29,29.71,10.27,29.54,10Zm1.9,1.94c-.28.11-.59.22-.89.35-.09-.09-.19-.22-.3-.35l.54-.54.86-.21c-.08.33-.15.52-.21.74Zm.62-.11H31.8l-.06-.31.3-.06a2.14,2.14,0,0,1,.02.36Zm-.3-2.46.47.2a1.11,1.11,0,0,0,0,.28c-.32-.08-.49-.16-.47-.49Zm.32,1.82.41-.33a.507.507,0,0,0,.07.33ZM32.93,9h0a.71.71,0,0,0-.06.22,1.08,1.08,0,0,1-.35-.05h-.07a.57.57,0,0,0-.08-.09l-.05-.06a2,2,0,0,0-.1-.22l-.91.22c-.09-.11-.19-.24-.32-.43.64-.18,1.25.11,1.74-.2l.65.46A.857.857,0,0,1,32.93,9Zm.66.75h0V9.64h0Zm.78-.15h0V9.49h0Zm0-.49h-.84L33.44,9l-.1-.11h0a.47.47,0,0,1,.36-.15,2,2,0,0,0,.41-.07,8.19,8.19,0,0,1,1-.28c.28.28.58-.19.88,0V9a6.48,6.48,0,0,1-1.51-.11s-.04.11-.09.26ZM36,9.49v.15h-.1V9.49Zm-.74.11-.3.06h0a.69.69,0,0,1-.11.13h0a1.271,1.271,0,0,0,.13-.11.75.75,0,0,0,0-.11h.3Zm-.47,2.05h0ZM35.7,11l-1.23.22c.12-.24.23-.41.34-.61.32.09.63.2,1,.28a.36.36,0,0,1-.16.11Zm2,.69-.26-.45h-.51c-.11.15-.26.32-.41.52l-.59-.93c.2-.32.44.15.72,0,.13-.09.49,0,.69.13a1.52,1.52,0,0,0,.8.15,4.08,4.08,0,0,1,1.61.28,2.09,2.09,0,0,0,.61,0,1.3,1.3,0,0,1,.93.26c-.07.15-.13.3-.24.52-.65.13-1.1-.41-1.64-.61-.2,0-.43.2-.54.13a.92.92,0,0,0-.58-.13c-.29-.02-.49-.08-.64.13Zm.59.48a.18.18,0,0,1-.05-.11l.33-.15a2.91,2.91,0,0,0,.41.19c-.35.05-.55.05-.74.07Zm1.38.93v.08s0,.05-.11.11a6.16,6.16,0,0,0-.54-.37l-.22.16-.17-.26c.33-.18.67.08,1,.15v-.28h-.09c-.09,0-.15-.22-.24-.37h.31v.3a3.21,3.21,0,0,0,.75-.15,4.28,4.28,0,0,1,.05.43c-.15,0-.28-.13-.41-.11a.92.92,0,0,0-.39.16Zm.21,2.29v-.72a4.49,4.49,0,0,0,.46.41c-.2.11-.34.2-.51.31Zm.59,4.44h0Zm.3-2.85h0Zm-.43-3.28c-.07-.09-.18-.21-.3-.39a1.8,1.8,0,0,1,.21-.19l.61.6a3.21,3.21,0,0,0-.57-.02Zm1.9,0a3.21,3.21,0,0,1-.09.5.65.65,0,0,0-.21,0,.069.069,0,0,1-.07-.07v-.67l-1.12-.38a3.28,3.28,0,0,1,1.83.38,1.41,1.41,0,0,1-.39.22Zm.67-.78a2.7,2.7,0,0,1-.33-.21c.34-.05.34-.05.28.19Zm.49,1.15h-.08v-.48h.08Zm0-1.51c.17-.16.34-.29.51-.44a.48.48,0,0,1,.11.09c-.11.19-.21.41-.34.63a3.66,3.66,0,0,1-.28-.3Zm.43.86c.13-.15.21-.24.34-.37l.28.37Zm.67-1.92h-.15v-.05h.15Zm.39-1.06a.35.35,0,0,1,0,.52L44.8,11a.38.38,0,0,1-.3.07,2.14,2.14,0,0,1-.52-.22.1.1,0,0,0-.09.07,1.47,1.47,0,0,0-.1.13V11a.69.69,0,0,0,.13-.11h0a.07.07,0,0,1,0-.06Zm8.44,2.63h0Z" transform="translate(-1.423 -6.553)" fill="#774234"/>
  <path id="Trazado_26135" data-name="Trazado 26135" d="M43.87,10.89h0s.07-.05.09-.07a.22.22,0,0,0-.11,0Z" transform="translate(-1.423 -6.553)" fill="#774234"/>
  <path id="Trazado_26136" data-name="Trazado 26136" d="M39.55,12.71a.13.13,0,0,1,.09,0h0a.71.71,0,0,0-.09,0Z" transform="translate(-1.423 -6.553)" fill="#774234"/>
  <path id="Trazado_26137" data-name="Trazado 26137" d="M42.32,12.77Z" transform="translate(-1.423 -6.553)" fill="#774234"/>
  <path id="Trazado_26138" data-name="Trazado 26138" d="M42.77,11.69l-.11-.06h0A.64.64,0,0,1,42.77,11.69Z" transform="translate(-1.423 -6.553)" fill="#774234"/>
  <path id="Trazado_26139" data-name="Trazado 26139" d="M41.37,9.4Z" transform="translate(-1.423 -6.553)" fill="#774234"/>
  <path id="Trazado_26140" data-name="Trazado 26140" d="M34.74,25.83v.05a.07.07,0,0,1,0,.06v-.11Z" transform="translate(-1.423 -6.553)" fill="#774234"/>
  <path id="Trazado_26141" data-name="Trazado 26141" d="M25.35,38.29h0l-.06-.06h0S25.33,38.29,25.35,38.29Z" transform="translate(-1.423 -6.553)" fill="#774234"/>
  <path id="Trazado_26142" data-name="Trazado 26142" d="M53.78,14.2Z" transform="translate(-1.423 -6.553)" fill="#774234"/>
  <path id="Trazado_26143" data-name="Trazado 26143" d="M54.88,15.23a.2.2,0,0,1,0,.11.2.2,0,0,0,0-.11Z" transform="translate(-1.423 -6.553)" fill="#774234"/>
  <path id="Trazado_26144" data-name="Trazado 26144" d="M44.82,11.61a.56.56,0,0,1,.13-.43C44.86,11.24,44.86,11.35,44.82,11.61Z" transform="translate(-1.423 -6.553)" fill="#774234"/>
  <path id="Trazado_26145" data-name="Trazado 26145" d="M23.51,79.05l-.24-.17Z" transform="translate(-1.423 -6.553)" fill="#774234"/>
  <path id="Trazado_26146" data-name="Trazado 26146" d="M50.67,10.61a4.74,4.74,0,0,1-.9-.64h0a5.84,5.84,0,0,0,.9.64Z" transform="translate(-1.423 -6.553)" fill="#774234"/>
  <path id="Trazado_26147" data-name="Trazado 26147" d="M25.46,23.63h0c.1-.19.21-.41.32-.6C25.67,23.22,25.56,23.44,25.46,23.63Z" transform="translate(-1.423 -6.553)" fill="#774234"/>
  <path id="Trazado_26148" data-name="Trazado 26148" d="M26.3,23.89l.08-.06h0A.345.345,0,0,0,26.3,23.89Z" transform="translate(-1.423 -6.553)" fill="#774234"/>
  <path id="Trazado_26149" data-name="Trazado 26149" d="M51.08,10.94a2.23,2.23,0,0,0-.21-.22Z" transform="translate(-1.423 -6.553)" fill="#774234"/>
  <path id="Trazado_26150" data-name="Trazado 26150" d="M38.63,13.59c.34.37.49.87.84,1.23h0C39.12,14.46,39,14,38.63,13.59Z" transform="translate(-1.423 -6.553)" fill="#774234"/>
  <path id="Trazado_26151" data-name="Trazado 26151" d="M48.23,12a.67.67,0,0,0-.15-.13.24.24,0,0,1,.15.13Z" transform="translate(-1.423 -6.553)" fill="#774234"/>
  <path id="Trazado_26152" data-name="Trazado 26152" d="M39.47,14.85h0a.7.7,0,0,0,.28.6.78.78,0,0,1-.28-.6Z" transform="translate(-1.423 -6.553)" fill="#774234"/>
  <path id="Trazado_26153" data-name="Trazado 26153" d="M33.72,32.59Z" transform="translate(-1.423 -6.553)" fill="#774234"/>
  <path id="Trazado_26154" data-name="Trazado 26154" d="M48.6,11.65a1,1,0,0,1-.3.65h0A1.38,1.38,0,0,0,48.6,11.65Z" transform="translate(-1.423 -6.553)" fill="#774234"/>
  <path id="Trazado_26155" data-name="Trazado 26155" d="M30.18,80.31h.11A2.74,2.74,0,0,0,30.4,80c0,.09-.07.17-.11.28A.16.16,0,0,1,30.18,80.31Z" transform="translate(-1.423 -6.553)" fill="#774234"/>
  <path id="Trazado_26156" data-name="Trazado 26156" d="M50.85,13.72l.43-.23c-.13.08-.28.15-.43.23.06-.23-.2-.23-.35-.36C50.65,13.49,50.91,13.46,50.85,13.72Z" transform="translate(-1.423 -6.553)" fill="#774234"/>
  <path id="Trazado_26157" data-name="Trazado 26157" d="M41.19,40.9a.77.77,0,0,1-.19-.08Z" transform="translate(-1.423 -6.553)" fill="#774234"/>
  <path id="Trazado_26158" data-name="Trazado 26158" d="M40.78,40.62a2.191,2.191,0,0,0,.22.2A1.28,1.28,0,0,1,40.78,40.62Z" transform="translate(-1.423 -6.553)" fill="#774234"/>
  <path id="Trazado_26159" data-name="Trazado 26159" d="M26.41,23.83h0c.1.6.15.75-.11,1C26.56,24.58,26.51,24.41,26.41,23.83Z" transform="translate(-1.423 -6.553)" fill="#774234"/>
  <path id="Trazado_26160" data-name="Trazado 26160" d="M26,25.06c.06,0,.11-.11.17-.15Z" transform="translate(-1.423 -6.553)" fill="#774234"/>
  <path id="Trazado_26161" data-name="Trazado 26161" d="M23.17,78.73h0l-.24-.24Z" transform="translate(-1.423 -6.553)" fill="#774234"/>
  <path id="Trazado_26162" data-name="Trazado 26162" d="M9.48,75.3h.21l-.15-.07v.07Z" transform="translate(-1.423 -6.553)" fill="#774234"/>
  <path id="Trazado_26163" data-name="Trazado 26163" d="M15.26,78.34c.11-.19.2-.34.29-.47-.11-.07-.26-.13-.48-.24h-.76a2.07,2.07,0,0,0-.28-.32H13c0-.29.11-.61-.34-.76.06.22.13.41.21.71-.15-.15-.21-.19-.26-.24a.37.37,0,0,1-.13.11,5.79,5.79,0,0,0-1.77-.28l-.3-.3a1.963,1.963,0,0,1-.67-.09l.32-.39c.11.07.18.13.24.16l.82-.39c.15.13.28.26.41.39.54-.11,1.1.23,1.67,0a.14.14,0,0,1,.15,0c.32.25.69.1,1,.15s.74.13,1.1.19a3.691,3.691,0,0,0,.28.28c.07,0,.11-.11.18-.15a.56.56,0,0,0,.13.11c.26,0,.52-.15.67-.09A1.24,1.24,0,0,0,18,76.59v-.45c-.65-.5-1.49-.39-2.11-.86a8.17,8.17,0,0,1-.85-.09,5.712,5.712,0,0,1-.75-.28c-.07,0-.13-.13-.17-.11-.26.11-.41-.06-.61-.15s-.5,0-.71-.19a.84.84,0,0,0-.65-.16h-.67c-.15-.15-.3-.26-.43-.41.22-.06.41-.13.63-.17a.885.885,0,0,0,.08.26c.28.09.52,0,.78.11a3.49,3.49,0,0,0,1.25.21,5.321,5.321,0,0,1,1.19.22c.09,0,.17.13.26.11a14.561,14.561,0,0,1,2,.17.28.28,0,0,0,.13,0,.78.78,0,0,0,0-.18v-.08a1.67,1.67,0,0,0,.78-.15,3.17,3.17,0,0,1,.82-.26c-.09-.13-.2-.26-.26-.37-.11.09-.18.11-.22.15a2.07,2.07,0,0,1-.47-.24c-.15-.1-.35.11-.46-.08L16.34,74l-2.24-.3-.3-.3h-.41a.69.69,0,0,1-.72-.48h-.58c-.17-.11-.32-.17-.5-.28a1.91,1.91,0,0,0,.22-.3l-.63-.41v-.84a1,1,0,0,0-1-.69,5.39,5.39,0,0,1-.82.95c-.35.26-.5.64-.84.86v.65c-.07.06-.13.15-.2.17a1.41,1.41,0,0,1-.37.06c-.23.5-.64.74-.92,1.11L6.67,74l-.3.31h-.5a.6.6,0,0,1-.45.58c-.24,0-.15.24-.26.32a4.21,4.21,0,0,0-.41.28,3.27,3.27,0,0,1-1.7,1c-.07.48-.52.45-.83.67v.3a3,3,0,0,0-.47.37,2.14,2.14,0,0,0-.32.54,3.75,3.75,0,0,0,0,.45,4.52,4.52,0,0,1,2.65.95l.39-.19c.11.67.82.41,1.08.82a.8.8,0,0,1,.18-.15.931.931,0,0,1,.15.13l.13-.11.51.26.07-.07.06-.06a.81.81,0,0,1,.15.13l.07.06a4.189,4.189,0,0,1,.3-.41c.3.31.61.33.87,0l.21.19a.87.87,0,0,1,.15-.13c.11,0,.2.11.28.13.59.07,1.19-.13,1.75.15h.22c.17-.22.39-.11.58-.13h1.4l.72-1.06c-.05,0-.07-.08-.11-.11s.11-.1.21-.23h-.43c-.09,0-.34.23-.54.08s-.34.18-.52.07a2.823,2.823,0,0,0-.95-.15c-.31-.02-.58-.13-.88-.15a8.561,8.561,0,0,1-1,0,3,3,0,0,0-.41,0c-.17,0-.32-.13-.47-.15s-.45-.15-.56-.06c-.28.21-.54.06-.76.13-.28-.2-.54-.35-.77-.52-.09.21-.16.39-.24.56s-.11.09-.2.13a4.08,4.08,0,0,1-.36-.35,4,4,0,0,1-2-.28c.3-.17.58-.3.86-.45v-.43l1,.15.11-.11c.06,0,.1.11.17.15a1.23,1.23,0,0,1,1-.3l.62-.32c.2.1.37.21.54.3a1.35,1.35,0,0,1,1.28,0,1.164,1.164,0,0,1,.1-.32,3.5,3.5,0,0,0,.59.41c.3.13.6.43,1,.1a.37.37,0,0,1,.3,0,3.26,3.26,0,0,0,.78.22c.23,0,.45.13.71.08l.8-.13c.06.28.34.35.58.46a2.5,2.5,0,0,0,.3-.11,1.12,1.12,0,0,0,.41.16A1.54,1.54,0,0,0,15,78C15,78.08,15.09,78.19,15.26,78.34Zm-4.44-2.78h-.26v-.8C10.93,75.1,10.8,75.34,10.82,75.56Zm.08-2.29c-.13-.09-.28-.15-.43-.24C10.75,72.77,10.84,73.05,10.9,73.27ZM5.68,79.53h0v.15h0ZM5.29,76.2a.06.06,0,0,0-.06,0L5.16,76a.21.21,0,0,0,.13,0Zm.09.39a1.63,1.63,0,0,1,.17.22C5.33,76.83,5.33,76.83,5.38,76.59Zm4.7-5.72h.05V71h-.05Zm.07,4.56a.32.32,0,0,0,0,.13H9.91a.08.08,0,0,0,0-.07Zm-.74-3.87h0Zm-.47,3.37c.17-.24.39-.09.6-.11v.39l.15.07v.3a.2.2,0,0,0-.11,0,1.17,1.17,0,0,1,0-.26H9.49a3.09,3.09,0,0,1-.1-.32Zm.5,1.32v-.56c.15.19.23.32.36.49Z" transform="translate(-1.423 -6.553)" fill="#774234"/>
  <path id="Trazado_26164" data-name="Trazado 26164" d="M17.27,74.8a.28.28,0,0,0,.13,0,.275.275,0,0,1,.05-.18.49.49,0,0,0-.05.18A.28.28,0,0,1,17.27,74.8Z" transform="translate(-1.423 -6.553)" fill="#774234"/>
  <path id="Trazado_26165" data-name="Trazado 26165" d="M6.52,80.61l.07-.07Z" transform="translate(-1.423 -6.553)" fill="#774234"/>
  <path id="Trazado_26166" data-name="Trazado 26166" d="M54.58,15.67c-.13-.18-.28-.35-.47-.59a5.14,5.14,0,0,1-.5.28l.17.18a.84.84,0,0,0-.13.17s.11.15.15.15a3.18,3.18,0,0,1,.76.13.99.99,0,0,0,.08.26H55c.26.5.41.6.91.54a2.3,2.3,0,0,0-1-.93v-.43a2.38,2.38,0,0,1-.33.24Z" transform="translate(-1.423 -6.553)" fill="#774234"/>
  <path id="Trazado_26167" data-name="Trazado 26167" d="M17.32,77.63c-.22.34-.52.43-.5.78a2.23,2.23,0,0,1,.73-.09,8.09,8.09,0,0,0,1.6.26h.69l-.08-.26c-.72-.09-1.43-.15-2.25-.24C17.49,78,17.42,77.87,17.32,77.63Z" transform="translate(-1.423 -6.553)" fill="#774234"/>
  <path id="Trazado_26168" data-name="Trazado 26168" d="M46.89,10.61v.46l-.6-.11v.17a2.67,2.67,0,0,0,1.53.2c0-.24.11-.5-.2-.72Z" transform="translate(-1.423 -6.553)" fill="#774234"/>
  <path id="Trazado_26169" data-name="Trazado 26169" d="M13.34,79.77v.45l.61-.3a3.06,3.06,0,0,1,0-.43.59.59,0,0,1,.11-.24,1.86,1.86,0,0,0-.72.52Z" transform="translate(-1.423 -6.553)" fill="#774234"/>
  <path id="Trazado_26170" data-name="Trazado 26170" d="M14.42,79.57a2.54,2.54,0,0,1,.09.48c.39-.31.39-.31.56-.85Z" transform="translate(-1.423 -6.553)" fill="#774234"/>
  <path id="Trazado_26171" data-name="Trazado 26171" d="M26.88,50.17c-.15.17-.26.3-.37.41l.07.15a2.85,2.85,0,0,0,.71-.07C27.14,50.47,27,50.34,26.88,50.17Z" transform="translate(-1.423 -6.553)" fill="#774234"/>
  <path id="Trazado_26172" data-name="Trazado 26172" d="M15.89,78.28h.41V77.8h-.41Z" transform="translate(-1.423 -6.553)" fill="#774234"/>
  <path id="Trazado_26173" data-name="Trazado 26173" d="M55.51,17.82a2.62,2.62,0,0,0,.24.37c.08-.19.15-.32.21-.45l-.21-.22Z" transform="translate(-1.423 -6.553)" fill="#774234"/>
  <path id="Trazado_26174" data-name="Trazado 26174" d="M45.77,11.15a.5.5,0,0,0-.08-.3l-.46.24A.4.4,0,0,0,45.77,11.15Z" transform="translate(-1.423 -6.553)" fill="#774234"/>
  <path id="Trazado_26175" data-name="Trazado 26175" d="M15.93,12.17l-.34.34.58-.08a2.25,2.25,0,0,0-.24-.26Z" transform="translate(-1.423 -6.553)" fill="#774234"/>
  <path id="Trazado_26176" data-name="Trazado 26176" d="M44.65,14.91v.24H45C45,14.78,44.86,14.78,44.65,14.91Z" transform="translate(-1.423 -6.553)" fill="#774234"/>
  <path id="Trazado_26177" data-name="Trazado 26177" d="M37,40.43a4,4,0,0,0,.33.3v-.62Z" transform="translate(-1.423 -6.553)" fill="#774234"/>
  <path id="Trazado_26178" data-name="Trazado 26178" d="M26.38,21.6c-.34,0-.34.11-.23.33a1.891,1.891,0,0,0,.23-.05Z" transform="translate(-1.423 -6.553)" fill="#774234"/>
  <path id="Trazado_26179" data-name="Trazado 26179" d="M32.69,80.24V80a2.751,2.751,0,0,0-.3.07,2,2,0,0,1,.3.17Z" transform="translate(-1.423 -6.553)" fill="#774234"/>
  <path id="Trazado_26180" data-name="Trazado 26180" d="M19.63,74.09c-.11,0-.22.11-.33.15l.07.06h.28A.82.82,0,0,1,19.63,74.09Z" transform="translate(-1.423 -6.553)" fill="#774234"/>
  <path id="Trazado_26181" data-name="Trazado 26181" d="M26.3,52.3l.41-.06v-.09H26.3A.19.19,0,0,0,26.3,52.3Z" transform="translate(-1.423 -6.553)" fill="#774234"/>
  <path id="Trazado_26182" data-name="Trazado 26182" d="M29,26.76a2.64,2.64,0,0,1-.39.13C29.06,26.94,29.06,26.94,29,26.76Z" transform="translate(-1.423 -6.553)" fill="#774234"/>
  <path id="Trazado_26183" data-name="Trazado 26183" d="M15.05,13.68a.11.11,0,0,0,0-.07h-.26v.13Z" transform="translate(-1.423 -6.553)" fill="#774234"/>
  <ellipse id="Elipse_730" data-name="Elipse 730" cx="0.11" cy="0.04" rx="0.11" ry="0.04" transform="translate(43.827 33.987)" fill="#774234"/>
  <ellipse id="Elipse_731" data-name="Elipse 731" cx="0.11" cy="0.04" rx="0.11" ry="0.04" transform="translate(36.447 24.377)" fill="#774234"/>
  <path id="Trazado_26184" data-name="Trazado 26184" d="M37.37,29.79v-.16h0Z" transform="translate(-1.423 -6.553)" fill="#774234"/>
  <path id="Trazado_26185" data-name="Trazado 26185" d="M53.78,14.2h0a1,1,0,0,0-.15.08v.05a.14.14,0,0,0,.11-.13Z" transform="translate(-1.423 -6.553)" fill="#774234"/>
  <path id="Trazado_26186" data-name="Trazado 26186" d="M53.78,14.22a.54.54,0,0,1-.09.15C53.74,14.31,53.78,14.26,53.78,14.22Z" transform="translate(-1.423 -6.553)" fill="#774234"/>
  <path id="Trazado_26187" data-name="Trazado 26187" d="M53.8,14.22l-.02-.02v.02Z" transform="translate(-1.423 -6.553)" fill="#774234"/>
  <ellipse id="Elipse_732" data-name="Elipse 732" cx="0.11" cy="0.04" rx="0.11" ry="0.04" transform="translate(47.607 4.707)" fill="#774234"/>
  <path id="Trazado_26188" data-name="Trazado 26188" d="M23.6,59h-.09a.28.28,0,0,0-.13,0,.43.43,0,0,0-.26,0,8.15,8.15,0,0,1-.13,1.08c.52-.06.5-.56.69-.88a.14.14,0,0,0-.08-.2Z" transform="translate(-1.423 -6.553)" fill="#774234"/>
  <path id="Trazado_26189" data-name="Trazado 26189" d="M23.4,58.91a.28.28,0,0,1,.13,0A.28.28,0,0,0,23.4,58.91Z" transform="translate(-1.423 -6.553)" fill="#774234"/>
  <path id="Trazado_26190" data-name="Trazado 26190" d="M42.55,38.62h0v.15h0Z" transform="translate(-1.423 -6.553)" fill="#774234"/>
  <path id="Trazado_26191" data-name="Trazado 26191" d="M31.24,9.94a1,1,0,0,0,0-.15,2.84,2.84,0,0,1-.47-.15c-.17-.08-.32-.21-.35-.21l-.64.19.49.26-.08.09C30.57,9.94,30.92,9.94,31.24,9.94Z" transform="translate(-1.423 -6.553)" fill="#774234"/>
  <path id="Trazado_26192" data-name="Trazado 26192" d="M31.11,11.39a1.27,1.27,0,0,1,.11.13h0a.69.69,0,0,0-.13-.11Z" transform="translate(-1.423 -6.553)" fill="#774234"/>
  <path id="Trazado_26193" data-name="Trazado 26193" d="M31.13,11.37Z" transform="translate(-1.423 -6.553)" fill="#774234"/>
</svg>
