<svg id="Calavera_brownie" xmlns="http://www.w3.org/2000/svg" width="56.722" height="74.254" viewBox="0 0 56.722 74.254">
  <path id="Trazado_25780" data-name="Trazado 25780" d="M26.79,41.71Z" transform="translate(-1.05 -8.548)" fill="#774234"/>
  <path id="Trazado_25781" data-name="Trazado 25781" d="M18.21,36.65s-.08,0-.1.05a.15.15,0,0,1,.12,0h0Z" transform="translate(-1.05 -8.548)" fill="#774234"/>
  <path id="Trazado_25782" data-name="Trazado 25782" d="M57.37,61c-.1-.1-.31.36-.53.09-.14.41-.45-.12-.62.12-.53-.31-.84.05-1.17.36a2.76,2.76,0,0,0-1.92.46c-.05,0-.07-.12-.12-.12a.34.34,0,0,0-.22,0,4.21,4.21,0,0,1-1.65.43.94.94,0,0,0-.46.08c-.55.28-1.24.16-1.77.57h-.07c-.34,0-.63.24-.94.26a2.46,2.46,0,0,0-.84.2,4.19,4.19,0,0,1-2.3.07,21.439,21.439,0,0,0,2.18-1,1.26,1.26,0,0,0,.91-.15A4.48,4.48,0,0,0,49,61.91a1.82,1.82,0,0,1,1-.38,13.64,13.64,0,0,0,2.85-1.15c.56-.15.94-.27,1.32-.36s.6-.19.89.09l.74-.57a2.76,2.76,0,0,0-.52-1,2.67,2.67,0,0,1-.53-1.35h-.07v-.31a.18.18,0,0,0,.1,0,1.946,1.946,0,0,0,.07.31h-.07l.05.05v-.05c.26.29.52.6.79.89,0,.57.48.88.67,1.36h.55l.17-.12a2.08,2.08,0,0,0,.12.51c.12-.17.21-.24.24-.34.07-.41-.22-.74-.27-1.1.05,0,.07-.1.1-.1-.24-.52-.46-1-.72-1.55a6.64,6.64,0,0,0-1-1.37,4.51,4.51,0,0,0-1.25-1.18,3.05,3.05,0,0,0-1.08-1.75c-.45-.35-.74-.88-1.22-1.24a.42.42,0,0,1-.14-.34.45.45,0,0,0-.34-.38c-.24-.07-.48-.14-.81-.26a6.16,6.16,0,0,1-.75-.77c-.24-.36-.64-.41-1-.6A18.279,18.279,0,0,0,47,47.91c-.17-.07-.41,0-.5-.12a1.31,1.31,0,0,0-.72-.21l-.67-.67L44,47.05a.14.14,0,0,0-.1-.05l-1-.22c-.38-.07-.79-.14-1.18-.24a11.3,11.3,0,0,0-2-.57c-.07,0-.14-.14-.19-.17a7.54,7.54,0,0,1,.14-2.85,19.441,19.441,0,0,1,.43-2.3,1.58,1.58,0,0,0,.1-.6c0-.19-.1-.36-.07-.55a19.7,19.7,0,0,1,.19-2.06L39.87,37l-.36.19c-.14-.77-.28-1.49-.43-2.2.22-.17.39-.32.67-.56,0,.34.08.65,0,.7-.34.19.12.38,0,.6s0,.38-.07.57l.17-.09.31.31c.19-.89.19-.89,0-1.27a4.26,4.26,0,0,1,.69-1.8l1.15-.3a1.7,1.7,0,0,0,.12.29.28.28,0,0,0,.12.12,1.81,1.81,0,0,0,.48.16c.38.05.79.08,1.15.1a2.39,2.39,0,0,0,.93-1.56c-.19-.16-.4-.38-.64-.62,0-.12.14-.26.21-.41a1.06,1.06,0,0,0,1.06-.81c0-.43.12-1-.2-1.39l-.74-.17c-.14.33-.41-.14-.65.1s-.5,0-.76,0a2.35,2.35,0,0,0-.67.29c-.22.12-.44.26-.68.41v.65L41,30.7a2.37,2.37,0,0,0-1.6-.59,11.775,11.775,0,0,0-1.68,0,2.35,2.35,0,0,0-1.13.19,1.64,1.64,0,0,1-.74.15,13.62,13.62,0,0,0-1.92,0,9,9,0,0,1-1.53.12,1,1,0,0,1-.36-.12,1.66,1.66,0,0,1-1.3.29c-.36-.15-.6-.22-.81-.31-.43-.19-.94-.24-1.27-.65-.07-.1-.24-.1-.34-.14-.5-.32-1.1-.53-1.22-1.25a3.37,3.37,0,0,0-.43-1.2c.07-.09.12-.14.19-.24-.55-.05-.5-.6-.89-.81.15-.31.27-.55.39-.84a.967.967,0,0,0-.12-.91l.09-.1c-.26-.19-.5-.41-.76-.6a.75.75,0,0,1-.82.1,1.07,1.07,0,0,0-.86,0,3.19,3.19,0,0,1-2,.31c-.53-1.29-.53-1.29-.46-2l.27-.29c-.08-.24-.15-.41-.22-.6.17-.14.31-.28.46-.43.48.62.79,1.37,1.63,1.56.21-.24.5-.07.74-.12a1.35,1.35,0,0,0,.57-1.13,1.36,1.36,0,0,1,.36-.74c.15-.17.32-.31.46-.46a1.32,1.32,0,0,1-.34-.86,1.2,1.2,0,0,1,0-.31,1.42,1.42,0,0,1,.14-.41c-.31-.4-.36-1-.93-1.15-.1-.41-.17-.79-.24-1.17l-.41-.41v-.77l1.1-.45.72.48c1.37,0,1.37,0,1.63-.24-.09-.24-.19-.48-.29-.75h-.55c-.12-.16-.14-.33-.24-.38a1.89,1.89,0,0,0-.69-.24,1.9,1.9,0,0,0-.63.12l-.7-.35a.9.9,0,0,1-1.18,0,1.51,1.51,0,0,1,0-.22,1.3,1.3,0,0,1-.43-.05v-.55L22,11.6c-.1-.29-.19-.45-.24-.65a3.183,3.183,0,0,1,0-.69c-.31-.6-1-.84-1.27-1.3a2.56,2.56,0,0,0-.65-.23c-.14,0-.24.11-.43,0s-.41,0-.62,0a4.7,4.7,0,0,1-.65,0,2.54,2.54,0,0,1-1-.12,1.3,1.3,0,0,0-1.06.12,4.66,4.66,0,0,1-.45.22s0-.05,0-.08c-.21.22-.4.44-.59.63-1.11.38-1,.07-1.92,1.12.07.39.14.82.21,1.18l.6.81c-.12,1.13-.24,2.14-.33,3.05-.39.74-1.13.69-1.66,1-.21.33-.38.64-.55.91.1.48.51.57.79.86.24-.07.65-.07.75-.24.28-.5.86-.62,1.1-1.08h.41a8.6,8.6,0,0,0,0,.88c0,.24.28.51.14.72s.1.51,0,.77a.91.91,0,0,0,.32.91l.93.36.1-.1c.45.24.88.51,1.39.77a2.53,2.53,0,0,1,.62,0c.22.05.38-.29.57-.05.17-.09.32-.21.48-.28.15.4.24.76.36,1.12s0,.74.24,1.2c-.12.05-.26.12-.45.19l.45.53c-.21.55-.72.72-1,.91a4.16,4.16,0,0,1-.91.1h-.5a5.08,5.08,0,0,0-2.09,0l.02-.14s0-.05-.07-.05c-.24.31-.48.6-.69.91v.7c.36.6.67,1.1,1,1.6h.87c.21.12.41.27.57.36V30.7a1.47,1.47,0,0,0,.27.84c-.2.53-.39,1-.55,1.51a1.18,1.18,0,0,1-.05,1.25c.29.26.21.55.05.84a2,2,0,0,0,.14.29l-.14.19c.07.38.12.72.19,1,.52.26.36,1,.86,1.19l.17.65a12.33,12.33,0,0,0,.48,1.41,1.34,1.34,0,0,1-.12,1c.07.07.17.12.17.19a14.78,14.78,0,0,0,.19,1.47,1.61,1.61,0,0,0,.38.88c.29.27.5.58.79.91l.91.27a5.669,5.669,0,0,1,.31.55c-.55,1-1.19,1.24-2,.91-.6,0-.87.45-1.3.41-.24.67.36,1.17.27,1.79.19.34.64.44.83.77a.74.74,0,0,1,.1.26h0a2.73,2.73,0,0,0-.34.34.5.5,0,0,0-.09.12,4.38,4.38,0,0,1-.29.34,1.7,1.7,0,0,1-.55.4c-.5.24-.91.75-1.37.91-.24.84-.16,1.71-1,2.19a11.481,11.481,0,0,1-.1,1.19c-.08.36-.34.69-.27,1.08s-.17.74-.17,1.12a3.33,3.33,0,0,1-.07.7c0,.22.12.41,0,.65a.7.7,0,0,0,.08.67.71.71,0,0,1,0,.57,2.23,2.23,0,0,0-.08,1.25,2.49,2.49,0,0,1,0,1.41c-.12.56-.16,1.11-.26,1.8l.31.22-.21.05v1h-.1c-.17.36-.36.69-.53,1a.36.36,0,0,1-.19.05v.12a.71.71,0,0,0,.17.62h0a1.35,1.35,0,0,1,.12.12h0c-.05,0-.07-.09-.12-.12h0a.42.42,0,0,0-.15.07.29.29,0,0,0,0,.31h0c.19.21.09.43.07.69a1.8,1.8,0,0,1-.34.17,2.159,2.159,0,0,1-.36,0l-.36.36a3.36,3.36,0,0,1-.33.81c-.12.24-.43.27-.58.55a2.38,2.38,0,0,1-.6.63c-.07.07-.19.07-.26.09A1.55,1.55,0,0,1,10,72.12c-.31-.12-.67-.24-1.13-.4,0,.38-.12.74.14,1-.07.22-.14.41-.26.74-.17-.33-.29-.55-.33-.64-.27-.22-.46-.39-.68-.55v-.53c-.33-.07-.55,0-.59.26.16.36.33.65.47.94s.34.62.48.93v.29a2.8,2.8,0,0,1-1.51-.84H5.91a3.587,3.587,0,0,1,.14-.74l.15-.79H6.1c-.24.38-.5.76-.74,1.15a1.63,1.63,0,0,1,.19.21,1.36,1.36,0,0,1-.17.17,1.73,1.73,0,0,0,.31.22,8.88,8.88,0,0,0,2,.79c.27.07.43.14.43.55-1-.24-1.91.26-2.9.36.32.07.67,0,.89.12a.87.87,0,0,0,.84,0l.12.12.12-.07a.732.732,0,0,1,.33.07l-.57.62c.24.24.48.41.53.72-.17.27-.34.55-.53.84l.26.1c.39-.46.46-1.08,1-1.44-.17-.19-.29-.31-.44-.51L8,75.17H9c.15.43.46.79.39,1.29a1.721,1.721,0,0,0,.24.65c.09,0,.17,0,.19-.07.17-.48-.34-.84-.31-1.18l.26-.43a13.75,13.75,0,0,0,2.42.86h.17v-.56l-.22-.21h-.86a9,9,0,0,1-1-.26c.22-.17.34-.29.48-.39s.31-.21.46-.31h-.65a5,5,0,0,0-.74.19c.31-.55.69-.93.57-1.53.15.12.19.17.27.24.21-.27.43-.51.67-.79h.88c.22.33.39.62.58.93V74c.14.12.34.26.41.33.09.29.12.46.17.6s-.17.29-.27.51a2.83,2.83,0,0,0,.17,1.36,20.91,20.91,0,0,1-3,2.69,2.429,2.429,0,0,1-.29-.2l-.72.36c-.07-.07-.15-.12-.19-.16s-.17.12-.27.14a2,2,0,0,0-1.08.48H7.59l.14-.36L6.39,79.2l-.17.14c-.24-.16-.5-.33-.71-.5a1.2,1.2,0,0,0,0-.26c-.26-.24-.45-.39-.65-.55.27-.2.15-.46.15-.68l-.46-.45v-.55c0-.15-.21-.27.12-.51l-.48-.21c.15-.26.24-.46.36-.7V73.75h0a.46.46,0,0,1-.12-.12h0a.64.64,0,0,0,.12.12h0a1.57,1.57,0,0,1,.19-.15h0a.11.11,0,0,0,0-.09c.12-.31.19-.63.29-.91a1,1,0,0,1-.12-.24c.36-.29.55-.79,1.15-.79l.55.28a6.28,6.28,0,0,0,2.23-1c.07.17.14.26.19.38A1.48,1.48,0,0,0,10.11,71a2.33,2.33,0,0,0-.55-.39,4.13,4.13,0,0,0-2.35-.41c-.39,0-.58.29-.89.41H5.67a6.34,6.34,0,0,0-1.75,2.54c0,.1,0,.22-.12.27a2.84,2.84,0,0,0-.6,2,8.07,8.07,0,0,0,.17,1.82l.36.57a1.89,1.89,0,0,0,.45.6c.36.22.48.7.84.82.51.16.51.69.89.93a.81.81,0,0,1,.17.31L4,80.73a.92.92,0,0,0-.2-.12c-.24.07-.43.36-.72.07,0-.05-.19-.05-.28-.05a2.533,2.533,0,0,1-.87,0c-.22-.1-.5.17-.76,0a.747.747,0,0,1-.12.07v.36a8.32,8.32,0,0,0,1.1.36c.19,0,.43-.12.65-.14a3.44,3.44,0,0,1,1.2,0c.35.12.76,0,1.1.27.24-.17.43.12.65,0l.74-.31a2,2,0,0,0,.24.34c.45-.51.93.16,1.34-.08s.93.31,1.34,0a2.538,2.538,0,0,1,.72-.36l.65.34.14-.15a7.112,7.112,0,0,1,.82.34c.17.09.26-.31.45-.05,0,.05.31-.09.46-.12a3.12,3.12,0,0,1,.53,0c.55-.31,1,.08,1.51.2,0-.08.14-.2.21-.34,1.06.45,2.16,0,3.24.31a.7.7,0,0,1,.28-.09c.2,0,.44.14.53.07.27-.19.43,0,.63.07s.31.07.38,0a1.79,1.79,0,0,1,1.48-.17,3.31,3.31,0,0,0,.89,0c.24,0,.53.07.72-.14.24.26.55.12.82.14a3.15,3.15,0,0,0,.55-.12l.72.27a.45.45,0,0,1,.24-.12,2.29,2.29,0,0,1,.64,0c.17,0,.39-.08.51.12s.31-.22.52,0,.41,0,.58-.08a.53.53,0,0,1,.17,0h.09a.3.3,0,0,1,.24.09s.05.05.05.07a.3.3,0,0,1,.1-.09h2.85l.19.19v.36c-.14.09-.31.19-.48.31.22,0,.43.19.62.14s.39.1.56-.07a.3.3,0,0,1,.35,0c.27.24.56,0,.82.14a3.24,3.24,0,0,1,.12-.34h.34a3.85,3.85,0,0,0,.35.34,1.45,1.45,0,0,0,.51-.1,1.45,1.45,0,0,1,1.08,0,2.61,2.61,0,0,0,1.46.07c.26,0,.43.14.69,0a5,5,0,0,1,.82-.17h.07c.34.36.65.07.94,0a3.3,3.3,0,0,0,.31.19.6.6,0,0,1,.79-.1c.21.12.45,0,.65,0s.57-.31.83,0c.36-.14.7.12,1.06,0A5.7,5.7,0,0,1,44,82.6h.79c.05,0,.12-.09.15-.12.24.1.48.17.67.24.19-.09.36-.19.45-.24.34,0,.67.2.82.1.43-.31.77-.07,1.17,0l.31-.5c.2.05.44.07.68.12l1.05-.43a2.23,2.23,0,0,1,.14.31,8.191,8.191,0,0,1,1.13-.29,8.529,8.529,0,0,0,1.13,0,4.12,4.12,0,0,0,.88-.53l.17-.09c1.08.33,1.54.19,1.9-.29a5.82,5.82,0,0,0-3.34-.41,1.4,1.4,0,0,0-.19-.17,5.371,5.371,0,0,1,.12.53,3.47,3.47,0,0,1-1.08.19H49a.87.87,0,0,0-.53.1.9.9,0,0,1-.89,0,4.151,4.151,0,0,1-.72.12,1.66,1.66,0,0,1-.84-.1,1.114,1.114,0,0,0-.79.12,2.469,2.469,0,0,1-.29.1c-.26.1-.5.14-.69-.07-.41.29-.89.07-1.22.14a2.186,2.186,0,0,0-.7.36L41.76,81c.21-.12.4-.34.6-.34.81,0,1.63-.43,2.44,0a.47.47,0,0,0,.31,0c.53-.19,1.06-.41,1.68-.62a1.79,1.79,0,0,0,1.46-.48c.12-.12.31-.12.48-.17l1.49-.48a.2.2,0,0,1-.07-.1l.48-.55H51c.09-.14.14-.33.26-.38.43-.17.7-.55,1.13-.77a3.59,3.59,0,0,0,1.2-1c.4-.5.76-1,1.19-1.51a5.53,5.53,0,0,0,.65-.93c.41-.6.84-1.2,1.25-1.82a6.49,6.49,0,0,1,.09-1,1.25,1.25,0,0,0-.48-1.63L56,68.91c.34-.26.65-.53,1-.77v-.5a1.58,1.58,0,0,0-1.39,0c-.36.6,0,1.44-.67,1.94v.38c-.24.36-.58.65-.63,1a5.58,5.58,0,0,1-.52,1.54,3.19,3.19,0,0,1-.63.38c-.21.09-.14.45-.45.41.07.28-.17.48-.22.72a5,5,0,0,0-.16.64c-.44,0-.36.48-.63.6s-.57.29-.88.43c-.08.17-.17.36-.27.6a6.52,6.52,0,0,1-.91-.12,4.911,4.911,0,0,0,.22.46,13,13,0,0,0-2.26,1.24h-.76l-.2.2-.12.12h-.69l-.29.36H45c-.07.19-.12.28-.24.57.29-.19.45-.31.65-.45a3.22,3.22,0,0,0,1.6-.24,28.521,28.521,0,0,0,3.07-1.3h.12c.05,0,.17.19.24.31-.38.46-.91.48-1.46.7-.07.1-.24.29-.29.36-.89.17-1.65.29-2.3.41l-.67.6h-1.2c-.38-.17-.12-.82-.72-.77v.91a7.642,7.642,0,0,1-.86.19,1.611,1.611,0,0,0-1.1.27.43.43,0,0,1-.36,0c-.19,0-.36-.12-.6,0s-.48,0-.74.17a.66.66,0,0,1-.6,0c-.36-.28-.63,0-.87,0l-.76-.38v.31c.17.17.44-.07.48.21h0a.658.658,0,0,1,.12.12v.05a1.35,1.35,0,0,0-.12-.12h0a1,1,0,0,1-.7.17h0a.2.2,0,0,1-.1,0,2.06,2.06,0,0,1-.76-.17.67.67,0,0,0-.91.07c-.15-.21-.24-.38-.39-.6-.69.27-1.36-.19-2.08-.29v.6c.19.22.57.27.57.65l-1.48.31a8.841,8.841,0,0,1-1-.41,1.31,1.31,0,0,0-1.11-.07.92.92,0,0,1-.36.07H28.16a1.94,1.94,0,0,1-.51-.14.36.36,0,0,1-.16.14.24.24,0,0,1-.22,0c-.17-.15-.41.09-.55-.1-.34.29-.77.12-1.13.17s-.93-.15-1.39.14a.21.21,0,0,1-.24,0c-.26-.29-.6-.12-.91-.14a4.7,4.7,0,0,0-.65,0h-2c-.22,0-.48-.1-.65.14-.16-.33-.31.07-.52,0a3.88,3.88,0,0,0-1,0,3.79,3.79,0,0,1-.89,0c-.29-.07-.53.17-.84.05s-.57.12-.89.12a2.13,2.13,0,0,1-1.29-.15.5.5,0,0,0-.38,0c-.2.24-.46.15-.67.15a5.49,5.49,0,0,1-1.39-.12,4,4,0,0,0-1.32.09c-.27-.29-.31-.45-.12-.65.16.08.36.12.55.2a3.73,3.73,0,0,0,1.01-.9.73.73,0,0,1,.46-.21,1.57,1.57,0,0,0,.91-.53c.19-.19.43-.36.67-.57.07-.48.15-1,.22-1.59.07-.16.17-.36.26-.55a1.78,1.78,0,0,0,.17-1.08c-.07-.57-.12-1.12-.17-1.55-.29-.63-.6-1.11-.79-1.66s-.62-1-.79-1.63v-1.1c.5.07.67-.36,1-.6a8.32,8.32,0,0,1,.17-1.34,9.59,9.59,0,0,1,.62-1.3c-.1-.52.45-1.1,0-1.65a1.42,1.42,0,0,0,.36-1c0-.17-.05-.38,0-.45.24-.27.07-.55.14-.84a4.72,4.72,0,0,0,.15-.82c0-.79,0-1.6,0-2.39a1.4,1.4,0,0,0-.12-.46c0-.29.16-.53.09-.6-.4-.45.05-.89,0-1.32.33-.16.31-.57.45-.86s.17-.67.34-1a6.88,6.88,0,0,1,.86-1.6,1.88,1.88,0,0,0,.31-.33A5.88,5.88,0,0,1,18.66,51H19c.22-.22.41-.43.63-.63a3.51,3.51,0,0,1,1.72-.64c.24-.05.48.26.72,0,.5.27,1,0,1.56.12a1.14,1.14,0,0,0,.14-.12c.63.34,1.34-.12,1.92.34.17-.24.34-.22.6-.14s.43-.12.65-.17a5.34,5.34,0,0,1,.71-.07c.22-.15.48-.32.77-.53a4.32,4.32,0,0,0,1.54.81c-.29.2-.41.34-.56.36a.646.646,0,0,0-.45.43c-.14.44-.1,1-.53,1.32a1.829,1.829,0,0,0-.26,0c-.55.69-1.2,1.22-1.75,1.82a1.89,1.89,0,0,1-.65,1.25c-.5.55-.62,1.34-1.13,1.86a3.87,3.87,0,0,1-.71,1.63c0,.27.14.51.07.6-.24.32,0,.7-.22,1s.1.67.07,1a1.542,1.542,0,0,1,0,.48,2.3,2.3,0,0,0,0,1.73,4.89,4.89,0,0,1,.15.93s-.07.1-.15.2l.24.47-.36.24c.12.24.24.46.29.58a2.07,2.07,0,0,0-.07,1.44,1.12,1.12,0,0,1-.07,1c.31.44.07.92.19,1.37l.5.5a1,1,0,0,0,.15.94,4.25,4.25,0,0,1,.31.91,6.14,6.14,0,0,0,.45.93c.15.29.32.58.48.84a9.374,9.374,0,0,0,.6.75,1.646,1.646,0,0,1,.19.86c.56.45,1,.84,1.51,1.25.17.14.39.26.44.55,0,.09.24.14.36.26.55.53,1.34.77,1.84,1.44h.58a1.57,1.57,0,0,0,.62.45.89.89,0,0,0,.29,0,1.08,1.08,0,0,0,.19,0c-.1-.26-.19-.5-.27-.74h-.45c-.14-.17-.34-.41-.46-.53A7.152,7.152,0,0,0,30.6,78c0-.34-.39-.36-.48-.53s-.36-.31-.43-.46a1.34,1.34,0,0,0-.56-.43,2.21,2.21,0,0,1-.33-.29c-.14-.14-.22-.36-.38-.48s-.41-.47-.72-.57c0-.41-.34-.6-.46-.94a1.37,1.37,0,0,1,0-.28c-.26-.15-.5-.29-.48-.6h0a3.12,3.12,0,0,1-1.29-2.35v-.19c-.07,0-.19-.15-.26-.19-.08-.39-.15-.75-.22-1.08s.14-.67-.12-1c.07-.15.14-.27.22-.43.14.57.28,1.12.45,1.65s.6,1.15.41,1.77c.29.51.55,1,.79,1.42v.31c.22.12.44.24.48.5h0V74c.46.46,1.15.67,1.32,1.39a.29.29,0,0,0,.17.17c.48.17.72.58,1.05.91.1.1.2.17.29.27l.15.12a6.22,6.22,0,0,0,1,.67v-.24c-.17-.17-.57-.15-.43-.6.45.17.65.57.91.76l.84.32-.1.26-.57-.14v.21c.81.58,1.8.82,2.73,1.37h.43c-.07-.14-.09-.26-.14-.34a2.35,2.35,0,0,1,.38-.26c-.55-.53-1.29-.5-1.82-1a1.731,1.731,0,0,0-.34.14,1.85,1.85,0,0,0-.16.24,1.02,1.02,0,0,1-.36-.12c.12-.19.16-.31.24-.41-.1-.16-.15-.43-.27-.45a2.38,2.38,0,0,1-.86-.62,6,6,0,0,0-.91-.51.49.49,0,0,1-.24-.21c-.12-.27-.34-.41-.62-.2v.41h.31c.12,0,0,.19,0,.31-.14-.1-.26-.17-.38-.24l.07-.07a2.07,2.07,0,0,1-.88-.65l-.12-.14a4.484,4.484,0,0,1,.19-.77c-.1-.1-.27-.24-.41-.36l-.17.14c-.14-.24,0-.38,0-.57a1.555,1.555,0,0,0-.22-.58l-.5.15-.67-.68a1.42,1.42,0,0,0,0-.28,4,4,0,0,1-.89-1.92l-.36-.19c0-.29.14-.53.05-.7a5.16,5.16,0,0,1-.51-1.32,4.38,4.38,0,0,0-.24-.62c0-.21-.16-.48-.09-.62s-.19-.39-.1-.63a1.68,1.68,0,0,0,0-.71,5.7,5.7,0,0,1,.14-.65,5.67,5.67,0,0,0-.1-1c.24-.27.08-.6-.07-.87.15-.23.24-.43.34-.59a1.71,1.71,0,0,1-.15-.48,3.51,3.51,0,0,1,.39-1.54,13.23,13.23,0,0,0,.5-2c.31-.11.26-.55.53-.81s.17-.74.36-1,.41-.7.62-1,.38-.65.58-1l.52-.24a.9.9,0,0,1,.05-.36c.74-.29,1.08-1,1.56-1.51l.79.5c.1-.28.19-.55.29-.81.24.29.55.09.81.19a14.69,14.69,0,0,0,2,1v.72c.24.36.58.65.63,1a11.68,11.68,0,0,0,.52,1.8,3.1,3.1,0,0,0,.6,1.49,1.73,1.73,0,0,0,.1.69,3.35,3.35,0,0,1,.41,1.1c0,.43.33.77.38,1.23a3.71,3.71,0,0,0,.36,1.19,2.48,2.48,0,0,1,.24,1.11,2.18,2.18,0,0,0,.19.79c.07.14.29.24.5.36l-.09.09c-.02.02.01-.09.01-.09h0a1.24,1.24,0,0,0,0,.6h0c0,.05.1.08.12.12h0A.46.46,0,0,0,38,65.6h0l-.36-.24c.24-.58-.29-1-.36-1.51,0-.1-.19-.15-.22-.17-.16.19-.31.34-.43.48h0v.05h0c-.09.12-.21.22-.28.31l.19.29c-.58.6-1.49.5-2.11,1.13a.25.25,0,0,0-.27-.1.67.67,0,0,0-.19,0c-.19.07-.4.19-.62,0-.46.27-.91.53-1.37.77a5.62,5.62,0,0,1-1.34.62,11.349,11.349,0,0,0-2.23.79,14.59,14.59,0,0,1-1.87.75,2.877,2.877,0,0,0,.1.5c.21-.19.33-.31.48-.43.55.07,1-.31,1.51-.43a7.11,7.11,0,0,1,.93-.27c.36-.47,1-.43,1.46-.76a1.43,1.43,0,0,1,.65-.17c.27,0,.34-.46.67-.34.58-.28,1.27-.28,1.78-.74h0l.41.16v.36a1.44,1.44,0,0,1-.43.34l-.12.07a1.7,1.7,0,0,0-.79.63h-.43c-.29.14-.67.21-.74.4s-.24.19-.41.24-.34.24-.51.31a12.67,12.67,0,0,0-3.3,1.87,1.17,1.17,0,0,1-.2.1h-.38a.423.423,0,0,0,.19.57c.29-.21.55-.4.82-.62a.69.69,0,0,1,.17.17l.43-.29a5.11,5.11,0,0,1,.6-.38l.36-.22a3.43,3.43,0,0,1,.91-.5,2.18,2.18,0,0,0,1-.65,4.36,4.36,0,0,0,1.53-.74,7.079,7.079,0,0,1,1.39-.72c.58-.14.84-.74,1.34-.82.15.1.27.15.39.22a4.9,4.9,0,0,1-.46.41c-.6.38-1.32.65-1.56,1.41,0,.15-.21.22-.33.34l-.58.64.22.12c.65-.31.86-1.07,1.53-1.34a4.65,4.65,0,0,1,1.94-1.46.23.23,0,0,1,.12,0,1.06,1.06,0,0,0,.1.52c.12-.09.24-.14.24-.21.05-.27.17-.22.31-.15-.29.6-.48,1.25-.72,1.87a19.1,19.1,0,0,0-.57,2,8.07,8.07,0,0,0-.31,2h-.22c-.17.82-.31,1.58-.48,2.45-.05,0-.17.12-.22.14v1.41h.08a1.791,1.791,0,0,1,.07-.6l.29-.28v-.79a2.53,2.53,0,0,0,.21-.24c.19-.68.36-1.23.51-1.78,0,0-.1-.12-.08-.17a4.37,4.37,0,0,0,.43-1.51,9.661,9.661,0,0,1,.34-1.36c-.24-.19.14-.31.07-.53s.1-.31.15-.48a2.53,2.53,0,0,1,.19-.55,3.09,3.09,0,0,0,.48-1.51l.36.07c-.34.41-.22.82-.22,1.32.22-.48.36-.86.53-1.27a2.57,2.57,0,0,1,.19.41,1.3,1.3,0,0,1-.12.45,5.081,5.081,0,0,1-.17.51l.15.21a3.509,3.509,0,0,1-.15.6c-.12,1.44.19,2.83.15,4.27,0,.14.21.14.07.38s0,.55-.07.84a2.09,2.09,0,0,0,0,.79c.1.29-.12.55,0,.74a1.74,1.74,0,0,1,.14.75,2.438,2.438,0,0,0,.12.45,5.739,5.739,0,0,1-.16.75c.16.09.28.19.5.33,0-.77-.38-1.44,0-2a2.77,2.77,0,0,1-.12-.51c0-.48,0-1,0-1.43-.43-.44.1-.94-.14-1.39.31-.44,0-1,.26-1.42a.84.84,0,0,0-.07-.6,1.72,1.72,0,0,1-.19-1.1c.07-.31.07-.6.14-.91s.07-.46.12-.7a4.31,4.31,0,0,0,0-1,.52.52,0,0,1,.1-.2c.26.65.48,1.25.72,1.85a.55.55,0,0,0-.17.65c.17.45.41.88.62,1.34a2,2,0,0,0,0,.86,25.289,25.289,0,0,0,.86,2.54.71.71,0,0,1,0,.72,5.35,5.35,0,0,1,.67,1.85.61.61,0,0,0,.24,0A2.55,2.55,0,0,0,42.32,76c0-.08-.1-.15-.1-.2a6.25,6.25,0,0,0-.57-2.08c0-.07-.08-.14,0-.22a3,3,0,0,0-.14-.74.91.91,0,0,0-.32-.67v-.22a1.94,1.94,0,0,0-.34-1.48,2.14,2.14,0,0,1-.31-1.32.67.67,0,0,0,0-.26A4.77,4.77,0,0,1,40,67.26l.17-.12c.17.14.31.29.48.43-.12.81.5,1.32.65,1.89.19.15.33.24.43.31s-.15.27-.12.32c.26.4.21,1,.62,1.34.12.09.1.33.17.48.17.36.29.74.46,1.1a8,8,0,0,1,.83,1.75c.32.24.08.65.32.91a3,3,0,0,1,.45.84,1.91,1.91,0,0,1,0,.53l.74.74a10.452,10.452,0,0,0,1.15-.26c.07,0,.15-.15.17-.17a4.37,4.37,0,0,0-.77-1.44v.5l-.56.48c-.21-.5-.43-.91-.59-1.34s-.6-.81-.6-1.34-.51-.79-.63-1.27S43,72,42.82,71.5a3,3,0,0,1,.43,0c.29.1.19.46.36.72l.27-.38c.12,0,.24.12.26.12,1.2,1.7,2.2,3.4,3.36,4.84a.81.81,0,0,0,.31,0,.67.67,0,0,0,.19,0,1.38,1.38,0,0,0,.29-.17,1,1,0,0,0,.16-.21A1.28,1.28,0,0,1,48,76.1a.73.73,0,0,1-.19-.28A7.259,7.259,0,0,0,47,74.64c-.24-.34-.53-.62-.79-1s-.46-.67-.7-1c-.48-.67-.95-1.31-1.43-2,.07-.14.12-.26.24-.48a.88.88,0,0,1-.89-.48.59.59,0,0,1,.05-.29h.12c-.12-.16-.22-.33-.39-.55.12-.16.22-.33.36-.52s.07-.53.1-.79a3.531,3.531,0,0,0-.12-.46c.19.1.33.1.36.17a1.38,1.38,0,0,0,.88.74c.15,0,.22.26.34.43h.38c.72.57,1.35,1.12,2,1.6.4.29.72.7,1.12,1a8.21,8.21,0,0,1,1.06.77c.38.33.81.6,1.22.91.22.17.46.33.67.5h.12c.05,0,.17-.19.29-.36-.5-.36-.94-.72-1.39-1-.19-.12-.46-.09-.55-.38-.34,0-.29-.31-.46-.46s-.45-.21-.64-.35c-.56-.41-1.08-.87-1.63-1.3-.17-.12-.34-.26-.58-.45h-.19c-.17-.17-.34-.44-.53-.48s-.21-.48-.53-.44c0-.31-.24-.33-.43-.45A2.18,2.18,0,0,1,44.6,67a1,1,0,0,1,.74.12,14.221,14.221,0,0,0,1.56.89,7.78,7.78,0,0,1,2,.84,2.133,2.133,0,0,1,1,.45,2.31,2.31,0,0,0,1.05.39,1.011,1.011,0,0,1,.17.16c.31.32.84.22,1.13.6.05.08.26,0,.38,0a4.128,4.128,0,0,1,.46.31h.5v-.24c-.48-.1-.86-.48-1.37-.56-.43-.62-1.27-.45-1.77-1a3.45,3.45,0,0,1-1.34-.46c-.77-.26-1.42-.74-2.16-1a1.37,1.37,0,0,1-.36-.31h.74a.82.82,0,0,0-.72-.48A5,5,0,0,1,44.52,66c.82-.12,1.49.46,2.28.26a3.479,3.479,0,0,1,.22.36c.33-.12,1.1-.28,1.27-.14s.6.07.88.19a8.238,8.238,0,0,1,.84.29c.24.14.63,0,.89.17a2.06,2.06,0,0,0,1,.29c.4-.05.64.4,1.07.33.12.19.32.14.51.17s.67.17,1.08.29l.45-.87a4,4,0,0,1-.43-.19,2.76,2.76,0,0,1-.55.12,10.81,10.81,0,0,1-2.9-.33,3.79,3.79,0,0,1-1.2-.36,4.1,4.1,0,0,0-1.75-.46,1.42,1.42,0,0,0-1.39-.45,1.11,1.11,0,0,0-.91-.34,1.71,1.71,0,0,1-.5-.1,4.79,4.79,0,0,1-1.08-.48c-.34-.19-.75-.09-1.13-.31a5.43,5.43,0,0,0,1.2-.24,1.25,1.25,0,0,1,.5-.14,5.61,5.61,0,0,0,1.49-.1c.5-.16,1-.09,1.48-.26.72-.26,1.51-.19,2.23-.46a3.24,3.24,0,0,1,.65-.16c.29,0,.67.12.86-.05s.6,0,.87-.26.52,0,.81-.17a1.73,1.73,0,0,1,.89-.17A1.08,1.08,0,0,0,55,62.1h.84c.22.29.46.58.75.94l-.89.36-.34-.17-.28.19c-.6-.4-1,.1-1.54.34-.21-.1-.45-.19-.69-.31a1.33,1.33,0,0,1-.94.28c-.09,0-.21.1-.33.17s0,.07,0,.1l.36.17c.21-.12.41-.22.57-.32a.92.92,0,0,0,1,.08c.12,0,.31-.1.36,0,.41.33.77.07,1.18,0l.62.32c.05-.12.07-.22.12-.34l.29.34c-.05.31-.12.71-.17,1.07a2.53,2.53,0,0,1-.43.17,2.73,2.73,0,0,0-1.44-.07c-.22,0-.36.17-.62,0s-.41.07-.6,0a6.35,6.35,0,0,0-1.56-.07l-1.61-.17a2.61,2.61,0,0,0-.79,0c-.24,0-.45-.29-.67,0a1.23,1.23,0,0,0-1-.12.129.129,0,0,0,.12.12,19.58,19.58,0,0,0,3,.65,11.718,11.718,0,0,1,1.34.24c.26.07.46-.17.7-.08s.38.29.55.12.33.17.52,0a1.34,1.34,0,0,1,.22-.12,4.27,4.27,0,0,0,.84.1,3.22,3.22,0,0,1,1.36,0,2.42,2.42,0,0,0,.48-.33,3.831,3.831,0,0,0,.39-.51H57l.65-.62V61.85C57.87,61.74,57.8,61.39,57.37,61ZM42.17,33v-.26a.09.09,0,0,0,.08,0,2.68,2.68,0,0,0,.07.27Zm.46-1.92c.36.17.48.51.65.82a4.3,4.3,0,0,0-.22.48h-.21a1.08,1.08,0,0,1-.89-.91,6.381,6.381,0,0,1,.67-.41ZM40.9,32.21H41a1.6,1.6,0,0,1,0,.27h-.14a1.1,1.1,0,0,0,.04-.27ZM13.79,16v-.26l.41.19a3.889,3.889,0,0,1-.41.07Zm4.56,31.6H18.3v-.16h.05Zm.17-.52a3.65,3.65,0,0,0-.15-.39c.17-.05.17-.05.15.39Zm-9,27.15h0v-.17h0Zm0-1A1.17,1.17,0,0,1,9.36,73c-.07-.21.1-.26.26-.33a.72.72,0,0,0-.19,0,1.21,1.21,0,0,1-.14-.1h.12c.05,0,.07-.09.12-.12h.05c-.05,0-.1.07-.12.12h0v.07a1.68,1.68,0,0,0,.41-.1l.26.27c-.39-.06-.36.27-.65.46Zm1.39-1.17H10.6V72h.31Zm-6.21.05h0v.17h0Zm3.81,8.67c0,.05-.07.1-.12.12h0c0-.05.09-.08.12-.12a.345.345,0,0,1,.12-.12h0s-.11.12-.16.16ZM9.6,79.75h0Zm-.34.67.29-.29c.07.14.17.29.24.43C9.46,80.78,9.43,80.46,9.26,80.42Zm45.23-7.58h0Zm-.38.55a.47.47,0,0,1-.17.67.967.967,0,0,1-.33-.07c.19-.24.33-.4.5-.6Zm-2,2.21a4.131,4.131,0,0,1,.43-.55h.29c.09.17.16.36.28.6l-.48.07a2,2,0,0,0-.09.29H52.1c0-.17-.05-.32,0-.41Zm-.17.53c-.31.16-.43.24-.58.33l-.26-.26c.25-.03.45-.05.83-.07ZM41.67,82h0Zm-2-1.46a.08.08,0,0,0,0,.07l-.26.08a.27.27,0,0,0,0-.15Zm-5,1.11h0v.16h0Zm-22.84-2.5h-.17V79.1h.17ZM13,78v-.27a1.64,1.64,0,0,1,.31.22A1.12,1.12,0,0,0,13,78Zm.62-1.06h0Zm0-.31h0Zm.27-1.46a2.3,2.3,0,0,0,.07.36h-.58a2.055,2.055,0,0,1,.49-.41ZM14.06,67H14a.75.75,0,0,1-.05-.26h.14a1.06,1.06,0,0,0-.03.26ZM34.41,78.55a.34.34,0,0,0,0,.14h-.26a.07.07,0,0,0,0-.07Zm-9.88-17h.07l.08.27a.39.39,0,0,0-.15,0Zm0,1.12h.26a.47.47,0,0,1-.09.55c-.1.12,0,.34-.08.53a3.3,3.3,0,0,1-.11-1.05Zm.21-2.27v-.17h.05v.17Zm-.09,4.17v.48h-.07V64.6Zm.05,2.49q.015-.3,0-.6a1.714,1.714,0,0,0-.12-.41h.21c.05.26.12.5.17.79a1.39,1.39,0,0,0-.28.25ZM26.74,55.9a1.54,1.54,0,0,0-.46.76,5.91,5.91,0,0,1-.81,1.8V59l-.53.77a2.66,2.66,0,0,0-.31-.26c.33-.41.43-.92.74-1.32a1.87,1.87,0,0,0,.27-1.32,4.12,4.12,0,0,0,.33-.43c.17-.27.24-.55.6-.72s.36-.53.55-.79c.05-.07.15-.1.34-.17a5.5,5.5,0,0,1-.72,1.14Zm1-1.56h0a.61.61,0,0,0-.14.17.639.639,0,0,1-.12.12l-.05-.05c.05,0,.1-.07.12-.12h0c.05,0,.1-.09.05-.07.19-.38.34-.65.48-1,.1.52.12.54-.36.95Zm.72-.82c-.26-.28.1-.48.1-.76.45,0,.43-.48.67-.65h.43c-.43.5-.84.96-1.22,1.41Zm7.67,12.37v.07l-.82.58a1.58,1.58,0,0,1-.29-.1l-.07-.07V66.3a.1.1,0,0,0-.07-.1h0a.55.55,0,0,1,.17-.17A.08.08,0,0,1,35,66a.779.779,0,0,1,.14,0h.36a.85.85,0,0,0,.34-.14A.76.76,0,0,0,36,66c.2-.21.34-.36.53-.33h.07l.1.07v.22a1.03,1.03,0,0,0-.59-.07Zm.89.46h-.27s-.07.1-.12.12h0l.07-.07h0l.39-.63Zm9-3.69h-.63a.44.44,0,0,1,.63-.27Zm8.29-3h-.94c-.26.17-.5.34-.76.5L52.36,60a2.43,2.43,0,0,0-.89.43c-.24.21-.59.19-.88.4a3.26,3.26,0,0,1-.87.39,3.42,3.42,0,0,0-1.24.64c-.7-.09-1.22.63-2,.46v-.43A3.92,3.92,0,0,1,48,61.22a2.59,2.59,0,0,0,.33-.17c.36-.17.65-.48,1.11-.46A2.86,2.86,0,0,1,51,59.78c.09,0,.16-.1.26-.14l.67-.34c.19-.1.41-.17.6-.29a3.6,3.6,0,0,0,.62-.48c.48-.07.94.15,1.39-.31-.02,1.06-.02,1.06-.26,1.39Zm.33-3a.24.24,0,0,0,0,.14h-.27a.1.1,0,0,0,0-.07Zm-1-1.78v.67c.22.29.41.51.6.75l-.19.19c-.12-.14-.24-.31-.43-.55v-.29l-.1-.07c-.07-.19-.16-.38-.26-.6Zm-.7-.45h0v.17h0Zm-7.89-5.68a1,1,0,0,0,.63.21,1.59,1.59,0,0,1,.91.34,6.23,6.23,0,0,0,1,.48,3.36,3.36,0,0,1,.76.48c.7.57,1.42,1.1,2.11,1.65a.3.3,0,0,0,.19.1,2.81,2.81,0,0,1,1.59,1.17c.14.22.31.41.43.63a1.62,1.62,0,0,1,.07.52c-.27-.29-.48-.5-.6-.64s-.43-.05-.5-.15a1.91,1.91,0,0,0-.58-.55c-.26-.14-.6-.34-.69-.58s-.41-.38-.6-.52a12.07,12.07,0,0,0-2.52-1.66,2.94,2.94,0,0,1-.58-.36A7.44,7.44,0,0,0,44.86,49a.32.32,0,0,1-.29-.1,1.37,1.37,0,0,0-.89-.41c-.07,0-.14-.14-.28-.28a2.34,2.34,0,0,1,1.67.45ZM43.42,59.18H43.3a6.7,6.7,0,0,1-.45.6c-.15.14-.41.17-.44.5,0-.14-.09-.22-.07-.29.1-.36.27-.69,0-1.08-.12-.19,0-.45.15-.64a9.92,9.92,0,0,0,.79-1.2c.19-.41.64-.67.69-1.15.55-.27.55-.89.91-1.3s.6-1,1-1.53a4.63,4.63,0,0,0,.36-.82c.1-.21.22-.45.34-.67a7.61,7.61,0,0,1,.48-.64c-.08-.1-.17-.17-.29-.31-.19.16-.41.26-.48.43-.29.72-.89,1.27-1,2.06-.31.21-.31.62-.53.91-.5.77-1,1.58-1.43,2.37A4.22,4.22,0,0,0,43,57l-.84,1.06a2.287,2.287,0,0,0-.05-.63,4,4,0,0,0,.65-1.34,3.6,3.6,0,0,1,.5-1,3.61,3.61,0,0,0,.58-1.2,4.79,4.79,0,0,1,.48-1.08A6.49,6.49,0,0,0,45,51.56c0-.1.14-.15.21-.24v-.55a6,6,0,0,0,.48-.43l-.26-.27c-.1.07-.24.12-.29.22-.14.31-.6.45-.55.88a1.114,1.114,0,0,1-.21.56,3.32,3.32,0,0,0-.44.93A3,3,0,0,1,43.16,54c-.1.26.09.55-.17.81s-.07.62-.36.82,0,.64-.43.62c.12.38-.36.5-.36.81s-.34.41-.46.65l-.14-.07c0-.14-.1-.34,0-.41.5-.48.45-1.17.57-1.77a6,6,0,0,0,.38-1.61c0-.09.17-.19.29-.31a2.29,2.29,0,0,1,.19-1,9.4,9.4,0,0,0,.46-1.48,2.35,2.35,0,0,1,.65-1.34v-.51l.19-.07a.84.84,0,0,1,.57.14,14.19,14.19,0,0,0,1.66.82,6.21,6.21,0,0,1,1.67,1.13,3.816,3.816,0,0,1-.11.55c.5.12.5.12.71.52l.22-.16.22.36c.55-.27.67-.24.79.19a1.02,1.02,0,0,0,.12.36,1.89,1.89,0,0,1-.63.67,3.66,3.66,0,0,0-1.48,1.44,1.09,1.09,0,0,1-.48.33c-.15.1,0,.43-.34.34-.21.31-.36.72-.65.91s-.38.57-.69.77c-.05,0,0,.19,0,.24a4.2,4.2,0,0,0-.91.86,4.34,4.34,0,0,1-.82.93c-.29.29-.5.67-1,.82,0-.1.08-.19.12-.27s0-.07,0-.09a.65.65,0,0,1,.48-.38Zm-.65,4.41v.48a.68.68,0,0,1-.33-.36c.09-.02.19-.07.33-.12Zm-.14-3a.32.32,0,0,0,.14,0v.26a.08.08,0,0,0-.07,0,1.709,1.709,0,0,1-.07-.21Zm-2.09-1.48c0-.17.08-.36-.09-.53s-.1-.24-.05-.29c.26-.38.1-.81.29-1.29.07.21.14.45.29.84l.26.31c-.5.43-.36,1-.38,1.63.12-.1.16-.17.24-.19a1.706,1.706,0,0,1,.33,0c-.33.24-.57.43-.91.67.02-.38.02-.74.02-1.1Zm.8.07c.07-.19.16-.39.26-.6a.94.94,0,0,1,.33.14l-.47.55a.41.41,0,0,1-.12-.04Zm.62.6v.07l-.29.12a4.36,4.36,0,0,1-.38-.22,5.749,5.749,0,0,0,.71.08Zm6.49-7.89v-.17h0Zm-4.33,7.94c.09-.24.45-.39.69-.58s.53-.48.82-.7c.12-.14,0-.35.24-.52.43-.41.88-.77,1.27-1.22s.81-1,1.17-1.51a.58.58,0,0,1,.22-.22c.83-.46,1.1-1.32,1.6-2.09.19.12.41.24.63.39s.35.26.57.43a1.04,1.04,0,0,1-.17.38c-.07.14-.52.22-.55.55-.91.32-1.39,1.15-2.06,1.75-.34.29-.65.58-1,.84H47.4a2.46,2.46,0,0,1-.89,1c0,.05-.12.07-.17.12a3.54,3.54,0,0,1-.47.26s0,.17,0,.29a1.19,1.19,0,0,0-.33.19c-.2.19-.2.5-.56.58s-.33.33-.59.45a3.6,3.6,0,0,0-.89.84v-.41c.09-.27.5-.42.62-.77Zm-1-12v.48a.74.74,0,0,1-.34-.36Zm-.77-.1h.07v.31h-.07Zm1.08,1.34a3.121,3.121,0,0,0-.24.27c-.19.57-.09,1.12-.57,1.51.14.55-.2,1-.34,1.51a18.561,18.561,0,0,1-.86,2.44,5.14,5.14,0,0,0-.24,1.1c-.07.36-.15.7-.6.84a13.1,13.1,0,0,1,0-1.39c.17-.14.36-.31.48-.4a16.23,16.23,0,0,1,.77-4s-.05-.08-.08-.08c.05-.35.08-.69.12-1s.12-.65.2-1l-.39-.19a2.23,2.23,0,0,1,1.74.43ZM40.59,55v-.84C41,54.55,41,54.58,40.59,55Zm-.86-6.85c.1.36-.1.72.12,1.08s0,.69.17,1.05,0,.67,0,1v1.2a1.25,1.25,0,0,1,.24.05c0-.05.07-.1.07-.15a4.88,4.88,0,0,0,0-1.43,5,5,0,0,1-.12-1.47,1.09,1.09,0,0,1,.36-.93.58.58,0,0,1,.77.22,9.34,9.34,0,0,1-.12,1.72c-.2.55.12,1.2-.22,1.75a1.25,1.25,0,0,1,.12.14c-.19.48-.36,1-.53,1.42-.09-.36-.17-.72-.26-1.1-.19.12-.38.21-.65.38.15,0,.19.1.31.14s.12.24.19.41c-.09,0-.19.05-.23,0a5.271,5.271,0,0,0-.39-.36c-.12-.55.15-1.12-.17-1.63.34-.45.08-1,.15-1.46a1.55,1.55,0,0,0-.15-.91,4.46,4.46,0,0,1-.19-1.8,6.12,6.12,0,0,1,.53.71ZM39.3,58.7v1.15l-.43.38c-.12-.26-.22-.55-.41-1a1.67,1.67,0,0,0-.14-.81,1.49,1.49,0,0,1-.2-.82,4.17,4.17,0,0,0-.14-.74,1.24,1.24,0,0,1,.22-.77c.09,0,.12.29.24,0h0v-1a5.14,5.14,0,0,1,0-.68v-1.1c.43.29.38.55.14.84.17-.22.24-.43.05.12.12.24.38.21.67.26-.34.19-.34.53-.48.77s.17.5.12.79.24.53.31.81c-.17.82-.43.77.36,1.68C39.51,58.63,39.42,58.65,39.3,58.7Zm.7,4.72-.55.07a2,2,0,0,1,.07-.33A2.385,2.385,0,0,0,40,63.42Zm-.77-1.05v.17h-.05v-.17Zm-1.27-7.72h-.14c.05-.05.05-.07.07-.07s.19-.26.38-.17a2.5,2.5,0,0,1-.34.24Zm.67-11.51c.07-.16.15-.33.24-.5l.29.29c-.07.62-.14,1.29-.24,2.06l-.43-.31c-.05-.6.64-1.01.11-1.54ZM39.11,47Zm-.46-2h.26v.48A3.966,3.966,0,0,1,38.65,45Zm.26,1v.26h-.07a1.09,1.09,0,0,1-.05-.26Zm.53,8.37c.05,0,.15-.12.22-.2a1,1,0,0,1,.5.44l-.36.4c-.09-.12-.21-.36-.36-.62Zm-.09-15.78h.07v1.94c0,.35-.19.53,0,.81-.24.29,0,.63-.14.94l-.22.21s-.07,0-.09-.09a2.48,2.48,0,0,1-.15-.58c0-.17.15-.33.15-.5,0-.38.12-.79-.07-1.08a11.435,11.435,0,0,1,.45-1.63Zm.55-4.86-.19.19-.36-.26a4.15,4.15,0,0,1,.33-.36,1.75,1.75,0,0,0,.22.45ZM33.71,31.9h0a1.39,1.39,0,0,0,1-.19c.38-.29.88,0,1.24-.29a11.06,11.06,0,0,1,2.42-.36,3.11,3.11,0,0,1,1,.39.4.4,0,0,1-.48.26H38.1c-.27,0-.43.17-.67,0a.46.46,0,0,0-.26.07c-.24.2-.43,0-.65-.09-.26.26-.62.14-.93.17a9.64,9.64,0,0,1-1,.14,1.22,1.22,0,0,0-.4.12s-.08,0-.1.05h-.2a.46.46,0,0,1-.23-.07v-.14Zm-1,.34H33v.07h-.31Zm-2-.53-.24.31a9.85,9.85,0,0,1-1-.57,1.26,1.26,0,0,1,1.18.26ZM29,31.11a.11.11,0,0,0,.07,0,2.5,2.5,0,0,0,.07.26.22.22,0,0,0-.14,0Zm.26,1.44a6.44,6.44,0,0,0,.69.24,3.12,3.12,0,0,1,.27.24c.19,0,.31-.24.48,0,.14-.24.38-.12.57-.15a5.061,5.061,0,0,0,.55,0c.29,0,.1-.58.53-.43,0,.09-.1.16-.17.31a12.621,12.621,0,0,0,2.14-.15,5.42,5.42,0,0,1,1.51,0,2.55,2.55,0,0,0,1.6-.48,3.92,3.92,0,0,0,.91,0c.24-.07.46.28.7,0,.07.07.12.17.21.26-.14.24-.31.51-.52.84A2.11,2.11,0,0,0,37.6,34c-.48.52-1.18.48-1.75.74a.43.43,0,0,0-.58-.12c-.21.17-.45,0-.57.05a1.43,1.43,0,0,1-.6.07h-.72a1.882,1.882,0,0,0-.63,0c-.45.32-1,0-1.48.29-.12.07-.36-.12-.55-.14a4.61,4.61,0,0,1-1.61-.17,1.188,1.188,0,0,0-.29.12c-.4-.14-.52-.62-.81-.84-.12-.41.17-.48.29-.67-.12-.38-.24-.74-.39-1.15a1.75,1.75,0,0,1,1.37.37Zm7.31,4.27h-1c.07-.31.14-.6.24-1,.24.09.38.17.57.24s.11.47.21.76Zm-1.34-.24v.05h-.17v-.05Zm-.31-.6-.27.26c-.14-.05-.31-.09-.5-.14l-.12.12c-.5-.29-1.08-.12-1.61-.17l-.24-.24a3.489,3.489,0,0,1,.39-.19,12.64,12.64,0,0,0,2.13.14Zm-3.29,0a3.379,3.379,0,0,0-.33-.21c.4-.01.4-.01.35.23Zm-.6-.24V36a.1.1,0,0,0-.07,0,1.107,1.107,0,0,0-.07-.26.24.24,0,0,1,.16.02Zm-.93.22c-.29.17-.34-.07-.51-.19.34-.15.41.11.53.23ZM29,35.79Zm-1.6,1.1c.28.17.55-.17.67,0s.43,0,.64.07a1.56,1.56,0,0,0,.77.07A7.5,7.5,0,0,0,31,36.77a1,1,0,0,1,.45-.05,3.12,3.12,0,0,0,1.87,0,1,1,0,0,1,.24,0,1.09,1.09,0,0,1,.17,0c.31.16.24.43.26.71-.16.17-.5.34-.57.58s-.53.26-.58.65a2.76,2.76,0,0,1-.33.81c.07.07.14.17.24.27h1.67v-.53c.39-.36.6-.84,1.15-1.06v1.18a1.89,1.89,0,0,1,.24-.19,1.37,1.37,0,0,1,.27.19,1.6,1.6,0,0,0,.24-.22c.14.22.29.43.43.63h.6v-.89a3.529,3.529,0,0,1,.07-.86,2.51,2.51,0,0,1,0-.77c.09-.29-.2-.5.09-.91a2.51,2.51,0,0,1,.46-.43h.76c.29.45,0,.84-.14,1.24-.05.22-.14.36,0,.55a.44.44,0,0,1,0,.15,5.7,5.7,0,0,0-.14.74,2.1,2.1,0,0,1-.08.7c-.08.24-.09.19-.07.28,0,1-.26,2-.17,3A8.82,8.82,0,0,1,38,43.89c0,.07.2.21.34.36a2.551,2.551,0,0,1-.19.26c.05.05.09.12.14.17L38,45a22.431,22.431,0,0,1,.19,2.47c0,.17.29.43.12.55s.14.34,0,.53a1.46,1.46,0,0,1-.29.51V48.5c-.36,0-.36-.38-.6-.55h-.81l-.22.29h-.55a1.29,1.29,0,0,1-1.12.34L34,49l-.19-.21a.14.14,0,0,1,.07-.1c.2-.1.39-.22.6-.31a1.6,1.6,0,0,0,.56-.22,1.45,1.45,0,0,1,1.31-.41c.29-.14.53-.26.77-.35.31.09.46.55.84.31a1.14,1.14,0,0,1,0-1,1.71,1.71,0,0,0-.24-.21,2.56,2.56,0,0,1-1.55.29l-.63.33c-.33,0-.62-.41-.93,0-.53-.32-1.06-.6-1.51-.89a6.45,6.45,0,0,0-.53-.6,5.4,5.4,0,0,0-.77-.46c-.24-.12-.21-.52-.55-.57-.07,0-.09-.19-.26-.29a2.06,2.06,0,0,1-.6-.67,2.4,2.4,0,0,0-1.13-1,1.65,1.65,0,0,1-1.08-1.27.28.28,0,0,0-.12-.2c-.5-.43-.83-1-1.46-1.31-.12,0-.17-.24-.26-.39l-.53-.14c-.09.14-.21.33-.29.43h-.45c-.19.19-.39.38-.58.55v.48l.31.31a6.17,6.17,0,0,0,.15,1.1c.09.29-.12.68-.19,1-.17-.05-.34-.1-.53-.14,0-.08-.07-.17-.1-.27h-.28l-1.44-1.1c.17-.41.33-.86.5-1.27-.17-.26-.29-.48-.38-.62l.67-.67a2.44,2.44,0,0,0,1.48-2,10.545,10.545,0,0,1,1.39.14c.08-.1.22-.29.34-.43.4,0,.76-.09.98.05Zm1.86,6.54v.17h0Zm-3-2.56v.31h-.07v-.31ZM22.5,38.78v-.17h.05v.17Zm1.22-4c0-.05-.09-.07-.12-.12h.05a.47.47,0,0,0,.1.1h0l.69.21a3,3,0,0,1-.26.29L23.72,35A.45.45,0,0,1,23.72,34.78Zm-.57-2.28c-.6-.24-.84-.88-1.44-1.15a1.24,1.24,0,0,1-.41-.38c-.31-.43-.76-.74-1.08-1.22a2.29,2.29,0,0,0-.64-.51c-.19-.14-.48-.17-.51-.5,0-.1-.24-.17-.36-.24l-.55-.36v-.41c.43.27.87.51,1.27.77a.57.57,0,0,1,.24.17,5,5,0,0,0,1.63,1,1.6,1.6,0,0,0,1.11.87.42.42,0,0,1,.19.09.39.39,0,0,1,.14.15.38.38,0,0,1,.05.21v.1a.52.52,0,0,0,.17.12c.19.07.45.07.48.31s.57.19.52.58a14.89,14.89,0,0,0,1.37,1.15c.22.14.38.33.6.47s.24.17.38.27.22.41.34.67l-.39.84a17,17,0,0,1-1.29-1.13,8.08,8.08,0,0,1-1.85-1.87Zm.21,1.78a.42.42,0,0,1-.4-.22h0v-.07a.22.22,0,0,0,0-.1l.45.39h.05c.05,0,.1.07.12.12l-.05.05c0-.05-.07-.1-.12-.12h0s-.05-.03-.08-.05Zm-.79-.77a1,1,0,0,1-.93-1.15c.19.09.26.31.41.33a.43.43,0,0,1,.38.32,1.59,1.59,0,0,1,.11.5Zm-1.24-1.2a.39.39,0,0,0-.15,0v-.26a.12.12,0,0,0,.08,0,1.013,1.013,0,0,0,.04.26Zm-1.82-2v.17h-.05v-.17Zm-.22-2.87v-.17h0Zm.26.6a1.817,1.817,0,0,1,.08-.36l.5.36Zm7.07,4.93v.53h-.46c-.4,0-.4-.32-.55-.51h0l.43-.38.16.17v.53c.01-.23.18-.31.39-.38ZM26.43,32v-.05h.16V32Zm-2.88-6.5v-.43l.55-.55h.34l.38.41v.89l-.86.33c-.12-.14-.24-.31-.41-.53Zm-.07,2.06.05.05c-.05.05-.1.07-.12.12h0c.09.6-.46.91-.72,1.39h0l-.05.09h0a1,1,0,0,1-.05.12c.12.19.27.4.41.64.55-.21.69-.76,1-1.07-.1-.44.24-.77.34-1.13l.71-.34a2.56,2.56,0,0,1,.6.87c.15.38.6.64.94,1l-.19.38c0,.51.38.75.64,1.06-.14.36-.16.79-.62,1v-.7c-.24-.21-.45-.43-.69-.64.07-.32-.12-.68.14-1,0-.12-.12-.24-.19-.41H25c-.07-.12-.14-.24-.24-.38-.74.4-.91,1.15-1.31,1.77.36.07.55.41.69.72a2.66,2.66,0,0,0,1.2,1.17.74.74,0,0,1-.05.19.15.15,0,0,1-.09,0h-.08a14.48,14.48,0,0,1-2.58-2.42,24.26,24.26,0,0,1-2.16-2.35,2,2,0,0,1,.29-.22c.62.29.93.91,1.41,1.44h.29c.12-.43.24-.84.33-1.25h.67c.08-.1.1-.15.15-.2Zm1.82,2.07c-.24.26-.26.74-.84.86a4.65,4.65,0,0,1,.77-1.34C25.28,29.41,25.35,29.58,25.3,29.63ZM22.54,19.54h-.07v-.32h.07Zm1,.28c-.14-.14-.29-.26-.45-.43h.72a2.3,2.3,0,0,1-.31.43ZM23.14,18h.05l.22-.07A2.72,2.72,0,0,1,24,18c-.09.24-.24.29-.48.31a2.19,2.19,0,0,0-.6.17c0-.05,0-.09,0-.14a.08.08,0,0,0,0-.07.86.86,0,0,1,.22-.27Zm-2.35-5.85a.08.08,0,0,0,0,.07l-.27.07a.32.32,0,0,0,0-.14Zm-.67-.24a1.6,1.6,0,0,0,.07.33h-.47q.193-.16.4-.3Zm-1.48-1.56h0v.17h0ZM18,11.82a.34.34,0,0,0,0,.14h-.2a.07.07,0,0,0,0-.07ZM17.77,11c0,.24-.16.38-.48.36.2-.15.34-.27.48-.39C17.73,10.91,17.77,11,17.77,11Zm-1.39,2.54-.36.17c-.02-.17-.09-.38.36-.19Zm-1.2,2.92h-.07L15,16a.32.32,0,0,0,.14,0Zm3.36.31c.34-.26.14-.57.19-.83l-.24-.24a1.08,1.08,0,0,0-.93.45,1.06,1.06,0,0,0-.24,1l1.51,1.3c.09.31.17.53.26.77l.29.09v.5c-.24.12-.48.24-.77.41H17.39c-.79-.5-.79-.52-2-2.49a4,4,0,0,1,.86-2.13c.22,0,.46-.1.62.09.51-.26,1-.53,1.51-.76a5.44,5.44,0,0,1,1.56-.6,2.16,2.16,0,0,1,.22.16l1.4-.49a5.33,5.33,0,0,0,.7.22v.41h.36c.05.05.08.07.08.09a2.66,2.66,0,0,1,.16.58,1.27,1.27,0,0,1,0,.55,4.86,4.86,0,0,1-.26.84c-.38-.41-.72-.74-1.06-1.08l-.21.17-.31-.31H20.2c-.17.16-.33.38-.55.6a2.73,2.73,0,0,0,.38,1.48h.68a1.15,1.15,0,0,1,.09-.26,1.48,1.48,0,0,1,1.39,0,.26.26,0,0,0,.05.17c.1.12.22.24.31.33-.07.27-.14.53-.21.82-.36-.2-.82,0-1.23-.12s-.81-.12-1.29-.22a19.125,19.125,0,0,0-1.28-1.52Zm1.92,5v.77c-.22-.19-.36-.31-.53-.48a3.71,3.71,0,0,0,.53-.3Zm-1,3.1a3.12,3.12,0,0,1,1-.22c.24.24.43.41.62.58a9.1,9.1,0,0,1-1.13.33c-.4.07-.81.07-1.22.1.07-.52.48-.66.75-.8ZM17.77,26.1a15.61,15.61,0,0,0,3-.19,2.15,2.15,0,0,0,1.19-.36,2.73,2.73,0,0,1,.41-.14,2.61,2.61,0,0,0,.55.55,3.23,3.23,0,0,1,.51.53c-.24.16-.48.33-.77.55a2.58,2.58,0,0,0-1,0,1.29,1.29,0,0,1-.91,0,4.771,4.771,0,0,0-1,0,8.14,8.14,0,0,1-.91-.31c-.27-.08-.58-.08-.84-.17s-.65,0-.84-.48C17.37,26.1,17.56,26.08,17.77,26.1ZM16.65,26h0ZM16,27.35V27a1.16,1.16,0,0,1,1.06-.17l.53.36v.36a2.83,2.83,0,0,1-1.59-.2Zm2.88,12.8c0-.48.7-.34.62-.86h-.79v-.72c-.21-.27-.6-.29-.64-.65a4.7,4.7,0,0,1,0-.65,3.07,3.07,0,0,1,.14-.52h-.12c-.26-.39-.55-.77-.77-1.08.05-.36.17-.65.07-.82-.26-.43-.07-.79,0-1.17a3.56,3.56,0,0,0,.17-1.06,1.1,1.1,0,0,0,.12-.14c.03-.05-.17-.33-.27-.5a2.6,2.6,0,0,0,.29-1.61l-.26-.26a2.854,2.854,0,0,1,.16-.55l.53-.24c.19.5-.12,1,.24,1.48-.17.34-.33.65-.53,1.06a3.9,3.9,0,0,1,.65.09c0-.21.05-.43.05-.64h.53c.09-.1.21-.2.31-.32s0,0,.05-.07.07-.17.12-.24h0l1.22,1a.14.14,0,0,0-.05.1.291.291,0,0,1-.29-.12,2.37,2.37,0,0,1-.33-.41c-.55.38-.55.38-.79.81-.46.17-.94.34-1.32.46-.24.5.14.65.33.91h1.27l-.57.38c-.46.07-.86.15-1.22.19-.2.48.14.63.38.87a8.61,8.61,0,0,0,2.42-.75.61.61,0,0,1,.84.15,7.39,7.39,0,0,1-3.19,1.39v.24a6.42,6.42,0,0,1,1.51-.12,1,1,0,0,1,.84-.31A2,2,0,0,0,21.9,35l.74-.55c-.12.6-.36.91-.84,1a1.56,1.56,0,0,0-.55.19,4.36,4.36,0,0,1-2.49.77c-.15.07-.29.16-.51.28h.05l.55.29c.67-.1,1.32-.22,2-.31,0-.34.31-.39.53-.46a2,2,0,0,1,.55,0l.55-.39.19.17-.36.15a.3.3,0,0,0,.1.09H22a4.6,4.6,0,0,1-1.77,1.2v.22h1.1c.29-.12.55-.53,1.06-.46.14,0,.33-.19.5-.31l.55-.43v-.19h-.12v-.32a.15.15,0,0,0,.09,0,1.554,1.554,0,0,0,.07.31h0l.46.1L25,36c-.36.43-.6.7-.91,1.06a3.72,3.72,0,0,0-.55.31c-.29.24-.53.5-.91.5-.05,0-.1.07-.15.15a.68.68,0,0,1-.6.33,1,1,0,0,0-.81.38v1l.31.22v.62a2.78,2.78,0,0,1-.77.17,9.319,9.319,0,0,1-1.32-.31,2.43,2.43,0,0,1-.39-.28Zm1.34,3.11c-.38.05-.55-.19-.72-.47s-.28-.53,0-.84c.07-.1,0-.29,0-.44a3.29,3.29,0,0,0-.09-.43,1.14,1.14,0,0,1,1.34.41c.19.26.43.14.62.26a6.46,6.46,0,0,0,1.77.75c.27,0,.34.29.29.57.39.22.39.22.82,1-.65.53-1.13-.07-1.68-.21a8,8,0,0,1-2.33-.6Zm3.45,2.52-.26.07a.36.36,0,0,0,0-.14h.26a.31.31,0,0,1,.02.07Zm-2.44-.91V45H21.2v-.17Zm.86,3.31h0Zm1.37,0h-1.1a2.1,2.1,0,0,1,.24-.27c-.17-.19-.34-.4-.53-.64a10.67,10.67,0,0,0,1.17-.15,1.76,1.76,0,0,1,1,.19l-.55.39c-.36-.29-.62,0-.91.12a.53.53,0,0,0,0,.16l1.08-.12a1,1,0,0,1,.05.12,1.66,1.66,0,0,0-.43.25Zm1-.08a1.09,1.09,0,0,0-.31.08c.12-.44.36-.27.57-.29a1.15,1.15,0,0,1,.07.24c-.07.05-.19.02-.28.02Zm.31-1.41v.67h-.29l.17-.39c-.22-.14-.43-.29-.6-.41-.24.08-.5,0-.62.17s-.39-.07-.53.12c-.09-.19-.36.15-.45-.12-.29.07-.58.15-.92.22l.15.55-.41.26c.12.07.22.15.43.27-.31.12-.5.19-.79.28-.17-.07-.43-.33-.74,0,0-.31,0-.67-.46-.67a.62.62,0,0,1-.38-.24,1.3,1.3,0,0,0-.1-.15c-.14-.21-.26-.45-.38-.67a1.37,1.37,0,0,1,.86-.21h2.4a1.38,1.38,0,0,0,1.1-.46c.1.17.22.31.29.43.6.15,1.13-.33,1.75-.07a4,4,0,0,1-.43.47Zm1.25,1.49a1.12,1.12,0,0,1-.63-.41l.39-.22a.45.45,0,0,1,.29.68Zm0-4.87c-.45-.29-.36-.77-.55-1l1-1h.27v.31h0a.764.764,0,0,1,.52.12h0a.079.079,0,0,0,.05.07.25.25,0,0,1,0,.12c-.07.24-.14.51-.24.84-.14-.4-.26-.76-.38-1.12h0l-.34-.24c.17.75-.21,1.26-.35,1.95Zm4.7,8a3.85,3.85,0,0,1-.72.07c.27-.38.19-.86.74-.81a8,8,0,0,1,.58.6Zm4.94,2.13h0v-.16h0Zm-.1-2.42-.81.19-.53-.48.14-.19v-.07h-.09a.5.5,0,0,0-.34,0,2.28,2.28,0,0,1-.33.12.34.34,0,0,1-.17,0v.57A5.1,5.1,0,0,1,35.1,53h.31c.11,0,0,.19,0,.31-.14-.1-.26-.17-.38-.24L35.1,53a.93.93,0,0,1-.7-.43,2.36,2.36,0,0,0-.88-.75c-.51-.24-.77-.84-1.37-.93-.07,0-.12-.1-.17-.17a8.32,8.32,0,0,0-1.2-1.25s0-.12,0-.14a8.21,8.21,0,0,1-1.56-1.2,3.55,3.55,0,0,1-.88-.79h-.36c0-.65-.67-.79-1-1.22v-.31a.37.37,0,0,1,.14-.07c.29-.08.53.12.79.21a1.25,1.25,0,0,0,.29.1h.36L27,45c-.09-.43-.17-.81-.24-1.17.6-.1.86,0,1.68.57.22-.07.46-.12.74-.21v.76c.7.36,1.15,1,1.92,1.2a1.81,1.81,0,0,1,.65.36c.43.34.84.7,1.2,1l.55-.15v.46l-.63.6c.27.21.41.53.77.6a.32.32,0,0,1,.19.24c0,.36.39.31.6.55.07-.12.15-.27.22-.41a.41.41,0,0,0,.09.12c.34-.1.65-.22,1-.31v-.07h.65a1.6,1.6,0,0,1,.74-.48,1,1,0,0,1,.53,0c.14.19.24.36.41.6v.86c0,.22-.12.43,0,.67a3,3,0,0,1,.17.58,1.93,1.93,0,0,1-.15.57,1.2,1.2,0,0,0,.05.38,8.67,8.67,0,0,1,0,1.35c-.34-.1-.48-.41-.65-.65a4.711,4.711,0,0,1-.38-.72,6.618,6.618,0,0,1,.19-1c-.22-.1-.36-.17-.5-.22a6.88,6.88,0,0,0-.55.43,1.83,1.83,0,0,1-.67-.41Zm2.54,15.4a1.5,1.5,0,0,1,.31,0,4.13,4.13,0,0,1,.1.46A5.161,5.161,0,0,0,38.1,66.42Zm1.58,1.08h0v-.17h0Zm-.21-.87c0-.07.12-.16.21-.33C39.71,66.68,39.71,66.68,39.47,66.63Zm-.29-1.84c0-.12-.24-.17-.41-.29.12-.72-.41-1.34-.5-2.06,0-.12-.27-.22-.41-.34.24-.4.07-.76-.22-1.12v-.63a6.66,6.66,0,0,1-.48-1c-.12-.65-.4-1.22-.57-1.84A4.33,4.33,0,0,0,36,56.14c.15-.29.27-.56.41-.82.39.29.39.77.55,1.15a4.111,4.111,0,0,1,.17.65,5.8,5.8,0,0,1,.46,1.17,6.57,6.57,0,0,0,.33,1.23c0,.07.1.12.07.09,0,.27-.09.48,0,.62a7,7,0,0,1,.62,2.45c.12.07.27.17.46.26-.05.15-.1.31-.15.51.2.36.44.76.65,1.2s.55.57.6,1.12c-.17-.07-.29-.07-.36-.14A4.284,4.284,0,0,1,39.18,64.79Zm.74,2.35v-.27h.48ZM40.66,63c-.19-.15-.4-.27-.6-.44a4.369,4.369,0,0,1-.4-.5c.24-.29.5-.65.76-1h.7l.55.63a2.28,2.28,0,0,0,.41,1.6l.14.07a.53.53,0,0,1,.17,0l.17.19-.41-.12h0s-.33-.21-.6-.35Zm.08,1.74V64.6H41v.07a.71.71,0,0,1-.26.09Zm.5,3.22a.39.39,0,0,0,0-.15h.26a.08.08,0,0,0,0,.07Zm.33.72a2.3,2.3,0,0,0-.07-.36h.58a3.509,3.509,0,0,0-.51.38Zm.53,1h-.05v-.17h.05Zm1.15-3.6-.62.7H41.55a2.2,2.2,0,0,0-.07-.41.51.51,0,0,0-.22-.22c.05-.26.08-.5.12-.72.24-.21.48-.45.72-.69.22.26.53.07.79.17s.22.33.39.6a2.93,2.93,0,0,0-.03.62Zm1-2.2h-.07a1.28,1.28,0,0,1,0-.27h.15a.89.89,0,0,0-.12.32Zm-.07-.79c-.07-.12-.17-.29-.24-.44-.26.1-.5.17-.74.27a.88.88,0,0,1,0-.15l1.6-1.17v-.12l-.89.29-.14-.15h0c.12-.2.21-.46.41-.53a6.92,6.92,0,0,0,1.72-1.51A18.689,18.689,0,0,0,47.54,58a.91.91,0,0,1,.34-.17c.5-.26.74-.76,1.13-1.12a1.18,1.18,0,0,1,.69-.46c.24,0,.43-.36.6-.57a4.361,4.361,0,0,0,.38-.55l1.37.14.12-.1.19.2c-.31.33-.62.69-1,1.07.07.17.17.34.27.53.6-.07,1-.6,1.72-.26.12.19.31.45.53.76-.7.34-1.37.68-2,1-.24.12-.48,0-.72.19-.77.46-1.49,1-2.3,1.39a1.23,1.23,0,0,1-.24.07c-.63.39-1.15.75-1.68,1.08a.36.36,0,0,1-.55-.09,1.54,1.54,0,0,1-.84.84,13.459,13.459,0,0,0-1.37.79c.19.14.36.24.6.41Z" transform="translate(-1.05 -8.548)" fill="#774234"/>
  <path id="Trazado_25783" data-name="Trazado 25783" d="M13.32,67.59Z" transform="translate(-1.05 -8.548)" fill="#774234"/>
  <path id="Trazado_25784" data-name="Trazado 25784" d="M27.72,81.62h0Z" transform="translate(-1.05 -8.548)" fill="#774234"/>
  <path id="Trazado_25785" data-name="Trazado 25785" d="M27.58,54.51a.61.61,0,0,1,.14-.17A.435.435,0,0,0,27.58,54.51Z" transform="translate(-1.05 -8.548)" fill="#774234"/>
  <path id="Trazado_25786" data-name="Trazado 25786" d="M27.55,54.51h0l.17-.17h0a.5.5,0,0,1-.12.09C27.55,54.45,27.6,54.43,27.55,54.51Z" transform="translate(-1.05 -8.548)" fill="#774234"/>
  <path id="Trazado_25787" data-name="Trazado 25787" d="M23.38,27.73h0v-.05S23.36,27.73,23.38,27.73Z" transform="translate(-1.05 -8.548)" fill="#774234"/>
  <path id="Trazado_25788" data-name="Trazado 25788" d="M53.61,55.46a.1.1,0,0,1,.09.08v-.08Z" transform="translate(-1.05 -8.548)" fill="#774234"/>
  <path id="Trazado_25789" data-name="Trazado 25789" d="M36.61,66.37Z" transform="translate(-1.05 -8.548)" fill="#774234"/>
  <path id="Trazado_25790" data-name="Trazado 25790" d="M36.09,66v-.07H36Z" transform="translate(-1.05 -8.548)" fill="#774234"/>
  <path id="Trazado_25791" data-name="Trazado 25791" d="M38.53,55.63a.18.18,0,0,1,0-.21,1.07,1.07,0,0,1-.1-.22,3.281,3.281,0,0,0,.05.79A.63.63,0,0,0,38.53,55.63Z" transform="translate(-1.05 -8.548)" fill="#774234"/>
  <path id="Trazado_25792" data-name="Trazado 25792" d="M9.43,72.55v.08a.42.42,0,0,0,.19,0,.4.4,0,0,0,.22-.14A1.49,1.49,0,0,1,9.43,72.55Z" transform="translate(-1.05 -8.548)" fill="#774234"/>
  <path id="Trazado_25793" data-name="Trazado 25793" d="M23.33,34.28Z" transform="translate(-1.05 -8.548)" fill="#774234"/>
  <path id="Trazado_25794" data-name="Trazado 25794" d="M26.23,33.29h0l.1-.09.26-.27a2,2,0,0,1-.5.17v.22A.25.25,0,0,1,26.23,33.29Z" transform="translate(-1.05 -8.548)" fill="#774234"/>
  <path id="Trazado_25795" data-name="Trazado 25795" d="M42.15,63.4h.05l-.15-.07a.079.079,0,0,0,.05.07.07.07,0,0,1,.05,0Z" transform="translate(-1.05 -8.548)" fill="#774234"/>
  <path id="Trazado_25796" data-name="Trazado 25796" d="M48.38,76.75a1.18,1.18,0,0,0,.17-.22,1.11,1.11,0,0,1-.46-.31,1.17,1.17,0,0,0,.46.31.76.76,0,0,1-.17.22Z" transform="translate(-1.05 -8.548)" fill="#774234"/>
  <path id="Trazado_25797" data-name="Trazado 25797" d="M28.27,70.69a.52.52,0,0,1,.17.16l.43-.28-.43.28a.83.83,0,0,1-.17-.16Z" transform="translate(-1.05 -8.548)" fill="#774234"/>
  <path id="Trazado_25798" data-name="Trazado 25798" d="M29.47,70.16l-.6.38a5.11,5.11,0,0,0,.6-.38Z" transform="translate(-1.05 -8.548)" fill="#774234"/>
  <path id="Trazado_25799" data-name="Trazado 25799" d="M42.63,77.44Z" transform="translate(-1.05 -8.548)" fill="#774234"/>
  <path id="Trazado_25800" data-name="Trazado 25800" d="M48.09,76.94a.36.36,0,0,1-.19,0,1.08,1.08,0,0,1,.19,0Z" transform="translate(-1.05 -8.548)" fill="#774234"/>
  <path id="Trazado_25801" data-name="Trazado 25801" d="M46.51,78l-.12.12h0a.28.28,0,0,0,.12-.12Z" transform="translate(-1.05 -8.548)" fill="#774234"/>
  <path id="Trazado_25802" data-name="Trazado 25802" d="M37.48,80.46h.09A.13.13,0,0,1,37.48,80.46Z" transform="translate(-1.05 -8.548)" fill="#774234"/>
  <path id="Trazado_25803" data-name="Trazado 25803" d="M38.29,80.32h0a.91.91,0,0,1-.69.17A.84.84,0,0,0,38.29,80.32Z" transform="translate(-1.05 -8.548)" fill="#774234"/>
  <path id="Trazado_25804" data-name="Trazado 25804" d="M36.69,64.19c-.1.12-.22.22-.29.31a2.231,2.231,0,0,0,.29-.31Z" transform="translate(-1.05 -8.548)" fill="#774234"/>
  <path id="Trazado_25805" data-name="Trazado 25805" d="M34.05,67.19a1.68,1.68,0,0,0-.79.62h0a1.42,1.42,0,0,1,.79-.62Z" transform="translate(-1.05 -8.548)" fill="#774234"/>
  <path id="Trazado_25806" data-name="Trazado 25806" d="M34,65.89c-.19.07-.4.19-.62,0-.45.26-.91.52-1.36.76.45-.24.91-.52,1.36-.76A.483.483,0,0,0,34,65.89Z" transform="translate(-1.05 -8.548)" fill="#774234"/>
  <path id="Trazado_25807" data-name="Trazado 25807" d="M13.44,67.16h0l-.15.07Z" transform="translate(-1.05 -8.548)" fill="#774234"/>
  <path id="Trazado_25808" data-name="Trazado 25808" d="M6.94,75.5h0l-.12-.12Z" transform="translate(-1.05 -8.548)" fill="#774234"/>
  <path id="Trazado_25809" data-name="Trazado 25809" d="M54.83,57.29a7.671,7.671,0,0,1,.79.84l-.79-.89Z" transform="translate(-1.05 -8.548)" fill="#774234"/>
  <path id="Trazado_25810" data-name="Trazado 25810" d="M31.24,77.44h0a7.428,7.428,0,0,1-1-.67,5.83,5.83,0,0,0,1,.67Z" transform="translate(-1.05 -8.548)" fill="#774234"/>
  <path id="Trazado_25811" data-name="Trazado 25811" d="M30.19,76.77a.81.81,0,0,1-.14-.12Z" transform="translate(-1.05 -8.548)" fill="#774234"/>
  <path id="Trazado_25812" data-name="Trazado 25812" d="M15,25h0s0,.05.07.05S15,25,15,25Z" transform="translate(-1.05 -8.548)" fill="#774234"/>
  <path id="Trazado_25813" data-name="Trazado 25813" d="M31.89,77.76h0a4.6,4.6,0,0,1,.58.16,4.6,4.6,0,0,0-.58-.16Z" transform="translate(-1.05 -8.548)" fill="#774234"/>
  <path id="Trazado_25814" data-name="Trazado 25814" d="M18.54,49.33h0a1.72,1.72,0,0,0-.33.33,1.29,1.29,0,0,1,.33-.33Z" transform="translate(-1.05 -8.548)" fill="#774234"/>
  <path id="Trazado_25815" data-name="Trazado 25815" d="M38,65.56h0l-.36-.24C37.78,65.41,37.9,65.48,38,65.56Z" transform="translate(-1.05 -8.548)" fill="#774234"/>
  <path id="Trazado_25816" data-name="Trazado 25816" d="M4.45,73.75a1.6,1.6,0,0,0,.19-.16,2,2,0,0,0-.19.16Z" transform="translate(-1.05 -8.548)" fill="#774234"/>
  <path id="Trazado_25817" data-name="Trazado 25817" d="M4.71,73.54Z" transform="translate(-1.05 -8.548)" fill="#774234"/>
  <path id="Trazado_25818" data-name="Trazado 25818" d="M38.2,64.76a.46.46,0,0,0-.1.1.19.19,0,0,1,.1-.1Z" transform="translate(-1.05 -8.548)" fill="#774234"/>
  <path id="Trazado_25819" data-name="Trazado 25819" d="M30,76h0a2.23,2.23,0,0,1-.89-.64A2.09,2.09,0,0,0,30,76Z" transform="translate(-1.05 -8.548)" fill="#774234"/>
  <path id="Trazado_25820" data-name="Trazado 25820" d="M28.06,55.94v.56a3.14,3.14,0,0,1,.33.38.643.643,0,0,1,.43.09c.51.27,1,.56,1.49.84l.43.29a5.449,5.449,0,0,0,.74.55,8.651,8.651,0,0,0,.87.41,7.311,7.311,0,0,1,.76.46A3.94,3.94,0,0,0,34,60c.34.07.48.33.75.47a1,1,0,0,1,.6.53.83.83,0,0,0,.62.55s.09.15.19.34c-.36-.17-.62-.31-.81,0a.17.17,0,0,0,0,.12c.1,0,.19.08.29.1v.22c-.34.09-.67,0-.94.19a1.849,1.849,0,0,0-.36-.07,3,3,0,0,0-1.07,0,1.85,1.85,0,0,1-.6.07c-.27,0-.55-.34-.82,0-.62-.29-1.29-.07-1.94-.15h-.6c-.19-.34-.38.07-.6,0a1.9,1.9,0,0,0-.74-.1l.14.22H27.7c.19.38.5.19.74.29.07,0,.1.12.24,0a1.49,1.49,0,0,1,1.32.1,1.13,1.13,0,0,1,.19-.14,4.079,4.079,0,0,1,.74.12,13.3,13.3,0,0,1,1.777.12,14.17,14.17,0,0,0,2.443.19,2.26,2.26,0,0,1,1.06.14,3.25,3.25,0,0,0,.86.17c-.19-.38-.48-.7-.48-1s-.48-.51-.29-.89c-.29-.26-.26-.65-.33-1s-.39-.6-.22-1l.43-.1c-.38-.17-.62-.29-1-.45a2.23,2.23,0,0,1-.15.43c-.28-.12-.5-.19-.69-.27a2.593,2.593,0,0,0-.07-.69.85.85,0,0,1-1.13.09c-.34-.21-.58-.64-1.08-.55l-.91-.72a15.361,15.361,0,0,0-1.53-.74C29,56.52,28.66,56,28.06,55.94Z" transform="translate(-1.05 -8.548)" fill="#774234"/>
  <path id="Trazado_25821" data-name="Trazado 25821" d="M26.93,64.76h.79c.17,0,.38.2.48.15a2.57,2.57,0,0,1,1.39-.15A22,22,0,0,1,32,64.6h.07c.31-.29.72-.17,1.06-.15s.69-.16,1-.16c.17,0,.39-.05.51.14.33-.29.76-.07,1.15-.17,0-.05.12-.12.19-.21v-.1c-.46.07-1-.14-1.39.17L34.41,64a6.519,6.519,0,0,1-.89.09h-7.5c.43.26.12.67.31.93.12-.12.24-.21.34-.31a1.23,1.23,0,0,0,.26.05Z" transform="translate(-1.05 -8.548)" fill="#774234"/>
  <path id="Trazado_25822" data-name="Trazado 25822" d="M44.28,69.51c.29.29.46.5.67.7s.29.4.53.57a1.31,1.31,0,0,1,.7.82c0,.09.14.16.21.21a11,11,0,0,1,2,1.7c.14.15.21.34.43.48a17.838,17.838,0,0,1,1.46,1.2h.41c-.15-.27-.19-.51-.36-.65a31.381,31.381,0,0,0-2.52-2.37c-.31-.24-.6-.51-.91-.72a6.05,6.05,0,0,1-.67-.67c-.26-.24-.6-.36-.86-.58a5.5,5.5,0,0,1-.65-.77A3.651,3.651,0,0,0,44.28,69.51Z" transform="translate(-1.05 -8.548)" fill="#774234"/>
  <path id="Trazado_25823" data-name="Trazado 25823" d="M38.91,79.41a.74.74,0,0,0,.92,0,.88.88,0,0,0,1,.12,4.141,4.141,0,0,1,.91-.12h.72c.44-.17.72-.29,1-.43l-.07-.26-.38.19h-.67a1,1,0,0,0-.65.17c-.19.12-.33-.2-.6,0s-.45,0-.69,0a3.8,3.8,0,0,0-.7.12c-.26-.27-.62-.1-.93-.12a5,5,0,0,1-1,0,1.9,1.9,0,0,0-1.06-.12.18.18,0,0,1-.12,0h-.21a.78.78,0,0,0-.56,0v.46a3.471,3.471,0,0,0-.45-.17,2.06,2.06,0,0,0,0,.34H36c.14.14.21.24.31.33h.89v-.48C37.79,79.34,38.34,79.72,38.91,79.41Zm-2.42,0h0v-.17h0Z" transform="translate(-1.05 -8.548)" fill="#774234"/>
  <path id="Trazado_25824" data-name="Trazado 25824" d="M36.3,78.91a.87.87,0,0,0-.55,0h0A1.32,1.32,0,0,1,36.3,78.91Z" transform="translate(-1.05 -8.548)" fill="#774234"/>
  <path id="Trazado_25825" data-name="Trazado 25825" d="M36.3,78.91h.05S36.3,78.93,36.3,78.91Z" transform="translate(-1.05 -8.548)" fill="#774234"/>
  <path id="Trazado_25826" data-name="Trazado 25826" d="M36.52,78.93h.12A.22.22,0,0,1,36.52,78.93Z" transform="translate(-1.05 -8.548)" fill="#774234"/>
  <path id="Trazado_25827" data-name="Trazado 25827" d="M27.43,58.1c1.25.67,2.64.86,3.77,1.66h.72a.78.78,0,0,0-.82-.6,1.66,1.66,0,0,1-.69-.29c-.2-.1-.39-.34-.58-.36-.36,0-.6-.26-.91-.36-.07,0-.12-.19-.19-.31s-.41.07-.46,0c-.21-.31-.6-.27-.88-.46A5,5,0,0,1,27.43,58.1Z" transform="translate(-1.05 -8.548)" fill="#774234"/>
  <path id="Trazado_25828" data-name="Trazado 25828" d="M33.79,73c0-.26.23-.17.28-.26s.07-.36.19-.48a3,3,0,0,0,.56-.89,2.83,2.83,0,0,1,.91-1.22v-.24c.31-.48.62-.94,1-1.44h-.27a5.49,5.49,0,0,0-1.51,2.19,7.74,7.74,0,0,1-.65,1.1c-.16.26-.36.53-.62.88-.38.2-.38.2-.19.7C33.59,73.2,33.81,73.11,33.79,73Z" transform="translate(-1.05 -8.548)" fill="#774234"/>
  <path id="Trazado_25829" data-name="Trazado 25829" d="M31.44,71.62h.07a12.16,12.16,0,0,0,1.82-1.54v-.4a4.43,4.43,0,0,0-1.89,1.94Z" transform="translate(-1.05 -8.548)" fill="#774234"/>
  <path id="Trazado_25830" data-name="Trazado 25830" d="M33,56.59c.1.43.1.43.36.65.41.33.79.65,1.2,1h0v-.36A14.067,14.067,0,0,0,33,56.59Z" transform="translate(-1.05 -8.548)" fill="#774234"/>
  <path id="Trazado_25831" data-name="Trazado 25831" d="M34.6,58.2c-.41-.31-.81-.65-1.2-1,.41.33.79.65,1.2,1Z" transform="translate(-1.05 -8.548)" fill="#774234"/>
  <path id="Trazado_25832" data-name="Trazado 25832" d="M11.49,77.16l-.5-.51h-.41a2,2,0,0,0,.91,1.06Z" transform="translate(-1.05 -8.548)" fill="#774234"/>
  <path id="Trazado_25833" data-name="Trazado 25833" d="M8.31,77.59c-.17.53-.32,1-.53,1.72A4.83,4.83,0,0,0,8.26,79c.07-.48.14-.94.21-1.37a.839.839,0,0,0-.16-.04Z" transform="translate(-1.05 -8.548)" fill="#774234"/>
  <path id="Trazado_25834" data-name="Trazado 25834" d="M42.94,78.26a.35.35,0,0,0-.26-.46c-.19.22-.51.36-.31.77C42.65,78.6,42.87,78.52,42.94,78.26Z" transform="translate(-1.05 -8.548)" fill="#774234"/>
  <path id="Trazado_25835" data-name="Trazado 25835" d="M31.53,73.75c-.14.2-.29.36-.43.55s-.22.36-.41.65c.22-.07.34-.07.39-.14.21-.29.43-.6.64-.91a.22.22,0,0,0,0-.1.55.55,0,0,0-.19-.05Z" transform="translate(-1.05 -8.548)" fill="#774234"/>
  <path id="Trazado_25836" data-name="Trazado 25836" d="M10.06,77.8l-.41-.62c-.15.58.19.94.41,1.34Z" transform="translate(-1.05 -8.548)" fill="#774234"/>
  <path id="Trazado_25837" data-name="Trazado 25837" d="M32.66,74.28l.14.12c.22-.31.46-.62.67-.93C33,73.56,32.83,73.92,32.66,74.28Z" transform="translate(-1.05 -8.548)" fill="#774234"/>
  <path id="Trazado_25838" data-name="Trazado 25838" d="M26.76,62.49h.77v-.27h-.77Z" transform="translate(-1.05 -8.548)" fill="#774234"/>
  <path id="Trazado_25839" data-name="Trazado 25839" d="M33.52,60.5c.41.24.72.41,1.06.57C34.48,60.62,34.34,60.52,33.52,60.5Z" transform="translate(-1.05 -8.548)" fill="#774234"/>
  <path id="Trazado_25840" data-name="Trazado 25840" d="M37.16,67.5c-.26.24-.43.36-.57.5s0,.07,0,.12h.55A4.731,4.731,0,0,0,37.16,67.5Z" transform="translate(-1.05 -8.548)" fill="#774234"/>
  <path id="Trazado_25841" data-name="Trazado 25841" d="M35,58.82a.83.83,0,0,0,.29,0L35,58.2a1,1,0,0,0-.39,0C34.77,58.41,34.86,58.63,35,58.82Z" transform="translate(-1.05 -8.548)" fill="#774234"/>
  <path id="Trazado_25842" data-name="Trazado 25842" d="M34.62,58.22a1,1,0,0,1,.39,0h-.39Z" transform="translate(-1.05 -8.548)" fill="#774234"/>
  <path id="Trazado_25843" data-name="Trazado 25843" d="M34.74,61.74H33.67c.35.17.74,0,1.1.29a.89.89,0,0,0-.03-.29Z" transform="translate(-1.05 -8.548)" fill="#774234"/>
  <path id="Trazado_25844" data-name="Trazado 25844" d="M12.16,74.35v-.24h-.62v.31A3.479,3.479,0,0,1,12.16,74.35Z" transform="translate(-1.05 -8.548)" fill="#774234"/>
  <path id="Trazado_25845" data-name="Trazado 25845" d="M50.61,64.31H49.53A1.39,1.39,0,0,0,50.61,64.31Z" transform="translate(-1.05 -8.548)" fill="#774234"/>
  <path id="Trazado_25846" data-name="Trazado 25846" d="M48.67,64.6a4.71,4.71,0,0,0,.53,0c-.27-.12-.46-.43-.79-.21a.66.66,0,0,0,.26.21Z" transform="translate(-1.05 -8.548)" fill="#774234"/>
  <path id="Trazado_25847" data-name="Trazado 25847" d="M47.64,67.64a4,4,0,0,0,.6,0c-.05,0-.12-.14-.17-.14a4,4,0,0,0-.6,0C47.52,67.55,47.57,67.64,47.64,67.64Z" transform="translate(-1.05 -8.548)" fill="#774234"/>
  <path id="Trazado_25848" data-name="Trazado 25848" d="M47.64,67.64a4,4,0,0,0,.6,0h0a2.18,2.18,0,0,1-.6,0Z" transform="translate(-1.05 -8.548)" fill="#774234"/>
  <path id="Trazado_25849" data-name="Trazado 25849" d="M28.3,50.72c-.05.14-.1.21-.15.36h.6a3.23,3.23,0,0,1-.45-.36Z" transform="translate(-1.05 -8.548)" fill="#774234"/>
  <path id="Trazado_25850" data-name="Trazado 25850" d="M26.35,62a.83.83,0,0,1-.16.17.67.67,0,0,1-.24.07l.28.29a3.09,3.09,0,0,0,.24-.43.38.38,0,0,0-.12-.1Z" transform="translate(-1.05 -8.548)" fill="#774234"/>
  <path id="Trazado_25851" data-name="Trazado 25851" d="M5,74.83a.63.63,0,0,0,0-.74Z" transform="translate(-1.05 -8.548)" fill="#774234"/>
  <path id="Trazado_25852" data-name="Trazado 25852" d="M13,11.24c-.1-.09-.17-.17-.34-.31a2.561,2.561,0,0,0,.05.65Z" transform="translate(-1.05 -8.548)" fill="#774234"/>
  <path id="Trazado_25853" data-name="Trazado 25853" d="M35.22,77.85c-.07,0-.12.05-.26.22C35.08,78.07,35.2,78.07,35.22,77.85Z" transform="translate(-1.05 -8.548)" fill="#774234"/>
  <path id="Trazado_25854" data-name="Trazado 25854" d="M35.22,77.85c0,.22-.14.22-.26.22h.5C35.34,77.92,35.27,77.85,35.22,77.85Z" transform="translate(-1.05 -8.548)" fill="#774234"/>
  <path id="Trazado_25855" data-name="Trazado 25855" d="M33.81,58.34v-.31a1.83,1.83,0,0,1-.32,0v.27a1.72,1.72,0,0,0,.32.04Z" transform="translate(-1.05 -8.548)" fill="#774234"/>
  <path id="Trazado_25856" data-name="Trazado 25856" d="M33.81,58.34a1.07,1.07,0,0,1-.31,0Z" transform="translate(-1.05 -8.548)" fill="#774234"/>
  <path id="Trazado_25857" data-name="Trazado 25857" d="M32.9,57.65a1.16,1.16,0,0,0-.48-.22C32.49,57.62,32.59,57.77,32.9,57.65Z" transform="translate(-1.05 -8.548)" fill="#774234"/>
  <path id="Trazado_25858" data-name="Trazado 25858" d="M32.9,57.65l-.51-.32v.1A1.06,1.06,0,0,1,32.9,57.65Z" transform="translate(-1.05 -8.548)" fill="#774234"/>
  <path id="Trazado_25859" data-name="Trazado 25859" d="M31.92,75.77v.43a.409.409,0,0,0,.26-.1,2.18,2.18,0,0,0-.26-.33Z" transform="translate(-1.05 -8.548)" fill="#774234"/>
  <path id="Trazado_25860" data-name="Trazado 25860" d="M46.94,64.48a.891.891,0,0,0,.08.4,2.57,2.57,0,0,1,.19-.4Z" transform="translate(-1.05 -8.548)" fill="#774234"/>
  <path id="Trazado_25861" data-name="Trazado 25861" d="M48.21,64.43a3,3,0,0,1-.43,0v.09h.43Z" transform="translate(-1.05 -8.548)" fill="#774234"/>
  <path id="Trazado_25862" data-name="Trazado 25862" d="M32,73.25h0v-.07c-.07.12-.14.21-.24.38h.32Z" transform="translate(-1.05 -8.548)" fill="#774234"/>
  <path id="Trazado_25863" data-name="Trazado 25863" d="M32,73.59v-.32h0Z" transform="translate(-1.05 -8.548)" fill="#774234"/>
  <path id="Trazado_25864" data-name="Trazado 25864" d="M35.75,78.88l.07-.07-.38-.24v.31Z" transform="translate(-1.05 -8.548)" fill="#774234"/>
  <path id="Trazado_25865" data-name="Trazado 25865" d="M35.73,78.88a1.83,1.83,0,0,1-.32,0,1.83,1.83,0,0,0,.32,0Z" transform="translate(-1.05 -8.548)" fill="#774234"/>
  <path id="Trazado_25866" data-name="Trazado 25866" d="M45.31,69.08a3.8,3.8,0,0,0-.4.07l.4.19Z" transform="translate(-1.05 -8.548)" fill="#774234"/>
  <path id="Trazado_25867" data-name="Trazado 25867" d="M26.62,59.64v.45C26.76,59.9,26.76,59.9,26.62,59.64Z" transform="translate(-1.05 -8.548)" fill="#774234"/>
  <path id="Trazado_25868" data-name="Trazado 25868" d="M26.57,60.59v-.45C26.43,60.33,26.43,60.33,26.57,60.59Z" transform="translate(-1.05 -8.548)" fill="#774234"/>
  <path id="Trazado_25869" data-name="Trazado 25869" d="M33.16,60.14h-.45C32.9,60.28,32.9,60.28,33.16,60.14Z" transform="translate(-1.05 -8.548)" fill="#774234"/>
  <path id="Trazado_25870" data-name="Trazado 25870" d="M48.77,68h.43a.24.24,0,0,0,0-.14l-.43.07a.24.24,0,0,1,0,.07Z" transform="translate(-1.05 -8.548)" fill="#774234"/>
  <path id="Trazado_25871" data-name="Trazado 25871" d="M34.65,59.16l.26-.08a.11.11,0,0,0,0-.07h-.27a.27.27,0,0,1,.01.15Z" transform="translate(-1.05 -8.548)" fill="#774234"/>
  <path id="Trazado_25872" data-name="Trazado 25872" d="M37.19,79.91a.607.607,0,0,1,.38.12c-.12-.12-.14-.19-.17-.19a.48.48,0,0,0-.14,0C37.33,80,37.26,79.94,37.19,79.91Z" transform="translate(-1.05 -8.548)" fill="#774234"/>
  <path id="Trazado_25873" data-name="Trazado 25873" d="M37.24,79.89h-.08C37.26,79.94,37.33,80,37.24,79.89Z" transform="translate(-1.05 -8.548)" fill="#774234"/>
  <path id="Trazado_25874" data-name="Trazado 25874" d="M32.06,59.85v.07h.26v-.14Z" transform="translate(-1.05 -8.548)" fill="#774234"/>
  <path id="Trazado_25875" data-name="Trazado 25875" d="M31.32,77.49h-.08C31.21,77.49,31.41,77.56,31.32,77.49Z" transform="translate(-1.05 -8.548)" fill="#774234"/>
  <path id="Trazado_25876" data-name="Trazado 25876" d="M31.46,77.44a.679.679,0,0,0-.12,0l.29.14C31.53,77.49,31.48,77.44,31.46,77.44Z" transform="translate(-1.05 -8.548)" fill="#774234"/>
  <path id="Trazado_25877" data-name="Trazado 25877" d="M31.24,77.52a1.739,1.739,0,0,1,.39.12l-.29-.15h0C31.41,77.56,31.32,77.54,31.24,77.52Z" transform="translate(-1.05 -8.548)" fill="#774234"/>
  <path id="Trazado_25878" data-name="Trazado 25878" d="M32.37,57.31a2,2,0,0,0,0-.24.15.15,0,0,0-.09,0,.19.19,0,0,0,.09.24Z" transform="translate(-1.05 -8.548)" fill="#774234"/>
  <path id="Trazado_25879" data-name="Trazado 25879" d="M32.23,57.07v.31h.14a.1.1,0,0,0,0-.07C32.23,57.26,32.23,57.17,32.23,57.07Z" transform="translate(-1.05 -8.548)" fill="#774234"/>
  <path id="Trazado_25880" data-name="Trazado 25880" d="M32.68,56.47a2.56,2.56,0,0,1,0,.27.14.14,0,0,0,.1,0C32.83,56.66,32.83,56.59,32.68,56.47Z" transform="translate(-1.05 -8.548)" fill="#774234"/>
  <path id="Trazado_25881" data-name="Trazado 25881" d="M32.68,56.47c.15.12.15.19.15.24V56.4h-.14A.23.23,0,0,1,32.68,56.47Z" transform="translate(-1.05 -8.548)" fill="#774234"/>
  <path id="Trazado_25882" data-name="Trazado 25882" d="M32.66,74.83v-.26a.39.39,0,0,0-.15,0l.08.27A.08.08,0,0,0,32.66,74.83Z" transform="translate(-1.05 -8.548)" fill="#774234"/>
  <path id="Trazado_25883" data-name="Trazado 25883" d="M35.39,65.05v-.26h-.14a1.19,1.19,0,0,1,0,.26Z" transform="translate(-1.05 -8.548)" fill="#774234"/>
  <path id="Trazado_25884" data-name="Trazado 25884" d="M32.66,56.35Z" transform="translate(-1.05 -8.548)" fill="#774234"/>
  <path id="Trazado_25885" data-name="Trazado 25885" d="M32.47,56.42h.09a.89.89,0,0,0-.26-.14C32.42,56.35,32.44,56.42,32.47,56.42Z" transform="translate(-1.05 -8.548)" fill="#774234"/>
  <path id="Trazado_25886" data-name="Trazado 25886" d="M32.68,56.35l-.38-.12c.12.05.19.12.26.15h.1C32.54,56.3,32.61,56.33,32.68,56.35Z" transform="translate(-1.05 -8.548)" fill="#774234"/>
  <path id="Trazado_25887" data-name="Trazado 25887" d="M11.52,74.38c-.12,0-.31-.08-.31.16C11.33,74.52,11.49,74.64,11.52,74.38Z" transform="translate(-1.05 -8.548)" fill="#774234"/>
  <path id="Trazado_25888" data-name="Trazado 25888" d="M29.83,53.86v.31h.07v-.31Z" transform="translate(-1.05 -8.548)" fill="#774234"/>
  <path id="Trazado_25889" data-name="Trazado 25889" d="M51.5,68.77l.26-.07a.12.12,0,0,0,0-.08h-.27A.75.75,0,0,0,51.5,68.77Z" transform="translate(-1.05 -8.548)" fill="#774234"/>
  <path id="Trazado_25890" data-name="Trazado 25890" d="M51,68.62l.26-.07a.1.1,0,0,0,0-.07H51Z" transform="translate(-1.05 -8.548)" fill="#774234"/>
  <path id="Trazado_25891" data-name="Trazado 25891" d="M49.7,68.1V68h-.31v.08Z" transform="translate(-1.05 -8.548)" fill="#774234"/>
  <path id="Trazado_25892" data-name="Trazado 25892" d="M26.14,67.79h.26a.39.39,0,0,0,0-.15l-.27.07a.09.09,0,0,1,.01.08Z" transform="translate(-1.05 -8.548)" fill="#774234"/>
  <path id="Trazado_25893" data-name="Trazado 25893" d="M48.24,67.64h0a1.129,1.129,0,0,1,.09.15l.05-.05A.33.33,0,0,0,48.24,67.64Z" transform="translate(-1.05 -8.548)" fill="#774234"/>
  <path id="Trazado_25894" data-name="Trazado 25894" d="M48.24,67.67a.64.64,0,0,0,.12.12v0a.34.34,0,0,1-.12-.12Z" transform="translate(-1.05 -8.548)" fill="#774234"/>
  <path id="Trazado_25895" data-name="Trazado 25895" d="M48.24,67.64a.61.61,0,0,1,.14.1.33.33,0,0,0-.14-.1Z" transform="translate(-1.05 -8.548)" fill="#774234"/>
  <path id="Trazado_25896" data-name="Trazado 25896" d="M30.17,53.52v.17h0Z" transform="translate(-1.05 -8.548)" fill="#774234"/>
  <ellipse id="Elipse_715" data-name="Elipse 715" cx="0.12" cy="0.05" rx="0.12" ry="0.05" transform="translate(51.48 60.412)" fill="#774234"/>
  <path id="Trazado_25897" data-name="Trazado 25897" d="M53,69.25v-.17h0Z" transform="translate(-1.05 -8.548)" fill="#774234"/>
  <path id="Trazado_25898" data-name="Trazado 25898" d="M43.92,69.73h0a.94.94,0,0,0,.1.14v-.05a1.129,1.129,0,0,0-.15-.09Z" transform="translate(-1.05 -8.548)" fill="#774234"/>
  <path id="Trazado_25899" data-name="Trazado 25899" d="M43.92,69.73a.4.4,0,0,1,.15.09A1.129,1.129,0,0,0,43.92,69.73Z" transform="translate(-1.05 -8.548)" fill="#774234"/>
  <path id="Trazado_25900" data-name="Trazado 25900" d="M32.06,73.27h0s.1-.07.14-.09v-.05a.15.15,0,0,0-.1.14Z" transform="translate(-1.05 -8.548)" fill="#774234"/>
  <path id="Trazado_25901" data-name="Trazado 25901" d="M32.13,73.13c-.05.05-.07.1-.12.12h0A.33.33,0,0,1,32.13,73.13Z" transform="translate(-1.05 -8.548)" fill="#774234"/>
  <path id="Trazado_25902" data-name="Trazado 25902" d="M32.06,73.27Z" transform="translate(-1.05 -8.548)" fill="#774234"/>
  <ellipse id="Elipse_716" data-name="Elipse 716" cx="0.05" cy="0.12" rx="0.05" ry="0.12" transform="translate(31.03 47.352)" fill="#774234"/>
  <ellipse id="Elipse_717" data-name="Elipse 717" cx="0.12" cy="0.05" rx="0.12" ry="0.05" transform="translate(45.87 56.722)" fill="#774234"/>
  <path id="Trazado_25903" data-name="Trazado 25903" d="M25.68,64.93h.05v-.17h-.05Z" transform="translate(-1.05 -8.548)" fill="#774234"/>
  <path id="Trazado_25904" data-name="Trazado 25904" d="M33.9,58.49l.05-.05a.61.61,0,0,0-.14-.1h0a1,1,0,0,0,.09.15Z" transform="translate(-1.05 -8.548)" fill="#774234"/>
  <path id="Trazado_25905" data-name="Trazado 25905" d="M33.81,58.37a.37.37,0,0,1,.14.09c-.05-.05-.09-.09-.14-.09Z" transform="translate(-1.05 -8.548)" fill="#774234"/>
  <path id="Trazado_25906" data-name="Trazado 25906" d="M29.85,61.24v.17h0Z" transform="translate(-1.05 -8.548)" fill="#774234"/>
  <path id="Trazado_25907" data-name="Trazado 25907" d="M42.63,77.44h0a1.3,1.3,0,0,0,.1.15h0a.3.3,0,0,0-.14-.1Z" transform="translate(-1.05 -8.548)" fill="#774234"/>
  <path id="Trazado_25908" data-name="Trazado 25908" d="M42.63,77.44a.45.45,0,0,1,.14.1.3.3,0,0,0-.14-.1Z" transform="translate(-1.05 -8.548)" fill="#774234"/>
  <path id="Trazado_25909" data-name="Trazado 25909" d="M42.73,77.59Z" transform="translate(-1.05 -8.548)" fill="#774234"/>
  <path id="Trazado_25910" data-name="Trazado 25910" d="M31.89,77.76h0a.6.6,0,0,0-.09-.15h-.05a.546.546,0,0,0,.14.1Z" transform="translate(-1.05 -8.548)" fill="#774234"/>
  <path id="Trazado_25911" data-name="Trazado 25911" d="M31.8,77.61h0s.07.1.12.12a.23.23,0,0,1-.12-.12Z" transform="translate(-1.05 -8.548)" fill="#774234"/>
  <path id="Trazado_25912" data-name="Trazado 25912" d="M31.89,77.76a.61.61,0,0,1-.14-.1A.546.546,0,0,0,31.89,77.76Z" transform="translate(-1.05 -8.548)" fill="#774234"/>
  <path id="Trazado_25913" data-name="Trazado 25913" d="M35.32,77.73l.07-.07h0A.069.069,0,0,0,35.32,77.73Z" transform="translate(-1.05 -8.548)" fill="#774234"/>
  <path id="Trazado_25914" data-name="Trazado 25914" d="M35.32,77.73v-.12c0-.03-.07.1-.12.12h.12Z" transform="translate(-1.05 -8.548)" fill="#774234"/>
  <path id="Trazado_25915" data-name="Trazado 25915" d="M32.59,60l-.05.05c.05,0,.07.07.14.09h0Z" transform="translate(-1.05 -8.548)" fill="#774234"/>
  <path id="Trazado_25916" data-name="Trazado 25916" d="M32.68,60.14h0a.639.639,0,0,1-.12-.12Z" transform="translate(-1.05 -8.548)" fill="#774234"/>
  <ellipse id="Elipse_718" data-name="Elipse 718" cx="0.12" cy="0.05" rx="0.12" ry="0.05" transform="translate(43.31 70.352)" fill="#774234"/>
  <path id="Trazado_25917" data-name="Trazado 25917" d="M33.16,61.72c.05.05.07.1.12.12v-.05l-.17-.07Z" transform="translate(-1.05 -8.548)" fill="#774234"/>
  <path id="Trazado_25918" data-name="Trazado 25918" d="M33.16,61.72c.07,0,.12.05.17.07s-.1-.07-.12-.12h0Z" transform="translate(-1.05 -8.548)" fill="#774234"/>
  <path id="Trazado_25919" data-name="Trazado 25919" d="M33.19,61.7h0a.34.34,0,0,0-.12-.12v.05A.147.147,0,0,0,33.19,61.7Z" transform="translate(-1.05 -8.548)" fill="#774234"/>
  <path id="Trazado_25920" data-name="Trazado 25920" d="M33.19,61.7c-.08,0-.12-.05-.17-.07a.65.65,0,0,1,.12.11h0Z" transform="translate(-1.05 -8.548)" fill="#774234"/>
  <path id="Trazado_25921" data-name="Trazado 25921" d="M33.16,61.72Z" transform="translate(-1.05 -8.548)" fill="#774234"/>
  <ellipse id="Elipse_719" data-name="Elipse 719" cx="0.12" cy="0.05" rx="0.12" ry="0.05" transform="translate(31.1 53.032)" fill="#774234"/>
  <ellipse id="Elipse_720" data-name="Elipse 720" cx="0.12" cy="0.05" rx="0.12" ry="0.05" transform="translate(30.48 52.882)" fill="#774234"/>
  <path id="Trazado_25922" data-name="Trazado 25922" d="M43.59,58.89h0Z" transform="translate(-1.05 -8.548)" fill="#774234"/>
  <path id="Trazado_25923" data-name="Trazado 25923" d="M31.6,48.37c-.52-.29-.88-.84-1.51-1,0,0-.12-.07-.12-.12,0-.41-.4-.43-.64-.58a4.33,4.33,0,0,0-.84-.31,1.18,1.18,0,0,0,.62,1,2.26,2.26,0,0,0,1.1.6.973.973,0,0,0,.05.39,11.1,11.1,0,0,0,1.1.84c.41.21.65.67,1.06.71.12.24.19.41.29.58a5.36,5.36,0,0,0,.64.19l.55-.55a6.06,6.06,0,0,0-2.3-1.75ZM33,50h-.1v-.17H33Z" transform="translate(-1.05 -8.548)" fill="#774234"/>
  <path id="Trazado_25924" data-name="Trazado 25924" d="M33.38,50.67h0a6.17,6.17,0,0,1-.65-.19A5.16,5.16,0,0,0,33.38,50.67Z" transform="translate(-1.05 -8.548)" fill="#774234"/>
  <path id="Trazado_25925" data-name="Trazado 25925" d="M45,61.24h-.07v.31H45Z" transform="translate(-1.05 -8.548)" fill="#774234"/>
  <path id="Trazado_25926" data-name="Trazado 25926" d="M19.52,37.61h0Z" transform="translate(-1.05 -8.548)" fill="#774234"/>
  <path id="Trazado_25927" data-name="Trazado 25927" d="M52.15,59.8l.33-.07a4.159,4.159,0,0,1-.33-.41Z" transform="translate(-1.05 -8.548)" fill="#774234"/>
  <path id="Trazado_25928" data-name="Trazado 25928" d="M20.48,47c.22.44.22.44.7.36C21.08,47,20.89,46.88,20.48,47Z" transform="translate(-1.05 -8.548)" fill="#774234"/>
  <path id="Trazado_25929" data-name="Trazado 25929" d="M20.15,47.91h.26c.07,0,.1.22.22.1s-.08-.07-.1-.12a2.871,2.871,0,0,0,.31,0l-.07-.09h-.6A.543.543,0,0,0,20.15,47.91Z" transform="translate(-1.05 -8.548)" fill="#774234"/>
  <path id="Trazado_25930" data-name="Trazado 25930" d="M38.48,56.93v.28h.24l-.14-.33A.3.3,0,0,1,38.48,56.93Z" transform="translate(-1.05 -8.548)" fill="#774234"/>
  <path id="Trazado_25931" data-name="Trazado 25931" d="M38.44,56.28a.44.44,0,0,0,.11.12h.05c-.05-.05-.09-.07-.12-.12Z" transform="translate(-1.05 -8.548)" fill="#774234"/>
  <path id="Trazado_25932" data-name="Trazado 25932" d="M38.58,56.59h0v.17h0Z" transform="translate(-1.05 -8.548)" fill="#774234"/>
</svg>
