<svg id="Calavera_tres-leches" xmlns="http://www.w3.org/2000/svg" width="56.69" height="56.838" viewBox="0 0 56.69 56.838">
  <path id="Trazado_25933" data-name="Trazado 25933" d="M10.59,25.91c.48-1.09,1.73-1.11,2.51-1.76.89.18,1.55-.45,2.29-.71a4,4,0,0,1,2.46-.2c1.15.35,2.42.52,3.32,1.53A8.48,8.48,0,0,0,22.72,26c.06.64-.3,1.08-.17,1.6.33,1,1.54.71,2.23,1.48a5,5,0,0,0,.48,1.63c.49.7,0,1.19-.16,1.94L26.24,32c.12.22.25.49.4.8l-.53.11.89,1.5c-.14.22-.25.38-.32.48L27,36.28c-.55.4-1.2.6-1.31,1.34a4.61,4.61,0,0,0-1.41.91l1.15.13c.3.05.59.12.88.16.06,0,.2-.12.21-.1.65.74,1.72.89,2.35,1.69a6.44,6.44,0,0,0,1.78,1.53,2.77,2.77,0,0,0,2.92.31,17.36,17.36,0,0,1,4.21-1.2,24.1,24.1,0,0,1,3.68-.28,2,2,0,0,0,.63-.29,7.538,7.538,0,0,0,.79.3c.19,0,.49-.08.59,0,.71.7,1.72.77,2.54,1.22a4.82,4.82,0,0,0,1.83.71c.95.11,1.41,1.11,2.32,1.29a3,3,0,0,0,1.55,2.21c.18.74.34,1.43.5,2.11l1,.09c-.25.4-.44.7-.65,1a3.81,3.81,0,0,1,.53,1.93c-.08.72.23,1.47-.19,2.19a2,2,0,0,0-.1,1,6,6,0,0,1-.33,2.75A36.392,36.392,0,0,1,50.61,61a8.341,8.341,0,0,1-.78,1.08c.12.79.21,1.35.24,1.6a29,29,0,0,1,1.46,4.11c.26,1.36,1.24,2.49.94,4.19l1.26-.92c-.08.47-.13.82-.2,1.26l.21.21L56.65,72a2.893,2.893,0,0,1,.14-.47l.63-.1c.23.36.47.7.79,1.18V74c-.52,1-1.65,1.34-2.73,2-.41.13-1.11-.33-1.64.27L53.58,76l-1.74.3C49.71,75,49.71,75,48.6,72.49c.1-.19.2-.35.29-.5A10.07,10.07,0,0,1,47,69.42c-.6-.91-1-2-2.08-2.53h0a2.5,2.5,0,0,0-.22-.24l-.1.09.26.2c-.08,1.22.63,2.3.68,3.51,0,.14.3.26.4.43a2.09,2.09,0,0,1,.44,1.63l.67.7c-.06.35-.11.73-.2,1.3.41.69,1.41.81,2.26,1.45v.54c.92.49,1.83,1,2.73,1.44a1.61,1.61,0,0,1-1.3,1.44,3.38,3.38,0,0,0-1.79.27c-.16.1-.52-.12-.92-.24a1.72,1.72,0,0,1-.63.26c-2.13.12-4.27.23-6.4.3H36.26l.5-1.27c.75.3,1.48.71,2.2,0a14.27,14.27,0,0,0,3.28.34,33.819,33.819,0,0,0,3.47-.12,21,21,0,0,1-4.22-3.11,4.281,4.281,0,0,0,0-.62c-.16-.81-.19-1.57-1.13-2.12a8.55,8.55,0,0,1-2-2.13,12,12,0,0,0-3-2.88A9.38,9.38,0,0,1,34,66.8a2.28,2.28,0,0,0-.45.33,9.589,9.589,0,0,0-.81,1.19c-.2.39.42.79.08,1.23.34.2.24.54.2.82a8.78,8.78,0,0,0,.3,2,5.64,5.64,0,0,0,.56,1.9,3.83,3.83,0,0,1,.1,1l1,.81-.53.53L33.77,76c-1,.14-2-.24-3,.36-.15-.2-.44-.43-.45-.66a8.53,8.53,0,0,0-.6-2.63,5.28,5.28,0,0,1,0-1.2c-.1-.82.28-1.69-.28-2.47-.09-.13.09-.44.14-.67s.13-.66.2-1l-.56-.54-.94.4c0,.09-.08.17-.07.26.09,1.43.2,2.85.3,4.28.64.72,0,1.73.58,2.49.17.22,0,.68,0,1H26.18l-.42-.41v-1.5c0-.56.2-1.23,0-1.64s0-1-.22-1.48.14-1.19-.08-1.63a4,4,0,0,1-.27-1.65l.7-.49L24.25,66l-.82,1.75c-.05-.13-.12-.3-.23-.62l.18-1c-.57-.42-.57-.42-1.22-.35l.21.29-1.8,2.62c-.79-.38-.5-1.24-.89-1.61l-1.2-.87c-.22.18-.48.39-.7.55l-.91-.26c-.1.13-.21.21-.2.27.06.72-.18,1.46.26,2.17.13.21-.12.64-.13,1,0,.88-.05,1.76-.05,2.64,0,.12.16.22.28.38l-.42.53.38.75-.39.44-3,.48c.11-.86-.28-1.64.3-2.36v-.3c.13-1.53.26-3,.38-4.42-.33-.51-.56-.86-.83-1.29l-1.31.7v5.39l-1,1v.51L10,75.46l-1.93.79-.9-.45c.49-1.23.3-2.61.84-3.87a5.77,5.77,0,0,0,.12-1.78,16.616,16.616,0,0,1,.2-1.7l-.17-.21a4.88,4.88,0,0,0,0-3.07,10.08,10.08,0,0,1-.07-2.41c0-.62.29-1.29-.27-1.86-.1-.1-.07-.41,0-.59.49-1.38-.09-2.76-.07-4.15a11.61,11.61,0,0,0-.46-2.8c-.19-.78-.2-1.63-.39-2.43A37.5,37.5,0,0,0,6.12,47a15.44,15.44,0,0,1-.38-2c-.16-.81-.12-1.67-.35-2.45a7,7,0,0,1-.29-1.54,3,3,0,0,0-.16-1.6,4.28,4.28,0,0,1-.17-1.56c-.17-.32-.33-.61-.49-.93,0,0,0-.15.08-.16.65-.06.79-.48.74-1.12l-.93-.6a1.42,1.42,0,0,1,.15-.37c.53.08.4-.45.61-.63.61.19.39,1.27,1.44,1.17A6,6,0,0,1,6,34.22a7.59,7.59,0,0,1,0-1.16l-.84-.84c-.18.23-.35.47-.59.79l-.75-.62c.22-.61.77-.9,1.16-1.39l1.59.79c0,.36.24.81-.19,1.17.33.75.67,1.5,1,2.35.16-.08.39-.21.61-.31a2.38,2.38,0,0,0-.47-1.91c.09-.22.25-.59.24-.6-.47-.24.16-.74-.26-1.05-.11-.09.21-.68.26-1.05a8.32,8.32,0,0,1,.08-1.34c.13-.4.57-.65.82-1,.38-.53.62-1.15,1-1.71a.78.78,0,0,1,.89-.42l-.37,1.64,1.11-.45-.51.93-.68-.35-.31.65L9.38,28v1c-.3.37-.3.37,0,.87V29l.31-.19.83.35L9.75,30v2l.48-.43c0,.34.12.73,0,.87-.36.36-.18.76-.21,1.13,0,.06.1.12.19.23.07-.33.13-.63.22-1,.24.51.43.89.61,1.27l.33-.06a10.26,10.26,0,0,1-.68-5.51c.23.44.37.74.5,1-.1.35-.37.77-.26.95a2.94,2.94,0,0,1,.25,1.66c.41,1,.68,1.69.86,2.13-.11.59-.18.94-.27,1.39.27-.14.42-.2.8-.38l.38.61.11-.08c-.08-.2-.17-.4-.27-.68.81-1.17,2.71-.83,3.42-2.16h1.38a1.217,1.217,0,0,1-.05.46l-1,.4c.66.19.66.79,1.25.52.05-.27.09-.54.14-.87h1.41V32.7c-.89-1-2.07-.67-2.93-.72l-2.51,1.3-1.24-1.24c.13-1.14.27-2.35.37-3.17L14,28a5,5,0,0,0,0,3l.52.17v.81h0l-.25.21.1.09a1.79,1.79,0,0,0,.2-.26,2.82,2.82,0,0,1,.92-.29A.9.9,0,0,0,16.4,31c-.73-1.16-.16-2.35.07-3.55l.44-.1c.05-.29.1-.56.13-.75l1.63-.38,1.34.95v4l-.88.84a3.82,3.82,0,0,0,2.17-.79c-.23-1.11-.47-2.23-.68-3.23l1.31-1.05-.48-1.26c-.9-.23-1.49-1-2.33-1.34s-2,.2-2.69-.52c-.63.23-1.19.36-1.68.6A5.49,5.49,0,0,1,13,25a1.91,1.91,0,0,0-1.53,1.18,2.78,2.78,0,0,1-.4.56C10.68,26.52,11.17,26,10.59,25.91Zm0,8.53.07-.06a2.62,2.62,0,0,0-.22-.25l-.1.09a.77.77,0,0,0,.51.17h-.26l.12.59h.2a.55.55,0,0,0-.36-.54Zm9.75,27,.31.3c-.05.64-.75,0-1,.62v.57l-1,.05-.54.53H16c-.16-.4-.3-.79-.45-1.18h-.3c-1.37-.6-1.9-2-2.88-3l-.91-.94v-.62c.69-.1.85.46,1.11,1,.68-.58,1.44-.31,2.34-.39-.34.39-.55.64-.77.88a7.69,7.69,0,0,0,.39.69l-.06-.07-.25.22.1.09a.9.9,0,0,0,.18-.28c.42-.09.88.19,1.29-.19a.91.91,0,0,1,.7-.08,6.7,6.7,0,0,1,1,.44,1.93,1.93,0,0,1-.06.36c-.93.46-1.79-.57-2.72-.09.06.19.1.33.13.45,1,.15,2.22-.38,2.84,1l.57-1.53.38.3.76-.37.37.32.46-.35.52.36c.19-.3.38-.58.58-.87l.4.4c0,.43.05.92.08,1.63.2-.45.3-.65.4-.86l1,.31c-.49-.5-.16-1-.25-1.7L23.83,61a4.16,4.16,0,0,0-.17-2.16c.1-.2.17-.37.29-.61L23.48,58a15.8,15.8,0,0,0-.43,1.53c-.59-.11-.19-.57-.3-.85a2,2,0,0,1-.13-.36h-1l-.6.88c-.05-1,0-1,.63-1.19l1.34-.4.3-.73-.59-.21v-3.8l-.93.07c.15.41.25.72.38,1,.29.73-.79,1.42-.06,2.15l-.11.1H21.6c0-.4-.09-.8-.17-1.53-.34,1,0,1.79-.31,2.45l-.44-.06c-.15-1.18-.31-2.36-.46-3.54l-.86-.13c.07-.25.11-.39.16-.52l.54.36c-.05-.44-.08-.7-.11-1l-.4.33L19,52l-.46.3-.72-.38a10.843,10.843,0,0,0-.1-1.17,1.33,1.33,0,0,0,.17-.32,1.588,1.588,0,0,0-.14-.33l-1.17,1.7a4.32,4.32,0,0,1,.79.49,9,9,0,0,1,.57.77.388.388,0,0,1,.21.06c.07-.19.13-.37.19-.56l.38.08c.13.67.23,1.28.36,2,0,0-.14.15-.06.07.07.25.15.47.23.7l.2-.11V53.7l.5.46c.14,1,.28,2,.41,3H19l-.51.49c.36.17.68.34,1,.49l.38-.35.4.45v1.27l-.87.36v-.53l.43-.09c-.07-.18-.14-.39-.23-.6l-.17.12v.53l-.55.26c-.07-.22-.12-.39-.21-.7l-.55.72-.87-.44a3.8,3.8,0,0,1,.47-.37c.17-.1.37-.15.59-.25-.17-.32-.28-.52-.42-.75l.06.06a1.571,1.571,0,0,0,.24-.21l-.1-.09a1.24,1.24,0,0,0-.17.27h-.61v-.91l.31-.23c-.1-.12-.2-.25-.31-.37s.16-.58-.3-.61l.25-.43-.41-.8-.29.62h-.4c-.05-.41-.1-.81-.15-1.26l-.6.16c.13.44.26.85.3,1-.14.34-.23.55-.38.88-.21-.74-.42-1.16-1.06-1.08v-.54l1.26-.2c-.72-.31-1.13-.47-1.48-.63l.38-.48c.18.27.34.39.57.1,0,0,.29.12.44.18l.13-.18-.65-.87.56-.55-.29-.33c.07-.06.2-.13.21-.2V47.51l-.69-2.1h-.64c-.26.27.18.8-.17,1l-.68-1.07-.47.51.91.43.41.62.4-.35.5.91H13.15l-.53-.53-1.4-.09a3.67,3.67,0,0,0-.14-1.24l.78.36c0-.46-.08-.82-.13-1.36a2.8,2.8,0,0,0-.52,1.09c-.1.07-.29.16-.29.23v3a5.674,5.674,0,0,1-.29,2.9c.12.2.24.4.36.57-.16.17-.25.28-.27.29a6.08,6.08,0,0,1,.22,2.2l-.46.47A6.82,6.82,0,0,1,10,52.63c0-1.83-.17-3.66-.3-5.48a1.94,1.94,0,0,0-.31-.7l.27-.37c-.28-1.73-.52-3.28-.78-4.88.06-.16.16-.4.38-.94l-.67.53c-.27-.53-.53-1-.89-1.78-.08.52-.13.79-.19,1.19L6.11,40a4.55,4.55,0,0,0,.23,2.2c.26,1.07.26,2.18.62,3.23a5.9,5.9,0,0,1,.3,1.24A9.28,9.28,0,0,0,7.52,49c.27.68,0,1.53.33,2.29.23.57-.07,1.21.28,1.86s-.07,1.35.36,2c-.1,1.89.5,3.74.31,5.64a2.18,2.18,0,0,0,.08,1.17c.41.77.14,1.56.2,2.33,0,.26-.29.54-.26.79s.51.72.16,1.19.35.73.14,1.17c-.07.13.26.44.2.59-.53,1.42-.15,2.87-.2,4.3a2.77,2.77,0,0,1-.73,2.16c.2.36.4.7.58,1,1.26-.7,1.22-.72,1.65-1.93a15.65,15.65,0,0,0,.59-3.24,10.287,10.287,0,0,0,0-1.36c0-.45-.13-1,.09-1.31.4-.52-.47-.75-.11-1.18a2.79,2.79,0,0,0,.35-.74c1.4-.11,2.75.19,4-.38.26.24.48.44.68.64.5-.56,1.14-.18,1.71-.29l1.69-.33.86,2.15h.31c.17-.7.35-1.41.54-2.15l.6.48c-.18-.6-.28-1-.46-1.54l.6.54.46-1c-.37-.48-.64-.87-.95-1.22a8.8,8.8,0,0,0-1-.92,1.21,1.21,0,0,1-.35-.27L20,61.13a1.77,1.77,0,0,0-.34.33l-.06-.06-.25.21.1.09a.85.85,0,0,0,.18-.27ZM6.61,38.69l.06-.06-.21-.25-.1.09a.83.83,0,0,0,.26.17c0,.19,0,.38,0,.62l.58-.06v-.51a2.25,2.25,0,0,0-.59,0ZM17.24,49l.06-.06-.21-.24-.1.09a1,1,0,0,0,.27.17,4.79,4.79,0,0,0,0,.64l-.06-.06-.24.21.1.09a.83.83,0,0,0,.17-.27l1.19.19V49.4C18,49.25,17.65,49.11,17.24,49Zm1.12,12.64c-.13.33-.75.4-.29,1.08.26-.2.49-.36.72-.52a2.78,2.78,0,0,1-.35-.52l.06.06a2.52,2.52,0,0,0,.25-.21l-.1-.09A.51.51,0,0,1,18.36,61.64Zm-2-8.72a2.857,2.857,0,0,0-.05-.62l-.57.06v.52a.66.66,0,0,0,.62-.21v1.16l1.21-.07c-.06-.25-.1-.39-.13-.53l-.64.37a1.75,1.75,0,0,0-.43-.68ZM21.5,39.56h-.94c.29.49.51.87.75,1.26.12-.13.18-.24.27-.26.37-.07.73-.1,1.17-.17-.05-.21-.08-.37-.11-.52h-.52v-.79Zm-6,27.31h.26l-.12-.59h-.19c0,.19,0,.38.28.42-.12.28-.25.56-.41.91l-.79-1.17v6.64c.4.61.93.48,1.5.37a26.06,26.06,0,0,0-.52-6.58Zm10.83-.27.07-.06a2.62,2.62,0,0,0-.22-.25l-.1.09c.09.07.17.14.36,0-.31.81-1,1.4-.65,2A5.55,5.55,0,0,1,26.08,70a7.17,7.17,0,0,1,.9,2.92,8.61,8.61,0,0,0,.33,1.68c.08.24.46.37.73.58.09-.24.15-.33.14-.4A22.75,22.75,0,0,0,28,71.69a17.14,17.14,0,0,1-.07-3.88,5.4,5.4,0,0,0-1.59-1.21Zm4.58-.19c-.2.2-.42.32-.46.47-.26,1.1-.77,2.19-.26,3.36a1.45,1.45,0,0,1,.11.71,5.49,5.49,0,0,0,1,3.23c.27.49.87.8,1.31,1.2l.47-.5c-.11-1.25-.57-2.43-.62-3.7s-.25-2.61-.39-4c-.11-.11-.29-.27-.44-.4l-.66.37v-.58l.9-.11a1.5,1.5,0,0,1,0-.2,3,3,0,0,0-.95.15ZM9.68,38.09C9.68,37,8.46,37,8.16,36.17c-.48.37-.87.66-1.23,1a2.14,2.14,0,0,0-.36.48c1.12.17,2.1.32,2.94.42l1.07,1.07-.38.37a8,8,0,0,0,.91.75,10.11,10.11,0,0,1,1,.45,29.86,29.86,0,0,0,3.57,2c.41.23.8.51,1.25.8a2.93,2.93,0,0,1,1.49.27c.48.26,1.14.15,1.67.36s1.33.09,1.77.93c-1.15-.16-2.14.1-3.18-.31-.72-.29-1.57-.3-2.32-.62-.19-.09-.64-.19-.63.42,1.67.92,3.59,1.5,5,2.89-.36-.05-.69-.24-1-.29a7.63,7.63,0,0,0-1.26.05l-.05.22,2.48,1.45-1.2.24a20,20,0,0,0,5.3,1.1l1.15,1.14a2.649,2.649,0,0,1,.5-.26,1.9,1.9,0,0,1,.53,0c.06-.26.09-.4.08-.37a7.23,7.23,0,0,0,1.58-.83c.28-.26.79-.21.92-.8.08-.35.75-.55,1.09-.88.51-.47.69-1.35.68-2.69.42-.33-.09-.62-.06-.94s0-.89,0-1.42l-1.89-.62L27.55,41c-.53.7-1.29-.46-1.61.35l-1.13-1v-.47L24.09,39,23,39.38l1.23,1a20.92,20.92,0,0,1-3.11,1,9.74,9.74,0,0,1-4.21-.42A14,14,0,0,1,13,39.43a1,1,0,0,0-.38-.18,6.38,6.38,0,0,1-1.88-.94A1.73,1.73,0,0,0,9.68,38.09Zm23.68,8.67A8.26,8.26,0,0,1,30,50.59a5.15,5.15,0,0,1-.59,3.15c-.42.73-.83,1.47-1.21,2.23a2.22,2.22,0,0,1-1.46,1.09c-.07-.2-.13-.35-.16-.45l-.81,1.52a1.75,1.75,0,0,1,.05,2c.14.51.25.87.33,1.17.53.76,1.39.67,2.09.9a21,21,0,0,1,4.89,2.13,11.24,11.24,0,0,1,2.1,1.52c.45.47.92.93,1.39,1.39s.8,1,1.22,1.45A8.12,8.12,0,0,1,39.1,70c.28.46,1,.64,1.29,1.09s1,.64,1.14,1.16c.21.73.87.84,1.32,1.25a6.16,6.16,0,0,1,.68.91c.72-.67,1.24.1,1.51.2h1V72.84c-.43-1.07-1.33-1.88-1.43-3s-1-2-.69-2.94c-.41-.8-.71-1.38-1.07-2.11l2.46-.6c.51-.46,1.19-1.1,1.92-1.68a4.79,4.79,0,0,1,1.1-.42c-.19-.8.71-1,1.14-1.45.81-.94.9-2.22,1.8-3.11-.23-1.16.42-2.27.35-3.48,0-.46.44-.93,0-1.43a.57.57,0,0,1,0-.56c.34-.28.24-.63.24-1A5.65,5.65,0,0,0,50.54,48c-.71-1-1.73-1.94-1.77-3.4-1-.32-1.59-1.2-2.56-1.6-.49-.21-1,.05-1.5-.45s-1.05-.38-1.53-.65a3.12,3.12,0,0,0-2-.27c-1.08.16-2.14.25-3.21.35a1.84,1.84,0,0,0-1.7.86h-1.4l-1.5,1.5c-.01.86-.01,1.71-.01,2.42Zm-14-8.88c1.36-.89,1.46-.91,2.34-.51L24.18,37l.43.23.64-1h.67a.879.879,0,0,1,.1-.1,2,2,0,0,0-.74-1.94c-.71.39-1.41.77-2.12,1.14a4.5,4.5,0,0,1-2.6.25V34.42l-.72-.35c-.59.84.62,1.1.39,1.93-.39-.37-.66-.81-1.22-.72-.15,0-.36-.3-.56-.45a.26.26,0,0,0-.13,0l-.68,1,1.38.89v1l-1.67.24c-.11-.59-.22-1.2-.34-1.87l.43-.6L16.15,36l.28,1.21-.89.47a1.546,1.546,0,0,1,.7.07,1.448,1.448,0,0,0,.41.1,1.7,1.7,0,0,1,0,.33l-.09.12c-2.31.37-4.17-.68-6-1.89l.38-.43h-.56c-.11.53-.21,1-.28,1.35,1.2.55,2.47,1,3.66,1.68,2.81,1.5,3.14,1.69,5.57,1.42a2,2,0,0,0,.59-2Zm12.5,26.68c-.55-.14-.93-.21-1.29-.34-.66-.22-1.32-.44-2-.7a5.82,5.82,0,0,1-.72-.45h0l-1.28.2-.74-.67c-.72.31-1.34.57-1.94.84L25.44,66c.93-.15,2,.3,3-.28.35.1.68.31,1,.25.54-.1,1.05-.37,1.59-.51s.88-.23,1.24.18l.27-.17Zm10.46,11.2a17.131,17.131,0,0,0,1.77,1.4,4.26,4.26,0,0,0,2,.93c.52.75,1.32-.19,1.88.3l.85-.46-.35-.34-2.17-.32-1,.29c-.13-.27-.22-.48-.32-.68H44.4c-.66-.48-1-1.24-1.78-1.57ZM23.8,34.41c.09-.2.19-.42.32-.67h.75a10,10,0,0,0-.15-1.14l-.73.92-.57-.29-.19.56c-.45,0-.94.19-1.24-.26l-.8.44c.14,1,1,.57,1.45,1l.53-.54Zm.86-3.33c-.9-.6-.9-.6-1.31-1.81v1.65l-.57.53v.72l1.12.34a7.924,7.924,0,0,1,.08-1ZM20.87,50.62c-.18.32-.36.64-.53,1l.19.19c.29-.22.57-.47.88-.67.09-.06.27,0,.36.07-.1.26-.19.49-.3.79,1.22.08.74-1,1.24-1.38l-2.17-.37Zm.76-19.25c-.06.16-.12.34-.17.52l-1.13.5.68.94,1.42-1.21a2.873,2.873,0,0,0-.07-.75Zm2.63,27c0,1.59,0,1.59.81,2.36.12-.54.23-1.08.33-1.56Zm29,15.49c-.42.63-1.12.08-1.64.42v.5a12.84,12.84,0,0,0,2.67-.16ZM20.67,39c.15-.13.21-.25.29-.26.67-.07,1.34-.11,2.08-.16v-.87c-.76.6-1.82,0-2.4.84A1.275,1.275,0,0,0,20.67,39ZM47.1,67.75c-.43-1,.55-1.93.09-3.07-.22.53-.54.88-.51,1.44a8.47,8.47,0,0,1-.21,1.63ZM23.82,56.21c.46-.51-.24-.87-.2-1.28l.4-.52c-.49-.15-.16-1.06-1-.85C23.65,54.39,22.94,55.53,23.82,56.21ZM49.06,70.3c.25-.91.47-1.72.68-2.53,0-.08-.09-.18-.16-.32-.41.71-.38,1.54-1,2C48.75,69.71,48.87,70,49.06,70.3ZM21,54.64l.57-.35a10.1,10.1,0,0,1-.33-1,9,9,0,0,1-.09-1l-.54.46C21.27,53.3,20.63,54.12,21,54.64Zm-3.46,7.59-.93-1-.68,1ZM48.6,65.38v1.46h.58c-.07-.4-.15-.77-.22-1.12l.22-.34ZM16.82,30.69h1.35v-.36l-.83-.45Zm.14,15c-.61-.17-.84.15-.95.75H17ZM48,64.43c.17.74-.68,1.35-.3,2.19a2.19,2.19,0,0,0,.3-2.19ZM15,35.52l.75.13c-.15-.58.12-1.09-.2-1.6l-.53.18.43.9ZM27,55.19a6.3,6.3,0,0,1,0-.91,5.15,5.15,0,0,1,.23-.74h-.55a3.61,3.61,0,0,1,0,.57,3.13,3.13,0,0,1-.24.52Zm22.84,13.5V70.2a1.83,1.83,0,0,0,.24-.81,4.47,4.47,0,0,1,.24-.7ZM9.28,32c-.22.56-.41,1.12.49,1.52-.15-.34-.25-.52-.31-.71S9.34,32.29,9.28,32ZM50.43,69.87v1.51c.26-.62.42-1,.6-1.4ZM19.12,50.58c.32-.25.93.25.85-.65h-.85Zm-5.78,9.11.58-.24c0-.49-.23-.61-.58-.68Zm4.76-11.8V46.77l-.68.26c.24.3.42.52.68.86Zm7.72,8.29.21.07c.12-.27.25-.53.41-.89h-.62ZM9.67,40.82l.54-.35a2.52,2.52,0,0,1,.33-.14,1.15,1.15,0,0,1-.06-.17l-.8.06C9.67,40.42,9.67,40.52,9.67,40.82Zm3,3.37h-.65a2,2,0,0,0,.12.55l.53-.1Zm-4-13.4c.21.35.35.61.59,1v-1ZM47.39,68.38h.16V67.17h-.16Zm-22-7.32-.59.12a2.522,2.522,0,0,0,.1.56l.49-.09ZM6,36.27H5.73a5.18,5.18,0,0,0,.11.79H6Zm6.45,7.59.59-.11-.59-.39Zm16,7.5c-.19.57-.06.76.23.63a2.147,2.147,0,0,1-.3-.63Zm-13.1-5.8h.5a5.008,5.008,0,0,0-.14-.78Zm1.29,4.85c-.22.23-.37.39-.75.77l.87-.18a2.044,2.044,0,0,1-.19-.59Zm1.58-23.17-.63.29.11.15h.52ZM24,53.47h.27l-.11-.8H24ZM46.18,75.08l.48.9v-.9Zm-32-38.88-.48-.9v.9ZM5.54,38.07l.29.62.15-.1v-.52Zm19.36,19h.27a5.492,5.492,0,0,0-.11-.8H24.9ZM8.21,32.84h.27L8.36,32H8.21Zm9.71,21.84h.27a7.174,7.174,0,0,0-.11-.81h-.16ZM28,66.35c-.1.45-.1.45.65.39Zm4.68,0h-.26a3.1,3.1,0,0,0,.11.51h.15Zm-7.76-11h.15v-.6h-.15ZM21.87,29.8a2.06,2.06,0,0,0,.26,0,2.161,2.161,0,0,0-.11-.49h-.15ZM18.43,55.39h-.26a2.161,2.161,0,0,0,.11.49h.15Zm7.41-1H26v-.6h-.15Zm-9.57-5.16h-.15v.6h.15ZM46.05,66h-.26l.12.49h.14ZM23.72,38.65h.15V38h-.15ZM49.5,73.29v.26l.5-.11v-.15ZM16.61,34.35v-.26l-.5.12v.14Zm-4.15,8.49h.26a2.327,2.327,0,0,0-.11-.51h-.15Zm.78-6.61h-.15v.6h.15Zm4.28,26.64a2.059,2.059,0,0,0,0-.26l-.5.11v.15ZM11,44.41h.15v-.6H11Zm3.57.39V45h.6v-.2Zm-1.42-.08h.1v-.31h-.1Zm1,0H14V45h.1ZM21.41,61.1h-.1v.31h.1Zm-2.73-10h-.1v.31h.1ZM11.5,43.3v.1h.3v-.1Zm-1.12-1h.1V42h-.1Zm.11-1.21h-.1v.3h.1ZM23.64,64.94v-.1h-.31v.1ZM8.46,40v.1h.3V40ZM23.64,56.65v.1H24v-.1Zm-6.58-8.29h.1v-.31h-.1Zm2.84,2.73h-.1v.31h.1Zm-2.23,4.55h.1v-.31h-.1Zm-.2-1.21h-.1v.31h.1ZM6,39.36v.1h.31v-.1Zm5.9,27.81H12v-.3h-.1ZM24.65,54.12h.1v-.3h-.1Zm-6-25.48h-.1V29h.1ZM28.3,53.52h.1v-.31h-.1Zm-18.63-19v.1H10v-.1Zm40.59,37.2h-.1V72h.1ZM22.83,33.19h.1v-.31h-.1Zm-5.87-5v.09h.3v-.09Zm7.69,24.77h.1v-.3h-.1ZM46.41,76.67v.1h.3v-.1ZM12.61,36.53h-.1v.3h.1ZM46.31,78.7h-.1V79h.1ZM27.18,52h-.1v.31h.1Zm-1.72-.2v.1h.31v-.1Zm2.12,3.74v-.1h-.3v.1Z" transform="translate(-1.52 -23.132)" fill="#774234"/>
  <path id="Trazado_25934" data-name="Trazado 25934" d="M1.55,34.87,2.83,34a2.4,2.4,0,0,0,.17.55c.11.17.29.28.41.44a3.85,3.85,0,0,1,.31.62H2.14c-.2.78.58.81.67,1.3H3.89v.53l-.6-.31-.58.32-1.19-.39Z" transform="translate(-1.52 -23.132)" fill="#774234"/>
  <path id="Trazado_25935" data-name="Trazado 25935" d="M50.48,62.71c.15.09.34.2.64.4C50.39,63.17,50.39,63.17,50.48,62.71Z" transform="translate(-1.52 -23.132)" fill="#774234"/>
  <path id="Trazado_25936" data-name="Trazado 25936" d="M13.91,49.28c.08.55.56.17.86.36v.85h-.85a1.58,1.58,0,0,0-1.6-.6L11.54,49a5.62,5.62,0,0,1,1.53.18c.16-.06.1-.17.07-.17a2.13,2.13,0,0,0-.43.13c.18,0,.36.11.36,0-.36-.33-.36-.48-.36-.71l-1.16-.12a2.443,2.443,0,0,0-.07-.39c-.02-.12.09-.12.12-.12a7.89,7.89,0,0,1,2,.15c.56.19,1.31.32,1.57,1.14-.4.33-.86.11-1.28.19h0a1.64,1.64,0,0,0-.21-.25l-.1.1a2.22,2.22,0,0,0,.33.15Z" transform="translate(-1.52 -23.132)" fill="#774234"/>
  <path id="Trazado_25937" data-name="Trazado 25937" d="M14.23,54.74v.52a2.21,2.21,0,0,1-2-.37l-.7.58.35.42H11c.07-.56.14-1.11.23-1.72l1.44.26C13.21,54.52,13.72,54.63,14.23,54.74Z" transform="translate(-1.52 -23.132)" fill="#774234"/>
  <path id="Trazado_25938" data-name="Trazado 25938" d="M14.48,50.75v1c-1-.38-2-.73-3-1.11v-.51Z" transform="translate(-1.52 -23.132)" fill="#774234"/>
  <path id="Trazado_25939" data-name="Trazado 25939" d="M12.15,56.05l.32-.32c.83.45,1.76.06,2.64.29v.45C14.06,56.88,13.17,55.9,12.15,56.05Z" transform="translate(-1.52 -23.132)" fill="#774234"/>
  <path id="Trazado_25940" data-name="Trazado 25940" d="M11.56,52.52,12,53l.59-.35.2.59a4.2,4.2,0,0,1,.36-.27l.24.4a3,3,0,0,0-.49.19,3.651,3.651,0,0,0-.45.32l-1-.45C11.5,53.14,11.53,52.87,11.56,52.52Z" transform="translate(-1.52 -23.132)" fill="#774234"/>
  <path id="Trazado_25941" data-name="Trazado 25941" d="M17.26,56.25v.6l-1.52-.51L17,55.63C17,55.87,16.81,56.22,17.26,56.25Z" transform="translate(-1.52 -23.132)" fill="#774234"/>
  <path id="Trazado_25942" data-name="Trazado 25942" d="M17,58.8v.33l-1.77-.22V58.4C15.82,58.53,16.39,58.66,17,58.8Z" transform="translate(-1.52 -23.132)" fill="#774234"/>
  <path id="Trazado_25943" data-name="Trazado 25943" d="M11.34,57.77,10.29,56.7l.43-.44.89,1.43Z" transform="translate(-1.52 -23.132)" fill="#774234"/>
  <path id="Trazado_25944" data-name="Trazado 25944" d="M11.5,51.9v-.48l1.55.62a1.088,1.088,0,0,1-.07.24Z" transform="translate(-1.52 -23.132)" fill="#774234"/>
  <path id="Trazado_25945" data-name="Trazado 25945" d="M20,63.83c.57-.07.82.23,1,.74l-.45.25Z" transform="translate(-1.52 -23.132)" fill="#774234"/>
  <ellipse id="Elipse_721" data-name="Elipse 721" cx="1.07" cy="0.11" rx="1.07" ry="0.11" transform="translate(13 34.378)" fill="#774234"/>
  <path id="Trazado_25946" data-name="Trazado 25946" d="M13.94,57.64l-.8-.41,1.31-.08.12.21Z" transform="translate(-1.52 -23.132)" fill="#774234"/>
  <path id="Trazado_25947" data-name="Trazado 25947" d="M15.11,63.5v.59h-1Z" transform="translate(-1.52 -23.132)" fill="#774234"/>
  <path id="Trazado_25948" data-name="Trazado 25948" d="M13.36,52.05h.51a.68.68,0,0,1,0,.14l-.49.12A1.184,1.184,0,0,0,13.36,52.05Z" transform="translate(-1.52 -23.132)" fill="#774234"/>
  <ellipse id="Elipse_722" data-name="Elipse 722" cx="0.21" cy="0.07" rx="0.21" ry="0.07" transform="translate(20.54 36.838)" fill="#774234"/>
  <ellipse id="Elipse_723" data-name="Elipse 723" cx="0.07" cy="0.21" rx="0.07" ry="0.21" transform="translate(11.27 33.968)" fill="#774234"/>
  <path id="Trazado_25949" data-name="Trazado 25949" d="M20,63.86a1.64,1.64,0,0,1-.25-.21l.1-.09.21.24a.34.34,0,0,1-.06.06Z" transform="translate(-1.52 -23.132)" fill="#774234"/>
  <ellipse id="Elipse_724" data-name="Elipse 724" cx="0.21" cy="0.07" rx="0.21" ry="0.07" transform="translate(10.22 40.788)" fill="#774234"/>
  <ellipse id="Elipse_725" data-name="Elipse 725" cx="0.07" cy="0.21" rx="0.07" ry="0.21" transform="translate(11.27 40.648)" fill="#774234"/>
  <ellipse id="Elipse_726" data-name="Elipse 726" cx="0.07" cy="0.21" rx="0.07" ry="0.21" transform="translate(12.18 40.648)" fill="#774234"/>
  <ellipse id="Elipse_727" data-name="Elipse 727" cx="0.21" cy="0.07" rx="0.21" ry="0.07" transform="translate(20.24 33.798)" fill="#774234"/>
  <path id="Trazado_25950" data-name="Trazado 25950" d="M14.56,29.54c0-.58-.25-1.15.54-1.49C15.12,28.63,15.36,29.2,14.56,29.54Z" transform="translate(-1.52 -23.132)" fill="#774234"/>
  <path id="Trazado_25951" data-name="Trazado 25951" d="M15.55,30.69c-.45-.1-.85-.23-.6-.93Z" transform="translate(-1.52 -23.132)" fill="#774234"/>
  <path id="Trazado_25952" data-name="Trazado 25952" d="M15.47,30.73l.25.22-.1.09a2.62,2.62,0,0,0-.22-.25Z" transform="translate(-1.52 -23.132)" fill="#774234"/>
  <path id="Trazado_25953" data-name="Trazado 25953" d="M21.51,39.56l.61.31c-.11.56-.52.23-.88.26C21.35,39.93,21.43,39.74,21.51,39.56Z" transform="translate(-1.52 -23.132)" fill="#774234"/>
</svg>
