<svg id="Calavera_tarta-queso" xmlns="http://www.w3.org/2000/svg" width="41.87" height="56.488" viewBox="0 0 41.87 56.488">
  <path id="Trazado_26062" data-name="Trazado 26062" d="M51.4,38.9l-.46-.3v-.39c.16-.16.32-.3.46-.46v-1.5l-.4-.38h-.75c-.22.26-.41.5-.57.71h-.54c-.24-.29-.41-.57-.18-.93l-.08-.08c.42-.47.24-1,.1-1.48a1.38,1.38,0,0,0-.73-1,4.34,4.34,0,0,0-.52.17l-1.34,1.63c-.12.14-.12.38-.38.38-.06.29-.4.31-.49.59a.75.75,0,0,1-.38.36,1.07,1.07,0,0,0-.4.39c-.12.16-.39.24-.45.4a.6.6,0,0,1-.14.22l-.06.06a2.38,2.38,0,0,1-.54.31,1.06,1.06,0,0,1-.29.6,2.15,2.15,0,0,0-.38.53,1.65,1.65,0,0,0-.42.22c-.09.08-.33,0-.27.24a1.44,1.44,0,0,0-.4.18,19.132,19.132,0,0,0-1.66,1.27,2.37,2.37,0,0,1-.72.59c-.35.14-.37.61-.75.67a.5.5,0,0,0-.1.14c-.2.38-.55.68-.49,1.17l-.3.3c-.08.28-.14.51-.2.71h-.34c-.25.16-.43.32-.65.46s-.24.49-.54.55c0,.28-.47.22-.41.5l-.6.35c.06.2.1.36.14.46a1.85,1.85,0,0,1-.45.44,1.56,1.56,0,0,1-.6.15,1.16,1.16,0,0,1-.08-.49A.88.88,0,0,0,34,46c-.15-.22.1-.44.1-.66v-.06c-.2-.16-.08-.37-.12-.57-.08-.36-.21-.72-.31-1.07a3.79,3.79,0,0,1,.45-2c-.14-.34-.27-.68-.41-1a1.744,1.744,0,0,1,.45.11c.14.03.08,0,.1,0h0a.87.87,0,0,0-.12-.2c-.1-.14-.16-.12-.41,0l-.32-.16c.06-.4.1-.81.18-1.31a5.09,5.09,0,0,0,1.19-1.9h.41l.12.12a5.58,5.58,0,0,0-.08.57c.28.22.54.44.81.64h.36l.2-.2a2.76,2.76,0,0,0,.75-.16c.28-.18.54,0,.81-.1l.64-.2.53.18.12-.12.2.26a2.84,2.84,0,0,0,1.9-.28c0-.35.38-.26.48-.51s.18-.4.26-.62a7,7,0,0,0,.23-.69c.06-.24-.12-.52.12-.75a1.89,1.89,0,0,1-.35-1.37h.19a1.67,1.67,0,0,1,.16-.4,1.06,1.06,0,0,0,.14-1.13c-.08-.17,0-.41,0-.65a.88.88,0,0,1-.12-.24,4.07,4.07,0,0,0-.28-1.09c-.06-.12,0-.29,0-.41a12.9,12.9,0,0,1-1.11-1.25,1.54,1.54,0,0,1-.47-.83.23.23,0,0,0-.06-.16c-.34-.44-.36-.48-.42-.78a1.67,1.67,0,0,0-.67-1.18,1.09,1.09,0,0,1-.32-.4A11.7,11.7,0,0,0,38.66,24a5.79,5.79,0,0,1-1-.43c-.4-.22-.73-.6-1.25-.5-.16-.2-.43,0-.55-.12s-.36.12-.54-.08-.39,0-.59,0a1.11,1.11,0,0,1-.52,0,.9.9,0,0,0-.93.14,2,2,0,0,0-1.39-.3c-.06.08-.13.14-.19.22h-.86l-.63.8V24a.84.84,0,0,0,.75-.16l1.11-.16c.14,0,.26-.15.38-.23s.08.1.12.1a13.94,13.94,0,0,0,1.82-.14s.06-.08.08-.08.18-.06.22,0,.41,0,.55.12.5,0,.72.14a2.25,2.25,0,0,0,1.46.31,1.89,1.89,0,0,0,.85.87.86.86,0,0,1,.54.66,1.474,1.474,0,0,0,.1.12,3,3,0,0,0,.49,2.2v.47l.36.36v.61c.18.1.34.26.52.26s.31.14.47.2.24.22.32.41a6.641,6.641,0,0,1-.64.24.76.76,0,0,1-.12-.1c-.31.18-.59.36-.89.56l-.1-.1c-.25.28-.65,0-.87.24a1.08,1.08,0,0,0-.79.2c-.34.07-.63.11-.91.15l-.16-.12c-.12.1-.22.18-.32.28-.18-.06-.37-.14-.53-.18s-.32-.21-.54-.08-.37-.25-.49-.21a2.6,2.6,0,0,1-.56,0h-.61l-.28.29a1.71,1.71,0,0,0-.47-.13,2.7,2.7,0,0,0-.54.17l-.3.3c-.37-.14-.43.34-.73.38a3.55,3.55,0,0,0-.77.27,2.07,2.07,0,0,0,1.52.42L33,32c.28-.06.52-.1.68-.12a.679.679,0,0,1,.45.08c.28.08.6.18.64.49s.29.3.27.5.26.3.4.43a.61.61,0,0,1,.1.14,14.77,14.77,0,0,0,.73,1.63,3.48,3.48,0,0,1,.18.69l.46.26a7.48,7.48,0,0,0,.23-.87,6.49,6.49,0,0,1,.16-.86.7.7,0,0,1,.52.54,1.85,1.85,0,0,0,.55.89H39v-.89c.08-.08.14-.12.21-.18a2.49,2.49,0,0,1,.4.2c.14.08.1.32.34.34,0,0,.14.17.12.25v.1a.07.07,0,0,0,0,.06h0a1,1,0,0,1,.15.2,3.421,3.421,0,0,1,.22-.28,1.311,1.311,0,0,0-.1-.73c.26-.5.26-.5.54-.54l.37.38c.06.18.12.32.16.44s-.08.29-.1.41a2.64,2.64,0,0,0,0,.4,1.76,1.76,0,0,1-.49.18.38.38,0,0,0-.38.29c.1.16.24.32.34.5a.84.84,0,0,1,0,.32h-.4a3.08,3.08,0,0,0-.26-.24H38.6a1.75,1.75,0,0,1-.54-.12c-.19,0-.35.2-.51,0-.4.24-.85.06-1.27.12-.1-.1-.2-.2-.3-.32v-.47l-.75-.68v-.55a3,3,0,0,1-.85-1.07l.41-.42-.87-.18-.33-.33a1.2,1.2,0,0,0-.6.11.82.82,0,0,1-.63,0c-.14-.06-.28,0-.38-.08a.42.42,0,0,0-.38,0,.84.84,0,0,1-.33-.08,1.86,1.86,0,0,1-1.23,0c-.08.14-.16.29-.24.41l.06.06h0a.935.935,0,0,0-.1.12l-.06.06.28.16v.67l-.4.91c-.14.26-.49.4-.47.76a1.07,1.07,0,0,1-.28.12.59.59,0,0,0-.22-.08,1.27,1.27,0,0,1-1.25-.5c0-.06-.13-.08-.21-.12l-1-.61a6.49,6.49,0,0,0-.32-.79c-.16-.24-.4-.44-.44-.72s-.43-.37-.63-.63c.1-.44-.24-.7-.52-1,.38-.5,0-.87-.19-1.25.07-.14.21-.28.21-.44,0-.45.32-.75.48-1.21v-.59c.2-.32.39-.59.55-.87a1.13,1.13,0,0,1,.44-.48,1.06,1.06,0,0,0,.59-.89.88.88,0,0,0-.75-.3c-.61.38-.81,1-1.21,1.57v.89a3.15,3.15,0,0,0-.71,1.41,5.22,5.22,0,0,0,0,1,7.561,7.561,0,0,1-.16,1l.44.3c-.06.14-.1.27-.16.41.1.22.18.46.3.7a10.5,10.5,0,0,0,1,1.72c.35.46.53,1,1.13,1.27a3.25,3.25,0,0,1,.73.55l.81.16c.34.12.6.42,1,.32l.08.24c.4,0,.79.17,1.19.15s.73.34,1.17.2c.16-.47.3-.93.53-1.62a1.7,1.7,0,0,0-.65-1.59l.2-.41h.31l.36.29c.06.48.1.92.16,1.37l.46.34c-.1.24-.14.49-.28.59s.12.44-.08.6c0,.45-.1.89-.14,1.38l-.34.48a6.22,6.22,0,0,1-1.9-.42,2.195,2.195,0,0,0-.59.14l-.06-.08c-.1.14-.22.28-.3.4-.63-.12-1.21-.4-1.8-.14L27,38.94,25.23,40c-.06.16-.1.34-.18.52a2.86,2.86,0,0,0-1.05.81c-.36.55-.68,1.13-1,1.64a5.74,5.74,0,0,0-.8.74,4.9,4.9,0,0,1,.4.47c-.22.2-.42.38-.67.58s-.22.43-.34.69l1,.2a4.28,4.28,0,0,0,.14.43H23a3.769,3.769,0,0,1-.1-.43l.45-.26.54.28v.3h.38c.21.13.29.41.59.37a.25.25,0,0,1,.18.14c.08.3.35.36.59.48s.4.21.54.15.43.26.65.06c.26.26.26.26.3.48h-.64l-.19-.18c-.14,0-.3.1-.38.06a.85.85,0,0,0-.38-.12c-.37,0-.57-.47-1-.39a.776.776,0,0,0-.18-.16.64.64,0,0,0-.23-.06V47a3.76,3.76,0,0,0,1.15.87l.13-.1c.34.49,1,.57,1.35,1h.12l.44.24a.15.15,0,0,1,0,.08.9.9,0,0,0-.14.14c-.12,0-.2-.1-.28-.08A1.53,1.53,0,0,1,26.2,49a7.8,7.8,0,0,1-1.07-.48c-.16-.08-.42-.18-.44-.32s-.26-.21-.39-.27a2.53,2.53,0,0,0-.74-.16l.14-.28c-.12-.38-.24-.77-.34-1.11l-.45-.12-.64.38v-.71a4.88,4.88,0,0,0-.63.17,1.58,1.58,0,0,1-.22-.13c-.14.13-.22.23-.37.35a2.8,2.8,0,0,1-.26,1.39,4.119,4.119,0,0,1,.41.32l.42.43a3.08,3.08,0,0,1,.1-.41L22,47.9a.84.84,0,0,1-.3.83,2.324,2.324,0,0,1-.44-.12,8.19,8.19,0,0,0-.69,1c-.2.36-.26.81-.71,1a1.06,1.06,0,0,0-.14.56c.1.08.2-.08.31-.08h0a2,2,0,0,1,.42-.2,2.08,2.08,0,0,1,.5,0c0,.1.05.2,0,.26A4,4,0,0,1,20,52.51h-.5a.77.77,0,0,1,0-.31,1.75,1.75,0,0,0,.2-1c-.12.06-.3.08-.4.14h0c-.18.28-.51.4-.69.66,0,.06-.12.06-.26.14v-.46a1,1,0,0,1,.1-.51c.08-.12-.08-.36-.08-.54s.08-.16.1-.22-.12-.25-.1-.35a4.3,4.3,0,0,1,.08-.86,3.76,3.76,0,0,0,0-1.16c-.06-.1-.1-.14-.12-.18-.08-.26-.2-.52-.26-.8a4.51,4.51,0,0,0-.37-.81,9.09,9.09,0,0,0-.7-1.13,1.8,1.8,0,0,0-.31-.43c-.22-.18-.34-.5-.66-.56-.06-.37-.45-.39-.65-.63a1,1,0,0,0-1.11-.44,2.859,2.859,0,0,0-.16-.25,1.2,1.2,0,0,0-1.09.31,1,1,0,0,1-.49.28,1.79,1.79,0,0,0-1.25.77c-.16.22-.36.4-.44.52a5.273,5.273,0,0,0-.22.49c-.06.12-.23.24-.25.38A7.52,7.52,0,0,1,10,47.07a.93.93,0,0,0,.08.83,2,2,0,0,0,.3-.14.33.33,0,0,1-.06.45v.14l.37-.1L11,48v-.4l-.24-.1a3.59,3.59,0,0,1,.26-.55,1.6,1.6,0,0,0,.4-.93.69.69,0,0,1,.13-.36,3.26,3.26,0,0,1,.46-.58,2.1,2.1,0,0,1,.63-.55c.2-.08.24-.4.5-.46.26.22.63,0,.87.14s.58,0,.85.12a4,4,0,0,0,.48.32,1.47,1.47,0,0,1,.77.59A8.17,8.17,0,0,0,17,46.75a3.091,3.091,0,0,1,.14.43c.12.22.08.54.36.66v1.51a2.17,2.17,0,0,1,.22,1.19c0,.18.1.36.1.56a5.67,5.67,0,0,1-.1.57.726.726,0,0,0,0,.24c.23.2.14.46.1.69s.1.48,0,.68a2.29,2.29,0,0,0-.1.77l-.6.5c-.49-.08-.41-.36-.22-.66a1.22,1.22,0,0,1-.21-.22c-.12-.31,0-.55-.14-.81s0-.51,0-.73a2,2,0,0,0,0-1.19l.12-.12-.24-.24V49a.91.91,0,0,0-.24-.74c0-.61,0-.63-.43-1s-.66-.59-1-.89c-.35.12-.69.28-1,0a3.239,3.239,0,0,0-.43.26c-.1.1-.16.26-.26.36a1,1,0,0,1-.42.19,2.1,2.1,0,0,1-.17,1,1.39,1.39,0,0,0,0,1.13c-.22.24-.12.48,0,.72a.53.53,0,0,0-.12.63,1.16,1.16,0,0,1,.1.62,7.85,7.85,0,0,1,0,1c0,.25.13.45,0,.69s0,.5-.12.73a.38.38,0,0,0,0,.36c.25.4.06.83.1,1.23a.762.762,0,0,0-.1.12,1,1,0,0,1,.06.91,1.13,1.13,0,0,0,0,.85c.15.24-.06.36-.06.44a1.4,1.4,0,0,1,.1.41c0,.42,0,.85,0,1.27a1.34,1.34,0,0,0,.09.26c0,.08-.09.16-.11.24a2.25,2.25,0,0,0,.13.81c0,.2-.07.45,0,.59s-.11.38,0,.58a5.411,5.411,0,0,1,.12.55,3.19,3.19,0,0,1,.12.6,1,1,0,0,0,.3.79h1l.26.24H15c.32.16.6.33.93.49s.56,0,.86.08a2.39,2.39,0,0,0,1.18-.06,3.35,3.35,0,0,1,1.09,0c.28-.14.48-.26.68-.35s.2,0,.22,0c.21.21.47.09.69.13a2.53,2.53,0,0,0,.55,0,1.27,1.27,0,0,0,.46-.06c.1-.07.3.06.46.06h1.52a2.53,2.53,0,0,1,.56.12,6.329,6.329,0,0,1,.73.14.23.23,0,0,0,.2,0h.06a.15.15,0,0,1,.1,0l.25.14a1.351,1.351,0,0,1,.22-.14l.75.38H27l.67.36a1.44,1.44,0,0,0-.53.85,6,6,0,0,0-.28.73v.91a3.63,3.63,0,0,1-.14,1.15c-.14.34,0,.69-.2,1s0,.56.08.85a2.169,2.169,0,0,1,0,.72,2,2,0,0,1,.1.69,3.078,3.078,0,0,1,.06.61.59.59,0,0,0,0,.32,1.67,1.67,0,0,1,.2.7c0,.25.12.49,0,.75a.63.63,0,0,0,0,.43c.22.6.14,1.25.34,1.85.1.31-.08.61-.14.87l-.48-.48a12.278,12.278,0,0,0-.12-1.27c-.06-.09-.21-.19-.23-.39a7.567,7.567,0,0,1-.1-.83v-.66a3.5,3.5,0,0,0-.12-.63c-.04-.22-.14-.3-.1-.42s-.16-.35,0-.59-.08-.44-.1-.66A.87.87,0,0,0,25.6,71a.53.53,0,0,0,.1-.12,1.11,1.11,0,0,1,0-.91,5.13,5.13,0,0,0,0-1.66,3.91,3.91,0,0,0-.28-.86,3.33,3.33,0,0,0,.32-1.26L24.89,66v.53l-.71.38-.34-.12c-.14,0-.36-.16-.42-.1s-.31,0-.47,0-.26-.16-.44-.12a.31.31,0,0,1-.37-.12c-.14.24-.24,0-.38,0-.64.14-1.25-.31-1.9-.23-.12-.16-.28-.1-.42-.12s-.38-.12-.47-.06-.32-.14-.4-.06-.26,0-.4,0l-.51.12a.51.51,0,0,1-.3,0c-.36-.2-.73-.08-1.11-.12s-.57.08-.77,0-.54,0-.81-.1a2.648,2.648,0,0,0-.66-.12l-.41.3a1,1,0,0,1,.13.16c-.06.21-.27.39,0,.59v.28c0,.1-.07.18-.09.26a1.55,1.55,0,0,0,0,.43.845.845,0,0,0,.09.46c.09.16-.07.22-.09.35a1.23,1.23,0,0,0,.06.22c0,.14.09.34,0,.44s-.07.3-.09.47-.06.4-.1.62a1.11,1.11,0,0,1,.12.16,1.25,1.25,0,0,0,0,1.13c0,.11-.1.19-.12.27s.06.4,0,.54a1.453,1.453,0,0,0,0,.51,11.18,11.18,0,0,0-.12,1.41c0,.18.08.42,0,.52s0,.31,0,.47a4.427,4.427,0,0,1-.14.6c-.02.12-.22.27-.32.41a2.6,2.6,0,0,1-.14-.51,3.61,3.61,0,0,1,.1-.38,1.7,1.7,0,0,0,.06-.46,2,2,0,0,0,0-.75,2.14,2.14,0,0,1-.1-.69,1.759,1.759,0,0,0-.12-1,.34.34,0,0,1,0-.28.38.38,0,0,0,.08-.48c-.16-.21.16-.35,0-.51a.35.35,0,0,1-.06-.08c0-.1.08-.16.1-.22l-.12-.14c0-.2.14-.41.08-.49a1.572,1.572,0,0,1-.1-.5v-1a2.31,2.31,0,0,0-.1-.81c-.11-.26,0-.63-.15-.91a.344.344,0,0,1,.06-.2,1.77,1.77,0,0,0,.15-1.25c-.09-.3-.15-.63-.21-.93a2.93,2.93,0,0,0-.34-1c-.06-.42-.12-.83-.18-1.27a1.66,1.66,0,0,1-.22-1.09,1.37,1.37,0,0,0-.1-.93.68.68,0,0,1,.12-.12c-.08-.22-.16-.45-.23-.59s.15-.46.07-.58a.93.93,0,0,1-.11-.57v-.66a.84.84,0,0,0-.22-.69c-.08.34-.16.69-.22.91s.14.46.06.58a1.21,1.21,0,0,0-.1.69v1.57a.76.76,0,0,0,.12.51.7.7,0,0,1,.12.48c0,.67,0,1.34,0,2a2.9,2.9,0,0,0,.1,1.17,1.57,1.57,0,0,1,0,.53c-.26.1,0,.28,0,.42a.66.66,0,0,0,0,.55c.1.18,0,.36.1.5s0,.26.06.43a2.35,2.35,0,0,1,0,.54c0,.16.11.32.13.51a3.84,3.84,0,0,1,0,.48c0,.1-.21.18,0,.34s0,.31,0,.47a3.84,3.84,0,0,1,0,.48,3.12,3.12,0,0,0,0,1,4.89,4.89,0,0,1,0,1.21,2.13,2.13,0,0,1-.13,1.24.28.28,0,0,0,0,.18c.31.85,0,1-.12,1.65.35.57-.12,1.11,0,1.64l-.24.08c-.06.32.06.62-.12.91l.54.38H13.2c.06-.06.14-.1.16-.18.12-.32.35-.61.24-1a1.4,1.4,0,0,0,.09-1.27,3.67,3.67,0,0,1,.28-.28A4,4,0,0,1,14,75c.06-.29.22-.55,0-.79.12-.22.3-.4.26-.67s-.16-.4-.1-.48,0-.42.12-.49-.12-.3.08-.36c-.12-.12-.1-.22,0-.38a1.11,1.11,0,0,0,.12-.79,2.27,2.27,0,0,1,0-1.21,2.32,2.32,0,0,0-.06-1.23c.22-.35-.12-.69,0-1.05l.85-.53.26.53h.24l.31.36v.81a1.45,1.45,0,0,1-.12.81c0,.08,0,.24,0,.28a.45.45,0,0,1,.08.44c0,.31.1.63-.12.93.06.43-.15.87.12,1.29a.27.27,0,0,1,0,.25c-.22.22-.1.5-.1.74s.08.45.1.69,0,.48,0,.73c0,.08.08.16.12.24a.53.53,0,0,0-.08.66c.2.27-.06.41-.06.57.16.24.3.48.44.71h.73l.42-.31A10.23,10.23,0,0,0,18,75.18a1,1,0,0,0-.08-.2,1.46,1.46,0,0,0,.1-.23,1,1,0,0,0-.15-.18,3.621,3.621,0,0,0,.13-.4c0-.4,0-.81,0-1.21,0-.16.1-.37-.08-.51a11.17,11.17,0,0,1,0-1.53,1.5,1.5,0,0,0,0-.73c-.05-.08,0-.2-.07-.28s.15-.28.07-.47a2.435,2.435,0,0,1-.09-.58,2.193,2.193,0,0,1-.2-.16c-.08-.24.06-.35.16-.47s0-.06,0,0a.93.93,0,0,0-.08-.34c.23-.44.71-.34,1-.63l.2.15a4.337,4.337,0,0,1,.49-.15,1.05,1.05,0,0,1,.54.25c.53-.29,1,.2,1.44,0l.58.42c-.26.3-.52.57-.26,1a.47.47,0,0,1,0,.46c-.18.21-.08.43-.1.63s.14.53.1.73a1.41,1.41,0,0,0,0,1,3,3,0,0,1,0,.6c0,.16-.08.37.1.51-.22.16.1.32,0,.5A1.33,1.33,0,0,0,22,74a2.12,2.12,0,0,1,.12.93c-.06.36.15.68.13,1.05v.54c0,.14.12.28,0,.45s.06.3.18.32a2.21,2.21,0,0,0,1.25.08c.1,0,.26-.08.32,0,.24.18.51,0,.77.1v-.94a1.09,1.09,0,0,0-.12-.56c.18-.19-.06-.37,0-.57a3,3,0,0,0,0-.6V73.52a1.82,1.82,0,0,0,0-.66c-.08-.2,0-.35,0-.51s-.08-.24-.1-.34c.1-.3.18-.59.26-.89l.14.14c.3,1.5.36,2.95.65,4.42a.49.49,0,0,0,0,.59,1,1,0,0,1,.14.6v.89a1.86,1.86,0,0,0,.06.45,4.14,4.14,0,0,0,.08.44,6.289,6.289,0,0,0,.61.39l.16.06a5.06,5.06,0,0,0,1.27.06,1.79,1.79,0,0,0,.34-.19c0-.16.18-.4.1-.48a1.143,1.143,0,0,1-.1-.57,11.851,11.851,0,0,1-.14-1.23c0-.12-.18-.3-.1-.42.26-.32-.08-.63,0-.93-.2-.14-.12-.36-.12-.54a3.56,3.56,0,0,0-.18-1,2.33,2.33,0,0,1-.12-.49c0-.14-.31-.24-.09-.42-.18-.14,0-.39-.12-.49s0-.22,0-.34-.12-.28-.08-.28c.23-.14-.08-.22,0-.35s-.16-.42-.08-.54-.06-.34,0-.53a3,3,0,0,0,0-.42,1.63,1.63,0,0,0,0-1.07.73.73,0,0,1,0-.36,6.449,6.449,0,0,1,.47-1,.79.79,0,0,0,.14-.37,2.44,2.44,0,0,1,.6-1.37.32.32,0,0,0,.1-.2,2.14,2.14,0,0,1,.69-1.07c.12.3.47.44.65.67v.26c.2.22.1.42,0,.64a5.69,5.69,0,0,0-.25.69c-.06.24.11.53-.12.73.27.18,0,.48.21.7a.57.57,0,0,1,0,.51.66.66,0,0,0-.09.44,2.1,2.1,0,0,1-.1.69c-.1.22.19.4.23.63v.06a7.45,7.45,0,0,0,.42,1.75,3.15,3.15,0,0,1,.38,1.88l.35.2c.06.18.1.35.14.47-.14.2-.24.48-.43.56s-.34.32-.52.43a2,2,0,0,0-.12.64,2.36,2.36,0,0,0,.22.63v.06c0,.28.18.52.2.75a3,3,0,0,0,.32.78h1.64a7.872,7.872,0,0,1,1-.14c.12,0,.22.2.4.06s.25.18.37,0c.42.26.89,0,1.33.14a1.74,1.74,0,0,0,.5.2h.73c.24,0,.45.1.69.1s.42.14.62,0a.09.09,0,0,1,.06.06c.35,0,.63-.16.93,0,.31-.22.67,0,1-.12a3.519,3.519,0,0,0,.2-.31s0,0,0-.08v-.4a3.63,3.63,0,0,1-.82-.45.91.91,0,0,1-.33-.46l-.46.16c-.14-.16-.24-.3-.45-.54a9.21,9.21,0,0,0,1.72-.1c.3,0,.77,0,.77-.57,0-.06.08-.12.1-.18-.16-.22-.28-.41-.4-.57H40c-.08-.26-.38-.28-.46-.46h-1.1a1,1,0,0,1-1.07.44,1.3,1.3,0,0,0-.57-.2,5.69,5.69,0,0,0-.91.3l-.06-.06-.2-.2v-.71a1.13,1.13,0,0,1-.32-.72l-.06-.24a.78.78,0,0,0-.08-.23c-.1-.2.12-.32.1-.48a1,1,0,0,0-.1-.51,1.06,1.06,0,0,1,0-1c0-.08.06-.24,0-.28a.841.841,0,0,1-.1-.44v-2a3.64,3.64,0,0,1,.1-.59s-.06-.06,0-.06a6,6,0,0,0,.18-.79c.06-.38-.08-.78.12-1.17v-.28c0-.04-.08-.34-.1-.5s.06-.35,0-.41c-.22-.24,0-.42,0-.62s-.1-.15-.14-.19c.26-.46.08-.94.14-1.43l-.2-.06c-.08-.16-.19-.34-.31-.56v-.65c-.18-.24-.34-.47-.5-.67s-.59-.18-.83-.26a4,4,0,0,1-.79.2,12.865,12.865,0,0,0-1.75-.12.15.15,0,0,1-.1,0c-.25-.24-.55-.16-.83-.2s-.73-.16-1.11-.26c-.08,0-.14-.1-.2-.08a3,3,0,0,1-1.18-.27,4.45,4.45,0,0,1-.88-.42c-.37-.08-.71-.16-1.07-.26s-.67-.23-1.11-.37c-.08-.12-.21-.32-.37-.54a1.56,1.56,0,0,0,0-1.35c-.28-.19-.24-.55-.42-.79a2.87,2.87,0,0,1-.18-.47h-.69v.06c-.24.09-.5.15-.67.21-.48.44-1.15.64-1.25,1.29-.24.06-.44.26-.64.12a1.46,1.46,0,0,0-.41-.44,1.87,1.87,0,0,0-.56-.17c-.06-.12-.1-.22-.16-.32s.1-.32.16-.48a2.69,2.69,0,0,0,.79-1,1.05,1.05,0,0,1,.18-.37c.32-.42.64-.84.95-1.31s.8-.87.84-1.53a.47.47,0,0,1,.45-.33c.06.35-.08.69.14,1-.32.41.08.71.14,1a3,3,0,0,1,.67.39,2.42,2.42,0,0,0,.84.44c.35.1.67.22,1.1.36a1.09,1.09,0,0,1,.48.06,1.2,1.2,0,0,0,.75,0h.12c.32.21.54,0,.87-.18a1,1,0,0,0,.9-.38c0-.06.15-.06.21-.12a3.6,3.6,0,0,1,.54-.31.91.91,0,0,0,.43-.34c.08-.16.32-.26.48-.38v-.55a1.91,1.91,0,0,0,1.11-.14.34.34,0,0,1,.12.12c.34-.22.75-.3,1.07-.54.1-.08.26,0,.49-.08.06-.08.18-.21.24-.31.24-.06.42-.12.66-.2a4,4,0,0,1,1.07-.75c.33-.14.73-.34.79-.7a5.09,5.09,0,0,1,.59-.37c.16-.06.28-.28.5-.16-.4.65-.4.65-.7.73a.93.93,0,0,0-.17.71l.39.54v-.93a1.13,1.13,0,0,1,.2,0,3.41,3.41,0,0,0,.12,1.11c.08.17,0,.39.06.59a.82.82,0,0,1,0,.48.57.57,0,0,0,.06.45c.16.22-.06.36-.08.52a1.47,1.47,0,0,1,.12,1.46q.074.124.16.24c.11.6-.08,1.17.15,1.7a.53.53,0,0,1,0,.46c-.19.22-.11.46-.11.69v3.63c0,.61.11,1.17.15,1.68l-.29.58c.08.18.23.32.25.51v1.41a3.5,3.5,0,0,0,.12,1.47.13.13,0,0,1,0,.12c-.25.23-.06.51-.12.71a.85.85,0,0,1,.22.77,1.84,1.84,0,0,0,.1,1.41,2.89,2.89,0,0,0,.38,1c.08.12,0,.32.16.49a1.028,1.028,0,0,1,.21.44c.06.14.08.1.12.16a6.42,6.42,0,0,1,.72.93c.08.14.19.28.29.42a3.21,3.21,0,0,0,1-.24c.28.2.64,0,.92.28.39-.48,1-.54,1.46-.76.2-.1.38-.18.46-.39a1.55,1.55,0,0,1,.59-.7.46.46,0,0,0,.34-.16.74.74,0,0,1,.53-.37c.24-.08.54-.06.68-.36l.1.1.41-.2.08.08a1.75,1.75,0,0,1,.48-.3,8.6,8.6,0,0,0,1.6-.75,1,1,0,0,0,.52-.53,2.12,2.12,0,0,1,.24-.4,1.1,1.1,0,0,0-.36-1.07,11.19,11.19,0,0,0-.24-3.27,1,1,0,0,1,0-.49,2.22,2.22,0,0,0,0-1.35.28.28,0,0,1,0-.18c.2-.28.08-.61.12-.93a4.5,4.5,0,0,1,.1-.44,1.211,1.211,0,0,0-.14-.2c.06-.09.1-.17.14-.19a2.41,2.41,0,0,1-.1-.46,1.26,1.26,0,0,1,0-.67c.1-.22,0-.38,0-.56a7.69,7.69,0,0,1-.1-.85,3.23,3.23,0,0,0,0-.44c0-.19.08-.37.1-.57a2.94,2.94,0,0,0,0-.42c0-.15-.06-.31.06-.47s-.06-.22-.06-.34v-.59a1.7,1.7,0,0,0-.06-.46c-.06-.16.14-.24.06-.41a1.7,1.7,0,0,1-.06-.46V54c.22-.26.08-.57.12-.87,0-.1-.06-.2-.06-.28a.93.93,0,0,1,.06-.34,2.39,2.39,0,0,0,.12-1c0-.19-.08-.41.1-.57s0-.12,0-.18c-.22-.36-.06-.77-.16-1.11l-.14-.26c-.14.06-.2.14-.3.14a2,2,0,0,1-.35,0l-.24.4c0,.08.12.2.08.24a3.11,3.11,0,0,0-.12,1.15l-.26.19a9.062,9.062,0,0,0,.12,1,2.54,2.54,0,0,0-.2.24c.06.14.16.28.12.34-.24.41,0,.89-.22,1.31a.684.684,0,0,0,.06.33,2.19,2.19,0,0,1,.18,1,7.79,7.79,0,0,0-.12,1,9,9,0,0,0,.1,2.07,6.7,6.7,0,0,1,0,1.1c0,.34.24.7,0,1a.13.13,0,0,0,0,.12c.22.26,0,.58.12.84a2.94,2.94,0,0,1,.12.93v1.27c.26.19,0,.57.24.75,0,.35.11.71-.12,1,.2.2.06.49.14.69a.51.51,0,0,1-.08.7l.43.37a1.62,1.62,0,0,1,0,.3c-.35-.06-.49.12-.61.4a1.72,1.72,0,0,1-.42.55c-.18.2-.41.4-.61.61a3.718,3.718,0,0,0-1.47.58s-.06-.06-.06,0c-.26.08-.61.06-.63.4-.34.15-.56-.16-.87-.22-.1.18-.16.41-.44.39a.42.42,0,0,0-.22.16c-.35.64-1,1-1.42,1.53-.32-.14-.6.1-.86,0a2.49,2.49,0,0,0-.83-.12l-.79-.63V71a7.68,7.68,0,0,1-.46-.63,3.81,3.81,0,0,0-.12-1.35c.08-.24-.15-.44-.13-.69a4.33,4.33,0,0,0,0-.72,1.88,1.88,0,0,0-.12-.39c.35-.32-.1-.56-.12-.86a.87.87,0,0,0,.12-.14c-.28-.19-.06-.37,0-.47-.08-.42-.12-.75-.2-1.11a2.87,2.87,0,0,0,.22-1c0-.1-.1-.2-.1-.32V62.05c0-.42-.08-.85-.12-1.3a9.879,9.879,0,0,1,0-1.09,2.17,2.17,0,0,0,0-.36,1.63,1.63,0,0,1,0-1.07c0-.2.1-.44-.08-.59.16-.24.06-.5.12-.8l-.16-.1a1.549,1.549,0,0,0-.08-.41c.16-.16.1-.4.12-.62V55c.28-.2,0-.42,0-.57a1.18,1.18,0,0,1,.08-.12c-.08-.64-.18-1.15.12-1.57a4.91,4.91,0,0,1-.1-1.25.332.332,0,0,1-.16-.31,2.31,2.31,0,0,0-.06-.52,5,5,0,0,1,0-.55l.58-.3c0-.1.11-.22.15-.34a.76.76,0,0,1-.09-.73c.29.16.27.16.33.32.12.35.16.73.42.93a2,2,0,0,0-.06.41c.06.22.32.16.47.22s0,.14.06.22a1.8,1.8,0,0,1,.22-.44,2.45,2.45,0,0,1,.46-.31,1.7,1.7,0,0,0,1-.18.29.29,0,0,1,.41,0L43,49.46c0-.41-.06-.77.18-1.05.51-.22,1-.45,1.52-.69l-.25-.24.37-.26c-.12-.12-.22-.25-.37-.39H44c-.53.63-.87,1.38-1.7,1.66a3.48,3.48,0,0,0-.28-.24l-.58.4H40.9a2.08,2.08,0,0,0-.06.24l-.56-.08a.184.184,0,0,1-.05.16,2.74,2.74,0,0,0-.46-.4h-.22a.12.12,0,0,0,0-.08,1,1,0,0,1,.24,0h0a.27.27,0,0,1,.14-.26h0a.15.15,0,0,1,.1,0,2.13,2.13,0,0,1,.45-.13l.12.13a.46.46,0,0,1,.1-.21.76.76,0,0,1,.5-.26.12.12,0,0,0,.08,0,.82.82,0,0,1,.23,0c.36-.61,1-.44,1.51-.48s.49-.55.69-.85a4.48,4.48,0,0,1-.39-.53,4.271,4.271,0,0,1-.2-.7,2.38,2.38,0,0,0-.75-.31c-.32,0-.46-.34-.74-.38h-.18a.81.81,0,0,1-.57-.32c.06-.31.12-.59.16-.85a1.14,1.14,0,0,1,.49-.14c.46,0,.82-.31,1.27-.33a.51.51,0,0,0,.5-.24.25.25,0,0,1,.21-.06c.24.14.46,0,.68,0a1,1,0,0,0,.47-.14l.24-.24a2.84,2.84,0,0,1,.22.36c.1-.3.36-.34.46-.52s.21-.41.37-.69a5.3,5.3,0,0,0,.12-1.39,3.68,3.68,0,0,1,.38-.77,1.46,1.46,0,0,0,.35-.77,1.39,1.39,0,0,1,.38-.74,2.4,2.4,0,0,1,.75-1.82.351.351,0,0,0,.16-.06l.24.22a1.27,1.27,0,0,0-.16.22,4.15,4.15,0,0,0,.2.53c-.18.16-.06.36-.1.56s-.12.39-.06.53-.06.26,0,.42a1.937,1.937,0,0,1,0,.59v.62c.42-.06.79-.12,1.15-.16s.75,0,1.27,0c-.28.2-.5.28-.58.45a.54.54,0,0,1-.43.28,1.36,1.36,0,0,0-.74.24,7.87,7.87,0,0,1-.75.4c.08.23.14.43.22.65l-.22.18a2.33,2.33,0,0,1-.08.59c-.06.18.08.34.06.52a1.37,1.37,0,0,1-.4.91,5.406,5.406,0,0,0,.16.87,2.34,2.34,0,0,0-.27.2v.75l-.28.1a1.65,1.65,0,0,1,.12.32c.06.26.31.55.12.81a1.4,1.4,0,0,0-.18.89.51.51,0,0,0,.08.38c0,.06-.1.24-.08.36s.1.53.14.79l.91-.62a10.94,10.94,0,0,0,.24-2.45l.25-.24s-.06-.06-.06-.08a4.58,4.58,0,0,0,.18-.73c0-.26.34-.38.28-.68,0-.06.12-.14.2-.2-.3-.39.16-.61.18-.91.19,0,.39.06.51-.14a2.861,2.861,0,0,0,.1-.29c-.18.2-.32.08-.46.14s-.29-.1-.47-.16c.06-.16.12-.28.14-.34l.61-.2.64-.18.35-.65c-.18-.36.3-.77,0-1.17C51.3,39.5,51.48,39.24,51.4,38.9ZM37,33.27l-.36.22.06.06h-.36l-.43-.43a5.58,5.58,0,0,1,.17-.86A3,3,0,0,1,36.4,32c.22,0,0,.37.28.47s.24.26.34.42A2.93,2.93,0,0,1,37,33.27Zm1.4,0c-.18-.19-.31-.29-.47-.45.1-.2.18-.4.31-.65l.38.11C38.88,32.74,38.46,32.9,38.4,33.27Zm.32-1.78a1.42,1.42,0,0,0,0-.3l.36-.21c.45.25.45.25.49.65C39.25,31.59,39,31.55,38.72,31.49Zm1.74,1.43a.93.93,0,0,0-.19-.14c-.28.28-.54.14-.82,0,.08-.38.14-.77.2-1.11l.52.53a.19.19,0,0,1,.08-.07c0,.15,0,.31,0,.45l.26-.14c.21.22.15.36-.05.48Zm.2-.62-.24-.25v-.52l.16-.16c.12.24.22.48.36.76-.1.07-.2.11-.28.17Zm.71-.47.06-.12a4.777,4.777,0,0,0-.09-.63c.13-.18.25-.32.37-.52.18.28.32.52.5.81a.92.92,0,0,1-.3.85h-.22c-.08-.11-.2-.22-.32-.39Zm-9.13,1.6h0v-.12h0Zm-22,14.17a3.289,3.289,0,0,0-.08-.34,3.06,3.06,0,0,1,.31.3,1.241,1.241,0,0,1-.18.04Zm1.54,18.25h0Zm1,11.15c-.18,0-.18.16-.26.3-.09-.24-.15-.45-.21-.61.14-.2.25-.34.37-.52.1.16.18.32.28.48.04.12-.02.35-.1.35Zm4.28-3.15a.51.51,0,0,1-.06.28c-.2.46-.2,1-.39,1.53a15.53,15.53,0,0,1-.36-2.2,2.289,2.289,0,0,1,.2-.4A3.31,3.31,0,0,1,16.61,72a2,2,0,0,1-.06-1.17V68.62c0-.4-.06-.77-.1-1.21l.59-.23v3.07c0,.18.08.39-.1.57s0,.18,0,.28.08.14.08.2a6.73,6.73,0,0,0,.1,1.27.64.64,0,0,1-.1.67c.22.16.1.38.12.61Zm.38-3.44ZM24,68.84c-.1.12,0,.38,0,.58a2.47,2.47,0,0,1,0,.67,1.52,1.52,0,0,0,0,1.07c.06.14-.12.36-.2.57a1.82,1.82,0,0,1,.12.8,2.08,2.08,0,0,0,0,.61c.06.2-.32.38,0,.56-.28.21.08.37,0,.57a2.561,2.561,0,0,0-.1.34c-.04.12.08.37.12.57-.32.06-.46.24-.34.67a5.579,5.579,0,0,0-.45-.33l.29-.28L23,74.63q.015-.3,0-.6a2.86,2.86,0,0,0-.2-.53c0-.12-.08-.32,0-.38s.08-.34.1-.51a3,3,0,0,0-.28-1.45,1.91,1.91,0,0,1-.08-.42v-.16a1,1,0,0,1,.12-.47L22.47,70a.87.87,0,0,0,.12-.14,2,2,0,0,0-.14-.3l-.14-.25a4.54,4.54,0,0,0,.52-1.75.6.6,0,0,1,.26,0c.27,0,.49.2.75.24.06.1.1.2.16.3s-.08.16-.1.24S24.2,68.58,24,68.84Zm.79,1.76h-.06v-.21h.1Zm14.29,5v.33H38.8c-.08-.11-.18-.21-.28-.33ZM18.21,54.69v.66c-.14.2-.26.39-.43.61a.91.91,0,0,1-.32-.69Zm-1.86-.31h0v.12h0ZM14,59.92a2.31,2.31,0,0,1-.49,1c-.32-.08-.12-.38-.22-.56a5.088,5.088,0,0,0-.34-.47l.22-.42a2.31,2.31,0,0,0-.12-.56c-.1-.19,0-.33,0-.47a2.68,2.68,0,0,0-.06-1,1.16,1.16,0,0,1-.06-.79,2.41,2.41,0,0,0,0-.66V54.84c0-.38-.14-.73.1-1-.22-.27-.08-.57-.1-.85s0-.61,0-.91a2.613,2.613,0,0,0-.12-.63,3,3,0,0,0-.1-.56,1.81,1.81,0,0,1,.14-1.19c.1-.28,0-.59.2-.83a2.79,2.79,0,0,1,.32-1.15c.16.36.26.61.37.85a.48.48,0,0,1,.18,0l-.08-.1c.16-.33.3-.63.5-1,.06.18.08.32.12.46l.14-.12v.57a4.26,4.26,0,0,1,.63,2,2.57,2.57,0,0,0,.12.55c0,.16-.08.36.08.5a.21.21,0,0,1,0,.1,4,4,0,0,0-.1.67c0,.18.26.38,0,.57a2.26,2.26,0,0,0,.12,1.09,3.15,3.15,0,0,1,.37,1.53,3.35,3.35,0,0,1-.11.53.53.53,0,0,0,.13.16c-.15.26-.27.5-.41.72H15a4.06,4.06,0,0,0-.28,1.52c-.25.18-.49.38-.73.58C14.29,59.17,14,59.55,14,59.92Zm2.66,3.43c-.4.28-.76-.18-1.13,0-.18-.35-.46-.61-.14-1,.42-.18.67.3,1.05.2l.06.22a9.18,9.18,0,0,1,2.22.53,1.74,1.74,0,0,1-2.11.05Zm14,8.28a1,1,0,0,0-.28-.89,1.91,1.91,0,0,0,0-1.52,3.605,3.605,0,0,0-.1-.38,1.46,1.46,0,0,0-.1-.63c-.08-.12,0-.34,0-.5a3.549,3.549,0,0,0,.06-.47c0-.1.22-.2,0-.34a2.486,2.486,0,0,0,.1-.3c.1-.32.18-.65.28-1,.19.14.31.26.41.34,0,.28-.06.53-.08.79a3.207,3.207,0,0,1-.12.67c-.19.64-.25.48,0,1.11a.73.73,0,0,1,0,.28.76.76,0,0,1-.12.26.25.25,0,0,0,0,.12c.14.45.16.93.34,1.37a.49.49,0,0,1-.08.27c-.22.48-.22.48,0,.93.08.36.12.6.18.9-.3-.33-.3-.73-.57-1.01Zm6.55,4.22h0Zm-.83-.15h.06v.21h-.1Zm-.41.08v.25h-.6c.18-.31.36-.16.52-.25Zm-.16,1.38c.08,0,.14.14.24.24h.59a1.64,1.64,0,0,0,1.09.38,1.755,1.755,0,0,1-.1.41l-.16.06A2.67,2.67,0,0,1,36.06,78a4.28,4.28,0,0,0-1.94-.44,3.75,3.75,0,0,1-.67,0,1.47,1.47,0,0,1-.58-.06,1.61,1.61,0,0,0-.61-.06,3.73,3.73,0,0,0-.57-.34,3.28,3.28,0,0,0-.5-.17c0-.08,0-.12,0-.16s.06,0,.08,0a1,1,0,0,0,.65.21c.32,0,.62.16,1,.14a1.86,1.86,0,0,1,1,.06,1.937,1.937,0,0,0,.4-.1.63.63,0,0,1,.32-.08,5.06,5.06,0,0,1,1.09.16Zm-4.3-11c.12-.26.22-.54.37-.8,0-.06.2-.06.3-.1.2.44.5.82.18,1.33a1.32,1.32,0,0,1,.08,1.07,1,1,0,0,0,0,.83c.08.14-.06.36.14.48a.53.53,0,0,0-.06.65.51.51,0,0,1,0,.54,3.41,3.41,0,0,1,.08.61.5.5,0,0,1-.1.38.4.4,0,0,1,.12.36,3.37,3.37,0,0,0,.1,1,3.88,3.88,0,0,1,.16.85.88.88,0,0,0,.39.73c-.08.1-.12.16-.16.22v.75a2.391,2.391,0,0,0-.31,0c-.2.2-.44.4-.72.68,0-.16,0-.26-.06-.32s.16-.34,0-.58,0-.43,0-.65v-.67a3.92,3.92,0,0,0-.19-1,4.83,4.83,0,0,1-.18-1.19.47.47,0,0,1,.1-.2l-.2-.13c0-.06.06-.12.1-.22-.08-.57-.38-1.11-.06-1.7a8.46,8.46,0,0,0-.08-1.41,1.92,1.92,0,0,1,.08-1.33ZM33.35,76l-.3.06a1.271,1.271,0,0,0,0-.18l.08-.09Zm-.44,0-.25.12V76h.25Zm-.53.16h-.2V75.8c.1.2.14.27.2.37Zm2.22-1.25c-.06.1-.12.2-.18.32-.18-.23.04-.23.18-.31ZM33.51,64.3v-.79c.14-.18.26-.36.41-.55L34,63a2.524,2.524,0,0,1-.15.63l.35.2c.12.47-.1.93.14,1.38a10.158,10.158,0,0,0-.26,1.15,1.872,1.872,0,0,1-.08.32c-.02.1.08.48-.1.69a1.26,1.26,0,0,1,.08.72,4.45,4.45,0,0,0,0,.73,4,4,0,0,1,.1,1.29,1.334,1.334,0,0,1-.12.87v.12a7.83,7.83,0,0,1,.12,1.53c0,.11.1.21.14.31-.18.2-.28.42-.61.36a5.19,5.19,0,0,1-.28-1.13,10,10,0,0,1-.12-1.33c-.2-.16,0-.3,0-.45s-.2-.2,0-.4a.49.49,0,0,0-.08-.61.87.87,0,0,0,.12-.14c0-.18-.28-.36,0-.56a.29.29,0,0,0,0-.22c-.26-.15,0-.35-.1-.55s0-.42,0-.65a4.231,4.231,0,0,1,.12-.56c.02-.2,0-.4,0-.61a5.32,5.32,0,0,1,.06-.56,2.45,2.45,0,0,0-.16-.93A4.161,4.161,0,0,1,33.51,64.3ZM32.76,61l.59.18c.12.52-.38.62-.71,1-.1-.29-.2-.53-.28-.77A3.075,3.075,0,0,0,32.76,61Zm-.22,2.64a1.54,1.54,0,0,1-.54.89h-.16L31.25,64h0c.16-.16-.18-.28-.06-.44a1.31,1.31,0,0,1,.36-.3,1,1,0,0,1,.99.41ZM21,57.41v.37c-.1-.19-.14-.27-.2-.37Zm-.26,1.76c.06-.14.14-.3.22-.49a1.62,1.62,0,0,0,.89-.72,2.3,2.3,0,0,0,.26-.49v-.06a5.16,5.16,0,0,0,.49-1.25.087.087,0,0,1,.06-.08h.26a6.82,6.82,0,0,1-.28,2.38,3.24,3.24,0,0,1,.12.37,2.2,2.2,0,0,1,.55.12l.08-.08a6.94,6.94,0,0,0,2.22.48,1.15,1.15,0,0,1,.58.16,2.26,2.26,0,0,0,1.42.3,1.38,1.38,0,0,0,1,.49,7.4,7.4,0,0,0,2.48.24c.16.12.28.22.44.32a2.241,2.241,0,0,1-.16.51,2.539,2.539,0,0,1,.2.24c-.18.16-.32.32-.48.47s-.36,0-.57.16-.28-.06-.44-.1a1.12,1.12,0,0,1-.16.1c-.31-.08-.59-.16-.91-.27-.1.09-.18.19-.28.27-.59-.06-1.17-.1-1.86-.18a1.28,1.28,0,0,1-.1-.17c-.67-.1-1.21-.3-1.8-.4s-1-.54-1.69-.48l-.23-.23h-.3c-.2-.12-.36-.24-.56-.38-.25,0-.57.06-.73-.16s-.41-.22-.59-.34-.54,0-.85-.19a5.51,5.51,0,0,1,.73-.54Zm-.34,2c.2,0,.44.22.58.16s.41.08.59.1a6.719,6.719,0,0,0,.69.1,1.648,1.648,0,0,1,.38.12,11.14,11.14,0,0,1,2.22.49c.32-.08.61.12.91.12a1.08,1.08,0,0,1,.54.2c.12.04.39-.1.45,0a.38.38,0,0,0,.44.08,1.15,1.15,0,0,1,.93.18c.16.08.28.12.42,0l.39.2.42-.22a1.51,1.51,0,0,0,.87.26,4.65,4.65,0,0,1,.91.23c-.26.2-.47.32-.57.4l-.54.08a4.66,4.66,0,0,1-.53,0,2.94,2.94,0,0,1-.2-.26,4.34,4.34,0,0,0-1.33.12,2.18,2.18,0,0,0-1.37-.2L26.42,63c-.08.08-.1.13-.14.13a9.209,9.209,0,0,1-1.09.16c-.22,0-.46-.08-.68.1a.27.27,0,0,1-.25,0,5.7,5.7,0,0,0-1.65-.12,4.5,4.5,0,0,1-.65-.1l-.1.08a1.27,1.27,0,0,0-1.31-.12l-1.09-.47a1.61,1.61,0,0,1-1.05-.28v-.26l-.34-.35a.81.81,0,0,0,.1-.18L17.7,61a1.55,1.55,0,0,1,.14-.29,1,1,0,0,1,.59-.16,3.45,3.45,0,0,1,1.11.45,6.871,6.871,0,0,1,.87.17Zm-1.33-3.35c0,.06.1.1.14.16s.28-.06.44-.12v.68c-.12.16-.24.35-.36.53h-.53a2.91,2.91,0,0,0-.32-.18l.73-.63c-.33-.3-.51,0-.73,0a.62.62,0,0,0-.55.26c-.16.16-.3.33-.46.47a7.955,7.955,0,0,1-.65.46,5.14,5.14,0,0,0-.7.91c-.18.38-.69.48-.75.95-.34.24-.44.68-.77.93l-.28-.35c.06-.3.12-.64.18-1v-.12a1.59,1.59,0,0,1,.57-1,1.94,1.94,0,0,1,1.45-2.24c.26-.26.45-.44.61-.62l.24.16.32-.38h.47l.06.18.89.18c.15.42.15.42.01.77Zm-.43-3.9c-.14,0-.24.28-.36.42-.34-.42-.1-.78.12-1.21l.71.18c-.11.25-.11.51-.46.61Zm1.29-.24c.06-.14.17-.33.31-.61a.351.351,0,0,0,.06.24Zm.47-.65h-.06a.71.71,0,0,1,0-.2.18.18,0,0,0,.1,0Zm.1-.34h-.18v-.22h.22Zm.5-.51h-.2v-.46H21Zm0-1.47a3.44,3.44,0,0,1-.36-.26c.06-.16.12-.29.16-.39.28-.06.53-.12.79-.16.08,0,.16.08.28.14a3,3,0,0,1-.87.67ZM34.14,35.12h.06v.24h-.06Zm-.51-.83h.06a.86.86,0,0,1,0,.21.18.18,0,0,0-.1,0ZM33.43,36h.24l.37.57c-.25.38-.63.52-1,.86C33.19,36.84,33.31,36.41,33.43,36Zm-.36,1.9a3.58,3.58,0,0,1,.36.28,1.82,1.82,0,0,1-.24.22c-.19-.13-.19-.27-.12-.53Zm.28,6.36v.2h-.06v-.2Zm-3.27,3.13c-.3-.14-.3-.47-.44-.71.1-.22.18-.46.3-.75h.34l-.3-.36h-.2v-.48c-.12-.17-.21-.29-.31-.41l.06-.06.23.1a.266.266,0,0,1,.18.12,1.74,1.74,0,0,0,1.19.47,3,3,0,0,0,.6,0,6,6,0,0,1,.61.1c.08.14.14.26.22.38a1.4,1.4,0,0,0-.12.18.84.84,0,0,0,.16.19,2.39,2.39,0,0,1-.44-.1c-.14-.02-.28.12-.59,0l-.26-.12a.13.13,0,0,0-.12,0c-.18.21-.38-.1-.57,0l-.16.17c.33.3.57.7,1.17.76a1.37,1.37,0,0,1,.29-.08l.38-.12c.22.12.44.24.73.38a3.47,3.47,0,0,1-.43.43c-.18.1-.38.26-.58.16a4.42,4.42,0,0,0-1.94-.28Zm1.45,1-.26.1-.54-.12a1,1,0,0,1-.37-.57h.55l.2.24h.26c.06.11.1.21.16.31v.06Zm-1.75-2.63v-.12h0Zm-.43-3c.33.09.26.37.39.53l.68.42a3.41,3.41,0,0,1,1,0,3.85,3.85,0,0,1,.73.19c.16.14.32.28.5.42l-.44.32-.12-.12a2.58,2.58,0,0,0-.12.24H31.5a5.32,5.32,0,0,0-1.5-.9V44a5.93,5.93,0,0,0-.61-.25c.06-.12.08-.18.1-.22a6.969,6.969,0,0,1-.14-.76Zm0-3.37.2.2c.11-.16.15-.4.49-.34.1.08.24.22.36.34a1.33,1.33,0,0,1,1,.73l.53.18c.08.55.7.67,1,1.13v.23l-.31.3h-.06a2.31,2.31,0,0,1-1.92-.77c-.48-.42-1-.77-1.47-1.23l-.12-.12h.06c-.08-.16-.18-.32-.26-.47a2.11,2.11,0,0,1,.52-.17Zm-1,1.17h.29c0,.43.44.53.68.79a3.15,3.15,0,0,0,.85.67,5.65,5.65,0,0,1,.85.7h.38l.22.55a7.59,7.59,0,0,1-1.87-.81,9.23,9.23,0,0,0-1.28-.95s-.1-.12-.14-.1c-.32.06-.38-.2-.46-.36a4.5,4.5,0,0,0,.47-.48Zm.27,3.64v.12h-.05V44.2Zm-3.7-2.49a3.72,3.72,0,0,0,.42-.56,1.72,1.72,0,0,1,.59-.61,3.49,3.49,0,0,0,.59-.56h.38l.18.18v.32L25.92,41c-.18.5-.38,1-.57,1.55.17.18.27.43.51.57a.49.49,0,0,1,.24.36,1.3,1.3,0,0,0,.43.79c-.06.12-.15.24-.21.38-.94-.44-1-.48-1.05-.81l-.3-.26c-.06-.36-.12-.6-.16-.89s.4-.6.1-.97Zm2,4.28a5.29,5.29,0,0,1-.53.31,4,4,0,0,0-1.29-.77c-.08,0-.16-.1-.24-.12a1.11,1.11,0,0,1-.67-.3c-.12-.12-.28-.21-.4-.31-.08-.26-.16-.52-.24-.8h0v-.55h.34c.1.2.18.43.3.65l1.26,1h.2l.34.34h.75a2.86,2.86,0,0,1,.3.36s-.04.2-.13.2Zm-4.22,4h-.06v-.24h.06Zm.61.73h0V50.6h0Zm-.49-1.33-.32-.37a1.716,1.716,0,0,1,.22-1.25c.4.2.3.69.59,1s.8.22,1.05.59l.78.16.12-.12h0a.547.547,0,0,1-.1.08h0a1.49,1.49,0,0,0,1.25.62,4.64,4.64,0,0,0,1.24.49,2.64,2.64,0,0,1,.66.36c-.06.1-.12.18-.2.3L27.8,51c-.35.26-.67-.08-1,0a3,3,0,0,1-1-.24c-.1-.12-.26-.3-.38-.47H25a.84.84,0,0,0-.08-.2,1.3,1.3,0,0,1-.46-.18H24.4a.46.46,0,0,1-.13-.08.7.7,0,0,0-.4-.1c-.43-.03-.72-.33-1.06-.31Zm4.75,0ZM24,50.26v.13h0Zm4.26,1.64H28.2c-.71-.08-1.41.14-2.12.12a4.19,4.19,0,0,1-.64-.1l-.13.1-.64-.48a2.24,2.24,0,0,1-.37,0,1.65,1.65,0,0,1-.36-.14c-.08.36.38.38.34.64l1.5,1a2.661,2.661,0,0,0-.24.32.77.77,0,0,1-.27-.06,2.28,2.28,0,0,0-.84-.32,1.86,1.86,0,0,1-1-.52c.1-.21.2-.41.32-.63-.06-.08-.16-.16-.22-.24,0-.28.26-.28.46-.3V50.5a1.549,1.549,0,0,1,.47.12l.36.38c.44.14.81.24,1.25.39l.16.16a4.15,4.15,0,0,1,1.3.12c.28-.12.28-.12.72,0a.39.39,0,0,1,.03.23Zm.39-2.79a.924.924,0,0,0-.33.06c-.18.06-.12-.24-.18-.38a.547.547,0,0,1-.1.08v-.66c0-.22.18-.27,0-.47s0-.32,0-.46a1.15,1.15,0,0,0-.2-.45c-.12-.14.2-.26,0-.38.08-.38-.26-.67-.28-1a6.87,6.87,0,0,0-.21-.87,4.24,4.24,0,0,1,0-.87c-.1-.16-.16-.3-.24-.42s0-.12-.06-.16-.48-.22-.56-.55a2.19,2.19,0,0,0-.33-.6,3.735,3.735,0,0,1,.16-.67l.51-.36c.69.26,1.17.6,1,1.37l.38.48v.39l.22.22a2.17,2.17,0,0,1,0,.36v.31a.92.92,0,0,0,.12.5c0,.12-.1.24-.14.34l.39.59c-.16.52.24,1,.24,1.57.1.11.22.21.38.37-.06.28-.12.6-.18.95a3.26,3.26,0,0,0-.38-.18c-.12.22-.22.46-.33.68.05,0,.07.06.11.08l.46-.3c.05.45-.03.53-.43.43Zm1.41.87a1,1,0,0,1-.14.12.38.38,0,0,1-.16,0,3.78,3.78,0,0,1-.21.45c-.48.14-.4-.43-.68-.53v-.44l.79-.32.4.24Zm5.15-.81c-.33.19-.63.35-.95.51-.43.34-.75.63-1.11.93-.37-.08-.61.24-1.07.34-.12,0-.41.14-.63-.12a2,2,0,0,1-1.33.24v-.32l.87.12a1.07,1.07,0,0,1,1.11-.38l.24-.25h.3l.55-.36h.5a1.55,1.55,0,0,1,.19-.24h.36v-.18l.38-.18a.31.31,0,0,0,.12-.09c.14-.1.18-.32.43-.36a.78.78,0,0,0,.18.08.75.75,0,0,0,.22,0v.2ZM37,48.69h0v-.12h0Zm-1-.79a3.37,3.37,0,0,1,.18.49c-.45-.39-.77,0-1.11-.06a3.45,3.45,0,0,1-.21.32,1.48,1.48,0,0,0-.3.16,2.23,2.23,0,0,1-1,.36h-.18c-.06,0-.22.17-.34.23s-.22,0-.33.08-.22-.12-.3,0a3.171,3.171,0,0,0-1.21.46c0,.14-.06.26-.08.45-.08-.23-.12-.39-.18-.55s.1-.3.16-.5a2,2,0,0,0,.28.12c.32-.18.75-.12,1.11-.39a10.27,10.27,0,0,1,1.13-.46A8.729,8.729,0,0,0,34.7,48h.08l.45-.44a1.57,1.57,0,0,0,.28,0l.71-.71c.26.12.52.27.82.43A2,2,0,0,0,36,47.9Zm4.28,1.4h0v.12h0Zm5.77-13h0a.33.33,0,0,1,.16-.3h0a.07.07,0,0,1,.06,0,1.86,1.86,0,0,1,.1.2l-.38.2h0a.43.43,0,0,0-.08.11v-.05Zm-8.82,10v-.6a1.29,1.29,0,0,0,.16-.18h.38c.16.28.53.34.65.67l-.14.28a.73.73,0,0,1-1.01-.14Zm1.49,1.77c0-.26-.22-.32-.36-.38a.94.94,0,0,1-.67-.67,3.92,3.92,0,0,1,.81.21c.24.14.5,0,.73.12a5.16,5.16,0,0,0,.16.52,3.311,3.311,0,0,1-.63.23Zm3-1.19-.26-.26a3,3,0,0,1-1.84-.58l-.36.06a1.06,1.06,0,0,1,.44-.47c.28.24.73.14,1,.45l1,.18c.06.16.1.32.16.5a.66.66,0,0,0-.11.15Zm-.59-1.73.29-.06a.78.78,0,0,0,.72,0c.08.12.31.18.29.46-.33,0-.67.12-1-.16l-.21.16c-.14-.06-.3-.06-.46-.12l-.16-.06a1.1,1.1,0,0,1-.18-.14,3.48,3.48,0,0,0-.81-.49,2.891,2.891,0,0,0-.22-.6,19.782,19.782,0,0,1,1.77,1.04Zm4.28-3.52h0v-.12h0Zm.77-4.52a1.31,1.31,0,0,1-.4,1.13,3.75,3.75,0,0,0-.57,1.27,5.7,5.7,0,0,0-.14.65c-.3,0-.42.32-.71.44,0,.27-.24.29-.34.31a2.94,2.94,0,0,0-1.76,1l-.76.18c-.12.18-.39.26-.41.52-.14.06-.32.08-.4.18a3,3,0,0,1-1.21.85.756.756,0,0,1,.28-.66l-.12-.19c.12-.26.48-.36.38-.72.41-.08.55-.43.73-.71a.82.82,0,0,1,.4-.38,1.55,1.55,0,0,0,.51-.37,3.42,3.42,0,0,0,.4-.36,4.32,4.32,0,0,1,.89-.77c.18-.12.24-.38.42-.42s.27-.26.39-.38a3.59,3.59,0,0,0,1-1.32h.32c.12-.18.26-.36.4-.56l.75-.18.26.22a2.42,2.42,0,0,0-.28.3Zm4.12.67c-.2.16-.4.32-.57.44-.16-.18-.32-.34-.48-.5a1.92,1.92,0,0,0,.61-.33c.22-.2.54,0,.76-.24-.05.29-.37.38-.29.66Z" transform="translate(-9.55 -22.687)" fill="#774234"/>
  <path id="Trazado_26063" data-name="Trazado 26063" d="M29.94,33.45Z" transform="translate(-9.55 -22.687)" fill="#774234"/>
  <path id="Trazado_26064" data-name="Trazado 26064" d="M19.12,51.29Z" transform="translate(-9.55 -22.687)" fill="#774234"/>
  <path id="Trazado_26065" data-name="Trazado 26065" d="M19.56,51.11c-.12.06-.28.08-.4.14a3.171,3.171,0,0,1,.4-.14Z" transform="translate(-9.55 -22.687)" fill="#774234"/>
  <path id="Trazado_26066" data-name="Trazado 26066" d="M19.08,51.33Z" transform="translate(-9.55 -22.687)" fill="#774234"/>
  <path id="Trazado_26067" data-name="Trazado 26067" d="M40.13,78.27V78a4.63,4.63,0,0,1-.82-.45,2.94,2.94,0,0,0,.82.45A.47.47,0,0,1,40.13,78.27Z" transform="translate(-9.55 -22.687)" fill="#774234"/>
  <path id="Trazado_26068" data-name="Trazado 26068" d="M19.72,50.55c-.06.18-.18.34-.14.54h0C19.52,50.89,19.66,50.75,19.72,50.55Z" transform="translate(-9.55 -22.687)" fill="#774234"/>
  <path id="Trazado_26069" data-name="Trazado 26069" d="M39.79,48.29a.3.3,0,0,1,.14-.27.27.27,0,0,0-.14.27Z" transform="translate(-9.55 -22.687)" fill="#774234"/>
  <path id="Trazado_26070" data-name="Trazado 26070" d="M40,48h-.1A.15.15,0,0,1,40,48Z" transform="translate(-9.55 -22.687)" fill="#774234"/>
  <path id="Trazado_26071" data-name="Trazado 26071" d="M9.81,47a1,1,0,0,0,.06.83h0A1,1,0,0,1,9.81,47Z" transform="translate(-9.55 -22.687)" fill="#774234"/>
  <path id="Trazado_26072" data-name="Trazado 26072" d="M35.55,74.69v-.26a1.13,1.13,0,0,1-.32-.73,1.38,1.38,0,0,0,.32.73Z" transform="translate(-9.55 -22.687)" fill="#774234"/>
  <path id="Trazado_26073" data-name="Trazado 26073" d="M34.34,40.63Z" transform="translate(-9.55 -22.687)" fill="#774234"/>
  <path id="Trazado_26074" data-name="Trazado 26074" d="M18.81,67.1h0l-.2-.14A.72.72,0,0,1,18.81,67.1Z" transform="translate(-9.55 -22.687)" fill="#774234"/>
  <path id="Trazado_26075" data-name="Trazado 26075" d="M40.58,48h0l-.12-.12Z" transform="translate(-9.55 -22.687)" fill="#774234"/>
  <path id="Trazado_26076" data-name="Trazado 26076" d="M40,35.61Z" transform="translate(-9.55 -22.687)" fill="#774234"/>
  <path id="Trazado_26077" data-name="Trazado 26077" d="M40.07,35.67Z" transform="translate(-9.55 -22.687)" fill="#774234"/>
  <path id="Trazado_26078" data-name="Trazado 26078" d="M40.13,35.77Z" transform="translate(-9.55 -22.687)" fill="#774234"/>
  <path id="Trazado_26079" data-name="Trazado 26079" d="M40.27,36h0a.67.67,0,0,0-.12-.2A.67.67,0,0,1,40.27,36Z" transform="translate(-9.55 -22.687)" fill="#774234"/>
  <path id="Trazado_26080" data-name="Trazado 26080" d="M40.09,35.71Z" transform="translate(-9.55 -22.687)" fill="#774234"/>
  <path id="Trazado_26081" data-name="Trazado 26081" d="M40.05,35.65Z" transform="translate(-9.55 -22.687)" fill="#774234"/>
  <path id="Trazado_26082" data-name="Trazado 26082" d="M40,35.57a.07.07,0,0,0,0-.06Z" transform="translate(-9.55 -22.687)" fill="#774234"/>
  <path id="Trazado_26083" data-name="Trazado 26083" d="M40.68,47.74a.76.76,0,0,1,.5-.26.76.76,0,0,0-.5.26Z" transform="translate(-9.55 -22.687)" fill="#774234"/>
  <path id="Trazado_26084" data-name="Trazado 26084" d="M37.69,54.12Z" transform="translate(-9.55 -22.687)" fill="#774234"/>
  <path id="Trazado_26085" data-name="Trazado 26085" d="M40.6,70.6v-.06a.3.3,0,0,1,.14-.11,3.531,3.531,0,0,0,.44-.14.37.37,0,0,0,.19-.3.83.83,0,0,0,.32-.06,1.185,1.185,0,0,0,.08-.12c.36-.2.34-.24.3-.26h0a.547.547,0,0,1,.08.1h0l-.4.18h.08c.08,0,.26-.14.38-.2a.37.37,0,0,1,.15,0h0a.34.34,0,0,1,.14,0c.06,0,.14-.06.2-.08h0v-.29l.56-.56L43,68.48a1.851,1.851,0,0,0,.16-.31,3.45,3.45,0,0,1-.46-1.41c.06-.1.12-.22.18-.34v-.51l-1.17-.14c-.16,0-.32.08-.49.08a2.13,2.13,0,0,0-.78.12,2.24,2.24,0,0,1-1.26.28c-.12.15-.24.25-.32.35.1.2.2.38.28.52-.08.16-.16.29-.2.37.1.42.2.82.31,1.23-.27.36-.07.66.12,1a1.07,1.07,0,0,0-.14.2l.7.54a3.32,3.32,0,0,1,.67.14Zm1.65-1.74v-.49l.37.23Zm-.12-2h0V67h0Zm.2.83.23.16v.08c-.19.26-.45,0-.65.08Zm-1,1.8h0Zm.2-1.42a.21.21,0,0,1,.16.08,2,2,0,0,1-.34,0,.48.48,0,0,0-.09.1h0a.43.43,0,0,1,.11-.08.15.15,0,0,1,0-.08h.16Zm-.16-1.69h0v.12h0Zm-.73.24h0v.12h0Zm.14.48.1.1.55-.26v.34c-.31.11-.55.19-.83.27l-.14-.14ZM41,68.15a.93.93,0,0,0,.06.18l-.44.31-.16-.16C40.54,68.29,40.74,68.25,41,68.15Zm-1.09.65h0v-.12h0Z" transform="translate(-9.55 -22.687)" fill="#774234"/>
  <path id="Trazado_26086" data-name="Trazado 26086" d="M40.64,70.54a.3.3,0,0,1,.14-.11C40.72,70.47,40.66,70.49,40.64,70.54Z" transform="translate(-9.55 -22.687)" fill="#774234"/>
  <path id="Trazado_26087" data-name="Trazado 26087" d="M40.64,70.54v.06C40.64,70.66,40.62,70.56,40.64,70.54Z" transform="translate(-9.55 -22.687)" fill="#774234"/>
  <path id="Trazado_26088" data-name="Trazado 26088" d="M41.2,70.31a1.1,1.1,0,0,0,.51-.36.83.83,0,0,1-.32.06A.37.37,0,0,1,41.2,70.31Z" transform="translate(-9.55 -22.687)" fill="#774234"/>
  <path id="Trazado_26089" data-name="Trazado 26089" d="M42.27,69.67c-.14.06-.26.14-.38.2C42,69.85,42.09,69.75,42.27,69.67Z" transform="translate(-9.55 -22.687)" fill="#774234"/>
  <path id="Trazado_26090" data-name="Trazado 26090" d="M35.13,27c.16.22,0,.36-.06.54.22.4.44.83.66,1.23h0c.2.27.43.51.63.77a4.421,4.421,0,0,1,.66.1l.19-.18c.46.12.68-.47,1.11-.38.1-.27.18-.51.26-.69a2.62,2.62,0,0,1-.22-.71c0-.58-.14-1.13-.16-1.67a8.251,8.251,0,0,1-.79-.89,1,1,0,0,0-.75-.49,2.16,2.16,0,0,1-.54-.2c-.23.12-.45.22-.71.37a5,5,0,0,0,.08.54c-.14.36-.3.73-.42,1.13A1,1,0,0,0,35.13,27Z" transform="translate(-9.55 -22.687)" fill="#774234"/>
  <path id="Trazado_26091" data-name="Trazado 26091" d="M41.06,57.39h0a.72.72,0,0,0-.26-.1h0a.61.61,0,0,1,.26.1Z" transform="translate(-9.55 -22.687)" fill="#774234"/>
  <path id="Trazado_26092" data-name="Trazado 26092" d="M40.42,57.31h.38a.32.32,0,0,1-.14-.08A.68.68,0,0,1,40.42,57.31Z" transform="translate(-9.55 -22.687)" fill="#774234"/>
  <path id="Trazado_26093" data-name="Trazado 26093" d="M42.74,56.42a1.418,1.418,0,0,0-.12-.44h-.55a1.91,1.91,0,0,1-.46.22c-.49.06-1,.08-1.46.12a.09.09,0,0,1-.06-.06,4,4,0,0,0,.29-.3h.72a2.48,2.48,0,0,1,1-.34,1.473,1.473,0,0,1,.12.1v-.61c-.28.28-.6.22-.91.34a2.31,2.31,0,0,1-.84.12c-.29,0-.57.21-.85.07l-.34.22s-.07.1-.09.14a2.44,2.44,0,0,1,.27.3c-.08.2-.16.41-.22.59a2.921,2.921,0,0,1,.18.36c0,.24-.12.4-.08.53a5,5,0,0,1,.12,1.33c0,.1.12.18.14.22a1.552,1.552,0,0,0,.73-.1c.15-.1.5,0,.72-.16a.51.51,0,0,1,.65.06c.2-.24.5,0,.75-.14l.16-.16c0-.27.08-.57-.16-.81.34-.24.1-.51,0-.85l.38-.2-.77-.18.22-.33a1.68,1.68,0,0,1,.46-.04Zm-1,.24v.23H41v-.06a7.245,7.245,0,0,0,.71-.17Zm-1.84-.34h0V56.2h0Zm1.25,2-1.15.2c.29-.46.77-.14,1.09-.42Zm.39-.1v-.06h.2v.1Zm-1.24-.63a1.44,1.44,0,0,0,.21-.18c.14-.12.22-.16.32-.14h0a3.531,3.531,0,0,0-.38,0v-.4h.3c.06,0,.06-.16.2-.06a.55.55,0,0,1-.26.34l.14.08h.73a2.082,2.082,0,0,0,.44-.12,1.889,1.889,0,0,1,.06.18,3.56,3.56,0,0,1-1.79.32Z" transform="translate(-9.55 -22.687)" fill="#774234"/>
  <path id="Trazado_26094" data-name="Trazado 26094" d="M40.94,51.11a2.89,2.89,0,0,0-1.59.41c-.1.18-.19.34-.31.58.06.51.12,1.09.16,1.64l.43.12c.24-.1.5-.22.79-.32.4.2.78-.29,1.19-.09,0,.33-.31.27-.43.41l-.16-.1L40.8,54a1.76,1.76,0,0,0-.61.06q-.27.15-.42,0l-.54.12a.53.53,0,0,0-.11.22,5.911,5.911,0,0,0,.13.59h.64a1.11,1.11,0,0,1,.71-.36,5,5,0,0,0,1-.37h.6l-.06-.06a2.639,2.639,0,0,1,.33-.2v-.4a3.54,3.54,0,0,1-.35-.23c.08-.16.16-.3.22-.4-.08-.38-.14-.73-.2-1.09.06-.1.18-.22,0-.42s-.08-.39,0-.61C41.75,50.89,41.28,50.75,40.94,51.11Zm-1.43,1.46h0v-.12h0Zm1.25-1-.55.26a1.17,1.17,0,0,1,0-.26ZM40,53.17h0v-.12h0Zm.55-.24a.547.547,0,0,0-.08.1h0a.547.547,0,0,1,.1-.08.2.2,0,0,0,.08-.1h0a.35.35,0,0,1-.11.08Zm-.08-.36-.67.06a1.769,1.769,0,0,1-.14-.23c.56-.24,1.19-.14,1.74-.44.14.06.22.12.34.16a.15.15,0,0,1,0,.08,2.44,2.44,0,0,1-1.28.37Zm.93.36v-.22h.42a4,4,0,0,0-.43.22Zm.46.57h0Z" transform="translate(-9.55 -22.687)" fill="#774234"/>
  <path id="Trazado_26095" data-name="Trazado 26095" d="M30.34,30.9a5.3,5.3,0,0,1,.73-.42c.26-.12.56-.18.85-.28a.07.07,0,0,0,0-.06h.54c.12-.27.24-.51.34-.71a3,3,0,0,1,.43,0,1.1,1.1,0,0,1,.3.16,5,5,0,0,0,2.1.91c.36.28.65.06.93-.16a2,2,0,0,0-1-.69.354.354,0,0,1-.28-.18,3.182,3.182,0,0,0-.37-.46,1.86,1.86,0,0,1-.14-.23,1.71,1.71,0,0,0-1.39-.32l-.65.42V29h0l-.64.64c-.08-.06-.16-.16-.31-.28h-.36l-1-.71a1.5,1.5,0,0,0-.3,0c-.06,0-.12.1-.18.18V29.9A.94.94,0,0,0,30.34,30.9Z" transform="translate(-9.55 -22.687)" fill="#774234"/>
  <path id="Trazado_26096" data-name="Trazado 26096" d="M46.21,66.9c.06-.3.06-.3.47-.6l-.79-.23c.18-.16.36-.32.54-.46v-.67A2.06,2.06,0,0,0,45,64.7a2.851,2.851,0,0,0-.22.24,2.527,2.527,0,0,1-.47-.1L44,65c.2.27.22.57.56.59l-.36.36v.43a1.857,1.857,0,0,1,.26.08c-.14.18-.28.34-.32.4a3,3,0,0,1,0,.55,2.11,2.11,0,0,0-.1.38,4.5,4.5,0,0,0,.1.44.34.34,0,0,1,0,.1l-.24.13c.14.2.24.36.34.52a1.58,1.58,0,0,0,1.11-.73c.18-.22.06-.56.35-.74a1.29,1.29,0,0,0,1.09-.27,3.55,3.55,0,0,0-.58-.34Zm-.69-.77h0v.13h0Zm-.58-.7h.54a.56.56,0,0,0,0,.2h0a3,3,0,0,1-.54-.2Zm.48,1.81a1.679,1.679,0,0,0-.08-.24,4.309,4.309,0,0,1,.37-.36,1.591,1.591,0,0,0,.08.18Zm.18-1.77c.13-.08.15-.26.39-.14-.12.08-.16.26-.39.14Z" transform="translate(-9.55 -22.687)" fill="#774234"/>
  <path id="Trazado_26097" data-name="Trazado 26097" d="M44.27,59.17a.328.328,0,0,0,.14.24c.23.06.43.24.65.18.38-.12.83-.16,1-.62-.08-.23-.16-.45-.2-.61A3.131,3.131,0,0,0,46,58l-.26-.39c-.39-.14-.65.25-1,0l1.09-.5a.76.76,0,0,0-.08-.65l-.39-.28c.06-.2.12-.38.18-.59a4.53,4.53,0,0,1-.4-.26V55h-.3a1.21,1.21,0,0,1-.63.65c-.08.32.12.54.24.82l-.3.39a1.45,1.45,0,0,0,.28.12l-.26.36.3.14c-.06.35-.24.67-.08,1a.45.45,0,0,0,.14,0l-.32.33A1.06,1.06,0,0,0,44.27,59.17Zm1-.79h0v.12h0Zm-.36,0h0v.12h0Zm-.12.73h0v.12h0ZM45,56.2h0v.12h0Z" transform="translate(-9.55 -22.687)" fill="#774234"/>
  <path id="Trazado_26098" data-name="Trazado 26098" d="M41.83,63.07a10.2,10.2,0,0,1-1.51.4,9.48,9.48,0,0,0-1,.24v.67h.06l.38.78h.71l.36-.36h.48a1.3,1.3,0,0,1,1-.34l.35-.3v-.43l.2-.14v-.71a2.62,2.62,0,0,0-1.03.19Zm-1.49,1.71-.11-.1a3.609,3.609,0,0,0,.33-.34l.24.16A4.641,4.641,0,0,0,40.34,64.78Zm.7-.3V64.2h.45a5.334,5.334,0,0,1-.49.28ZM42.13,64a1.43,1.43,0,0,1-.22.15h0v-.29h0a1.22,1.22,0,0,1,.4,0A1.54,1.54,0,0,1,42.13,64Z" transform="translate(-9.55 -22.687)" fill="#774234"/>
  <path id="Trazado_26099" data-name="Trazado 26099" d="M42.54,61.29c-.06,0-.12.1-.21.1s-.34-.06-.5.08-.34.18-.38.14c-.19-.16-.31.14-.47,0s-.14.08-.22.14a.64.64,0,0,0-.14-.12c-.28.18-.59.06-.87.1s-.28.29-.38.37a5.22,5.22,0,0,1-.19.56c.49.14.93-.24,1.36-.08a3.06,3.06,0,0,1,2.22-.48,1.07,1.07,0,0,0,.12-.77.94.94,0,0,0-.34-.04Z" transform="translate(-9.55 -22.687)" fill="#774234"/>
  <path id="Trazado_26100" data-name="Trazado 26100" d="M45.24,46.87v.73c-.36.32-.68.63-1,.87,0,.26,0,.4.24.44.41-.18.79-.38,1.18-.56.14-.06.34,0,.46-.16.18.2.26-.11.4-.07v-.64c-.1-.06-.28-.08-.3-.16C46.07,46.81,45.67,46.87,45.24,46.87Z" transform="translate(-9.55 -22.687)" fill="#774234"/>
  <path id="Trazado_26101" data-name="Trazado 26101" d="M43.63,50.81l.36.06c.06.2.1.4.16.59h.47l.26-.33.83.1a.45.45,0,0,0,.22-.66c-.12-.18.08-.22,0-.41a2.649,2.649,0,0,0-.22-.2l-.33.3a1.36,1.36,0,0,0-1,.27c-.12-.12-.22-.2-.32-.31C43.79,50.37,43.75,50.61,43.63,50.81Z" transform="translate(-9.55 -22.687)" fill="#774234"/>
  <path id="Trazado_26102" data-name="Trazado 26102" d="M26.38,33.45a1.8,1.8,0,0,1-.18.2,4,4,0,0,1,.69.91.69.69,0,0,0,.48.42,2.44,2.44,0,0,1,1,.53.53.53,0,0,0,.63.16.34.34,0,0,0-.12-.12c.18-.19.08-.43.1-.61l-.47-.32H28a5.46,5.46,0,0,0-1.62-1.17Z" transform="translate(-9.55 -22.687)" fill="#774234"/>
  <path id="Trazado_26103" data-name="Trazado 26103" d="M40.62,60.28a2.649,2.649,0,0,1,.22-.2c.2-.14.38.14.65,0a1.8,1.8,0,0,1,.74,0c.06-.14.1-.29.14-.41l-.5-.34a1.93,1.93,0,0,1-.53.24c-.5.06-1,.1-1.51.12h-.36c-.16.27-.35.49-.24.83h.5a1.43,1.43,0,0,1,.89-.24Z" transform="translate(-9.55 -22.687)" fill="#774234"/>
  <path id="Trazado_26104" data-name="Trazado 26104" d="M45.75,52.93a1.07,1.07,0,0,1-.67-.61c-.3.06-.59.13-.87.17-.26.3-.14.66-.18,1l.38.22c.51-.16.85-.51,1.34-.59.1,0,.16-.16.26-.26a.28.28,0,0,1-.06-.08Zm-.67.12h0v-.12h0Z" transform="translate(-9.55 -22.687)" fill="#774234"/>
  <path id="Trazado_26105" data-name="Trazado 26105" d="M44.64,61.77h.34c.04,0,.16.08.26,0a.59.59,0,0,1,.32-.08.91.91,0,0,1,.31.12l.34-.18v-.36l-.44-.43c-.53.08-1.05.17-1.58.27-.08,0-.14.12-.2.18.1.24.18.44.24.62A2.18,2.18,0,0,1,44.64,61.77Z" transform="translate(-9.55 -22.687)" fill="#774234"/>
  <path id="Trazado_26106" data-name="Trazado 26106" d="M26,32c-.1.51.26.77.59,1a5.54,5.54,0,0,0,.93.51c.18.12.32.28.5.42l.08-.06.34.12c-.08-.24-.12-.38-.2-.64s-.64-.27-1-.57c0-.22-.3-.22-.36-.34a1,1,0,0,0-.32-.41C26.38,32.05,26.22,31.85,26,32Z" transform="translate(-9.55 -22.687)" fill="#774234"/>
  <path id="Trazado_26107" data-name="Trazado 26107" d="M44.35,63.57l-.3.3.16.33a.81.81,0,0,0,.22,0c.08,0,.17-.11.27-.11.28,0,.58-.26.84-.12a1.08,1.08,0,0,0,.49.08l.34-.16c-.14-.22-.24-.36-.38-.56C45.46,63.39,44.94,63.73,44.35,63.57Z" transform="translate(-9.55 -22.687)" fill="#774234"/>
  <path id="Trazado_26108" data-name="Trazado 26108" d="M10.07,48.47c-.1.16-.2.3-.32.48a1.64,1.64,0,0,1,.08.22c-.06.39-.14.69-.18,1s.06.39,0,.47c-.22.24,0,.42,0,.62a.35.35,0,0,0-.1.13l.18.5c.08-.61.14-1.11.2-1.64h.36c-.06-.32-.1-.6-.16-.86l.28-.41a3.54,3.54,0,0,1-.34-.51Z" transform="translate(-9.55 -22.687)" fill="#774234"/>
  <path id="Trazado_26109" data-name="Trazado 26109" d="M44.62,63c.92,0,1.29-.06,1.59-.3l-.3-.3a1.76,1.76,0,0,0-.85.12.58.58,0,0,1-.69,0h-.32c-.1.18-.16.32-.22.42l.32.33A3.31,3.31,0,0,1,44.62,63Z" transform="translate(-9.55 -22.687)" fill="#774234"/>
  <path id="Trazado_26110" data-name="Trazado 26110" d="M44.29,51.76l-.34.38a1.73,1.73,0,0,0,1.43-.36c-.16-.06-.3-.14-.38-.16a5.58,5.58,0,0,0-.71.14Z" transform="translate(-9.55 -22.687)" fill="#774234"/>
  <path id="Trazado_26111" data-name="Trazado 26111" d="M43.87,31.39h-.59c.08.22.12.4.21.64C43.61,31.81,43.71,31.63,43.87,31.39Z" transform="translate(-9.55 -22.687)" fill="#774234"/>
  <path id="Trazado_26112" data-name="Trazado 26112" d="M39.85,71.08c-.08-.2-.06-.46-.4-.48C39.45,70.9,39.73,70.94,39.85,71.08Z" transform="translate(-9.55 -22.687)" fill="#774234"/>
  <ellipse id="Elipse_729" data-name="Elipse 729" cx="0.14" cy="0.24" rx="0.14" ry="0.24" transform="translate(19.32 10.923)" fill="#774234"/>
  <path id="Trazado_26113" data-name="Trazado 26113" d="M42.42,44.09a2.31,2.31,0,0,0,.06-.27,2.66,2.66,0,0,1-.35,0,2.14,2.14,0,0,0,.16.27.32.32,0,0,0,.13,0Z" transform="translate(-9.55 -22.687)" fill="#774234"/>
  <path id="Trazado_26114" data-name="Trazado 26114" d="M21.9,53.54l.26-.23a2.691,2.691,0,0,0-.38,0,1.1,1.1,0,0,1,.12.23Z" transform="translate(-9.55 -22.687)" fill="#774234"/>
  <path id="Trazado_26115" data-name="Trazado 26115" d="M42.37,28.66,42,28.4C42.11,28.64,42.11,28.64,42.37,28.66Z" transform="translate(-9.55 -22.687)" fill="#774234"/>
  <path id="Trazado_26116" data-name="Trazado 26116" d="M47.1,45.26a.743.743,0,0,0-.1-.31C47,45.28,47,45.28,47.1,45.26Z" transform="translate(-9.55 -22.687)" fill="#774234"/>
  <path id="Trazado_26117" data-name="Trazado 26117" d="M45.52,46.43h0C45.54,46.45,45.6,46.47,45.52,46.43Z" transform="translate(-9.55 -22.687)" fill="#774234"/>
  <path id="Trazado_26118" data-name="Trazado 26118" d="M45.67,46.39h-.11c.07,0,.13.06.23.1Z" transform="translate(-9.55 -22.687)" fill="#774234"/>
  <path id="Trazado_26119" data-name="Trazado 26119" d="M45.48,46.45l.31.08-.23-.1h0C45.6,46.47,45.54,46.45,45.48,46.45Z" transform="translate(-9.55 -22.687)" fill="#774234"/>
  <path id="Trazado_26120" data-name="Trazado 26120" d="M9.89,47.84h0a.2.2,0,0,0-.1.08h0l.06-.12Z" transform="translate(-9.55 -22.687)" fill="#774234"/>
  <path id="Trazado_26121" data-name="Trazado 26121" d="M9.89,47.84a.2.2,0,0,1-.08.1A.2.2,0,0,0,9.89,47.84Z" transform="translate(-9.55 -22.687)" fill="#774234"/>
  <path id="Trazado_26122" data-name="Trazado 26122" d="M23.62,46.39v.12h0Z" transform="translate(-9.55 -22.687)" fill="#774234"/>
  <path id="Trazado_26123" data-name="Trazado 26123" d="M45.42,46.27h0a.38.38,0,0,0,.12.08h0A.16.16,0,0,1,45.42,46.27Z" transform="translate(-9.55 -22.687)" fill="#774234"/>
  <path id="Trazado_26124" data-name="Trazado 26124" d="M45.48,46.39h0a.78.78,0,0,0-.1-.08A.2.2,0,0,0,45.48,46.39Z" transform="translate(-9.55 -22.687)" fill="#774234"/>
  <path id="Trazado_26125" data-name="Trazado 26125" d="M46.17,68v-.12h0Z" transform="translate(-9.55 -22.687)" fill="#774234"/>
  <path id="Trazado_26126" data-name="Trazado 26126" d="M45.81,45.42h0v.12h0Z" transform="translate(-9.55 -22.687)" fill="#774234"/>
  <path id="Trazado_26127" data-name="Trazado 26127" d="M41.93,43.84v-.12h0Z" transform="translate(-9.55 -22.687)" fill="#774234"/>
  <path id="Trazado_26128" data-name="Trazado 26128" d="M41.32,43.48v-.12h0Z" transform="translate(-9.55 -22.687)" fill="#774234"/>
  <path id="Trazado_26129" data-name="Trazado 26129" d="M40.27,36h0a.2.2,0,0,0-.1.08h0a.326.326,0,0,0,.06-.12Z" transform="translate(-9.55 -22.687)" fill="#774234"/>
  <path id="Trazado_26130" data-name="Trazado 26130" d="M40.27,36a.2.2,0,0,1-.08.1A.13.13,0,0,0,40.27,36Z" transform="translate(-9.55 -22.687)" fill="#774234"/>
  <path id="Trazado_26131" data-name="Trazado 26131" d="M29,34.72h0Z" transform="translate(-9.55 -22.687)" fill="#774234"/>
</svg>
