<svg id="Calavera_tequenos-postre" xmlns="http://www.w3.org/2000/svg" width="46.934" height="69.057" viewBox="0 0 46.934 69.057">
  <path id="Trazado_25954" data-name="Trazado 25954" d="M37,15.51Z" transform="translate(-6.526 -11.393)" fill="#774234"/>
  <path id="Trazado_25955" data-name="Trazado 25955" d="M36.26,27.51Z" transform="translate(-6.526 -11.393)" fill="#774234"/>
  <path id="Trazado_25956" data-name="Trazado 25956" d="M39.07,35.58a2.24,2.24,0,0,1,.38.31l-.35-.34Z" transform="translate(-6.526 -11.393)" fill="#774234"/>
  <path id="Trazado_25957" data-name="Trazado 25957" d="M21.42,36.77a1,1,0,0,0,.08.18h.08Z" transform="translate(-6.526 -11.393)" fill="#774234"/>
  <path id="Trazado_25958" data-name="Trazado 25958" d="M38.65,76.28c1.3.51,2.58.17,3.87.34V73.76c-.64.08-1.34-.21-1.61.62a3.17,3.17,0,0,1,1.28,1.24,8.3,8.3,0,0,1-1-.3,6.66,6.66,0,0,0-3.33-.85c-.34,0-.87-.38-1-.25a1.23,1.23,0,0,1-1.13.24,2.16,2.16,0,0,1-.73-.44l.87-1H37c.12-.3.22-.55.33-.8a8.79,8.79,0,0,1,2.37-3.38c.74-.59,1.18-1.4,1.85-2a12.82,12.82,0,0,1,1.75-1.7v-.51c.52-.43,1.09-.71,1.34-1.16a20.189,20.189,0,0,1,2.42-3c.94-1.17,2.08-2.17,2.42-3.78-.35-.54-.77-1.17-1.14-1.75-1.41-.08-1.76-1.61-2.92-2-.4-.13-.63-.74-.88-1.06l-2.27-1c.06-.82-.86-.72-1.22-1.17-.1-.12-.17-.27-.29-.44l.73-.83.11-1.25c1.14.77,2.15.24,3.11,0a4.33,4.33,0,0,0,1,.72c.41.14.94-.13,1.3.45l1.17-1.64c0-.61.25-1.41,0-1.73-.68-.77.16-1.77-.57-2.42.45-.84-.29-1.63-.1-2.49.28-1.27-.4-2.65.35-3.89h0l-.09-.1L47,35.64a4.53,4.53,0,0,0,1.26-1.72c.31-.7.65-1.37,1-2l-.91-1.23-2.89.44-1,1.39c0-.71-.48-.83-.85-1a14.309,14.309,0,0,1-1.26-.77l-.43.37c-.82-1.13-1.9.19-3.07-.31a19.88,19.88,0,0,0,2.71-2.83c-.1-.59.16-1.24-.35-1.79-.12-.13,0-.51,0-.68l2.06.53a7.88,7.88,0,0,0,1-2.12,10.14,10.14,0,0,0-.24-2.57l2.27-.75a4.89,4.89,0,0,0,1.3.24c1-.13,1.93-.36,3-.56l.51.36.95-1.17a6.89,6.89,0,0,0-2.3-.73c-.89,0-1.82.23-2.4-.18l-1.82.07-.58.29.82.34-.15.65c-.75-.52-1.54-.28-2.27-.42a15.87,15.87,0,0,0-2.76,0l.11-.2L40.12,19l.13-.26,1.38.35c.43-.47,1.48-.06,1.69-1.05-.35-.65-1-1.32-1-2,0-1.41-.93-2.35-1.53-3.42a2.38,2.38,0,0,0-2.27-1.22,8.06,8.06,0,0,1-.83,0c-2,1.27-3.13,3.2-4.51,4.75,0,.57-.06,1.07-.1,1.73-1-.34-1.8-.82-2.7-.37l.32.55h1.34a1.47,1.47,0,0,1-.09.27h-.08c-.42,0-.91.26-1.27-.27H29.35l.21-.33-.66-.14.18-.26,1,.33c-.09-.66-.37-1-.89-1s-1-.86-1.46,0c-.51-.6-1.17-.22-1.78-.35L25.34,18a24.6,24.6,0,0,0,2.74.47,13.25,13.25,0,0,1,2.48.31l2.75.41L32.42,18h1v2.13l-.85-.79a5.75,5.75,0,0,0-.8,1.28c-.14.47.09,1-.38,1.43.35.38,0,.9.31,1.34a6.08,6.08,0,0,1,.48,1.38l.14-.2c.22.42.44.84.6,1.16h1.36l-.36.88,1,1.09v.84l.53-.46c.11.92,1.14.93,1.45,1.65l-.92.59c-.39.81.77,1.33.1,2-.42-.35-.82-.69-1.25-1h0l-.28-.24.11-.12.24.29h0c.25,0,.53,0,.64-.12s.07-.25,0-.53c-1,.08-1.48-.81-2.27-1.18s-1.66-.78-2.48-1.17c-.31-1.07-1.63-1.06-2.05-2-.32.23-.5.48-.67.47-.88,0-1.27.37-1.19,1.24-.78.62,0,1.57-.52,2.34a3.13,3.13,0,0,0-.8.43,5,5,0,0,0-.65.94H24.2a5.1,5.1,0,0,1-2.61,2.22v1.16l-.23-.16L20.71,36l-1.07-1.46c-1.39-.68-2.87-1.19-3.8-2.52h-.73c-.81-1.54-2.59-1.7-3.81-2.67a2.78,2.78,0,0,0-2.48-.83l-.65-.64H7.09c-.86,1-.45,2.16-.56,3.12l.88,1.06c.47-.16.95-.47,1.17-.35a5.39,5.39,0,0,0,2.5.32c-.53-.65-1.43-.49-2.15-.91l.68-.26c-.11-.26-.21-.53-.36-.91a24.07,24.07,0,0,0,3.59,1.32c.76.15,1,.59,1.29,1.19h1.31l-.52.84-1.35-.26v3.41a8.72,8.72,0,0,0,1.95.8,4.13,4.13,0,0,1,2,.68,5.42,5.42,0,0,0,2,1.06c.76.14.84,1.09,1.58,1l.53-.39c.23,1,.81,1.72.65,2.66s.89,1.56.7,2.58c1.12.43.87,1.81,1.71,2.39l-.32.47c.14.87,1,.63,1.48,1-.52.28-1.25,0-1.38.75l.33.45c-.93.07-1.88-.2-2.18.91-.88.26-1.33,1-1.77,2,.08.41.21,1.12.34,1.82-.41.65-1,1.29-.36,2.16-.86,1.68.21,3.33.06,5,.63.83.08,2,1,2.89l.62-1.45c-.12,1.17.67,2.26.16,3.49-.17-.46-.35-.91-.53-1.36l-.26.09.52,2.75h1.25l-.83.77c0,.3.18.7.05.85-.43.45.48.61.16,1a6.3,6.3,0,0,0-.49.85c-.14-.14-.23-.3-.31-.3H10.43c-.12.2-.3.47-.65,1L11,72.12c.35.71,1,.11,1.47,0a25.591,25.591,0,0,1,4.46-.07c.58.74,1.11,0,1.65-.08l.36.33c.91-.64,1.92-.14,2.67-.3L23,73.27l-2.14,1.61-1.51-.49-.54.6c.14.18.24.31.33.45s0,.12,0,.18a3.93,3.93,0,0,1-2.46,1.56c.58.11,1.15,0,1.7.13s.92-.53,1.48,0,1-.47,1.65,0c.4.27,1.13.05,1.65.05,1.42-1.22,1.7-1.37,3.12-1.56-.39-.65-.74-1.24-1.1-1.86a2.47,2.47,0,0,0,.21-.29c-.54-.47-.28-1.09-.28-1.64s.35-.86.3-1.25-.4-.91-.33-1.44c0-.13-.15-.28-.21-.43a.93.93,0,0,1,0-.24l.42-.11a6.64,6.64,0,0,1,0-1.34,6.41,6.41,0,0,0,0-3.53c-.35-1,.17-2.11-.38-3.08.64-.72,0-1.36-.14-2-.05-.2-.28-.37-.31-.57-.14-1.17-.24-2.36-.37-3.53,0-.1-.12-.18-.24-.33l-.61.35L22.29,54c-.14-1.19,1.15-1.58,1.43-2.57.33-1.19,1.76-1.29,2.32-2.23l1.24.63a14.389,14.389,0,0,1-2.15,1.29c-.94.36-1.17,1.28-1.77,1.9-.13.13,0,.52,0,1.07l1.91-1.83c.24-.25.64-.33.92-.55.59-.47,1.09-1,1.66-1.53.16-.14.44-.13.75-.21l-.5.93a2,2,0,0,1,2.17.26c.19.13.32.45.5.46a5.92,5.92,0,0,0,1.14-.09c1,.55,2,1.34,3.25.61.07.52.12.93.2,1.58l1-.88L36,52.2l.44-.52.33.28.65-.28.88,1.21v2h-.19L38,53.24l-.67,1,.41.45-.29.3a15,15,0,0,1,.29,1.69c.1,1.88-.22,3.79.35,5.65a1.59,1.59,0,0,1-.09.6h-.45c-.2-.8-.41-1.61-.62-2.41a3.77,3.77,0,0,0-.22,1.74,4.76,4.76,0,0,0,.33.91q.008.165,0,.33s.08.09.1.11l.5.11c-.12.45-.62.85-.1,1.31l.41-.35c.32.72-.41.88-.61,1.34v.92l-.77.95.32.38c-.55.53-1.41,1-1.57,1.61-.3,1.2-1.38,1.75-1.9,2.77v2.62H30.73v.69c1-.14,2,.19,3.14-.35l.46.67h2.06a6.81,6.81,0,0,1,2.26,0ZM49,19.41h.12v.35H49Zm-1.46-.29.17-.12.34.73h-.51Zm-1,0,.25.28.28.24-.11.11-.24-.28-.29-.24ZM41,15.9h.11v.35H41Zm.9,1.14-.91.75L40.81,17ZM22.24,62.47l-.59.11V59.81l.16-.11.24.61.19-.14ZM23.63,75.2,22,75.56l-.07-.21c.35-.29.92-.53,1-.88.12-.51,1.12-.2.8-1.07-.13-.34.29-.88.51-1.47.14.83.26,1.54.41,2.46ZM22.56,56.12s-.13-.24-.24-.45l.9-.42a4.09,4.09,0,0,1,.5,1.89,5.21,5.21,0,0,0,.35,2.11,9.92,9.92,0,0,1,.33,3.37,2.36,2.36,0,0,0,.18,1,1,1,0,0,1,0,1.1c-.27.54-.2.57.17,1.35v.17a1.94,1.94,0,0,1-.23.26c.08.43.16.86.28,1.56a3.13,3.13,0,0,1-.73-2.69,3.11,3.11,0,0,1-.7-2.45c.14-.53-.63-.76-.26-1.4.21-.35,0-1-.13-1.5a10.21,10.21,0,0,0-.55-1.34c-.06-.15-.17-.4-.12-.46C22.91,57.56,21.71,56.71,22.56,56.12Zm24.5,1-.6-.29a1,1,0,0,1,1.41-.45l-.49,1.59H46.2Zm-2.5-10.69-.24-.29L44,45.86l.11-.11.24.28.29.25Zm1.4.38h-.85a1.9,1.9,0,0,1,0-.78c.25-.59.7-.82,1.43-.46Zm.3-3.16c-.18-.52-.35-1-.52-1.55l.35-.38-.41-.44c.17-.25.36-.52.55-.81l.59.56c-.22.79.45,1.83-.56,2.58Zm-.79-5.82a4.44,4.44,0,0,1,.51-1.3l.78,3.42-.92-.81a4.81,4.81,0,0,1-.37-1.35Zm.75-6.11h.11V32h-.11Zm-.3,1,.26.27,1.17-.3-1,1.85-1.1-1Zm-1.36,4.39A23.52,23.52,0,0,1,45,43.56H43.29c.08.44.16.79.21,1.14s.12.85.17,1.3l-1.34-.18-.55.51-1-1-.46.31-.48-.33c-.82,1-1.71-.19-2.69.08l-.54-.73H35.1l-1-1.22.16-.21,1.16.37c.37.11.68-.61,1.07-.07.5-.73.62.75,1.13.22l-.32.4a3.66,3.66,0,0,0,2.79.84L39,44.27l1.11-.59c.2.49.45,1.08.67,1.63h2.43V45.1L41,44.42l1.63-.18c.07-1.08-.85-1.27-1.4-1.86V41.29L40.44,41a18.91,18.91,0,0,0,2.31-1.64,19.181,19.181,0,0,0,1.81-2.24Zm-5.2,11.05v.7h-.17v-.7Zm-.93-4,.28-.24.24-.29.12.12-.29.24-.24.28ZM37.67,37l-.29-.24.11-.11.12.14a.31.31,0,0,0,.09-.12l1.94,1.68L40,38l.69,1.08a7.94,7.94,0,0,1-3-1.2V37Zm-1.06-1-.28-.24.11-.11.24.28h0l.19.1a1.11,1.11,0,0,1,.3-.08s.12.12.35.39l-.84-.24h.11a.83.83,0,0,0-.18-.17Zm1-3.27c-.18-.49-.27-.75-.31-.87.32-.15.32-.15.27.8Zm-.11-2.38V30h.12v.35Zm.59,5v.12H37.7v-.12Zm-.24-7.84v-.35h.12v.35ZM41,37.3c-.59-.58-1-1-1.35-1.35l-.23-.06a2.24,2.24,0,0,0-.38-.31l-.29-.24.11-.12.24.29h0a1.39,1.39,0,0,0,.51.34c.8.19,1.62.85,2.62.89.08,0,.16-.09.29-.16l.54.88a6.81,6.81,0,0,0-1.11,0A2.56,2.56,0,0,1,41,37.3Zm.4.7v.35h-.11V38Zm-1.6-3.31a.93.93,0,0,1-1.36-.34c.34-.64,1-.68,1.85-1.1a3.59,3.59,0,0,0-.48.78A2.91,2.91,0,0,0,39.8,34.69Zm3.82-1.64.11.38-.55.7-.88-.76-.63.39-.54-.83C42.12,32.32,42.78,33.34,43.62,33.05Zm-3,1.45c.82.5,2,.12,2.87,1.28-1.44.18-2.36-.49-3.68-1.07.54-.13.75-.27.85-.21Zm-.4-1.76h.12v.35h-.12Zm-1.4-1.41H39v.35h-.12Zm.73,1.24-1.46.88V32Zm-1.46-1.94v-.7h.18v.7Zm1.23-2.8h-.51l-.13-.62.64-.13Zm-.52-1v-.3h.58v.17ZM42,25v-.19l.94-.12V25Zm.59-4.87v1.3l.84.68-.94,1.86a2.7,2.7,0,0,1-1.06,0,.9.9,0,0,1-.32-.25l-1.23.68L38,23.42l.61-1c.18.41.32.72.38.84h1.39l.84-1a1.71,1.71,0,0,0-1.2-2,15,15,0,0,1,2.52-.17Zm-2.62-.21-1.38.68c.24-.77.24-.77,1.33-.72Zm0-1.88v-.35H40V18Zm-.26-3.52c.37.65-.16.76-.4,1.08-.44-.69.1-.8.34-1.12Zm.06,2.2.5.51-1,.13-.12-.24Zm-.29,2.18-.77.45-1.43-.44a4.32,4.32,0,0,1,2.14-.05Zm-2.71-1V16.57l.8.16Zm.89-.64c.22-.47.39-.86.7-1.53.05.71.08,1.14.12,1.68Zm.31-4.49.23.82.34-.18-.57.84-.51-1Zm-.28,2.14h0l.24-.28.11.11-.28.24h0c-.14.11-.29.22-.43.35a2.55,2.55,0,0,0-.24.31h0l.28.24-.11.11L37,15.58h-.67c.24-.82.79-.74,1.3-.74Zm-1.63.99h.12v.35h-.12Zm.18.76v.58h-.18l-.12-.59Zm-.64-2.4H36v.12h-.4ZM35.36,17h.12v.35h-.12Zm-.46-1.64h.35v.12H34.9Zm-1.61,9.08-.82-1.3c.58-.53.34-1.06-.06-1.58.21-.38.4-.74.62-1.16.21.15.46.25.45.32-.07.42-.19.83-.31,1.29.2.37.44.79.69,1.26-.16.29-.35.67-.57,1.12Zm2.23,1.94a.86.86,0,0,1,.06.23c0,.05-.12.12-.39.38l.24-.87.06.15a1.49,1.49,0,0,0,.11-.15l.35-.35a2.2,2.2,0,0,0-.26-.76c-.45-.52-1-1-1.45-1.48V22.6l.94-.07L35.71,20l-1,.39-1.21-.7,1.66-.43-1.36-.41,1-.87,1.16.57a1.76,1.76,0,0,0,.06.53h.27v-.62l.19-.13.27.69-.49.1v.58l1.45.15-.42,1.08.38.51-2.54,1.82,1.77,1.48,1.6-.46.72,1.48a3.77,3.77,0,0,0-2.61.69h0l-.24.29-.11-.11.28-.24L36,25.72a2.26,2.26,0,0,0-.48.61ZM37,23.73v.12h-.35v-.12Zm-.11,4.13-.55.31-.06-.66h0L36,27.27l.11-.11.24.28h1l.08.94-.22.07Zm-.44,5.24.37.32.44-.39v1.42l-.82.07-.35.72C35.69,34.37,36.14,33.76,36.45,33.1ZM34.9,36.24v-.66h0l-.28-.24.11-.12.24.29H36v.67h0l.28.24-.11.11-.24-.28h0Zm0-4h-.1a2.78,2.78,0,0,0,.35.21.84.84,0,0,1,.24-.06s.12.12.35.39l-.84-.24h.09l-.34-.21a1,1,0,0,1-.25.06s-.11-.12-.35-.39Zm-.9-.87-.26-.72C34.1,30.44,34.17,30.75,34,31.37Zm-1.71-1.75,1.19,1.12-2.09-.65L32.42,30Zm-.71,2L30.8,32l-.8-.93.58-.52c1,.45,2,.89,2.91,1.35.13.06.2.22.44.49a7,7,0,0,0-1.14,0,2.64,2.64,0,0,0-.71.36,4.92,4.92,0,0,0,0,.62c.89,0,1.79.33,2.58-.19l.86.23h0l.24-.29.11.11-.28.25h0a3.65,3.65,0,0,1-3.53.47c-.5-.18-.86-.18-1.16.18l-.77-.39-.17.58a11.74,11.74,0,0,0,1.36.55,6.21,6.21,0,0,0,1.49.19,10,10,0,0,0,1.35-.2v1c-.12,0-.24.14-.32.11-.51-.17-1-.38-1.45-.55L29,36.16a21.689,21.689,0,0,1-.1-2.45l.58.41c.53-.59-.22-1-.22-1.55l.59-.54.48.71h1.75Zm1.52,4.91H31.8V36Zm-5-8.33,1.53,1.25a1.63,1.63,0,0,1-1.19,1.06l-.74-.35L27.3,29ZM23,35.16h0a2,2,0,0,1,1-1.6c.47-.33.66-1.15,1.14-1.37s.61-1,1.21-1.21a1.16,1.16,0,0,1,.86.2,1.11,1.11,0,0,1,.31.51,1.17,1.17,0,0,1,.23.13c.36.26-.12.53-.24.84v.07L28.19,34v2.2l-.93.1v.84L25.88,38,24,37.82h-.05l-.11.11h0c-.05-.06-.13-.12-.17-.18a4.92,4.92,0,0,1,.29-.92,9.62,9.62,0,0,1,.61-.91l.8-.06.74-1.37-.35-.44.35-.26a1.489,1.489,0,0,1,.11-.15,2.56,2.56,0,0,1-.1-.34s.13-.12.4-.38l-.25.87a.24.24,0,0,0,0-.08,2.26,2.26,0,0,0-.14.78h.54l.56-1.67-1.3-.57a3.6,3.6,0,0,1-.28,1.11c-.32.45-.94.61-1.22,1.13-.72-.27-.89.58-1.41.69h0l-.25.29-.11-.11Zm.38,1V36h.35v.12Zm.27.6-.86.31c-.13-.4-.13-.4.82-.34Zm-8.18-1.5c.11-.77.2-1.41.31-2.15l1.61,1.32-1.42.16c.13.32.23.59.4,1Zm.5,1.3H15.8a2.373,2.373,0,0,0-.14-.57h.31Zm5.19,2.87H21v-.35h.11ZM37.37,49.86l-1.06.83-.55-.38-.71.67-4-.49c-1.54-.87-1.54-.87-2.25-1.92H28l-.22-.65c-1.5-.16-2-1.54-2.64-2.71a27.72,27.72,0,0,1-1.39-3.09,4.83,4.83,0,0,1-.14-.94,5,5,0,0,0,2.49.33l-1.39-1.14-.6.46c-.07-.34-.12-.66-.2-1.12l-.83.27-.78-.32V39c-.66-.46-1.41-.73-1.76-1.27s-1.43-.22-1.58-1.13l-.12.12-.23.23-.91-.67v.65L16.25,37c.22-.56.39-1,.58-1.49.15.31.26.55.36.77h.55V34.62l.79.66c.39.38,1.07.2,1.36,1,.21.58.95.73,1.61.67a1,1,0,0,1-.08-.18l.82-.53v.67l-.69.05a1,1,0,0,0,.26.45,1.09,1.09,0,0,0,.86.24,17.41,17.41,0,0,1,1.71,1.42c.32.33.75,0,1,.35a4.16,4.16,0,0,0,1.09.9,1,1,0,0,0,.6.08l-.66-1a1.18,1.18,0,0,1-.15-.11,1.91,1.91,0,0,1-.34.1c-.05,0-.12-.12-.36-.39l.85.24h0c.49.15.7.16.75-.15h0l-.29-.25.11-.11.25.29h0a5.12,5.12,0,0,0,.36.43,1.16,1.16,0,0,0,.36.25h0a4,4,0,0,1,2.14-1.22l-.42-.85a6.711,6.711,0,0,0-1,0c.59-.32.59-.32,1,0,.68,0,.28-.56.54-1l.06-.08.17.7h3.83c1,.63,2.06,1.16,3,1.82s1.74,1.44,2.73,2.28l-.61,2.23-.77-1-1,.39-.75-1.49c-.08.25-.14.44-.21.64a14.46,14.46,0,0,0-4.94-.56,5.76,5.76,0,0,0-2.19.77L28,41.57l-.3.63h-.41l-.23-.69h-1c.29.34.51.85.87,1a2.1,2.1,0,0,1,1.4,1.75l.88-1-.35-.35a1.43,1.43,0,0,0-.38-.31l-.29-.25.12-.11.24.29h0l.35.35.35.35.85.62L28.72,45c.58.41,1,1,1.45,1,1.18,0,2,.77,3.09,1a6.63,6.63,0,0,0,1,.1l-.28-1,.38-.78a1.05,1.05,0,0,1,1.29.79c-.47.31-1.18.52-1.24,1.27a1.39,1.39,0,0,0-1.12,1.49l2.54-1.43.22-1.07h.59l.24-.29.11.11-.28.25h0c.06.08.13.21.19.28h2.16c-.35,1.18-.68,2.3-1,3.5ZM33,45v.35h-.12V45Zm-1.43-.74L31.36,44l-.28-.24.11-.12.24.29.28.24Zm0,.74v.35h-.12V45Zm6.59,5.54,1.72-.88,1.52,2c1.13.14,1.84,1.39,3.1,1.88.26.41.59.9,1,1.56l-1.5.12c-1.31-.89-2.31-2.18-4.24-2.65Zm7.06,7.09V58h-.11v-.35Zm-1.38.7H43l-.09.81a3.25,3.25,0,0,0-1.43,2h.7l.25-.29.11.12-.29.24h0l-.7,1v-1H41c-.16.28-.32.57-.49.84s-.31.44-.51.73l.73.25v.24L39,65.68l-.27-1.17.84-.4-.46-1.29.24-.31c-.14-1.59-.27-3-.43-4.77a5.16,5.16,0,0,0-.12-3.43l.43-.46h.13a5.93,5.93,0,0,1,1.63.66c1.07.87,2.59,1.06,3.45,2.44-.18.41-.37.91-.54,1.4ZM44,59.79c-.26.47-.52.74-1.08.62C43.2,59.94,43.46,59.67,44,59.79Zm-2.58,2.42v.35h-.11v-.35Zm-3.38-6.55h.35v.11h-.35Zm.26,1.63v1.76h-.18V57.29Zm-.26,3v-.11h.35v.11Zm.18,5.73.05.12a.217.217,0,0,1,.08-.15l.24-.28.12.11-.29.24h0l-.1.19a1.71,1.71,0,0,1,.09.3s-.13.12-.4.35Zm-.47,3c.18-.45.68-.68.88-1.09v-.12a17.27,17.27,0,0,1,2.9-4.54,18.33,18.33,0,0,1,4.07-4l.08.73c-.51.59-.89,1-1.25,1.46-.79,1-1.63,2-2.32,3.06s-1.8,1.55-2.1,2.77l-.63.23.33.37-2.06,1.69a1.131,1.131,0,0,1-.11.11h0a2.171,2.171,0,0,1,.07.24s-.13.12-.4.36a3.29,3.29,0,0,1,.55-1.21Zm-1.38.84h.18v.71h-.18Zm-1.54,3.46h-.18l-.13-.59h.31Z" transform="translate(-6.526 -11.393)" fill="#774234"/>
  <path id="Trazado_25959" data-name="Trazado 25959" d="M37.53,69.57v0Z" transform="translate(-6.526 -11.393)" fill="#774234"/>
  <path id="Trazado_25960" data-name="Trazado 25960" d="M36.65,35.89h0a.83.83,0,0,1,.15.09h.08Z" transform="translate(-6.526 -11.393)" fill="#774234"/>
  <path id="Trazado_25961" data-name="Trazado 25961" d="M27.16,39.09Z" transform="translate(-6.526 -11.393)" fill="#774234"/>
  <path id="Trazado_25962" data-name="Trazado 25962" d="M28.56,42.6a1.43,1.43,0,0,1,.38.31l-.35-.35Z" transform="translate(-6.526 -11.393)" fill="#774234"/>
  <path id="Trazado_25963" data-name="Trazado 25963" d="M27.19,39.06Z" transform="translate(-6.526 -11.393)" fill="#774234"/>
  <path id="Trazado_25964" data-name="Trazado 25964" d="M36.61,46.39Z" transform="translate(-6.526 -11.393)" fill="#774234"/>
  <path id="Trazado_25965" data-name="Trazado 25965" d="M23,35.22Z" transform="translate(-6.526 -11.393)" fill="#774234"/>
  <path id="Trazado_25966" data-name="Trazado 25966" d="M42.21,61.12Z" transform="translate(-6.526 -11.393)" fill="#774234"/>
  <path id="Trazado_25967" data-name="Trazado 25967" d="M37.67,37Z" transform="translate(-6.526 -11.393)" fill="#774234"/>
  <path id="Trazado_25968" data-name="Trazado 25968" d="M34.86,35.58Z" transform="translate(-6.526 -11.393)" fill="#774234"/>
  <path id="Trazado_25969" data-name="Trazado 25969" d="M36,36.21Z" transform="translate(-6.526 -11.393)" fill="#774234"/>
  <path id="Trazado_25970" data-name="Trazado 25970" d="M34.88,31.35Z" transform="translate(-6.526 -11.393)" fill="#774234"/>
  <path id="Trazado_25971" data-name="Trazado 25971" d="M37.66,14.81Z" transform="translate(-6.526 -11.393)" fill="#774234"/>
  <path id="Trazado_25972" data-name="Trazado 25972" d="M35,32.52l.16-.06a2.781,2.781,0,0,1-.35-.21l-.15.06Z" transform="translate(-6.526 -11.393)" fill="#774234"/>
  <path id="Trazado_25973" data-name="Trazado 25973" d="M39.1,35.55h0l.35.34.23.06-.07-.06A1.39,1.39,0,0,1,39.1,35.55Z" transform="translate(-6.526 -11.393)" fill="#774234"/>
  <path id="Trazado_25974" data-name="Trazado 25974" d="M35.49,26.22v.11a2.26,2.26,0,0,1,.43-.61l-.35.35A1.491,1.491,0,0,1,35.49,26.22Z" transform="translate(-6.526 -11.393)" fill="#774234"/>
  <path id="Trazado_25975" data-name="Trazado 25975" d="M37.7,36.65a.31.31,0,0,1-.09.12l.09.1Z" transform="translate(-6.526 -11.393)" fill="#774234"/>
  <path id="Trazado_25976" data-name="Trazado 25976" d="M35.56,33.41Z" transform="translate(-6.526 -11.393)" fill="#774234"/>
  <path id="Trazado_25977" data-name="Trazado 25977" d="M38.4,66.07h0c0,.07-.06.11-.08.15v.08Z" transform="translate(-6.526 -11.393)" fill="#774234"/>
  <path id="Trazado_25978" data-name="Trazado 25978" d="M34.9,31.33h0c.24,0,.51,0,.62-.14C35.43,31.37,35.15,31.33,34.9,31.33Z" transform="translate(-6.526 -11.393)" fill="#774234"/>
  <path id="Trazado_25979" data-name="Trazado 25979" d="M47.83,36.06l-.09-.1L47,35.64l.74.32Z" transform="translate(-6.526 -11.393)" fill="#774234"/>
  <path id="Trazado_25980" data-name="Trazado 25980" d="M30.37,17.45a3.11,3.11,0,0,1,.27.55h.05Z" transform="translate(-6.526 -11.393)" fill="#774234"/>
  <path id="Trazado_25981" data-name="Trazado 25981" d="M46.54,72.74c.09,0,.17.14.27.17a2.84,2.84,0,0,0,.8.16c.68,0,1.35-.17,2-.18s1.26.13,1.89.18c0,0,.12-.17.27-.38L50.64,72c-.64.69-1.24.37-1.78,0l-.58.42c-1.12-.73-2.38-.15-3.55-.46V71.3c.66.18,1.35-.23,1.92.37a1.21,1.21,0,0,1,1.67,0c.57.41,1.2-.4,1.62-.12l.75-.3c-1.35.25-2.51-1.18-3.77-.27-1.26-.64-2.61-.12-3.9-.3a2.83,2.83,0,0,0-2,.71,8.67,8.67,0,0,0,1.39,0c.38-.06.72.55,1.1,0l.49.49s-.08.12-.12.12H40l-.7.75a10.662,10.662,0,0,1,1.16,0,7.56,7.56,0,0,1,1,.25s.08-.14.16-.15c.86,0,1.72-.06,2.58-.09C45,73.66,45.76,72.65,46.54,72.74Z" transform="translate(-6.526 -11.393)" fill="#774234"/>
  <path id="Trazado_25982" data-name="Trazado 25982" d="M51.12,76.91c-.67,0-1.31-.78-2,0-.63-.53-1.39-.25-2.1-.29a3.74,3.74,0,0,0-1,.2,2.58,2.58,0,0,1-2.26-.18c-.1.09-.22.3-.35.3a4.26,4.26,0,0,0-2,.34c-.25.12-.65-.07-1-.13a6.611,6.611,0,0,0-1-.18c-.5,0-1,.14-1.52.14S36.92,77,36.36,77A.92.92,0,0,0,36,77l.1.11-.6.31c.55.39.82.57,1.15.56h.23a2.871,2.871,0,0,0,.44-.15l.38-.17a2.09,2.09,0,0,0,.36.19l.18.07A2.47,2.47,0,0,0,39,78a3.45,3.45,0,0,0,1.61-.4c.65.88,1.31,0,2,0s1.32.74,2.07.24,1.45-.21,2.17-.21,1.47-.24,2.17.22,1.45-.48,2.05-.19,1.35-.37,1.76.32l.63-.44c-.22-.42-.36-.71-.47-.91a8.721,8.721,0,0,1-1.87.28Z" transform="translate(-6.526 -11.393)" fill="#774234"/>
  <path id="Trazado_25983" data-name="Trazado 25983" d="M29.64,68.14h.63a9.58,9.58,0,0,1,.24-2.37,8.42,8.42,0,0,0,.17-2.54c.06-.81,0-1.63,0-2.45V55.71a5,5,0,0,0-.21-2.35l-.69,1.19a4.5,4.5,0,0,1,.21,2v4.02a8.08,8.08,0,0,0,0,2.09c.18.65-.67,1-.24,1.73.25.45-.11,1.23-.14,1.86S29.64,67.49,29.64,68.14Z" transform="translate(-6.526 -11.393)" fill="#774234"/>
  <path id="Trazado_25984" data-name="Trazado 25984" d="M32.38,60.84V53.12h-.64v5.92a2.54,2.54,0,0,0,.64,1.8Z" transform="translate(-6.526 -11.393)" fill="#774234"/>
  <path id="Trazado_25985" data-name="Trazado 25985" d="M10.52,78.16c-1.58-.39-1.66-.3-1.74-.2l-.11-.11L9,77.61a13.63,13.63,0,0,0,1.57.55.21.21,0,0,0,0-.14,10.208,10.208,0,0,1-1-.21,1.43,1.43,0,0,1-1-.87c-.41.25-.77.45-1.11.7-.12.08-.16.27-.27.46l.7.55C9.09,78.65,10.4,78.65,10.52,78.16Z" transform="translate(-6.526 -11.393)" fill="#774234"/>
  <path id="Trazado_25986" data-name="Trazado 25986" d="M9.53,77.81a10.213,10.213,0,0,0,1,.21C10.51,77.85,10,77.94,9.53,77.81Z" transform="translate(-6.526 -11.393)" fill="#774234"/>
  <path id="Trazado_25987" data-name="Trazado 25987" d="M32.4,72.69l.73-1.3-1-2.49V72l-1.87.12.6.59Z" transform="translate(-6.526 -11.393)" fill="#774234"/>
  <path id="Trazado_25988" data-name="Trazado 25988" d="M8.56,73.89c-.15.29-.05.37,0,.45l-.11.11-.24-.28.06-.07h0l.24-.21a6.34,6.34,0,0,0-1,.6,4.71,4.71,0,0,0-.56.78c1-.2,1.74.18,2.41-.35a3,3,0,0,0,2,.2l-.1-.62H9.11a.84.84,0,0,0-.55-.61Z" transform="translate(-6.526 -11.393)" fill="#774234"/>
  <path id="Trazado_25989" data-name="Trazado 25989" d="M30.4,69.1l-.25-.21-.38.38-.22.22-.26.26v.87a6.43,6.43,0,0,0,.17,1l.87-.83Z" transform="translate(-6.526 -11.393)" fill="#774234"/>
  <path id="Trazado_25990" data-name="Trazado 25990" d="M30.4,69.1l-.24-.22-.39.39.38-.38Z" transform="translate(-6.526 -11.393)" fill="#774234"/>
  <path id="Trazado_25991" data-name="Trazado 25991" d="M36.35,59.68l.19-.14.32.83c.18-2.15.18-2.15-.51-3.85Z" transform="translate(-6.526 -11.393)" fill="#774234"/>
  <path id="Trazado_25992" data-name="Trazado 25992" d="M11.92,75.32l.77-.46c.34.57.72.29,1,.06l.59.31.9-.68H11.75Z" transform="translate(-6.526 -11.393)" fill="#774234"/>
  <path id="Trazado_25993" data-name="Trazado 25993" d="M25.58,77l.38.76.6-1C25.94,76.27,25.76,76.9,25.58,77Z" transform="translate(-6.526 -11.393)" fill="#774234"/>
  <path id="Trazado_25994" data-name="Trazado 25994" d="M42.22,29.87V29l-1.2.88Z" transform="translate(-6.526 -11.393)" fill="#774234"/>
  <path id="Trazado_25995" data-name="Trazado 25995" d="M12.9,78.28h.61v-.5l-.73.34Z" transform="translate(-6.526 -11.393)" fill="#774234"/>
  <path id="Trazado_25996" data-name="Trazado 25996" d="M37.18,55.75l-.74-.46C36.33,55.82,36.33,55.82,37.18,55.75Z" transform="translate(-6.526 -11.393)" fill="#774234"/>
  <path id="Trazado_25997" data-name="Trazado 25997" d="M17.67,74.55h-.93v.31l.92-.14Z" transform="translate(-6.526 -11.393)" fill="#774234"/>
  <path id="Trazado_25998" data-name="Trazado 25998" d="M52.13,71.69l.45-.69H52Z" transform="translate(-6.526 -11.393)" fill="#774234"/>
  <path id="Trazado_25999" data-name="Trazado 25999" d="M47.79,18v-.59h-.3l.13.59Z" transform="translate(-6.526 -11.393)" fill="#774234"/>
  <ellipse id="Elipse_728" data-name="Elipse 728" cx="0.5" cy="0.12" rx="0.5" ry="0.12" transform="translate(41.524 5.617)" fill="#774234"/>
  <path id="Trazado_26000" data-name="Trazado 26000" d="M45.69,66.48h-.58v.3l.57-.14Z" transform="translate(-6.526 -11.393)" fill="#774234"/>
  <path id="Trazado_26001" data-name="Trazado 26001" d="M12.08,76.8h.05C12,76.73,11.81,76.68,12.08,76.8Z" transform="translate(-6.526 -11.393)" fill="#774234"/>
  <path id="Trazado_26002" data-name="Trazado 26002" d="M11.64,76.93a.79.79,0,0,0,.22-.06c-.15-.09-.34-.21-.57-.33C11.52,76.8,11.59,76.94,11.64,76.93Z" transform="translate(-6.526 -11.393)" fill="#774234"/>
  <path id="Trazado_26003" data-name="Trazado 26003" d="M12.13,76.78l-.84-.24c.23.12.42.24.57.33l.22-.07C11.81,76.68,12,76.73,12.13,76.78Z" transform="translate(-6.526 -11.393)" fill="#774234"/>
  <path id="Trazado_26004" data-name="Trazado 26004" d="M14,77.29h.18v-.7H14Z" transform="translate(-6.526 -11.393)" fill="#774234"/>
  <path id="Trazado_26005" data-name="Trazado 26005" d="M12.13,77.06a2.867,2.867,0,0,0,.11.57h.22C12.45,77.46,12.44,77.31,12.13,77.06Z" transform="translate(-6.526 -11.393)" fill="#774234"/>
  <path id="Trazado_26006" data-name="Trazado 26006" d="M12.1,77v.11c.31.25.32.4.33.54l-.05-.67Z" transform="translate(-6.526 -11.393)" fill="#774234"/>
  <path id="Trazado_26007" data-name="Trazado 26007" d="M48.26,21.81h.3l-.13-.57h-.17Z" transform="translate(-6.526 -11.393)" fill="#774234"/>
  <path id="Trazado_26008" data-name="Trazado 26008" d="M11.08,32.2l.85.24c-.24-.27-.31-.4-.36-.39a1.35,1.35,0,0,0-.33.09C11.43,32.3,11.26,32.25,11.08,32.2Z" transform="translate(-6.526 -11.393)" fill="#774234"/>
  <path id="Trazado_26009" data-name="Trazado 26009" d="M11.24,32.14l-.16.06C11.26,32.25,11.43,32.3,11.24,32.14Z" transform="translate(-6.526 -11.393)" fill="#774234"/>
  <path id="Trazado_26010" data-name="Trazado 26010" d="M45.4,50.16V50h-.35v.12Z" transform="translate(-6.526 -11.393)" fill="#774234"/>
  <path id="Trazado_26011" data-name="Trazado 26011" d="M46.33,50.28v-.35h-.11v.35Z" transform="translate(-6.526 -11.393)" fill="#774234"/>
  <path id="Trazado_26012" data-name="Trazado 26012" d="M9.57,27.47H9.45v.36h.12Z" transform="translate(-6.526 -11.393)" fill="#774234"/>
  <path id="Trazado_26013" data-name="Trazado 26013" d="M13,72.73v.35h.12v-.35Z" transform="translate(-6.526 -11.393)" fill="#774234"/>
  <path id="Trazado_26014" data-name="Trazado 26014" d="M9,73.2H8.63v.12H9Z" transform="translate(-6.526 -11.393)" fill="#774234"/>
  <path id="Trazado_26015" data-name="Trazado 26015" d="M43,73.32V73.2h-.4v.12Z" transform="translate(-6.526 -11.393)" fill="#774234"/>
  <path id="Trazado_26016" data-name="Trazado 26016" d="M15.64,74.72H16V74.6h-.35Z" transform="translate(-6.526 -11.393)" fill="#774234"/>
  <path id="Trazado_26017" data-name="Trazado 26017" d="M31,77.53h.35v-.12H31Z" transform="translate(-6.526 -11.393)" fill="#774234"/>
  <path id="Trazado_26018" data-name="Trazado 26018" d="M30.93,13.79h-.12v.35h.12Z" transform="translate(-6.526 -11.393)" fill="#774234"/>
  <path id="Trazado_26019" data-name="Trazado 26019" d="M34,80.45h.12V80.1H34Z" transform="translate(-6.526 -11.393)" fill="#774234"/>
  <path id="Trazado_26020" data-name="Trazado 26020" d="M32.42,38.25v-.16a2.86,2.86,0,0,0-1.15.16Z" transform="translate(-6.526 -11.393)" fill="#774234"/>
  <path id="Trazado_26021" data-name="Trazado 26021" d="M31.26,38.25a2.86,2.86,0,0,1,1.15-.16H31v.16Z" transform="translate(-6.526 -11.393)" fill="#774234"/>
  <path id="Trazado_26022" data-name="Trazado 26022" d="M28.36,41a6.68,6.68,0,0,0-1.06-.6C27.42,40.9,27.6,41.3,28.36,41Z" transform="translate(-6.526 -11.393)" fill="#774234"/>
  <path id="Trazado_26023" data-name="Trazado 26023" d="M27.28,40.32v.1a6.68,6.68,0,0,1,1.06.6Z" transform="translate(-6.526 -11.393)" fill="#774234"/>
  <path id="Trazado_26024" data-name="Trazado 26024" d="M30.11,40.23h-.12C30.17,40.32,30.35,40.37,30.11,40.23Z" transform="translate(-6.526 -11.393)" fill="#774234"/>
  <path id="Trazado_26025" data-name="Trazado 26025" d="M30.48,40.12a1,1,0,0,0-.29.08l.65.31C30.6,40.24,30.53,40.11,30.48,40.12Z" transform="translate(-6.526 -11.393)" fill="#774234"/>
  <path id="Trazado_26026" data-name="Trazado 26026" d="M30,40.27l.85.24-.65-.31h-.08C30.35,40.37,30.17,40.32,30,40.27Z" transform="translate(-6.526 -11.393)" fill="#774234"/>
  <path id="Trazado_26027" data-name="Trazado 26027" d="M30,40.07l-.24-.28-.11.11a1.35,1.35,0,0,0,.32.2Z" transform="translate(-6.526 -11.393)" fill="#774234"/>
  <path id="Trazado_26028" data-name="Trazado 26028" d="M30,40.1a1.35,1.35,0,0,1-.32-.2l.28.24Z" transform="translate(-6.526 -11.393)" fill="#774234"/>
  <path id="Trazado_26029" data-name="Trazado 26029" d="M27.89,39.75h0l.24.29.11-.11a2.1,2.1,0,0,0-.3-.22Z" transform="translate(-6.526 -11.393)" fill="#774234"/>
  <path id="Trazado_26030" data-name="Trazado 26030" d="M27.92,39.72Z" transform="translate(-6.526 -11.393)" fill="#774234"/>
  <path id="Trazado_26031" data-name="Trazado 26031" d="M27.91,39.74Z" transform="translate(-6.526 -11.393)" fill="#774234"/>
  <path id="Trazado_26032" data-name="Trazado 26032" d="M28.21,40l-.28-.24h0A2.1,2.1,0,0,1,28.21,40Z" transform="translate(-6.526 -11.393)" fill="#774234"/>
  <path id="Trazado_26033" data-name="Trazado 26033" d="M27.89,39.75Z" transform="translate(-6.526 -11.393)" fill="#774234"/>
  <path id="Trazado_26034" data-name="Trazado 26034" d="M27.89,39.75Z" transform="translate(-6.526 -11.393)" fill="#774234"/>
  <path id="Trazado_26035" data-name="Trazado 26035" d="M27.91,39.74Z" transform="translate(-6.526 -11.393)" fill="#774234"/>
  <path id="Trazado_26036" data-name="Trazado 26036" d="M30.71,38.38l.1.26a.93.93,0,0,0,.16-.29Z" transform="translate(-6.526 -11.393)" fill="#774234"/>
  <path id="Trazado_26037" data-name="Trazado 26037" d="M30.71,38.38h-.02Z" transform="translate(-6.526 -11.393)" fill="#774234"/>
  <path id="Trazado_26038" data-name="Trazado 26038" d="M30.81,38.64l.23-.29H31a.93.93,0,0,1-.19.29Z" transform="translate(-6.526 -11.393)" fill="#774234"/>
  <path id="Trazado_26039" data-name="Trazado 26039" d="M31,38.35Z" transform="translate(-6.526 -11.393)" fill="#774234"/>
  <path id="Trazado_26040" data-name="Trazado 26040" d="M30.7,38.35h0L30.49,38l-.11.11a1,1,0,0,0,.31.21Z" transform="translate(-6.526 -11.393)" fill="#774234"/>
  <path id="Trazado_26041" data-name="Trazado 26041" d="M30.69,38.35h0a1,1,0,0,1-.31-.21l.28.25Z" transform="translate(-6.526 -11.393)" fill="#774234"/>
  <path id="Trazado_26042" data-name="Trazado 26042" d="M30.7,38.35Z" transform="translate(-6.526 -11.393)" fill="#774234"/>
  <path id="Trazado_26043" data-name="Trazado 26043" d="M27.56,31.7h0Z" transform="translate(-6.526 -11.393)" fill="#774234"/>
  <path id="Trazado_26044" data-name="Trazado 26044" d="M27.55,31.69h0l-.29.24.11.11a1.33,1.33,0,0,0,.23-.3Z" transform="translate(-6.526 -11.393)" fill="#774234"/>
  <path id="Trazado_26045" data-name="Trazado 26045" d="M27.54,31.68Z" transform="translate(-6.526 -11.393)" fill="#774234"/>
  <path id="Trazado_26046" data-name="Trazado 26046" d="M27.54,31.68Z" transform="translate(-6.526 -11.393)" fill="#774234"/>
  <path id="Trazado_26047" data-name="Trazado 26047" d="M27.33,32l.25-.28h0a1.33,1.33,0,0,1-.25.28Z" transform="translate(-6.526 -11.393)" fill="#774234"/>
  <path id="Trazado_26048" data-name="Trazado 26048" d="M27.56,31.7Z" transform="translate(-6.526 -11.393)" fill="#774234"/>
  <path id="Trazado_26049" data-name="Trazado 26049" d="M27.55,31.69Z" transform="translate(-6.526 -11.393)" fill="#774234"/>
  <path id="Trazado_26050" data-name="Trazado 26050" d="M36,19.14Z" transform="translate(-6.526 -11.393)" fill="#774234"/>
  <path id="Trazado_26051" data-name="Trazado 26051" d="M36,19.14h0v-.09h0l-.69.05v.67A2.29,2.29,0,0,0,36,19.14Z" transform="translate(-6.526 -11.393)" fill="#774234"/>
  <path id="Trazado_26052" data-name="Trazado 26052" d="M36.03,19.14h0v0Z" transform="translate(-6.526 -11.393)" fill="#774234"/>
  <path id="Trazado_26053" data-name="Trazado 26053" d="M35.95,19.05h.01l-.01-.01Z" transform="translate(-6.526 -11.393)" fill="#774234"/>
  <path id="Trazado_26054" data-name="Trazado 26054" d="M36.03,19.14Z" transform="translate(-6.526 -11.393)" fill="#774234"/>
  <path id="Trazado_26055" data-name="Trazado 26055" d="M36,19.14h0v-.09h0Z" transform="translate(-6.526 -11.393)" fill="#774234"/>
  <path id="Trazado_26056" data-name="Trazado 26056" d="M36,19.14a2.29,2.29,0,0,1-.73.62l.82-.53Z" transform="translate(-6.526 -11.393)" fill="#774234"/>
  <path id="Trazado_26057" data-name="Trazado 26057" d="M35.95,19.04Z" transform="translate(-6.526 -11.393)" fill="#774234"/>
  <path id="Trazado_26058" data-name="Trazado 26058" d="M35.96,19.05h0l-.01-.01h0Z" transform="translate(-6.526 -11.393)" fill="#774234"/>
  <path id="Trazado_26059" data-name="Trazado 26059" d="M29.35,34.56v.93h.31l-.13-.92Z" transform="translate(-6.526 -11.393)" fill="#774234"/>
  <path id="Trazado_26060" data-name="Trazado 26060" d="M41.9,22.93a1.41,1.41,0,0,0,.18.68l.63-.61Z" transform="translate(-6.526 -11.393)" fill="#774234"/>
  <path id="Trazado_26061" data-name="Trazado 26061" d="M42,23.72l.12-.11a1.41,1.41,0,0,1-.18-.68Z" transform="translate(-6.526 -11.393)" fill="#774234"/>
</svg>
