<svg version="1.1" id="Capa_1"
	xmlns="http://www.w3.org/2000/svg"
	xmlns:xlink="http://www.w3.org/1999/xlink" x="0px" y="0px" viewBox="0 0 96.6 100.6" width="96.6" height="100.6" style="enable-background:new 0 0 96.6 100.6;" xml:space="preserve">
	<path fill="#363F66" d="M64.5,56.2h3.6v0.2l-4,0.6l-0.6,0.6l1.8,0.2c-1.2,0.2-2.6,0.6-3.6,1c1.2,0.4,2.4,0.4,3.4,0h0.4
	c1.4-0.2,2.8-0.2,4.2-0.2c0.6,0,1.2-0.8,2,0c0.4-0.6,1.4,0,2-0.6c0,0,0.4,0,0.6,0l0.2,0.8l0.4-0.8c0.6,0,1.2,0,1.8-0.2
	c0.4-0.2,1,0,1.6-0.2c0.6-0.2,1.2,0,1.8,0c0.6-0.2,1.4-0.4,2-0.6l-0.8-3c0,0,0.2-0.2,0.2-0.4L80.9,53l0.4-0.6l-0.2-0.2l-0.6,0.4
	l-0.4-0.4l-1.4,0.4v-0.2l1.8-0.6c-0.2-0.2-0.4-0.4-0.6-0.4c-0.4,0-0.8,0.2-1,0.4l-0.6-0.6c-0.6,0-1,0.2-1.6,0.4
	c-0.6,0.2-1.2,0.2-1.6,0.4c-0.4,0.2-0.8-0.2-1.4,0c-0.4,0.2-1,0.2-1.4,0.4c-0.6,0-1.2,0-1.6,0h-1.6l1.2-4.4h0.2v1.6
	c0.4-0.6,0.6-1.2,0.8-2c0-0.4,0.2-0.8,0.4-1.2c0-0.4,0.2-0.6,0.4-1c0.2-0.4-0.2-0.8,0.4-0.8c0.2,0.4,0.2,0.6,0.4,1
	c-0.4,0.4-0.4,0.4,0,1c0-0.4,0-0.6,0-1c0-0.4,0.4-0.4,0.4-0.4c0-1,0.4-2,1-2.8l2.2,1.6l0.4,0.4c-0.2,0.4,0.2,0.8,0.6,1l0,0v0.8
	c0.8,0.6,1.4,1.4,2,2.2c0.2,0.4,0.6,0.8,1.2,0.6c1,0.6,1.4,1.8,2.2,2.4V52l0.8-0.2c0.8,0.6,1.6,1.2,2.4,2c0.8,0.8,1.4,0.4,1.8,1
	c0,0,0.2,0,0.4,0c0.4-0.4,0.8,0,1.2-0.2c1-0.4,2.2-0.6,3.4-1c0,1.2-0.2,2-1.4,2.2v0.8L90.1,57l-0.6-0.4L88.9,57l-1.2-0.4l0.4,0.8
	L87.3,58l0.2,0.4l-0.8,0.8c0.2,0.2,0.2,0.4,0.4,0.6c0.2,0.4,0.2,1,0.4,1.4c0,0.4-0.2,0.6,0,1c0.2,0.6,0.4,1.2,0.4,1.8
	c0,0.6,0,1.2,0,2l1.6-1.8v1.4h1v1.2l1.6,1.2l1.8-0.8l1,1.8c0.6,0.2,1.4,0,1.8-0.6v7l-1.6,1.2v-0.8l1-1v-4c-0.6-0.6-1.2-0.8-2-0.8
	c-0.8-0.2-1.8,0-2.6,0.2c-1.6,0.4-3,0.8-4.6,1c-0.8,0-1.6,0.2-2.4,0.6c-0.8,0.4-1.6-0.2-2.2,0.4c-0.2,0.2-0.6,0-1,0h-1.6
	c-0.2,0.8-0.8-0.2-1.4,0.2c-0.4,0.4-1,0-1.6,0.2c-0.6,0.2-1,0.6-1.4,0.6c-0.4,0-1.2,0.4-1.8-0.2c-0.2,0-0.2,0.4-0.4,0.4
	c-0.6,0-1.4,0-2,0c-0.6,0-1.2,0.2-1.8,0.4c-0.4,0-0.8,0-1.2-0.2c-0.2-0.2-0.8,0.2-1.2,0.2c-2-0.2-4,0.4-6.2,0.4
	c-0.2,0-0.4,0.2-0.6,0.2L59.7,74c-0.4,0-0.8,0.6-1.4,0c-0.4,0.4-1,0-1.6,0.2c-0.6,0.2-1.2,0-1.8,0c-0.6,0-1.2,0-1.8,0
	c-0.6,0-1.2-0.2-1.8,0.2c-0.2,0.2-0.8-0.2-1.2-0.2s-0.8,0.6-1.4,0.2l-3.6,0.2l-0.2,0.2c-1-0.6-2-0.2-3-0.2s-2-0.2-3-0.4
	c-1,0-2,0.2-2.8-0.6c0.2-0.2,0.8,0,0.8-0.6c1-0.8,1.6-2,2.8-2.6c0.2,0,0.4-0.4,0.6-0.6c0.8-0.8,1.6-1.6,2.4-2.4c0,0,0.2,0,0.2-0.2
	c1.8-2.2,4.6-3.2,7-5.2h-1.6c-1.8,0.8-3,2.2-4.6,2.8L43.5,65c-1.6,1.4-3,2.8-4.6,4.2c-0.6,0.6-1,1.2-1.4,1.8c-0.4,0.6-0.8,1-1.4,1.6
	c-1,1-1.8,2.2-2.6,3.2c-0.8,1-1.2,1.6-2,2.6c0.8-0.2,1.6-0.8,2.2-1.6c0.6-0.6,1-1.2,1.6-2c0.6,0.2,1.4-0.2,1.8,0.4
	c0.6-0.2,1.2,0.2,2,0s1.2,0.2,1.8,0.2c1,0,2,0,3,0c0.8,0,1.8,0.2,2.6-0.4c0.2,0,0.2,0,0.4,0c1.2,0.4,2.4,0.6,3.8,0.4
	c1.2,0,2.6,0,4,0c0.4,0,0.8-0.2,1.2-0.2c0.4,0,0.8,0.4,1.2,0.2c1.4-0.4,2.8-0.4,4.2-0.2c1.6,0,3-0.6,4.6-0.4c1.6,0.2,3.2,0.2,4.8,0
	c1,0,1.8-0.4,2.8-0.4c1,0,1.8,0.4,2.6-0.4c0.8,0.6,1.8-0.4,2.6,0c0.8-0.6,1.8-0.2,2.6-0.4c1.6-0.4,3.2-0.6,4.8-0.8
	c1-0.2,2-0.4,3-0.8c1.2-0.2,2.4-0.6,3.6-0.8c0.6-0.2,1.2-0.4,1.8-0.6c0.2,1,0,2.2-0.4,3l0.2,0.4l-0.4,1.2c-1.4,0.4-3,0.4-4.6,0.2
	c0.8,0,1.4-0.2,2.2-0.2c0.8-0.2,1.6-0.4,2.4-0.6c-1-0.2-2-0.2-3,0.2c-1,0.2-2,0.2-2.8,0.2c0.4-0.4,1-0.6,1.4-0.6c0.6,0,1,0,1.6-0.2
	l0.4-0.6c-1.2-0.2-2.2,1-3.2,0.2l-2.8,0.6L85.1,74l-0.2,1h1.8v0.2c-0.8,0-1.6,0-2.2,0.4c-0.8,0.4-1.4,0-2.2,0.4
	c0.4-0.6,1-0.4,1.2-0.4l1.4-0.6c-1-0.4-2.2-0.2-3.2,0.4V76h-0.4v-0.6c-0.8,0-1.4-0.4-2.2,0.2c-0.2,0-0.4,0-0.6,0c-0.6,0-1.2,0-1.6,0
	c-0.4,0-1,0.4-1.4,0.2s-1,0.6-1.4,0c-0.4,0.2-1,0.6-1.2,1V76h-1.6l-0.4,0.4l1.4,0.2l-1.2,0.8l1.4,0.2l-1,1l0.8,0.4
	c-0.2,0.2-0.2,0.4-0.4,0.6c0.4,0.6,0.6,0,1,0c0.6,0.2,1.2-0.2,1.8,0s1.2-0.4,1.8-0.4c0.6,0.2,1.4,0.2,2,0c1.8-0.2,3.6-0.4,5.6-0.4
	c0.4,0,0.8-0.4,1.4-0.4s1.2,0.2,1.4,0s0.6,0,1-0.2c0.4-0.2,0.8-0.2,1.4-0.2l1-0.6l0.6,0.4l-1.2,1.4c0.2,0.4,0.4,0.8,0.4,1.2
	c0.2,1.6,0,3.2-0.6,4.6c-0.2,0.6-0.2,1.4,0,2.2c0.4,0.8,0.4,1.6,0,2.4c-0.2,0.2,0,0.6,0,1V96c-1.4,0.6-2.8,0.6-4.4,0.6
	c-2,0-4,0.6-6.2,0.4c-0.2,0-0.4,0.2-0.6,0.4c-0.4-0.4-1.2-0.6-1.8-0.2c-0.6,0.4-1.2,0-1.6,0.2c-0.6,0.2-1.4,0.2-2,0.2
	c-0.6,0.2-1.2,0.4-1.8,0.4c-0.6,0.2-1.4,0.4-1.8,0.8c0-0.4,0-1,0.2-1.4c0.2-0.4-0.4-0.8,0.2-1c-0.6-0.4,0-0.8,0-1
	c-0.2-0.4-0.2-0.8-0.2-1.2c0-0.4,0-0.8,0-1.4v-1.4c0-0.4,0.2-1-0.4-1.2l0.4-0.4c-0.6-1-0.8-2-0.6-3.2c0-0.4-0.6-0.6-0.2-1
	s0-0.6-0.2-0.8c0-0.4,0-0.8,0-1.2h-0.6l-0.2,1.6c-0.8-0.4-0.6-1-0.6-1.8c-0.8,0.4-1.6,0-2.2,0.8L64.3,84c-0.6-0.4-1,0.2-1.6,0.2
	l-0.6,1.4h-1.4c-0.4,0-0.8-0.2-1,0.4c-0.4-0.4-0.6,0.2-1,0l-0.2-0.6c-0.8-0.2-1.6,0-2.4,0.2l-0.6-0.4l-0.8,0.4L54.1,85v1l-1.2,0.4
	c0,2,0,3.8,0,5.8c0,0.8,0.2,1.6,0.4,2.4c-0.2,0.8-0.2,1.6,0,2.4c0.2,1,0.4,1.8,0.4,2.8l-0.6-0.4c-0.6,0.8-1.8,0-2.6,0.6
	c-0.8,0.4-1.8,0.6-2.8,0.6l-1.4-1h-1.2c0.8-0.4,1.2-1.2,1.2-2.2c0.4-1,0.4-2,0.4-2.8c0-0.2,0.2-0.4,0.2-0.4c-0.6-0.8,0-1.8-0.4-2.8
	c0-0.2-0.2-0.2,0-0.4c0.4-1.4,0.2-3-0.6-4.2c-0.2-0.6-0.4-1.2-0.4-1.8l-6,1l0.4,1.4c-0.2,0-0.6-0.2-0.8-0.4c-0.8-0.6-1.4-1.2-2-1.8
	l-0.8,0.6l0.4,0.6l-0.6,0.2c0,0.4,0.2,1,0.4,1.4c0.2,0.4-0.4,0.6,0,1.2c0.4,0.6,0,0.8-0.2,1.6c0,0.2,0.2,0.4,0.2,0.4
	c0,0.2,0,0.4,0,0.4c0,1.2,0,2.2,0,3.4c0.2,1,0.4,2.2,0.4,3.2c0,0.6-0.2,1.4-0.4,2l-4-0.4c-0.8-0.6-1.8-0.8-2.6-0.2
	c-1.4,0.4-2.6,0.6-3.8,0.4l-0.4-1l1.6-1.6c0.2-1.6,0.2-3.2,0.4-4.6c0.2-0.6,0.2-1.2,0.4-1.8c0-1.4-0.2-2.6-0.4-4c0-1.4,0-2.6,0-4
	c-0.6-0.4,0.4-1-0.2-1.6c0.4-0.4-0.2-0.8-0.2-1.4c0.2-1.2,0-2.4-0.4-3.6s-0.4-2.6-0.8-3.8c-0.4-1-0.6-2.2-0.4-3.4
	c0-0.8,0-1.6-0.4-2.2l-1-2.8c-0.2-1-0.4-2-0.8-3c0-0.4,0-0.8,0-1.2c-0.2-0.6-0.4-1.4-0.6-2c-0.4-1.4-1-2.8-1.8-4.2
	c-1-1.4-1.6-2.8-2-4.4c0-0.6-0.4-1-0.8-1.4c-1.2-0.8-1.8-2.4-3-3.4v-0.6c-0.6,0-1.2-0.6-1.4-1.4c-0.8,0-1.4-0.4-1.8-1.2
	c-0.8-1.4-2-2.6-2.8-4c0-0.2-0.2-0.4-0.2-0.6c-0.4-0.2-0.8-0.2-1.2-0.4c-0.4-0.2-0.8-0.6-1-1c-0.4-0.6-0.8-1-1.4-1.4s-1.2-1-1.6-1.6
	c-1.2-0.4-2-1.2-2.6-2.2c-0.8-0.8-1-1.8-0.6-2.8L1,26.9l0.4,0.4l0.4-1l0.2-1c0.4,0,0.6,0,0.8-0.4c0.2-0.4,0.6-0.4,0.8-0.4
	c-0.6,0.6-1.2,1.4-1.6,2l0,0l-0.2,0.2H2c0,0,0,0,0.2-0.2h0.4c0.6-0.8,1.2-1.4,2-2c0.8-0.4,1.4-1,1.8-1.8c0.8,0,1-0.2,1-1l0.4-0.4
	h0.6c0,0.4,0,0.6-0.4,0.8c-0.2,0.2-0.4,0.6-0.6,0.8l0,0l-0.2,0.2v0.2l0.2-0.2c0.2,0,0.4-0.2,0.8-0.2c0.2-0.2,0.8-0.6,1.2-0.8
	c1.8-0.4,3.6-0.6,5.4-0.8c0.6,0.4,1.2,0.6,1.8,0.6c1,0,2,0.4,3,1c0.2,0.2,0.4,0.2,0.6,0.4c-0.2-0.4-0.4-0.8-0.8-1
	c-0.4-0.4-0.8-0.6-1.4-1c0.4,0,0.6,0,1,0.2c0.4,0.2,0.8,0.6,1.2,0.8c0.4,0.2,0.8,0.4,1.2,0.8c0.4,0.6,1.2,0.8,1.2,1.6l-0.8-0.4
	c-0.4-0.2-0.6-0.6-1-0.8c0,0.4,0.4,0.8,0.8,0.8h0.2c0.4,1,1,2,1.8,2.6l0,0l0.2,0.2h0.2l-0.2-0.2c0-0.4,0-0.8-0.4-1.2
	c-0.2-0.4-0.6-0.8-0.8-1.2c0.6,0,0.8,0.2,1,0.8c0.2,0.6,0.4,1.4,1.4,1.6l-0.6-2c0.8,0.4,1,1.4,1.8,2c0-0.4,0-0.6-0.2-1
	c-0.6-1.4-1.6-2.8-2.4-4c-1-1.2-2.2-1.6-3.4-2.6c-1.6,0-3-1-4.6-0.8c-0.8,0-1.8,0-2.6,0c-0.8,0.2-1.6,0-2.2,0.4
	c-1.2,0.4-2,0.6-2.8,0.6c-0.4,0.4-1,0.6-0.8,1.4C7,21.1,7,21.1,6.8,21.3c-0.2,0-0.4,0-0.6,0.2c-0.2,0-0.4,0.2-0.6,0.4
	c-0.2,0.2-0.4,0.2-0.6,0.2l0.4,0.4c0.4-0.4,1-1,1.4-1.4C7,20.9,7,20.9,7.2,20.7l1-0.4l-0.4,1l-0.2,0.6c-0.2,0.2-0.4,0.4-0.4,0.4
	c-0.6,0-0.6,0.4-0.6,0.8c-0.2,0-0.4,0-0.6,0.2l-0.8,0.2l-0.4-0.6c-1,0.6-2,1.4-2.6,2.2v0.4H1.4v0.6l-1,0.2L0,25.9
	c-0.2-1,0-1.8,0.6-2.6c0.2-0.2,0.4-0.4,0.6-0.6C2,22.3,2.4,21.9,3,21.5c1.2-0.8,2.4-1.6,3.6-2.6c0.4-0.2,1-0.2,1.2-0.6
	c0.4-0.2,1.4,0,2-0.6c0.6-0.6,1.2-0.4,1.8-0.4c0.6,0,1-0.2,1.6-0.4c1-0.6,2,0,3-0.6c0.2,0,0.4,0.2,0.8,0.2l0.2-0.2l3.2,2l2.4-0.4
	c1.6,1,2.8,2.4,3.6,4.2l0.4-0.6c0-1.4,0.4-2.8,1.2-4c0.2-0.4,0-1,0.8-1.2l0.4,0.6l-1.6,3c0,0.8,0,1.6-0.4,2.2
	c-0.2,0.8,0.2,1.6-0.4,2.4c0.2,1.6-0.4,3.2-0.4,5c0,0.4,0.2,1,0.4,1.4c0.2,0.4,0,1,0,1.6c0,0.6-0.2,1,0.2,1.2c-0.4,0.4,0,0.8,0,1.2
	c0.2,0.8,0.2,1.6,0.4,2.4c0,0.8,0.2,1.6,0.6,2.2c0.2,0.2,0,0.6,0,0.8c0,1.2,0.4,2.4,1,3.4c0,0.6,0,1.2-0.2,2c-0.2,1.2,0,2.4,0.8,3.4
	l0.2-1.4l1.2,1.2v0.6h1c0.4,1,1.6,1.6,1.2,2.8c0.4,0.8,1.4,1,1.4,2c-0.8-0.2-1-1.4-2-1.4c0.4,0.6,0.6,1,1,1.4
	c0.4,0.4,0.8,0.8,1.4,1.4v-1h0.6l0.4,1L35.3,56l2.2,2.2h-0.6c0.2,0.4,0.2,1,0.6,1c0.8,0.2,1.2,1.2,2.2,1c0.2,0.6,0.6,0.2,1,0.4
	c0.4,1.2,1.8,0.8,2.6,1.2l0.2-0.2l0.6,0.4v-0.2l-1-1c0.4-0.2,0.8-0.2,1-0.2c0.2,0,0-0.2,0-0.2l-0.4,0.2c0.2,0,0.4,0.2,0.4,0
	c-0.4-0.2-0.6-0.6-0.8-0.8h1.4V59l-0.8,0.2c-0.4-0.6-1.2-0.2-1.8-0.8h1.6v-0.2c-0.4-0.2-0.8-0.4-1.2-0.4c-0.4,0-0.8-0.4-0.8-0.6
	l2.2,0.4c-0.4-0.4-0.8-0.6-1.2-0.8c-0.8-0.4-1.8-0.4-2.2-1.4l1.2,0.4c-1.8-1.6-3.6-3.2-5.2-4.8c-0.2,0-0.2-0.2-0.4-0.2
	c-0.2-0.4,0.4-0.8-0.4-1l0,0l-0.2-0.2l0,0l0.2,0.2c0.2,0.4-0.2,0.8,0.4,1c0,0.2,0,0.4,0.2,0.6c0.8,0.8,1.4,1.6,2,2.4h-0.6
	c-0.2-0.4-0.4-1-0.8-1.4c-0.8-0.8-1.6-1.8-2-2.8c0,0-0.2-0.2-0.4-0.2v-1.4l1,1l0.2-1l2.2,0.4c1.2,0.2,2.4,0.8,3.4,1.6
	c0.2,0.2,0.6,0.4,0.8,0.4c1.2,0.4,2,1.4,2,2.6c1.4,0.8,1.6,0.8,2,1.6c0.4,0.2,1,0.2,1.2,0.6c1,1,2.4,1.6,3.8,2
	c1,0.4,2.2,0.4,3.2,0.2c0.2-0.6,0.8,0.4,1.2-0.2c0.4-0.4,0.8-0.4,1.4-0.4s0.2-0.6,0.6-0.6s0.6,0,1-0.2c0.4-0.2,1.2-0.4,1.4-1
	c0.2-0.6,1-0.4,1.6-0.8c0.8-0.4,1.6-1,2.6-1.4l0.2,0.2l2.6-2.6h0.8v1.2l-1.6,1.2l0.8,2.6c1-0.4,2.2-0.6,3.2-0.4
	c-1.2,0.4-2.4,0.6-3.6,0.6C65.9,55.4,65.1,55.6,64.5,56.2L64.5,56.2l-0.2,0.2L64.5,56.2C64.5,56.4,64.5,56.4,64.5,56.2z M68.5,82.6
	L68.5,82.6l0.2,0.2l0,0C68.7,82.8,68.7,82.8,68.5,82.6L68.5,82.6l-0.4-0.2v0.2C68.3,82.8,68.5,82.8,68.5,82.6L68.5,82.6z M92.1,73.6
	L92.1,73.6l0.2,0.2h0.2C92.5,73.6,92.3,73.6,92.1,73.6c-0.2-0.2-0.4-0.2-0.6-0.4l0.8-0.8l-1,0.2c0,0.2,0.2,0.4,0.4,0.6
	C91.9,73.2,92.1,73.4,92.1,73.6z M6.6,24.3l-0.4,0.4c-0.4-0.2-0.8,0.2-1,0.6v0.2l0,0L5,25.7l0,0l0.2-0.2c0.4,0.2,0.8-0.2,1-0.6l0,0
	C6.2,24.7,6.4,24.5,6.6,24.3L6.6,24.3L6.6,24.3l0.2-0.2C6.6,24.1,6.6,24.1,6.6,24.3z M20.9,27.1L20.9,27.1l-0.2,0.2h0.2
	C20.9,27.3,20.9,27.1,20.9,27.1L20.9,27.1l0.2-0.2l-0.2-0.2C20.9,26.9,20.9,26.9,20.9,27.1z M4.8,27.7L4.8,27.7l-0.2-0.2v0.2
	C4.6,27.7,4.8,27.7,4.8,27.7L4.8,27.7l0.4,0.2h0.2C5.2,27.9,5,27.7,4.8,27.7z M84.5,57L84.5,57l0.2-0.2l0,0
	C84.7,56.8,84.7,57,84.5,57L84.5,57l-0.2,0.4v0.2C84.5,57.2,84.5,57,84.5,57z M85.9,56L85.9,56l0.2,0.2h0.2
	C86.3,56.2,86.1,56,85.9,56L85.9,56l-0.2-0.2V56C85.7,55.8,85.9,56,85.9,56L85.9,56z M5.2,30.5L5.2,30.5L5,30.3l0,0
	C5,30.3,5,30.3,5.2,30.5c0.2,0,0.4,0.2,0.2,0.4l0.8,0.4l0.4-0.4c-0.4,0-0.8,0-1.2,0C5.4,30.7,5.2,30.5,5.2,30.5z M75.3,48.5
	L75.3,48.5l0.2-0.2v-0.2C75.5,48.1,75.3,48.3,75.3,48.5L75.3,48.5l-0.2,0.2l0,0C75.3,48.7,75.3,48.5,75.3,48.5L75.3,48.5z
	 M74.3,48.1L74.3,48.1l0.2-0.2l-0.2-0.2C74.5,47.9,74.3,47.9,74.3,48.1L74.3,48.1l-0.2,0.2L74.3,48.1L74.3,48.1L74.3,48.1z
	 M17.9,44.9L17.9,44.9l0.2,0.4v-0.2L17.9,44.9L17.9,44.9l-0.2-0.2h-0.2C17.5,44.7,17.7,44.9,17.9,44.9z M14.7,41.3L14.7,41.3
	l0.2,0.2l0,0C14.9,41.5,14.9,41.3,14.7,41.3L14.7,41.3l-0.4-0.2l-0.2,0.2C14.5,41.3,14.7,41.3,14.7,41.3z M2,29.5L2,29.5l-0.2-0.2
	H1.6c0.2,0.2,0.4,0.2,0.6,0.2H2l0.2,0.6h0.2C2.4,29.9,2.4,29.5,2,29.5z M71.9,48.9L71.9,48.9l-0.2-0.2v0.2c0,0,0.2,0.2,0.6,0.2
	L71.9,48.9l0.2,0.6h0.2C72.5,49.3,72.3,48.9,71.9,48.9z M73.7,72.4c0.2-0.2,0.4-0.4,0.4-0.4c0-0.2,0-0.4-0.2-0.4
	c0,0.2-0.2,0.4,0.2,0l0,0l0.2-0.2h-0.2C73.9,71.6,73.9,72,73.7,72.4L73.7,72.4z M28.3,68L28.3,68l-0.2-0.6v0.2
	c0.2,0.2,0.4,0.2,0.6,0.2L28.3,68l0.2,0.8h0.2C28.7,68.4,28.5,68,28.3,68L28.3,68z M84.3,55.2c0.4-0.4,0.4-0.4,0-1
	C84.3,54.8,84.3,55,84.3,55.2L84.3,55.2l-0.2,0.4h0.2C84.1,55.4,84.1,55.4,84.3,55.2L84.3,55.2z M23.1,51.6h-0.2l0.2,0.6h0.2
	C23.1,52,23.1,51.6,23.1,51.6l-0.8-1C22.1,51.2,22.5,51.4,23.1,51.6z M35.7,57.6L35.7,57.6l0.6,0.6v-0.6c-0.2,0-0.6,0-0.8,0
	l-0.8-0.8C34.9,57.2,35.1,57.8,35.7,57.6z M3.2,27.3c0.4-0.4,0.6-0.6,1-1l0,0l0.2-0.2l-0.2-0.2c0,0-0.2,0.2-0.2,0.4
	C3.4,26.3,3.2,26.5,3.2,27.3L3.2,27.3l-0.4,0.2H3C3,27.5,3,27.5,3.2,27.3z M30.3,50.1L30.3,50.1l-0.2-0.4l0,0l0.2,0.2l0.6,1.6
	C31.1,50.8,30.9,50.3,30.3,50.1z M17.5,42.7l-0.4-0.4v-1l0.6,0.4l0.4-0.8c0.4,0.4,1,0.6,1.2,1c0.2,0.4,1,0.8,0.8,1.6
	c-0.8-0.4-1.2-1.2-1.8-1.8h-0.2v0.8c0.8,0.8,1.6,1.6,2,2.6c0.2,0.2,0.4,0.4,0.6,0.4c0,0.2,0.2,0.4,0.2,0.8c0,0.4,0.6,0.6,0.8,0.8
	c0.2,0.2,0.2,0.8,0.4,1.2c0.4,0.6,0.8,1.4,1,2.2c0,0.2,0,0.4,0.2,0.4c0.4,0.6,0.8,1.2,0.8,2h-0.6l-0.2-0.6h-0.2
	c0,0.2,0.2,0.4,0.4,0.6c0.2,1.6,1.2,3,1.6,4.8c0,0.2,0.4,0.2,0.8,0.4h-0.2l0.2,0.6h0.2c0-0.2-0.2-0.4-0.4-0.6c0-0.8-0.2-1.8-0.8-2.6
	c-0.4-0.8-0.6-1.6-0.8-2.6c0.2,0,0.2,0.2,0.4,0.2c0.6,1.8,1.4,3.8,2.4,5.4c0.6,0,0.4-0.4,0.4-0.6c0.6,0.4,0.8,1.2,0.6,1.8l-1.2-0.4
	l0.8,1l0.8-0.4l0.8,2.4l-0.2,0.4h-0.8c0,0.6,0,1.4,0.4,1.8c0.4,0.4,0,1.4,0.6,1.6l0,0l0.2,0.2h0.2c0,0-0.2-0.2-0.4-0.2
	c0.2-1.2-0.4-2.2-0.4-3.4c0.4,0,0.6,0.4,0.6,0.8s0.2,1,0.2,1.4l-0.2,0.4c0,0.2,0.4,0.2,0.4,0.4c0,1.2,0.8,2.4,0.6,3.6
	c0.6,0.4,0,1.4,1,1.6l-0.4,0.4c0,0,0,0.2-0.2,0.2l0.8,4.8c0.2-1.8,0-3.6-0.6-5.4l0.2-0.8c-0.2-0.8-0.4-1.8-0.6-2.6
	c0-0.6-0.2-1.4-0.4-2c-0.4-1-0.6-2-0.6-3c0-0.2,0-0.6-0.2-0.8c-0.4-0.6-0.6-1.4-0.4-2.2c-0.2-0.2-0.2-0.2-0.4-0.4
	c-0.4-0.8-0.8-1.6-1-2.6c-0.6-1.6-1.2-3.2-1.8-4.8c-0.2-1-0.6-1.8-1.2-2.6c-0.4-0.6-0.6-1.2-1-1.6c-0.6-0.8-1-1.8-1.4-2.6
	c-0.4-1-1.4-1.6-1.8-2.4c-0.2-0.6-0.8-1.4-1.4-2c-0.2-0.4-0.4-0.8-0.8-1s-0.6-0.4-1-0.8c-0.4-0.4-0.8-1-1.2-1.4
	c-0.4-0.4-0.8-0.8-1.2-1.4s-0.8-1.2-1.4-1.4c-0.6-0.2-0.8-1-1.2-1.2c-1-0.6-2-1.2-3-2c-0.6-0.4-1-0.8-1.4-1.2H7l-1.4-1.4H4.2
	l-0.6-1.2l-0.4,0.2l0.4,1c0.6,0.2,1.2,0.6,1.8,1c1.8,1.6,4.2,2.4,5.8,4.4c0.8,0.4,1.4,1,1.8,1.8c-0.6,0.2-0.8-0.4-1.2-0.6
	c-0.4-0.2-0.6-0.8-1.2-0.6c-0.8-0.8-1.2-1.6-2.4-2c0.4,1.2,1.6,1.6,2.4,2c0.2,0.4,0.2,0.8,0.4,1c1.4,0.6,2.2,2,3.2,3
	c0.2,0.2,0.4,0.6,0.4,0.8h-0.2c-0.2-0.8-0.8-1.6-1.8-1.6c0-0.4-0.2-0.8-0.6-1c-0.2-0.2-0.6-0.2-0.8-0.4l0,0L11,35.9h-0.2l0.2,0.2
	c0,0.4,0.2,0.8,0.6,1c0.2,0.2,0.6,0.2,0.8,0.4l1.2,1.6h0.4l1,0.8c0,0.2,0,0.4,0.2,0.6c0.6,0.6,1.2,1.2,2,1.8L17.5,42.7
	c0,0.8,0.6,1,1,1.4c0,1.2,0,1.2,1,1.4v0.8l1,0.8c0,0.2-0.2,0.6,0.4,0.6v0.6l1.4,1.4c-0.4-0.8-0.8-1.4-1.4-1.8c0-0.2,0.2-0.6-0.4-0.6
	c-0.2-0.6-0.2-1.4-1-1.6c0-0.8-0.4-1-1-1.4C18.5,43.3,18.1,42.9,17.5,42.7z M2.8,28.5L2.8,28.5l-0.2-0.2l-0.2,0.2
	C2.6,28.3,2.8,28.3,2.8,28.5l-0.2,0.2l0.8,0.8C3.2,29.1,3,28.7,2.8,28.5z M75.7,46.3L75.7,46.3l0.2,0.2l0,0c0,0-0.2-0.2-1,1.2h0.2
	C75.3,47.3,75.5,46.7,75.7,46.3s0.6-0.6,0.2-1.2l-0.6,0.8C75.1,46.3,75.1,47.1,75.7,46.3z M78.5,48.3c-0.8-0.2-1.8,0-2.4,0.4
	c0,0.6-1,0.6-0.8,1.2v0.4l1.4,0.6l-0.6-1.2c0.8-0.4,1.4-0.8,2-1.2l0,0l0.2-0.2v-0.4C78.3,47.9,78.1,48.3,78.5,48.3L78.5,48.3z
	 M65.9,80l0.6,0.8l0.8-0.4l1.2,0.4l1-1c-0.4-1.2-1.6-1.8-1.4-3.2l-3.4,0.6c0.4,0.2,0.8,0.2,1.4,0.2c0.4,0,1-0.4,1.4,0.4l-4,0.6
	l1,0.4l0.4-0.2l0.4,0.4c0.6-0.4,0.6-0.4,1.8-0.2c-1.6,1-3.8,0-5.4,0.8l-1.6-1h2.8L62.1,78l-4,0.4V79l1.8-0.2c-0.4,0.6-1,0.8-1.8,1
	v0.6l1.2-0.4v0.8c-0.6,0-1.2,0-1.8,0s-1.2-0.2-1.8,0.4l-0.4-0.4c-2.2,0.4-4.4,0.4-6.6,0.2c0.4,0,1,0,1.4-0.2c0.2,0,0.2-0.2,0.2-0.6
	l0.6,0.4c0.6,0,1.2-0.4,1.6,0c0.6,0.4,1.2-0.2,1.4,0c0.6,0.4,1-0.2,1.6,0c0.6,0,1.2,0,1.8,0l-0.2-0.8c-1.2,0.4-2.4,0.6-3.8,0.4
	l0.2-0.6l0.4,0.4c1-0.6,2.2,0,3.4-0.4c-0.6-0.2-1.2-0.8-1.6-0.4c-0.4,0.4-0.6-0.4-1,0c-0.4,0.4-0.8,0-1.2,0.2h-0.2L52.9,80
	c-0.8,0-1.4,0-2.2,0.2c-0.4-0.4-1.2-0.4-1.6-0.2c-0.4,0.2-1,0-1.4,0.4l1,0.2v0.2h-1.2l-0.2-0.6L46.9,81l-0.2-0.6l-0.6,1h-2
	c-0.6,0-1.2,0-1.8-0.2l0.8-0.6c-0.4-0.2-1-0.4-1.2-0.4c-0.6,0.4-1.2,0-1.6,0.4c-0.4,0.4-1-0.2-1.6,0c-0.6,0-1.2,0-1.8,0h-2.8
	c-0.2,0-0.4,0-0.8,0.2c0.8,0.6,1.6,0,2.2,0.4c0.6,0.4,1.4,0,2.2-0.2c0.4,0,0.6,0,1,0c0.4,0,0.8,0.2,1.2,0.4c0.4,0,1,0,1.4-0.4
	c0.2-0.2,0.6,0,1,0v0.6h-9.8V82h7c0.8,0.2,1.6,0,2.2-0.4c0.4,0.6,1.4-0.6,1.8,0.4c0.8,0,1.6,0.2,2.2-0.4c0.8,0.4,1.8,0.4,2.6,0
	c0.4,0.2,0.6,0.2,1,0.2c1,0,2,0,2.8-0.4c2,0,4-0.2,6-0.4c1,0.2,2,0,3-0.2c0.8-0.2,1.6-0.2,2.6,0c0.8,0,1.4-0.2,2.2-0.2V80z
	 M73.9,95.6c1,0.4,2.2,0.4,3.4,0.2c1-0.4,2-0.6,3.2-0.6c0.6,0.2,1.2,0,1.8-0.4c0.2-0.2,1,0,1.4,0.2l0.4-0.4l0.8-0.2
	c0-1-1-0.8-1.4-1.4l1-1.6c-0.2-0.8-0.2-1.6-0.2-2.4c0.2-1-0.6-1.6-0.6-2.6c0-0.2-0.2-0.6-0.4-0.8c-0.2-1.2-0.4-2.2-0.8-3.6
	c-0.2,0.4-0.6,0.6-0.6,0.8c0,0.6-0.2,1-0.4,1.6c0,0.2-0.2,0.6-0.4,0.6c-0.2,0.2-0.6,0.2-1,0.2c-0.4-1.2,1.2-1.6,0.6-2.6l1-1l0,0
	l-1.8-0.4c-0.6,0.6-1.4,0-2.2,0.4l0.4,0.8l-0.2-0.8h-1.4l-0.8-1.2v1.8l-1,0.8c0.2,0.4,0.4,1,0.6,1.4s0.4,0.8,0.2,1.2
	c-0.6,0.6,0,1.4-0.4,2c-0.4,0.8-0.6,1.4-0.6,2.2V92c0,0.4,0,0.8,0,1.2l-0.8,0.6L73.1,93c-0.2-0.4,0.2-1.2,0-1.6
	c-0.2-0.6-0.2-1.4-0.2-2c0.2-1.2,0-2.4-0.4-3.6c0-0.2,0-0.4,0-0.6c0-0.6,0-1.2-0.2-1.6l-0.2-0.2l-1,0.6c0,0.4,0,0.6,0,1
	c0.4,1,0.6,2,0.6,3c-0.2,1,0,2.2,0.4,3.2c-0.6,0.4,0.2,0.8,0,1.4c0,0.6,0,1.2,0.4,1.6c0.2,0.6,0.4,1.4,0.4,2c0,0,0.2,0.2,0.2,0.4
	L73.9,95.6z M66.1,60.8c-0.8,0.6-1.6,0-2.6,0.4l-0.6,1.2c0.6,1,0,2.2,0.4,3.2c0.2,1,0.4,2,0.2,3l1.6,1.8l1.2-0.6
	c-0.2-0.6,0.8-0.4,0.8-1c0-0.4,0.4-0.8,0.6-1.2L67.1,66c0-0.4,0.4-1,0.2-1.4c-0.6-1-0.2-2.2-0.4-3.2L66.1,60.8z M84.9,58
	c-1,0-2,0.6-2.6,1.4c0.4,1.2,0.8,2.6,0.8,4c0.2,1.8,0.4,3.6,0.8,5.2c0.8-0.4,1.4-0.8,2-0.2c0.6-0.4,0.6-1.2,0.6-2
	c0-0.8-0.4-1-0.2-1.2c0.4-0.6-0.4-0.8-0.2-1.4c0.2-1.2-0.2-2.2-0.6-3.2l0.4-0.4L84.9,58z M71.9,69.2c0.4-1.6-0.2-3.2,0.4-4.6
	c-0.6-0.4,0.2-0.8,0-1.2c-0.2-0.6-0.4-1.4-0.2-2.2l-0.8-0.8l-2.6,0.4c-0.6,0.6-1,1.6-0.6,2.4c0.4,1,0.4,2,0.6,3c0.2,1.2,0.6,2,1,3
	c0.4-0.6,0.6-0.2,1-0.2h1.2V69.2z M77.3,60.4c0.2,1.2,0.4,2.6,0.8,3.8c0.4,1.2,0.8,2.6,1,3.8h2.6l-0.4-2.2c0-0.2,0.2-0.2,0.2-0.2
	c0-0.8-0.2-1.4-0.2-1.8c0-0.6,0.2-1.6-0.2-2s0-1.2,0.2-1.6l-0.4-0.8c-0.4-0.2-1-0.4-1.4-0.4c-0.6,0-1,0.2-1.6,0.4L77.3,60.4z
	 M61.5,69c0.2-0.8,1.2-1.4,0.4-2.4v-0.4c0-0.6,0.2-1-0.4-1.6c-0.2-0.4-0.2-0.8,0-1.2c0.6-0.8,0.2-1.4-0.2-2l-1.6,0.4l-1.2-0.6
	l-1.2,1.6c0,0.8,0,1.6,0.4,2.2c0.4,0.6,0.4,1.4,0.4,2c0,0.8,0.2,1.6,1,2c0.2,0.2,0.6,0.4,0.8,0.4L61.5,69z M77.1,68.6
	c0-0.8,0.2-1.6,0-2.4c-0.2-0.6-0.2-1.4-0.2-2c0-0.6,0.2-1.6-0.2-2l0.4-1.4c-0.6-0.6-1.4-0.8-2.2-0.6l-1.4,1.2c0.2,0.6,0.4,1,0.4,1.6
	c0.2,1.2,0.2,2.6,0.4,4c0.2,0.6,0.2,1.2,0.4,1.8h1.4l0.4,0.6L77.1,68.6z M53.9,68.2l1.8,0.4l1.4-1l-1-2c0.2-0.6,0.4-1,0.4-1.4
	c-0.2-0.4-0.6-0.8,0-1.2l-0.8-1h-2l-1.4,1c0.4,0.8,0.6,1.6,0.6,2.6C52.9,66.6,53.9,67.2,53.9,68.2L53.9,68.2z M86.9,94.2
	c-0.2-1,0.6-1.8,0.4-2.8c0-0.2-0.2-0.6-0.2-0.8c0-0.4,0-0.8,0-1c0-0.4,0.2-0.8,0.2-1.4c0-0.6,0-1.2,0-1.8c0-0.6,0-1.2-0.2-1.8
	c-0.2-0.4,0-1.2,0.4-1.6c0.4-0.6-0.6-1,0-1.4c-0.4-0.6-0.2-1.6-0.8-1.8c-1.4,0.2-0.6,1.2-1,1.6c-0.4,0.4,0.4,0.6-0.2,0.8
	c0.2,0.4,0.2,0.6,0.2,1c0,0.4,0,0.8,0,1.2c0,0.4,0.2,0.8,0.2,1c0,0,0,0,0.2,0.2c-1,1,0.2,1.8,0,2.8l-0.8,0.4l0.8,1
	c0,0.8,0,1.6,0,2.2c0,0.8,0.4,1.6,0.4,2.2L86.9,94.2z M32.5,96.6c0.6-0.8,1-1.4,0.6-2.4c0.4-0.4,0-0.8,0.2-1.2s-0.6-0.4-0.2-1
	c0.2-0.4,0.2-0.8,0-1.2c-0.4-0.4,0-0.8,0-1s-0.2-0.8-0.2-1.2c0-0.4,0.2-0.6,0.2-1c-0.6-0.6,0-1.4-0.4-1.8L32.5,85l-0.8,0.8
	c0,0.8,0,1.4,0,2.2c0.2,0.6,0.6,1.2,0,2l0.2,0.2c0,2,0,4.2,0,6.2L32.5,96.6z M49.7,96.8c0.4-0.6,0.6-1.4,0.6-2.2c0-1.4,0-3,0-4.4
	c0-0.4,0.2-0.8,0.2-1c0.4-1.4,0.2-3-0.2-4.6c0,0-0.2,0-0.4-0.2l-0.6,0.4c-0.4,0.8,0,1.8,0,2.6c-0.2,2.8,0,5.6,0,8.2
	C49.5,96,49.5,96.4,49.7,96.8z M29.3,68.6l1,4.4c0.6-0.6,0-1.2,0-1.8c0-0.6-0.2-1.4-0.2-2L29.3,68.6z M49.3,79.4c0.8,0,1.4,0,2.2,0
	c0,0,0.2-0.4,0.2-0.6h-2.4V79.4z M64.1,77c-1.2,0-2.4-0.4-3.4,0.4C62.1,78,63.1,77.2,64.1,77z M17.3,22.9l0.2-0.2
	c-0.4-0.2-0.6-0.4-1-0.4c-0.4,0-0.8,0-1.4,0c-0.4,0-0.6,0-1,0c0.6,0,1,0.6,1.6,0.2C16.3,22.1,16.7,22.9,17.3,22.9L17.3,22.9z
	 M31.3,49.9l0.8,2h0.4C32.5,51.2,32.1,50.3,31.3,49.9L31.3,49.9z M39.9,79.2h3v-0.6C41.9,79.4,40.7,78.8,39.9,79.2L39.9,79.2z
	 M57.5,77.2c0.8,0.4,1.8,0.4,2.6,0H57.5z M90.1,67.2c0.4-0.6,0-1-0.4-1.4v1.4H90.1z M50.9,77.8h2c-0.2-0.2-0.6-0.2-0.8-0.2
	s-0.4-0.2-0.8-0.2L50.9,77.8z M38.3,79.6l0.8-0.4c-0.6-0.2-1.4-0.2-2.2,0L38.3,79.6z M30.9,79.4l0.2,0.2c0.2-0.2,0.4-0.2,0.4-0.2
	c0.2,0,0.6,0,1,0l-0.6-0.6L30.9,79.4z M43.1,77.6h-1.2l0.2,0.8L43.1,77.6z M29.1,70c-0.2-0.4-0.4-0.6-0.8-0.8v1L29.1,70z M20.1,29.3
	l0.8-0.4l-0.8-0.6V29.3z M59.7,70.8l0.2,0.8l0.2-0.2v-1L59.7,70.8z M44.7,80v0.4h1.2V80H44.7z M77.7,49.9v-0.8l-0.6,0.2l0.2,0.6
	H77.7z M31.5,51.6v1.2h0.6L31.5,51.6z M82.1,56.8c0.6,0.2,0.8,0,0.6-0.2L82.1,56.8z M11,23.5c0.4-1,0-0.8-0.4-0.8L11,23.5z
	 M7.2,31.5l-0.6,0.2l0.6,0.2V31.5z M34.5,78v0.4l0.8-0.2V78H34.5z M43.1,56.2l-0.6-1v1H43.1z M83.3,56l-0.2-0.6h-0.2V56H83.3z
	 M73.3,47.5h-0.4l0.2,1h0.2C73.3,48.5,73.3,47.5,73.3,47.5z M62.1,72l0.6-0.2v-0.2h-0.6V72z M35.1,65.4h-0.2l0.2,0.6h0.2v-0.6H35.1z
	 M89.3,69.8h0.2l-0.2-0.6h-0.2L89.3,69.8z M52.7,79v-0.2h-0.6V79H52.7z M74.3,70.2h-0.2l0.2,0.6h0.2L74.3,70.2z M63.5,57.4h-0.4
	l0.2,0.6h0.2V57.4z M47.5,71.2L47.5,71.2h-0.6v0.2L47.5,71.2z M69.9,81.2h-0.4l0.2,0.6h0.2C69.9,81.8,69.9,81.2,69.9,81.2z
	 M27.7,61.8V62l0.6-0.2v-0.2L27.7,61.8z M33.7,55.2h-0.2l0.2,0.6h0.2v-0.6H33.7z M64.3,71.6V72l0.6-0.2v-0.2
	C64.9,71.6,64.3,71.6,64.3,71.6z M20.1,24.3v-0.4l-0.6,0.2v0.2C19.5,24.3,20.1,24.3,20.1,24.3z M92.7,72.6L92.7,72.6l0.6,0.2v-0.2
	H92.7z M76.5,47.7h0.2l-0.2-0.6h-0.2L76.5,47.7z M30.3,73.2L30.3,73.2v0.6h0.2L30.3,73.2z M46.3,79.2V79l-0.6,0.2v0.2h0.6V79.2z
	 M27.7,41.5h0.2l-0.2-0.6h-0.2v0.6H27.7z M12.4,22.7v0.2l0.6-0.2v-0.2h-0.6V22.7z M27.9,65.8h-0.2l0.2,0.6h0.2v-0.6H27.9z
	 M15.5,42.1L15.5,42.1l0.4,0.2v-0.2H15.5z M25.7,38.5L25.7,38.5v-0.4l0,0V38.5z M24.5,36.9L24.5,36.9l-0.2,0.4h0.2V36.9z M74.7,43.9
	L74.7,43.9v0.4l0,0V43.9z M22.7,35.9L22.7,35.9l-0.2,0.4h0.2V35.9z M74.3,44.7L74.3,44.7l-0.2,0.2l0,0L74.3,44.7z M73.7,44.9
	L73.7,44.9l-0.2,0.4h0.2V44.9z M20.3,34.9L20.3,34.9v0.4l0,0V34.9z M27.1,45.3L27.1,45.3l-0.2,0.4h0.2V45.3z M9.4,34.5L9.4,34.5
	l-0.2,0.4h0.2V34.5z M73.1,45.7L73.1,45.7h0.4l0,0H73.1z M77.1,47.7L77.1,47.7l0.4,0.2v-0.2H77.1z M21.9,33.5L21.9,33.5l0.2,0.2
	v-0.2H21.9z M7.4,33.5L7.4,33.5v-0.4l0,0V33.5z M26.7,49.9L26.7,49.9l0.2-0.4h-0.2V49.9z M73.3,50.1v-0.2h-0.4l0,0L73.3,50.1z
	 M27.9,50.3L27.9,50.3l-0.4-0.2v0.2H27.9z M23.9,31.7L23.9,31.7L23.9,31.7L23.9,31.7L23.9,31.7z M22.7,31.7L22.7,31.7h0.4l0,0H22.7z
	 M29.3,52.8L29.3,52.8h0.4l0,0H29.3z M32.1,54.2L32.1,54.2h0.4l0,0H32.1z M89.3,55.4L89.3,55.4l0.4,0.2v-0.2H89.3z M4,30.3L4,30.3
	v-0.2l0,0V30.3z M62.5,56.2L62.5,56.2v0.4l0,0V56.2z M17.7,28.1L17.7,28.1l0.4,0.2v-0.2C18.1,28.1,17.7,28.1,17.7,28.1z M61.7,57.4
	L61.7,57.4l-0.2,0.4h0.2V57.4z M15.1,28.1L15.1,28.1l0.4,0.2v-0.2H15.1z M10.2,27.9L10.2,27.9L10,27.7v0.2H10.2z M60.3,58.2
	L60.3,58.2l0.2-0.4h-0.2V58.2z M1.4,27.3L1.4,27.3v0.4l0,0V27.3z M74.9,58.6L74.9,58.6V59l0,0V58.6z M49.9,59L49.9,59h0.4l0,0H49.9z
	 M9.6,26.9L9.6,26.9H10l0,0H9.6z M26.1,59.4L26.1,59.4v0.4l0,0V59.4z M75.1,59.6L75.1,59.6v-0.4l0,0V59.6z M32.9,60L32.9,60v-0.4
	l0,0V60z M59.1,59.8L59.1,59.8h-0.4l0,0H59.1z M60.3,60L60.3,60l0.2-0.4h-0.2V60z M63.5,60.4L63.5,60.4v0.4l0,0V60.4z M27.7,64.6
	L27.7,64.6l-0.4-0.2v0.2H27.7z M49.7,65L49.7,65v0.4l0,0V65z M20.9,25.3L20.9,25.3l0.2-0.4h-0.2V25.3z M36.7,65.4L36.7,65.4
	l-0.2,0.4h0.2V65.4z M29.3,67.6L29.3,67.6h0.4l0,0H29.3z M90.9,67.8L90.9,67.8l0.4,0.2v-0.2H90.9z M87.1,68.2L87.1,68.2v0.4l0,0
	V68.2z M90.7,68.8L90.7,68.8l0.2-0.4h-0.2V68.8z M92.5,69.2L92.5,69.2l0.2-0.4h-0.2V69.2z M93.1,69.2L93.1,69.2v-0.4l0,0V69.2z
	 M53.5,69.4L53.5,69.4l0.2-0.4h-0.2V69.4z M68.3,69.4L68.3,69.4l0.4,0.2v-0.2H68.3z M79.3,70L79.3,70l0.2-0.4h-0.2V70z M81.3,70
	L81.3,70v-0.4l0,0V70z M50.1,70.4L50.1,70.4V70l0,0V70.4z M78.7,70.2L78.7,70.2l-0.2,0.4h0.2V70.2z M33.5,71L33.5,71l0.2-0.4h-0.2
	V71z M57.5,71L57.5,71v-0.4l0,0V71z M75.5,70.6L75.5,70.6V71l0,0V70.6z M60.5,71.2L60.5,71.2l0.2-0.4h-0.2V71.2z M68.3,71L68.3,71
	l0.4,0.2V71H68.3z M79.1,71L79.1,71l0.4,0.2V71H79.1z M43.5,71.6L43.5,71.6l0.4,0.2v-0.2H43.5z M45.1,71.6L45.1,71.6V72l0,0V71.6z
	 M70.1,71.8L70.1,71.8v-0.4l0,0V71.8z M72.1,71.8L72.1,71.8l0.2-0.4h-0.2V71.8z M68.9,72L68.9,72l0.4,0.2V72H68.9z M64.9,72.8
	L64.9,72.8l0.2-0.4h-0.2V72.8z M90.1,72.6L90.1,72.6V73l0,0V72.6z M90.7,72.6L90.7,72.6h0.4l0,0H90.7z M65.9,73L65.9,73h0.4l0,0
	H65.9z M30.5,74.6L30.5,74.6L30.3,75h0.2V74.6z M15.9,23.7L15.9,23.7v0.2h0.2v-0.2H15.9z M30.3,75.8L30.3,75.8l0.4,0.2v-0.2H30.3z
	 M57.1,76.4L57.1,76.4l0.4,0.2v-0.2H57.1z M56.3,77.4L56.3,77.4v0.4l0,0V77.4z M50.3,77.6L50.3,77.6L50.1,78l0,0L50.3,77.6z
	 M54.1,77.6L54.1,77.6L53.9,78h0.2V77.6z M36.1,78.4L36.1,78.4V78l0,0V78.4z M40.1,78L40.1,78l0.4,0.2V78H40.1z M35.1,79L35.1,79
	l0.4,0.2V79H35.1z M43.1,79L43.1,79l0.4,0.2V79H43.1z M68.7,82L68.7,82v-0.4l0,0V82z M67.9,82.8L67.9,82.8l-0.2,0.4h0.2V82.8z
	 M32.9,83.8L32.9,83.8v0.4l0,0V83.8z M52.1,88.4L52.1,88.4l0.2-0.4h-0.2V88.4z M87.7,91L87.7,91l0.4,0.2V91H87.7z"/>
	<path fill="#363F66" d="M43.1,32.3c-0.2,0-0.2-0.4-0.2-1c-0.6,1.2-1,2.4-1.2,3.6c-0.4-1.2-0.2-2.6,0.4-3.6l-0.2-0.4l0.2-1.6l0.6,0.4
	l0.2-0.6h0.2l-0.2,1.2l1-0.6c0,0.4,0,1-0.2,1.4c0,0.2,0.2,0,0.2,0c0-0.2,0-0.4-0.2-0.4c0,0.2-0.2,0.4,0,0.4c0.2-0.2,0.4-0.2,0.4-0.2
	l-0.2,2c0.2,0,0.2-0.2,0.4-0.4c0-0.2,0.2-0.2,0.2-0.4s-0.2-0.6,0.4-0.6c0,1-0.2,2-0.6,3c0,0,0,0-0.4,0.8c-0.2,0.2-0.2-0.4,0-0.8
	c0.2-0.4,0.2-1,0-1.4c-0.4,1.2-0.6,2.2-0.8,3.4c0.4-0.4,0.6-0.8,0.8-1.4c0.4,0.6,0.4,1.2,0,1.8c-0.2,0.2,0.2,0.8,0.2,1.2
	c0,0.4-0.2,0.2-0.4,0.4c-0.2-0.4,0.4-0.8-0.4-1c-0.2,0-0.2-0.2-0.4-0.4l0,0l-0.2-0.4l0,0l0.2,0.2c0.2,0,0.2,0.2,0.4,0.4
	c0.2,0.2-0.4,0.8,0.4,1l0.6,2.4c0.2-1,0.2-2.2,0.2-3.2l2.2,0.4v-1h-0.2c-0.2,0.2-0.6,0.4-0.8,0.6v-0.8c0.6-0.2,0.2-0.6,0.4-1
	c0.2-0.4,0.2-0.2,0.4-0.4c0-0.6,0-1,0-1.6c0.6-0.6,0.8-1.6,0.6-2.4c0.4-0.4,0.6-0.8,0.6-1.4l1,0.2l-0.2-1.6c1.2,0.4,1.2,1.6,1.4,2.6
	h1c0,0.2,0,0.4,0,0.6l0,0l-0.2,0.2l0,0l0.2-0.2c0.6,0,0.2-0.6,0.4-1h0.6c-0.2,0.2-0.2,0.4-0.2,0.6c0,0.2,0,0.6,0,0.8
	c-1.4,1.4-2.4,3.2-3,5c-0.2,0.8-0.4,1.6-0.4,2.4c0,0.4-0.2,0.6-0.2,1c0.6,0.8,0.2,1.6,0.4,2.4c0.2,0.8,0.2,1.6,0.4,2.6l-1.6,0.4
	l-1.8,1l-1,1.6l-3.8-2.2c-1.6,0.2-3-1.4-4.8-1.4l-0.8-1h-2l-0.2-1.4l0,1.4c-0.4,0.2-1,0.8-1.6,0.4l-0.2-1l-0.4,0.8l-0.6-0.8
	c0-1-0.2-2-0.4-3c-0.2-0.4,0-0.8,0-1c-0.2-0.4-0.2-0.8-0.2-1.2c0-0.4-0.2-0.6-0.2-1c0-0.4,0-0.8,0.2-1.2c-0.2-0.4-0.4-0.8-0.4-1
	c0-0.4,0.4-0.8,0-1.4l-0.4,1c0-1.4,0-2.4,0-3.4c-0.2-2.6,0.4-5.4,0.4-8c0.4-0.8,0.4-1.6,0.2-2.2l1-1c-0.8-0.8,0-1.2,0.2-2l2,1.8
	c0,0.2-0.2,0.6-0.2,0.8c-0.6,0.6-0.8,1.4-0.6,2.2c0.2-0.8,0.4-1.4,0.6-2.2l1-0.4c-0.2,1-1,1.4-1,2c-0.2,0.8-0.2,1.6-0.6,2.4
	c0,0.2-0.2,0.4-0.4,0.4c0-0.6,0-1.2,0-1.8l0,0l0.2-0.2l0,0l-0.2,0.2c-1,0.4-0.8,1.4-1,2.2c0,0.4,0,1-0.2,1.4
	c-0.6,1.6-0.6,3.2-0.6,4.8h0.6c0-0.6,0-1.2,0-1.8c0.2-1.2,0.4-2.4,0.6-3.4c0-0.6,0.2-1.2,0.6-1.6c0.2,0.8,0,1.6-0.2,2.4l0.8-0.2
	c0,0,0.2,0,0.2,0.2c0,0.2,0,0.8,0,1c-0.6,0.6,0,1.2,0,1.8l0.6-1v-2c0.6-0.6,0.8-1.2,0.6-2c0-0.4,0-0.8,0.2-1
	c0.2-0.6,0.4-1.2,0.4-1.8c0.2-0.2,0.2-0.6,0.4-0.8c0.6,0.8-0.4,1.6-0.2,2.4l1-0.4c0,0.4-0.2,0.8-0.2,1c-0.2,0.4-0.2,0.6-0.2,1
	c0,0.4,0.2,0.8,0.4,1c-0.8,0.2-0.4,1.2-1,1.4c0,0.6-0.2,1.4,0.2,2h-0.6c0.8,0.8,0.2,1.4,0,2c0.2,0.2,0.2,0.2,0.2,0.2l-0.2,1.4h0.4
	c0-1.2,0-2.4,0-3.6c0.2-0.2,0.4-0.2,0.6-0.4c-0.4,2-0.4,3.8-0.4,5.8c0,0.4-0.4,0.8-0.4,1.4c0,0.6,0,0.8,0,1.4h0.6v-2.4
	c0-0.4,0-1,0-1.4c0-0.4,0.4-0.6,0-1c0.4-0.2,0.2-0.6,0.2-1c0-0.4,0-1,0-1.4c0,0,0.2,0,0.2-0.2c0.2,1.2,0.2,2.4,0,3.6
	c-0.2,1.4-0.4,2.8-0.2,4c0,0.2,0,0.4,0,0.6c0.8-0.4,0.4-1.2,0.6-1.6c0-1.2,0-2.6,0-3.8c0-0.8,0.2-1.4,0.6-2.2c0.2-0.6-0.2-1.4,0.2-2
	c0.4-0.6,0-1.4,0-2.2c0.8-0.2,0-1,0.8-1.2l-1-1l0.6-1.4l0.2,1.2l0.6,0.2c-0.6,1.4-0.8,2.8-0.6,4.2l0.6-2.2c0.2,1.2-0.4,2.2,0,3.4
	l1-4.6l0.6,0.8c-0.6,1.6-0.8,3.2-1,4.8c1-0.2,0.4-1,0.8-1.8c0.4,0.4,0.4,1,0,1.6c-0.4,0.4,0,1.2-0.4,1.6l-0.8-1l-0.4,1.2
	c0,0.6,0.4,1.4,0.2,2c-0.2,1-0.4,2.2-0.2,3.2l0,0l0.6,0.8c0.2-0.8,0.2-1.4,0-2.2c-0.2-0.6,0.2-1,0-1.6c0-0.6,0.2-1.4,0.4-1.8
	c0.6,1-0.2,2-0.2,3s0,2,0,3h0.2l0.4,0.8l0.4-0.4l0.2,1l0.2-0.2c0.2-1.6,0-3.4-0.2-5c0.4-0.4,0-1,0.2-1.6c0.2-1,0.4-2,0.2-3
	c0-0.6,0.2-1.4,0.6-2l0.2,0.6l0.6,0.2c0,0.4,0.2,0.8,0,1c-0.4,0.4-0.4,1,0,1.4c0.4,0.6,0.2,1.4-0.4,1.8l0,0c0,0,0.2-0.2,0.4-0.4
	h-0.8c0,0.2,0,0.4,0.4,0.6c0.2,2,0.4,4,0.4,6c0,0.2-0.2,0.6,0.4,0.6c0,0,0,0-0.2,0c0,0.2,0,0.4,0,0.4c-0.2,0.2-0.2,0.4-0.4,0.6h0.8
	c0-0.4,0-0.6-0.2-1c0.4-0.8,0.4-1.8-0.2-2.4l0.4-0.6l-0.4-0.8l1-1.6c0.2-0.8-0.2-1.6,1-2.6c-0.2,1-0.2,1,0,1.8
	C42.9,33.3,44.1,32.7,43.1,32.3z M45.5,45.7l0.2-0.2c0,0-0.2-0.2-0.6,0l0.8-1.2h-0.8c0,0.4,0.2,0.8,0.4,1
	C45.5,45.5,45.5,45.5,45.5,45.7L45.5,45.7l-0.2,0.2h0.2V45.7z M31.5,19.5c-0.2,0.2-0.4,0.2-0.4,0.4s0,0.4,0.2,0.4
	c0-0.2,0.2-0.4-0.2,0l-0.4,0.4c-0.4,0.8-0.6,1.6-0.8,2.4c-0.4,0.4-0.4,0.4,0,1c0-0.4,0-0.6,0-1c0.8-0.6,0.6-1.6,0.6-2.4
	C30.9,20.3,31.3,19.9,31.5,19.5z M40.5,35.7c-0.2,0.2-0.4,0.2-0.4,0.4c0,0.2,0,0.4,0.2,0.4c0-0.2,0-0.4-0.2,0l-0.2,0.2
	c0.2,0.2,0.4,0.2,0.6,0.2h-0.4l0.2,1h0.2c0-0.4-0.2-0.8-0.4-1C40.3,36.5,40.3,36.1,40.5,35.7z M48.3,36.1c0.4-0.4,0.4-0.4,0-1V36.1
	L48.3,36.1l-0.2,0.4v0.2C48.1,36.5,48.3,36.3,48.3,36.1z M40.9,42.3h0.8v-0.6h-0.6C40.9,41.9,40.9,42.1,40.9,42.3L40.9,42.3
	l-0.2,0.2h0.2C40.9,42.5,40.9,42.3,40.9,42.3z M48.1,33.5l0.4-0.2l-0.6-1.2l-0.2,0.2c0.2,0.4,0.4,0.8,0.8-1
	c-0.2,0.2-0.4,0.4-0.4,0.4c0,0.2,0,0.4,0.2,0.4C48.1,31.9,48.1,31.7,48.1,33.5z M39.5,43.1c-0.2,0.2-0.2,0.2-0.4,0.4
	c0,0.2-0.2,0.4-0.2,0.6l0.2-0.2l0.2,0.8l0.2-0.2c0-0.4-0.2-1-0.6-1.2c0.8-0.4,0.6-1,0.4-1.6C39.3,42.1,38.5,42.7,39.5,43.1z
	 M37.1,40.5l0.6-0.4c-0.2-0.2-0.4-0.4-0.6-0.8v0.2l0.6-0.2v-0.2c-0.2,0-0.4,0.2-0.6,0.4c-0.2,0.2-0.6,0.4-0.6,0.6c0-0.8-0.2-1.6,0-2
	c0.2-0.4,0.2-1.4,0.2-2c0-1.4,0-3,0-4.4c0,0,0.2,0,0.2-0.2l0.2,0.8l0.4-0.6v-2l-0.4,1l-0.8-1c0,0.6,0,1,0,1.2c0,0.2-0.2,0.6-0.2,1
	c0.2,0.2,0.2,0.2,0.2,0.4c0,0.6,0.2,1.2-0.2,1.6c-0.4,0.4,0.4,1,0,1.6v0.4c0,1.2,0,2.4,0,3.6c0,0,0,0.2,0.4,0.2v1.2L37.1,40.5z
	 M33.3,27.1L33.3,27.1c-0.4,0.8-0.6,1.8-0.8,2.6c0.2,1,0,2-0.2,3c0,0.2,0,0.6,0,1l0.6-0.2C32.7,31.1,33.5,29.1,33.3,27.1
	c0,0,0.2,0,0.2-0.2c0-1,0.2-1.8,0.4-2.8l-0.2-0.2l-0.4,0.4V27.1z M33.7,39.1L33.7,39.1l0.2,0.2l0,0c-0.2-0.2-0.4-0.2-0.6-0.2
	c0.2-1.4,0.2-2.6,0-4c-0.4,0.8,0,1.6-0.6,2.6v-3.6l-0.6,1l0.2,1l-0.2-0.4c0-1,0-1.8,0-2.6s0-1.8-0.4-2.4v2.2l-0.6-0.4
	c0.8-0.8-0.6-1.8,0.4-2.4c0-1,0-1.8-0.2-2.8c-0.2,0.6-0.4,1.2-0.6,1.8c0,0.6,0,1.2,0,1.8v6.6c0,0-0.2,0-0.4,0.2v-1.8l-0.8,0.8
	c0.4,0.6,0,1.4,0.6,1.8l0.2-0.6l0.8,1.6l0.2-1.2l1.4-1.2c0,0.4,0,0.8,0,1c0,0.2-0.2,0.2-0.2,0.4s0.2,0.4,0.2,0.8
	c0,0.4,0,0.4,0.2,0.8h0.2v-1.6h0.2C33.3,38.5,33.5,38.9,33.7,39.1z M29.9,31.7h-0.2c0,1.2,0,2.4,0,3.4l0.2,0.2l0.4-0.4v-2.8
	l-0.2,0.2L29.9,31.7z M28.7,32.1c0.6-0.8,1.2-1.8,0-2.8V32.1z M43.1,40.9c0.6,0.4,0,1.2,0.6,2c0-1.4,0-2.6-0.2-4L43.1,40.9z
	 M37.1,38.1c0.2-1.2,0.2-2.4,0-3.6V38.1z M38.1,42.7c0.4-1,1-1.6,0.4-2.4h-0.4V42.7z M35.1,38.9l0.6,2l0.4-0.4l-0.4-1.6H35.1z
	 M43.9,43.1L43.9,43.1c0.4-0.4,0.4-1,0.6-1.4c0.2-0.4-0.2-0.2-0.4-0.2L43.9,43.1z M40.3,34.1h-0.4v1l0.6-0.2L40.3,34.1z M34.7,38.1
	c-0.4,0.6-0.4,1.4,0,2V38.1z M29.3,27.1c-0.4,0.6-0.4,1.4,0,2V27.1z M42.1,44.7c-0.2-0.2-0.2-0.4-0.4-0.6c0-0.2,0-0.4,0-0.8h-0.2
	v1.4L42.1,44.7z M30.7,42.3c0-0.6,0.6-1,0-1.6V42.3z M29.5,25.3h-0.4l0.4,1.6V25.3z M47.7,37.5c0.4-0.6-0.2-0.8-0.4-1
	C47.1,37.1,47.5,37.3,47.7,37.5L47.7,37.5z M40.5,40.7h-0.4l0.2,1h0.2V40.7z M45.7,39.1h0.2l-0.2-1h-0.2v1H45.7z M33.7,33.9h-0.2
	l0.2,1h0.2v-1H33.7z M47.3,34.9h-0.2l0.2,0.8h0.2v-0.8H47.3z M44.1,45.7L44.1,45.7l-0.2,0.6h0.2V45.7z M43.9,44.3L43.9,44.3l0.2-0.6
	h-0.2V44.3z M40.5,43.9h0.2l-0.2-0.6h-0.2v0.6H40.5z M32.3,43.1h-0.2l0.2,0.6h0.2v-0.6H32.3z M38.1,43.3h0.2l-0.2-0.6l0,0V43.3z
	 M47.5,33.5h-0.2l0.2,0.6h0.2v-0.6H47.5z M40.1,39.5h0.2v-0.6h-0.2V39.5z M31.9,40.9L31.9,40.9l-0.2,0.6h0.2V40.9z M40.5,30.3h0.2
	l-0.2-0.6h-0.2v0.6H40.5z M33.9,39.9L33.9,39.9l-0.2,0.4h0.2V39.9z M43.9,41.1L43.9,41.1l0.2-0.4l0,0L43.9,41.1z M42.5,41.5
	L42.5,41.5l0.2-0.4h-0.2V41.5z M46.3,38.9L46.3,38.9h0.4l0,0H46.3z M32.3,38.7L32.3,38.7v0.4l0,0V38.7z M41.9,36.7h0.2v-0.4l0,0
	L41.9,36.7z M42.7,36.5L42.7,36.5l0.2-0.4h-0.2V36.5z M40.9,44.7L40.9,44.7l0.2-0.4h-0.2V44.7z M43.1,44.7L43.1,44.7l-0.2,0.4h0.2
	V44.7z M44.1,44.7L44.1,44.7v0.4l0,0V44.7z M48.7,34.7L48.7,34.7l0.4,0.2v-0.2H48.7z M37.1,32.7L37.1,32.7h0.4l0,0H37.1z M28.7,32.9
	L28.7,32.9l0.2-0.4h-0.2V32.9z M49.3,30.9L49.3,30.9l0.4,0.2v-0.2H49.3z M29.9,24.7L29.9,24.7l-0.2,0.4h0.2V24.7z M30.5,19.3
	L30.5,19.3l0.2-0.4h-0.2V19.3z"/>
	<path fill="#363F66" d="M64.5,43.7c0.2-0.2,0.4-0.4,0.4-0.6c0.2-0.2,0.2-0.4,0.2-0.8l0,0l0.2-0.2v-0.2c0,0-0.2,0.2-0.2,0.4
	c-0.8-0.2-1,0.8-1.4,1h-0.8c0.4-0.4,0.8-0.8,1.2-1.4c0.8,0.2,1-0.6,1.4-1c-0.6,0-1,0.4-1.4,1h-0.2c0,0-0.4,0-0.6,0.2
	c-1,1-2.6,0.8-3.6,2l-0.2-0.2c-0.6,0.2-1.4,0.2-2,0c1.6-0.4,3-1,4.4-1.8c-0.6,0-1-0.2-1,0c-0.2,0.2-0.6,0.2-0.8,0.4
	c-0.4,0-0.6,0.4-0.8,0.6h-3.2l-0.4-1.2c-1,0.4-2-0.6-3-0.2c0,1,1,0.2,1.2,1h-0.8l-0.4,0.4c0.6,0.8,1.6,0.4,2.4,0.6
	c-1,0.4-2,0.2-2.8-0.2l-0.2,0.6c0.6,0.4,1.4,0.2,1.8,0.8h-1.4c0.6,1,1.4,0.8,2.2,1.2c-1,0.2-1,0.2-1.6,0v0.4
	c1.8,0.8,3.8,1.2,5.6,0.8l0.4,1c-0.2,0-0.4,0.2-0.4,0c-0.6-0.2-1.4-0.4-2-0.4c-0.6,0-1.2-0.4-1.8-0.4c-1.4,0-2.8-0.6-4-1.4v-5.4
	c0.2-0.8,0.4-1.4,0.6-2c0-0.2,0.2-0.4,0.2-0.6c0.6-2,2-3.6,3.6-4.8c0.2-0.8,1.6-0.8,1.6-1.8c0.8-0.4,1.6-0.8,2.4-1.4
	c1.4-0.8,3-1.4,4.4-1.8c0.6-0.2,1.2-0.4,1.8-0.4s1.2,0.2,1.6,0.4l1,1.2h0.6l0.8,1.2l-0.4,1.2l0.6,0.2c0,0,0,0.2,0,0.4
	c-0.4,1.4-0.4,2.8-0.8,4c-0.4,1.2-0.6,3-1,4.4c0,0.2,0,0.6,0,0.8c-0.2,0.2-0.4,0.2-0.4,0.4c-0.4,1.2-1.2,2.4-2.2,3.4
	c-0.4,0.6-1,1-1.8,1.2c-0.2,0-0.4,0-0.4,0c-0.6,1-2,0.4-2.6,1.2c-0.2,0-0.2,0.2-0.4,0.2s-0.6,0-0.8,0c2.4-1,4.8-2.4,6.8-4l-0.2-0.2
	c-0.2-0.6,0.4-0.8,0.8-1.4c-0.4,0.2-0.6,0.2-1,0.4C65.3,43.1,65.1,43.7,64.5,43.7z M67.7,34.9L67.7,34.9l-0.2,0.2l0,0
	C67.5,34.9,67.7,34.9,67.7,34.9c0.2,0,0.2,0,1.2,0.4c-0.2-0.2-0.4-0.4-0.4-0.4c-0.2,0-0.4,0-0.4,0.2c0.2,0,0.4,0,0-0.2v-0.2
	C67.9,34.5,67.7,34.7,67.7,34.9z M58.9,35.5h-0.2c0,0,0.2,0.2,0.4,0.2l0,0l0.2,0.2l0,0c0,0-0.2-0.2-0.4-0.2
	C58.7,35.7,58.7,35.7,58.9,35.5L58.9,35.5l0.2-0.2l0,0C58.9,35.3,58.9,35.5,58.9,35.5z M58.9,39.5L58.9,39.5l-0.2,0.2h0.2
	C58.7,39.7,58.9,39.5,58.9,39.5L58.9,39.5l0.2-0.4l0,0C58.9,39.3,58.9,39.5,58.9,39.5L58.9,39.5z M56.1,39.9L56.1,39.9l-0.2-0.2l0,0
	L56.1,39.9L56.1,39.9l0.2,0.2l0,0C56.3,40.1,56.3,39.9,56.1,39.9z M57.5,40.3L57.5,40.3l-0.2-0.4l-0.2,0.2c0.2,0.2,0.4,0.2,0.6,0.2
	H57.5v0.6h0.2C57.9,40.7,57.7,40.3,57.5,40.3L57.5,40.3z M66.7,34.1L66.7,34.1l-0.2-0.2l0,0C66.5,34.1,66.7,34.1,66.7,34.1v0.6h-0.2
	c0.2,0.8-0.6,1-0.8,1.8v-0.4l-0.6,0.2v0.2c0.2,0,0.4-0.2,0.6-0.4l1.4-0.4l-0.4-1.2l0.4-0.2C66.9,34.5,66.7,34.3,66.7,34.1L66.7,34.1
	z M54.5,37.9c0.4-0.4,0.4-0.4,0-1V37.9L54.5,37.9l-0.2,0.4v0.2C54.3,38.1,54.5,37.9,54.5,37.9L54.5,37.9z M64.1,41.1l-0.2-0.2h-0.6
	v0.6c0.4-0.2,0.6-0.4,0.6-0.8l0,0l0.2-0.2l0,0C64.1,40.7,63.9,40.9,64.1,41.1z M66.3,32.5v-0.2l-0.2,0.2c-0.4-0.2-0.8,0.4-1-0.4
	c0.4,0,0.8-0.2,1-0.6h-1v-0.4h0.2l-0.4-0.2c-0.2-0.2-0.2-0.4-0.4-0.6c-0.2-0.2-0.6-0.2-1,1c0.2-0.2,0.4-0.4,0.4-0.4
	c0-0.2,0-0.4-0.2-0.4c0,0.2-0.2,0.4,0.2,0l0.6,0.4h0.4v0.4l-1.6,0.4c0,0.4,0,0.6,0,0.8c0,0.2,0,0.4,0,0.8h0.2l0.4-1h0.6
	c0,0.4,0.2,1,0.4,1.6c0,0,0.2,0,0.2,0.2l0.2-0.8l0.6-0.6L66.3,32.5l0.6,1.4l-0.2-1.4H66.3z M56.9,38.1L56.9,38.1l0.2-0.8h-0.6
	C56.7,37.5,56.9,37.7,56.9,38.1l1,0.6l0.2-0.8C57.9,37.9,57.3,37.9,56.9,38.1z M62.9,34.5l-0.8-0.4v1h0.6c0-0.2,0-0.4,0-0.6l0,0
	l0.2-0.2v-0.2C62.9,34.3,62.9,34.3,62.9,34.5L62.9,34.5z M64.1,38.3c-0.2-0.4-0.2-0.4-0.4-0.4s-0.4,0-0.4,0.2c0.2,0,0.4,0.2,0,0v-1
	l-1.4,0.4c0.2,0,0.4,0.2,0.8,0.2C63.1,37.9,63.5,38.1,64.1,38.3L64.1,38.3z M64.1,36.1c0.8,0.2,1.2,0,1.4-0.8l-1.6-0.4v0.6l0.6,0.4
	L64.1,36.1z M56.5,42.5c0.6,0.2,1.2,0.2,1.6,0c-0.4-0.6-1-0.6-1.6-0.4V42.5z M67.1,30.1c-0.6,0-1-0.8-1.8-0.2l1,1L67.1,30.1z
	 M59.1,32.1c0.2,0.2,0.4,0.4,0.4,0.4c0,0.2,0.2,0.4,0.2,0.6l0.6-0.8l-0.2-0.2H59.1z M62.9,41.3l-1.2,0.6h1.2V41.3z M63.5,39.5
	L63.5,39.5l-1-0.2v0.2H63.5z M51.7,43.1l0.6-0.2l-0.6-0.4V43.1z M56.7,35.5v-0.4l-0.6,0.2v0.2C56.1,35.5,56.7,35.5,56.7,35.5z
	 M55.5,35.3L55.5,35.3l0.2-0.6h-0.2V35.3z M61.3,31.1h0.4l-0.2-0.6h-0.2V31.1z M58.3,36.3h-0.2v0.6h0.2V36.3z M65.1,37.5v-0.2
	l-0.6,0.2v0.2L65.1,37.5z M59.7,37.9v-0.2l-0.6,0.2l0,0H59.7z M61.7,37.9h-0.2l0.2,0.6h0.2L61.7,37.9z M60.9,33.3v0.2l0.6-0.2v-0.2
	L60.9,33.3z M62.1,38.3L62.1,38.3l0.6,0.2v-0.2H62.1z M67.5,41.7h-0.2l0.2,0.6h0.2L67.5,41.7z M68.9,32.5L68.9,32.5l-0.2,0.6h0.2
	V32.5z M60.5,32.5v0.4l0.6-0.2v-0.2H60.5z M52.9,38.9h-0.2l0.2,0.6h0.2v-0.6H52.9z M65.5,40.3v0.2l0.6-0.2v-0.2L65.5,40.3z
	 M59.5,40.5L59.5,40.5l0.2-0.2h-0.2V40.5z M57.9,39.1L57.9,39.1l0.2-0.4h-0.2V39.1z M56.5,38.3L56.5,38.3h0.4l0,0H56.5z M53.7,38.3
	L53.7,38.3h-0.4l0,0H53.7z M58.9,41.9L58.9,41.9h-0.4v0.2L58.9,41.9z M66.9,37.9L66.9,37.9h-0.4l0,0H66.9z M66.1,38.1L66.1,38.1
	l0.2-0.4h-0.2V38.1z M65.3,38.1L65.3,38.1l0.2-0.4h-0.2V38.1z M64.9,37.9L64.9,37.9h-0.4l0,0H64.9z M63.9,37.3L63.9,37.3l-0.4-0.2
	v0.2H63.9z M53.1,36.5v0.4h0.4v-0.2L53.1,36.5z M66.9,43.5L66.9,43.5l-0.2,0.4h0.2C66.9,43.9,66.9,43.5,66.9,43.5z M68.1,35.5
	L68.1,35.5v0.4l0,0V35.5z M67.5,35.7L67.5,35.7l-0.4-0.2v0.2H67.5z M59.7,35.7L59.7,35.7l-0.4-0.2v0.2H59.7z M61.7,35.1L61.7,35.1
	l-0.2,0.4h0.2V35.1z M63.3,34.9L63.3,34.9l0.4,0.2v-0.2H63.3z M64.7,34.3L64.7,34.3l0.4,0.2v-0.2H64.7z M68.3,33.5L68.3,33.5
	l0.4,0.2v-0.2H68.3z M63.3,33.7L63.3,33.7l-0.4-0.2v0.2H63.3z M58.7,32.9L58.7,32.9l-0.2,0.4h0.2V32.9z M61.7,32.1L61.7,32.1
	l-0.2,0.4h0.2V32.1z M60.7,32.1L60.7,32.1l0.2-0.4h-0.2V32.1z M67.3,31.1L67.3,31.1l-0.4-0.2v0.2H67.3z M63.1,30.1L63.1,30.1v0.4
	l0,0V30.1z M62.5,30.1L62.5,30.1v0.4l0,0V30.1z"/>
	<path fill="#363F66" d="M85.9,40.9c-1.8-0.4-3.4-1.4-4.8-2.6l-1.4-1.2c0-0.4,0.4-0.2,0.6-0.4c0.4,0.6,0.6,1,1.4,1l0,0l0.2,0.2l0,0
	l-0.2-0.2c-0.4-0.6-0.6-1-1.4-1l-0.8-0.6v-1.2l-0.6,2h0.8v1h-0.6l0,0l-0.2-0.2l0,0c0,0,0.2,0.2,0.4,0.2c0,0.2,0.2,0.4,0.2,0.6
	c0.2,0.2,0.2,0.4,0.4,0.6c-0.4,0.2-0.6-0.2-1-0.4c-0.4-0.2-0.6-0.4-1-0.8c0.2,1,1.2,1,1,2c-0.6-0.6-1-1.2-1.4-1.8
	c-0.4-0.8-0.8-1.6-1.2-2.4c-0.2-0.2-0.4-0.6-0.2-0.8c0.6-1.2,0.4-2.6,1-3.8h0.6l1.6-2.4c1.6-0.6,3.2-0.6,4.6-0.2
	c1.2-0.4,2.6,0,3.4,1l-0.2,0.2v0.2l0.8,0.2l1.8,3.8l-0.4,0.6l0.8,0.4v1.6h-0.6c0-0.4-0.4-0.2-0.6-0.4c-0.6-1-1.4-1-2.4-1
	c0-0.6-0.4-0.4-1.2,0c0,0,0.2-0.4,0.4-0.6h-0.2h-0.8c0,0.4,0,0.6,0.4,0.6s1-0.2,1.2,0c0.6,0.6,1.4,1,2.4,1c0,0.6,0.4,0.4,0.6,0.4
	l0.6,0.6v1l-0.6,0.6l-0.2-1.4l-3.6-1.4c-0.2,0.8,1.2,0.4,0.8,1.4l-1.4-1c-0.6,0.6-1-0.4-1.8-0.4l1,1.4c-0.6,0-1.4-0.4-1.8-1
	c-0.2-0.2-0.6-0.6-1-0.4l0,0l0,0l0,0l0.2,0.2c0.6,0.6,1,1.2,1.4,1.6h0.8l0.4,0.6h1.2l-1.2-0.8c1.2,0,2.2,0.4,3,1l-1.2-0.2v0.4
	c0.4,0.2,1,0.2,1.4,0.6s1,0.6,1.4,0.6s1,0,1.4,0.6c-1,0.4-2-0.6-3-0.6c-1-0.2-1.8-0.4-2.8-0.8c0,0.8,0.2,1,1.2,1.2L85.9,40.9z
	 M86.9,32.3L86.9,32.3l-0.2,0.2l0,0C86.7,32.7,86.9,32.5,86.9,32.3h0.2l0,0l0.2,0.2l0,0C87.3,32.5,87.1,32.3,86.9,32.3l-0.2-0.2
	C87.1,32.3,87.1,32.3,86.9,32.3L86.9,32.3z M77.7,34.9L77.7,34.9l-0.2-0.2l-0.2,0.2C77.5,34.7,77.7,34.9,77.7,34.9L77.7,34.9
	l0.2,0.2l0,0C77.9,35.1,77.9,34.9,77.7,34.9z M82.9,38.5L82.9,38.5l-0.2-0.2h-0.2C82.5,38.3,82.7,38.5,82.9,38.5L82.9,38.5l0.2,0.2
	l0,0C82.9,38.7,82.9,38.7,82.9,38.5z M85.5,32.5v-0.4h1l-0.2-0.6l-0.2,0.2l-0.6-0.4v0.6l-0.2,0.2c0.2,0.2,0.4,0.2,0.6,0.2L85.5,32.5
	l0.2,0.6h0.2C85.9,32.9,85.7,32.5,85.5,32.5z M84.3,35.5l-0.6-0.8v0.8c0.2,0,0.4,0,0.2-0.8l0,0l0.2-0.2l0,0
	C84.1,34.7,83.9,34.7,84.3,35.5z M83.5,30.5L83.5,30.5l-0.2-0.2h-0.2c0,0,0.2,0.2,1-0.2L83.5,30.5l0.6,0.2
	C84.1,30.5,84.1,30.3,83.5,30.5z M82.5,31.7L82.5,31.7l0.2,0.2l0,0C82.9,31.9,82.7,31.9,82.5,31.7l-0.8-0.8v1h-1v0.6
	c0.4-0.2,0.8-0.2,1.2-0.2h-0.4l0.2,0.6h0.4c0-0.2-0.2-0.4-0.4-0.6v-0.4C82.1,31.7,82.3,31.7,82.5,31.7z M84.3,31.5L84.3,31.5
	l0.8,0.2v-0.6c-0.4,0.2-0.6,0.4-0.6,0.8l0,0l-0.2,0.2l0,0C84.5,32.1,84.5,31.9,84.3,31.5z M77.5,36.5l-0.2-1.2l-0.6,1.2
	c0.2,0,0.4,0,1.8-0.6c-0.2,0-0.4,0-0.6,0c-0.2,0.4-0.8,1-0.4,1.8C77.9,37.1,78.3,36.5,77.5,36.5z M79.5,33.1
	c-0.2-0.2-0.2-0.4-0.4-0.6c0-0.2,0-0.6,0-0.8h-0.2v1.4C78.9,33.1,79.5,33.1,79.5,33.1z M83.7,33.1l0.2,0.6l1-0.6H83.7z M79.7,31.1
	h-0.4l0.2,1h0.2C79.7,32.1,79.7,31.1,79.7,31.1z M85.1,33.5l0.2,0.6l0.4-0.6H85.1z M87.5,33.5l0.2,0.6l0.4-0.6H87.5z M87.5,35.1h0.4
	l-0.2-0.6h-0.2C87.5,34.5,87.5,35.1,87.5,35.1z M79.5,34.1h-0.2l0.2,0.6h0.2L79.5,34.1z M83.5,39.1L83.5,39.1l0.2-0.4h-0.2V39.1z
	 M78.1,37.7L78.1,37.7l0.4,0.2v-0.2H78.1z M78.9,35.9L78.9,35.9l0.4,0.2v-0.2H78.9z M88.5,34.1L88.5,34.1v0.4l0,0V34.1z M81.7,33.5
	L81.7,33.5v0.4l0,0V33.5z M79.1,33.5L79.1,33.5l0.4,0.2v-0.2H79.1z M79.1,30.9L79.1,30.9l-0.2,0.4h0.2V30.9z M85.1,30.9L85.1,30.9
	l0.2-0.4h-0.2V30.9z M84.7,30.1L84.7,30.1l0.2-0.4h-0.2V30.1z M80.3,30.1L80.3,30.1l0.2-0.4h-0.2V30.1z"/>
	<path fill="#363F66" d="M28.9,16.5c0-1.4,0.6-3,1.6-4c0.8-0.8,1.4-1.8,2.4-2.2c0.2,0,0.2-0.2,0.4-0.4c1.2-1.6,2.6-3.2,4.4-4.2h0.4
	c0.4-1.2,1.4-1.4,2.4-1.6c1.8-0.8,3.6-1.4,5.6-1.8c0.4-0.6,1.2,0.2,1.6-0.6c0.4-0.8,1,0,1.6-0.4c0.2-0.2,0.4-0.2,0.6-0.2
	c1.2-0.2,2.6-0.2,4-0.4c0.6-0.2,1.4-0.4,2-0.6c0.6,0.8,1.6,0.2,2.4,0.6s2-0.2,2.8,0.2s1.8,0,2.6,0.4s1.8-0.2,2.6,0.6l0.4-0.6h1.4
	l0.2,0.6h0.4l0.2-0.4l0.8,0.8l-0.4,0.4l-0.2-0.2c-0.6,0.2-1.4,0.4-2.2,0.2l-0.4-0.8l-0.6,0.4l-0.8-0.8l-0.6,0.8
	c-2.2-0.8-4.6-1-7-0.8c-0.4,0-1,0-1.4,0.2c-0.6,0.2-1.2,0.2-1.6-0.2c-0.2-0.2-0.6-0.2-0.8-0.2s-0.4,0.2-0.8,0.2c-0.4,0-0.6,0-0.8,0
	c-0.4,0-0.8,0.2-1.2,0.2l-0.6-0.4l-2.4,1.6l-1.6,0.2c-2.6,0.6-5,1.6-7.4,2.8c-0.6,0.2-1.2,0.6-1.6,1c-0.8,1.4-2.2,2-3.2,3.2h-0.8
	v0.6c-0.8,0.8-1.2,1.4-1.8,2c-0.6,0.6-1.2,1.2-2,2l0.4,0.4L28.9,16.5z"/>
	<path fill="#363F66" d="M74.3,22.1v-0.8c-0.8,0-1.6,0.4-2,1.2l-0.2-0.8c-1.8,0.2-3.6,0-5.4-0.6v-0.6c1.4-1.2,2.6-2.6,3.2-4.2
	c-1,0.2-1.6-0.2-2.2,0.2c-0.6,0.4-1.4-0.2-2,0.4c-0.4,0.2-0.8,0.2-1,0c-0.4-0.4-1-0.2-1.4-0.2l-1-1.4c1.6-1,2.8-2.4,3.6-4.2
	l-0.4-0.4l1.4,0.2l0,0l1,0.8c-0.2,0.8-1,0.8-1.2,1.4s-1,0.4-1.4,0.8c-0.4,0.4-1,1-1.6,1.6l1,0.6c0.8-0.2,1.6-0.4,2.6-0.2
	c0.8,0,1.8,0,2.6-0.4c1-0.2,1.8-0.2,2.8-0.2l0.4,0.4c-1.2,1.6-2.6,3.2-4.2,4.6l0.6,0.8l0.6-0.2c1.6,0.2,3.2,0.4,4.8,0.2l0.4,0.4
	L74.3,22.1z M69.1,18.5L69.1,18.5v0.4l0,0V18.5z M71.7,16.3L71.7,16.3h0.4l0,0H71.7z"/>
	<path fill="#363F66" d="M89.9,19.9c0.8,1.8,1.2,3.6,1.4,5.4c0.2,1,0.4,2,0.8,3c0.2,0.4,0.2,0.8-0.2,1.2l0.6,0.6c0,0.4,0,0.8,0.2,1.2
	c0.2,0.4,0.2,1,0,1.4v1.4c0.6,1.2,0.8,2.4,0.8,3.6c0,1.2,0.6,2.2,0.6,3.2c0.6,0.4,0.4,1.2,0.4,1.8c0,1,0,2,0.2,3
	c0.2,0.6-0.2,1.2-0.2,1.8c0,0.6-0.2,0.6-0.4,1l0.2,0.4l-0.2,1.2c-0.2-0.6-0.4-1.2-0.4-2s0.2-1,0.2-1.6c0-0.6-0.4-0.6-0.2-1.2
	c0-0.4,0-0.8,0-1.4c0-0.4,0-1,0-1.4c0-0.4-0.2-0.8-0.4-1.2c-0.2-0.4,0.2-1.2-0.4-1.6c0.4-0.2-0.2-0.8,0.2-1.2
	c0.2-0.2-0.2-0.8-0.2-1.2l0.2-0.4l-0.6-0.6l0.4-0.4c-0.4-1.2-0.8-2.4-1-3.6c-0.4-0.8-0.6-1.8-0.6-2.6c0-0.2-0.2-0.4-0.4-0.6
	c-0.8-1-1.2-2.4-2-3.6c0.2,0,0.6,0,0.6,0.2c0,0.2,0.8,0,0.8,0.6c0,0.2,0.4,0.2,0.6,0.4l-1.6-6.8H89.9z M91.5,27.7L91.5,27.7
	l-0.2,0.4h0.2V27.7z"/>
	<path fill="#363F66" d="M63.7,7.7l-2.6,1.6c0,0.4,0.4,0.8,1,0.8c0.4,0,0.8,0.2,1.2,0.6h-2.2l-0.8-2l2-2c-1-0.2-1.4-1-2.2-0.2
	c-0.8-0.4-0.8-0.4-1.6,0c-0.4-0.6-1.2-0.8-1.6-1.6c0.4,0,0.6,0,1,0.2c1,0.4,2.2,0.8,3.4,0.8c0.6,0,1.4,0.4,1.6,1
	C62.9,7.1,63.3,7.5,63.7,7.7z"/>
	<path fill="#363F66" d="M87.9,14.9c-0.8-1-1.6-2-2.4-3c-0.4-0.4-0.6-0.8-1-1.2c-0.4-0.4-0.4-1-1-1.2c-0.4-0.2-1-0.6-1.2-1
	c-1.2-1.4-2.6-2.6-4.2-3.6c-0.6-0.2-1.2-0.6-1.6-1c0.2,0,0.6-0.2,0.8,0c1.4,0.6,2.6,1.4,3.8,2.4c0.6,0.4,1,1,1.6,1.4
	c0.6,0.4,0.8,1,1.6,1.4c0.8,0.4,0.4,1,1.2,1l-0.4,0.2l1.6,1.6l0,0l-0.2,0.2l0,0l0.2-0.2C87.3,12.7,87.9,13.7,87.9,14.9z"/>
	<path fill="#363F66" d="M87.7,24.3c-2-1.2-2-1.2-8.2-2h2.2l0.2-0.8l-2-0.2v-0.2h1.6v-0.2l-1.6-0.2c1.6-0.4,3.2-0.2,4.4,0.8
	c0.4,0.2,0.8,0.6,1,1l0.6-0.4c0.4,0.4,0.6,0.8,1,1C87.3,23.3,87.7,23.7,87.7,24.3z M83.9,22.3L83.9,22.3l0.2,0.2v-0.2H83.9z
	 M83.3,21.9L83.3,21.9l0.4,0.2l0,0L83.3,21.9z"/>
	<path fill="#363F66" d="M46.7,29.7c-1.4-1.8-3.2-3.4-4.8-4.8c-0.6-0.4-1.4-1-1.8-1.8c0-0.2-0.2-0.4-0.2-0.6c1.2,0.6,2.2,1.6,3,2.6
	c1.6,1.4,3,2.8,4.6,4.4c0.2,0.2,0.4,0.4,0.4,0.6l-0.6,0.4l-0.2-0.6h-0.4V29.7z"/>
	<path fill="#363F66" d="M35.1,13.7c0.8,1,1.6,1.8,2.6,2.4c1,0.8,2,1.8,2.8,3c-0.2,0-0.6-0.2-0.8-0.2c-0.6-0.4-1-1-1.4-1.4
	c-0.4-0.4-1-0.8-1.6-1.2c-0.4-0.6-1-1-1.4-1.4c-0.6-0.2-0.8-1-1.4-1c-0.2,0-0.2-0.4-0.2-0.6C34.5,12.7,34.5,13.9,35.1,13.7z"/>
	<path fill="#363F66" d="M39.1,55.6c-0.4,0-1-0.2-1.2-0.4c-1.2-1-2.2-2-3-3.2c-0.4-1-0.8-2-1.2-3l1.2,0.8l0.2,1.6c0.4,0.6,0.6,1,1,1.6
	c0.4,0.4,0.8,1.2,1.6,1.2c0,0.4,0.2,0.8,0.6,1C38.7,55.2,38.9,55.4,39.1,55.6z"/>
	<path fill="#363F66" d="M38.1,56.2c-2.6-1.4-4.6-4-5-7c0.2,0.2,0.4,0.6,0.6,0.8c0.4,1.4,1,2.6,2,3.6c0.8,0.6,1.4,1.6,2.4,2V56.2z"/>
	<path fill="#363F66" d="M34.3,17.5l-0.6,0.4l-2.4-2.4h0.8L34.3,17.5z"/>
	<path fill="#363F66" d="M34.7,26.3c0.8-0.4,0.2-0.8,0-1.2h0.6c0.4-0.2-0.2-1,0.4-1c0,0.4,0,0.6,0,1s0,0.6-0.2,1
	c-0.2,0.8-0.4,1.6-0.6,2.4c0,0.2-0.2,0.4-0.4,0.6L34.7,26.3z"/>
	<path fill="#363F66" d="M75.1,3.5c-1.2,0.4-2-0.6-3-0.8c0-0.2,0-0.2,0-0.4c0.2,0,0.6,0,1,0c0.6,0.2,1,0.2,1.6,0.4
	C74.9,2.7,75.1,3.1,75.1,3.5z"/>
	<path fill="#363F66" d="M45.9,36.9l-0.6-0.6c0.4-0.8,0.6-1.6,0.6-2.4c-0.2-0.6,0.2-1.2,0.6-1.6v1.6c-0.2,0.2-0.4,0.2-0.4,0.4
	c0,0.6,0,1,0,1.6C45.7,35.9,46.1,36.5,45.9,36.9z"/>
	<path fill="#363F66" d="M43.3,27.7c1,0.2,1.6,0.8,2,1.6l-0.6,0.2c-0.4-0.4-1-1-1.4-1.6C43.1,27.9,43.3,27.7,43.3,27.7z"/>
	<path fill="#363F66" d="M46.7,30.9c-0.6,0.2-0.2,1-0.6,1.4c-0.2,0.2-0.4,0.6-0.6,0.8c-0.2-1.2,0.4-2.4,1.2-3.2
	C46.7,29.9,46.7,30.9,46.7,30.9z"/>
	<path fill="#363F66" d="M39.9,58.6c0.6,0.2,1.4,0.4,2,0.8c0.4,0.2,1,0.4,1.4,0.4c0,0,0.2,0.2,0.2,0.4h-1C41.5,59.8,40.5,59.4,39.9,58.6
	z"/>
	<path fill="#363F66" d="M37.5,58.2h0.6l1.4,1.4c-1,0.4-1.2-0.6-2-0.8V58.2z"/>
	<path fill="#363F66" d="M30.5,17.1l1-0.2c0.4,0.2,0.4,0.2,0.4,1.2l-1.2-0.6L30.5,17.1z"/>
	<path fill="#363F66" d="M39.7,24.1c0.4,0.4,0.4,1,1.2,1.2l-0.4,0.6l-1.4-1.4L39.7,24.1z"/>
	<path fill="#363F66" d="M38.5,23.7c-1,0.2-1-0.8-1.8-1.2l0.6-0.6C37.3,22.7,38.7,22.5,38.5,23.7z"/>
	<path fill="#363F66" d="M41.9,57.2c-1,0-2-0.4-2.4-1.4C40.3,56.2,41.1,56.6,41.9,57.2z"/>
	<path fill="#363F66" d="M89.5,45.7l0.4,0.4l-0.8,0.8l-0.8-0.4L89.5,45.7z"/>
	<path fill="#363F66" d="M90.1,76.8l2.8-0.6C92.3,76.8,91.1,77,90.1,76.8z"/>
	<path fill="#363F66" d="M34.7,15.5h-1c-0.6-0.4-0.8-0.8-1-1.4L34.7,15.5z"/>
	<path fill="#363F66" d="M43.3,21.5l1.8,1.6h-0.6C44.1,22.7,43.1,22.5,43.3,21.5z"/>
	<path fill="#363F66" d="M35.9,27.7c-0.6-1,0.6-1.8,0.2-2.6C36.5,25.9,36.5,25.9,35.9,27.7z"/>
	<path fill="#363F66" d="M39.3,14.5c1.2,0,1.4,0.8,1.8,1.2C40.3,15.7,39.9,14.9,39.3,14.5z"/>
	<path fill="#363F66" d="M32.3,23.9l0.6-2h0.2v1.6l-0.2-0.2l-0.4,0.8L32.3,23.9z"/>
	<path fill="#363F66" d="M83.3,40.9c0.8,0,1.4,0.4,2,1C84.5,41.9,83.7,41.5,83.3,40.9z"/>
	<path fill="#363F66" d="M34.3,15.5l1,0.4l0.4,0.8C35.3,17.1,34.7,16.5,34.3,15.5z"/>
	<path fill="#363F66" d="M79.9,76.2l-0.8,0.4h-1.6v-0.2L79.9,76.2L79.9,76.2z"/>
	<path fill="#363F66" d="M69.3,24.5l-1.2,0.6v-0.6l1.4-0.6v0.6H69.3z"/>
	<path fill="#363F66" d="M80.1,77h2.2C81.7,77.2,80.9,77.2,80.1,77z"/>
	<path fill="#363F66" d="M36.1,13.5h-0.6l-0.4-1.6C35.7,12.5,36.1,12.7,36.1,13.5z"/>
	<path fill="#363F66" d="M38.5,56.6h0.8l0.8,1c-0.2,0-0.2,0-0.4,0L38.5,56.6z"/>
	<path fill="#363F66" d="M37.7,57.2c0.8,0,1,0.4,1.4,1h-1L37.7,57.2z"/>
	<path fill="#363F66" d="M80.3,41.7c-0.6,0-1-0.6-1.2-1.2L80.3,41.7z"/>
	<path fill="#363F66" d="M32.7,19.1l-1-0.6l1-1V19.1z"/>
	<path fill="#363F66" d="M85.3,48.9l1.4,0.6l-0.2,0.8L85.3,48.9L85.3,48.9z"/>
	<path fill="#363F66" d="M77.1,77v1h-2.2C75.7,77.4,76.5,78,77.1,77z"/>
	<path fill="#363F66" d="M35.9,24.1l-0.6-1l0.8-0.2l0.2,0.2L35.9,24.1z"/>
	<path fill="#363F66" d="M79.7,77.6h-2.4c0-0.2,0-0.2,0.2-0.2h2.2L79.7,77.6z"/>
	<path fill="#363F66" d="M60.9,45.3v0.6l-0.8,0.4l-0.6-0.4L60.9,45.3z"/>
	<path fill="#363F66" d="M38.1,57.2c-1,0.2-1.2-0.4-1.8-1C37.3,56.2,37.5,57,38.1,57.2z"/>
	<path fill="#363F66" d="M80.9,39.3c0.8,0,1,0.4,1.4,1C81.5,40.3,81.1,39.7,80.9,39.3z"/>
	<path fill="#363F66" d="M60.5,46.7c-0.4,1-1,0.6-1.6,0.6L60.5,46.7z"/>
	<path fill="#363F66" d="M46.7,32.1v-1.2h0.6v0.6c-0.2,0-0.2,0.2-0.4,0.2C46.9,31.9,46.7,31.9,46.7,32.1z"/>
	<path fill="#363F66" d="M45.3,34.1v2C44.7,35.5,44.7,34.7,45.3,34.1z"/>
	<path fill="#363F66" d="M66.1,57.4h2L66.5,58L66.1,57.4z"/>
	<path fill="#363F66" d="M33.3,18.1l0.4,0.4l-0.4,0.8c-0.2,0-0.6-0.4-0.4-0.6C33.1,18.5,33.1,18.5,33.3,18.1z"/>
	<path fill="#363F66" d="M39.1,22.3c-0.2,0-0.4-0.2-0.6-0.4c-0.2-0.2-0.4-0.4-0.4-0.6C38.9,21.3,39.1,21.5,39.1,22.3z"/>
	<path fill="#363F66" d="M45.9,26.7c0.6,0,1.2,0,1.4,0.6h-0.8L45.9,26.7z"/>
	<path fill="#363F66" d="M72.7,25.1l1.4-1l0.2,0.6l-1.4,0.6L72.7,25.1z"/>
	<path fill="#363F66" d="M76.3,77h-1.6C75.3,76.6,75.9,76.6,76.3,77z"/>
	<path fill="#363F66" d="M41.3,28.1h-0.8v-1h0.2L41.3,28.1z"/>
	<path fill="#363F66" d="M34.5,17.5c0.4,0,0.8,0.6,0.6,1l0,0h-0.6V17.5z"/>
	<path fill="#363F66" d="M78.9,78.4l-1,0.6l-0.2-0.6H78.9z"/>
	<path fill="#363F66" d="M41.5,58.2h-0.8l-0.6-0.6C40.7,57.6,41.3,57.8,41.5,58.2z"/>
	<path fill="#363F66" d="M36.7,19.9c-0.4,0.2-1-0.2-1-0.6l0,0h1V19.9z"/>
	<path fill="#363F66" d="M80.1,39.9l1,1C80.5,40.9,80.1,40.7,80.1,39.9z"/>
	<path fill="#363F66" d="M75.1,3.7l0.6-0.4l0.4,0.8v0.2L75.1,3.7z"/>
	<path fill="#363F66" d="M34.7,21.9l0.8,0.2l-0.6,1L34.7,21.9z"/>
	<path fill="#363F66" d="M88.3,42.7l-0.2,0.8l-1-0.8H88.3z"/>
	<path fill="#363F66" d="M86.9,41.5c1,0,1.4,0,1.8,0.8L86.9,41.5z"/>
	<path fill="#363F66" d="M83.3,76.8l1.2-0.4V77L83.3,76.8L83.3,76.8z"/>
	<path fill="#363F66" d="M74.3,21.9c0,0.4-0.4,0.8-1,0.6l0,0C73.5,22.1,73.9,21.9,74.3,21.9L74.3,21.9z"/>
	<path fill="#363F66" d="M37.1,21.3l-0.8,0.8v-0.8H37.1z"/>
	<path fill="#363F66" d="M34.3,19.1v0.8h-0.4l-0.2-0.6L34.3,19.1z"/>
	<ellipse fill="#363F66" cx="86.3" cy="76.4" rx="1" ry="0.2"/>
	<path fill="#363F66" d="M35.5,30.5v-1.4h0.2C35.7,29.7,35.9,30.1,35.5,30.5z"/>
	<path fill="#363F66" d="M89.3,19.9v-1.4h0.2L89.3,19.9L89.3,19.9z"/>
	<path fill="#363F66" d="M80.5,41.7c0.4-0.2,1,0.2,1,0.6l0,0C81.1,42.3,80.5,42.1,80.5,41.7L80.5,41.7z"/>
	<path fill="#363F66" d="M85.1,41.9h1.4c0,0.2,0,0.2,0,0.2C86.1,42.1,85.5,42.5,85.1,41.9z"/>
	<path fill="#363F66" d="M55.5,42.9c-0.4,0-0.6,0-1,0c-0.2,0-0.2-0.2-0.4-0.4c0.4,0,0.6,0,1,0C55.1,42.7,55.3,42.9,55.5,42.9z"/>
	<path fill="#363F66" d="M76.1,43.3v-0.6c0.6,0.2,0.8,0.6,0.6,1h-0.4L76.1,43.3z"/>
	<path fill="#363F66" d="M35.5,20.5h0.6l-0.6,1.4V20.5z"/>
	<path fill="#363F66" d="M55.5,44.3v-0.6l1.2,0.4L55.5,44.3z"/>
	<path fill="#363F66" d="M41.1,28.1c0.2,0,0.6-0.2,0.6,0.4l-0.6,0.6V28.1z"/>
	<path fill="#363F66" d="M33.7,20.9l-0.4,1C32.7,21.1,33.3,20.9,33.7,20.9z"/>
	<circle fill="#363F66" cx="35.5" cy="18.9" r="0.4"/>
	<path fill="#363F66" d="M70.3,25.7c0-0.4,0.4-0.8,1-0.6l0,0C71.3,25.5,70.9,25.7,70.3,25.7L70.3,25.7z"/>
	<path fill="#363F66" d="M70.9,26.3l1.2-0.6v0.6H70.9z"/>
	<path fill="#363F66" d="M48.3,28.3h-1l0.4-0.6L48.3,28.3z"/>
	<circle fill="#363F66" cx="37.1" cy="20.3" r="0.4"/>
	<path fill="#363F66" d="M72.7,79h1.2v0.2h-1.2V79z"/>
	<path fill="#363F66" d="M73.9,78.2h-1.2V78L73.9,78.2L73.9,78.2z"/>
	<path fill="#363F66" d="M35.1,20.5h-0.6l0.6-1.2V20.5z"/>
	<path fill="#363F66" d="M43.3,27.7h-0.6v-0.6h0.6V27.7z"/>
	<path fill="#363F66" d="M68.7,51.4v-1C68.9,51,68.9,51,68.7,51.4z"/>
	<path fill="#363F66" d="M45.5,29.3v1h-0.2l-0.2-1H45.5z"/>
	<path fill="#363F66" d="M42.9,23.3h-0.6v-0.6L42.9,23.3L42.9,23.3z"/>
	<path fill="#363F66" d="M63.5,7.1l0.6-0.2v1L63.5,7.1z"/>
	<path fill="#363F66" d="M39.7,27.7v1h-0.2l-0.2-0.8L39.7,27.7z"/>
	<path fill="#363F66" d="M36.7,17.5l0.6,0.6h-0.6V17.5z"/>
	<path fill="#363F66" d="M37.5,20.5h0.6v0.6L37.5,20.5z"/>
	<path fill="#363F66" d="M89.9,41.5h-1v-0.2l1-0.2V41.5z"/>
	<path fill="#363F66" d="M88.9,16.5v1h-0.2l-0.2-1H88.9z"/>
	<ellipse fill="#363F66" cx="88.5" cy="76.2" rx="0.8" ry="0.2"/>
	<path fill="#363F66" d="M43.5,23.9h-0.6v-0.6L43.5,23.9z"/>
	<path fill="#363F66" d="M41.9,28.3c0.6,0.2,0.2,0.6,0.4,1C41.5,29.3,41.9,28.7,41.9,28.3z"/>
	<path fill="#363F66" d="M81.1,76.2h-1V76l1-0.2V76.2z"/>
	<path fill="#363F66" d="M41.5,26.3h0.6v0.6L41.5,26.3L41.5,26.3z"/>
	<path fill="#363F66" d="M39.9,27.3v-1h0.2l0.2,1H39.9z"/>
	<path fill="#363F66" d="M45.3,34.1v-1C45.7,33.7,45.7,33.7,45.3,34.1z"/>
	<path fill="#363F66" d="M86.5,75h1v0.2l-1,0.2V75z"/>
	<path fill="#363F66" d="M87.9,14.9c0.8,0,0.2,0.6,0.4,1C87.7,15.7,88.1,15.1,87.9,14.9z"/>
	<path fill="#363F66" d="M73.9,23.7l-0.8,0.4v-0.6L73.9,23.7L73.9,23.7z"/>
	<path fill="#363F66" d="M41.5,26.3h-0.6l-0.2-0.2l0.6-0.2L41.5,26.3z"/>
	<path fill="#363F66" d="M86.9,77.6l-0.6,0.2C86.1,77.4,86.3,77.2,86.9,77.6z"/>
	<path fill="#363F66" d="M60.7,43.7l0.8-0.6v0.8L60.7,43.7L60.7,43.7z"/>
	<path fill="#363F66" d="M42.1,20.9l-0.6-0.6h0.6V20.9z"/>
	<ellipse fill="#363F66" cx="75.9" cy="78.8" rx="0.8" ry="0.2"/>
	<ellipse fill="#363F66" cx="88.1" cy="44.1" rx="0.8" ry="0.2"/>
	<ellipse fill="#363F66" cx="38.3" cy="25.5" rx="0.2" ry="0.8"/>
	<path fill="#363F66" d="M87.7,45.1h0.4v0.2l-0.6,0.2L87.7,45.1z"/>
	<path fill="#363F66" d="M60.9,45.1h0.6v0.2l-0.6,0.2V45.1z"/>
	<path fill="#363F66" d="M88.5,45.3l0.8,0.2c-0.2,0-0.4,0.2-0.4,0.2C88.9,45.7,88.7,45.5,88.5,45.3z"/>
	<path fill="#363F66" d="M58.1,45.3h-0.6v-0.2l0.6-0.2V45.3z"/>
	<path fill="#363F66" d="M54.5,45.3l-0.8-0.2c0.2,0,0.4-0.2,0.4-0.2C54.1,45.1,54.3,45.1,54.5,45.3z"/>
	<path fill="#363F66" d="M52.3,31.5l0.2-0.8c0,0.2,0.2,0.4,0.2,0.4C52.7,31.3,52.5,31.3,52.3,31.5z"/>
	<path fill="#363F66" d="M64.1,44.5c0.1,0,0.2,0.2,0.2,0.4s-0.1,0.4-0.2,0.4c-0.1,0-0.2-0.2-0.2-0.4S64,44.5,64.1,44.5z"/>
	<path fill="#363F66" d="M59.3,44.3h0.6v0.2l-0.6,0.2V44.3z"/>
	<path fill="#363F66" d="M45.3,30.7l-0.2,0.8c0-0.2-0.2-0.4-0.2-0.4C44.9,30.9,45.1,30.9,45.3,30.7z"/>
	<path fill="#363F66" d="M77.1,43.9c0.4,0,0.2,0.4,0.4,0.6h-0.4V43.9z"/>
	<path fill="#363F66" d="M65.9,44.3h-0.6v-0.4l0.6-0.2V44.3z"/>
	<path fill="#363F66" d="M70.9,24.3h-0.6v-0.2l0.6-0.2V24.3z"/>
	<ellipse fill="#363F66" cx="62.3" cy="46.1" rx="0.2" ry="0.4"/>
	<ellipse fill="#363F66" cx="67.9" cy="54.4" rx="0.4" ry="0.2"/>
	<path fill="#363F66" d="M72.7,43.1l-0.2,0.8c0-0.2-0.2-0.4-0.2-0.4C72.3,43.5,72.5,43.3,72.7,43.1z"/>
	<path fill="#363F66" d="M32.1,26.3v-0.6h0.2l0.2,0.6H32.1z"/>
	<path fill="#363F66" d="M37.3,12.1l-0.8-0.2c0.2,0,0.4-0.2,0.4-0.2C36.9,11.7,37.1,11.9,37.3,12.1z"/>
	<path fill="#363F66" d="M45.7,26.7v-0.6h0.2l0.2,0.6H45.7z"/>
	<path fill="#363F66" d="M39.3,24.1l-0.8-0.2c0.2,0,0.4-0.2,0.4-0.2C38.9,23.7,39.1,23.7,39.3,24.1z"/>
	<ellipse fill="#363F66" cx="89.7" cy="42.5" rx="0.4" ry="0.2"/>
	<path fill="#363F66" d="M82.3,42.7l-0.8-0.2c0.2,0,0.4-0.2,0.4-0.2C81.9,42.3,82.1,42.3,82.3,42.7z"/>
	<path fill="#363F66" d="M71.7,23.3h0.6v0.2l-0.6,0.2V23.3z"/>
	<path fill="#363F66" d="M88.7,16.5c-0.6,0-0.4-0.4-0.4-0.6C88.7,15.9,88.5,16.3,88.7,16.5z"/>
	<ellipse fill="#363F66" cx="68.9" cy="56.2" rx="0.4" ry="0.2"/>
	<path fill="#363F66" d="M86.5,41.1l0.8,0.2c-0.2,0-0.4,0.2-0.4,0.2C86.7,41.5,86.7,41.5,86.5,41.1z"/>
	<path fill="#363F66" d="M70.1,56h0.6v0.2h-0.6V56z"/>
	<path fill="#363F66" d="M82.7,41.7l-0.8-0.2c0.2,0,0.4-0.2,0.4-0.2C82.3,41.3,82.5,41.3,82.7,41.7z"/>
	<path fill="#363F66" d="M81.1,40.9c0.2,0,0.6-0.2,0.6,0.4C81.5,41.1,81.1,41.5,81.1,40.9z"/>
	<path fill="#363F66" d="M41.5,58.2c0.2,0,0.6-0.2,0.6,0.4C41.9,58.6,41.5,58.8,41.5,58.2z"/>
	<path fill="#363F66" d="M39.1,58.2c0.2,0,0.6-0.2,0.6,0.4C39.5,58.6,39.1,58.8,39.1,58.2z"/>
	<path fill="#363F66" d="M35.9,17.1l0.8,0.2c-0.2,0-0.4,0.2-0.4,0.2C36.3,17.5,36.1,17.5,35.9,17.1z"/>
	<ellipse fill="#363F66" cx="39.9" cy="20.7" rx="0.4" ry="0.2"/>
	<path fill="#363F66" d="M73.3,22.9h-0.6v-0.2l0.6-0.2V22.9z"/>
	<path fill="#363F66" d="M87.5,40.5l0.8,0.2c-0.2,0-0.4,0.2-0.4,0.2S87.7,40.9,87.5,40.5z"/>
	<path fill="#363F66" d="M83.3,40.9c-0.2,0-0.6,0.2-0.6-0.4C82.7,40.7,83.1,40.3,83.3,40.9z"/>
	<path fill="#363F66" d="M81.7,78.2h-0.6V78l0.6-0.2V78.2z"/>
	<path fill="#363F66" d="M39.9,22.5c-0.2,0-0.6,0.2-0.6-0.4C39.5,22.3,39.7,22.1,39.9,22.5z"/>
	<path fill="#363F66" d="M72.7,77.2h-0.6V77l0.6-0.2V77.2z"/>
	<path fill="#363F66" d="M85.5,40.1l0.2-0.2l0.2,0.2H85.5L85.5,40.1z"/>
	<path fill="#363F66" d="M82.1,40.3l0.4,0.4L82.1,40.3z"/>
	<path fill="#363F66" d="M80.1,39.9l-0.4-0.4L80.1,39.9z"/>
	<path fill="#363F66" d="M88.5,39.1c0.1,0,0.2,0,0.2,0S88.6,39.1,88.5,39.1c-0.1,0-0.2,0-0.2,0S88.4,39.1,88.5,39.1z"/>
	<path fill="#363F66" d="M80.5,38.9l0.4,0.4L80.5,38.9z"/>
	<path fill="#363F66" d="M85.9,40.9l0.2,0.2l0,0L85.9,40.9L85.9,40.9z"/>
	<path fill="#363F66" d="M88.3,40.9l0.2,0.2l0,0L88.3,40.9L88.3,40.9z"/>
	<path fill="#363F66" d="M87.5,38.7c0.1,0,0.2,0,0.2,0S87.6,38.7,87.5,38.7c-0.1,0-0.2,0-0.2,0S87.4,38.7,87.5,38.7z"/>
	<path fill="#363F66" d="M80.1,38.5l0.4,0.4L80.1,38.5z"/>
	<path fill="#363F66" d="M80.1,38.5l-0.4-0.4L80.1,38.5z"/>
	<path fill="#363F66" d="M87.7,37.5c0,0,0,0.1,0,0.2s0,0.2,0,0.2s0-0.1,0-0.2S87.7,37.5,87.7,37.5z"/>
	<path fill="#363F66" d="M55.5,42.9l0.2,0.2l-0.2,0.2V42.9L55.5,42.9z"/>
	<path fill="#363F66" d="M62.1,43.3c0,0,0,0.1,0,0.2c0,0.1,0,0.2,0,0.2s0-0.1,0-0.2C62.1,43.4,62.1,43.3,62.1,43.3z"/>
	<path fill="#363F66" d="M64.5,43.7l-0.2,0.2l0,0L64.5,43.7L64.5,43.7z"/>
	<path fill="#363F66" d="M76.7,43.7l0.4,0.4L76.7,43.7z"/>
	<path fill="#363F66" d="M60.9,44.1l-0.2,0.2v-0.2H60.9L60.9,44.1z"/>
	<path fill="#363F66" d="M58.5,44.7l-0.4-0.2h0.2L58.5,44.7L58.5,44.7z"/>
	<path fill="#363F66" d="M58.5,44.7l0.2,0.2v0.2L58.5,44.7L58.5,44.7z"/>
	<path fill="#363F66" d="M77.5,44.7l0.2,0.2v0.2L77.5,44.7L77.5,44.7z"/>
	<path fill="#363F66" d="M58.7,46.1c0.1,0,0.2,0,0.2,0S58.8,46.1,58.7,46.1c-0.1,0-0.2,0-0.2,0S58.6,46.1,58.7,46.1z"/>
	<path fill="#363F66" d="M55.9,46.5c0.2,0,0.2,0,0.2,0S56.1,46.5,55.9,46.5c-0.2,0.2-0.2,0.2-0.2,0C55.7,46.3,55.9,46.5,55.9,46.5z"/>
	<path fill="#363F66" d="M57.3,46.3c0,0,0,0.1,0,0.2c0,0.1,0,0.2,0,0.2s0-0.1,0-0.2C57.3,46.4,57.3,46.3,57.3,46.3z"/>
	<path fill="#363F66" d="M61.1,46.3c0,0,0,0.1,0,0.2c0,0.1,0,0.2,0,0.2s0-0.1,0-0.2C61.1,46.4,61.1,46.3,61.1,46.3z"/>
	<path fill="#363F66" d="M84.3,48.3c0,0,0,0.1,0,0.2s0,0.2,0,0.2s0-0.1,0-0.2S84.3,48.3,84.3,48.3z"/>
	<path fill="#363F66" d="M85.3,49.1l-0.2-0.2v-0.2L85.3,49.1L85.3,49.1z"/>
	<path fill="#363F66" d="M68.7,51.6l-0.2,0.2v-0.2H68.7L68.7,51.6z"/>
	<path fill="#363F66" d="M77.7,51.8c0,0,0,0.1,0,0.2c0,0.1,0,0.2,0,0.2s0-0.1,0-0.2C77.7,51.8,77.7,51.8,77.7,51.8z"/>
	<path fill="#363F66" d="M76.3,52.2c0,0,0,0.1,0,0.2s0,0.2,0,0.2s0-0.1,0-0.2S76.3,52.2,76.3,52.2z"/>
	<path fill="#363F66" d="M69.9,53.8c0,0,0,0.1,0,0.2c0,0.1,0,0.2,0,0.2s0-0.1,0-0.2C69.9,53.8,69.9,53.8,69.9,53.8z"/>
	<path fill="#363F66" d="M52.7,30.7l0.2-0.2l0,0L52.7,30.7L52.7,30.7z"/>
	<path fill="#363F66" d="M44.1,30.7l0.2-0.2l0,0L44.1,30.7L44.1,30.7z"/>
	<path fill="#363F66" d="M34.7,54.6l0.4,0.4L34.7,54.6z"/>
	<path fill="#363F66" d="M39.5,56l-0.4-0.4L39.5,56z"/>
	<path fill="#363F66" d="M38.1,56.2l0.4,0.4L38.1,56.2z"/>
	<path fill="#363F66" d="M51.5,29.9c0.1,0,0.2,0,0.2,0S51.6,29.9,51.5,29.9c-0.1,0-0.2,0-0.2,0S51.4,29.9,51.5,29.9z"/>
	<path fill="#363F66" d="M48.7,28.7l-0.4-0.4L48.7,28.7z"/>
	<path fill="#363F66" d="M66.3,57.6L66.1,58v-0.2L66.3,57.6L66.3,57.6z"/>
	<path fill="#363F66" d="M47.7,27.7l-0.4-0.4L47.7,27.7z"/>
	<path fill="#363F66" d="M48.3,26.7l0.2,0.2h-0.2V26.7L48.3,26.7z"/>
	<path fill="#363F66" d="M47.9,26.3l0.4,0.4L47.9,26.3z"/>
	<path fill="#363F66" d="M47.7,25.9l0.4,0.4L47.7,25.9z"/>
	<path fill="#363F66" d="M70.3,25.7l-0.2,0.2l0,0L70.3,25.7L70.3,25.7z"/>
	<path fill="#363F66" d="M47.7,25.9l-0.4-0.4L47.7,25.9z"/>
	<path fill="#363F66" d="M88.5,25.5c0.1,0,0.2,0,0.2,0S88.6,25.5,88.5,25.5c-0.1,0-0.2,0-0.2,0S88.4,25.5,88.5,25.5z"/>
	<path fill="#363F66" d="M72.7,25.3l-0.2,0.2l0,0L72.7,25.3L72.7,25.3z"/>
	<path fill="#363F66" d="M46.9,25.3l0.4,0.4L46.9,25.3z"/>
	<path fill="#363F66" d="M46.9,25.3l-0.4-0.4L46.9,25.3z"/>
	<path fill="#363F66" d="M87.9,24.5l0.2,0.2l0,0L87.9,24.5L87.9,24.5z"/>
	<path fill="#363F66" d="M71.3,24.9l0.2-0.2l0,0L71.3,24.9L71.3,24.9z"/>
	<path fill="#363F66" d="M69.9,24.7c0,0,0,0.1,0,0.2c0,0.1,0,0.2,0,0.2s0-0.1,0-0.2C69.9,24.8,69.9,24.7,69.9,24.7z"/>
	<path fill="#363F66" d="M46.7,24.9l-0.4-0.4L46.7,24.9z"/>
	<path fill="#363F66" d="M44.3,24.9c0.1,0,0.2,0,0.2,0S44.4,24.9,44.3,24.9s-0.2,0-0.2,0S44.2,24.9,44.3,24.9z"/>
	<path fill="#363F66" d="M87.7,24.3l0.4,0.4L87.7,24.3z"/>
	<path fill="#363F66" d="M46.3,24.7l-0.4-0.4L46.3,24.7z"/>
	<path fill="#363F66" d="M45.5,23.9l0.4,0.4L45.5,23.9z"/>
	<path fill="#363F66" d="M43.5,23.9l0.2,0.2v0.2L43.5,23.9L43.5,23.9z"/>
	<path fill="#363F66" d="M32.5,23.9l-0.4,0.4v-0.2L32.5,23.9L32.5,23.9z"/>
	<path fill="#363F66" d="M71.7,23.7l-0.2,0.2h-0.2L71.7,23.7L71.7,23.7z"/>
	<path fill="#363F66" d="M45.3,23.7l0.4,0.4L45.3,23.7z"/>
	<path fill="#363F66" d="M74.1,23.3l-0.4,0.4L74.1,23.3z"/>
	<path fill="#363F66" d="M45.3,23.7l-0.4-0.4L45.3,23.7z"/>
	<path fill="#363F66" d="M81.5,75.8l0.2,0.2l0,0L81.5,75.8L81.5,75.8z"/>
	<path fill="#363F66" d="M74.1,23.3l0.2-0.2h0.2L74.1,23.3L74.1,23.3z"/>
	<path fill="#363F66" d="M85.1,76.8c0.1,0,0.2,0,0.2,0S85.2,76.8,85.1,76.8s-0.2,0-0.2,0S85,76.8,85.1,76.8z"/>
	<path fill="#363F66" d="M41.3,21.9l0.2,0.2l0,0L41.3,21.9L41.3,21.9z"/>
	<path fill="#363F66" d="M73.9,77c0,0,0,0.1,0,0.2c0,0.1,0,0.2,0,0.2s0-0.1,0-0.2C73.9,77.1,73.9,77,73.9,77z"/>
	<path fill="#363F66" d="M41.1,21.9l-0.2-0.2l0,0L41.1,21.9L41.1,21.9z"/>
	<path fill="#363F66" d="M43.1,21.7l-0.2-0.2v-0.2L43.1,21.7L43.1,21.7z"/>
	<path fill="#363F66" d="M42.1,20.9l0.2,0.2h-0.2V20.9L42.1,20.9z"/>
	<path fill="#363F66" d="M41.5,20.3l-0.4-0.4L41.5,20.3z"/>
	<path fill="#363F66" d="M84.1,77.8c0.1,0,0.2,0,0.2,0S84.2,77.8,84.1,77.8c-0.1,0-0.2,0-0.2,0S84,77.8,84.1,77.8z"/>
	<path fill="#363F66" d="M39.3,19.9c0,0,0,0.1,0,0.2s0,0.2,0,0.2s0-0.1,0-0.2S39.3,19.9,39.3,19.9z"/>
	<path fill="#363F66" d="M41.1,19.9l-0.4-0.4L41.1,19.9z"/>
	<path fill="#363F66" d="M40.9,19.5l-0.4-0.4L40.9,19.5z"/>
	<path fill="#363F66" d="M38.5,19.1l0.2,0.2l0,0L38.5,19.1L38.5,19.1z"/>
	<path fill="#363F66" d="M38.1,18.9l0.4,0.4L38.1,18.9z"/>
	<path fill="#363F66" d="M37.7,18.5l0.4,0.4L37.7,18.5z"/>
	<path fill="#363F66" d="M37.5,18.1l0.4,0.4L37.5,18.1z"/>
	<path fill="#363F66" d="M76.9,78.8c0.1,0,0.2,0,0.2,0S77,78.8,76.9,78.8c-0.1,0-0.2,0-0.2,0S76.8,78.8,76.9,78.8z"/>
	<path fill="#363F66" d="M89.1,17.9c0,0,0,0.1,0,0.2c0,0.1,0,0.2,0,0.2s0-0.1,0-0.2C89.1,18,89.1,17.9,89.1,17.9z"/>
	<path fill="#363F66" d="M42.1,16.9l0.2,0.2l-0.2,0.2V16.9z"/>
	<path fill="#363F66" d="M42.1,16.9l-0.2-0.2l0,0L42.1,16.9z"/>
	<path fill="#363F66" d="M39.5,14.5l-0.4-0.4L39.5,14.5z"/>
	<path fill="#363F66" d="M37.1,14.1l0.2,0.2h-0.2V14.1L37.1,14.1z"/>
	<path fill="#363F66" d="M38.9,13.7l0.4,0.4L38.9,13.7z"/>
	<path fill="#363F66" d="M37.1,14.1l-0.2-0.2v-0.2L37.1,14.1L37.1,14.1z"/>
	<path fill="#363F66" d="M38.5,13.5l0.4,0.4L38.5,13.5z"/>
	<path fill="#363F66" d="M36.1,13.5l0.2,0.2h-0.2V13.5L36.1,13.5z"/>
	<path fill="#363F66" d="M35.5,13.5l-0.4,0.4L35.5,13.5z"/>
	<path fill="#363F66" d="M38.1,13.1l0.4,0.4L38.1,13.1z"/>
	<path fill="#363F66" d="M38.1,13.1l-0.4-0.4v-0.2L38.1,13.1L38.1,13.1z"/>
	<path fill="#363F66" d="M36.5,11.7l-0.4-0.2l0,0L36.5,11.7L36.5,11.7z"/>
	<path fill="#363F66" d="M60.1,79.8h2.4l-0.8,0.4L60.1,79.8L60.1,79.8z"/>
	<path fill="#363F66" d="M65.1,80h-1v-0.2l1-0.2V80z"/>
	<path fill="#363F66" d="M63.1,79.8c0.1,0,0.2,0,0.2,0S63.2,79.8,63.1,79.8s-0.2,0-0.2,0S63,79.8,63.1,79.8z"/>
	<path fill="#363F66" d="M65.9,80l-0.2-0.2l0,0L65.9,80L65.9,80z"/>
	<path fill="#363F66" d="M60.1,80l-0.2,0.2l0,0L60.1,80L60.1,80z"/>
	<path fill="#363F66" d="M24.7,51.6c0.8,1.2,1.2,2.6,1.4,4C25.5,54.2,24.9,53,24.7,51.6z"/>
	<path fill="#363F66" d="M17.1,39.9c-0.6-0.6-1.2-1.2-2-1.8c-0.2-0.2,0-0.4-0.2-0.6c0.6,0.6,1.4,1.2,2,1.8
	C17.1,39.5,17.1,39.7,17.1,39.9z"/>
	<path fill="#363F66" d="M15.1,37.5h-0.6c-0.2-0.6-1.2-0.8-1.2-1.6L15.1,37.5z"/>
	<path fill="#363F66" d="M26.7,57.6L26.1,56C27.3,56.2,26.9,57,26.7,57.6z"/>
	<path fill="#363F66" d="M20.7,45.5l1.6-0.6l-0.4,0.8l0.4,0.8L20.7,45.5z"/>
	<path fill="#363F66" d="M24.5,51.6c-0.8-0.2-0.8-0.8-0.6-1.4C24.3,50.3,24.7,51,24.5,51.6z"/>
	<path fill="#363F66" d="M23.3,48.7c0.8,0.2,0.8,0.8,0.6,1.4C23.5,49.7,23.1,49.3,23.3,48.7z"/>
	<path fill="#363F66" d="M18.1,40.9l-1-1C17.9,39.9,18.1,40.1,18.1,40.9z"/>
	<path fill="#363F66" d="M20.1,43.7c0.6,0,1,0.2,0.6,1L20.1,43.7z"/>
	<path fill="#363F66" d="M23.1,47.9c-0.4-0.2-1-0.2-0.6-1L23.1,47.9z"/>
	<path fill="#363F66" d="M26.9,57.6c0.4,0,0.2,0.4,0.4,0.6C26.7,58.2,26.9,57.8,26.9,57.6z"/>
	<path fill="#363F66" d="M22.9,48.1c0.6,0,0.2,0.4,0.4,0.6C22.7,48.7,22.9,48.3,22.9,48.1z"/>
	<path fill="#363F66" d="M22.1,46.5c0.1,0,0.2,0,0.2,0S22.2,46.5,22.1,46.5c-0.1,0-0.2,0-0.2,0S21.9,46.5,22.1,46.5z"/>
	<path fill="#363F66" d="M11.2,21.1l0.8-0.4l-0.4-0.8h1.4l-0.4,0.8c0.2,0,0.2,0.2,0.4,0.2c0.6-0.4,1.2-0.4,1.8-0.2
	C13.7,21.5,12.4,21.1,11.2,21.1z"/>
	<path fill="#363F66" d="M11.2,21.3c-0.2,0-0.2,0.2-0.4,0.4H8.6v-0.6C9.4,20.7,10.4,20.9,11.2,21.3z"/>
	<path fill="#363F66" d="M18.1,21.3h-2v-0.6L18.1,21.3L18.1,21.3z"/>
	<path fill="#363F66" d="M10.2,20.3c-0.2,0-0.2,0.2-0.4,0.4c-0.6,0-1,0-1.6,0c0.2-0.2,0.2-0.4,0.4-0.4C9.2,20.3,9.6,20.3,10.2,20.3z"/>
	<ellipse fill="#363F66" cx="17.5" cy="20.1" rx="1" ry="0.2"/>
	<path fill="#363F66" d="M10.2,19.9h1v0.2l-1,0.2V19.9z"/>
	<path fill="#363F66" d="M15.7,21.1l-0.8-0.4l0.8-0.2V21.1z"/>
	<path fill="#363F66" d="M23.9,24.3c0.6,0,0.4,0.4,0.4,0.6C23.7,24.9,23.9,24.5,23.9,24.3z"/>
	<path fill="#363F66" d="M16.1,19.9h-0.6v-0.2l0.6-0.2V19.9z"/>
	<path fill="#363F66" d="M23.9,24.3l-0.2-0.2l0,0L23.9,24.3L23.9,24.3z"/>
	<path fill="#363F66" d="M15.1,39.9v-0.6c1,0.2,1.8,1,2,2c-0.6,0-0.8-0.2-1-0.8C15.9,40.1,15.5,39.9,15.1,39.9z"/>
	<path fill="#363F66" d="M38.5,53.8c1,0.2,2,0.8,2.4,1.6c-0.2,0-0.2,0-0.4,0C39.9,55,38.9,54.8,38.5,53.8z"/>
	<path fill="#363F66" d="M40.5,60.6c-0.2-0.6-0.8-0.2-1-0.4v-0.6c0.4,0,0.8,0,1,0.2c0.6,0.6,1.6,1,2.6,1c0,0,0.2,0.2,0.2,0.4
	C42.3,61.2,41.5,60.6,40.5,60.6z"/>
	<path fill="#363F66" d="M3.8,24.7c0-0.8,0.2-1,1-1L3.8,24.7z"/>
	<path fill="#363F66" d="M4.8,23.7l0.4-0.4L4.8,23.7z"/>
	<path fill="#363F66" d="M31.7,37.1c-0.2-0.4-0.6-0.8-0.4-1.4c0-0.4,0-0.8-0.2-1.2h0.6V37.1z"/>
	<path fill="#363F66" d="M31.7,33.1v1h-0.6l0.4-1H31.7z"/>
	<path fill="#363F66" d="M32.1,36.5h0.6v0.2l-0.6,0.2V36.5z"/>
	<path fill="#363F66" d="M37.1,40.7l-0.2-0.2v-0.2L37.1,40.7L37.1,40.7z"/>
	<path fill="#363F66" d="M64.9,31.5v0.6h-0.4C64.7,31.9,64.3,31.5,64.9,31.5z"/>
	<path fill="#363F66" d="M63.9,32.1l-0.4-0.2h0.2L63.9,32.1L63.9,32.1z"/>
</svg>
