<svg xmlns="http://www.w3.org/2000/svg" width="88" height="62.227" viewBox="0 0 88 62.227">
  <g id="Calavera_delivery" transform="translate(-0.702 -19.794)">
    <path id="Trazado_27316" data-name="Trazado 27316" d="M88.521,51.772c-.347-.6-.739-1.176-1.086-1.7-.106-.6-.211-1.146-.332-1.734l-1.146-1.086V46.81c-.437-.287,0-.784-.332-1.056s.09-.679.106-1.025,0-.528,0-.754l-.437-.422a2.805,2.805,0,0,0-.151-.829,6.032,6.032,0,0,0-.618-1.025,1.674,1.674,0,0,0-.5-.407A2.609,2.609,0,0,1,83,40.085h-.543a2.135,2.135,0,0,0-.075-.663,3.981,3.981,0,0,1-1.7-1.387.679.679,0,0,0-.362-.241,3.77,3.77,0,0,0-2.262-.407h0a.3.3,0,0,0,0,.166h0l.181.166v.075l-.181-.2h0a3.333,3.333,0,0,0-2.533,1l-.136.151a1.886,1.886,0,0,0-.136.181v.483a3.017,3.017,0,0,0-.392.136c-.166.392-.256.92-.543,1.146-.573.392-.362,1.025-.633,1.508a1.056,1.056,0,0,0,.287,1.267h.09V43.9h-.151a.816.816,0,0,0-.09-.452h.015l-.739-.226a6.619,6.619,0,0,1-2.232,1c-.3.784-1.282.8-1.689,1.6S67.893,46.976,67.667,48l-.844-.377v-.709a.211.211,0,0,0,0-.09c-1.282-1.01-2.337-1.629-3.634-.784-.151-.226-.3-.663-.483-.679-.6,0-.181-.558-.422-.814s-.437-.663-.739-.86h-.5c-.121.3-.241.588-.392,1l-.437-.452a.6.6,0,0,1,.739-.483h0v-.573c-.377-.694-1.282-.844-1.417-1.719.8-.513.226-1.508.694-2.156.136-.2,0-.528,0-.814a.386.386,0,0,1-.09-.181c0-.407-.241-.9-.106-1.221a3.71,3.71,0,0,0-.075-2.79,3.981,3.981,0,0,0-2.624-.618c-.211-.648-.407-1.206-.573-1.719l1.282-1.312h.633c.151.166.392.422.543.618l.95.256,1.508-.3a25.906,25.906,0,0,1,1.372-2.85c.271-.332.648-.2.98-.287a4.343,4.343,0,0,1,1.161,0l.814-.8v-.814c-.362-.121-.709-.211-.679-.663s-.377-.5-.558-.6a3.77,3.77,0,0,0-.6-1c-.437-.317,0-.844-.392-1.146-.151-.09,0-.452-.392-.422-.121,0-.271-.241-.407-.362l.347-.724L62.3,21.13c-.588-.256-1.161-.558-1.779-.8a10.661,10.661,0,0,0-1.915-.437,3.016,3.016,0,0,0-2.669.573c-.422.362-.98.543-1.357.935a4.433,4.433,0,0,0-1.6,3.227c.739.347.663,1.131,1,1.719s1.131.739,1.025,1.508c-.075.422-.136.844-.2,1.3h0a1.945,1.945,0,0,1-.256.241c-.528-.226-.513-.181-.89-.075-.86.241-.89,1-1.161,1.6l.256.287-3.016,3.212a1.055,1.055,0,0,1-.422.181c.166-.543.075-1.1.528-1.508a1.945,1.945,0,0,0,.317-.784,6.424,6.424,0,0,1,1.508-2.171c.09-.106.347,0,.513,0s.181-.437.271-.663H50.913A13.783,13.783,0,0,0,47.9,33.676c-.256.467-.347,1.025-.6,1.508a3.694,3.694,0,0,0-.6,2.413l.829.543v.875h-.347a3.315,3.315,0,0,1-.136.633c-1.4.9-1.825,2.548-3.016,3.468.121.98.226,1.915.317,2.865.377.513,1.312,0,1.629.9l-.694.3a3.016,3.016,0,0,0-2.5,1.191,1.221,1.221,0,0,1-.362.256,9.048,9.048,0,0,0-2.126,1.191,3.423,3.423,0,0,1-.648,0,3.483,3.483,0,0,0-2.428-.181c-.317.106-.6.271-.9.347a2.5,2.5,0,0,1-1.327,0,1.734,1.734,0,0,0-2.066.513c-.965-.6-1.93-1.237-2.82-1.825a3.227,3.227,0,0,0-3.3,1.87,5.006,5.006,0,0,1-1.734,1.975,1.071,1.071,0,0,1-1.312.09,9.3,9.3,0,0,0-2.88-.98,11.355,11.355,0,0,1-2.232-.814c-.407-.166-.875,0-1.282-.317s-.633-.181-.95-.256c-.679-.2-1.508-.121-2.036-.724-.287-.3-.618-.166-1.01-.151-.226.317-.452.679-.679,1.01.618.3.739,1,1.176,1.221a9.455,9.455,0,0,1,2.714,1.237,3.453,3.453,0,0,1,2.292.5,15.17,15.17,0,0,0,3.167,1.1v-.558l.618-.317.3.317v.724c0,.2-.3.151-.513.226l1.267.452c.121,0,1.146.2,1.206.2l1.237-.121-.09.151.422.181c-.121.241-.166.377-.256.528.3.211.588.377.86.588s.121.181.166.271l-.528.709.256.332a11.234,11.234,0,0,1-.709,2.247,3.725,3.725,0,0,0-.663,2.2c-.89.784-.648,2.036-1.387,2.8-.09.09,0,.3,0,.543a5.806,5.806,0,0,1-1.176.709,5.384,5.384,0,0,0-1,.437,14.039,14.039,0,0,1-2.352,1.131,14.643,14.643,0,0,0-2.367,1.086,8.459,8.459,0,0,1-1.131-.467,2.624,2.624,0,0,0-2.971.5c-.2.136-.256.437-.392.679l1.056.829v.407l1,.709a3.513,3.513,0,0,1-1.025,1.629,1.689,1.689,0,0,1-.829.543,2.5,2.5,0,0,0-1.96,1.644v.86l-.271.271L10,77.648a9.213,9.213,0,0,0-1.508.075.739.739,0,0,0-.241,0l-.226.09c-1.508-.09-3.016.422-4.524.241H3.036a3.891,3.891,0,0,0-2.081.6c-.105,0-.166.166-.241.256a2.337,2.337,0,0,0,0,.467,1.4,1.4,0,0,0,.437.437L3.1,79.472l.377-.377A13.8,13.8,0,0,0,6.4,78.884c1.779-.241,3.6-.2,5.4-.271h.513a1.071,1.071,0,0,0,.317,0,3.317,3.317,0,0,0,1.87-1.659.263.263,0,0,0-.106-.181c-.106-.09-.377.181-.588.287a1.855,1.855,0,0,1-.829-2.126c.844-.136,1.025.875,1.674.875l1.508-.814c.075-.769,1.1-.95,1.252-1.7a2.368,2.368,0,0,0,1.644-.664,6.152,6.152,0,0,1,2.654-.965,2.337,2.337,0,0,0,1.6-.679.844.844,0,0,1,.6-.271,1.629,1.629,0,0,0,.769-.392,6.62,6.62,0,0,1,1.613-.935,3.89,3.89,0,0,0,1.87-1.161c.136-.814.136-.814,1.206-1.885V65.69l.92-.633h.6c.151-.467.241-.89.362-1.3a5.444,5.444,0,0,0,3.272-3.272,1.4,1.4,0,0,0,.95-.89l.754-.332c.5-.241.9-.648,1.387-.875a1.508,1.508,0,0,0,.86-1.508,5.444,5.444,0,0,0-2.217-1.81.86.86,0,0,1-.6-1.025l1.131-.588a2.066,2.066,0,0,0,1.915-.784l1.116.513c.211.679.437,1.357.709,2.232.347.271.86.663,1.4,1.116a7.477,7.477,0,0,0,.98-.151c.241.287.679.543,1,.95a1.508,1.508,0,0,0,1.81.483,1.945,1.945,0,0,1,1.221-.106,6.62,6.62,0,0,0,1.4.256c.437.739.09,1.613.211,2.277-.287.422-.483.739-.709,1.025a1.734,1.734,0,0,1-.573.573,2.338,2.338,0,0,0-.875.483L46,62.84h0l.2.181h-.075l-.166-.181h0a16.166,16.166,0,0,0-2.865,2.081,6.982,6.982,0,0,0-.9,1.372,16.952,16.952,0,0,0,.211,1.7,11.506,11.506,0,0,1,.513,1.87,5.338,5.338,0,0,0,.739,2.036,2.232,2.232,0,0,0,1.267,1.071c.437.2.844-.09,1.267-.3a1.221,1.221,0,0,1,0-.332,2.714,2.714,0,0,0-.241-2.744,1.764,1.764,0,0,1-.256-1.161,4.177,4.177,0,0,1,2.624-2.7,6.56,6.56,0,0,0,1.206-.724,3.679,3.679,0,0,0,1.206-1.071,9.47,9.47,0,0,1,1.508-1.734,7.69,7.69,0,0,1,1.176-.875,7.992,7.992,0,0,1,3.167-.513l.452-.709c.98.483.98.483,1.267.965a2.081,2.081,0,0,1,1.6.407,2.639,2.639,0,0,0,2.217-.437,4.237,4.237,0,0,0,1.327-1.252c.271-.588.754-.618,1.131-.875l.739.287c-.211-.407-.663-.6-.814-.935s-.829-.588-.407-1.191h.89c.271.332.452.739.709.814s.392.679.709.739.452.543.709.769a4.84,4.84,0,0,1,.663,1.056c-.407-.09-.573-.407-1.04-.392s-.618-.377-.814-.754l-.467.362c.935.317.8,1.342,1.508,1.825.211.166.256.528.362.784s0,.332.151.377c.483.2.6.709.95,1.04A8.461,8.461,0,0,1,69.19,65a8.943,8.943,0,0,0,.95,1.025c.121.181.332.558.588.89.422.588.875,1.116,1.237,1.719a32.155,32.155,0,0,0,1.659,3.016v.467a3.468,3.468,0,0,1,1.146,1.749c.317.437.588.8.814,1.176a.769.769,0,0,1-.151,1.116l-1.734.211c-.151,0-.392-.106-.648-.136a12.455,12.455,0,0,0-2.247.211,22.317,22.317,0,0,0-6.243.483,29.541,29.541,0,0,0-4.011.241H59.041a9.049,9.049,0,0,0-1.508.241,11.687,11.687,0,0,0-1.719.618c-.121,0-.181.226-.3.362l.483.452a6.588,6.588,0,0,0,.648-.317c.09.211.136.347.211.513h.754l.648.663c.211-.09.407-.2.6-.3s0-.377,0-.528l.739-.317a2.262,2.262,0,0,1,.844.754l1.312-.679,1.3-.166c.347,0,.754.452,1.04-.121.8.694,1.6-.3,2.337,0a4.975,4.975,0,0,0,.709.407c.467.151.92.588,1.508,0h.347a11.884,11.884,0,0,0,1.659-.181,8.294,8.294,0,0,0,1.764-.317h.241a3.393,3.393,0,0,1,1.4-.121.724.724,0,0,1,.332.739h0v.377H72.884a10.859,10.859,0,0,0-1.508.241.178.178,0,0,1-.09.151c-.09.045.226.211.332.287l.2-.166,1.176.166a23.026,23.026,0,0,0,3.016-.211,10.118,10.118,0,0,0,2.488-.5l.241.377a7.072,7.072,0,0,0,.89-.136c.287-.106.528.332.769,0s.437.241.769.136c.528-.437,1.267-.09,1.9-.256a4.086,4.086,0,0,0,1.93-1.508c.181-.724-.467-.829-.663-1.252a3.438,3.438,0,0,0-.362-2.156c-.422-.724-.694-1.508-1.04-2.262a3.393,3.393,0,0,0-.618-1.025A7.539,7.539,0,0,1,80.8,69.068c-.166-.317-.558-.6-.588-.92a3.167,3.167,0,0,0-.452-1.116,7.539,7.539,0,0,0-1.191-2.1.241.241,0,0,1,0-.211c0-.452-.317-.679-.437-1a1.674,1.674,0,0,0-.8-.935,7.947,7.947,0,0,1-1.191-.98l-1.855-.377a3.756,3.756,0,0,0-.256-.8l-.166.181c-.106-.241-.2-.5-.271-.633l-.633.2v-.5h.452l.6-.106a17.341,17.341,0,0,0-4.328-2.051v-.875l.347-.226a3.122,3.122,0,0,1,0-.86c.121-.422.362-.8.483-1.206s.663-.98.211-1.629c-.151-.181,0-.618.09-.935s-.121-.226-.2-.407l.875-.528c.679.467,1.508-.136,2.126.422,0,0,.121-.166.151-.166.513.166,1.071-.362,1.508.166a.452.452,0,0,0,.347,0,1.387,1.387,0,0,1,1.312-.211,4.72,4.72,0,0,0,3.016-1.01v-.121c-.724-.407-1.508.407-1.945.121a9.048,9.048,0,0,1-4.524-.5c.5-.377.2-.86.362-1.372l1.794-1.146H76.1c.362.256.558.377.724.513a1.839,1.839,0,0,0,1.146,0l.3.317c-.166,0-.317.151-.558.256h.407l.377.09-.271.362c1.1.241,1.508,1.131,1.99,1.794L81.359,51A10.555,10.555,0,0,1,79.308,52.8H76.774c-.844,0-1.659.121-2.488.166a24.925,24.925,0,0,1-3.2.287l-.377.965c.181-.09.226-.136.287-.136a10.947,10.947,0,0,1,1.975.121c.151,0,.3.166.422.256l.287-.226a10.827,10.827,0,0,0,1.1.2,9.531,9.531,0,0,1,1.975,0,7.177,7.177,0,0,0,.965.166,7.45,7.45,0,0,0,.965.226,2.078,2.078,0,0,0,.452-.166l.136.136h0l.5-.483h.633c.618-.467,1.161-.935,1.734-1.387h.437a1.545,1.545,0,0,0,.181.467.739.739,0,0,1,.935.633l.95.317a3.394,3.394,0,0,1,.287-.226l1.508.739a.619.619,0,0,1,0-.166l1.6-.181c-.136-.573.377-.528.663-.724V52.752l-.377-.347C88.431,52.254,88.612,52,88.521,51.772Zm-72.668,0-.663-.287v-.347h.663Zm1.779.543a1.192,1.192,0,0,1-.121-.166c-.03-.06.151-.166.241-.226a2.638,2.638,0,0,1,.362-.166l.136.2Zm2.91.739c-.2-.2-.332-.332-.528-.5a9.046,9.046,0,0,0,.739-.784c.211.332.377.6.588.965Zm3.875,1.4c-.151-.392-.271-.754-.407-1.131.739-.3.95.211,1.372.648Zm-7.208,18.02h-.09v-.241h.09Zm2.563-.935h-.09v-.166h.09Zm2.2-1.975a5.293,5.293,0,0,1-1.689,1.01c-.633.136-1,1-1.764.679-.241-.467.256-.347.377-.5a8.686,8.686,0,0,1,2.232-1.7,5.9,5.9,0,0,0,1.4-1H23.62v.513c-.558.332-1.131.633-1.644,1Zm5.142-16.753c.09-.166.211-.422.332-.694h.588v1.93a2.277,2.277,0,0,1-.437-.3q-.264-.455-.483-.935Zm1.176,8.324c-.241.573-.558,1.1-.89,1.779a3.363,3.363,0,0,1-.467,1.749c-.136.3-.136.633-.256.95s-.226.935-.814,1.04c0-.5.106-.935.106-1.4a9.274,9.274,0,0,1,.483-2.729,11.671,11.671,0,0,1,.709-1.583v-.98l1.131-.648a2.2,2.2,0,0,1,.211.724,4.041,4.041,0,0,1-.211,1.1Zm1.1,1.629c.151-.92.256-1.644.362-2.413l.256-.256h1.508c-.03.98-.648,1.779-2.141,2.669Zm2.8-5.821-.965-.829c-.467.181-.347.588-.362,1.056l-.769.543h-.528L29,57.064l.679-.407a1.7,1.7,0,0,0-.618-1.6c.075-.739.935-.875,1.116-1.508-.211-.422-.422-.844-.618-1.267a6.573,6.573,0,0,1,.241-1.071l.648-.467h.332c.226.6.2,1.3.8,1.734a2.639,2.639,0,0,0,0,.769c0,.287.226.724.377.724.543,0,.467.543.724.8-.166.648-.317,1.327-.5,2.171Zm2.533-5.429.739.543h-.844a3.1,3.1,0,0,1,.09-.543Zm.829,6.032V58c-.5.437-1.01.92-1.629,1.387l-.422-.362a6.032,6.032,0,0,1,.106-1.99l.5-.588c.483.407.935.769,1.433,1.131Zm1.779-5.775-.543-.739.543-.106Zm2.775.121h-.09v-.241h.09Zm0-.754H39.3c0-.6.377-.694.935-.648ZM57.171,36.692h.121a3.678,3.678,0,0,0,.09.392h-.211ZM58.92,26.559l1.252,1.025v.528l-.663.347-1.086-1.508a3,3,0,0,0,.5-.407Zm-3.393-2.7a7.222,7.222,0,0,1,.844-.513,4.629,4.629,0,0,0,2.187,1.146c-.3.467-.618.618-.98.332l-.588.513.452,1.433h-.965V25.714l-1.463-1.086a3.664,3.664,0,0,1,.513-.784Zm1.056,13.255v.241h0ZM55.181,32a1.508,1.508,0,0,1,.467,1.659l-1.086-.633c-.075-.271-.181-.618-.317-1.01Zm-.588,5.444V36.179l.844-.347V37.1c-.2.075-.467.2-.844.332ZM55.256,48v.075h-.241V48ZM49,32.41h.09v.241H49Zm1.508,5.655a12.577,12.577,0,0,0,1.01,1.644,5.248,5.248,0,0,0,1.116.935c.211.5-.09.89-.287,1.3a2.654,2.654,0,0,1-1.4-1.342c-.106-.241-.377-.407-.573-.588-.679-.679-1.508-1.282-1.508-2.428.543-.483,1.252-.332,1.7.483Zm.694,7.072v.09h-.241v-.09ZM42.77,53.581l-.9-.935a3.921,3.921,0,0,1,1.206-1.794q0-.528,0-1.086h.3c.181.377.392.754.633,1.221-.633.784-.3,1.9-1.176,2.594Zm3.679-2.292-.6.377v1.975l-.347.121L44.686,52c.271-.648.528-1.327.814-2.1l1.191.528a8.61,8.61,0,0,1-.181.86Zm1.221,1.237V54.29c-.2-.136-.392-.2-.437-.287a3.317,3.317,0,0,1-.226-1.071c0-.3.287-.694.181-.935s.392-.543.121-.92,0-.648-.121-1.071h-.362a.9.9,0,0,1,.241-1.116l1.508.739c.829,1.176-.106,1.975-.844,2.9Zm1.116,6.6v.181H48.7V59.07Zm-4.856,5.7h.241v.075h-.241Zm.6,5.308h-.558a2.051,2.051,0,0,1-.181.181h0a2.051,2.051,0,0,0,.181-.181h0c-.106-.528-.211-1.025-.332-1.6h.965c.106.362.226.784.347,1.161Zm-.121-1.915V68.1h.467v.121Zm.935.663h-.241V68.8h.241Zm1.794-3.423h-.09v-.241h.09Zm3.785-4.071c-.422.362-.784.86-1.252,1.237a2.262,2.262,0,0,1-.98.513l-1.644,1.508-1.644,1.508a.98.98,0,0,0-.136.347H44.2a2.534,2.534,0,0,1,0-.437l3.77-3.77c0-.483,0-.844.437-.89a2.126,2.126,0,0,0,1-.588,4.222,4.222,0,0,1,1.508-.422Zm.211,1.01h-.09v-.241h.09Zm0-6.8h-.467c-.2-.181-.377-.377-.573-.573-.09-.467.136-.98-.166-1.4q.106-.377.271-.86c.136,0,.347.075.362.181A15.078,15.078,0,0,0,51.8,54.953Zm2.322,3.5H52.5c-.151-.528-.663-1.025,0-1.613.332.106.814-.241,1.237.362.03.362.362.875-.256,1.252Zm.332-4.976-.724.347c-.166-.151-.256-.271-.407-.392.121-1.508-.92-2.835-.95-4.388a9.2,9.2,0,0,1-.965-2.82l.679-.663a7.54,7.54,0,0,0,.709.332c.106.618.211,1.206.3,1.81s.181,1.176.256,1.508a15.91,15.91,0,0,1,.648,1.915,2.458,2.458,0,0,0,.814,1.508c-.136.287-.226.543-.347.844Zm.9-1.508-.875-.392a1.022,1.022,0,0,1,.075-.437l.875.392a2.889,2.889,0,0,1-.06.452Zm.679.181a4.074,4.074,0,0,1-.332-1.508c.181-.694-.784-.829-.437-1.508l-.86-.709c.136-.377.271-.724.392-1.04h.5l.844,1.357c-.362.829.739,1.734,0,2.594l.317.633a1.312,1.312,0,0,1-.362.2Zm.347-7.826v-.739l.663-.573h.558c.362.241.829.422,1,.724s.618.483.86.814l-.618.543a2.82,2.82,0,0,1-2.443-.754ZM57.5,54.591l.452-.739a5.738,5.738,0,0,0,.121.829Zm1.613-4.6c-.829-.121-.467-1-.95-1.387h-.543v.422l.5-.241a7.253,7.253,0,0,0,.166,4.343l-.467.8c-.151-.422-.256-.679-.332-.935a1.62,1.62,0,0,1,0-.6,5.066,5.066,0,0,1-.3-1.508,2.1,2.1,0,0,0-.483-1.3,2.91,2.91,0,0,1-.648-1.825l.347-.347c.452.166.935.332,1.417.467s.8.166,1.191.256c-.015.618.513,1.176.121,1.87Zm3.694-1.885h.166v.241h-.151Zm-2.367-1.025.814.9c.09.287.211.543.317.829h0l.2.181h0a1.7,1.7,0,0,0-.362.377.286.286,0,0,1-.136.166H60.79V48.5l-.633-.452a3.663,3.663,0,0,1,.3-.95Zm.226,12.486c-.2-.3-.362-.633-.6-1.025l.573-.256V57.049h1l.618.679a2.4,2.4,0,0,1-1.568,1.855Zm1.99-1.87h-.09v-.241h.09Zm2.579-4.72-1.146.422-.9,1.116.287.317a1.372,1.372,0,0,1-1.372.784c-.271-.814.211-1.508.287-2.307a4.4,4.4,0,0,1,.136-.633c.045-.226-.09-.663.2-.965s0-.467-.121-.739a8.113,8.113,0,0,0,.618-3.2c.226.166.392.211.452.332.2.5.663.663,1.056.935s.362.709.6,1.161-.2,1.1.181,1.6c-.06.392-.151.754-.256,1.191ZM67.5,54.652a2.88,2.88,0,0,1,.332-1.086A2.352,2.352,0,0,0,68.3,52.39l.483.935-.573.392v.935Zm.543,6.846a1.714,1.714,0,0,0-.136-.663l.6.588Zm.784-5.655h-.075V55.6h.075Zm.181-2.8h-.09V52.8h.09ZM58.3,78.266h0Zm6.183-.241h0Zm1.508-.588a4.055,4.055,0,0,0-.2-.483h.724a1.236,1.236,0,0,1-.618.452ZM77,68.51h.09v.241H77Zm-1.508-1.387,1.282,2.066.332.106a2.7,2.7,0,0,0,.694,1.96c0,.769.543,1.176.829,1.764s1.04.965,1.372,1.7a.875.875,0,0,1-1.1-.362,10.783,10.783,0,0,1-1.3-1.674,6.861,6.861,0,0,0-1.221-1.508,1.764,1.764,0,0,0-.513-1.614c-.271-.377-.317-1.071-1.04-1.1a7.541,7.541,0,0,0-.136-.844,2.972,2.972,0,0,0-.226-.8Zm-2.428-6.3h.241v.09h-.241Zm-2.548.6c.6.256,1.056.679,1.659.513.754.92.784,1.146.332,1.81l-.875-.226a1.825,1.825,0,0,0-1.508-1.176Zm-.211-13.873a2.49,2.49,0,0,0-.136-.965l.8.452Zm1.237-2.021h-.09v-.241h.09Zm4.765,5.459h.467v.121h-.467Zm-.633,0h.09v.241h-.09ZM73.532,51h0Zm-.98-4.1h-.121a1.66,1.66,0,0,0-.075-.6h.2Zm.211,3.785h-.09v-.241h.09Zm7.54-9.515h.241v.045H80.3Zm-3.272-2.594h.241v.09h-.241Zm-1.1.392h.09v.241h-.09Zm2.5,3.906h-.241V42.8h.241Zm.151,2.654h0v-.241h0Zm.2-3.74c-.513-.211-.8.543-1.372.287a1.544,1.544,0,0,0-.633.317,8.761,8.761,0,0,0-.648.648c-.362-.241-.287-.483-.211-.739s.151-.422.241-.679a1.945,1.945,0,0,0,1.086-1c.287-.633.829-.769,1.3-1.01a4.524,4.524,0,0,1,.92.543,1.508,1.508,0,0,1,.317.377c.075.136.181.287.271.422l-.121.136h0a2.654,2.654,0,0,1-.3.136h-.256a.784.784,0,0,0-.558.558ZM78.9,45.71c.106-.181.181-.332.347-.588l.709-.362c.166.392.271.754.483,1.327Zm1.508-1.779-.98-1.6.483-.483.86.256a2.337,2.337,0,0,1-.347,1.825Zm-9.048,9.817h-.09v-.241h.09Zm11.31-13.27-.2.151a1.877,1.877,0,0,0-.151.2v-.075l.2-.151.151-.181h.075Zm2.4,9.274a6.589,6.589,0,0,0,.377.679h-.377Zm-.181,2.021.814-.392v.467Z" transform="translate(0)" fill="#774234"/>
    <path id="Trazado_27317" data-name="Trazado 27317" d="M40.91,39.341a1,1,0,0,1,0,.211,1.191,1.191,0,0,1,.362-.377l-.106-.106Z" transform="translate(20.423 9.791)" fill="#774234"/>
    <path id="Trazado_27318" data-name="Trazado 27318" d="M41.141,39.06h0c-.241,0-.241.151-.241.3a2.731,2.731,0,0,0,.226-.287Z" transform="translate(20.418 9.786)" fill="#774234"/>
    <path id="Trazado_27319" data-name="Trazado 27319" d="M29.44,53.2Z" transform="translate(14.597 16.968)" fill="#774234"/>
    <path id="Trazado_27320" data-name="Trazado 27320" d="M31.83,47.57a2.337,2.337,0,0,0-.89.663,2.337,2.337,0,0,1,.89-.663Z" transform="translate(15.359 14.109)" fill="#774234"/>
    <path id="Trazado_27321" data-name="Trazado 27321" d="M7.308,58.409l.769-.769-.769.769a7.765,7.765,0,0,0-1.508.075A6.665,6.665,0,0,1,7.308,58.409Z" transform="translate(2.589 19.224)" fill="#774234"/>
    <path id="Trazado_27322" data-name="Trazado 27322" d="M31.625,48.36a16.587,16.587,0,0,0-2.865,2.111,15.788,15.788,0,0,1,2.865-2.111Z" transform="translate(14.252 14.51)" fill="#774234"/>
    <path id="Trazado_27323" data-name="Trazado 27323" d="M48.411,58.56h0Z" transform="translate(24.111 19.691)" fill="#774234"/>
    <path id="Trazado_27324" data-name="Trazado 27324" d="M15.882,43.161h0A18.094,18.094,0,0,1,12.7,42a19.965,19.965,0,0,0,3.182,1.161Z" transform="translate(6.094 11.279)" fill="#774234"/>
    <path id="Trazado_27325" data-name="Trazado 27325" d="M52.81,43.08Z" transform="translate(26.468 11.828)" fill="#774234"/>
    <path id="Trazado_27326" data-name="Trazado 27326" d="M52.853,31.581h0a3.333,3.333,0,0,0-2.533,1A3.393,3.393,0,0,1,52.853,31.581Z" transform="translate(25.203 5.986)" fill="#774234"/>
    <path id="Trazado_27327" data-name="Trazado 27327" d="M36.711,25.09c0,.437-.136.86-.181,1.312h0Z" transform="translate(18.198 2.69)" fill="#774234"/>
    <path id="Trazado_27328" data-name="Trazado 27328" d="M5.69,58.24h0Z" transform="translate(2.533 19.528)" fill="#774234"/>
    <path id="Trazado_27329" data-name="Trazado 27329" d="M49.394,35.506l-.724-.2.739.226S49.394,35.536,49.394,35.506Z" transform="translate(24.365 7.881)" fill="#774234"/>
    <path id="Trazado_27330" data-name="Trazado 27330" d="M40.63,35.813v0Z" transform="translate(20.281 7.861)" fill="#774234"/>
    <path id="Trazado_27331" data-name="Trazado 27331" d="M19.79,59.082c-.3-.121-.558-.392-.935-.151a1.267,1.267,0,0,1-.633.136,24.706,24.706,0,0,1-3.649.226,1.146,1.146,0,0,0-.317,0,11.324,11.324,0,0,1-2.744.437c-.211.3-.347.5-.467.694h-1a1.527,1.527,0,0,0-.935.2c-.271-.407-.5,0-.754,0-.9.106-1.794.2-2.714.226H1.439c-.6.588-.724.844-.543,1.1s.211,0,.3.09l.332.241c.618-.271,1.1-.86,1.7-.332.573-.317,1.146-.09,1.689-.256s.965-.392,1.508-.573A1.87,1.87,0,0,0,7.8,61.54a1.57,1.57,0,0,0,.98-.226c.332-.226.558,0,.86-.166s.558,0,.844,0a5.744,5.744,0,0,0,.89-.106,4.388,4.388,0,0,1,.965-.2c.392,0,.784.181,1.206.2a8.9,8.9,0,0,1,3.016.317v-.5c0-.136.121-.287.181-.437l-.181-.2.166-.181.226-.211c.679.437,1.433-.724,2.156,0a1.161,1.161,0,0,1,.694-.256h.483a1.779,1.779,0,0,0,.407,0l.2-.211.211-.2.663-.106a2.534,2.534,0,0,0-.136-.407C20.982,58.9,20.348,58.645,19.79,59.082Z" transform="translate(0.059 19.742)" fill="#774234"/>
    <path id="Trazado_27332" data-name="Trazado 27332" d="M13.71,59.471a1.779,1.779,0,0,0,.407,0l.2-.211-.2.211Z" transform="translate(6.607 20.047)" fill="#774234"/>
    <path id="Trazado_27333" data-name="Trazado 27333" d="M13.37,59.4Z" transform="translate(6.434 20.118)" fill="#774234"/>
    <path id="Trazado_27334" data-name="Trazado 27334" d="M11.576,59.52l-.226.211Z" transform="translate(5.408 20.179)" fill="#774234"/>
    <path id="Trazado_27335" data-name="Trazado 27335" d="M16.84,58.881a3.89,3.89,0,0,0-.483-.271c-.362.422-.754-.211-1.221.226a7.766,7.766,0,0,0-.226.754h1.7a12.1,12.1,0,0,0,1.508-.226c.467-.06.633-.211.558-.739C18.062,58.716,17.413,58.459,16.84,58.881Z" transform="translate(7.217 19.716)" fill="#774234"/>
    <path id="Trazado_27336" data-name="Trazado 27336" d="M41.285,59.8l.287-.151,1.99.3a1.689,1.689,0,0,0,.98-.92l-3.333.347a3.664,3.664,0,0,1,.075.422Z" transform="translate(20.576 19.93)" fill="#774234"/>
    <path id="Trazado_27337" data-name="Trazado 27337" d="M8.221,39.809c-.166-.694-.618-.633-1.01-.6,0,0-.121,0-.151.09v.543l.663.181C7.935,39.929,8.116,39.869,8.221,39.809Z" transform="translate(3.229 9.852)" fill="#774234"/>
    <path id="Trazado_27338" data-name="Trazado 27338" d="M12.29,60.622h.121l.422-.422h-1.4Z" transform="translate(5.449 20.524)" fill="#774234"/>
    <path id="Trazado_27339" data-name="Trazado 27339" d="M56.54,58.54l.5.3C57.113,58.48,57.113,58.48,56.54,58.54Z" transform="translate(28.362 19.666)" fill="#774234"/>
    <path id="Trazado_27340" data-name="Trazado 27340" d="M14.82,42.77h0l.181.2h0a1.01,1.01,0,0,0-.211-.136Z" transform="translate(7.156 11.671)" fill="#774234"/>
    <path id="Trazado_27341" data-name="Trazado 27341" d="M14.81,42.78a.648.648,0,0,1,.2.136l-.181-.166h0Z" transform="translate(7.166 11.66)" fill="#774234"/>
    <ellipse id="Elipse_767" data-name="Elipse 767" cx="0.045" cy="0.166" rx="0.045" ry="0.166" transform="translate(88.612 54.863)" fill="#774234"/>
    <path id="Trazado_27342" data-name="Trazado 27342" d="M10,57.28v.09h.241v-.09Z" transform="translate(4.723 19.041)" fill="#774234"/>
  </g>
</svg>
