<svg id="Chiwawa_logo_blanco" xmlns="http://www.w3.org/2000/svg" width="105" height="65.624" viewBox="0 0 105 65.624">
  <path id="Trazado_28442" data-name="Trazado 28442" d="M6.934,221.935q2.333-.222,4.67-.421-.228-.758-.455-1.524l.04-4.17q-.918-.99-1.84-2.019H1.881Q.935,214.925,0,216.1v23.611q.919.868,1.834,1.695,3.626-1.256,7.3-2.323.925-1.322,1.853-2.574l.041-4.2q.241-.83.483-1.652-2.326.441-4.643.921.242.769.485,1.529,0,.833-.012,1.665l-.411.612q-1.439.367-2.869.758l-.433-.414.065-16.95.441-.557q1.454-.076,2.91-.147l.408.49q0,.849-.012,1.7Q7.2,221.092,6.934,221.935Z" transform="translate(0 -183.18)" fill="#fff"/>
  <path id="Trazado_28443" data-name="Trazado 28443" d="M100.009,236.123q2.349-.486,4.7-.9l-.454-1.275q.129-9.38.263-18.762l.492-1.386h-4.7l.423,1.433-.1,7.283-.449.476q-1.43.123-2.861.256l-.441-.413q.051-3.775.1-7.551c.164-.5.327-.993.492-1.485H92.849l.455,1.542q-.119,10.441-.239,20.881-.242.812-.485,1.631,2.292-.587,4.6-1.117l-.451-1.348.1-7.793.441-.514q1.43-.188,2.859-.358l.441.386q-.051,3.758-.1,7.517Q100.241,235.371,100.009,236.123Z" transform="translate(-78.985 -183.18)" fill="#fff"/>
  <path id="Trazado_28444" data-name="Trazado 28444" d="M195.144,232.9q.115-8.909.228-17.819l.489-1.322h-4.634l.457,1.357-.25,18.286q-.247.7-.493,1.4,2.33-.373,4.667-.673Q195.373,233.516,195.144,232.9Z" transform="translate(-162.902 -183.146)" fill="#fff"/>
  <path id="Trazado_28445" data-name="Trazado 28445" d="M245.632,220.825q1.261,5.523,2.548,11-.181.587-.363,1.175,2.592-.07,5.184-.054-.181-.579-.36-1.157c1.322-5.364,2.631-10.72,3.924-16.1l.881-1.84h-4.7l.326.734q-1.339,5.78-2.7,11.562-1.363-5.608-2.7-11.232c.109-.354.219-.706.327-1.059H243.3l.317,1.068q-1.382,5.69-2.783,11.482-1.305-5.838-2.589-11.8l.273-.752H233.89q.417.982.833,1.956c1.275,5.624,2.559,11.119,3.859,16.533l-.37,1.2q2.6-.233,5.2-.379l-.352-1.15Q244.358,226.379,245.632,220.825Z" transform="translate(-199.545 -183.223)" fill="#fff"/>
  <path id="Trazado_28446" data-name="Trazado 28446" d="M390.028,229.748q.432,1.529.865,3.072l-.322.749q2.374.211,4.745.5l-.761-1.438c-1.615-6.032-3.231-11.887-4.815-17.621q.2-.568.4-1.137h-5.106c.147.372.28.746.421,1.119-1.5,5.636-3.018,11.2-4.552,16.74L380.16,233q2.383.051,4.762.176c-.112-.26-.222-.52-.333-.778q.41-1.454.818-2.909l.441-.361q1.866.085,3.728.209Zm-1.228-3.765q-1.1-.054-2.2-.1l-.358-.294q.708-3.07,1.407-6.167.75,3.131,1.508,6.3Z" transform="translate(-324.336 -183.24)" fill="#fff"/>
  <path id="Trazado_28447" data-name="Trazado 28447" d="M489.923,216.072q.43-1.147.859-2.314h-4.7q.169.441.336.881-1.254,7.019-2.5,13.674-1.445-6.843-2.894-13.341l.308-1.219h-4.7l.341,1.175q-1.255,6.256-2.52,12.256-1.433-6.451-2.858-12.652l.256-.781H467.23q.441.972.881,1.952c1.405,5.643,2.821,11.416,4.244,17.361-.113.4-.226.8-.341,1.2q2.59.352,5.167.793c-.123-.451-.248-.9-.373-1.347q1.159-5.922,2.311-12.082,1.373,6.335,2.746,12.963c-.112.424-.223.849-.335,1.27q2.554.511,5.092,1.109-.185-.744-.37-1.483Q488.079,226.163,489.923,216.072Z" transform="translate(-398.621 -183.138)" fill="#fff"/>
  <path id="Trazado_28448" data-name="Trazado 28448" d="M629.734,242.057q-.358-1.078-.718-2.135-2.238-12.989-4.617-24.589l.405-1.533H619.7c.147.483.285.971.426,1.458-1.468,7.327-2.919,14.273-4.361,20.9q-.357.717-.714,1.421,2.329.587,4.64,1.244c-.11-.358-.219-.717-.329-1.075q.389-1.79.781-3.617l.433-.4q1.822.419,3.636.871l.441.633q.416,2.129.83,4.3c-.1.319-.208.637-.313.953Q627.46,241.239,629.734,242.057Zm-6.276-12.041c-.718-.138-1.439-.273-2.159-.405l-.354-.432q.683-3.934,1.373-8,.749,4.194,1.488,8.527Q623.633,229.862,623.458,230.016Z" transform="translate(-524.734 -183.18)" fill="#fff"/>
  <path id="Trazado_28449" data-name="Trazado 28449" d="M341.958,176.771c-.059-.088-.1-.044-.161.015a2.288,2.288,0,0,1-.441.413,4.936,4.936,0,0,1-1.336.661,21.528,21.528,0,0,0,3.5.073A4.514,4.514,0,0,1,341.958,176.771Z" transform="translate(-290.09 -151.546)" fill="#fff"/>
  <path id="Trazado_28450" data-name="Trazado 28450" d="M326.393,136.67a3.7,3.7,0,0,0-1.909-.633,4.689,4.689,0,0,0-3.878,2.028,5.94,5.94,0,0,0-1.043,2.4,1.958,1.958,0,0,0,.837,1.94,2.663,2.663,0,0,0,2.483.176c.7-.323,1.38-.734,1.468-1.631,0-.029.029-.044.044-.073a1.186,1.186,0,0,1-.661-.22,6.165,6.165,0,0,1-1.028-.72h.191a.667.667,0,0,0,.6-.956.233.233,0,0,0-.235-.176.192.192,0,0,0-.206.206c0,.369-.235.515-.543.574-.132-.059-.088-.206-.1-.294a1.793,1.793,0,0,1,.6-1.69.818.818,0,0,1,.94-.029.692.692,0,0,0,.675,0c.794-.4,1.485.147,1.615.984.044.279.147.587-.059.853-.47.015-.485.015-.69-.427-.044-.1-.1-.22-.25-.206s-.191.132-.235.235a.656.656,0,0,0,.338.765.715.715,0,0,0,.7-.1c.015.147-.088.235-.176.323a3.378,3.378,0,0,1-1.338.881,2.1,2.1,0,0,0,.339.866,3.356,3.356,0,0,0,1.659,1.132,1.955,1.955,0,0,0,2.087-.441,1.546,1.546,0,0,0,.485-.912,3.964,3.964,0,0,0-.514-2.586A5.286,5.286,0,0,0,326.393,136.67Z" transform="translate(-272.615 -116.836)" fill="#fff"/>
  <path id="Trazado_28451" data-name="Trazado 28451" d="M370.995,109.979l.308-.749s-.514.132-1.248,1.514-1.426,2.085-1.925,2.247c0,0,.543.1,1.881,1.338s4.2.6,4.112-3.056C374.132,111.287,373.919,108.3,370.995,109.979Zm2.549,2.175c-.162,1.072-1.059,2.483-2.7,1.587,0,0-1.175-.633-1.441-.734a6.622,6.622,0,0,1,1.037-1.332,2.853,2.853,0,0,1,2.112-.96,1.922,1.922,0,0,1,.294.044c.04.01.079.018.119.029h0C373.355,110.9,373.691,111.193,373.544,112.154Z" transform="translate(-314.073 -93.966)" fill="#fff"/>
  <path id="Trazado_28452" data-name="Trazado 28452" d="M313.609,163.051c-.132-.088-.117-.206-.147-.323a7.782,7.782,0,0,1,.073-2.542,6.262,6.262,0,0,0-.015-2.026c-.132.029-.162.162-.22.25a10.82,10.82,0,0,0-.881,1.747,3,3,0,0,1-2.219,1.808c-1.013.235-2.043.4-3.07.543a13,13,0,0,1-2.924-.029,14.658,14.658,0,0,1-3.893-.852,3.311,3.311,0,0,1-1.881-1.762c-.147-.308-.294-.617-.455-.925a1.519,1.519,0,0,0-.294-.411,1.4,1.4,0,0,0-.1.573,11.959,11.959,0,0,0,.117,1.615,5.711,5.711,0,0,1-.206,2.336.26.26,0,0,1-.053.122h17.009a6.891,6.891,0,0,0-.546-1.355C313.653,162.2,313.726,162.64,313.609,163.051Z" transform="translate(-253.763 -135.711)" fill="#fff"/>
  <path id="Trazado_28453" data-name="Trazado 28453" d="M292.472,184.957a6.767,6.767,0,0,0-.029-1.087c-.2.411-.4.822-.612,1.238h.659C292.466,185.064,292.48,185.007,292.472,184.957Z" transform="translate(-248.977 -157.645)" fill="#fff"/>
  <path id="Trazado_28454" data-name="Trazado 28454" d="M334.629,72.1h1.392V66.885h2.217v-1.4h-2.217V63.11h-1.4v2.38H332.41v1.4h2.219Zm-1.013-5.924a5.357,5.357,0,0,0,1.454-.206,5.336,5.336,0,0,0,.235-1.762,6.226,6.226,0,0,0,.235,1.762,5.351,5.351,0,0,0,1.455.206,7.623,7.623,0,0,0-1.426.132A25.507,25.507,0,0,0,335.3,69.7a25.313,25.313,0,0,0-.264-3.394A7.6,7.6,0,0,0,333.616,66.178Z" transform="translate(-283.598 -54.618)" fill="#fff"/>
  <path id="Trazado_28455" data-name="Trazado 28455" d="M250.821,14.289c-.185-.236-.372-.468-.561-.7a36.877,36.877,0,0,0-3.214-3.473c-.4-.354-.734-.765-1.117-1.117a17.335,17.335,0,0,0-4.069-2.733,5.013,5.013,0,0,0-1.9-.587A1.407,1.407,0,0,0,238.656,7.1a8.57,8.57,0,0,0,.514,2.85,23.642,23.642,0,0,0,1.94,4.54,13.458,13.458,0,0,1,1.043,2.056,7.409,7.409,0,0,1,.316,1.217,6.679,6.679,0,0,1,.1,1.11,4.2,4.2,0,0,0,3.408,3.909c.147.029.206,0,.191-.147a2.376,2.376,0,0,1,.073-.648,15.963,15.963,0,0,1,1-2.922,10.612,10.612,0,0,1,2.159-3.336,6.314,6.314,0,0,1,1.264-1.028.515.515,0,0,0,.117-.073C250.938,14.538,250.938,14.436,250.821,14.289Z" transform="translate(-203.609 -5.621)" fill="#fff"/>
  <path id="Trazado_28456" data-name="Trazado 28456" d="M300.083,113.091c-.5-.162-1.191-.866-1.925-2.247s-1.25-1.514-1.25-1.514l.31.749c-2.924-1.674-3.129,1.294-3.129,1.294-.088,3.658,2.761,4.289,4.112,3.056A5.288,5.288,0,0,1,300.083,113.091Zm-5.275-.852c-.147-.96.191-1.254.576-1.366h0c.041-.012.079-.019.119-.029a1.948,1.948,0,0,1,.294-.044,2.853,2.853,0,0,1,2.112.96,6.621,6.621,0,0,1,1.037,1.332c-.264.1-1.439.734-1.439.734C295.865,114.722,294.969,113.311,294.808,112.239Z" transform="translate(-250.902 -94.051)" fill="#fff"/>
  <path id="Trazado_28457" data-name="Trazado 28457" d="M392.641,5.882a.837.837,0,0,0-.822-.6,6.435,6.435,0,0,0-.765.059,6.332,6.332,0,0,0-2.527,1.013,16.952,16.952,0,0,0-4.436,3.909c-.044.015-.059.044-.073.088-.015.015-.029.044-.044.059s-.029.044-.044.059a9.849,9.849,0,0,0-.808.925l-.977,1.189c-.176.236-.382.457-.573.677h-.059l-.015.015a.032.032,0,0,1-.029.029.112.112,0,0,0-.029.059.125.125,0,0,0-.1.1v.015a.125.125,0,0,1,.1-.1c0,.073-.029.1-.1.1a.09.09,0,0,0-.053.041.066.066,0,0,1,.053-.026.082.082,0,0,1-.072.087h0v-.012a.229.229,0,0,1-.043.056c-.007,0-.019.018-.029.029l-.029.029h0a.2.2,0,0,1-.044.059c-.029.015-.044.044-.059.059-.132.1-.264.206-.441.323a7.489,7.489,0,0,1,3.056,3.084,16.8,16.8,0,0,1,1.439,3.231,6.41,6.41,0,0,1,.426,2.043c0,.279.178.117.266.059.661-.441,1.322-.866,1.938-1.352a2.087,2.087,0,0,0,.441-.441.115.115,0,0,0,.038-.019.06.06,0,0,1-.024,0c0-.041.015-.057.054-.07a.443.443,0,0,1,.034-.047.244.244,0,0,0,.051-.028.27.27,0,0,1-.037.013c0-.088-.015-.162.117-.162h0c.076-.034.106-.113.147-.169a3.477,3.477,0,0,0,.574-2.116.323.323,0,0,0,.015-.117.252.252,0,0,1,.013-.065,1.782,1.782,0,0,1,.034-.614.557.557,0,0,1,.038-.093v-.037c.015-.073.015-.147.029-.22a.192.192,0,0,0,.013-.023c0-.091-.031-.179.048-.245l.009-.012a.157.157,0,0,1,.032-.147h0V16.56l.015-.018a.194.194,0,0,1,.029-.126h0a20.377,20.377,0,0,1,1.057-2.131,2.862,2.862,0,0,1,.382-.764A23.89,23.89,0,0,0,392.773,8,3.59,3.59,0,0,0,392.641,5.882Zm-8.517,4.379c0,.044-.015.088-.073.088a.109.109,0,0,1,.069-.088Zm-.088.1c0,.044-.015.059-.044.059a.2.2,0,0,1,.04-.059Zm-.044.044c0,.029-.015.059-.044.059a.2.2,0,0,0,.04-.059Z" transform="translate(-324.729 -5.28)" fill="#fff"/>
  <path id="Trazado_28458" data-name="Trazado 28458" d="M195.381,93.629l-2.746,1.88,12.981-.073h.25l-.015-.1a.236.236,0,0,0,.059-.1c.162-.382.338-.764.485-1.145a4.021,4.021,0,0,0,.382-1.116,12.617,12.617,0,0,0,.088-2.232,1.192,1.192,0,0,0-.455-.9,2.079,2.079,0,0,1-.646-1.013,2.933,2.933,0,0,1,.117-1.63c.162-.573.176-.573-.367-.793l-.22-.088a6.43,6.43,0,0,1-2.056-1.189,4.206,4.206,0,0,1-1.175-2.614,18.578,18.578,0,0,0-.646-2.981c-.029-.117-.1-.25-.206-.264-.191-.029-.367-.117-.543-.132a16.98,16.98,0,0,1-1.88-.367.587.587,0,0,0-.22-.015l-.367-.073.984,2.966-3.157-.147,1.645,2.907-3.26.367,2.012,2.54-2.482.764c-.044.015-.088.015-.117.029s-.073.015-.1.044l-.294.088,2.247,2.2-3.054,1.322Z" transform="translate(-164.335 -67.902)" fill="#fff"/>
  <path id="Trazado_28459" data-name="Trazado 28459" d="M313.714,28.132c.059.073.117.162.22.162l.015.015h.059a25.794,25.794,0,0,1,2.614-.235,14.546,14.546,0,0,1,3.48.191,1.094,1.094,0,0,0,1.307-.382c.455-.631.94-1.233,1.38-1.88a.294.294,0,0,0,.059-.117l.1-.132-.47-1.542-2.291,2.349-1.322-2.878-1.85,2.584L315.27,23.58l-1.41,2.981-1.219-1.292c-.22-.25-.441-.485-.675-.734-.029-.029-.059-.044-.073-.059l-.206-.22-.367,1.233,1.439,1.557C313.067,27.413,313.39,27.78,313.714,28.132Z" transform="translate(-265.605 -20.893)" fill="#fff"/>
  <path id="Trazado_28460" data-name="Trazado 28460" d="M422.345,78.838a7.285,7.285,0,0,0-.69,3.275v.029a3.62,3.62,0,0,1-.617,1.292,11.2,11.2,0,0,1-2.966,2.673c-.4.25-.411.25-.264.7a2.4,2.4,0,0,1-.029,1.777,2.2,2.2,0,0,0-.235,1.189,5.4,5.4,0,0,1-.176,2.1,1.533,1.533,0,0,0-.117.852,17.782,17.782,0,0,0,.734,2.1.379.379,0,0,0,.441.279c3.275-.029,6.564.044,9.838-.044h1.554a.414.414,0,0,0,.191,0h.411l-2.526-1.821,2.526-1.791-2.834-1.366,2.247-2.2-3.01-.91,1.88-2.526-3.157-.514,1.5-2.717-3.186.073,1.175-3.01Z" transform="translate(-355.955 -67.56)" fill="#fff"/>
  <path id="Trazado_28461" data-name="Trazado 28461" d="M140,408.92l.12-.12h.816l.464.12-.207-1.22h-3.5l-.2,1.22.446-.12h.834l.129.12v4.9l-.138.413h1.367l-.138-.413Z" transform="translate(-117.309 -348.607)" fill="#fff"/>
  <path id="Trazado_28462" data-name="Trazado 28462" d="M163.326,408.077l.12-.377H161.96l.12.377-1.335,5.714-.216.441H161.9l-.094-.258.239-1,.129-.128h1.07l.128.128.241,1-.094.258h1.366l-.214-.441Zm-.294,3.671H162.4l-.1-.1.421-2.088.42,2.088Z" transform="translate(-136.957 -348.607)" fill="#fff"/>
  <path id="Trazado_28463" data-name="Trazado 28463" d="M194.537,409.744H195.9l-.137-.413v-1.1l-.542-.532h-2.173l-.551.532v5.457l.551.542h2.173l.542-.542V412.58l.137-.413h-1.366l.145.413V413l-.12.129h-.85l-.129-.129v-4.1l.129-.129h.85l.12.129v.429Z" transform="translate(-164.233 -348.607)" fill="#fff"/>
  <path id="Trazado_28464" data-name="Trazado 28464" d="M221.019,407.7l-.549.532v5.457l.549.542h2.172l.54-.542v-5.457l-.54-.532Zm1.615,5.319-.129.12h-.824l-.129-.12v-4.1l.129-.12h.824l.129.12Z" transform="translate(-188.096 -348.607)" fill="#fff"/>
  <path id="Trazado_28465" data-name="Trazado 28465" d="M249.682,409.762h1.366l-.145-.413v-1.117l-.542-.532h-2.173l-.567.532v2.733l.567.551h1.495l.129.129v1.374l-.129.12h-.834l-.128-.12v-.43l.137-.413H247.5l.12.413v1.1l.567.542h2.173l.542-.542v-2.724l-.542-.54h-1.512l-.128-.129V408.92l.128-.12h.834l.129.12v.429Z" transform="translate(-211.156 -348.607)" fill="#fff"/>
  <path id="Trazado_28466" data-name="Trazado 28466" d="M290,407.7l.138.411v5.7l-.138.421h2.853l.549-.542v-2.233l-.558-.551.558-.54v-2.132l-.549-.532Zm2.311,5.3-.129.129h-.833L291.22,413v-1.419l.129-.128h.833l.129.128Zm0-2.758-.129.12h-.833l-.129-.12V408.9l.129-.129h.833l.129.129Z" transform="translate(-247.416 -348.607)" fill="#fff"/>
  <path id="Trazado_28467" data-name="Trazado 28467" d="M319.588,407.7H318.24l.137.42v5.7l-.137.413h1.348l-.137-.413v-5.7Z" transform="translate(-271.509 -348.607)" fill="#fff"/>
  <path id="Trazado_28468" data-name="Trazado 28468" d="M333.321,408.773H335l.446.129-.2-1.2H331.98l.138.411v5.7l-.138.421h3.266l.2-1.229-.446.129h-1.675l-.129-.129v-1.41l.129-.12h.551l.42.138v-1.366l-.42.137h-.551l-.129-.129V408.9Z" transform="translate(-283.231 -348.607)" fill="#fff"/>
  <path id="Trazado_28469" data-name="Trazado 28469" d="M362.682,407.7h-1.367l.138.42v3.558l-1.582-3.978H358.66l.138.42v5.7l-.138.413h1.349l-.138-.413v-3.558l1.582,3.971h1.229l-.138-.413v-5.7Z" transform="translate(-305.993 -348.607)" fill="#fff"/>
  <path id="Trazado_28470" data-name="Trazado 28470" d="M404.65,407.7l.138.42v5.7l-.138.413H406l-.138-.413v-1.925l.129-.129H407.5l.549-.549v-2.982l-.549-.532Zm2.3,2.852-.129.12h-.833l-.129-.12v-1.633l.129-.12h.833l.129.12Z" transform="translate(-345.23 -348.607)" fill="#fff"/>
  <path id="Trazado_28471" data-name="Trazado 28471" d="M433.141,408.773h1.675l.446.129-.2-1.2H431.8l.137.411v5.7l-.137.421h3.264l.2-1.229-.446.129h-1.675l-.129-.129v-1.41l.129-.12h.549l.421.138v-1.366l-.421.137h-.549l-.129-.129V408.9Z" transform="translate(-368.393 -348.607)" fill="#fff"/>
  <path id="Trazado_28472" data-name="Trazado 28472" d="M461.332,411.756l.551-.551v-2.974l-.551-.532H458.48l.137.42v5.7l-.137.413h1.348l-.137-.413v-1.934l.129-.128h.351l.085.1.464,1.968-.094.4h1.348l-.172-.441Zm-.54-1.2-.129.12h-.841l-.129-.12v-1.633l.129-.12h.841l.129.12Z" transform="translate(-391.155 -348.607)" fill="#fff"/>
  <path id="Trazado_28473" data-name="Trazado 28473" d="M489.533,411.756l.549-.551v-2.974l-.549-.532H486.68l.137.42v5.7l-.137.413h1.349l-.138-.413v-1.934l.129-.128h.352l.085.1.464,1.968-.094.4h1.348L490,413.79Zm-.542-1.2-.129.12h-.841l-.129-.12v-1.633l.129-.12h.841l.129.12Z" transform="translate(-415.215 -348.607)" fill="#fff"/>
  <path id="Trazado_28474" data-name="Trazado 28474" d="M515.9,407.7l-.549.532v5.457l.549.542h2.175l.54-.542v-5.457l-.54-.532Zm1.615,5.319-.128.12h-.825l-.129-.12v-4.1l.129-.12h.825l.128.12Z" transform="translate(-439.675 -348.607)" fill="#fff"/>
  <path id="Trazado_28475" data-name="Trazado 28475" d="M544.562,409.762h1.367l-.147-.413v-1.117l-.54-.532h-2.175l-.567.532v2.733l.567.551h1.495l.129.129v1.374l-.129.12h-.833l-.129-.12v-.43l.138-.413H542.38l.12.413v1.1l.567.542h2.175l.54-.542v-2.724l-.54-.54h-1.512l-.129-.129V408.92l.129-.12h.833l.129.12v.429Z" transform="translate(-462.735 -348.607)" fill="#fff"/>
</svg>
