<svg xmlns="http://www.w3.org/2000/svg" width="160" height="160" viewBox="0 0 160 160">
  <g id="Chiwawa_sello_tacos" transform="translate(0 0.3)">
    <g id="Grupo_270" data-name="Grupo 270" transform="translate(15.057 100.839)">
      <path id="Trazado_27779" data-name="Trazado 27779" d="M23.589,75.122l-.152-1.065-.76-1.673-.456-.152-10.19,5.019-.76.76L9.9,75.122l1.065-.152,10.19-5.019.152-.456-.913-1.673-.76-.76,2.738-.76,3.65,7.3Z" transform="translate(-9.9 -66.3)" fill="#1f7762"/>
    </g>
    <g id="Grupo_271" data-name="Grupo 271" transform="translate(19.772 109.204)">
      <path id="Trazado_27780" data-name="Trazado 27780" d="M27.905,78.188l-10.342,7.3-1.673-.3L13,80.926l.3-1.825,10.342-7.3,1.673.3,2.89,4.107ZM25.32,76.667l-1.065-1.521-.456-.152-7.757,5.475v.456l1.065,1.521.456.152,7.757-5.475Z" transform="translate(-13 -71.8)" fill="#1f7762"/>
    </g>
    <g id="Grupo_272" data-name="Grupo 272" transform="translate(25.4 115.592)">
      <path id="Trazado_27781" data-name="Trazado 27781" d="M27.651,76l4.563,4.867v1.825l-9.126,8.669H21.263L16.7,86.495l.913-.456,9.582-9.126Zm-7,10.495v.456l1.369,1.369h.456l6.844-6.54v-.456l-1.369-1.369H27.5Z" transform="translate(-16.7 -76)" fill="#1f7762"/>
    </g>
    <g id="Grupo_273" data-name="Grupo 273" transform="translate(33.917 122.741)">
      <path id="Trazado_27782" data-name="Trazado 27782" d="M36.141,85.567,28.384,95.605l-1.825.152L22.6,92.716l-.3-1.825,7.757-10.038,1.825-.152,3.954,3.042ZM33.1,84.959l-1.521-1.217h-.456l-5.78,7.453v.456l1.521,1.217h.456l5.78-7.6Z" transform="translate(-22.3 -80.7)" fill="#1f7762"/>
    </g>
    <g id="Grupo_274" data-name="Grupo 274" transform="translate(42.587 127.76)">
      <path id="Trazado_27783" data-name="Trazado 27783" d="M39.407,91.453l-2.738-1.521.76-.76.456-.913-.152-.456-1.673-.76-.456.152-1.521,2.738.152.456,3.042,1.673.456,1.673L34.692,99.21l-1.673.456-4.411-2.434L28,95.559l1.217-2.281.152-.913,2.738,1.521-.608.76-.456.913.152.456,1.673.913.456-.152,1.521-2.738-.152-.456L31.65,91.909l-.608-1.825,3.042-5.628L35.909,84l4.411,2.434.456,1.673-1.217,2.281Z" transform="translate(-28 -84)" fill="#1f7762"/>
    </g>
    <g id="Grupo_275" data-name="Grupo 275" transform="translate(56.884 132.931)">
      <path id="Trazado_27784" data-name="Trazado 27784" d="M41.354,87.4l6.388,1.825.913,1.521-1.217,4.715-1.521.913.913,1.521-1.369,5.019-1.521.913L37.4,102l.608-.913,3.5-12.776Zm2.586,9.734-1.825-.456-.3.152-.913,3.194.152.3,1.825.456.3-.152.913-3.194Zm-1.369-3.346.152.3,1.825.456.3-.152.76-3.042-.152-.3-1.825-.456-.3.152Z" transform="translate(-37.4 -87.4)" fill="#1f7762"/>
    </g>
    <g id="Grupo_276" data-name="Grupo 276" transform="translate(67.226 135.06)">
      <path id="Trazado_27785" data-name="Trazado 27785" d="M47.242,104.314l-3.042-.456.456-.913,1.977-13.08L46.481,88.8l3.042.456-.456.913-1.977,13.08Z" transform="translate(-44.2 -88.8)" fill="#1f7762"/>
    </g>
    <g id="Grupo_277" data-name="Grupo 277" transform="translate(72.854 135.973)">
      <path id="Trazado_27786" data-name="Trazado 27786" d="M47.9,104.457l.3-.913.608-13.232-.3-.913,7.6.3.3,2.738-1.065-.3-3.8-.3-.3.3-.152,3.194.3.3h1.217l1.065-.3-.152,3.194-.913-.3H51.4l-.3.3-.152,3.194.3.3,3.954.152,1.065-.3-.608,2.89Z" transform="translate(-47.9 -89.4)" fill="#1f7762"/>
    </g>
    <g id="Grupo_278" data-name="Grupo 278" transform="translate(81.675 135.212)">
      <path id="Trazado_27787" data-name="Trazado 27787" d="M58.567,104.566l-3.042.3.152-1.065-1.521-13.08-.456-.913,2.738-.3,4.715,8.822-.913-8.213-.456-.913,3.194-.3-.152,1.065,1.521,13.08.456.913-2.89.3L57.2,95.44l.913,8.213Z" transform="translate(-53.7 -88.9)" fill="#1f7762"/>
    </g>
    <g id="Grupo_279" data-name="Grupo 279" transform="translate(95.82 131.562)">
      <path id="Trazado_27788" data-name="Trazado 27788" d="M71.213,102.014l-2.89,1.065v-1.065L63.76,89.542l-.76-.76L69.236,86.5l1.673.76,2.434,6.54-.76,1.673L69.236,96.69l-.152.3,1.521,4.259Zm-2.89-7.757,1.825-.608.152-.3-1.217-3.65-.3-.152-1.825.608-.152.3,1.369,3.5Z" transform="translate(-63 -86.5)" fill="#1f7762"/>
    </g>
    <g id="Grupo_280" data-name="Grupo 280" transform="translate(103.729 127.304)">
      <path id="Trazado_27789" data-name="Trazado 27789" d="M75.5,100.583l-.152-1.065L68.96,87.959l-.76-.608,6.692-3.65,1.825,2.281-1.217.152-3.346,1.825L72,88.415l1.521,2.738.456.152,1.065-.608.76-.76,1.521,2.738-1.065.152-1.065.608-.152.456,1.521,2.89.456.152,3.346-1.825.76-.76.913,2.738Z" transform="translate(-68.2 -83.7)" fill="#1f7762"/>
    </g>
    <g id="Grupo_281" data-name="Grupo 281" transform="translate(110.877 122.741)">
      <path id="Trazado_27790" data-name="Trazado 27790" d="M82.178,96.822l-.3-.913L73.813,85.415l-.913-.608L78.071,80.7l1.825.152,4.259,5.475-.3,1.825,3.8,3.042.913.608L86.132,93.78l-.456-.913-3.65-2.89h-.3l-.608.456v.456l2.738,3.5.913.608ZM81.113,87.24v-.456l-2.281-3.042h-.456l-1.521,1.217v.456l2.281,3.042h.456Z" transform="translate(-72.9 -80.7)" fill="#1f7762"/>
    </g>
    <g id="Grupo_282" data-name="Grupo 282" transform="translate(117.874 116.809)">
      <path id="Trazado_27791" data-name="Trazado 27791" d="M88.451,92.009l-.456-.913-9.582-9.126-.913-.456L82.063,76.8h1.825l5.019,4.715V83.34l4.107,2.434,1.065.456-2.129,2.281-.456-.76-4.107-2.434h-.3l-.608.608v.456l3.194,3.042.913.456Zm-2.434-9.43v-.456L83.28,79.538h-.456l-1.369,1.369v.456l2.738,2.586h.456Z" transform="translate(-77.5 -76.8)" fill="#1f7762"/>
    </g>
    <g id="Grupo_283" data-name="Grupo 283" transform="translate(124.566 109.508)">
      <path id="Trazado_27792" data-name="Trazado 27792" d="M86.615,72l10.342,7.3.3,1.825-2.89,4.107-1.825.3L82.2,78.236l-.3-1.825L84.79,72.3Zm-.608,3.042-1.065,1.521v.456L92.7,82.495l.456-.152,1.065-1.521v-.456l-7.757-5.323Z" transform="translate(-81.9 -72)" fill="#1f7762"/>
    </g>
    <g id="Grupo_284" data-name="Grupo 284" transform="translate(129.281 101.599)">
      <path id="Trazado_27793" data-name="Trazado 27793" d="M92.3,68.017l-1.369,2.89-.76-.76-.913-.456-.456.152-.76,1.825.152.456,2.89,1.369.456-.152,1.521-3.194,1.673-.608,5.628,2.738.608,1.673-2.281,4.563-1.673.608-2.281-1.065-.913-.152,1.369-2.89.76.76.913.456.456-.152.913-1.673-.152-.456L95.19,72.58l-.456.152-1.521,3.194-1.673.608L85.76,73.8,85,71.971l2.281-4.563,1.673-.608,2.281,1.065Z" transform="translate(-85 -66.8)" fill="#1f7762"/>
    </g>
    <g id="Grupo_285" data-name="Grupo 285" transform="translate(17.947 39.088)">
      <path id="Trazado_27794" data-name="Trazado 27794" d="M26.4,38.932l-1.673,2.586-.608-.76-11.255-7-1.065-.3,1.521-2.434,9.734,1.825-7-4.411h-.913L16.819,25.7l.608.76,11.255,7,.913.3-1.521,2.434L18.34,34.369l7,4.411Z" transform="translate(-11.8 -25.7)" fill="#1f7762"/>
    </g>
    <g id="Grupo_286" data-name="Grupo 286" transform="translate(25.248 30.115)">
      <path id="Trazado_27795" data-name="Trazado 27795" d="M22.532,20.713l9.582,8.669.152,1.825-3.346,3.8-1.825.152-9.582-8.669-.913-.456,2.129-2.281.456.913,8.517,7.6h.456l1.369-1.521v-.456l-8.517-7.6-.913-.456L22.228,19.8Z" transform="translate(-16.6 -19.8)" fill="#1f7762"/>
    </g>
    <g id="Grupo_287" data-name="Grupo 287" transform="translate(33.157 22.966)">
      <path id="Trazado_27796" data-name="Trazado 27796" d="M31.382,31.678l-.3-.913L22.713,20.423l-.913-.608L27.732,15.1l2.129,1.825-1.065.456-3.042,2.434v.456L27.732,22.7h.456l1.065-.76.608-.913,1.977,2.434-.913.3-1.217,1.065v.456l2.129,2.586h.456l3.042-2.434.608-.913,1.369,2.586Z" transform="translate(-21.8 -15.1)" fill="#1f7762"/>
    </g>
    <g id="Grupo_288" data-name="Grupo 288" transform="translate(42.435 17.947)">
      <path id="Trazado_27797" data-name="Trazado 27797" d="M36.874,15.146l-2.738,1.521-.152-.913-.456-.913-.456-.152L31.4,15.6l-.3.456L32.615,18.8l.456.152,3.042-1.673,1.673.456,3.194,5.475-.456,1.673-4.411,2.434-1.825-.456-1.217-2.281-.76-.76,2.738-1.521.152,1.065.456.913.456.152,1.673-.913.152-.456-1.521-2.738-.456-.152-3.042,1.673-1.825-.456L27.9,15.907l.608-1.673L32.919,11.8l1.673.456,1.217,2.281Z" transform="translate(-27.9 -11.8)" fill="#1f7762"/>
    </g>
    <g id="Grupo_289" data-name="Grupo 289" transform="translate(52.016 12.624)">
      <path id="Trazado_27798" data-name="Trazado 27798" d="M43.326,11.038l-1.065.152-1.825.608-.152.3,3.954,10.647.608.76L41.8,24.574V23.51L37.85,12.863l-.3-.152-1.825.608-.913.608-.608-2.89L41.8,8.3Z" transform="translate(-34.2 -8.3)" fill="#1f7762"/>
    </g>
    <g id="Grupo_290" data-name="Grupo 290" transform="translate(62.967 10.647)">
      <path id="Trazado_27799" data-name="Trazado 27799" d="M44.138,23.274l.152-1.065L41.856,9.129,41.4,8.217,47.94,7l1.521.913,1.217,6.844-1.065,1.521,1.977,4.411.608.913-3.042.608V21.3l-1.825-4.259-.3-.152-.76.152-.3.3.76,4.411.456.913Zm3.5-9.126.3-.3-.76-3.8-.3-.152-1.977.3-.3.3.76,3.8.3.152Z" transform="translate(-41.4 -7)" fill="#1f7762"/>
    </g>
    <g id="Grupo_291" data-name="Grupo 291" transform="translate(74.527 10.038)">
      <path id="Trazado_27800" data-name="Trazado 27800" d="M56.453,7.817l.3,12.624L55.54,21.657l-5.019.152-1.369-1.217L49,7.969l1.217-1.217L55.236,6.6ZM53.715,9.186H51.738l-.3.3.152,9.582.3.3h1.977l.3-.3L54.019,9.49Z" transform="translate(-49 -6.6)" fill="#1f7762"/>
    </g>
    <g id="Grupo_292" data-name="Grupo 292" transform="translate(83.956 10.342)">
      <path id="Trazado_27801" data-name="Trazado 27801" d="M64.326,12.58l-3.194-.456.456-.913.152-1.065-.3-.3-1.977-.3-.3.3L58.7,13.036l.3.3,3.5.456,1.065,1.369L62.653,21.4l-1.369,1.065-5.019-.76L55.2,20.336l.3-2.586-.152-.913,3.194.456-.456.913-.152,1.065.3.3,1.977.3.3-.3.456-3.194-.3-.3-3.5-.456L56.113,14.1l.913-6.236L58.546,6.8l5.019.76L64.63,8.929l-.608,2.586Z" transform="translate(-55.2 -6.8)" fill="#1f7762"/>
    </g>
    <g id="Grupo_293" data-name="Grupo 293" transform="translate(99.166 13.841)">
      <path id="Trazado_27802" data-name="Trazado 27802" d="M75.39,14.88l-.913-.608-1.825-.76h-.3L68.09,24.157v1.065L65.2,24.005l.608-.76L70.067,12.75l-.152-.3-1.825-.76-1.065-.152L68.546,9.1,76,12.142Z" transform="translate(-65.2 -9.1)" fill="#1f7762"/>
    </g>
    <g id="Grupo_294" data-name="Grupo 294" transform="translate(103.12 18.556)">
      <path id="Trazado_27803" data-name="Trazado 27803" d="M76.622,28.93l-2.738-1.673.456-.456.76-2.281-.152-.456-2.129-1.217L72.363,23,70.69,24.672l-.152.608L67.8,23.607,68.713,23l9.43-9.886.152-.913,3.042,1.825-.76.608-4.107,13.08Zm-2.129-7.909,1.217.76h.3l1.673-4.715-3.346,3.65Z" transform="translate(-67.8 -12.2)" fill="#1f7762"/>
    </g>
    <g id="Grupo_295" data-name="Grupo 295" transform="translate(112.854 24.639)">
      <path id="Trazado_27804" data-name="Trazado 27804" d="M74.2,26.086l8.061-9.734,1.825-.152,3.954,3.194.152,1.825L86.52,23.2l-.456.913L83.63,22.132l.913-.456.608-.76v-.456L83.63,19.242h-.456l-6.084,7.3V27l1.521,1.217h.456l.608-.76.3-.913,2.434,1.977-.913.608L79.98,30.953l-1.673.152-3.954-3.194Z" transform="translate(-74.2 -16.2)" fill="#1f7762"/>
    </g>
    <g id="Grupo_296" data-name="Grupo 296" transform="translate(119.547 32.244)">
      <path id="Trazado_27805" data-name="Trazado 27805" d="M93.353,26.98l-9.582,8.213-1.825-.152-3.346-3.8.152-1.825L88.334,21.2l1.825.152,3.346,3.8Zm-2.89-1.217-1.217-1.521H88.79l-7.148,6.236v.456l1.217,1.521h.456l7.148-6.236Z" transform="translate(-78.6 -21.2)" fill="#1f7762"/>
    </g>
    <g id="Grupo_297" data-name="Grupo 297" transform="translate(125.326 40.914)">
      <path id="Trazado_27806" data-name="Trazado 27806" d="M94.568,35.569l-1.673-2.738.913-.3.913-.456.152-.456-1.065-1.521-.456-.152-2.586,1.673-.152.456,1.825,3.042-.456,1.673-5.323,3.346-1.673-.456L82.4,35.417l.456-1.825,2.129-1.369.608-.76L87.267,34.2l-.913.152-.913.456-.152.456,1.065,1.673.456.152,2.738-1.673.152-.456-1.825-2.89.456-1.825L93.655,26.9l1.673.456,2.586,4.259-.456,1.673-2.281,1.369Z" transform="translate(-82.4 -26.9)" fill="#1f7762"/>
    </g>
    <path id="Trazado_27807" data-name="Trazado 27807" d="M48.2,30.4Z" transform="translate(25.11 15.837)" fill="#1f7762"/>
    <path id="Trazado_27808" data-name="Trazado 27808" d="M81.984,79.135a4.554,4.554,0,0,0,.608,1.217c.3.152.608.152.608.608,0,.152.3.3.3.3.456,0,.76.456.913.608a1.727,1.727,0,0,0,1.217.456v-.3l.152-.152-.152-.3.3-.608a4.492,4.492,0,0,1,1.977-.3,1.929,1.929,0,0,0,.913-.152l-.152-.152.608-.3c.152,0,.3.152.456.152H90.2c.152,0,.3.152.456.152h.456l.3-.3h.608V80.2l-.456.3c.76.152,1.369.456,1.977,0v-.3a5.4,5.4,0,0,0,1.369-.608l-.608-.608c.3-.456.608-.152.913,0l.3-.3.608.3-.152.76c.456-.608,1.217-.456,1.521-1.065a3.11,3.11,0,0,0,0-1.673.531.531,0,0,1,.152-.3,5.4,5.4,0,0,0-.3-1.521.815.815,0,0,0-.456-.608c-.3-.152-.456-.3-.76-.456l-.608-.456H94.455a4.341,4.341,0,0,0-1.977,0c-.456.152-.76.3-1.217.456l-.76-.3h-.152a3.349,3.349,0,0,1-.152-1.217,4.441,4.441,0,0,1,.3-1.369,3.988,3.988,0,0,1-.3-2.281c.152-.456.608-.456.76-.913s.608-.608.913-.913a2.452,2.452,0,0,1,1.065-.608c.152,0,.456-.152.608-.152a1.939,1.939,0,0,1,1.825,0h.608l.3-.152.76-.608a1.183,1.183,0,0,0-.3-1.217v-.608H97.8c.3.3.608.76.913,1.065-.3.152-.3.608-.152.913.3.3.152.76.152,1.065v.913l.3.76a1.382,1.382,0,0,0,0,1.521c0,.152-.152.3-.152.608a.735.735,0,0,1,0,1.065c.152.456.152.913.3,1.369l.152.152-.456.913c.456-.152.608,0,.76.3-.3,0-.76-.152-.913.3s.152.608.152.76c-.3.3,0,.608,0,.913-.456.456-.456,1.065-.76,1.521l.456,1.369c.3.152.456.608.913.76.152,0,.152.3.3.456s.3.456.456.608H101a2.2,2.2,0,0,1-.3-1.065,2.162,2.162,0,0,0-.3-.913l.152-.3c-.3-.456-.456-.76-.76-1.217v-.608c0-.3.152-.456.152-.76,0-.152.152-.456.152-.608l-.3-1.217.3-.152a1.929,1.929,0,0,1,.152-.913l-.152-.152.152-.456-.152-.3.3-.3v-.76c0-.3.152-.608,0-.76a1.371,1.371,0,0,1-.152-.76V68.793l-.456-.456.456-.3a2.11,2.11,0,0,0,0-1.369c0-.3-.152-.608-.152-.913a1.929,1.929,0,0,1-.152-.913,2.865,2.865,0,0,0-.3-1.217,17.843,17.843,0,0,1-.76-1.673c0-.3-.152-.456-.3-.76-.3-.456-.608-1.369-1.065-1.977L96.28,57.385a3.182,3.182,0,0,0-.913-.608,13.714,13.714,0,0,1-1.521-1.369l-.152.3-.456-.76c-.3-.152-.608.152-.913-.152-.608.456-1.217-.3-1.825,0l-1.673,1.369h-.456l-.76.913.152.3-.456.456h1.065a1.084,1.084,0,0,1-.913.456c-.3,0-.76,0-.913.3-.152.608-.152,1.065-.3,1.673-.456,0-.608.608-.913.76.152.3.3.456.152.76a9.693,9.693,0,0,0-.3,1.065l.152.608-.3.3c0,.3.3.456,0,.76s.152.456,0,.608-.152.3-.152.608-.152.76.152.913a2.162,2.162,0,0,0-.3.913,1.929,1.929,0,0,0-.152.913,4.21,4.21,0,0,0,.456,1.977.559.559,0,0,0,.152.456l-.3-.152-.76.608c.152-.608,0-1.065.152-1.521a1.769,1.769,0,0,0-.3-1.521c-.456.152-.456.608-.608.76s.152.608,0,.76a2.629,2.629,0,0,0-.152,1.521l.152.3-.456.76v.152a2.261,2.261,0,0,1-.152.913c-.152.3,0,0,0,.152a3.349,3.349,0,0,0-.152,1.217v1.065l-.913.608h-.456c-.152,0-.3-.152-.608-.152h-.456c-.456.3-.76.152-1.217,0a.559.559,0,0,0-.456-.152c-.608,0-1.217-.152-1.825-.152-.152,0-.152-.152-.3-.152-.608-.152-1.217-.456-1.673,0a.531.531,0,0,1-.3-.152c-.3-.3-.76,0-1.065-.3a11.529,11.529,0,0,0-2.434-.456h-.152l-.3-.608h-.3l-2.434-.913-.3.3v-.456l-1.065-.913c-.3-1.217-.608-2.129-.913-3.042l.152-.3c0-.152.152-.152.152-.3l-.152-.152.76-1.977c0-.152-.152-.152-.152-.3V65.9a.914.914,0,0,1,.152-.608c.3-.456.152-.76,0-1.217l.152-.3-.456-.76c.456-.456-.152-1.065,0-1.521l1.065-.3a2.09,2.09,0,0,1,1.217-.76l-.3-.76.608-.3v.3l-.3.152.152.456.76-.76a1.382,1.382,0,0,0,0-1.521c.152-.608-.456-1.065-.608-1.521a12.937,12.937,0,0,0-3.346-.608c0-.152.3-.152,0-.3l-2.434.3a1.183,1.183,0,0,1-1.217.3l-.152.152c-.3.152-.608.456-.913.608a1.942,1.942,0,0,1-1.825.3l-.608.3c-.3-.3-.608,0-1.065-.3a1.33,1.33,0,0,0-1.369-.913c-.152-.456-.152-.913-.3-1.369l.913-.456a.4.4,0,0,1,.456-.456c.3-.152.76-.3.913-.76a6.439,6.439,0,0,0,.76-1.065c-.152-.3.456-.608,0-.913l-1.217.76-.456-.152c.913-.152,1.369-.913,2.281-1.065v-.608h2.434c.76-.76,1.825-1.217,2.281-2.281-.152-.456.456-.913,0-1.369l.3-.152-.152-.3a3.58,3.58,0,0,0,.3-1.217v-.456a.914.914,0,0,0-.152-.608c-.152-.3.152-.608-.152-.913h.3l.3-.456-1.673.3-.608-.3-.913.3-.152-.3-.3.152-.456.76c0,.3-.152.608-.152,1.065l.3.3c-.152.456,0,1.065.456,2.129.456,0,.608.456.913.608l-.608.608h-.3L59.93,47.5l.3-.3V45.674l-.3.3.152-.456a.914.914,0,0,0-.152-.608.76.76,0,0,1,0-.913h-.76a.149.149,0,0,1-.152-.152l-.3.152-.3.456c-.152.152-.3.3-.456.3l-.456.152c-.152.608-.76.913-.913,1.369l-.76.3-.456-.913.456-.152-.456-.456.152.152.152-.456c.3,0,.456.152.608.152a1.935,1.935,0,0,0,1.369-1.065c0-.3.152-.456.3-.76,0-.608-.152-1.065-.152-1.673l-.152-.152a1.94,1.94,0,0,0-1.065-.76,11.512,11.512,0,0,1-2.281-.152l-.152.456-.3-.456-.608.608A.973.973,0,0,0,54,42.024a4.13,4.13,0,0,0,.913,2.586l-.3.152a3.869,3.869,0,0,0-.3,1.065l.152.3-.3.3-1.217-.3c0-.608.456-.456.76-.608-.152-.152-.3-.3-.3-.456s-.152-.3-.152-.456l-.913-.913a18.635,18.635,0,0,1,.3-2.89h.3l-.152-.152.152-.3-.3-.3-1.673-.3L50.5,40.2v1.673h-.608a7.634,7.634,0,0,1,.3-1.825c-.3.3-.608.456-.76.76a4.033,4.033,0,0,0-.76.913,4.622,4.622,0,0,1-.76,1.065c-.3.3-.3.76-.76,1.065a7.405,7.405,0,0,0-1.825-.152,1.483,1.483,0,0,1-1.369-.608l.3-.456-.608-.152.152-.152a3.312,3.312,0,0,0-.76-1.217V40.047l.456-.456c.152-.608.152-1.065.3-1.673l.608.608a1.117,1.117,0,0,0-.3.913c-.3.76-.3.76,0,1.369l.456.913c.152.3.152.456.3.76l.608.76.76.3.152-.3H47c0-.152.152-.152.152-.3l1.521-1.977a1.162,1.162,0,0,0,.3-.76,1.929,1.929,0,0,0,.152-.913V38.222c0-.152,0-.3.152-.3.3-.3.76-.152.913-.456h0l-.152-.152.3-.456a3.666,3.666,0,0,0,2.281.608V36.4l-.608-.3c-.456.3-1.065,0-1.369.152s-1.065,0-1.217.456l.152.3c-.3.152-.608.3-.608.76s-.456.456-.608.152-.76-.152-.76-.608c0-.152-.3-.3-.456-.3-.76-.152-1.369-.152-1.977-.3-.3.3-.76.608-.76,1.065,0,.152-.3.3-.456,0l.3-.456c0-.3-.152-.608.152-.76s-.152-.456,0-.608a6.587,6.587,0,0,1,.152-.76h.152A9.764,9.764,0,0,0,46.241,33.2c.3-.456.76-.608,1.065-1.065a1.006,1.006,0,0,1,.913-.152.679.679,0,0,0,.76,0,1.654,1.654,0,0,1,.76-.152h.608a8.574,8.574,0,0,1,1.825-.608,2.57,2.57,0,0,0,.76.3c.456,0,.913.152,1.369.152.76.152,1.673,0,2.434.152a4.05,4.05,0,0,1,1.825.456l.152-.456h.3v.456a3.017,3.017,0,0,1,1.977.913h.456c.152.3.152.456.456.456l.152-.456c0,.3.152.608-.152.913.3.456.76.913,1.065,1.369a1.371,1.371,0,0,0,.913.913c0,.3,0,.608.456.76v.152h-.456l-.3,1.217,1.217.913.913-1.065-.152-.3.3-.456-.456-.3.3-1.065a3.047,3.047,0,0,0-1.521-1.825V33.354a6.439,6.439,0,0,0-.76-1.065,3.812,3.812,0,0,0-1.065-.608h-.3l-1.521-1.065v.152h0c0,.3-.3.3-.3.152h-.456l.608-.152h0c-.608-.3-1.065-.608-1.369-.76s-.913,0-1.217-.152l-.152.152h0c-.3-.152-.456-.3-.608-.3a6.588,6.588,0,0,0-.76-.152h-.76c-.152,0-.456.3-.76-.152l-.3.152a7.4,7.4,0,0,0-1.825-.152c-.152,0-.3.152-.608.152s-.456-.152-.608-.152a1.371,1.371,0,0,1-.76.152.531.531,0,0,0-.3.152l-.3-.152c-.3.3-.76.152-1.065.152a1.162,1.162,0,0,0-.76.3c-.152.152-.913.152-1.217.76-.152.152-.456.3-.608.456l-.456-.152c-.608.3-.76,1.217-1.521,1.369.152.456-.152.76-.3,1.217.3.456.152.913.456,1.217v.152l-.152-.152h-.76l-.456.456c-.152.456-.152.913-.3,1.369l-.152-.152-.608,1.217.3.3-.456.608a.638.638,0,0,1,.456.913l-.152.3-.152-.152-.3.152.152.152-.3,1.217a1.616,1.616,0,0,1,.152,1.217,6.822,6.822,0,0,0,1.521,1.977,1.878,1.878,0,0,0,1.217.608.559.559,0,0,1,.456.152c.456.456,1.217.456,1.521.913.152.3.3.456.3.608a.914.914,0,0,1-.152.608l.3.608-.152.152c.152.608.456,1.217.608,1.825l.456.456a.559.559,0,0,1,.456.152,3.66,3.66,0,0,1,1.217.913,2.728,2.728,0,0,0,1.065.76c0,.3.456.3.608.456.152.3.152.608.3.913l-.608-.3-.3.152a8.359,8.359,0,0,1-1.369-1.065,2.287,2.287,0,0,1-1.673-.608,3.325,3.325,0,0,0-.76-.456,3.057,3.057,0,0,1-1.217-.608A15.2,15.2,0,0,0,43.5,49.477a2.365,2.365,0,0,1-1.217-.913,3.182,3.182,0,0,0-.913-.608,3.554,3.554,0,0,0-1.065-1.065H39.4l-.456.456v.76c.152.76.76.3.913.608s.608.3.913.456v.913a1.162,1.162,0,0,1,.3.76v1.977l-.152-.152-.152.3a2.866,2.866,0,0,1-.608-1.369,1.292,1.292,0,0,0-1.065-1.065l.152.456c-.152.608-.3,1.065-.456,1.521a1.371,1.371,0,0,0,.152.76c.152.3.3.76.456,1.065h-.456c-.3.456-.608.76-.913,1.217a3.156,3.156,0,0,0-.913,1.521c0,.152-.152.3-.3.456l-1.065,1.521a4.032,4.032,0,0,0-.913.76,4.152,4.152,0,0,1-1.369,1.825c0,1.065-1.065,1.369-1.065,2.281-.76.456-.913,1.217-1.369,1.977v.608L32.857,69.1h.3a1.6,1.6,0,0,0,.76,1.369,16.163,16.163,0,0,1,1.673,1.369c.152.152.3.152.3.3a2.2,2.2,0,0,0-.3-1.065l-1.369-1.825c-.152-.152-.152-.3.152-.608l1.217,1.217a4.1,4.1,0,0,0,1.217,1.065,12.671,12.671,0,0,0-.608-2.281,2.519,2.519,0,0,1,.76,1.825c.3.3.76.608,1.065.913a2.728,2.728,0,0,0,1.065.76l-.456.456c.3.3.456.76.913.76s.456.76.913.76a1.162,1.162,0,0,0,.3.76l1.065.76.76.152c-.456.456-.913.3-1.217.76l-.456-.608H38.941c-.3.3-.456.608-.913.456-.3.456-.608-.152-.913,0-.608.152-1.217-.3-1.825,0h-.456c-.152-.3-.456-.152-.76-.152a13.083,13.083,0,0,0-2.434.152H28.294a2.26,2.26,0,0,1-1.369-.3c-.152-.152-.3.152-.608-.152s-.3,0-.608,0c-.152.152-.456.152-.608.3.152.76-.152,1.521.152,1.977l.608.456h4.411a1.14,1.14,0,0,0,.76-.152c.3.3.608,0,.76,0,.3-.152.456-.152.76-.3l.152.3a1.679,1.679,0,0,1,1.217,0,1.3,1.3,0,0,0,1.065,0,2.247,2.247,0,0,0,1.369.152l.608.456.152.913c-.608.3-1.065-.152-1.521,0a5.4,5.4,0,0,1-1.521-.3c-.152.456-.913-.152-1.065.456.3.3,0,.76.3,1.065v.3a.531.531,0,0,1-.152.3c.456.3.608.913.913,1.521s.76.913.913,1.369l.76.608a2.177,2.177,0,0,0,.456,1.673,1.459,1.459,0,0,0,.3,1.369v.913l.3.152.152.76a2.162,2.162,0,0,1,.3-.913,1.727,1.727,0,0,0,.456-1.217c.456-.608,0-1.065-.3-1.521l-.456-.913a8.021,8.021,0,0,0-.456-1.825l-.3.3.3-.608L35.29,81.873c.152-.3.152-.3.608-.76l2.129.3a1.643,1.643,0,0,0,1.065.456l.608.76a2.82,2.82,0,0,1,1.065.3c.3.152.76.3,1.065,0l.3,1.065-.456.3.152,1.065c-.3.3-.456.3-.456.456-.152.456-.456.913,0,1.369l-.608.152-.3,1.065H40.31c-.3.608-.456,1.217-.76,1.825.3.3.3.3.76.152.456-.3.3-.913.608-1.217a3.312,3.312,0,0,0,.76-1.217c.456-.3.913.3,1.369,0,0-.456-.3-.456-.456-.608A1.132,1.132,0,0,1,43.96,87.2a3.349,3.349,0,0,0,1.217.152,2.965,2.965,0,0,1,1.217-.152,1.381,1.381,0,0,0,1.065-.456c.76-.152,1.369.456,1.977.152l1.825.608.3-.152a3.325,3.325,0,0,0,.456.76c.152.152.152.152.456.152l-.913-1.369c-.3-.456-.76-.608-.913-1.217l-.456.3-.913-.608-.913.152c-.3-.3-.76,0-.913-.152L47,85.219l.76-.76v-.913l.456-.456-.152-.152.152-.76.913-.3a2.57,2.57,0,0,1,.76-.3c.152,0,.608-.456.913,0,.3-.3.608,0,1.065,0l.913-.913c.3-.152.3.3.456.3l.608-.456.456-.456,1.065.3.152.913c-.152.152-.152.456-.3.608-.152.3,0,.608-.3.76s0,.456-.152.608,0,.608-.3.76a.3.3,0,0,0-.3.3c-.3.608-.3.76-.608.913A21.6,21.6,0,0,0,55.367,87.2l.456-.152.3.3c0,.3-.456,0-.456.152.456.913,1.217,1.369,1.521,2.281a.959.959,0,0,0,1.369.456h0c0,.456-.608.3-.456.76.3.152.456.456.76.456l.3.456c.152-.3.608-.152.608-.608l-.608-.456c-.152-.456-.3-.608-.3-.76l-.456-.3v-.76l-1.521-.913.152-.152-.913-.913c0-.456-.456-.456-.456-.913v-.456l-.913-.913.76-.3-.152-.152c.3-.3.76-.456.913-1.065,0-.3.3-.3.456-.608s.3-.456.3-.76l.152-.152a2.511,2.511,0,0,1,.76-2.281l1.521-.152c.152,0,.152-.152.3-.152v-.3a4.211,4.211,0,0,0-1.369-.152c-.456,0-1.065.152-1.521.152s-1.065.152-1.521.152a2.588,2.588,0,0,1-1.065-.152,13.208,13.208,0,0,0-3.5.152l-.3.456-.608.456c-.3,0-.456.152-.76,0s-.456.152-.608,0-.456.152-.76.152a4.5,4.5,0,0,1-1.521-.3c-.3-.152-.456-.3-.76-.152a.679.679,0,0,1-.76,0c-.152-.152-.456,0-.608-.3a2.57,2.57,0,0,1,.76-.3A10.042,10.042,0,0,0,47,79.135l.76-.152a2.162,2.162,0,0,1-.913-.3,2.588,2.588,0,0,0-1.065-.152H44.72a.149.149,0,0,1-.152-.152l.152-.608,1.369-.152c.456,0,.913.152,1.217-.152.76.3,1.521,0,2.434.152a.531.531,0,0,1,.3.152,6.469,6.469,0,0,1,1.673-.3c.152,0,.152,0,.3-.152a1.573,1.573,0,0,1,.608.152,1.006,1.006,0,0,1,.913-.152c.3,0,.456.3.76,0,.3.3.608.152.913.152a.559.559,0,0,0,.456-.152l.3.152.3-.3.3.456v-.152a1.371,1.371,0,0,0,.76.152H57.5a5.174,5.174,0,0,1,1.521.152h0l.152-.152.3.152.3-.152c.76.456.76.456,1.065.152.76.3,1.673-.152,2.434.3l.152-.152a4.9,4.9,0,0,1,2.586.152h.608a.531.531,0,0,0,.3-.152,34.377,34.377,0,0,1,3.954-.152h.608l.3-.456c0,.456.608.76,0,1.217H70.729c-.3,0-.76-.152-1.065.152a11.512,11.512,0,0,0-2.281-.152l-.608.3c-.3-.3-.456-.152-.76.152s0,.3,0,.456l.3-.3.3.152h0l.152-.152h.456a.914.914,0,0,0,.608.152c.456,0,1.065.152,1.521.152a3.707,3.707,0,0,0,1.825,0,2.592,2.592,0,0,1,1.521,0c.608.152,1.217.3,1.673.456a1.371,1.371,0,0,0,.76.152h.152l.3-.456c.3-1.065-.456-1.673-.913-2.281.608-.152.913.456,1.369.152.152.3.152.76.456.913a3.469,3.469,0,0,0,.913,1.825c.3-.3.608-.3.76-.152a1.939,1.939,0,0,1,1.825,0l.456-.3-.3-.608Zm10.951-3.954.76-.152.76-.152a.149.149,0,0,0,.152.152h.456c.152,0,.608.456.913.76l-.3.608H92.63l-.456-.456Zm-3.65-16.274.456.456-.152.152c.3.456,0,.913-.152,1.521C88.828,60.275,89.132,59.667,89.284,58.906ZM87,63.317h.456l.152.608a6.341,6.341,0,0,0-.3.913l.456.3-.76.3Zm.76,10.342-1.521-.152-.152.3-1.521-.456,1.217-.456-.3-.456c.3.152.456.456.76.608s.456-.152.608-.3a.559.559,0,0,1,.456-.152v-.3c-.3-.3-.456-.3-1.369-.456v-.152c.3-.152.76-.3,1.065-.456s.608.152,1.065.3h.152l.608.76.3,1.217-.608.3.608.456-.913,1.065c-.456.152-1.065-.152-1.521.3l-.3-.152c-.456.3-.913.152-1.521.152l.3-.913c.152-.152.456-.3.608-.456.3-.152.456-.3.76-.3l.3.152.3-.3.152.152.152-.152c.3,0,.456.3.76.152ZM80.919,78.07h.3c.913,0,1.825-.152,2.738-.152.152,0,.152-.152.3-.152a6.588,6.588,0,0,0,.76.152h1.521a.914.914,0,0,1,.608.152c.152,0,.456-.3.608,0a1.336,1.336,0,0,1,1.065-.152l.152.152c.76,0,1.521.152,2.281.152l2.281.152.3.152-.456.456H92.326a6.818,6.818,0,0,0-1.825-.152,3.707,3.707,0,0,1-1.825,0,7.4,7.4,0,0,0-1.825-.152c-.3,0-.608-.3-1.065-.152a1.336,1.336,0,0,1-1.065-.152.559.559,0,0,0-.456.152,2.629,2.629,0,0,0-1.521-.152c-.456.456-1.065-.152-1.521.456l-.456-.456C80.919,78.223,80.919,78.223,80.919,78.07Zm-47-12.168h-.913l-.608-.3c.152-.152.3-.456.456-.608.3-.3.608-.3,1.217,0l-.152.913Zm5.323,12.472c-.456,0-.913.152-1.217-.152a8.27,8.27,0,0,1-2.738,0,.97.97,0,0,1-.913,0,2.11,2.11,0,0,0-1.369,0l-.152.152c-.3-.456-.913,0-1.369-.3s-.913,0-1.369-.152a4.135,4.135,0,0,0-1.369,0l-.152-.3.152-.3a10.041,10.041,0,0,0,2.129.152,10.774,10.774,0,0,1,2.129-.152,10.042,10.042,0,0,0,2.129.152H37.42v-.456h.152l.152.456c.3.152.608,0,1.065.152a6.34,6.34,0,0,1,.913.3Zm3.042.608h0c-.152.152-.152.3-.3.3l.152.3a5.788,5.788,0,0,1-1.369,1.977l-.456-.152a9.693,9.693,0,0,0-.3-1.065l.608-1.065c0-.152.152-.3,0-.3-.3-.3.3-.76-.152-1.065l.152-.76.913-.3c-.152.608.3.913.608,1.521l-.152.152ZM62.667,58.6c.3-.3.608-.456.76-.76a1.084,1.084,0,0,1,.913-.456c.3,0,.456-.3.76-.3H66.47c.152.456.913.152,1.217.608l-.152.608a1.183,1.183,0,0,1-1.217.3v.3l-1.065,1.369a3.708,3.708,0,0,1,0,1.825v1.673l.3.456-.456.456.152.608c0,.456-.152.76-.152,1.217l.608.152H65.1l-.3.76.152.3c-.3.456-.152.913-.152,1.369h-.608a10.27,10.27,0,0,1-.3-2.129l-.3-.3a1.8,1.8,0,0,0,.152-1.217c0-.3-.152-.913-.152-1.369s.152-.913-.152-1.217l.3-.456-.76.3.3-.3V60.884l-.152-.456-.76-.3h-.913v-.456A1.739,1.739,0,0,0,62.667,58.6Zm-2.738.3-.152.3h.3v.76a7.972,7.972,0,0,1-1.673,1.521l-.76-.76-.3.152a5.211,5.211,0,0,1-2.738-1.369l.152-.3c-.3-.3,0-.76-.152-1.065l-.76-1.369c.152,0,.456-.3.608-.152a1.371,1.371,0,0,0,.76.152A18.174,18.174,0,0,0,59.93,58.906ZM55.367,71.682a2.162,2.162,0,0,0,.913.3.4.4,0,0,1,.456.456,5.4,5.4,0,0,0-1.521.3c-.3.152-1.521-.3-1.977-.456L51.412,70.77l.152-1.065.76-.608a.531.531,0,0,1,.3.152,3.057,3.057,0,0,0,1.217.608c.152,0,.456.152.608.152h.608c.152.152.456-.3.608,0s.456,0,.76.152c.152.152.456.152.76.3a.559.559,0,0,1-.152.456h-.152c-.456,0-.913.3-1.369.152a.531.531,0,0,0-.3.152.97.97,0,0,0-.913,0C54.454,71.835,54.911,71.53,55.367,71.682Zm-5.019-5.628h-.608v.152a8.575,8.575,0,0,1-1.825.608c-.456,0-.913.456-1.369,0H45.177l-.152-.152-.76.3-.152-.456c-.913.152-1.673-.456-2.586-.3-.152-.152-.456-.3-.608-.456s0-.608-.3-.913.456-.456,0-.76h.913l.76.456a1.448,1.448,0,0,1,1.065.3c.3.3.608,0,.913.3s.608.152.76.3.3.152.608.152h2.281a5.368,5.368,0,0,0,2.129-.456c.456-.152,1.065-.456,1.521-.608l.3.3-.76.608Zm.76,1.673c-.152.152-.3.152-.456.3a1.381,1.381,0,0,1-1.065.456c-.3.152-.608.152-.913.3a.691.691,0,0,0-.76,0,1.654,1.654,0,0,1-.76.152.679.679,0,0,0-.76,0,8.855,8.855,0,0,0-2.89-.456l-.608-.3-.608-.3h-.913c-.152-.3-.152-.608-.3-.913l.456-.76c.456,0,.76.3,1.217.608a4.441,4.441,0,0,0,1.369.3c.456,0,.913.3,1.369.3a2.11,2.11,0,0,0,1.369,0c.456,0,1.065-.152,1.521-.152l.3.152c.608-.3,1.369.152,1.977-.456v-.3l.152.152c.152.3.152.608.3.913Zm-7.3-7a8.574,8.574,0,0,1,1.825.608c.3,0,.608.3.913.3a1.14,1.14,0,0,0,.76-.152l.152.152.913-.152.3-.3c.3-.152.608.152.913-.152s.456.3.608,0c.608,0,1.065-.456,1.673-.608a1.227,1.227,0,0,1-.456,1.369l.152.152h-.152a1.594,1.594,0,0,0-1.825.152l-2.129.152c-.152.3-.3,0-.456,0s-.3.152-.456.152c-.3-.152-.608-.152-.913-.3H44.416c-.608-.3-1.217-.456-1.825-.76a6.583,6.583,0,0,0-1.825-.76l-.608-.76v-.608l.456-.152c.152.152.456.3.608.456a16.59,16.59,0,0,0,1.673.913c.152.152.456,0,.608-.152l.3.456ZM41.07,61.8h0l.608.152c.152.608.913.456,1.521.456l.608.3.3-.152.456.3a.914.914,0,0,1,.608.152,2.82,2.82,0,0,0,1.065.3c.152,0,.3.152.608.152.456.152.913-.152,1.369-.152l.152-.152c.913.152,1.673-.3,2.586-.152v.3l-.608.76c-.3,0-.913-.152-1.217,0s-.913,0-1.217.3c-.456-.3-.76-.152-1.217,0l-.152-.152-.3.152-1.065-.456a8.9,8.9,0,0,1-1.977-.3,7.415,7.415,0,0,1-1.065-.456c-.456-.152-.76-.3-1.217-.456-.3,0-.608-.3-.913-.456,0-.3.152-.456.152-.608a.716.716,0,0,1,.913.152Zm15.666,7.6H55.367c-.152,0-.3,0-.3.152-.152-.152-.456-.3-.608-.456a1.727,1.727,0,0,0-1.217-.456c-.152,0-.456.152-.608.152,0-.3,0-.3.3-1.217a.716.716,0,0,1,.913.152l.913.456c.3.152.608.152.913.3a6.468,6.468,0,0,1,1.673.3l.456.456a2.588,2.588,0,0,1-1.065.152Zm.608-1.825a.285.285,0,0,0-.456,0,14.95,14.95,0,0,0-2.434-.76l-.76-.608.456-.913.456-.3a16.03,16.03,0,0,1,1.673,1.065c.608.3.913.152,1.217.456s.913.152,1.217.3a1.249,1.249,0,0,1,.152,1.065c-.152.456-.3-.3-.456,0s-.3,0-.456-.152-.456,0-.608-.152Zm1.369-1.825c-.76-.3-1.673,0-2.281-.608a5.8,5.8,0,0,0-1.521-.456h-.3a3.312,3.312,0,0,0-1.217-.76l.3-.913,1.065-.456.3.3-.152.152v.152a11.344,11.344,0,0,0,1.825,1.065,4.683,4.683,0,0,0,1.977.456c.3.152.608.152.913.456l-.152.3v-.152Zm.76-2.434c-.3-.152-.76.3-1.065-.152l-.3.152-.152-.152-.152.152-1.369-.456c-.3,0-.456-.152-.76-.3a.94.94,0,0,0-1.065-.3c-.3-.76-.3-.76.152-1.217.3.456,1.065.456,1.369.76a4.757,4.757,0,0,0,1.521.76l.456-.608v.3c.456.456,1.065.152,1.673.3l.3.608ZM50.8,50.693l-2.738-2.129c.152-.608.3-.76,1.065-.76l-.3-.456.152-.152a2.23,2.23,0,0,1,.608-.3l.913-1.369c.152-.152.3-.3.456-.3l-.152-.456.3-.3v.456c.913.152,1.065.3,1.369.152-.152.608-.76,1.065-1.065,1.521.3.3.152.76.152,1.217l.3.3-.152.3c.456.456.913,1.065,1.521,1.217.456.608,1.369.76,1.825,1.369.608,0,.913.608,1.369.76l-.3.608H54l-.913-.456h-.608A3.189,3.189,0,0,0,50.8,50.693Zm-7.757,3.042a2.588,2.588,0,0,0,.152-1.065,3.869,3.869,0,0,1,.3-1.065l.152.456.608.3.3-.456a1.018,1.018,0,0,0,1.065.608,3.626,3.626,0,0,0,1.673.913,7.17,7.17,0,0,0,2.281.913c.3,0,.608.456.913.456.152,0,.3.152.456.152v.3l.456.152H50.8l-.456.456v.608l.456.456v.3a3.238,3.238,0,0,1-2.434.456l-.3.3c-.456-.152-1.065-.3-1.521-.456a1.54,1.54,0,0,1-1.065-.608.471.471,0,0,1-.3-.152c-.3-.152-.76-.3-.913-.608a3.469,3.469,0,0,1-.913-1.825c-.3,0-.456-.3-.3-.608Zm-.3,3.5a1.162,1.162,0,0,0,.76.3l.3.456A26.211,26.211,0,0,0,47,59.059c.3,0,.608-.152.913-.152h.913l.3.3a1.8,1.8,0,0,0,1.217-.152l1.217.456c-.608,0-1.065.3-1.673.3h-.456a2.984,2.984,0,0,1-2.281.152c-.3,0-.608-.152-.913-.152-.3-.152-.608-.152-.76-.3h-.76a1.153,1.153,0,0,0-.608-.3,1.6,1.6,0,0,1-1.369-.76l-.608.152.152-.456-.76-.76v-.3l.456-.3c0,.3.456.152.76.456Zm-7.909,6.084c0-.152-.152-.3,0-.3.456-.456.456-1.065.76-1.521.3-.3.456-.608.76-.913.152-.152.456-.3.456-.456a8.623,8.623,0,0,1,1.217-1.977,25.358,25.358,0,0,1,1.825-2.434c.152-.152,0-.76.456-.608l.456-.76h.456l.3.456c0,.456-.152.76-.152,1.217h-.152A9.764,9.764,0,0,0,39.7,57.994c-.76,1.065-1.673,1.977-2.434,3.042A11.615,11.615,0,0,1,35.9,62.4a6.615,6.615,0,0,0-1.065.913ZM44.568,80.5c.456,0,.76.456,1.369.608.152,0,.3.3.456.608h1.065v.152H46.7c-.3.456,0,.76.3,1.217l-.152.152c-.152.3,0,.456.152.76l-.456.456v.3l.608.456v.152l-.456-.152a.285.285,0,0,1-.456,0l-1.521.456A4.885,4.885,0,0,1,43.2,82.329c.3-.3.3-.76.608-1.065C43.96,80.96,44.264,80.808,44.568,80.5Zm1.065-4.259-.608.608c-.3,0-.608,0-.608-.3a.654.654,0,0,0-.608-.608.531.531,0,0,1-.3-.152l-.3.152-.608-.3v-.608a1.518,1.518,0,0,1-.76-.608c-.152-.3-.456-.456-.608-.76a1.518,1.518,0,0,0-.76-.608,1.518,1.518,0,0,1-.608-.76H39.4a3.312,3.312,0,0,1-1.065-1.369,6.165,6.165,0,0,0-.76-1.369,8.437,8.437,0,0,0-.913-1.217c-.152-.152-.456-.3-.608-.456.3-.608-.456-1.217,0-1.825l-.3-.608.152-.152-.3-.456c.152-.152.608-.152.608-.608.76-.76,1.065-1.977,2.129-2.586h.3v.3a7.414,7.414,0,0,1-.608,1.673c-.152.456-.3,1.065-.456,1.521,0,.152-.152.3-.152.608.456.456.3,1.065.608,1.673a.285.285,0,0,1,0,.456c-.3.456,0,.76-.152,1.217l.456.456v.3a2.728,2.728,0,0,0,1.065.76,2.9,2.9,0,0,0,1.217.456l.913.456c.152.152.3.152.608.152l.456.456a6.468,6.468,0,0,1,1.673.3,1.3,1.3,0,0,1,1.065.913c0,.3-.152.608,0,.913s-.152.456,0,.76l.3.3Zm.3-4.563a1.371,1.371,0,0,0-.76.152h-.3c-.456-.152-1.065-.152-1.521-.3a5.4,5.4,0,0,0-1.521-.3l.152-.152a1.448,1.448,0,0,0-1.065-.3L39.7,70.161l-.152-.76.3-.913h.76a7.1,7.1,0,0,0,1.521.76,10.48,10.48,0,0,1,1.217.456c.456.152,1.065.3,1.521.456a7.4,7.4,0,0,0,1.825.152,2.162,2.162,0,0,1,.913.3l-.456.456c-.3.152-.456.3-.76.456a1.532,1.532,0,0,1-.456.152ZM46.7,73.2c.3-.3.456-.608.913-.608l.152.456h0l-.456.608c-.152.152-.3-.152-.608-.456Zm17.947,3.346h0l-.456.456-.152-.152h0a3.745,3.745,0,0,0-1.825.152.559.559,0,0,1-.456-.152l-.608.456c-.152-.152-.152-.3-.3-.456s-.3-.152-.456-.3H58.257c-.3.152-.608-.152-.913,0H56.279a2.588,2.588,0,0,1-1.065-.152l-.152.456h-.3l.152-.152v-.152c-.3,0-.456-.3-.76-.152a.914.914,0,0,1-.608-.152c-.152-.152-.456,0-.76,0a.531.531,0,0,1-.3-.152H51.108a6.946,6.946,0,0,1-3.042-.3v-.3l.76-.3-.3-.608h.76l-.152.456c.3,0,.76,0,.913-.3A7.414,7.414,0,0,1,50.5,73.66c.152-.3-.152-.913-.152-1.369l.3-.3H50.8c.3.152.456.456.76.456.456-.152.3.3.608.456.608.152,1.217.608,1.825.76s1.217.608,1.825.76l.3.152c.456-.152.456-.608.76-.913s.608-.608.913-.608.456-.456.913-.608c-.3-.3-.76-.3-.608-.76l.76.456.456-.608v-.456a.531.531,0,0,1,.3-.152c.3,0,.456-.3.456-.608.3-.456.456-1.065.76-1.521a1.829,1.829,0,0,0,.3-1.217H61.3l.152-.456a8.754,8.754,0,0,1-.3-1.521l.3-.456.913,1.065v.608c0,.3.3.456,0,.608l.152.3c-.152.3-.3.456,0,.76s.3.456.152.76.152.456,0,.608a.691.691,0,0,0,0,.76c.3.3-.152.456,0,.76s0,.76.152,1.065a1.666,1.666,0,0,1,0,1.217v.608a3.58,3.58,0,0,1,.3,1.217h.456a.531.531,0,0,1,.3.152c0,.456.608.3.76.913Zm7.3.152c-.608,0-.608,0-1.369-.456-.152.152-.3.3-.456,0l-.152.152-.456-.456-.608.608a6,6,0,0,1-2.129-.76v-.456l2.129.76.152-.3-.152-.152s-.456,0-.608-.152l-.913-.456c-.3-.152-.608-.456-.913-.3a2,2,0,0,0-1.825-.456c-.152,0-.3-.152-.456-.152l-.456-.913.3-.152V72.6h.608l.456.456.608-.3v.3l-.456.152c.456.152.3.76.913.76.152.3.76.3.913.608h.76l.152.152.152.152a10.27,10.27,0,0,1,2.129.3h.3l.456.152.913.3.456-.152a2.225,2.225,0,0,0-.456,1.217Z" transform="translate(13.076 15.316)" fill="#1f7762"/>
    <path id="Trazado_27809" data-name="Trazado 27809" d="M84.054,69.28h-.76a1.727,1.727,0,0,1-.456-1.217h-.608a1.727,1.727,0,0,0-1.217-.456c-.456,0-.913.152-1.369-.152-.152,0-.3.152-.456.152s-.3-.152-.456-.152h-.608a.97.97,0,0,0-.913,0H75.232c.456.456,1.065.152,1.521.456l.152-.152.3.456c.76,0,1.369.456,1.977,0l.3.608.3-.152,1.065.76v.3c0,.152-.152.152-.3.3H78.73a11.741,11.741,0,0,0-2.281-.3.559.559,0,0,1-.456-.152,1.929,1.929,0,0,0-.913-.152l-.3.456-.456-.608-.913-.3a14.126,14.126,0,0,1-1.977-.608A11.343,11.343,0,0,0,69.6,67.3l-2.281-.913h-.3l-.913-.608H65.65A10.655,10.655,0,0,0,62.76,63.5l-.76.3.3.3c.152-.456.456.152.608-.152l.3.3h-.3l.152.608a3.325,3.325,0,0,0,.456.76c.3.152.456.3.456.608,0,.456.3.608.608,1.065.3.3.456.608.76.913.152.3.608.456.456,1.065,0,.152.3.3.456.3a1.929,1.929,0,0,0-.152.913V71.1l.152.3-.152.152.152.152-.152.152c0,.3.152.608.152.913s-.152.456.152.76c-.3.3.152.456,0,.76s.152.456.3.76l.152-.152.152.456h.76l.3-.456.456-2.281.608-.608H69.6l-.152.608.913.913v.456l1.825-.608.456.3V74.3H73.1a1.608,1.608,0,0,1,.913-1.065c.152-.152.3.608.608.152l.608.456a.559.559,0,0,0-.152.456c0,.152.152.3.3.456l.456-.3a9.838,9.838,0,0,0,.608,1.977h.76l.76-1.065-.152-.152a4.7,4.7,0,0,0,.3-1.217c0-.608.456-.913.3-1.521,0-.152.152-.152.3-.3a1.371,1.371,0,0,1,.76-.152,10.349,10.349,0,0,0,3.042-.3l.913-.76v-.3h.3l.3-.608-.152-.152Z" transform="translate(32.299 33.08)" fill="#1f7762"/>
    <path id="Trazado_27810" data-name="Trazado 27810" d="M64.156,57.95h0l.456.608.76-1.065-.3-.3a6.856,6.856,0,0,1,.456-1.673,1.459,1.459,0,0,1-.3-1.369,6.587,6.587,0,0,0-.152-.76,3.492,3.492,0,0,1,.608-2.129l-.152-.3a6.587,6.587,0,0,1,.152-.76,2.136,2.136,0,0,1,.3-2.129l-.3-.3.456-.3c-.152-.152-.3-.3-.3-.456,0-.3-.152-.456-.3-.76a4.554,4.554,0,0,1,1.217-.608,2.1,2.1,0,0,0,.456-.608c-.3-.3.152-.456.152-.608,0-.3.152-.456.152-.76.152-.456.456-.608.76-.913-.152-.456.3-.913.456-1.369l-.152-.152,1.217-2.129v-.456c.456,0,.456-.608.76-.608l.152-.152a.471.471,0,0,0,.152-.3v-.3c.3-.456.608-.76.913-1.217.152-.152-.152-.608.3-.608a2.67,2.67,0,0,1,.608-.76c.3-.3.3-.608.456-.913h.152c.152,0,.152-.152.3-.3A1.739,1.739,0,0,1,74.8,32.4a1.76,1.76,0,0,0,1.065-.76,13.713,13.713,0,0,0,1.369-1.521L75.868,28.9l-.3.456a6.614,6.614,0,0,0-1.065.913c-.3.456-.76.608-1.065,1.065.152.3-.152.608-.456.76a1.188,1.188,0,0,0-.608.608c-.152.3-.456.3-.456.456l.152.608h-.3c-.3.152-.152.3-.456.456s-.3.3-.456.456l-.456.456a1.673,1.673,0,0,0-.913,1.521.149.149,0,0,1-.152.152l-.608.152h0l.152.152v.152c-.152.3-.456.3-.456.76s-.3.3-.456.608a5.064,5.064,0,0,0-.456.913v.76l-.3.456.152.3-.3.456.152.3-.76.608c0,.608.152,1.217-.3,1.673h-.3v1.065A3.878,3.878,0,0,0,64.613,47l.152.3-.608.913.456.3c-.456.3,0,.913-.608,1.065l.152.3c-.152.3-.456.608-.3.913v.608a1.371,1.371,0,0,0,.152.76,1.929,1.929,0,0,0,.152.913h0l.3.456L64,54l.152.3L64,54.452c0,.152.152.152.152.3v.152h0v.152h0v.3H64l.152.3-.152.3.152.3-.456.152Z" transform="translate(33.185 15.055)" fill="#1f7762"/>
    <path id="Trazado_27811" data-name="Trazado 27811" d="M32.834,73.3c0-.456.3-.456.608-.608l-.3-1.065.456-.456-.3-.3.3-.456-.456-.608a3.938,3.938,0,0,0-1.065,1.673l.152.152-.152.456.3.152-.152.456h-.456c-.152.3-.152.913-.608,1.065a1.148,1.148,0,0,1-.608,1.065c.3.608-.152,1.065-.152,1.521l.152.3.3-.152.152.608.608-.152.456-1.825c.608-.152.913-.3.76-.76h-.456l-.152-.456C32.529,73.6,32.834,73.45,32.834,73.3Z" transform="translate(15.837 36.362)" fill="#1f7762"/>
    <path id="Trazado_27812" data-name="Trazado 27812" d="M64.469,55.311l.152-1.065c0-.152-.152-.152-.152-.3V52.877c.152-.3-.152-.608,0-.913l.3-.3-.152-.608-.608-.152v.913l.3.152-.608.3v.608l.3.152-.3.152v.76L63.1,55.007l.608.608Z" transform="translate(32.872 26.516)" fill="#1f7762"/>
    <path id="Trazado_27813" data-name="Trazado 27813" d="M49.681,72.477l-.608-.3.152-.3-.608-.608-.3.152V70.8l-.3-.3-.608.608.152.608h0l.456-.152c.152.456.152.76.3,1.217s.76.3,1.065.608Z" transform="translate(24.693 36.727)" fill="#1f7762"/>
    <path id="Trazado_27814" data-name="Trazado 27814" d="M50.325,73.921l-.3-.3.3-.152-.3-.456c-.152.3-.456.152-.76.152l.152-.76-.913.3.456.456-.152.3c.608,0,.456.76.913,1.065l.456.152v.456h.3l-.152-.3c.3-.152.3-.608,0-.913Z" transform="translate(25.266 37.717)" fill="#1f7762"/>
    <path id="Trazado_27815" data-name="Trazado 27815" d="M51.313,36.6c-.3,0-.456.3-.608.456s-.152.608-.3.913a1.381,1.381,0,0,0,1.065.456c.152,0,.3-.3.456-.3l-.3-.3c.152-.456.152-.76.3-1.217Z" transform="translate(26.256 19.067)" fill="#1f7762"/>
    <path id="Trazado_27816" data-name="Trazado 27816" d="M48.76,61.8a.531.531,0,0,0-.3.152.471.471,0,0,0-.3.152L48,62.256v.3l1.369-.152c.76.456,1.369-.152,1.977-.3v-.3Z" transform="translate(25.006 32.195)" fill="#1f7762"/>
    <path id="Trazado_27817" data-name="Trazado 27817" d="M34.713,69.8a2.123,2.123,0,0,0-.456,1.369l-.456.456.3.152.152.608a23.681,23.681,0,0,0,.913-2.281v-.3Z" transform="translate(17.608 36.362)" fill="#1f7762"/>
    <path id="Trazado_27818" data-name="Trazado 27818" d="M33.821,72.3,32.3,74.429h.456c.152,0,.152,0,.152-.152.152-.152.3-.456.456-.608l-.152-.152.456-.3a.651.651,0,0,0,.152-.913Z" transform="translate(16.827 37.665)" fill="#1f7762"/>
    <path id="Trazado_27819" data-name="Trazado 27819" d="M33.973,58.917c-.608-.152-.76-.913-1.065-1.217H32.3v.456a8.694,8.694,0,0,1,1.217,1.065Z" transform="translate(16.827 30.059)" fill="#1f7762"/>
    <path id="Trazado_27820" data-name="Trazado 27820" d="M50.4,62.256h1.521l.76-.456H50.7Z" transform="translate(26.256 32.195)" fill="#1f7762"/>
    <path id="Trazado_27821" data-name="Trazado 27821" d="M64.665,51.069l-.3-.3a1.336,1.336,0,0,0,.152-1.065l-.3.152-.3-.152-.3,1.065.456.456Z" transform="translate(33.132 25.891)" fill="#1f7762"/>
    <path id="Trazado_27822" data-name="Trazado 27822" d="M42.7,68.5l.913,1.065h.3v-.456L43,68.2Z" transform="translate(22.245 35.529)" fill="#1f7762"/>
    <rect id="Rectángulo_160" data-name="Rectángulo 160" width="160" height="160" transform="translate(0 -0.3)" fill="none"/>
  </g>
</svg>
