<svg xmlns="http://www.w3.org/2000/svg" width="59.79" height="51.58" viewBox="0 0 59.79 51.58">
  <g id="Calavera_agua-fresca" transform="translate(0 -35.74)">
    <path id="Trazado_23243" data-name="Trazado 23243" d="M40.6,85s-.05.18-.11.15a14.077,14.077,0,0,1-2.05-.1,9.149,9.149,0,0,1-1.15-.18c-.16,0-.41-.13-.41-.23a.55.55,0,0,0-.52-.46A3.38,3.38,0,0,0,34,84a.3.3,0,0,1-.23,0,1.26,1.26,0,0,0-1.15.18,1.74,1.74,0,0,1-1.06.23c-.59-.07-1,.31-1.56.41s-1.1.16-1.67.26c-.2,0-.41.18-.61.2-1.11.11-2.21.18-3.29.31a3.63,3.63,0,0,0-.92.39h-.05a.59.59,0,0,0-.57-.77c-.84-.18-1.67-.44-2.51-.62a7.409,7.409,0,0,0-1.08-.08c-.46-.59-.51-1.41,0-1.61a1,1,0,0,1,.88.1c.2.15.23.51.36.85l.51-.26c.05.15.1.26.15.38a.55.55,0,0,0,.18,0,4.018,4.018,0,0,1,.08-1h0a3.784,3.784,0,0,1,.05-.75c.05-.26-.08-.41,0-.56a2.35,2.35,0,0,0,.28-1.23c-.05-.57.05-1.16,0-1.72,0-.34,0-.57.62-.52-.51-.28-.62-.53-.44-.87a.43.43,0,0,0,.06-.18c-.18-.72-.39-1.43-.57-2.15,0-.11-.13-.23-.1-.34.1-.82.2-1.66.36-2.48.07-.49.23-1,.33-1.44.05-.26.16-.31.41-.28a8.16,8.16,0,0,1,1.62.2,5.12,5.12,0,0,0,1.69-.08c.82-.07,1.64-.18,2.46-.28l2.21-.31c.8-.12,1.59-.28,2.39-.33.2,0,.46.21.74.36-.05-.15-.08-.31-.13-.46,1.31-.31,2.59-.64,4-1-.11.23-.21.41-.29.62l-.43-.16a1.55,1.55,0,0,0,0,.34,1.734,1.734,0,0,0,.07.59c-.18-.08-.38-.18-.59-.26-1,.36-2,1.16-3.36.57,0,0-.18.2-.36.38-.05-.15-.1-.26-.15-.38-.69.66-.69.66-1,0-.1.25-.18.43-.25.66-.57.13-1.26-.56-1.8.21-.18-.16-.2-.72-.59-.26,0,.8.08,1.64.13,2.49a.57.57,0,0,0,.18.33c.41.49.41.77,0,1.29.64.05,1.21.1,1.85.13.1-.44.23-.88.33-1.31a.18.18,0,0,0,.11,0c.07.31.15.59.23.9h.15l.28-.67h0a1.14,1.14,0,0,1,.18.15,2.6,2.6,0,0,1,.62-.18c.08,0,.13.28.18.46a.25.25,0,0,1-.1.21L31.56,75c-.28.1-.51.28-.79.39l-3.23,1.3a3.9,3.9,0,0,1-.8.31c-.1,0-.26-.15-.44-.25a9.35,9.35,0,0,1-1.07.59,1.29,1.29,0,0,1-.54-.06c.15-.2.28-.41.43-.61s.21-.23.24-.39c.07-.41.1-.82.12-1.07-.92-1-.66-2.24-.95-3.31-.18,0-.38.1-.48,0-.7-.36-1.13.11-1.54.52a.75.75,0,0,0-.21.53c.1.65.26,1.26.36,1.9.1.49.16,1,.28,1.49a1.28,1.28,0,0,0,.34.75c.2.12.54,0,.82,0v-.08l.61.18a1.37,1.37,0,0,1-.3.36,1.33,1.33,0,0,0-.57,1.67c.08.28.05.49-.26.57-.51.12-.51.51-.48.89a4.3,4.3,0,0,1,0,.8,1.09,1.09,0,0,1-.31.51,3.65,3.65,0,0,1-.54.41c.23.26.44.46.57.62s.46.1.56.23a1,1,0,0,0,1.51.05.74.74,0,0,1,.13-.08c.7.59,1.39.44,2.29-.51,0,.33.13.46.48.31a32.781,32.781,0,0,1,3.34-1.23c.69-.21,1.26-.64,2-.85a3.85,3.85,0,0,0,1.64-1.15c.13-.13.39-.11.62-.16a1.5,1.5,0,0,1,0-.31c.74-.2,1.21-1.07,2-1A3,3,0,0,1,38,77.8c.57-.36,1.16-.72,1.72-1,0,1,0,1-1.1,1,.07.18.15.46.2.46a4.5,4.5,0,0,0,.8-.15h.87a7.92,7.92,0,0,0-.05.85l.51.28-.26.26c-.15-.16-.33-.31-.48-.49s-.28-.31-.52,0a3.56,3.56,0,0,1-.92.57c-.31-.41-.23-.54.44-.85a1.73,1.73,0,0,0-.49-.08,3.321,3.321,0,0,0-.64.21v.33l-.36-.28a.26.26,0,0,0-.08.08,2.16,2.16,0,0,0,.44.51l.25.67c.39.15.44-.67.82-.13h0a6.7,6.7,0,0,1-.56.61A4,4,0,0,0,39,80.5c.31-.13.54-.44,1-.2a3.867,3.867,0,0,0,.59-.31c.21-.1.64-.34,1-.54a3,3,0,0,1-.57-.51,1.53,1.53,0,0,1-.1-.62,2.63,2.63,0,0,0,.49,0c.23,0,.48.13.66,0,.64-.31,1.26-.72,1.9-1.06a2.47,2.47,0,0,1,.57,0,1.81,1.81,0,0,1-.29.41c-.2.24-.69.13-.61.67a41.281,41.281,0,0,0,4.54-2.87,1,1,0,0,1,.13.18c-.23.2-.46.38-.69.59a.079.079,0,0,0,.05.07l2.13-.84c0,.25,0,.49-.44.51a1.07,1.07,0,0,0-.51.33c-.39.36-.67.49-1,.39-.33.87-1.41,1.62-2,1.41a8.12,8.12,0,0,0,.82-.72c.26-.23.49-.46.77-.74-.17-.08-.2-.1-.23-.08-.82.59-1.64,1.16-2.49,1.75a5.071,5.071,0,0,1-.79.51c-.36.15-.51-.1-.54-.46-.62.23-1.21.43-1.95.69l.59.33c.18.64-.77.41-.79,1h.33c-.18.9-.13,1,.36,1.21,0,.28-.08.56-.1.85-.11-.06-.24-.13-.36-.18v.46c0,.16,0,.54-.38.51-.08,0-.16.1-.24.18L39.9,84a.75.75,0,0,1-.12-.21c.12-.08.25-.18.43-.28s.1-.31.16-.51a3.49,3.49,0,0,0,.63-.5s-.16-.28-.26-.44l.46-.36h-.54c-.28.31-.54.57-.84.92-.16-.46-.26-.71-.34-1a.7.7,0,0,0-.61.72.645.645,0,0,1-.26.54,1.1,1.1,0,0,0-.23.61c0,.08.18.18.28.26a4.1,4.1,0,0,1,.08-.69h.15c.1.15.18.3.26.41.31-.29.54-.59.82-.8a2.8,2.8,0,0,1,.69-.23c-.07.18-.15.38-.23.56l-.15-.18c-.44.31-.77.65-.57,1.24a.594.594,0,0,1-.15.28,1.09,1.09,0,0,0-.21.49c.39-.26.8-.54,1.16-.8.23.51-.41.87.13,1.08ZM26.28,76.47c.38-.59.51-.62.79-.18.31-.08.57-.13.95-.21l.52-.87-.62.15v-.74c0-.2-.13-.41-.05-.56s.31-.16.49-.23c-.13-.24-.26-.47-.41-.7a1.806,1.806,0,0,1-.05.49c-.44-.28-.26-.69-.34-1s.05-.64-.07-.89-.47-.44-.72-.65v.18c-.41.11-.82.26-1.23.34a.632.632,0,0,0-.57.74,11,11,0,0,0,.57,1.26c.28.59.69,1.15.28,1.85-.05.07,0,.2,0,.28a4.07,4.07,0,0,1,.46.74Zm10.9,5.26c-.15-.28-.25-.54-.36-.77h-.15c0,.34-.05.7-.08,1.06.21,0,.34-.08.39,0s.43.31.43.49-.28.13-.43.15a2,2,0,0,0-.39.23l.08.21c.51-.52.74.15,1,.18a20.749,20.749,0,0,0,1-1.85h-.38c-.08.18-.16.33-.28.56-.16-.25-.26-.41-.39-.59Q37.408,81.576,37.18,81.73ZM35.82,82a3.808,3.808,0,0,0,.36-.3c.08-.11.21-.26.18-.36a6.76,6.76,0,0,0-.31-1.11l-.59,1.21c-.05-.18-.1-.28-.12-.38-.59.38.25.61.07.87a3.5,3.5,0,0,0,.41.07Zm-2.1-.74c0,.41-.44.77.05,1s.44.33.36.66c0,.08.08.18.1.26.77-.36.31-.92.31-1.39-.23.11-.41.21-.61.29-.06-.11-.13-.23-.11-.31s.21-.18.34-.31a2.7,2.7,0,0,1-.44-.22ZM22.38,80h.38a1.36,1.36,0,0,0,.18-.59c0-.23-.07-.61,0-.66.38-.23.1-.31,0-.49l-.33.2V79c0,.16-.06.34,0,.46C22.76,79.73,22.71,79.88,22.38,80Zm10.29,2.65c.15.18.31.38.33.36.18-.11.46-.24.49-.39s-.23-.33-.36-.51c-.13.13-.28.31-.46.52Zm3.41-.34a.88.88,0,0,1-.15-.05,5.67,5.67,0,0,0-.16.9c0,.1.18.2.26.31a.92.92,0,0,0,.18-.41,3.93,3.93,0,0,0-.13-.77Zm-7.39,2.13h.1c.11-.16.16-.36.29-.41s.25.15.41.23a2.127,2.127,0,0,0-.08-.72,3.8,3.8,0,0,0-.51-.1c-.06.32-.13.65-.21.98Zm9-4.69h-.23v1c0,.07.13.15.2.23a1.42,1.42,0,0,1,.16,0,9.149,9.149,0,0,1-.15-1.25Zm-5.82,3.72c.23.1.38.18.48.23l.54-.46-.07-.16a7.52,7.52,0,0,1-.97.37Zm-.62.33a6,6,0,0,0,.18-.79.56.56,0,0,0-.1-.26H31.2a.52.52,0,0,0-.08.26,7.449,7.449,0,0,0,.11.77Zm2.62-.26a1.62,1.62,0,0,0,0-.48,1.517,1.517,0,0,0-.25-.05.88.88,0,0,0-.34.2,5.571,5.571,0,0,0,.57.31Z" fill="#363f66"/>
    <path id="Trazado_23244" data-name="Trazado 23244" d="M40,57.76l-.62.41c-.64-.2-.46-.87-.74-1.23s-.1-.95,0-1.41c-.41.08-.62-.1-.52-.49A3.09,3.09,0,0,1,39.7,53c.28-.16.38-.62.64-.85s.13-.72,0-1a1.22,1.22,0,0,1,.28-1L41,51a1.211,1.211,0,0,0,.18,0c.12-.23.25-.46.36-.69a5.75,5.75,0,0,1,1.15-1.88,1.41,1.41,0,0,1,.15.44,11.8,11.8,0,0,1-.1,1.46,1.11,1.11,0,0,1-.38.62c0,.54.36,1.18-.16,1.64a1,1,0,0,1-1.31.18c.13.57.26,1.1.39,1.64a1.72,1.72,0,0,0,.36-.05h0a7.143,7.143,0,0,0,.11.79h.15c.26-1,.51-2.13.8-3.18h.2a4.281,4.281,0,0,1,.16.74A5,5,0,0,1,42,55.74c-.31.36-.75.61-1.08.95a1.13,1.13,0,0,0-.31.59c0,.2.16.33.36.15a3.119,3.119,0,0,0,.16.31c.1-.13.17-.26.28-.41-.13-.08-.26-.13-.46-.26.18-.08.35-.2.38-.18a2.36,2.36,0,0,1,.44.57c.07.18.48.25.13.61-.13.13.05.54.07.85.49.18.67,0,.52-.46A4.31,4.31,0,0,1,42.62,56c.05-.16-.07-.39-.1-.57h0v-.18c.64-.13.54-.72.64-1.15s.2-1,.31-1.52c.12-.66.3-1.33.41-2a4.43,4.43,0,0,0-.11-1,4.29,4.29,0,0,1,.11-.64c.12.12.2.18.2.23,0,.54.49,1.05,0,1.59a.23.23,0,0,0,0,.18A2.28,2.28,0,0,1,44,53c-.51.82-.28,1.69-.59,2.54.38,0,.38.23.26.54a12.57,12.57,0,0,0-.57,1.48,4.28,4.28,0,0,0,0,.49h.15c.11-.26.18-.52.31-.82.34.12.39-.08.39-.41a1.07,1.07,0,0,1,.33-.67c.18,1.08-1,1.9-.54,3l.36-.24c.15.54.31,1.06.49,1.7.2-.28.41-.44.43-.62s-.23-.23-.41-.38c.08-.46.16-1,.23-1.52l-.12-.07c-.11.25-.23.54-.34.82a.87.87,0,0,1-.05-1.36,2.65,2.65,0,0,0,.54-1.88,1,1,0,0,1,.59-1h0a8.8,8.8,0,0,1-.49,2.52c0,.1-.13.28-.07.33.48.54,0,1.23.3,1.77v.31c.54-.36.13-1.18.8-1.44.2.77-.62,1.39-.39,2.13a.63.63,0,0,1,.13,0,5.5,5.5,0,0,1,.11-.69h.17c.06.28.08.57.13.82v.26c0,.08.23-.1.23-.18a5.57,5.57,0,0,0,.13-.75h0c.18-.12.38-.28.54-.38s.07-.41.1-.62a8.1,8.1,0,0,1,.18-.79h0c.36.08.41-.21.46-.44.23-1,.46-2,.69-3.05,0-.08.11-.13.23-.28a2.32,2.32,0,0,1,.08.82c-.1.43-.28.84-.38,1.28a6,6,0,0,1-.26,1.39,7.21,7.21,0,0,0-.72,3.08,6.2,6.2,0,0,1-.23.69.68.68,0,0,0,.18.33c.08-.08.23-.15.26-.25.1-.83.18-1.65.3-2.47a.85.85,0,0,1,.31-.51c.49-.36.36-.9.49-1.36.26-1,.44-1.9.64-2.85h.21a8.319,8.319,0,0,1-.11,1.13c-.2.89-.41,1.82-.64,2.72a1.9,1.9,0,0,1-.25.64,1.09,1.09,0,0,0-.21,1.2.44.44,0,0,1-.15.41c-.29.21-.21.34,0,.49s.31.23,0,.49-.23.56-.34.87c0,0,.21.18.26.15a3.282,3.282,0,0,0,.33-.3c.34.51-.17.77-.35,1.07-.44.83-1,1.6-1.47,2.39a.235.235,0,0,0-.18.08,2,2,0,0,0-.1-.21,3.17,3.17,0,0,1,.26-.69c.2-.33.51-.62.74-.95a3.109,3.109,0,0,0,.16-.46h-.11c-.3.39-.61.8-.95,1.18l-.15-.07a5.2,5.2,0,0,1,.05-.88h0l.33-.18A2.29,2.29,0,0,0,44.93,63h0a1.74,1.74,0,0,0-.41-.36c-.59-.23-1.23-.41-1.82-.64a1.3,1.3,0,0,1-.15-.1v-.13l.49.08,2.18.46.92.44c.34-.85.65-1.59.93-2.34h.13q-.109-.2-.2-.41c-.16.41-.29.77-.42,1.15a7.763,7.763,0,0,0-.79-.1c-.41.51-.41.51-.13.79.08-.13.1-.28.21-.33a.79.79,0,0,1,.41,0,.46.46,0,0,1,0,.31c-.29.28-.46.75-1,.51a5.849,5.849,0,0,1-.75-.38c-.15-.1-.51-.13-.25-.46a2.92,2.92,0,0,0-.7-.44c-.51-.18-1-.31-1.59-.46s-.25-.51-.25-.9c-.26.31-.47.54-.7.8a8.17,8.17,0,0,0-.54-.85c-.12.1-.23.21-.33.31s0-.05,0-.08c.13-.49-.26-.59-.54-.77s-.49-.28-.41-.72l.69.34c-.13-.49.75-.49.39-1a3.957,3.957,0,0,1,.1-1.08C39.78,56.94,39.42,57.28,40,57.76Zm0-4.28h-.15c-.06.36-.11.69-.16,1.05l.64-.38v-.11a4.1,4.1,0,0,0-.4-.56Zm1,4.8c-.26.48-.46.82-.64,1.18a1.67,1.67,0,0,0,.2.13,5.49,5.49,0,0,0,.59-.8c-.01-.1-.15-.28-.22-.51Zm1-7.37a7.56,7.56,0,0,0-.48.64.7.7,0,0,0-.11.41c0,.06.18.13.23.13a.641.641,0,0,0,.29-.28A3.905,3.905,0,0,0,42,50.91Zm-1.36,4.72a.77.77,0,0,1,.26,0A4.379,4.379,0,0,0,41,55s-.23-.07-.36-.12c.01.27.01.5.03.75Zm3,5h.1a5.22,5.22,0,0,0-.38-.54s-.31,0-.36.16a1.42,1.42,0,0,0,0,.46h.11a1.559,1.559,0,0,1,.2-.46c.13.16.24.28.34.41Zm-1.51-.41a7.158,7.158,0,0,1,.1-.84c-.43.28-.43.41-.09.87Z" fill="#363f66"/>
    <path id="Trazado_23245" data-name="Trazado 23245" d="M3.24,63l-.41-.21c.1.51-.23.59-.57.72a3,3,0,0,0-.9.51.65.65,0,0,0,.21,1.08c.56.21,1.08.64,1.77.39.13.35.28.64.77.61.13,0,.28.28.46.46l.13-.28c1.1.21,2.21.41,3.31.64.08,0,.21.34.15.36-.41.49-.05.9,0,1.46.08-.59.18-1,.21-1.51s.12-.49.48-.28a1,1,0,0,0,.67,0c.56-.13.82,0,.82.61v1.06a1.65,1.65,0,0,1-.1.48.18.18,0,0,0-.13,0,1.84,1.84,0,0,1-.15-.36,1.74,1.74,0,0,0-.16-.41,4.491,4.491,0,0,1-.1.64.65.65,0,0,1-.18,0c-.13-.28-.26-.54-.41-.92A8.79,8.79,0,0,1,9,69a1,1,0,0,1-.18.31,4.239,4.239,0,0,1-.62-.29,1.983,1.983,0,0,1-.23.21,1.05,1.05,0,0,1-.2-.26c-.21.08-.39.26-.52.21s-.18-.29-.25-.44a3,3,0,0,1-.16-.46c0,.1-.1.13-.1.18.08.87.08.87-.8.74H5.2c-.08-.25-.21-.66-.33-1.08a.15.15,0,0,0-.11,0,9.556,9.556,0,0,0,.11,1H4.74a3.661,3.661,0,0,1-.26-.44c0,.16,0,.23,0,.31a1.48,1.48,0,0,1-.24.26c-.07-.08-.18-.16-.2-.23-.21-.7-.41-1.42-.62-2.11a.72.72,0,0,0-.2-.36c0,.87.49,1.67.56,2.54l-.28.08c-.23-.64-.46-1.31-.69-2H2.68c.1.41.2.79.31,1.2l.23,1.08a2,2,0,0,0,0,.28c.26.67.49,1.34.74,2s.47,1,.67,1.59c.13.36.15.77.26,1.16h0A5.88,5.88,0,0,1,5.29,77a3.82,3.82,0,0,0,.13.66c.41-.18.59,0,.64.36.05.54.13,1.08.15,1.62a6.87,6.87,0,0,1-.1.74H5.93l-.23-1.5H5.62v.74c.11.75.24,1.49.34,2.24,0,.33.07.66-.34.84-.92-.56-.71-1.48-.71-2.33a6.32,6.32,0,0,0-.06-.75,5.282,5.282,0,0,0-.15-.87c-.08-.61-.15-1.26-.23-1.87a1.47,1.47,0,0,1,0-.33,9.13,9.13,0,0,0-1-4.26,10.17,10.17,0,0,1-1-3.11,3,3,0,0,0-.39-1c-.25-.59-.51-1.18-.82-1.75-.1-.18-.36-.28-.51-.38A3.1,3.1,0,0,1,.24,65,3.78,3.78,0,0,1,0,64.05c0-.41.31-.54.6-.77A8.64,8.64,0,0,1,3.42,62.2c.36-.13.74-.18,1.1-.33a6,6,0,0,1,2-.44,1.34,1.34,0,0,0,.59-.13A4.44,4.44,0,0,1,9.32,61c1.82,0,3.64-.08,5.46,0a13.33,13.33,0,0,1,2.44.59,5.85,5.85,0,0,1,1,.25c.18.08.28.29.44.41a3.09,3.09,0,0,1-.49.47.67.67,0,0,1-.54-.08c-.23-.23-.41-.41-.69-.08a.652.652,0,0,1-.26-.05l-1.33-.64h-.08c-.61.36-1.18,0-1.77-.07a3.558,3.558,0,0,0-.49.1c-.56.1-1.13.28-1.61-.18a.27.27,0,0,0-.23,0,21.94,21.94,0,0,1-3.7.41c-.92.16-1.87.26-2.8.41a6,6,0,0,0-1.1.31C3.39,62.69,3.31,62.84,3.24,63Z" fill="#363f66"/>
    <path id="Trazado_23246" data-name="Trazado 23246" d="M36.47,51.45c0-.2.05-.43.07-.69-.25-.16-.72-.16-.72-.75,0-.18-.28-.35-.41-.53L35,48.81h.57c-.06-.33-.13-.74-.18-1.15a1.37,1.37,0,0,1,.25,0,2.84,2.84,0,0,1,.16.72c0,.28,0,.43.23.56v.13c0,.08-.18.15-.25.23.13.21.36.36.36.54,0,.54.43.54.71.59.06-.31.11-.57.16-.92.36.28.59.48.85.69l.07-.08a6.06,6.06,0,0,1-.38-.59l.28-.15a3.4,3.4,0,0,1,.26.41l.15.41a.69.69,0,0,0,.18-1.2l-.08.41c-.31-.18-.59-.3-.93-.48.11-.44.39-.75,1.08-.67-.46-.33-.66-.9-1.25-.59.1,1.44-.11,1.82-1,1.85-.18-.57.41-.54.54-.7-.1-.25-.23-.38-.23-.53a1.57,1.57,0,0,1,.18-.57l-.08-.08-.54.47c-.33-.49-.67-1-1-1.52-.06.21-.06.46-.13.52-.39.17-.36.46-.23.76a5.58,5.58,0,0,1,.2.88c-.49,0-1.1-1.13-.85-1.52.13-.2.34-.38.47-.61a5,5,0,0,0,.3-.9l.65.13c-.16-.28-.29-.54-.41-.8-.18.18-.39.36-.59.54a5.579,5.579,0,0,1-.08.57h-.26v-.9c-.41.07-.56.38-.38.84a9.52,9.52,0,0,1,.18,1c-.52-.12-.52-.12-1-1.56-.08.38-.15.69-.2,1a.31.31,0,0,0,.12.2A1.75,1.75,0,0,1,33.64,48c0,.16.21.29.31.41a3.563,3.563,0,0,1,1.1,1.8A2.11,2.11,0,0,1,33.9,49a2.88,2.88,0,0,0-.39-.46,1.17,1.17,0,0,1-.17-.26c-.16-.31-.13-.72-.54-.9a.329.329,0,0,0-.11-.25c-.11-.07-.23-.36-.41-.41-.56-.21-.66-.57-.18-1.06.08.21.18.39.29.65a.85.85,0,0,0-.18-1,1.25,1.25,0,0,1,0-1.51c.1-.11.12-.26.23-.39a10.2,10.2,0,0,1,.72-1,.73.73,0,0,1,.46.08c.07.38.1.77.15,1.15.31,0,.31-.18.21-.51a12.679,12.679,0,0,1-.29-1.39.28.28,0,0,1,.13-.25c.44-.16.85-.57,1.39-.34.38.16,1,.23,1.1.49.39.82,1.46,1,1.69,1.9a1.07,1.07,0,0,0,.39.43c.72.7.69,1.62,1,2.49a6.74,6.74,0,0,1,0,3,4,4,0,0,1-.67,1.26,1.1,1.1,0,0,1-.2.28l-.52.39c-.1-.21-.17-.41-.3-.65l-.29.18c.08.31.13.62.24,1a6.36,6.36,0,0,1-1.18-.54Zm0-5.23h.2a11.41,11.41,0,0,0,.15-1.31c0-.54-.1-1.05-.15-1.72a6.77,6.77,0,0,0-.62.39c0,.05,0,.2,0,.33.13,0,.24-.05.42-.07,0,.64-.52,1-.8,1.46C36,45.58,36.62,45.52,36.47,46.22Zm-1-3.72c-.28-.18-.56-.36-.85-.57a.14.14,0,0,1-.1,0c.23.52.46,1,.72,1.57h.18v-.54c-.52-.21-.11-.28.07-.46Zm3.13,4.72h-.74c.2.31.41.57.59.82h.13a6.356,6.356,0,0,0,.04-.82Z" fill="#363f66"/>
    <path id="Trazado_23247" data-name="Trazado 23247" d="M20.22,65.1a1.06,1.06,0,0,0-.95.13c-.51.26-1.07.41-1.61.72a3.209,3.209,0,0,0,.69,0c.26,0,.49,0,.44.31-.11.51-.29,1-.44,1.54h-.13v-1h-.1l-.15.69a4.19,4.19,0,0,0-.13.69h-.13V67.13a.21.21,0,0,1-.13,0c-.1.34-.2.67-.33,1.05a1.75,1.75,0,0,1,.46-2.07c-.26-.11-.49-.26-.62-.21s-.56.33-.61.57a17.5,17.5,0,0,0-.18,2.07v.75c0,.1-.13.18-.2.25s-.21-.17-.21-.23c.1-1-.2-1.92.36-2.82.05-.08,0-.31-.1-.33a3.611,3.611,0,0,0-.57,0,4.857,4.857,0,0,0-1,.07c-.34.07-.61.06-.64-.46-.31.7-.9.57-1.44.54-.17,0-.35-.15-.59-.25a1.17,1.17,0,0,1-1.33.12.88.88,0,0,0-.23,0c-.46,0-1,.08-1.41.08-.75,0-1.49-.1-2.23-.13-.39,0-.7-.1-.77-.46-.18.08-.36.21-.49.18a17.69,17.69,0,0,1-1.9-.64,8.17,8.17,0,0,1-1.23-.59c-.31-.18-.13-.41,0-.57l.87-.82s.13.16.26.29l.33-.21c.05.36.13.67.16,1s-.11.49.28.44.46-.2.46-.54a5.4,5.4,0,0,1,.08-.69H5a3.033,3.033,0,0,0,.13.72H5.2a9.47,9.47,0,0,1,.16-1.29h.2c.05.52.1,1,.18,1.62.28-.64-.13-1.28.28-1.74h.16c0,.56.05,1.1.1,1.66h.1a2.216,2.216,0,0,1,.08-.74c.08-.21.41-.18.72-.31l.15,1.08h.1V63.44c.08-.25.1-.59.28-.77s.72.46.75.72a7.41,7.41,0,0,0,.07,1c.34-.61-.07-1.33.23-1.95h.23c.06.62.11,1.21.16,1.82h.23c0-.28.08-.59.08-.87v-.87H9.7c.06.92.11,1.87.16,2.8H10V62.69h.23c.08,1,.18,2,.25,2.92h.13V62.89h.21c.08.88.13,1.75.2,2.62h.16V63.82a.46.46,0,0,0,.2,0l.16,1.47h.1c.05-.7.1-1.36.15-2.06H12c0,.75.1,1.49.15,2.26h.13c.26-.85-.15-1.77.15-2.59h.21v1.74h.2c.08-.39.18-.8.29-1.26a6,6,0,0,0,.43.46c.11-.3.18-.53.28-.87.39.41.13.77.13,1-.23.1-.46.13-.54.23s.06.28.08.44c.18-.06.36-.13.57-.18v.43h.13V63.07c.41.16.38.16.35.7v.87a.36.36,0,0,1,.18,0c.08-.52.13-1,.21-1.57h.2c.08.67.13,1.31.21,2h.21c0-.39.05-.8.07-1.18a1.79,1.79,0,0,1,0-.39,1,1,0,0,1,.18-.33,2.43,2.43,0,0,1,.2.28,1,1,0,0,1,0,.41l.48-.69a.72.72,0,0,1-.18,1c-.12.1-.17.28-.28.41a3.54,3.54,0,0,0,.67.15c.18,0,.33-.18.49-.25l.23-.62c.13.1.23.21.31.26l.25-.39c.13.21.29.41.41.62.05-.18.13-.44.18-.67h.13c.1.24.18.49.33.85a1.012,1.012,0,0,1,.06-.49c.06-.11.18-.23.23-.2.25.1.48.26.74.36s.23.46.21.72A.5.5,0,0,1,20.22,65.1Zm-10.8-.2H9.27c-.28.33-.08.61.15,1Z" fill="#363f66"/>
    <path id="Trazado_23248" data-name="Trazado 23248" d="M42.6,83.45l-.31-.11c.13-.56-.46-1.2.21-1.74h-.59l.48-.57a1.2,1.2,0,0,1-.43-.13,2,2,0,0,1,.25-.43,2.79,2.79,0,0,1,.72-.57,2.745,2.745,0,0,1-.15.64,1.44,1.44,0,0,1,.41-.12,1.78,1.78,0,0,1,.49.1c-.08.13-.13.33-.26.41-.28.15-.64.23-.62.67l2.67-1.7a1.41,1.41,0,0,1,.31-.1.733.733,0,0,1,.1.2,1.16,1.16,0,0,1-.2.24c-.29.18-.59.33-.88.48l.08.23a1.53,1.53,0,0,0,.62-.1,11.7,11.7,0,0,0,1.1-.79c.18-.13.31-.34.51-.44a1,1,0,0,1,.47,0c-.06.12-.06.3-.16.35s-.54.26-.79.42-.34.33,0,.51a.26.26,0,0,1,.12.26,1.11,1.11,0,0,1-1.15.53c.08-.15.13-.3.21-.48-.77,0-1.08.64-1.6.92-.07,0,0,.23-.05.44a2.43,2.43,0,0,1,1.44-.88c0,.52-.46.59-.77.85s-.85.67-1.26,1a.106.106,0,0,0,.08.1c.08.02.33-.2.56-.33.08.31.49.64-.23.62-.07,0-.15.12-.3.28h.43c.13.36-.38,1.15-.79,1.13-.62,0-1.21-.11-1.83-.16a6.074,6.074,0,0,1-.92-.15h0c.13-.23.13-.54.57-.49.15,0,.35-.23.53-.38.13.2.26.41.39.59a1.21,1.21,0,0,1,.18,0,1,1,0,0,1,.36-1.31c.43-.26.84-.54,1.41-.88l-.67-.33c.44-.36.85-.69,1.26-1l-.08-.15a3.8,3.8,0,0,0-.59.23,2.38,2.38,0,0,0-.56.43,5.46,5.46,0,0,0-.75.77,3.669,3.669,0,0,1,.13.47C42.75,83.14,42.62,83.29,42.6,83.45Zm.72.43a.72.72,0,0,0-.11-.15,2.831,2.831,0,0,0-.43.2c-.05.06,0,.21.07.47A3.24,3.24,0,0,0,43.32,83.88Z" fill="#363f66"/>
    <path id="Trazado_23249" data-name="Trazado 23249" d="M58,50c-.23.29-.38.13-.46-.15s-.18-.36-.15-.51a4.28,4.28,0,0,0-.41-2,1.73,1.73,0,0,1-.05-.38l.15-.08a9.451,9.451,0,0,1,.59.82,4.88,4.88,0,0,1,1,2.33c.07.93.38,1.85.53,2.78a21.221,21.221,0,0,1,.21,2.28.84.84,0,0,0,.1.36,1.9,1.9,0,0,1,.08,1.46h-.15c-.11-.52-.21-1-.29-1.54a.32.32,0,0,0-.13,0c.06.67.11,1.31.16,2-.64-.36-.77-2.57-.26-2.93-.13-.69-.25-1.38-.36-2.1h-.18c0,.41.05.82.05,1.25-.46-.12-.59-.36-.43-1a1.92,1.92,0,0,0-.1-1.57C57.81,50.89,58,50.43,58,50Z" fill="#363f66"/>
    <path id="Trazado_23250" data-name="Trazado 23250" d="M43,72.41l.11-.1h.25a2.26,2.26,0,0,1,.18-.39,1,1,0,0,1,.26.31,3.31,3.31,0,0,0,.28.67c0-.31.08-.62.1-.95.39.1.75.2,1.13.33.41-.51.77-.56,1.21.64.18-.23.41-.49.67-.84l-.42-.49L48,71.36a1.92,1.92,0,0,1-.21.41c-.08.23-.13.46-.2.7s.05.41.1.66a2.28,2.28,0,0,1-2.41.41,2.25,2.25,0,0,1-1.44.11,1.9,1.9,0,0,0-.39-.11c-.28,0-.35-.15-.33-.41a2.62,2.62,0,0,0-.12-.72Z" fill="#363f66"/>
    <path id="Trazado_23251" data-name="Trazado 23251" d="M45.7,57.76c-.1.11-.18.21-.28.31a.88.88,0,0,1-.15,0c.3-.74,0-1.51.36-2.31a12.4,12.4,0,0,0,.71-2.82c.08-.39-.1-.82.44-1.13a13.023,13.023,0,0,1-.1,1.44,8.86,8.86,0,0,1-.75,2.92,1.77,1.77,0,0,0,0,.82h.2c.31-1.29.65-2.54,1-3.83h.21a3.54,3.54,0,0,1,0,.72,5.08,5.08,0,0,1-.18.88c-.28,1.1-.54,2.18-.82,3.28a2.32,2.32,0,0,0-.15.23c-.11-.2-.16-.33-.24-.49a.878.878,0,0,1,.06-.59h-.23A4.563,4.563,0,0,1,45.7,57.76Z" fill="#363f66"/>
    <path id="Trazado_23252" data-name="Trazado 23252" d="M58.53,61.69a.91.91,0,0,1,.23-1.13c0,.36.05.64.05.95a.8.8,0,0,0,.21-1,1.76,1.76,0,0,1,0-1c.11-.54.29-1.08.44-1.62a2.82,2.82,0,0,1,.18-.61h.15v2.49c-.2-.18-.25-.23-.41-.36v.8c.13-.13.21-.18.29-.26.33.33-2.31,6.29-3.26,7.21,0-.28-.08-.54,0-.69.59-1,1.2-2.06,1.79-3.08a7.22,7.22,0,0,0,.54-1.34c0-.07-.15-.25-.23-.38Z" fill="#363f66"/>
    <path id="Trazado_23253" data-name="Trazado 23253" d="M56.84,46.68A6.43,6.43,0,0,1,55,44.19a3.81,3.81,0,0,0-.38-.72l-1.39-2.08a1.47,1.47,0,0,0-.31-.23c-.54-.43-1.23-.77-1.36-1.64h.41c.39.34.72.72,1.08,1.08a1.23,1.23,0,0,0,.28.23c.11.08.24.08.29.18a7.13,7.13,0,0,1,1.72,3c.07.39.48.72.71,1.11s.59.92.9,1.38A.22.22,0,0,1,56.84,46.68Z" fill="#363f66"/>
    <path id="Trazado_23254" data-name="Trazado 23254" d="M45.39,85.14c-.35.1-.69.21-1,.28a.29.29,0,0,1-.28-.13.469.469,0,0,1,.08-.3.653.653,0,0,1,.07-.08,1.1,1.1,0,0,0,.59-1.18c.13-.31.26-.62.41-.9l1.6-1.15a2.25,2.25,0,0,0,.41-.46s-.16-.18-.31-.36l.51-.29a4.67,4.67,0,0,0,.08.52.551.551,0,0,0,.08.33c.08.13.12,0,.18,0a5.61,5.61,0,0,1,0-.71,1.17,1.17,0,0,1,.12-.47.57.57,0,0,1,.26.06,2.819,2.819,0,0,1,0,.51c.38.36.38.38-.1.82-.28.26-.54.56-.82.85h0a5.141,5.141,0,0,0-.47-.23,2.13,2.13,0,0,1-.38.64,1.91,1.91,0,0,1-.69.2c-.21.62-.75,1.23-.64,2L45.5,85Z" fill="#363f66"/>
    <path id="Trazado_23255" data-name="Trazado 23255" d="M34.77,71.31c.13-.08.28-.15.52-.31.12.59.28,1.23.41,1.82.15-.3.33-.69.51-1,.51.31.49,1.62,0,1.8a1.72,1.72,0,0,1-.51,0c-.13.13-.28.41-.54.49s-.49-.11-.74-.18c-.39.15-.85.35-1.34.56a3.3,3.3,0,0,0,0-.46,3,3,0,0,0,.67-.31,6.809,6.809,0,0,0,.51-.59l.33.23c.08-.15.16-.28.23-.44l.41.08a1.11,1.11,0,0,0-.3-1.23.57.57,0,0,1-.16-.36Z" fill="#363f66"/>
    <path id="Trazado_23256" data-name="Trazado 23256" d="M52.91,71.49c.18-.41.39-.85.57-1.26h.13a3.292,3.292,0,0,1-.06.77c-.06.25-.12.62-.15.85-.15,0-.36-.1-.44,0a.77.77,0,0,1-1,0,3.33,3.33,0,0,1-.59.36,1.08,1.08,0,0,1-.51,0s-.08-.25,0-.28a1.621,1.621,0,0,1,.39-.15,2,2,0,0,1,.18-.69c.1-.18.36-.26.54-.39l-.08-.13-.67.31c.05-.23,0-.46.11-.49A4.21,4.21,0,0,0,53,69h.16a.87.87,0,0,1-.49,1c-.49.31-.41.93-.74,1.31v.23l1-.54a3,3,0,0,0,0,.49Z" fill="#363f66"/>
    <path id="Trazado_23257" data-name="Trazado 23257" d="M50.58,40c-.21-.08-.46-.08-.57-.23-.54-.62-1.46-.59-2-1.31a3,3,0,0,0-2.29-.93c-.25,0-.56,0-.51-.38s.33-.34.59-.28.44.12.67.18l1.18.38a2,2,0,0,1,.56.28c.67.54,1.31,1.11,1.95,1.67a5.661,5.661,0,0,1,.49.49.38.38,0,0,0-.07.13Z" fill="#363f66"/>
    <path id="Trazado_23258" data-name="Trazado 23258" d="M45.6,49.35a2.92,2.92,0,0,1-.18.46c-.05.13-.15.28-.13.41.28,1.26-.36,2.44-.33,3.67a3.85,3.85,0,0,1-.23.92H44.6c-.13.41-.23.84-.36,1.25a1.211,1.211,0,0,1-.18,0,2.06,2.06,0,0,1,.13-1.36,9.88,9.88,0,0,0,.72-3.77,6.84,6.84,0,0,0-.34-1.44,4.66,4.66,0,0,1,0-.53l.85.51A.65.65,0,0,1,45.6,49.35Z" fill="#363f66"/>
    <path id="Trazado_23259" data-name="Trazado 23259" d="M14.48,67.51c.12-.23.23-.38.38-.66a1.82,1.82,0,0,1,.13.48c0,.65,0,1.26,0,1.9,0,.11-.1.21-.15.34-.08-.11-.21-.18-.23-.31a2.27,2.27,0,0,1,0-.64,1.21,1.21,0,0,0-.41.13c-.06-.34-.13-.67-.18-1h-.13c0,.51-.11,1-.16,1.57h-.2V68h-.21a8,8,0,0,1-.13,1.13,3.05,3.05,0,0,1-.05-2.28,6.35,6.35,0,0,1,.16.74h.07a4.122,4.122,0,0,1,.13-.74l.46.56a2.88,2.88,0,0,0,.18-.49h.11A1.517,1.517,0,0,1,14.48,67.51Z" fill="#363f66"/>
    <path id="Trazado_23260" data-name="Trazado 23260" d="M40.72,73.8c-.07.36-.15.64-.23.92-.36,0-.46-.48-.33-.59.28-.23,0-1.13.8-.69a5.052,5.052,0,0,0,.2,1c.26.2.57.43.87.69a.24.24,0,0,1,0,.13,3.21,3.21,0,0,1-.53.79c-.08.08-.41-.07-.57-.18-.33-.23-.61-.3-.87,0-.23-.05-.44-.12-.72-.18a2.81,2.81,0,0,1,.49-.66c.13-.11.46,0,.64,0s.41,0,.38-.23A5.78,5.78,0,0,0,40.72,73.8Z" fill="#363f66"/>
    <path id="Trazado_23261" data-name="Trazado 23261" d="M55.94,64.23c.85-1,.87-2.36,1.72-3.39,0,0,.15.13.13.21-.16.43-.36.84-.52,1.25a5.43,5.43,0,0,0-.64,2.11,3.61,3.61,0,0,0-.64.74.94.94,0,0,0,0,.64A.92.92,0,0,1,55.5,67h-.25c-.07,0,0-.23.07-.26.52-.25.54-.56.21-1a.26.26,0,0,1,0-.23c.06-.77.11-1.54.16-2.33a.45.45,0,0,1,.18-.36c0-.05.28,0,.31.12a.77.77,0,0,1,0,.42c-.1.28-.23.56-.33.84C55.81,64.18,55.89,64.2,55.94,64.23Z" fill="#363f66"/>
    <path id="Trazado_23262" data-name="Trazado 23262" d="M52.71,76.42l-.77.69c.18.38.36.77.56,1.23.08-.23.16-.36.21-.51.46.15.48.23.15.72.51.3.51.61,0,1s-.88.64-1.31,1a1.625,1.625,0,0,1,1.33-1.28c-.25-.31-.56-.49-.87-.23s-.56.15-.95-.08l1.18-.28v-.23l-.9-.31c.13-.23.23-.49.36-.72a.178.178,0,0,1-.13-.08,4,4,0,0,1-.64.21.44.44,0,0,0-.1-.15l1.62-1.06A1,1,0,0,1,52.71,76.42Z" fill="#363f66"/>
    <path id="Trazado_23263" data-name="Trazado 23263" d="M38.88,70.26a5,5,0,0,1-1,.59c-.69.18-.56.69-.49,1.13s-.15.67-.51,1c-.1-.36-.2-.74-.28-1l.54-.49a1.381,1.381,0,0,0-.13-.18l-.44-.15c.11-.13.16-.23.23-.31-.38-.49-.38-.57.06-.82.41.49.69.54,1.12.36s.39-.72.57-1.13l.56.2c-.1.21-.15.36-.23.54l.11.08c.1-.13.23-.26.33-.39l.13.06c-.18.43-.34.87-.52,1.3a1.673,1.673,0,0,1-.18,0,1.35,1.35,0,0,1,0-.33A1.11,1.11,0,0,0,38.88,70.26Z" fill="#363f66"/>
    <path id="Trazado_23264" data-name="Trazado 23264" d="M50.58,53.12a2.47,2.47,0,0,1,.05.54c-.1.74-.23,1.49-.39,2.2-.07.42-.3.8-.36,1.21-.17,1.26-.3,2.54-.46,3.8a.59.59,0,0,1-.13.28h-.15a7.027,7.027,0,0,1,.13-1,7.065,7.065,0,0,1,.15-1.77c.11-.79.29-1.59.44-2.38l.46-2.49.08-.31A.22.22,0,0,1,50.58,53.12Z" fill="#363f66"/>
    <path id="Trazado_23265" data-name="Trazado 23265" d="M47.6,72.52c.08-.23.13-.46.21-.7a3.4,3.4,0,0,1,.46-.07,1.82,1.82,0,0,1,.61.07h0c-.15.11-.3.18-.48.29l.07.15.9-.13c0,.05.08.08.1.13a5.17,5.17,0,0,1-.64.28c.05.08.13.16.18.23.26-.1.52-.23.75-.33a1.49,1.49,0,0,1-1.83,1C48.19,73,47.86,72.75,47.6,72.52Z" fill="#363f66"/>
    <path id="Trazado_23266" data-name="Trazado 23266" d="M46.5,59.87a1.66,1.66,0,0,1-.21-.64A11.769,11.769,0,0,1,46.73,58c.26-.9.44-1.8.67-2.69a4.08,4.08,0,0,1,.28-.77c.2.43.36.64.13,1.12a10.2,10.2,0,0,0-.52,2.37h0c-.25.64-.54,1.23-.79,1.82Z" fill="#363f66"/>
    <path id="Trazado_23267" data-name="Trazado 23267" d="M11.17,69.05a3.27,3.27,0,0,0-.39.29c0-.16-.15-.29-.18-.44V67.46a5.789,5.789,0,0,1,.13-.61c.21.3.33.48.46.64h.1v-.57c.16.13.29.18.29.23.05.67.07,1.34.07,2,0,.08-.1.16-.15.24a2.86,2.86,0,0,0-.33-.34Z" fill="#363f66"/>
    <path id="Trazado_23268" data-name="Trazado 23268" d="M49.37,63.9c.16.84-1.13,2.69-2.08,3a3.75,3.75,0,0,1-.1-1.18c0-.26.33-.44.51-.67.18.18.36.33.62.56.15-.25.31-.53.46-.82A8.509,8.509,0,0,1,49.37,63.9Zm-1.54,1.69c-.43.36-.43.46,0,.74Z" fill="#363f66"/>
    <path id="Trazado_23269" data-name="Trazado 23269" d="M43.44,51a4.938,4.938,0,0,1-.53-.1c.07-.59.18-1.16.23-1.75a2.89,2.89,0,0,0-.18-.82c-.16-.61-.08-.95.33-1.15v-.59c.57.49,0,.95.05,1.41a14,14,0,0,1,.23,1.49A8.8,8.8,0,0,1,43.44,51Z" fill="#363f66"/>
    <path id="Trazado_23270" data-name="Trazado 23270" d="M31.85,73.9l-.49.16L31.62,73h-.08c-.02,0-.13.18-.23.23a2.33,2.33,0,0,1-.44.1,1.88,1.88,0,0,1,0-.41c.07-.36.2-.74.3-1.13h.41c.06-.23.08-.43.13-.66h.11a2.07,2.07,0,0,1,.1.33V73c0,.16.08.31.05.44a.7.7,0,0,1-.1.46Z" fill="#363f66"/>
    <path id="Trazado_23271" data-name="Trazado 23271" d="M54.55,57.76a3.39,3.39,0,0,1-.15,1.16,12,12,0,0,0-1,3.49,4.19,4.19,0,0,1-.31.79h-.15a2.57,2.57,0,0,1,0-.62c.25-1,.49-2.05.82-3.05a5.9,5.9,0,0,0,.51-1.64.42.42,0,0,1,.08-.18A.27.27,0,0,1,54.55,57.76Z" fill="#363f66"/>
    <path id="Trazado_23272" data-name="Trazado 23272" d="M32,46.76c.1.18.18.36.28.51.44.74.88,1.51,1.34,2.23.18.28.48.44.69.72.08.1,0,.31.08.49-.18-.05-.41-.05-.49-.18-.62-.87-1.18-1.77-1.77-2.65C31.92,47.58,31.62,47.35,32,46.76Z" fill="#363f66"/>
    <path id="Trazado_23273" data-name="Trazado 23273" d="M49.94,64.33A6.87,6.87,0,0,1,50.83,63c.57-.51.54-1.23.75-1.84A10.71,10.71,0,0,0,51.81,60c0-.08.08-.13.18-.26.13.31.23.54.28.67a4.91,4.91,0,0,0-.44,1.08c-.07,1-.82,1.72-1.23,2.56-.1.18-.33.31-.48.47a.44.44,0,0,0-.18-.19Z" fill="#363f66"/>
    <path id="Trazado_23274" data-name="Trazado 23274" d="M52.4,85.94c-.15.15-.28.33-.44.46a2.13,2.13,0,0,1-.46.2l-.08-.46-.66.1,1.15-1.38h0a2.72,2.72,0,0,0,.44-.18l.38-.23c.08.15.13.28.16.33a11.989,11.989,0,0,1-1,.87,3.409,3.409,0,0,0,.36.21.27.27,0,0,1,.15.08Z" fill="#363f66"/>
    <path id="Trazado_23275" data-name="Trazado 23275" d="M51.71,56.07a1.945,1.945,0,0,1-.05.56c-.24,1.62-.44,3.21-.75,4.8C50.58,60.92,51.24,56.4,51.71,56.07Z" fill="#363f66"/>
    <path id="Trazado_23276" data-name="Trazado 23276" d="M44.57,79.73l2-1.39.11.1a3.635,3.635,0,0,1-.13.72.88.88,0,0,0,.15,0l1.16-.77.13.18-1.57,1.29c-.1-.31-.18-.57-.26-.8-.48.23-1,.49-1.46.72C44.65,79.8,44.62,79.75,44.57,79.73Z" fill="#363f66"/>
    <path id="Trazado_23277" data-name="Trazado 23277" d="M56.74,59.28l-.26.61.46-.13a5.47,5.47,0,0,1,.08.9,2.09,2.09,0,0,1-.31,1.18c-.21-.41-.38-.72-.56-1.05a1,1,0,0,1,.59-1.51Z" fill="#363f66"/>
    <path id="Trazado_23278" data-name="Trazado 23278" d="M56.71,59.28c-.36-.36-.31-.82-.41-1.29-.21-.89.26-1.71,0-2.59l.17-.07a1.09,1.09,0,0,1,.21.48c0,.44-.08.88-.05,1.29a3.08,3.08,0,0,0,.49,2.18,3.171,3.171,0,0,1-.44,0Z" fill="#363f66"/>
    <path id="Trazado_23279" data-name="Trazado 23279" d="M54.4,63.23c.18-.62.33-1.23.51-1.87.23.12.44.23.67.33a1.929,1.929,0,0,1,.13-.31A3.22,3.22,0,0,1,56,61.1a.89.89,0,0,1,.05.38,2.6,2.6,0,0,1-.23.62c-.07.13-.23.31-.3.28-.67-.15-.75.34-.9.77a.18.18,0,0,1-.11.1Z" fill="#363f66"/>
    <path id="Trazado_23280" data-name="Trazado 23280" d="M49.55,80.86a5.943,5.943,0,0,0-.18-1.11c-.08-.39-.2-.74-.28-1.13a.68.68,0,0,1,.18-.33,1.62,1.62,0,0,1,.2.28,1.59,1.59,0,0,1,.18.34.41.41,0,0,1,.13.25A12.621,12.621,0,0,1,50,80.65a.7.7,0,0,1-.31.51.75.75,0,0,1-.64,0A4,4,0,0,1,49.55,80.86Z" fill="#363f66"/>
    <path id="Trazado_23281" data-name="Trazado 23281" d="M52,50.89a10.85,10.85,0,0,1-.2,5,.75.75,0,0,1-.21,0c.11-.82.28-1.62.34-2.44a23.647,23.647,0,0,0-.11-2.51A.54.54,0,0,0,52,50.89Z" fill="#363f66"/>
    <path id="Trazado_23282" data-name="Trazado 23282" d="M49.94,61.28c.1-1.16.23-2.31.33-3.44a.44.44,0,0,1,.2,0c0,1,0,2.05,0,3.1,0,.15-.23.28-.36.41a.44.44,0,0,0-.17-.07Z" fill="#363f66"/>
    <path id="Trazado_23283" data-name="Trazado 23283" d="M54.45,84.29c-.36.34-.59.59-.87.83a.76.76,0,0,1-.41,0,.448.448,0,0,1,.15-.41,3.24,3.24,0,0,1,.8-.59c.13-.08.38-.16.43-.11.26.34.52.16.8.08a1,1,0,0,1,.38,0,1.65,1.65,0,0,1-.28.36,4.47,4.47,0,0,1-.61.33,3.139,3.139,0,0,0-.31.18.634.634,0,0,0-.05-.3,3.06,3.06,0,0,0-.03-.37Z" fill="#363f66"/>
    <path id="Trazado_23284" data-name="Trazado 23284" d="M56.17,66.92c0,.39.13.8-.44,1-.2.08-.33.41-.48.62s0,.25-.13.35-.21.21-.26.18-.23-.18-.2-.28a2.91,2.91,0,0,1,.18-.67A.44.44,0,0,1,55,68l1-1.15Z" fill="#363f66"/>
    <path id="Trazado_23285" data-name="Trazado 23285" d="M35.44,65.77l1.46,1.15c-.13.18-.23.29-.33.41-.18-.07-.34-.2-.46-.2-.44.05-.39-.16-.21-.51l-.46.41A1.1,1.1,0,0,1,35.44,65.77Z" fill="#363f66"/>
    <path id="Trazado_23286" data-name="Trazado 23286" d="M53.78,68.8a1,1,0,0,0-1.51.59c-.08.15-.28.23-.41.33l-.13-.1c.08-.23.1-.49.26-.64a10.688,10.688,0,0,1,1.08-.83c.15-.1.43-.17.48-.12a3.09,3.09,0,0,1,.39.69Z" fill="#363f66"/>
    <path id="Trazado_23287" data-name="Trazado 23287" d="M47.32,52.76V51.3a9.305,9.305,0,0,1,.08-1.49c.08-.49-.47-.92-.18-1.44a8.84,8.84,0,0,1,.3,4.42.51.51,0,0,0-.2-.03Z" fill="#363f66"/>
    <path id="Trazado_23288" data-name="Trazado 23288" d="M54,83.91c-.08-.44,2.36-2.59,3-2.69Z" fill="#363f66"/>
    <path id="Trazado_23289" data-name="Trazado 23289" d="M36.39,58.25c-1.13.08-1.46-.92-2.23-1.31.15,0,.38-.18.43-.1C35.16,57.28,36,57.4,36.39,58.25Z" fill="#363f66"/>
    <path id="Trazado_23290" data-name="Trazado 23290" d="M55.12,83.4c.67-.59,1.15-1.44,2.1-1.67a1.17,1.17,0,0,1,.59,0,1.07,1.07,0,0,1-.23.2A4.4,4.4,0,0,0,56,83.06a2,2,0,0,1-.79.44A.3.3,0,0,1,55.12,83.4Z" fill="#363f66"/>
    <path id="Trazado_23291" data-name="Trazado 23291" d="M52.55,81.86a2.389,2.389,0,0,0,.39-.26c.49.41.49.41,1.36-.18,0,.56-.34.85-1.49,1.41C52.73,82.55,52.66,82.24,52.55,81.86Z" fill="#363f66"/>
    <path id="Trazado_23292" data-name="Trazado 23292" d="M38,66.38a2.081,2.081,0,0,0,.2.21c-.07.28-.12.56-.2.87h-.15c-.13-.75-.24-.85-.88-.8.08-.38.13-.74.21-1.1h.18a1.956,1.956,0,0,0,.15.49l.08-.08Z" fill="#363f66"/>
    <path id="Trazado_23293" data-name="Trazado 23293" d="M55.12,52.09c.38.36.28,2.88-.23,3.54C55,54.48,55,53.3,55.12,52.09Z" fill="#363f66"/>
    <path id="Trazado_23294" data-name="Trazado 23294" d="M48.7,85.73a.27.27,0,0,0-.15,0c-.67.18-.72.15-.56-.52h0a.825.825,0,0,0,.59-.15c.41-.33.77-.74,1.15-1.1a2,2,0,0,1,.21.1c-.06.13-.08.31-.18.41a7.25,7.25,0,0,0-.72.62,2.8,2.8,0,0,0-.34.61Z" fill="#363f66"/>
    <path id="Trazado_23295" data-name="Trazado 23295" d="M57.43,59.48a1.63,1.63,0,0,1,0-1.38c.11.15.18.23.26.33a.65.65,0,0,1,.18,0c-.05-.31-.1-.64-.18-1,.18.13.33.2.46.31a.66.66,0,0,1-.13,1,4.68,4.68,0,0,0-.59.74Z" fill="#363f66"/>
    <path id="Trazado_23296" data-name="Trazado 23296" d="M36.47,51.45c.23.51.07.64-.7.64v-.33c.08-.33.16-.62-.36-.64-.17,0-.33-.23-.51-.39l.46-.33c.34.36.7.72,1.06,1.05Z" fill="#363f66"/>
    <path id="Trazado_23297" data-name="Trazado 23297" d="M6.29,80.6a10.06,10.06,0,0,1,.21,3,9.67,9.67,0,0,1-.47-3,1.229,1.229,0,0,0,.26,0Z" fill="#363f66"/>
    <path id="Trazado_23298" data-name="Trazado 23298" d="M52.53,56.17c-.18,1.11-.36,2.21-.54,3.34C51.58,59.07,52.07,56.61,52.53,56.17Z" fill="#363f66"/>
    <path id="Trazado_23299" data-name="Trazado 23299" d="M32.15,48.94c.44.56.85,1.13,1.26,1.69a.63.63,0,0,1,0,.54A6.71,6.71,0,0,1,32,49,.37.37,0,0,1,32.15,48.94Z" fill="#363f66"/>
    <path id="Trazado_23300" data-name="Trazado 23300" d="M48,85.24c-.28.16-.56.34-.84.47-.06,0-.24,0-.26-.08a.39.39,0,0,1,.05-.31c.41-.28.85-.56,1.28-.82a.3.3,0,0,1,.26.08.32.32,0,0,1,0,.25c-.15.16-.33.29-.46.41Z" fill="#363f66"/>
    <path id="Trazado_23301" data-name="Trazado 23301" d="M54.61,60c-.34-.29-.23-.52,0-.8a2.71,2.71,0,0,0,.33-.74c.08-.23.13-.47.23-.7C55.4,58.84,55.17,59.71,54.61,60Z" fill="#363f66"/>
    <path id="Trazado_23302" data-name="Trazado 23302" d="M15.43,66.77a5,5,0,0,1,0,2.74A5.76,5.76,0,0,1,15.43,66.77Z" fill="#363f66"/>
    <path id="Trazado_23303" data-name="Trazado 23303" d="M12.73,66.82v2.59A2.82,2.82,0,0,1,12.73,66.82Z" fill="#363f66"/>
    <path id="Trazado_23304" data-name="Trazado 23304" d="M34.16,55.38c.71.13,1.64,1.1,1.51,1.69C35.11,56.51,34.36,56.2,34.16,55.38Z" fill="#363f66"/>
    <path id="Trazado_23305" data-name="Trazado 23305" d="M55.61,47.14a7.8,7.8,0,0,1,.56,3.18A10.06,10.06,0,0,1,55.61,47.14Z" fill="#363f66"/>
    <path id="Trazado_23306" data-name="Trazado 23306" d="M55.84,79.21a6.431,6.431,0,0,1,.87-.71,9.77,9.77,0,0,1,1.44-.65.821.821,0,0,1,.41.23c-1-.07-1.59.65-2.29,1.11a1.59,1.59,0,0,1-.3.18C55.91,79.34,55.89,79.27,55.84,79.21Z" fill="#363f66"/>
    <path id="Trazado_23307" data-name="Trazado 23307" d="M53.07,64.23c.18-.28.28-.49.41-.69a.93.93,0,0,1,.2.1,4.88,4.88,0,0,1-.33.69c-.26.41-.8.62-.72,1.23,0,0-.13.11-.21.18-.07-.15-.28-.38-.23-.43C52.53,64.92,52.55,64.28,53.07,64.23Z" fill="#363f66"/>
    <path id="Trazado_23308" data-name="Trazado 23308" d="M52.76,63.31a3.67,3.67,0,0,1-1.13,2A2.035,2.035,0,0,1,52.76,63.31Z" fill="#363f66"/>
    <path id="Trazado_23309" data-name="Trazado 23309" d="M54,56.4a5.16,5.16,0,0,1-.53,2.75A7.9,7.9,0,0,1,54,56.4Z" fill="#363f66"/>
    <path id="Trazado_23310" data-name="Trazado 23310" d="M45.39,85.14c0-.08.08-.13.11-.2a5.979,5.979,0,0,1,.56-.59c.1.33.16.71.62.48l.15.34c-.26.07-.51.2-.77.25S45.45,85.58,45.39,85.14Z" fill="#363f66"/>
    <path id="Trazado_23311" data-name="Trazado 23311" d="M51.07,52.09a4.38,4.38,0,0,1,0,3.11Z" fill="#363f66"/>
    <path id="Trazado_23312" data-name="Trazado 23312" d="M41.08,60.71c.85.23,1.57.41,2.26.62a.59.59,0,0,1,.21.23c-.08,0-.16.15-.21.15-.69-.23-1.38-.48-2.08-.74C41.21,60.94,41.19,60.87,41.08,60.71Z" fill="#363f66"/>
    <path id="Trazado_23313" data-name="Trazado 23313" d="M52.25,62.79c-.26-.54.1-1.82.69-1.95-.18.7-.36,1.34-.54,2a.27.27,0,0,1-.15-.05Z" fill="#363f66"/>
    <path id="Trazado_23314" data-name="Trazado 23314" d="M49.91,64.72s.1.07.08.1c-.18.41-.36.79-.57,1.18a1.71,1.71,0,0,1-.46.51.64.64,0,0,1-.31.11,1.809,1.809,0,0,1,0-.31c0-.08.08-.16.13-.21C49.12,65.64,49.5,65.18,49.91,64.72Z" fill="#363f66"/>
    <path id="Trazado_23315" data-name="Trazado 23315" d="M54.22,64.9c-.18.59-.67,1-1,.92.13-.44.24-.87.36-1.33C53.78,64.64,54,64.74,54.22,64.9Z" fill="#363f66"/>
    <path id="Trazado_23316" data-name="Trazado 23316" d="M53.5,53.84a4.2,4.2,0,0,1-.33,2.72h-.15C53.19,55.66,53.35,54.76,53.5,53.84Z" fill="#363f66"/>
    <path id="Trazado_23317" data-name="Trazado 23317" d="M48.17,51.89A4.66,4.66,0,0,1,48,54.45,6.51,6.51,0,0,1,48.17,51.89Z" fill="#363f66"/>
    <path id="Trazado_23318" data-name="Trazado 23318" d="M52.91,45.29c1,.44.93,1.39,1.29,2.13l-.2.08C53.66,46.78,53.27,46,52.91,45.29Z" fill="#363f66"/>
    <path id="Trazado_23319" data-name="Trazado 23319" d="M52.32,50.14a3.51,3.51,0,0,1,.41,3C52.6,52.07,52.45,51.09,52.32,50.14Z" fill="#363f66"/>
    <path id="Trazado_23320" data-name="Trazado 23320" d="M56.89,73.65,55,75a1.84,1.84,0,0,1,.08-.43,2.37,2.37,0,0,1,1.81-.92Z" fill="#363f66"/>
    <path id="Trazado_23321" data-name="Trazado 23321" d="M55.94,59.64a1.53,1.53,0,0,1,.18-1.9,1,1,0,0,1-.08,1,2.51,2.51,0,0,0-.1.9Z" fill="#363f66"/>
    <path id="Trazado_23322" data-name="Trazado 23322" d="M48.91,71.8c.15-.21.33-.39.49-.59a2.25,2.25,0,0,0,.38-.51q.15-.39.39-.24a2.55,2.55,0,0,1-.13.75,2.22,2.22,0,0,1-.64.49C49.27,71.8,49.06,71.77,48.91,71.8Z" fill="#363f66"/>
    <path id="Trazado_23323" data-name="Trazado 23323" d="M56.74,48.06c.1.83.23,1.65.35,2.54a3.88,3.88,0,0,1-.48-2.51.63.63,0,0,1,.13-.03Z" fill="#363f66"/>
    <path id="Trazado_23324" data-name="Trazado 23324" d="M48.09,67.05c-.13.18-.23.36-.36.51a3.18,3.18,0,0,1-.46.52c-.08.07-.18.07-.28.13-.06-.11-.16-.23-.13-.34A1.43,1.43,0,0,1,48.09,67.05Z" fill="#363f66"/>
    <path id="Trazado_23325" data-name="Trazado 23325" d="M50.42,74.47,48.5,75.62a3,3,0,0,1,1.82-1.31.47.47,0,0,1,.1.16Z" fill="#363f66"/>
    <path id="Trazado_23326" data-name="Trazado 23326" d="M50,76.26c-.1.29-.18.46-.23.64l-.08-.1c-.25.16-.51.28-.79.44a2,2,0,0,1-.34.13s-.12-.13-.1-.13a.77.77,0,0,1,.23-.28,4.641,4.641,0,0,1,.67-.52,1.43,1.43,0,0,1,.64-.18Z" fill="#363f66"/>
    <path id="Trazado_23327" data-name="Trazado 23327" d="M52.71,76.42c-.08,0-.13-.08-.21-.11s-.08-.23-.13-.35c-.2.12-.36.2-.51.3a.8.8,0,0,0-.13-.13l1-1,.18.08c-.08.25-.18.51-.28.79l.54.15A3.758,3.758,0,0,0,52.71,76.42Z" fill="#363f66"/>
    <path id="Trazado_23328" data-name="Trazado 23328" d="M41.67,54.45c-.1-.38-.23-.77-.36-1.18.26-.05.47-.07.75-.13C41.91,53.61,42.29,54.14,41.67,54.45Z" fill="#363f66"/>
    <path id="Trazado_23329" data-name="Trazado 23329" d="M47.19,82.45c.36.23.36.48,0,.74s-.59.39-1,.67c.1-.8.8-.93,1-1.41Z" fill="#363f66"/>
    <path id="Trazado_23330" data-name="Trazado 23330" d="M52.4,81.42,54,79.93h.28c-.49.41-.9.77-1.34,1.11a1.28,1.28,0,0,1-.56.33Z" fill="#363f66"/>
    <path id="Trazado_23331" data-name="Trazado 23331" d="M49.71,49.27a1.84,1.84,0,0,1-.75-2C49.22,48,49.47,48.63,49.71,49.27Z" fill="#363f66"/>
    <path id="Trazado_23332" data-name="Trazado 23332" d="M51.37,68.75a2.52,2.52,0,0,1,1.77-1.13c-.61.48-1.13.87-1.64,1.25C51.45,68.85,51.42,68.8,51.37,68.75Z" fill="#363f66"/>
    <path id="Trazado_23333" data-name="Trazado 23333" d="M52.37,66.2a10.49,10.49,0,0,1-.66.85.41.41,0,0,1-.34,0,.33.33,0,0,1,0-.31C51.55,66.41,51.68,66,52.37,66.2Z" fill="#363f66"/>
    <path id="Trazado_23334" data-name="Trazado 23334" d="M56.63,80.68c-.07-.49.93-1.11,1.75-1Z" fill="#363f66"/>
    <path id="Trazado_23335" data-name="Trazado 23335" d="M37.54,73v-.26c.31-.51.61-1,.92-1.48,0-.06.16-.06.26-.06s.07.18,0,.23l-1.08,1.62A.69.69,0,0,1,37.54,73Z" fill="#363f66"/>
    <path id="Trazado_23336" data-name="Trazado 23336" d="M38,69c-.15-.18-.43-.41-.41-.56s.34-.31.54-.44a1.146,1.146,0,0,1,.23.1,6,6,0,0,1-.13.85A.74.74,0,0,1,38,69Z" fill="#363f66"/>
    <path id="Trazado_23337" data-name="Trazado 23337" d="M56.68,75.19c0,.66-1.12.69-.51,1.46a4.492,4.492,0,0,0-.41.23,3.49,3.49,0,0,1,.13-1.21C56,75.47,56.35,75.39,56.68,75.19Z" fill="#363f66"/>
    <path id="Trazado_23338" data-name="Trazado 23338" d="M49.91,63.15l.77-1.51a.54.54,0,0,1,.18.1c.08.67-.49,1-.74,1.51a1,1,0,0,0-.21-.1Z" fill="#363f66"/>
    <path id="Trazado_23339" data-name="Trazado 23339" d="M42.5,55.45c-.16.47-.29.95-.44,1.42,0,.07-.23.07-.36.12,0-.15-.13-.36-.05-.46a10,10,0,0,1,.85-1.08Z" fill="#363f66"/>
    <path id="Trazado_23340" data-name="Trazado 23340" d="M16.91,66.44c.26.59-.12,1-.2,1.61a1.28,1.28,0,0,1,.2-1.61Z" fill="#363f66"/>
    <path id="Trazado_23341" data-name="Trazado 23341" d="M56.2,52.66c0,.66-.05,1.33-.11,2h-.15v-2Z" fill="#363f66"/>
    <path id="Trazado_23342" data-name="Trazado 23342" d="M46,50.22a1.23,1.23,0,0,1-.23,1.54l.08-1.54Z" fill="#363f66"/>
    <path id="Trazado_23343" data-name="Trazado 23343" d="M58.35,82.5l-1.54.64c.08-.54.82-.87,1.49-.77A.55.55,0,0,0,58.35,82.5Z" fill="#363f66"/>
    <path id="Trazado_23344" data-name="Trazado 23344" d="M47.6,82.52l1.08-1.15c.08,0,.15.08.23.1s0,.34-.15.41c-.26.26-.54.49-.83.75l-.17.07Z" fill="#363f66"/>
    <path id="Trazado_23345" data-name="Trazado 23345" d="M26.23,51.43a1.92,1.92,0,0,1,1.2,1.23C27.05,52.66,26.89,52.48,26.23,51.43Z" fill="#363f66"/>
    <path id="Trazado_23346" data-name="Trazado 23346" d="M53.5,67h-.64c0-.51.49-.64.77-.92C54.04,66.49,53.63,66.72,53.5,67Z" fill="#363f66"/>
    <path id="Trazado_23347" data-name="Trazado 23347" d="M52.76,79.88c.23.64-.18,1.1-.95,1A13.245,13.245,0,0,0,52.76,79.88Z" fill="#363f66"/>
    <path id="Trazado_23348" data-name="Trazado 23348" d="M34.16,55.38c-.47.1-.82-.08-.88-.46s.08-.39.31-.26.62.28.57.72Z" fill="#363f66"/>
    <path id="Trazado_23349" data-name="Trazado 23349" d="M59.22,78.67c-.51.18-1,.34-1.51.52a1.26,1.26,0,0,1,1.49-.64S59.2,78.65,59.22,78.67Z" fill="#363f66"/>
    <path id="Trazado_23350" data-name="Trazado 23350" d="M44.62,79.29a7.8,7.8,0,0,1-.79.44.744.744,0,0,1-.46-.11c.1-.1.18-.28.31-.3C44,79.29,44.27,78.78,44.62,79.29Z" fill="#363f66"/>
    <path id="Trazado_23351" data-name="Trazado 23351" d="M46.63,51.27c0-.46-.06-.92-.11-1.46.52.28.59.77.26,1.44a.39.39,0,0,0-.15.02Z" fill="#363f66"/>
    <path id="Trazado_23352" data-name="Trazado 23352" d="M39.78,76.52a1.61,1.61,0,0,1,.38,0c.21.08.41.18.62.28-.13.16-.26.28-.39.44a.44.44,0,0,0-.1.15h0c-.18-.28-.33-.56-.51-.87Z" fill="#363f66"/>
    <path id="Trazado_23353" data-name="Trazado 23353" d="M50.81,56.12c.18.23.08.8-.21,1.31C50.22,57.2,50.27,56.89,50.81,56.12Z" fill="#363f66"/>
    <path id="Trazado_23354" data-name="Trazado 23354" d="M54.89,78.67v-.41a6.65,6.65,0,0,1,.64-.66h.31c.11,0,0,.25,0,.3a10.559,10.559,0,0,1-.95.77Z" fill="#363f66"/>
    <path id="Trazado_23355" data-name="Trazado 23355" d="M48.22,50.43c-.16-.65-.29-1.19-.41-1.72A1.44,1.44,0,0,1,48.22,50.43Z" fill="#363f66"/>
    <path id="Trazado_23356" data-name="Trazado 23356" d="M35.57,51.63c-.31,0-.52.15-.62.08a3.87,3.87,0,0,1-.61-.54c.12-.05.28-.18.36-.13A6.392,6.392,0,0,1,35.57,51.63Z" fill="#363f66"/>
    <path id="Trazado_23357" data-name="Trazado 23357" d="M52.63,87.32c-.41-.46-.44-.67-.1-1,.07-.08.25-.1.36-.15a1,1,0,0,1,0,.46,2.69,2.69,0,0,1-.26.69Z" fill="#363f66"/>
    <path id="Trazado_23358" data-name="Trazado 23358" d="M51.6,84.63c.13-.7.72-.7,1.24-.85-.31.36-.62.69-.93,1h0c-.1,0-.2-.13-.31-.2Z" fill="#363f66"/>
    <path id="Trazado_23359" data-name="Trazado 23359" d="M50.47,70.46c.13-.36.24-.69.36-1l.57.64c-.26.16-.54.31-.82.49Z" fill="#363f66"/>
    <path id="Trazado_23360" data-name="Trazado 23360" d="M49.22,67.87l-.08.39a3.353,3.353,0,0,1-.13.69.69.69,0,0,1-.2.28.26.26,0,0,1-.18-.13,1.41,1.41,0,0,1,.59-1.23Z" fill="#363f66"/>
    <path id="Trazado_23361" data-name="Trazado 23361" d="M53.91,76.42c.05.13.08.23.08.23l-1.26.69s-.07-.2,0-.2l1.23-.72Z" fill="#363f66"/>
    <path id="Trazado_23362" data-name="Trazado 23362" d="M54.5,53.71v1.13c0,.1-.18.18-.25.28,0-.13-.16-.23-.13-.36a7.06,7.06,0,0,1,.26-1.08.68.68,0,0,0,.12.03Z" fill="#363f66"/>
    <path id="Trazado_23363" data-name="Trazado 23363" d="M47,78.39c.31-.41.54-.92,1.16-.92C47.78,77.78,47.68,78.42,47,78.39Z" fill="#363f66"/>
    <path id="Trazado_23364" data-name="Trazado 23364" d="M39.78,76.52a3.57,3.57,0,0,0-.7.36c-.2.13-.38.28-.56.41a.3.3,0,0,1-.1-.1c-.02-.05.07-.23.15-.29a9.681,9.681,0,0,1,.82-.61c.31-.21.39-.05.39.23Z" fill="#363f66"/>
    <path id="Trazado_23365" data-name="Trazado 23365" d="M57.81,62.59a.65.65,0,0,1,0,.9,3.29,3.29,0,0,1-.41.33l-.16-.16C57.4,63.33,57.58,63,57.81,62.59Z" fill="#363f66"/>
    <path id="Trazado_23366" data-name="Trazado 23366" d="M52.4,81.42c-.36.33-.74.67-1.13,1C51.09,82.01,51.81,81.42,52.4,81.42Z" fill="#363f66"/>
    <path id="Trazado_23367" data-name="Trazado 23367" d="M58.15,57.2c-.11-.31-.21-.62-.29-.92a.22.22,0,0,1,.13-.18c.07-.02.21,0,.21.07.1.31.18.64.28,1a1.09,1.09,0,0,0-.33.03Z" fill="#363f66"/>
    <path id="Trazado_23368" data-name="Trazado 23368" d="M55.25,48.55c0,.67.1,1.31.15,2h-.15c-.11-.66-.18-1.31-.28-2A.83.83,0,0,0,55.25,48.55Z" fill="#363f66"/>
    <path id="Trazado_23369" data-name="Trazado 23369" d="M56.4,53c.18.1.36.15.39.26A4.58,4.58,0,0,1,57,54a.53.53,0,0,1-.13.26.68.68,0,0,1-.18-.26,7.141,7.141,0,0,1-.29-1Z" fill="#363f66"/>
    <path id="Trazado_23370" data-name="Trazado 23370" d="M46.52,48.14c.13.46.26.9.41,1.46C46.37,49.14,46.22,48.65,46.52,48.14Z" fill="#363f66"/>
    <path id="Trazado_23371" data-name="Trazado 23371" d="M51.3,84.14a.92.92,0,0,1,.84-1C52.14,83.53,51.91,83.86,51.3,84.14Z" fill="#363f66"/>
    <path id="Trazado_23372" data-name="Trazado 23372" d="M54.55,79.37c.47-.39.83-.7,1.16-1C55.56,79.06,55.14,79.44,54.55,79.37Z" fill="#363f66"/>
    <path id="Trazado_23373" data-name="Trazado 23373" d="M40.29,77.42l.64-.11c.08,0,.21.06.23.13a.26.26,0,0,1-.08.26,1.18,1.18,0,0,1-.59.15c-.1,0-.15-.28-.2-.43Z" fill="#363f66"/>
    <path id="Trazado_23374" data-name="Trazado 23374" d="M55.91,55.2a9.729,9.729,0,0,0,.06,1.28.9.9,0,0,1-.21-1.28Z" fill="#363f66"/>
    <path id="Trazado_23375" data-name="Trazado 23375" d="M53.91,62c.16-.44.29-.77.47-1.29.07.23.23.44.17.57C54.45,61.59,54.4,62,53.91,62Z" fill="#363f66"/>
    <path id="Trazado_23376" data-name="Trazado 23376" d="M57.66,53.56a8.43,8.43,0,0,1,.36.84.29.29,0,0,1-.1.26.33.33,0,0,1-.26,0C57.56,54.33,57.3,54,57.66,53.56Z" fill="#363f66"/>
    <path id="Trazado_23377" data-name="Trazado 23377" d="M38.08,57a1.2,1.2,0,0,1-.31-1.23A1,1,0,0,1,38.08,57Z" fill="#363f66"/>
    <path id="Trazado_23378" data-name="Trazado 23378" d="M49.94,66.46c-.08-.38.2-.59.41-.85a.44.44,0,0,1,.23,0c.05.06.1.21.07.26-.15.23-.35.46-.51.69a.34.34,0,0,1-.2-.1Z" fill="#363f66"/>
    <path id="Trazado_23379" data-name="Trazado 23379" d="M5.6,77.19c0-.44-.08-.88-.13-1.39a1,1,0,0,1,.13,1.39Z" fill="#363f66"/>
    <path id="Trazado_23380" data-name="Trazado 23380" d="M26.36,50.55l1.15,1.08a1.27,1.27,0,0,1-1.15-1.08Z" fill="#363f66"/>
    <path id="Trazado_23381" data-name="Trazado 23381" d="M50.35,82.47a1,1,0,0,1-.44-1.08A1,1,0,0,1,50.35,82.47Z" fill="#363f66"/>
    <path id="Trazado_23382" data-name="Trazado 23382" d="M53.73,50.17c-.12-.44-.23-.9-.36-1.34l.26-.07c.13.43.23.9.36,1.33Z" fill="#363f66"/>
    <path id="Trazado_23383" data-name="Trazado 23383" d="M12,67.9a1.61,1.61,0,0,1,.05,1.51C11.72,68.92,12,68.41,12,67.9Z" fill="#363f66"/>
    <path id="Trazado_23384" data-name="Trazado 23384" d="M45.7,49l-.54-1.23a1,1,0,0,0,.21-.1c.2.41.38.79.59,1.2a.9.9,0,0,1-.26.13Z" fill="#363f66"/>
    <path id="Trazado_23385" data-name="Trazado 23385" d="M57.12,74.31c-.67.62-.67.62-1.13.62a1.18,1.18,0,0,1,1.13-.72Z" fill="#363f66"/>
    <path id="Trazado_23386" data-name="Trazado 23386" d="M52.84,55a1.8,1.8,0,0,1,0-1.75Z" fill="#363f66"/>
    <path id="Trazado_23387" data-name="Trazado 23387" d="M18.86,67.08c-.12-.49.13-.8.57-1.08-.13.38-.23.77-.36,1.13A1.23,1.23,0,0,1,18.86,67.08Z" fill="#363f66"/>
    <path id="Trazado_23388" data-name="Trazado 23388" d="M57.12,74.31v-.1c.13-.28.28-.38.59-.15.15.12.41.07.64.12v.13Z" fill="#363f66"/>
    <path id="Trazado_23389" data-name="Trazado 23389" d="M54.55,81.11c.24-.2.47-.43.8-.72.08.7,0,.75-.69.83A.29.29,0,0,1,54.55,81.11Z" fill="#363f66"/>
    <path id="Trazado_23390" data-name="Trazado 23390" d="M56.61,72.82a1.19,1.19,0,0,1-1.34.59C55.68,73.24,56.09,73.06,56.61,72.82Z" fill="#363f66"/>
    <path id="Trazado_23391" data-name="Trazado 23391" d="M51.32,84.14a1.35,1.35,0,0,1-.25.28c-.13.08-.31.13-.44.21v-.44a1.54,1.54,0,0,1,.51-.18l.13.13Z" fill="#363f66"/>
    <path id="Trazado_23392" data-name="Trazado 23392" d="M47.45,83.27c0,.31,0,.36-.82,1a.57.57,0,0,0-.11-.11C46.81,83.86,47.09,83.6,47.45,83.27Z" fill="#363f66"/>
    <path id="Trazado_23393" data-name="Trazado 23393" d="M53.5,69.62c.26-.11.49-.18.75-.28a2.59,2.59,0,0,1-.23.59c-.06.07-.31,0-.49-.08a.58.58,0,0,0-.03-.23Z" fill="#363f66"/>
    <path id="Trazado_23394" data-name="Trazado 23394" d="M50.06,83.32c-.43.33-.89.64-1.33,1a.69.69,0,0,0-.1-.12l1.31-1a.53.53,0,0,1,.12.12Z" fill="#363f66"/>
    <path id="Trazado_23395" data-name="Trazado 23395" d="M46.4,65.59a1.24,1.24,0,0,0,.1.2c-.23.24-.44.49-.67.72l-.13-.07.08-.54h0Z" fill="#363f66"/>
    <path id="Trazado_23396" data-name="Trazado 23396" d="M58.87,57.81a10.2,10.2,0,0,0,.1,1.24h-.23c-.05-.41-.08-.82-.13-1.23A.77.77,0,0,1,58.87,57.81Z" fill="#363f66"/>
    <path id="Trazado_23397" data-name="Trazado 23397" d="M51.37,74.67a2.22,2.22,0,0,1,.57-.41,1.514,1.514,0,0,1,.43.21,1.121,1.121,0,0,1,0,.13l-.82.23A.742.742,0,0,1,51.37,74.67Z" fill="#363f66"/>
    <path id="Trazado_23398" data-name="Trazado 23398" d="M48.24,64l.18.15-.23.77-.26-.08A7.19,7.19,0,0,0,48.24,64Z" fill="#363f66"/>
    <path id="Trazado_23399" data-name="Trazado 23399" d="M33.8,51.48c.3.15.61.33.92.48-.46.16-.85.11-1-.33a.48.48,0,0,0,.08-.15Z" fill="#363f66"/>
    <path id="Trazado_23400" data-name="Trazado 23400" d="M45.19,82.83c-.13.31-.26.62-.41.9a4.06,4.06,0,0,1-.1-.77S45,82.88,45.19,82.83Z" fill="#363f66"/>
    <path id="Trazado_23401" data-name="Trazado 23401" d="M47.86,79.68a.69.69,0,0,1,.92-.67C48.45,79.24,48.19,79.44,47.86,79.68Z" fill="#363f66"/>
    <path id="Trazado_23402" data-name="Trazado 23402" d="M51,75.62a1,1,0,0,1,.9-.49.37.37,0,0,0,.07.13l-.84.54a.93.93,0,0,1-.13-.18Z" fill="#363f66"/>
    <path id="Trazado_23403" data-name="Trazado 23403" d="M57.27,79.37l-.61.46a.26.26,0,0,1-.21,0,.2.2,0,0,1,0-.21.77.77,0,0,1,.79-.35A.648.648,0,0,0,57.27,79.37Z" fill="#363f66"/>
    <path id="Trazado_23404" data-name="Trazado 23404" d="M48.68,60.2v-.92c0-.05.13-.16.15-.16s.18.13.18.18c-.05.31-.12.62-.2.93Z" fill="#363f66"/>
    <path id="Trazado_23405" data-name="Trazado 23405" d="M19.86,65.59a1.28,1.28,0,0,1,.21.13,7.489,7.489,0,0,1-.18.79.358.358,0,0,1-.21-.07C19.74,66.18,19.79,65.92,19.86,65.59Z" fill="#363f66"/>
    <path id="Trazado_23406" data-name="Trazado 23406" d="M50.81,64.77c.13-.28.26-.54.43-.93.21.52.13.72-.25,1a.52.52,0,0,0-.18-.07Z" fill="#363f66"/>
    <path id="Trazado_23407" data-name="Trazado 23407" d="M48.88,83.22c-.07.54-.3.71-.79.56l.67-.67C48.81,83.14,48.83,83.19,48.88,83.22Z" fill="#363f66"/>
    <path id="Trazado_23408" data-name="Trazado 23408" d="M54.25,86.45l-.26.23-.38.21s-.13-.16-.11-.18a1,1,0,0,1,.31-.36,1.54,1.54,0,0,1,.39,0A.88.88,0,0,0,54.25,86.45Z" fill="#363f66"/>
    <path id="Trazado_23409" data-name="Trazado 23409" d="M54,75.36c-.18.24-.36.44-.54.67l-.2-.15a2.71,2.71,0,0,1,.31-.49,1.1,1.1,0,0,1,.41-.13.22.22,0,0,0,.02.1Z" fill="#363f66"/>
    <path id="Trazado_23410" data-name="Trazado 23410" d="M28.15,51l.41-.3.36.56C28.51,51.43,28.33,51.17,28.15,51Z" fill="#363f66"/>
    <path id="Trazado_23411" data-name="Trazado 23411" d="M51.6,82.91l.52-.69a1.08,1.08,0,0,1,.2.18c-.2.2-.38.41-.59.64A.38.38,0,0,0,51.6,82.91Z" fill="#363f66"/>
    <path id="Trazado_23412" data-name="Trazado 23412" d="M58.56,58.92a3.815,3.815,0,0,1-.08.95c0,.05-.15.1-.23.13s-.1-.16-.1-.21c.07-.31.15-.59.23-.87Z" fill="#363f66"/>
    <path id="Trazado_23413" data-name="Trazado 23413" d="M52.81,58.56a2.76,2.76,0,0,1,.1.64c0,.08-.13.15-.18.23-.07-.08-.2-.13-.2-.2a2.154,2.154,0,0,1,.07-.67Z" fill="#363f66"/>
    <path id="Trazado_23414" data-name="Trazado 23414" d="M50.71,85.24c-.16.26-.29.52-.44.77,0,0-.21,0-.23-.05a.28.28,0,0,1,0-.25,6.35,6.35,0,0,1,.65-.47Z" fill="#363f66"/>
    <path id="Trazado_23415" data-name="Trazado 23415" d="M53.17,57.22c-.08.31-.13.65-.21,1C52.66,57.66,52.68,57.48,53.17,57.22Z" fill="#363f66"/>
    <path id="Trazado_23416" data-name="Trazado 23416" d="M54.5,53.48c-.36-.44-.36-.9,0-1.16Z" fill="#363f66"/>
    <path id="Trazado_23417" data-name="Trazado 23417" d="M56.43,76.29l.69-.59C57.17,76.26,57,76.39,56.43,76.29Z" fill="#363f66"/>
    <path id="Trazado_23418" data-name="Trazado 23418" d="M54.68,57.22c-.3-.41-.28-.43.31-1.18Z" fill="#363f66"/>
    <path id="Trazado_23419" data-name="Trazado 23419" d="M8,84.45a2.231,2.231,0,0,0,.16.43h-1v-.07C7.42,84.68,7.68,84.58,8,84.45Z" fill="#363f66"/>
    <path id="Trazado_23420" data-name="Trazado 23420" d="M49.09,69.49c.08,0,.13-.15.2-.18a4.409,4.409,0,0,1,.65-.1c0,.07,0,.2-.06.2a5.339,5.339,0,0,1-.74.23A.88.88,0,0,0,49.09,69.49Z" fill="#363f66"/>
    <path id="Trazado_23421" data-name="Trazado 23421" d="M31.82,43c-.08.33-.15.59-.2.85C31.08,43.39,31.08,43.32,31.82,43Z" fill="#363f66"/>
    <path id="Trazado_23422" data-name="Trazado 23422" d="M49.5,85.55c.18-.31.36-.61.51-.92l.23.15c.06.46-.51.49-.74.77Z" fill="#363f66"/>
    <path id="Trazado_23423" data-name="Trazado 23423" d="M43.47,51.68h-.85C43,51.22,43.16,51.22,43.47,51.68Z" fill="#363f66"/>
    <path id="Trazado_23424" data-name="Trazado 23424" d="M57.79,51.17a6.7,6.7,0,0,0,.05,1C57.38,51.78,57.35,51.43,57.79,51.17Z" fill="#363f66"/>
    <path id="Trazado_23425" data-name="Trazado 23425" d="M57.43,64.54h-.57c.06-.18.08-.36.13-.52s.16,0,.26-.07C57.3,64.13,57.35,64.31,57.43,64.54Z" fill="#363f66"/>
    <path id="Trazado_23426" data-name="Trazado 23426" d="M50.12,76.19a6.332,6.332,0,0,0,.59-.57l.18.18-.57.57a.88.88,0,0,1-.2-.18Z" fill="#363f66"/>
    <path id="Trazado_23427" data-name="Trazado 23427" d="M53.22,70.52a2.44,2.44,0,0,1-.46.25c-.08,0-.18-.15-.26-.23a1.7,1.7,0,0,1,.41-.31A3.56,3.56,0,0,1,53.22,70.52Z" fill="#363f66"/>
    <path id="Trazado_23428" data-name="Trazado 23428" d="M58.53,61.69c-.05.23-.1.49-.15.72h-.13c-.08-.13-.18-.25-.26-.41l.54-.33Z" fill="#363f66"/>
    <path id="Trazado_23429" data-name="Trazado 23429" d="M53.94,85.65q-.259.233-.54.44s-.15-.13-.15-.15c.15-.18.3-.36.46-.52Z" fill="#363f66"/>
    <path id="Trazado_23430" data-name="Trazado 23430" d="M50.71,77a4.71,4.71,0,0,1-.57.38.41.41,0,0,1-.26,0,.34.34,0,0,1,0-.2c.21-.15.42-.28.62-.41A2.391,2.391,0,0,1,50.71,77Z" fill="#363f66"/>
    <path id="Trazado_23431" data-name="Trazado 23431" d="M42,68.64c-.05.26-.13.54-.18.8a1.21,1.21,0,0,0-.18,0c.07-.29.15-.54.2-.82Z" fill="#363f66"/>
    <path id="Trazado_23432" data-name="Trazado 23432" d="M45.39,54.76c-.18-.46-.07-.77.31-.92C45.39,54.09,45.88,54.56,45.39,54.76Z" fill="#363f66"/>
    <path id="Trazado_23433" data-name="Trazado 23433" d="M52.4,85.94l-.1-.11.46-.64C53.09,85.6,53,85.78,52.4,85.94Z" fill="#363f66"/>
    <path id="Trazado_23434" data-name="Trazado 23434" d="M12,67.9c-.07-.28-.13-.59-.23-.93C12.29,67.13,12.31,67.41,12,67.9Z" fill="#363f66"/>
    <path id="Trazado_23435" data-name="Trazado 23435" d="M49.14,79.68c-.28.23-.49.35-.72.56C48.4,79.68,48.55,79.55,49.14,79.68Z" fill="#363f66"/>
    <path id="Trazado_23436" data-name="Trazado 23436" d="M50.71,85.24c.3-.2.59-.41.89-.59h0C51.45,85.06,51.24,85.4,50.71,85.24Z" fill="#363f66"/>
    <path id="Trazado_23437" data-name="Trazado 23437" d="M50.76,66.56c-.08.21-.13.39-.21.59l-.23-.07a2.9,2.9,0,0,1,.18-.62A2.77,2.77,0,0,0,50.76,66.56Z" fill="#363f66"/>
    <path id="Trazado_23438" data-name="Trazado 23438" d="M55.32,51v.77C54.91,51.61,54.91,51.48,55.32,51Z" fill="#363f66"/>
    <path id="Trazado_23439" data-name="Trazado 23439" d="M54.07,48.5c.1-.26.2-.51.31-.74l.2.07c-.08.26-.18.52-.26.77A.82.82,0,0,0,54.07,48.5Z" fill="#363f66"/>
    <path id="Trazado_23440" data-name="Trazado 23440" d="M51.37,67.85c-.2.2-.41.38-.61.59l-.16-.16.62-.61Z" fill="#363f66"/>
    <path id="Trazado_23441" data-name="Trazado 23441" d="M53,50.25c-.1-.18-.2-.39-.31-.59s.05-.16.11-.24.2.08.2.16a4.08,4.08,0,0,1,.1.64.21.21,0,0,0-.1.03Z" fill="#363f66"/>
    <path id="Trazado_23442" data-name="Trazado 23442" d="M59.38,82.29c-.23.18-.41.44-.85,0a6.165,6.165,0,0,0,.82-.13.27.27,0,0,0,.03.13Z" fill="#363f66"/>
    <path id="Trazado_23443" data-name="Trazado 23443" d="M57.48,55.15a2.74,2.74,0,0,1,.08.64c0,.07-.18.13-.29.18a.87.87,0,0,1-.05-.31,5,5,0,0,1,.16-.51Z" fill="#363f66"/>
    <path id="Trazado_23444" data-name="Trazado 23444" d="M53.86,79.14l.57-.49v.56c0,.07-.33.06-.51.08a.17.17,0,0,0-.06-.15Z" fill="#363f66"/>
    <path id="Trazado_23445" data-name="Trazado 23445" d="M59.51,81.57a2.764,2.764,0,0,0-.7.06v-.24a5.463,5.463,0,0,0,.69-.1.83.83,0,0,1,.01.28Z" fill="#363f66"/>
    <path id="Trazado_23446" data-name="Trazado 23446" d="M53.81,82.83c0-.08,0-.18.1-.2a4.49,4.49,0,0,1,.41-.29c0,.08.11.18.08.21a2.561,2.561,0,0,1-.44.36.76.76,0,0,1-.15-.08Z" fill="#363f66"/>
    <path id="Trazado_23447" data-name="Trazado 23447" d="M23.25,49.3c.23.23.44.46.67.66l-.16.16c-.23-.23-.46-.46-.69-.72Z" fill="#363f66"/>
    <path id="Trazado_23448" data-name="Trazado 23448" d="M49,61.41V62a1.62,1.62,0,0,1-.31,0,2.2,2.2,0,0,1,.05-.57.72.72,0,0,0,.26-.02Z" fill="#363f66"/>
    <path id="Trazado_23449" data-name="Trazado 23449" d="M53.53,67a1.85,1.85,0,0,1,.43.18l-.43.44a.35.35,0,0,1-.13-.11A3.45,3.45,0,0,1,53.53,67Z" fill="#363f66"/>
    <path id="Trazado_23450" data-name="Trazado 23450" d="M34.8,72l-.49.67a.46.46,0,0,1,.13-.69C34.52,71.85,34.7,71.93,34.8,72Z" fill="#363f66"/>
    <path id="Trazado_23451" data-name="Trazado 23451" d="M55.35,61.3c-.05-.2-.13-.41-.21-.69.16,0,.44.08.44.16a1.85,1.85,0,0,1-.08.56A.27.27,0,0,0,55.35,61.3Z" fill="#363f66"/>
    <path id="Trazado_23452" data-name="Trazado 23452" d="M57.09,77.62l.75-.43c0,.07.08.12.1.2-.26.16-.49.28-.74.44A.71.71,0,0,0,57.09,77.62Z" fill="#363f66"/>
    <path id="Trazado_23453" data-name="Trazado 23453" d="M48.73,53.5c-.15-.38.08-.66.39-.92l-.24,1A.27.27,0,0,1,48.73,53.5Z" fill="#363f66"/>
    <path id="Trazado_23454" data-name="Trazado 23454" d="M49.91,48a6.349,6.349,0,0,1,.28.67l-.15.08a.53.53,0,0,1-.28-.7.88.88,0,0,0,.15-.05Z" fill="#363f66"/>
    <path id="Trazado_23455" data-name="Trazado 23455" d="M51.27,79.86c-.31.2-.59.41-.9.61a1.3,1.3,0,0,0-.1-.15l.9-.62A1.736,1.736,0,0,1,51.27,79.86Z" fill="#363f66"/>
    <path id="Trazado_23456" data-name="Trazado 23456" d="M54.89,47.78a4.5,4.5,0,0,0-.18-.79l.2-.05c.08.25.13.53.21.79a.64.64,0,0,1-.23.05Z" fill="#363f66"/>
    <path id="Trazado_23457" data-name="Trazado 23457" d="M52.25,47.94c-.13-.41-.24-.67-.31-.95C52.22,47.19,52.58,47.37,52.25,47.94Z" fill="#363f66"/>
    <path id="Trazado_23458" data-name="Trazado 23458" d="M49.09,67.31l.46-.77a.59.59,0,0,1,.16.1c-.13.26-.29.51-.42.8a1.16,1.16,0,0,0-.2-.13Z" fill="#363f66"/>
    <path id="Trazado_23459" data-name="Trazado 23459" d="M53.91,76.42c.11-.16.23-.29.34-.44q.15.15.3.33l-.07.11Z" fill="#363f66"/>
    <path id="Trazado_23460" data-name="Trazado 23460" d="M49.5,85.55c-.26.51-.44.57-.8.21h0A7.859,7.859,0,0,1,49.5,85.55Z" fill="#363f66"/>
    <path id="Trazado_23461" data-name="Trazado 23461" d="M44.19,47.6a3.224,3.224,0,0,0-.16-.72,2,2,0,0,0,.24-.05,3.164,3.164,0,0,0,.18.72Z" fill="#363f66"/>
    <path id="Trazado_23462" data-name="Trazado 23462" d="M48.91,49.68c-.1-.26-.18-.51-.28-.77l.2-.08c.11.26.18.52.29.8A.8.8,0,0,0,48.91,49.68Z" fill="#363f66"/>
    <path id="Trazado_23463" data-name="Trazado 23463" d="M58.76,79.44l.77-.2C59.35,79.7,59.1,79.78,58.76,79.44Z" fill="#363f66"/>
    <path id="Trazado_23464" data-name="Trazado 23464" d="M44.57,79.73l.11.1s0,.15-.06.18a2.12,2.12,0,0,1-.38.26l-.13-.11a2.36,2.36,0,0,1,.26-.36.8.8,0,0,1,.2-.07Z" fill="#363f66"/>
    <path id="Trazado_23465" data-name="Trazado 23465" d="M39.08,80.14c.16-.54.18-.54.88-.11A6.586,6.586,0,0,0,39.08,80.14Z" fill="#363f66"/>
    <path id="Trazado_23466" data-name="Trazado 23466" d="M34.77,71.31l-.49.31c.08-.33.11-.51.16-.72h.15a3.381,3.381,0,0,0,.18.44Z" fill="#363f66"/>
    <path id="Trazado_23467" data-name="Trazado 23467" d="M4.47,63.31V64H4.32v-.71Z" fill="#363f66"/>
    <path id="Trazado_23468" data-name="Trazado 23468" d="M51.14,76.34c.1-.08.21-.18.39-.31.07.21.13.34.2.59a4.868,4.868,0,0,1-.59-.13Z" fill="#363f66"/>
    <path id="Trazado_23469" data-name="Trazado 23469" d="M53.81,82.83c-.28.57-.41.64-.77.44C53.32,83.11,53.55,82.96,53.81,82.83Z" fill="#363f66"/>
    <path id="Trazado_23470" data-name="Trazado 23470" d="M50.65,80.86c.16-.13.31-.26.47-.41C51.3,80.88,51.19,81,50.65,80.86Z" fill="#363f66"/>
    <path id="Trazado_23471" data-name="Trazado 23471" d="M41.88,67.21c-.36,0-.57-.11-.26-.49A3,3,0,0,0,42,66c.41.51-.1.82-.1,1.21Z" fill="#363f66"/>
    <path id="Trazado_23472" data-name="Trazado 23472" d="M21.87,48.4c.07.36.18.72.25,1.05C22.33,48.83,22.23,48.47,21.87,48.4Z" fill="none"/>
    <path id="Trazado_23473" data-name="Trazado 23473" d="M29.61,54.3c-.87.13-.66.85-.82,1.46C29.36,55.4,29.74,54.66,29.61,54.3Z" fill="none"/>
    <path id="Trazado_23474" data-name="Trazado 23474" d="M29.2,59a.31.31,0,0,0,.08-.13,1,1,0,0,1,.51-1.15c-.53-.29-1-.54-1.56-.85a22.65,22.65,0,0,1-2.54,3.77c.33.31.64.87,1,.93s.74.12.79.76a8.22,8.22,0,0,1,.51-1C28.51,60.56,28.36,59.51,29.2,59Z" fill="none"/>
    <path id="Trazado_23475" data-name="Trazado 23475" d="M28.74,53.07a3.6,3.6,0,0,0-.43.1v-.51c-.36.43-.15.74,0,1.1C29,53.58,29,53.58,28.74,53.07Z" fill="none"/>
    <path id="Trazado_23476" data-name="Trazado 23476" d="M24.2,53.17l.62-.13c-.13-.31-.23-.56-.34-.84a2.13,2.13,0,0,0-1.46.66c-.36.39-.72.77-1.1,1.11-.7.61-1.41,1.2-2.08,1.82a.9.9,0,0,0,.28,1.41,1.78,1.78,0,0,1,.67.61.83.83,0,0,0,1.49.11c.71-1.11,1.41-2.21,2.1-3.34A1.11,1.11,0,0,0,24.2,53.17Z" fill="none"/>
    <path id="Trazado_23477" data-name="Trazado 23477" d="M21.76,52.5c.31-.25.64-.48.62-1a1.184,1.184,0,0,0-.05-.43,2,2,0,0,0-.62-.7c-.13-.07-.43.16-.64.26a1.7,1.7,0,0,0-.28.21,12.3,12.3,0,0,0-1,.74c-.44.38-.85.82-1.29,1.23-.07.08-.17.08-.25.16-.31.28-.64.59-.93.89-.05,0,0,.21,0,.29A10,10,0,0,0,18,55.22a.73.73,0,0,0,1.13,0l2.31-2.52a1.4,1.4,0,0,1,.32-.2Z" fill="none"/>
    <path id="Trazado_23478" data-name="Trazado 23478" d="M27.54,56.92c.2-.47.2-1,.66-1.41.13-.11.13-.36.21-.65-.51.39-.92.67-1.39,1a13.875,13.875,0,0,0-.15-1.38c0-.23-.18-.31-.39-.15a.53.53,0,0,1-.84,0c-.28-.31-.46-.21-.62.2a8.48,8.48,0,0,1-.67,1.39c-.43.72-.94,1.36-1.36,2.08a1.41,1.41,0,0,0,0,.87c.47.18.59.49.39,1,.61-.51.69.18,1,.26a6.59,6.59,0,0,1,.42-.54c.1.18.2.31.33.51a5.37,5.37,0,0,0,.41-.38c.62-.82,1.23-1.67,1.82-2.52C27.46,57.15,27.49,57,27.54,56.92Z" fill="none"/>
    <path id="Trazado_23479" data-name="Trazado 23479" d="M27.54,46.86a3.05,3.05,0,0,0,.25-.64L27,46.7l.18.26A.293.293,0,0,0,27.54,46.86Z" fill="none"/>
    <path id="Trazado_23480" data-name="Trazado 23480" d="M28.41,47.47a2.35,2.35,0,0,1-.23.57c.1.1.23.2.38.33.13-.18.21-.31.28-.41a4.749,4.749,0,0,0-.33-.38c.13-.11.28-.21.49-.39-.46-.23-.08-1-.77-1.13-.18.49-.15.59.08.9A.8.8,0,0,1,28.41,47.47Z" fill="none"/>
    <path id="Trazado_23481" data-name="Trazado 23481" d="M28.82,48.55c-.28.16-.57.28-.82.41V47.53c-.31.33-.36.07-.49-.11s-.23-.13-.36-.2c0,.13-.15.25-.13.36.11.43-.13.51-.43.54a5.207,5.207,0,0,0,.05.84,2.87,2.87,0,0,1,.38-.43,1.46,1.46,0,0,1,.36-.16,3.2,3.2,0,0,1,.16.39,2.05,2.05,0,0,1,.05.56c-.08,0-.18.13-.36.23C28.1,49.6,28.69,49.22,28.82,48.55Z" fill="none"/>
    <path id="Trazado_23482" data-name="Trazado 23482" d="M27.87,38.52a7,7,0,0,0,1-.74c-.1-.26-.2-.52-.36-.88-.43.36-.87.67-1.33,1v.46C27.41,38.47,27.69,38.62,27.87,38.52Z" fill="none"/>
    <path id="Trazado_23483" data-name="Trazado 23483" d="M30.08,56c.07-.11.15-.23.28-.41-.21-.18-.36-.36-.54-.52-.08.08-.23.21-.21.26C29.74,55.51,29.92,55.74,30.08,56Z" fill="none"/>
    <path id="Trazado_23484" data-name="Trazado 23484" d="M29.85,56.45c.07.49.15,1,.23,1.44a1.11,1.11,0,0,1,.25,0c-.1-.49-.23-1-.33-1.44A.88.88,0,0,1,29.85,56.45Z" fill="none"/>
    <path id="Trazado_23485" data-name="Trazado 23485" d="M27.25,43c.08-.47.13-.8.18-1.08h-.66C26.33,42.57,27.05,42.62,27.25,43Z" fill="none"/>
    <path id="Trazado_23486" data-name="Trazado 23486" d="M44.68,66.49a5.081,5.081,0,0,1-.47.23,3.429,3.429,0,0,1-.56,0C44.19,67.23,44.42,66.77,44.68,66.49Z" fill="none"/>
    <path id="Trazado_23487" data-name="Trazado 23487" d="M44.29,67.49c.21.51.44.56.8.13C44.83,67.59,44.57,67.54,44.29,67.49Z" fill="none"/>
    <path id="Trazado_23488" data-name="Trazado 23488" d="M31.44,59.89a.4.4,0,0,0-.13-.13c-.21-.12-.44-.25-.69-.41-.31.08.05.88-.62.72a4.53,4.53,0,0,1-.21-.59h-.18c-.2.41-.59.79-.61,1.2s-.21.7-.49.75a2.15,2.15,0,0,0-.15.74,1,1,0,0,0,.25.64,7.3,7.3,0,0,0,1.31.52L31,62.23a.73.73,0,0,1,.1-.64,1.88,1.88,0,0,0,.34-1.7Z" fill="none"/>
    <path id="Trazado_23489" data-name="Trazado 23489" d="M42.93,71.18c.13-.23.26-.43.39-.64C42.62,70.67,42.62,70.67,42.93,71.18Z" fill="none"/>
    <path id="Trazado_23490" data-name="Trazado 23490" d="M47.52,68.64l-.3.23V69l.69.23A1.419,1.419,0,0,1,48,69.1a.316.316,0,0,1-.23-.15C47.72,68.87,47.6,68.75,47.52,68.64Z" fill="none"/>
    <path id="Trazado_23491" data-name="Trazado 23491" d="M44,65.2a.44.44,0,0,0-.15,0c-.13.26-.26.54-.38.8C44.06,65.85,44,65.49,44,65.2Z" fill="none"/>
    <path id="Trazado_23492" data-name="Trazado 23492" d="M34.46,62.33v.77h-.15c-.08-.16-.18-.29-.18-.31a4.909,4.909,0,0,1-.54-.34l.59-.53A2.794,2.794,0,0,0,34,61.3q-.065,0-.13,0c0,.1-.12.2-.28.46-.36-.54-.64-1-1-1.47-.11.29-.21.54-.29.8.39,0,.52.13.24.41s-.67.51-.72.82a1.756,1.756,0,0,1-.59.82,1.694,1.694,0,0,0,.2.54,4.39,4.39,0,0,1,.28-.36,1.309,1.309,0,0,0,.08.34l.21-.18v.79c.64.1.74-.33.9-.72a2,2,0,0,1,.15-.41.89.89,0,0,1,.41-.28c.08,0,.21.1.31.15-.08.11-.13.31-.21.31-.43,0-.25.31-.33.49h.31a2,2,0,0,1-.08.33,5.3,5.3,0,0,0-.28.82c0,.36.25.82.54.77a2.52,2.52,0,0,0,.84-.28c.13-.08.11-.36.18-.54a.7.7,0,0,0,.08-.23c.1-.62.51-1.21.18-1.77a5,5,0,0,0-.54-.58Z" fill="none"/>
    <path id="Trazado_23493" data-name="Trazado 23493" d="M35.72,61.28v.2a.34.34,0,0,0,.23.11h.43c-.13-.1-.23-.26-.38-.33S35.8,61.25,35.72,61.28Z" fill="none"/>
    <path id="Trazado_23494" data-name="Trazado 23494" d="M38.6,62c-.34-.18-.83,0-1-.49h-.39c-.13,0,0,.11-.07.18.23.21.48.41.72.62s.3.23.56.46H39C39.08,62.33,39,62.18,38.6,62Z" fill="none"/>
    <path id="Trazado_23495" data-name="Trazado 23495" d="M36.85,61.54a1.259,1.259,0,0,0-.18-.34l-.31.36h0c-.1.44-.18.85.26,1.18.1.08.2.18.31.26,0-.16.13-.36,0-.49C36.85,62.2,36.59,61.92,36.85,61.54Z" fill="none"/>
    <path id="Trazado_23496" data-name="Trazado 23496" d="M49,69.57c-.31,0-.49.05-.62.05,0-.44-.13-.82-.15-1.13a3.1,3.1,0,0,1,.13-.87,1,1,0,0,0-.18-.08,3.12,3.12,0,0,0-.41.33c-.24.26-.47.57-.72.82a.38.38,0,0,1-.34.08c-.05,0-.1-.18-.07-.28.07-.39.15-.8.23-1.18a2.877,2.877,0,0,1,.1-.51,1.738,1.738,0,0,0-.15-.13L45.2,68.23a.38.38,0,0,1-.13-.1,3.21,3.21,0,0,1,.54-.62c.36-.23.44-.46.15-.84a4.121,4.121,0,0,1-.43.33,2.94,2.94,0,0,0,.07-.62.5.5,0,0,1,.36-.56h0a2,2,0,0,1,.21-.67c.2-.36.18-.56-.23-.69.23-.28.43-.56.64-.85h0l-.8-.3L44.86,63h0c-.72-.18-1.44-.41-2.16-.57a2.64,2.64,0,0,0-.74,0c.18.44.41.88.12,1.36a.208.208,0,0,0,.31.26c.23-.08.49-.49.72-.16A1.69,1.69,0,0,1,43.34,65a8,8,0,0,1-.72,2.1c.11-.62.21-1.21.31-1.82a1.943,1.943,0,0,0-.2,0c-.16.48-.36,1-.49,1.46-.08.26-.1.44-.41.28h0c-.13.26-.26.49-.39.75a.219.219,0,0,1-.15-.06,3.559,3.559,0,0,1,0-.46c-.18.16-.28.26-.39.34a5.3,5.3,0,0,1-.3-.77.83.83,0,0,1,.12-.49,1.48,1.48,0,0,0,.21-1.72.4.4,0,0,1,.13-.39c.23-.2.38-.38.2-.71-.1.12-.18.25-.28.36a2.49,2.49,0,0,1-.33-.57,2.33,2.33,0,0,1,0-.59c-.11.39-.21.75-.31,1.13a3.778,3.778,0,0,0-.08-.92H39.8c0-.29-.08-.54-.1-.85.51,0,.72.33,1,.64s.33.28.92-.2a1.262,1.262,0,0,0,.15,1.33.66.66,0,0,0,.24,0V62.43c-.42-.3-.8-.61-1.21-.89,0,0-.15.05-.23.07a.66.66,0,0,1-.34,0,18.93,18.93,0,0,1-2-.51c-1-.31-2-.69-2.92-1-.51-.15-1-.41-1.49.18-.08.1-.36.08-.67.13.18-.31.29-.46.34-.57s.36,0,.38,0a.42.42,0,0,0,.08-.38c-.08-.16-.26-.26-.39-.39l-.92-.84c.1-.21.28-.39.23-.52s-.26-.2-.44-.33c-.12.69-.12.69-.71.67a5.22,5.22,0,0,0,.38-.54.46.46,0,0,0,0-.36c-.25-.51-.51-1.05-.79-1.54-.11-.21-.34-.33-.47-.51-.25-.41-.48-.88-.74-1.29a10.01,10.01,0,0,0-.74-1,.35.35,0,0,1-.08-.05c-.39-.31-.74-.62-1.13-.9a.581.581,0,0,0,.1-.13c.26.21.52.41.77.59a.84.84,0,0,0,.39,0c-.05-.1-.05-.26-.13-.33-.49-.39-1-.77-1.54-1.18h.31l.41-.31c.23.08.23.08.18-.59H29v-.36c.93-.15.44-.92.59-1.41a5.409,5.409,0,0,1,.41.39c.08-.21.11-.36,0-.49a1.9,1.9,0,0,1-.18-1.44.54.54,0,0,0-.15-.41c-.44-.51-.9-1-1.42-1.56,0,.66-.53.69-.87.74a4.38,4.38,0,0,0-2.26,1.31c-.66-.16-.3-.67-.38-1a1.67,1.67,0,0,0-.36.89,1.65,1.65,0,0,0,.67,1.36,3.5,3.5,0,0,1,.38.39l1.46,1.46a5.47,5.47,0,0,1,.49.59l-.07.08c-.18,0-.34-.08-.54-.1.2.56.89.79.87,1.38a12.619,12.619,0,0,1-.28,1.59l-.72-.72a.71.71,0,0,1-.18.16l.77,1a1.644,1.644,0,0,0,.69-.08l.08.16c-.72.18-.18.51-.21.87-.18-.1-.25-.28-.38-.41-.36-.44-.72-.87-1.11-1.26-.84-.84-1.66-1.69-2.56-2.49-.31-.28-.57-.87-1.21-.41a5.12,5.12,0,0,0,.08-.59c0-.28.18-.33.41-.25-.13-.16-.31-.29-.36-.47a1.79,1.79,0,0,0-.92-1.25s-.08-.16-.16-.34l1,.57.06-.08a.2.2,0,0,0-.06-.13A2.45,2.45,0,0,1,22,45.24,11.09,11.09,0,0,1,22.79,43a8.72,8.72,0,0,1,1.28-1.43c.54.54.64-.11.95-.18-.33-.36,0-.49.18-.77a3.007,3.007,0,0,0,.08.59.59.59,0,0,0,.36-.39c.13-.51.2-1,.36-1.56a.67.67,0,0,1,.33-.44,1.237,1.237,0,0,1,.49.13.33.33,0,0,1,0,.31A3.28,3.28,0,0,0,26.23,41a2.2,2.2,0,0,1-.62,1.23c-.61.7-.41,1.9-.23,2.7-.2-1,.87-.72,1.13-1.08a5.2,5.2,0,0,1,.1-.72c.16.23.21.62.26.62a8.08,8.08,0,0,0,1.72-.1c.43-.11.79-.47,1.28-.52a.81.81,0,0,0,.57-.43c.23-.57.59-1.06.84-1.59a2.55,2.55,0,0,0,0-1.7c-.1-.51-.51-1,0-1.59.08-.08,0-.26,0-.56-.25.3-.41.51-.46.59l-1.56-.23c-.16,0-.39,0-.44-.13a.75.75,0,0,1-.08-.59c.05-.11.34-.16.52-.16h.92c.31,0,.67,0,.79.49l.24-.31c.18,0,.35.15.48.1.44-.18.52.1.64.39a3.71,3.71,0,0,0,.42.64.31.31,0,0,1,.17-.05c.06-.21.13-.39.18-.59a4.82,4.82,0,0,1,.36,1,.3.3,0,0,0,.21.25,5.83,5.83,0,0,0,2.54.39,2.26,2.26,0,0,1-.08-.41c.28-.13.54-.23.8-.36s.56-.36.87-.49a21.14,21.14,0,0,1,2.05-.64c.41-.1.85-.33,1.13.1.18-.05.33-.15.49-.12.79.07,1.62.17,2.41.23a2.25,2.25,0,0,0,.82-.31.35.35,0,0,0,.1-.21.36.36,0,0,0-.2-.18c-.23-.1-.44-.15-.67-.23a4.2,4.2,0,0,1-1,.21H39.26c-.34,0-.72.31-1,.2-.43-.18-.72.08-1,.21a2.6,2.6,0,0,0-1.06.67.94.94,0,0,1-.82.43c-.56-.07-1.2,0-1.54-.66-.15-.31-.33-.62-.51-.93s-.31-.41-.49-.43a6.59,6.59,0,0,0-2.2-.39c-1.06.13-2.19-.08-3.21.57-.62.38-1.34.56-1.52,1.38a.74.74,0,0,1-.12.16l-1,1.28c-.28.36-.56.74-.87,1.1h0V41c-.28.2-.43.3-.59.43a2.07,2.07,0,0,0-.43.31,8.44,8.44,0,0,0-.9,1.49c-.23.51-.26,1.15-.54,1.64a9.21,9.21,0,0,0-.67,3.08,2.69,2.69,0,0,1-.79,2c-.59.46-1.16,1-1.72,1.51-.08.08-.18.1-.26.18a4.52,4.52,0,0,0-.67.64c-.38.59-.69,1.21-1.07,1.8a.48.48,0,0,0,.1.77A6.4,6.4,0,0,1,18.35,57c.13.28.49.46.74.67a.25.25,0,0,0,.24,0c.3-.05.38.1.38.36s0,.49.41.57c.23,0,.41.41.67.66.31-.48.72-.1,1,0,.18.46.36.87.51,1.28a1.36,1.36,0,0,1,1.26.8c.1.23.18.31.44.1a7.71,7.71,0,0,1,1.07-.64c-.07.92.49,1.18,1.11,1.41.12,0,.25.16.38.23.49.36.85.9,1.54.88a.172.172,0,0,1,.13.07,11.6,11.6,0,0,1,1.41,1,2.33,2.33,0,0,0,1.75.46.87.87,0,0,1,.94.46,2.64,2.64,0,0,0,2,1.26c.33.08.46-.05.46-.39a4.81,4.81,0,0,1,.1-.84s.05,0,.1-.11v.34c.75-.26.34-.8.31-1.23h.41c.21-.34.39-.59.54-.8l.69.39c.06-.18.11-.39.16-.59h.59c-.08.3-.13.59-.18.87l.43.26a1.54,1.54,0,0,0,.06.46,2.64,2.64,0,0,0,.23.54c.54-.49.72-1.06.46-1.41-.13.12-.26.23-.41.38-.08-.23-.16-.44-.28-.74.2.05.38.07.69.15.08-.26.18-.59.31-.92.13.2.23.41.38.64a4.64,4.64,0,0,0-.49.31c.39.23.72.46,1.11.69a2.754,2.754,0,0,0,.2.56h-.07l-.08.61c-.13.36-.26.64-.36,1l-.51-.18a4.23,4.23,0,0,0,.2.67s-.08,0-.1.05a15.31,15.31,0,0,1-1.26-1.65,6.39,6.39,0,0,1-.46-1.38c-.36.18-.56.77-.26,1a1.794,1.794,0,0,1,.47,1.1,1,1,0,0,0,.2.21l.41.23c-.15.23-.28.41-.44.64l.54.13a3.13,3.13,0,0,0,.21-.46c.23.13.23.13.1.9-.13-.18-.2-.31-.31-.44-.3.56.08,1.51.62,1.49.18-.57.36-1.16.59-1.72,0-.13.26-.18.41-.26,0,.16.08.31,0,.44s-.34.51-.06.82l.34-.23h.08c-.29.74-.57,1.49-.85,2.26l.15.07c.13-.18.23-.36.36-.51s.26-.28.39-.44v.06c-.1.3-.18.61-.31,1.05.56-.39.9-1.44.67-1.8-.11.16-.18.31-.34.57a1.3,1.3,0,0,1,.39-1.21H41a.886.886,0,0,1-.06.39l.16.07.82-1c.08.13.15.23.15.21h.64c.08-.08.18-.21.31-.34a.482.482,0,0,1,.1.08c-.12.23-.38.44-.35.67s.35.3.64.51a4.3,4.3,0,0,1-.62-.08,3.99,3.99,0,0,1-.64-.2c.08.23.13.33.18.46a1.25,1.25,0,0,0-.56,1.2.94.94,0,0,1,.23-.1c0,.08.12.13.18.21-.16.07-.31.15-.49.25l-.49.29a1.56,1.56,0,0,1,1.21,1,1.6,1.6,0,0,0-.31.1c-.16.06-.28.13-.41.18v-.46a.87.87,0,0,0,0-.28c0-.08-.13-.15-.2-.18a.159.159,0,0,0-.21.1c-.15.39-.28.77-.43,1.16l-.16.38a.55.55,0,0,1-.18,0,1,1,0,0,1,0-.46c.2-.51.43-1,.64-1.51a1.6,1.6,0,0,0,0-.49h-.16c-.41.95-.82,1.9-1.2,2.8a2.6,2.6,0,0,1,.74.13c.2.05.44.15.64.18a5.37,5.37,0,0,0,1.06,0,.72.72,0,0,0,.46-.31,2.2,2.2,0,0,0-.23-.51s.07-.15.15-.28a2.679,2.679,0,0,1,.18.2l.1-.1c.08-.36.16-.72.28-1.21l.31.47c.82-.34,1.21-.31,1.47.12.48-.2.38-.94.84-1.18,0,.06.1.08.13.13a1.54,1.54,0,0,0-.18.26c.26.15.49.31.72.46s.38,0,.23-.36a5.638,5.638,0,0,0-.54-1c-.21-.31-.46-.31-.74,0-.13.15-.26.26-.39.39a2.12,2.12,0,0,1-.25-.75c0-.23-.06-.51.3-.56a.67.67,0,0,0,.31-.18,6.14,6.14,0,0,0,.36-.95h.15V69c-.33-.11-.59.18-.69.64.69,0,1.41-1,2,0-.1.24-.18.42-.23.57l.54-.08.54-.07v.15a4.5,4.5,0,0,0-.43.23c-.06,0-.08.13-.08.18s.1.13.13.13a2.22,2.22,0,0,0,.69-.28c.08-.08,0-.36,0-.54a1.18,1.18,0,0,0,.64-.36ZM28.23,46.09c.69.1.31.9.77,1.13a3.829,3.829,0,0,0-.49.38c.1.13.21.23.33.39-.07.1-.15.23-.28.41l-.38-.34c.07-.2.18-.38.23-.56a.7.7,0,0,0-.08-.46C28.08,46.68,28.05,46.6,28.23,46.09Zm-.44.15a4.27,4.27,0,0,1-.25.64c-.08.11-.26.08-.41.11L27,46.73Zm-.54,3.29.36-.23a2.089,2.089,0,0,0-.05-.57,1.77,1.77,0,0,0-.15-.38,1.3,1.3,0,0,0-.36.15,3.18,3.18,0,0,0-.39.44,4.415,4.415,0,0,0-.05-.85c.31,0,.57-.1.44-.54a1.046,1.046,0,0,1,.13-.36c.13.08.28.1.36.21s.18.43.48.1v1.44c.23-.13.52-.26.82-.41a1.34,1.34,0,0,1-1.59,1Zm0-6.49c-.2-.44-.89-.49-.51-1.08h.67c-.03.28-.08.64-.16,1.04Zm-.07-5.11c.46-.36.87-.69,1.33-1,.16.36.26.62.36.88a5.29,5.29,0,0,1-1,.74c-.18.08-.46-.08-.69-.1ZM29.82,55c.18.15.33.33.54.51-.13.21-.21.31-.28.41-.16-.23-.34-.46-.47-.69C29.59,55.22,29.74,55.12,29.82,55Zm.51,2.82a.74.74,0,0,1-.25,0c-.08-.49-.16-1-.23-1.44a.88.88,0,0,0,.15.02c.13.49.23.95.33,1.44Zm-.72-3.54c.13.36-.25,1.1-.82,1.46.21-.59-.05-1.31.82-1.44Zm-1.33-1.62a3,3,0,0,1,0,.52,3.911,3.911,0,0,1,.43-.11c.26.52.26.52-.43.72-.15-.36-.36-.7,0-1.11Zm-6.16-3.23c-.07-.36-.18-.69-.25-1.05.36.09.46.45.25,1.07Zm-3,5.8a.73.73,0,0,1-1.13,0,10,10,0,0,1-.67-1.07c-.05-.08-.07-.24,0-.29l.92-.89c.08-.08.18-.08.26-.16.44-.41.85-.85,1.28-1.23a11.365,11.365,0,0,1,1-.74,2.26,2.26,0,0,1,.28-.21c.21-.1.52-.33.65-.26a2.1,2.1,0,0,1,.61.7.82.82,0,0,1,.05.43,1.2,1.2,0,0,1-.61,1,3.391,3.391,0,0,0-.34.23c-.76.82-1.53,1.66-2.3,2.51Zm3.16,2.64a.83.83,0,0,1-1.49-.1,1.73,1.73,0,0,0-.67-.62.9.9,0,0,1-.28-1.41c.67-.64,1.38-1.2,2.08-1.82.38-.36.74-.72,1.1-1.1a2.24,2.24,0,0,1,1.46-.67c.11.28.23.56.34.85l-.62.12a1.07,1.07,0,0,1,.15,1.39c-.66,1.17-1.35,2.28-2.07,3.38Zm3.28,1.85a5.372,5.372,0,0,1-.41.38c-.13-.2-.23-.33-.33-.51-.16.21-.29.36-.41.54-.36-.08-.44-.8-1-.26.18-.56.08-.87-.39-1-.1,0-.1-.64.06-.87.41-.72.92-1.39,1.36-2.08a9.34,9.34,0,0,0,.66-1.39c.16-.41.34-.53.62-.2s.56.26.85,0,.35-.08.38.15c0,.41.1.85.15,1.38l1.39-1c-.08.29-.08.54-.21.65-.46.35-.46.92-.66,1.41a3,3,0,0,1-.13.3c-.7.85-1.31,1.67-1.93,2.52ZM28,61.3c-.18.26-.28.57-.51,1-.08-.64-.33-.71-.79-.76s-.7-.62-1-.93a26.5,26.5,0,0,0,2.54-3.77c.54.28,1.05.56,1.56.85a1.09,1.09,0,0,0-.51,1.15.16.16,0,0,1-.08.13C28.36,59.51,28.51,60.56,28,61.3Zm3,.93-1.08,1.08c-.46-.18-.9-.31-1.31-.52a.87.87,0,0,1-.25-.64,2.15,2.15,0,0,1,.15-.74c.28,0,.46-.26.49-.75a3,3,0,0,1,.61-1.2h.18a5.25,5.25,0,0,1,.21.59c.67.16.31-.64.62-.72l.69.41a.4.4,0,0,1,.13.13,1.91,1.91,0,0,1-.34,1.72.78.78,0,0,0-.1.64Zm4,2.54a.7.7,0,0,1-.08.23c0,.18,0,.46-.17.54a2.66,2.66,0,0,1-.85.28c-.26.05-.59-.41-.54-.77a4.659,4.659,0,0,1,.28-.82.536.536,0,0,1,.08-.33c.08-.12-.18,0-.31,0,.08-.15-.1-.49.33-.49.06,0,.13-.2.21-.31-.1,0-.23-.18-.31-.15a.89.89,0,0,0-.41.28c-.1.11-.1.29-.15.41-.16.41-.26.82-.9.72a4.579,4.579,0,0,0-.05-.79,2.13,2.13,0,0,0-.21.18c0-.11-.05-.18-.07-.34a1.89,1.89,0,0,1-.29.36,4.75,4.75,0,0,0-.2-.54c.25-.23.54-.38.59-.82s.46-.56.72-.82.15-.38-.23-.41l.28-.8c.33.49.61.93,1,1.47a5.25,5.25,0,0,1,.29-.46.68.68,0,0,0,.12,0c.08.23.13.49.18.62-.25.23-.41.38-.59.53a4.41,4.41,0,0,1,.54.34,3.349,3.349,0,0,1,.18.31h.16v-.77c.25.26.46.44.64.64C35.46,63.56,35,64.13,35,64.77Zm2-1.75c-.11-.07-.21-.18-.31-.25-.44-.31-.33-.75-.26-1.18h0a2.07,2.07,0,0,1-.43,0,.37.37,0,0,1-.23-.1v-.21a.38.38,0,0,1,.26,0,2.43,2.43,0,0,1,.38.34h0c.11-.11.18-.21.31-.36.08.13.21.28.18.33-.26.39,0,.67.13,1a2.379,2.379,0,0,1-.1.41Zm2-.28h-.59a6.439,6.439,0,0,1-.57-.46c-.23-.21-.49-.41-.72-.62a1.05,1.05,0,0,0,.08-.18h.38c.21.47.7.31,1,.49S39.08,62.33,39,62.74Zm3.92,8.44c-.31-.51-.31-.51.39-.64a5.789,5.789,0,0,1-.38.64Zm.59-5.26c.13-.25.26-.54.39-.79a.44.44,0,0,0,.15.05c-.05.31.01.67-.53.74Zm.13.72a2.15,2.15,0,0,0,.56,0,1.7,1.7,0,0,0,.47-.23c-.25.36-.48.82-1.02.23Zm.64.85c.31.05.54.07.8.13-.35.43-.58.38-.79-.13Zm3.59,1.74L47.19,69v-.15l.31-.23c.08.1.13.2.2.28a1,1,0,0,0,.23.15.32.32,0,0,1-.05.18Z" fill="#363f66"/>
    <path id="Trazado_23497" data-name="Trazado 23497" d="M21.74,63.25h0l-1.24-.51h0c-.28-.1-.56-.23-.82-.31a.69.69,0,0,0-.51,0,.45.45,0,0,0,0,.41.67.67,0,0,0,.41.26A1.78,1.78,0,0,1,21,64.33c.15.59,0,.8-.64.67l-.11.1a.44.44,0,0,1,.34.62c-.23.79-.49,1.59-.72,2.38a5.669,5.669,0,0,0-.1.75c-.36,0-.7.59-.49,1.13-.49.46-.49.48.38.89a2.578,2.578,0,0,1-.07.34,5.13,5.13,0,0,0-.39,2.38.79.79,0,0,1-.25.83.67.67,0,0,0-.21.53,5,5,0,0,1-.28,1.54c-.28,1.08-.44,2.18-.62,3.29s-.33,2.18-.51,3.28c-.1.64-.21,1.29-.33,1.9a.54.54,0,0,1-.36.26l-1.21.2a1.4,1.4,0,0,1,.1.16c-.13.15-.23.38-.38.41a7.229,7.229,0,0,1-1,.07c-.43,0-.85.08-1.28.08s-1-.18-1.49-.2c-.69-.06-1.39,0-2.08-.06-.2,0-.54-.15-.54-.23,0-.64-.43-.51-.77-.51H6.86V84.6a.56.56,0,0,0-.1,0c-.08.15-.15.33-.23.48H6.32c-.08-.43-.11-.89-.23-1.3a1.41,1.41,0,0,0-.47-.57.59.59,0,0,0-.38,0,2.81,2.81,0,0,0,0,.66c0,.36.15.7.18,1.06a1.28,1.28,0,0,0,.79,1.15,8.291,8.291,0,0,0,1.18.41,13.559,13.559,0,0,0,1.77.28h1.93c1.1.11,2.2.26,3.31.39a4.449,4.449,0,0,1,.9,0c.82.23,1.56.26,2-.54a1.45,1.45,0,0,1-.15-.77c.23-.95.51-1.87.77-2.82.05-.15,0-.36.1-.49.51-.69.36-1.51.51-2.28s.29-1.8.47-2.7.38-1.51.54-2.28.23-1.44.35-2.13a8,8,0,0,0,.18-.87c.13-.9.18-1.82.36-2.72s.49-2,.72-3c.1-.41.13-.85.26-1.26.18-.56.38-1.13.59-1.69C22.12,63.51,22.12,63.31,21.74,63.25Z" fill="#363f66"/>
  </g>
</svg>
