<svg xmlns="http://www.w3.org/2000/svg" width="56.108" height="52.621" viewBox="0 0 56.108 52.621">
  <g id="Calavera_cervezas" transform="translate(-2.348 -35.16)">
    <path id="Trazado_23119" data-name="Trazado 23119" d="M37.7,45.43a.07.07,0,0,0-.07,0v-.12a.27.27,0,0,0-.05.14l.12.05Z" fill="#363f66"/>
    <path id="Trazado_23120" data-name="Trazado 23120" d="M41.34,44.49v-.1h.08a.69.69,0,0,1-.13,0h0A.812.812,0,0,1,41.34,44.49Z" fill="#363f66"/>
    <path id="Trazado_23121" data-name="Trazado 23121" d="M40.55,41.92Z" fill="#363f66"/>
    <path id="Trazado_23122" data-name="Trazado 23122" d="M46.47,42.56Z" fill="#363f66"/>
    <path id="Trazado_23123" data-name="Trazado 23123" d="M36.09,39.51Z" fill="#363f66"/>
    <path id="Trazado_23124" data-name="Trazado 23124" d="M58,62.75c-.2-.3-.4-.6-.57-.92s-.37-.42-.52-.67c-.15.13-.27.25-.37.35.1.3.17.57.27.84s.1.57.25.62c.34.13.29.47.44.67a.48.48,0,0,1,0,.62,6.659,6.659,0,0,0-.42.62c-.15-.2-.25-.37-.35-.5a3.071,3.071,0,0,1-.34,0V64a1.12,1.12,0,0,1-.27-.1v-.1a2.32,2.32,0,0,0-.1-.42,1.2,1.2,0,0,0-.69-.89,1.14,1.14,0,0,0-.25-.87l-.59-.74c-.13-.17-.33-.35-.35-.54a2.11,2.11,0,0,0-.3-.72c-.42-.87-.84-1.76-1.29-2.68h.25c.42.62.65,1.34,1.31,1.76v.62l.38.22c.37.62.69,1.19,1,1.76l.14.25c0-.32.18-.55,0-.84a8.89,8.89,0,0,0-1.29-2.06v-.3h-.2a7.26,7.26,0,0,0-.44-.72c-.15-.18-.08-.33-.1-.5h0c-.19-.13-.42-.23-.49-.5s-.35-.42-.45-.64-.54-.08-.42-.52a3.06,3.06,0,0,1,.62.47A11.5,11.5,0,0,1,53.68,57h0c.4.37.65.89,1,1.26a3.34,3.34,0,0,1,.62,1c.1.2.18.38.42.28a3.84,3.84,0,0,0-1-2c-.1-.37-.17-.67-.27-1.09l-.84-.84c.07-.2.3-.42,0-.69-.08-.08-.05-.35,0-.5a7.249,7.249,0,0,1,.1-.87c-.3-.15-.05-.47-.18-.62l-.57.57a4.72,4.72,0,0,1,.15.62c-.39-.22-.77.2-1-.15-.13.05-.25.08-.5.15a2.14,2.14,0,0,0,.4-1.41v-.07c.3-.28.12-.62.15-.94a8.7,8.7,0,0,0,.17-1c0-.74.07-1.48.12-2.25v-.07c.35-.25,0-.72.3-.94v-.99A13.861,13.861,0,0,0,52.76,45h0v-.29a.14.14,0,0,0,.1,0,1.57,1.57,0,0,1,.05.3l.49-.13c.22.35.47.7.69,1a3.47,3.47,0,0,1-.14,1.18,6.36,6.36,0,0,0-.47,2.48c0,.1.05.22,0,.3a1.1,1.1,0,0,0-.15.62c0,.17-.18.47-.1.52.3.25-.08.39,0,.59s-.13.57.12.77a1.673,1.673,0,0,1-.15.4h.47a10.73,10.73,0,0,1,.3-2.78,10.192,10.192,0,0,1,.3-1.24c.1-.34.25-.67.37-1a6.24,6.24,0,0,0,.27-.72c.08-.24.37-.44.13-.74.37-.27,0-.52,0-.79A.68.68,0,0,0,54.5,45a1.83,1.83,0,0,1,.12-.29,3.92,3.92,0,0,0-.5-.33l.18-.17-.5-.32.77-.92v-.32c0-.12.15,0,.25,0,.08-.35.18-.69.25-1h.2c.05-.23.25-.4.22-.7a2.44,2.44,0,0,1,0-1.14.92.92,0,0,0,0-.71c-.1-.23,0-.53-.18-.77s-.29-.6-.49-.87a5,5,0,0,0-.65-.79c-.24-.23-.44-.47-.69-.7a.233.233,0,0,1-.2-.09,4.54,4.54,0,0,0-1.68-.53.8.8,0,0,1-.13-.19c-.57.19-1.19-.1-1.61.39-.12-.15-.2-.22-.27-.32-.2.12-.35.27-.54.37a4.62,4.62,0,0,1-.82.35l-.35.49a.8.8,0,0,1-.64.33c0,.12,0,.19-.08.24s-.27,0-.39,0c-.1.17-.2.35-.35.57v.62c-.69-.13-.52.49-.72.74a1.946,1.946,0,0,0,.13.5,2.32,2.32,0,0,0-.33-.18c-.57-.15-.81-.79-1.33-1-.08,0-.13-.1-.18-.15a4.66,4.66,0,0,0-1.63-1,6.56,6.56,0,0,0-1.19-.15,2.07,2.07,0,0,0-1.46-.59c-.3,0-.6.09-.84-.15-.25.22-.55-.15-.77,0a1.74,1.74,0,0,1-1.34.24,3,3,0,0,0-1.26.3.24.24,0,0,0-.08-.12h0c-.1,0-.2.15-.3.13L35,36.59v-.05c-.1.1-.23.2-.32.3-.7-.05-1.14.5-1.71.64a3,3,0,0,1-.15.38L33,38l-1,.28-.17.17-.07.07h-.45c-.2.18-.37.38-.54.55v.32l-.57.27c0-.64-.6-.44-.89-.69a5.179,5.179,0,0,0-.53.27,7.4,7.4,0,0,0-1.06,1.69c0,.39-.27.64-.4,1h0a3.09,3.09,0,0,0,.1.4c-.18.2-.27.37-.35.44-.52.1-1-.12-1.41.18a1,1,0,0,1-.15-.15A1.52,1.52,0,0,1,25,43a9.66,9.66,0,0,0-1.93.15,10,10,0,0,1-1.24.12,14.91,14.91,0,0,0-1.78.25,2.51,2.51,0,0,1-.23.25,1.29,1.29,0,0,1-.17-.15,20.74,20.74,0,0,1-3.1.79c-.05.12-.07.2-.1.27h-.09v-.59c-.38.2-.7.39-1,.57L15,44.47a6.06,6.06,0,0,1-.44.54c-.1-.1-.18-.15-.13-.12A1.89,1.89,0,0,0,13,46v.45l.22.22a7.8,7.8,0,0,1,.2,1.06v1.12a1.9,1.9,0,0,1,.42.3c-.12.24-.22.47-.32.64a3.67,3.67,0,0,1-.57.37h-.37c-.22-.22-.62,0-.74-.4H10.9c-.22.15-.42.3-.64.42-.2-.32-.35,0-.52,0a1.74,1.74,0,0,0-1.14.59,4.12,4.12,0,0,1-.92.67c-.1.17-.17.25-.22.35s0,.32-.13.39a2.35,2.35,0,0,0-.61,1.74,4.72,4.72,0,0,1,0,.84,6.76,6.76,0,0,0-.3,2.08v.22c-.22.25-.1.57-.15.87s-.12.57-.14.84a13.19,13.19,0,0,0,0,1.54.84.84,0,0,0,.12.32c0,.1-.12.2-.1.3a5.17,5.17,0,0,1,.15,1.23c.27.23.07.52.15.8s.1.52.15.76.17.52.1.6c-.3.27.19.42,0,.59s.12.42,0,.65c.32.24,0,.47,0,.72,0,0,.1.07.1.12a22.954,22.954,0,0,0,.1,2.58c.07,0,.17.14.3.24.17.57,0,1.19.42,1.69,0,0-.1.1-.1.12l.52,1.51c.22,0,.44-.1.67-.1s.47.08.71.1c.15-.2.25-.37.38-.52s.27-.42.39-.39c.42,0,.6-.45,1-.47H13a2.15,2.15,0,0,0,1,1.25.86.86,0,0,0-.15.2c.15.15,0,.37.1.52s-.15.42-.13.67a2.34,2.34,0,0,1-.12,1.38c-.05.1,0,.23,0,.32l.42.08v.07a2,2,0,0,1-.42,0,2.159,2.159,0,0,1-.07,1c-.15.25.07.49.07.74a1.33,1.33,0,0,0-.32,1.12,11.8,11.8,0,0,0,.1,1.26c-.55.62-1.39.1-2,.42a.911.911,0,0,1-.1-.1.39.39,0,0,0-.15,0l-.32.29c-.25-.27-.42-.17-.6,0a1.41,1.41,0,0,1-.17.18c-.27-.4-.57-.1-.74,0a.51.51,0,0,1-.62,0c-.37.15-.72.3-1.07.42a1.061,1.061,0,0,1-.15-.15l-.79.57-.15.13a1.932,1.932,0,0,0-.15-.57L6,81.6H5.18a1.7,1.7,0,0,1-.12.3c-.4-.2-.52.45-.92.3a5.86,5.86,0,0,1-.82.59c-.3.17-.62.27-.77.55s0,.42-.14.62,0,.42,0,.57c.35.19.4.56.69.71a.76.76,0,0,0,.2-.17c.08.12.15.32.23.35a2.884,2.884,0,0,1,1.51.17c.27-.2.52.1.79,0s.57.22.89.3c0,0,.12-.13.15-.13.59.28,1.26.2,1.86.42.07,0,.15-.12.2-.14.37.14.69.42,1,.42s.72.47,1,.12a4.06,4.06,0,0,0,1.24.37,3.28,3.28,0,0,1,.84.1,5.64,5.64,0,0,0,1.41.25h1.14l.28.27a.67.67,0,0,1,.29-.12,19,19,0,0,0,2,.15.05.05,0,0,1,.05,0c.2.24.42,0,.57,0a.61.61,0,0,1,.22.12l.3-.17a2.611,2.611,0,0,0,.3.19,1,1,0,0,0,.22-.17c.22.27.47.13.72,0,.32.35.72.15,1.06.18a2,2,0,0,0,1.14-.13c.35.27.72,0,1,.13.15-.13.22-.25.37-.3a2,2,0,0,0,.07.27,3.21,3.21,0,0,0,.84-.17.67.67,0,0,1,.8.05c.29-.1.57-.2.81-.3a1.45,1.45,0,0,1,.2.15,5.76,5.76,0,0,1,.45-.42,1.14,1.14,0,0,0,.87.27l.37-.55c.29.38.67.2,1,.25.49-.37.91-.07,1.34.13a1.6,1.6,0,0,0,1.13.12,2.29,2.29,0,0,0,.15-.27c.13.15.2.25.23.27a5,5,0,0,0,2.08-.55c.54,0,1.09.13,1.43-.24.23,0,.45.12.52,0s.38-.08.57-.13.38-.12.55-.15c.54-.07,1.11-.14,1.68-.19v-.25H37.81c-.22,0-.42.1-.69-.17.67.09,1.21-.25,1.78-.15a.24.24,0,0,0,.22,0c.72-.44,1.59-.25,2.36-.54a5.94,5.94,0,0,1,1.9-.18h2.6c.23,0,.45.05.62-.12.2.32.38-.05.57,0s.13.1.13.13a1.42,1.42,0,0,1,.42-.1,2.58,2.58,0,0,1,.52.1,4.352,4.352,0,0,1,.12-.62c-.94.4-1.83.07-2.75.3,0,0,0-.08-.1-.08-.24,0-.57-.1-.74,0s-.42-.18-.67,0a1.08,1.08,0,0,1-.47.15c-.17,0-.37-.12-.54-.12s-.38.12-.55.12-.2-.1-.32-.15a.63.63,0,0,1-.74.1.62.62,0,0,0-.62,0c-.47.2-1,.27-1.46.52h-.43a2.6,2.6,0,0,1,.15-.32,4.2,4.2,0,0,1,1.69-.77l.54-.54a2.77,2.77,0,0,0,1.69-.92,3.3,3.3,0,0,0,.1-.69,3.74,3.74,0,0,0-.25-.6c.1-.37.44-.77.22-1.09s.3-.74,0-1.11a.224.224,0,0,0-.12-.15,1.87,1.87,0,0,0,.1-1.39,7.9,7.9,0,0,1-.1-1.21,7.16,7.16,0,0,0-.13-2.31,1.768,1.768,0,0,1,.1-.42l-.15-.14c0-.1.1-.2.15-.28a.84.84,0,0,1,0-.77c.07-.19-.15-.52-.23-.74a1.49,1.49,0,0,0,.1-.42,2.29,2.29,0,0,0-.14-1.16,2.12,2.12,0,0,0,.14-1.24,2.11,2.11,0,0,0-.12-1.24c0-.07.05-.22.07-.35a1.88,1.88,0,0,0-.09-1.36,1.85,1.85,0,0,0,0-1.56.86.86,0,0,0,0-1.06l.17-.18c-.29-.2-.05-.44-.07-.67s-.07-.2-.05-.24a1.66,1.66,0,0,0,.05-1.14,1.81,1.81,0,0,1-.07-.77c0-.15.12-.25,0-.42s.15-.28,0-.5,0-.35.1-.47,0-.42-.1-.59c.37-.72-.07-1.37-.12-2.08a1.07,1.07,0,0,1,.14-.2,4.25,4.25,0,0,0-.32-.72c.25-.2-.17-.45,0-.62s0-.52.17-.79l.42-.27a1.74,1.74,0,0,1,0-1.57,1.79,1.79,0,0,1-.13-.42c0-.34,0-.71,0-1.06s-.07-.45-.07-.65.07-.39.07-.59-.1-.67-.15-1v-.05h0c-.12-.1-.25-.17-.35-.25.08-.22.13-.39.18-.57.15.13.27.25.39.37V48c.25.5.45.84.6,1.21a1.23,1.23,0,0,1,.15.77,1.88,1.88,0,0,1,.49,1.32h.27c.13-.5-.27-1-.17-1.37a14.55,14.55,0,0,1-.89-3.29,2.71,2.71,0,0,0,.17-.25c-.07-.07-.15-.12-.15-.2V44a.77.77,0,0,0,.25-.1,1.08,1.08,0,0,0,.25-.24c-.15-.18-.27-.3-.4-.45.15-.22.28-.4.05-.59.32-.2-.05-.38,0-.55l.17-.25a1.24,1.24,0,0,1-.15-.91c.4-.08.37.27.5.39.12-.05.25-.07.39-.12a.956.956,0,0,0,.05.42c.05.1.08,0,.13,0h.1l.07.25a.61.61,0,0,1,.05.12l.1.25a3.2,3.2,0,0,1,.32,1.44c.35.44,0,.74-.15,1,.1.47.18.89.25,1.33-.4.42.27.85,0,1.27.25.2.42.37.62.52h.22c.13.29.37.37.65.47a5.75,5.75,0,0,1,.76.42h.75a1,1,0,0,1,.86-.45c.4,0,.55-.49,1-.47h.22a.25.25,0,0,1,.13,0c.05.1.07.18.1.25-.05.15-.07.25-.12.4h.91a1.067,1.067,0,0,1,.1-.4,4.1,4.1,0,0,1,.15.57c0,.25.13.52,0,.69a1.15,1.15,0,0,0-.1.57,19.06,19.06,0,0,0-.18,2.16c0,.05-.1.1-.14.17l.17.2c-.05.1-.17.2-.17.3a8.81,8.81,0,0,1-.15,1.53c-.05.52,0,1.07,0,1.61a.89.89,0,0,0,0,.37c.27.4.35.87.6,1.29.34.62.64,1.26,1,1.86A10.75,10.75,0,0,0,54,61.34a.92.92,0,0,1,.32.79,1.33,1.33,0,0,0,.22.67c0,.05.15.05.23.07a2.5,2.5,0,0,0-.18.23c.08.12.13.27.2.37a1.45,1.45,0,0,0-.17.19c.35.15,0,.6.32.77,0,.42.5.3.6.57l-.13.23c.27,0,.35.22.57.32.27-.2.57.07.92,0a2.35,2.35,0,0,0,.91-.37c.15-.07.33-.12.4-.17s-.12-.32-.07-.42C58.73,63.84,58.38,63.29,58,62.75ZM4,83H3.94v-.14H4Zm38.86-3.51h0v.15h0ZM36,37.58l.39-.39c.08.05.18.07.23.15s.17.29.27.42.22.12.45.27l-.7.25a2.46,2.46,0,0,0-.32-.3c-.25.1-.42.3-.69.05a3.42,3.42,0,0,1,.37-.45Zm-.57,3.89h.05v.15H35.4Zm-1.07-3.64a3,3,0,0,1,.87.84l-1.78.42a4.76,4.76,0,0,1,.88-1.26Zm-3.12,3.32h0v-.2a8.589,8.589,0,0,0,.69-1.31,1.62,1.62,0,0,1,.27-.3c.42.1.77.17,1.27.27-.55.47-.85,1-1.54,1.09-.1,0-.15.3-.37.35a2.909,2.909,0,0,0-.35.12.24.24,0,0,1-.1.1l-.05-.05a.21.21,0,0,0,.15-.07ZM28,46.77a13.24,13.24,0,0,1,.24-2.1,15.15,15.15,0,0,0,.4-2.67A2.79,2.79,0,0,1,29,41a1.64,1.64,0,0,1,.25.22l.32-.25-.15-.15c.05-.07.07-.12.1-.15-.05-.29-.1-.54-.15-.86.3.12.54.2.77.32a6.66,6.66,0,0,1,.67.49c-.2.2-.15.52-.52.6a2.36,2.36,0,0,0-.65.3c-.07,0-.1.1-.17.14a2.46,2.46,0,0,1-.12-.34c-.08.22-.15.39-.23.59l.15.15c-.1.25-.35.5,0,.74a4.38,4.38,0,0,0-.15.57,4.27,4.27,0,0,0,0,.62,3.28,3.28,0,0,1,0,.7c0,.19.17.29.07.52a2.17,2.17,0,0,0-.07.57,3.28,3.28,0,0,0,0,.47c0,.1.12.2.15.27.37-.37.71-.74,1.11-1.11l-.12-.2.49-.1a2.49,2.49,0,0,1-.29-.25l-.57.17c-.08-.1-.15-.17-.2-.24.1-.18.2-.4.32-.65l.52-.34c.45-.08,1,.14,1.54-.13a1.789,1.789,0,0,1-.13.22c0,.33.27.45.52.62a.81.81,0,0,0,.1-1c-.12-.2.1-.5-.22-.75h.52a1.45,1.45,0,0,1,.44.12c.52.47.55.57.28,1.14a.67.67,0,0,1,.17.2,3.681,3.681,0,0,1,0,.47c.3.07.57.12.77-.23,0-.22-.32-.39-.08-.66s-.1-.45-.1-.67a6.589,6.589,0,0,0,0-.77v-.82a1.7,1.7,0,0,1-.64,0c-.22-.07-.37.15-.59.1a1.123,1.123,0,0,0-.67.1c.12-.2.15-.32.22-.4a4.71,4.71,0,0,1,.62-.54,9.93,9.93,0,0,1,1.11-.6.852.852,0,0,1,.85.18l-.2.39s-.08-.07-.15-.14a3.26,3.26,0,0,0-.15.42c.07.12.25.37.4.62a3.449,3.449,0,0,0-.2.32c.07.1.2.2.27.32a3.72,3.72,0,0,1,.1.37,1.21,1.21,0,0,1,.72.94,1.89,1.89,0,0,0,.3,1c-.4.1.07.37-.08.57s0,.47,0,.72a1.32,1.32,0,0,0,.76-.74c.2.1.4.17.65.3a.26.26,0,0,0,0-.15h.3v.1a1.739,1.739,0,0,1-.22,0v.07a2,2,0,0,0-.34.13v.69a1.92,1.92,0,0,0-.75.1c-.25.15-.54,0-.72.1a.483.483,0,0,1-.62,0c-.12.05-.22.1-.37.15V46.2l-.59-.2c-.27.18-.62.35-1,.57-.2-.24-.47.13-.79,0l.32-.52v-.79l-.47-.39c.13.32-.17.64,0,1-.15.22-.33.49-.52.79-.38-.3-.72.39-1.09,0-.28.37-.72,0-1,.25s-.6-.08-.92,0a2.47,2.47,0,0,1-1.19-.07A.57.57,0,0,0,28,46.77ZM17.64,45.24c.57-.3,1.16-.15,1.53-.47a14.4,14.4,0,0,0,2.43-.52,1.29,1.29,0,0,0,1,0,7.71,7.71,0,0,1,1.54-.38c.42-.07.82-.1,1.24-.14a3.624,3.624,0,0,0,.67-.2c.23-.05.37-.08.57-.13.17.35.59.47.66.87a2,2,0,0,1,.13.62V45a3,3,0,0,1-.2.47,6.379,6.379,0,0,1,.2.8,3.05,3.05,0,0,1,0,.49,3.51,3.51,0,0,0-.34.18l-.7-.15a.58.58,0,0,0-.05-.2.72.72,0,0,0-.59.1c-.25-.23-.55-.1-.84-.18s-.4.08-.6.08a.84.84,0,0,1-.2-.05L24,46.7l-.14.15c-.08-.13-.18-.25-.23-.33H22.49a2.16,2.16,0,0,1-1-.17c-.29-.17-.67.35-.84-.17L20,46.5a1.13,1.13,0,0,0-.91-.3,17.6,17.6,0,0,1-2.31-.2Zm-3,15.3h0v.15h0Zm-1,4.46v.79l-.47.6v.3l.22-.18.52.67c-.1.1-.15.18-.22.25h-1.8c-.27-.37-.86-.07-1.06-.45-.15-.69-.3-1.28-.45-2l-.25.02.15-.49c-.27-.08.05-.25-.07-.4a1.7,1.7,0,0,1-.22-.52.28.28,0,0,1,0-.22c0-.32-.08-.65.14-.92-.12-.27-.29-.52-.05-.82.05,0-.07-.24-.09-.37-.1-.37-.18-.74-.3-1.19.27-.19,0-.44.05-.67s-.15-.39-.25-.61a2,2,0,0,0,.3-.47,1.14,1.14,0,0,0-.15-.5.53.53,0,0,1,.12-.15.69.69,0,0,0,.05-.17c-.1-.13-.22-.25-.35-.4l.13-.17a5.19,5.19,0,0,1-.08-.52A10.71,10.71,0,0,0,10,55.22a1.94,1.94,0,0,1,1.81.1c.25.1.5.15.82.25l.35.66v.47a2.42,2.42,0,0,0,.32.55,2.36,2.36,0,0,0,.52.32l-.35.08v1.53c0,.25-.05.5.15.7-.2.24,0,.47,0,.71a3.47,3.47,0,0,0,.1.82,2.219,2.219,0,0,1-.33.17c.1.13.2.2.18.23a.47.47,0,0,0-.05.59.63.63,0,0,1,0,.79,7.278,7.278,0,0,0,.17,1.12l.47.37a1.9,1.9,0,0,1-.48.32ZM14,55.37l-.47-.47.5-.38v-.09l-.59.09a3.43,3.43,0,0,1-.2-.42.079.079,0,0,0,.07-.05l-.44-.37a2.24,2.24,0,0,0-.47-.29,9.13,9.13,0,0,1-2.4-.33c0,.18,0,.35-.13.45a1.49,1.49,0,0,0-.39,1.31,4.06,4.06,0,0,0-.48.4v1.46c-.29.25-.09.57-.14.84,0,.08.1.15.07.15a10.35,10.35,0,0,0-.07,1.16c0,.2.19.4,0,.62.22.25.08.52.1.8s0,.52,0,.76-.1.5.15.7a.46.46,0,0,0-.13.59c.18.25.1.47.13.72a5.3,5.3,0,0,1,0,.69v.77a1.86,1.86,0,0,0,.27,0c-.32.5,0,1,.1,1.49a13.669,13.669,0,0,0,.32,1.34l.47.52c.32-.13.45.17.67.34l.27-.2a3.45,3.45,0,0,1,.23.28h1.28c.3.49,1,.27,1.29.71-.2.5-.2.5.1,1l-.37.52a1.19,1.19,0,0,1-.25-.2c-.29.28-.67.13-1,.13s-.65-.13-1-.13-.52-.47-.92-.22c-.71-.17-.84-.84-1.16-1.49v-.66a.54.54,0,0,1-.15-.18c-.15-.3-.27-.59-.44-.89a5.77,5.77,0,0,1-.35-.92,3.92,3.92,0,0,1-.15-1c0-.32-.22-.6-.17-.94a3.45,3.45,0,0,0-.13-.7,6.43,6.43,0,0,0,0-.76c0-.23-.2-.45-.15-.7,0-.07-.1-.15-.17-.27.32-.37.17-.77.17-1.12s-.35-.61,0-1c0-.08-.15-.15-.15-.22,0-.72-.4-1.39-.12-2.11a.17.17,0,0,0,0-.15c0-.17-.12-.37,0-.49a1.81,1.81,0,0,0,.23-.7Q7.9,55.376,8,55c0-.3,0-.62,0-.92a.819.819,0,0,1,.15-.17L8,53.76l.3-.3v-.57l1.31-1.54a.44.44,0,0,1,.08.1c.3-.17.62-.34.94-.54.32.17.64.37,1,.57a3.21,3.21,0,0,1,1-.22,1.68,1.68,0,0,1,1.07.32,4.09,4.09,0,0,0,.86.64c-.1.27-.17.52-.25.69s.1.43,0,.57a1,1,0,0,0,0,.77A1,1,0,0,1,14,55.37Zm-4.58.34Zm3.2,26.75a.65.65,0,0,1-.15-.17l.24-.2.23.5c-.2.07-.37.15-.6.22-.13-.12-.08-.2.25-.35Zm-8.48.25h.75c.39-.47,1-.47,1.43-.62s1.19-.29,1.79-.47c.1,0,.17-.17.27-.25.32.1.5-.12.74-.19.05,0,.1.07.18.1.52-.15,1-.33,1.66-.5l.17-.17.57.15v.49c-.14.3-.27.55-.42.82h-.22a5.93,5.93,0,0,0-1.61.17c-.15.25-.32-.2-.47,0s-.35,0-.47.12-.35,0-.5,0a1.34,1.34,0,0,0-1,.42.89.89,0,0,0-1,0l-.18-.13c-.47.08-.91.18-1.41.25a1.29,1.29,0,0,1-.31-.19Zm7.36,0v.15h-.05v-.15Zm-7,1.06h0V83.6h0ZM5,84.94v-.07a1.739,1.739,0,0,1,.39-.05v.12Zm.24-1.14a4.523,4.523,0,0,1-.47-.1c.25-.07.45-.15.65-.22s.37.17.49.1a1.71,1.71,0,0,1,.65-.15,3.086,3.086,0,0,0,.59-.12,2,2,0,0,0,.35.12,1.79,1.79,0,0,0,.82.07,5.169,5.169,0,0,1,1-.07,4,4,0,0,1,.92,0c.2,0,.34-.25.54-.05.1-.2.35.15.42-.12.25,0,.55-.13.77.15l.77-.38.52.55v.54c-.15.08-.32.23-.47.2a6.81,6.81,0,0,1-2.38-.15c-.39.18-.77,0-1.16,0a1.72,1.72,0,0,1-1-.12.853.853,0,0,0-.42.09,1.32,1.32,0,0,0-1.09,0c-.1,0-.17-.34-.45-.24s-.34-.25-.56,0-.35-.07-.48-.1ZM13.16,85v.14h-.05V85Zm-.62-.15V85h0Zm-.3-.3v.15h-.05v-.15ZM8.42,84.4v.15h0Zm9.22,2.43c.05,0,.07.07.12.1h-.05a1.245,1.245,0,0,1-.1-.13h0l-.81.2a1.729,1.729,0,0,0,.2-.3l-1.29-.35a1.21,1.21,0,0,1-.2.15,7.09,7.09,0,0,0-2.3-.47,4.941,4.941,0,0,1-.84-.15,1.323,1.323,0,0,1-.87-.15h-.3a9.091,9.091,0,0,1-1.83-.17A6.64,6.64,0,0,0,8,85.44a7.2,7.2,0,0,0-1-.15,3.33,3.33,0,0,1-1-.18.72.72,0,0,1-.3-.22c.25-.07.48-.25.67-.2s.42.23.62,0c.35.4.89-.09,1.29.35a.49.49,0,0,1,.79,0,1,1,0,0,0,.25-.17c.42.1.82.22,1.21.29a13,13,0,0,0,1.54.15c.22,0,.4.28.67.1s.42,0,.64,0a5.62,5.62,0,0,1,.62.15,3.939,3.939,0,0,1,.7.12c.32.13.69,0,1.09.15a8.22,8.22,0,0,0,1.61.23l.37.19c-.05.18-.13.35-.18.5h0Zm.84,0s-.07-.08-.1-.12H18.1a.5.5,0,0,0-.09.12h-.05c.05,0,.07-.07.12-.1h0c.08-.15.15-.3.25-.52a1.608,1.608,0,0,0,.05.52h0c.05,0,.07.07.12.09s.01-.05-.02-.02Zm.62.3h0L19,87a.84.84,0,0,0-.12-.1l.05-.05c0,.05.07.08.1.13a.294.294,0,0,0,.12.1Zm.32-.45h-.05V86.5h.05Zm1.76.27v-.24h.08a1,1,0,0,1,0,.24ZM28,87h0v-.2h0Zm7.55-.89v-.13h.25V86a.92.92,0,0,0-.28.06Zm2.6-1V85a.79.79,0,0,1,.25,0v.12Zm1-.27H39v-.15h.05Zm1.09-1.07h0V83.6h0Zm2.5-7.85a4.328,4.328,0,0,0-.37.27c.07.15.15.25.2.37l-.15.45c-.13.47.2.92,0,1.39.3.29,0,.59-.05.89a1.829,1.829,0,0,1,.28.1c-.23.57,0,1.16-.13,1.76a1.53,1.53,0,0,0-.77.86.55.55,0,0,1-.59.4,1.08,1.08,0,0,0-.47.15,1.66,1.66,0,0,0-.6.4c-.19.22-.44.17-.66.22a6.278,6.278,0,0,0-.65.3,3.07,3.07,0,0,0-1.31.69.82.82,0,0,1-.52.2,3.89,3.89,0,0,0-1.69.59.46.46,0,0,0-.64,0,1.5,1.5,0,0,1-.94.25c-.45.2-.82.37-1.31.62H32l-.27.27h-.15a3.17,3.17,0,0,0-1.36.22,1,1,0,0,1-1.07-.1c-.22.3-.49,0-.77.1-.12,0-.34-.1-.39,0s-.45,0-.65.13a.6.6,0,0,1-.49,0,.44.44,0,0,0-.55.15l-1.58-.08H24.4a2.53,2.53,0,0,1-.38.07c-.1,0-.19-.1-.32-.15a3.763,3.763,0,0,0-.62-.15,5.28,5.28,0,0,0-.69,0c-.25,0-.22-.09-.32-.12a1,1,0,0,0-.82.1L21,85.91a.37.37,0,0,1-.52.1c-.2-.13-.35-.15-.52,0a4.3,4.3,0,0,0-.62-.27,4.779,4.779,0,0,0-.77-.15,1,1,0,0,1-.22.12c-.28-.17-.52-.34-.8-.49-.17.07-.32.15-.52.22a1.92,1.92,0,0,0-.09-.32.81.81,0,0,1-.62-.27c-.18-.15-.47,0-.67-.23a1.59,1.59,0,0,0-.57-.27l-.8-.25.7-.07.35-.59c-.08-.1-.13-.18-.18-.23a3.569,3.569,0,0,0,.45-.27,1.29,1.29,0,0,0-.15-.17,1,1,0,0,0,.15-.18.75.75,0,0,0-.55-.64c-.07.07-.2.17-.32.3-.17-.33.17-.38.25-.55a2.457,2.457,0,0,0,0-.77c0-.28-.13-.39-.17-.62a1.7,1.7,0,0,0,.29-.12c0-.07.05-.12,0-.15h0l-.17-.07a.142.142,0,0,1-.12-.08A3.44,3.44,0,0,0,15,78.2a3.12,3.12,0,0,0-.12-1.58,3.79,3.79,0,0,0,0-2.11l.12-.17a.34.34,0,0,1-.07-.3.25.25,0,0,1,0-.12V73.8a.55.55,0,0,0,0-.18.36.36,0,0,0-.05-.22h-.07l-.25-.07c.1-.17.2-.3.35-.52a4.38,4.38,0,0,0-.1-1.07,1.31,1.31,0,0,1,.1-1.16.68.68,0,0,0,0-.45c-.05-.32.15-.66-.14-.94.27-.27.09-.62.14-.91s-.07-.45.15-.62a1.31,1.31,0,0,1-.17-.2l.4-.25c-.13-.25-.23-.42-.33-.62a2.12,2.12,0,0,0,.28-1.46,2,2,0,0,1,.14-1,4.6,4.6,0,0,1-.14-.47,2.185,2.185,0,0,0-.15-1.24,19.83,19.83,0,0,0-.15-2,2.38,2.38,0,0,0,0-.84,1.742,1.742,0,0,1,0-.72,1.77,1.77,0,0,0-.15-.42,1.17,1.17,0,0,0,.15-.27c0-1.27.1-2.55.17-3.84a1.77,1.77,0,0,1,.13-.87c.17-.3-.1-.67-.15-1,0-.07-.13-.15-.15-.25s0-.47,0-.69a5.634,5.634,0,0,0-.14-.62,1.74,1.74,0,0,1,.07-.52l-.25-.25a2.17,2.17,0,0,1,.38-1.3.839.839,0,0,1,.12-.32,4.478,4.478,0,0,0,.15-.5c.05-.17-.1-.17-.15-.25l.4-.76.37-.18.25.15c0-.15.05-.3.07-.54a2.91,2.91,0,0,0,.4.39,1.24,1.24,0,0,0,.22-.12c.22.1.42.22.69.34,0,.08.13.23.23.38a2,2,0,0,1,.94.14,2.35,2.35,0,0,0,1.09.18,5.661,5.661,0,0,1,.79.1l.15-.1h0l.3.3a1.53,1.53,0,0,1,.44-.15A2.25,2.25,0,0,1,22,48l.49.14c.05,0,.15-.1.23-.17a2,2,0,0,0,1.21.15c.15,0,.37-.15.45-.1a2.98,2.98,0,0,0,.57.1,4.86,4.86,0,0,0,.54,0,.76.76,0,0,1,.4.15,4.043,4.043,0,0,0,.57-.1,7.7,7.7,0,0,0,2.18.1,2.87,2.87,0,0,0,.54-.1,3.1,3.1,0,0,0,.47.12,5.441,5.441,0,0,0,.7,0,2.49,2.49,0,0,1,.61,0c.2.05.3-.17.52-.07a2.28,2.28,0,0,0,.57.07,1.19,1.19,0,0,0,.62-.15,2.259,2.259,0,0,1,.67.08,4.19,4.19,0,0,1,2.08,0l.75-.17.22-.25c.37.1.72-.07,1.14,0a4,4,0,0,0,1.24-.2,1.26,1.26,0,0,1,.1-.15c.34-.2.64,0,.94-.22s.52,0,.77-.15c.09-.08.32,0,.49.07a4.091,4.091,0,0,1,.55.28,3.689,3.689,0,0,1,.12-.62,5.251,5.251,0,0,0,.3.59,6.208,6.208,0,0,0-.5.4,1.2,1.2,0,0,1,.55.07,2.27,2.27,0,0,1,.32,1.51,5.79,5.79,0,0,0-.13,1.09v1.84c0,.27.15.56-.12.79.19.2.12.44.12.69a1.57,1.57,0,0,1,0,.3h0a.44.44,0,0,1-.1.08.11.11,0,0,1,.07.1.07.07,0,0,1,0,.07c0,.05,0,.08,0,.12a.39.39,0,0,1,0,.15.09.09,0,0,1,0,.08,2.5,2.5,0,0,0,0,1.41.74.74,0,0,1-.08.52c-.12.27.4.52,0,.79.27.25.1.57.12.87s0,.62,0,.92a2.32,2.32,0,0,0,0,.91c.25.52,0,1,0,1.49v8.17a4.929,4.929,0,0,1-.1.77c.3.47-.27,1,0,1.59l.24.09c-.1.23-.22.45-.32.7.08.2.3.39,0,.67a.34.34,0,0,0,0,.34,5.39,5.39,0,0,1,.15,1.69.64.64,0,0,1,.42.28ZM14.79,53.24v-.15h.05v.15Zm25-8v-.15h0Zm.91.94V46.1H41v.08a.66.66,0,0,0-.28.05Zm.05.15v.14H40.7v-.14Zm1.07-.3H42v.27a.35.35,0,0,1-.08,0,2.316,2.316,0,0,1-.08-.22Zm.82-5.25a7.861,7.861,0,0,1-.18,1.29,2.56,2.56,0,0,0-.12.86c0,.4-.13.82-.17,1.22h-.25V43.08l-.3-.3a1.59,1.59,0,0,0-.17.47,1.73,1.73,0,0,1-.15.87v.18a.19.19,0,0,0,.12,0v.6h-.07v-.6a.6.6,0,0,1-.3-.59.63.63,0,0,0-.05-.3c-.07-.15-.17-.29-.22-.39,0-.33.32-.52.17-.92s.13-.57.15-.87a1.55,1.55,0,0,1,.22-.84l-.22-.4c-.42,0-.32.48-.57.62a1.82,1.82,0,0,0,.2.25,1.61,1.61,0,0,1-.3.15,1.23,1.23,0,0,0,.13.82h0c.05,0,.07.07.12.1l-.05.05c0-.05-.07-.08-.09-.13h0a.32.32,0,0,0-.13.1.58.58,0,0,0-.15.42c0,.23.15.5.08.67a.76.76,0,0,0,0,.65c.22.39.07.76.12,1.09a4.741,4.741,0,0,1,.42.39h-.54V44.9c-.32-.45-.62-.84-.94-1.26.4-.25-.05-.45,0-.72a4.47,4.47,0,0,0,0-.82l-.4.2a1.23,1.23,0,0,0,.1.89c-.1.3-.4.59-.07,1l-.4-.2v-.72a4.13,4.13,0,0,1-.22-.62.76.76,0,0,0-.23-.54l.15-.15a1.85,1.85,0,0,1,0-1.46,2.858,2.858,0,0,0-.23-.65,3.81,3.81,0,0,1-.34.22c-.08.45-.15.87-.18,1.27s0,.82,0,1.21a10.259,10.259,0,0,1,.18,1.39.48.48,0,0,0,.49.44c-.15.25-.27.47-.42.75l-.84-1a5.229,5.229,0,0,0-.12-.54c-.08-.23-.25-.4-.23-.67s-.17-.42-.17-.7-.12-.47-.12-.69a4,4,0,0,0-.08-.62c0-.27-.12-.47.05-.74a.63.63,0,0,0-.12-.67h0c-.05,0-.07-.07-.12-.1h.05a1.245,1.245,0,0,1,.1.13h0a.14.14,0,0,0,.13-.05c.07-.1,0-.27.09-.4.3-.14.57-.49,1.07-.19.12.07.42-.1.69-.18v-.62l.7-.69a1.24,1.24,0,0,0,1.14.47h0c0-.05.07-.08.1-.13h0a.463.463,0,0,1-.12.1h0v.32c.24.2.47.39.67.54.17-.05.32-.1.54-.15v.43c0,.13.33.17.5.24a4.511,4.511,0,0,0,.37-.32c.08,0,.13,0,.15.05.27.32.52.64.74.89a3.152,3.152,0,0,0-.34.99Zm.42,5.84h0v-.15h0Zm1.21-6.41h0v-.15h0Zm3-2.08,1-1.29c.3.1.35-.1.47-.25s.33-.2.52-.32c.2,0,.5-.12.7.12l.84-.42c.4.18.84-.34,1.31-.12s1,0,1.32.44c.17.25.34.52.52.77a5.76,5.76,0,0,0,.42.45,2.68,2.68,0,0,1,.81,2.4c0,.2-.17.4-.14.62a4.711,4.711,0,0,1,0,.54,3.82,3.82,0,0,0-.57,1.27,2.66,2.66,0,0,1-.5,1l-.22.38c-.65.22-.65-.65-1.19-.62.1-.35-.1-.7.17-1,.08-.08-.07-.35-.12-.62a2,2,0,0,1,.3-.15,2.24,2.24,0,0,1,.32,1.26c.17-.12.27-.17.3-.25a5.83,5.83,0,0,1,.69-1.24,3.86,3.86,0,0,0,.42-1l-.69-.62H53.7v.37l-1.19.32c-.07-.34-.17-.74-.27-1.19l-.85.08a7.378,7.378,0,0,0-.89.12c-.1,0-.27.18-.47.27v.65c.18.3.3.64.72.72a.76.76,0,0,0,.47.74c.4-.42.77-.82,1.26-1.39a2.17,2.17,0,0,1-.12.47,1.71,1.71,0,0,1-.4.35l.18.17c-.18.33-.37.65-.57,1,.07.32.72,0,.72.54-.42.28-.87.57-1.27.85-.47-.28-.81-.72-1.41-.77-.12-.27-.27-.57-.39-.79-.5-.33-.95-.6-1.27-.82-.15-.5-.25-.87-.34-1.26h0l.07-.08a.59.59,0,0,1-.12-.2h0a2.3,2.3,0,0,1,.79-1.06,3.18,3.18,0,0,1,.57-.42v-.3c.2-.1.42-.2.59-.3a.74.74,0,0,0,.05-.22h.45a3.34,3.34,0,0,1-.18-.4h-.12c-.47.22-.77.67-1.21.94a2.24,2.24,0,0,0-.77.89c-.15.27-.37.52-.62.87v.54a2.68,2.68,0,0,1-.37.25.33.33,0,0,0-.1-.07V39.09a.82.82,0,0,0,.6-.91Zm-1.93,1.46h0v.15h0Zm6,7a4.07,4.07,0,0,0,.12.47l-.17.18-1-.52c.32-.25.62-.47.92-.72.17.1.32.17.57.3-.18.13-.28.2-.43.32Zm.42-1-1.26.17-.72-.37-.08.07c.1.13.2.28.3.43-.07.22-.12.44-.22.74l-.35.05-.72.72c-.14-.5-.24-.9-.37-1.29H47.7a3,3,0,0,0-.27.34c-.13-.12-.23-.24-.33-.32l-.22.15c-.07-.07-.17-.1-.17-.17-.08-.3-.37-.55-.4-.82-.07-.92-.59-1.73-.47-2.67h0c-.05,0-.07-.08-.12-.1h.05a.84.84,0,0,1,.1.12h0c.32.07.35.39.45.59a5.2,5.2,0,0,0,1.14,1.66c-.2-.67-.62-1.09-.62-1.64a1.62,1.62,0,0,0-.57-1.68l-.62.55c-.25-.72-.5-1.37-.72-2H45c.23.23.43.45.67.65a.76.76,0,0,0,.3.1h0a1.11,1.11,0,0,0,.25-.32c.23.32.62.45.7.87a1.76,1.76,0,0,1,.71.77,3.74,3.74,0,0,0,.75.79,3.163,3.163,0,0,1-.15.49l-.69.5c.56.25.54.89,1,1.11.07.52.54.5,1,.72-.18-.42-.6-.49-.8-.91v-.55c.1-.15.23-.3.35-.45a.451.451,0,0,1,.57,0c.4.37.94.47,1.34.79h.22c.3-.25.55-.69,1.16-.59-.06.45-.44.91-.61,1.52Zm-5.45-3.35h.1a1.173,1.173,0,0,1,0,.27h0c.05,0,.07.08.12.1h-.05a.5.5,0,0,1-.09-.12c-.02-.05-.08,0-.1,0a.87.87,0,0,0,.03-.23Z" fill="#363f66"/>
    <path id="Trazado_23125" data-name="Trazado 23125" d="M44.79,41.47h.09a.294.294,0,0,0,.08.24c.08.07-.05-.17-.08-.24Z" fill="#363f66"/>
    <path id="Trazado_23126" data-name="Trazado 23126" d="M45.11,42.12c0-.08-.08-.18-.1-.25a2.16,2.16,0,0,1,.1.25Z" fill="#363f66"/>
    <path id="Trazado_23127" data-name="Trazado 23127" d="M55.63,65.13h0a1.829,1.829,0,0,1,.15-.25A2.749,2.749,0,0,1,55.63,65.13Z" fill="#363f66"/>
    <path id="Trazado_23128" data-name="Trazado 23128" d="M27.47,42Z" fill="#363f66"/>
    <path id="Trazado_23129" data-name="Trazado 23129" d="M35.1,36.59Z" fill="#363f66"/>
    <path id="Trazado_23130" data-name="Trazado 23130" d="M53.75,57.55c-.12-.15-.07-.3-.07-.47h0C53.68,57.2,53.6,57.37,53.75,57.55Z" fill="#363f66"/>
    <path id="Trazado_23131" data-name="Trazado 23131" d="M32,38.52l-.07.08h0C31.93,38.55,32,38.52,32,38.52Z" fill="#363f66"/>
    <path id="Trazado_23132" data-name="Trazado 23132" d="M48.1,58.86a1.67,1.67,0,0,0-.69-1v-.39c-.23-.1-.45-.23-.67-.32a3.29,3.29,0,0,1,.54,1,18.412,18.412,0,0,0,1,1.78c.13.2.3.4.42.6.33.47.65.94,1,1.44s.52.71.72,1a1.036,1.036,0,0,1-.15.72c-.27.4,0,.67.12,1a.41.41,0,0,0,.4-.43.315.315,0,0,1,.37-.34.406.406,0,0,1,.37.37c.05.22,0,.69.18.92.27.44.07.79-.1,1.16-.35-.17-.57-.2-.65-.12a2,2,0,0,0-.22.44c.5.67.57,1.66,1.41,2.13l.45-.64a3.4,3.4,0,0,0-.13-.57,2.441,2.441,0,0,1,.28-.3.88.88,0,0,0-.13-.22h0v-.84s-.1-.13-.07-.15a4.8,4.8,0,0,0,.1-1.56.55.55,0,0,0-.13-.25l.13-.13a5.366,5.366,0,0,0-.2-1A2,2,0,0,1,52,62.4a3.43,3.43,0,0,0-.4-1c-.2-.37-.32-.79-.54-1.14s-.52-.79-.8-1.19a.87.87,0,0,1-.22.08c.4.81.79,1.63,1.14,2.45.12.27.17.54.3.92-.67-.55-.74-1.32-1.14-1.84s-.57-1.21-1-1.86c0,.18-.13.28-.1.33a6.34,6.34,0,0,0,.59,1.33,5.75,5.75,0,0,1,.43.75c.27.59.56,1.19.86,1.78a2.4,2.4,0,0,0,.18.5l.07.07h-.05a1.84,1.84,0,0,1-.25-.27,4.541,4.541,0,0,0-.37-.77c-.17-.19-.07-.59-.47-.64a1.73,1.73,0,0,0-.4-.74,5.239,5.239,0,0,1-.44-.5,2.86,2.86,0,0,1-.45-.79c-.1-.32-.47-.42-.49-.79C48.43,59,48.15,58.88,48.1,58.86Z" fill="#363f66"/>
    <path id="Trazado_23133" data-name="Trazado 23133" d="M51.1,63a1.86,1.86,0,0,1,.15.5h0A1.889,1.889,0,0,0,51.1,63Z" fill="#363f66"/>
    <path id="Trazado_23134" data-name="Trazado 23134" d="M51.3,63.59h0c0-.05-.07-.07-.1-.12h0c-.07,0-.12-.1-.12-.13s.07.08.22.25Z" fill="#363f66"/>
    <path id="Trazado_23135" data-name="Trazado 23135" d="M46.4,49.65h.05a.9.9,0,0,1,.14-.22.32.32,0,0,1-.12,0v.1A.36.36,0,0,0,46.4,49.65Z" fill="#363f66"/>
    <path id="Trazado_23136" data-name="Trazado 23136" d="M45.73,48.68c.12.17,0,.35.1.54a3.43,3.43,0,0,1,.17.67c.07.23.1.47.17.7a2.42,2.42,0,0,0,.2.59,4.81,4.81,0,0,0,.4.6l-.13.12c.3.47.18,1.11.57,1.41l-.42.42-.15-.1a4.3,4.3,0,0,1-.52.35c-.15-.2-.27-.37-.42-.54a2.32,2.32,0,0,0-.32.34C46,56,46,56.06,46.59,56.53l.65-.64a.44.44,0,0,1,.25-.52,3.24,3.24,0,0,1,.12.34l.54-.19A1.43,1.43,0,0,1,48,54.9a1.85,1.85,0,0,0-.3-.57c-.24-.42-.1-.92-.17-1.37l-.3-.29v-.62a4,4,0,0,1-.29-.3c.12-.54-.2-.94-.47-1.49.12-.12.29-.29.47-.44-.05-.32-.13-.72-.2-1.17l-.25-.24-.07-.1a2,2,0,0,1-.2-.25v.71a1.61,1.61,0,0,1-.2-.35c0-.15.1-.27.2-.52V48h0v-.2l-.45.15C45.7,48.21,45.63,48.53,45.73,48.68Zm.47.15s.12,0,.12.05l.15.59a.32.32,0,0,0,.12,0v.59H46.2a2.49,2.49,0,0,1,.2-.32h-.05l-.15-.38-.08.08a3.08,3.08,0,0,0,.08-.61Z" fill="#363f66"/>
    <path id="Trazado_23137" data-name="Trazado 23137" d="M46.37,48.31a3.34,3.34,0,0,1-.2-.35V48a2.69,2.69,0,0,1,.2.31Z" fill="#363f66"/>
    <path id="Trazado_23138" data-name="Trazado 23138" d="M55.49,84.74s.12-.1.12-.17a.81.81,0,0,0,0-.22c-.47-.52-.74-.7-1.31-.57-.28.07-.55-.13-.82.1a.38.38,0,0,1-.5-.1,1.35,1.35,0,0,1-.42.1H51.28a2.228,2.228,0,0,0-1.32.12c-.39-.2-.74.17-1.19,0v.5h2.1a2.37,2.37,0,0,1,1.24.12c.15.07.42-.05.6-.1a.837.837,0,0,1,.69.15c.12.15.45-.08.69.1s.5,0,.75,0a4.531,4.531,0,0,0,.79.1,1.29,1.29,0,0,1-.14-.13Z" fill="#363f66"/>
    <path id="Trazado_23139" data-name="Trazado 23139" d="M54.87,84.82a6.21,6.21,0,0,1,.84.2.482.482,0,0,0-.08-.1,5.457,5.457,0,0,1-.76-.1Z" fill="#363f66"/>
    <path id="Trazado_23140" data-name="Trazado 23140" d="M42.78,83.78c0,.07.1.12.12.12a8.222,8.222,0,0,0,1.1-.22,10.22,10.22,0,0,1,2-.35,9.919,9.919,0,0,0,2.28-.22l.45-.3c.15.13.07.52.39.27v-.39a3.13,3.13,0,0,0-1.23.15c-.15.07-.4-.13-.62-.13a5.73,5.73,0,0,0-.7.13,3.089,3.089,0,0,1-.34-.1c-.23,0-.52-.15-.65,0s-.54.07-.84.07c-.2.22-.42.42-.64.67-.05,0-.13-.1-.25-.17C43.57,83.55,43,83.33,42.78,83.78Z" fill="#363f66"/>
    <path id="Trazado_23141" data-name="Trazado 23141" d="M51.32,85.16a.26.26,0,0,0-.12,0h-.54a.5.5,0,0,0-.47.15c-.15-.17-.25-.17-.43,0s-.27,0-.39,0-.27-.1-.35,0c-.35.27-.72.12-1.09.12a2,2,0,0,0-1.11.28,3.29,3.29,0,0,0,1.28.19c.45,0,.9.13,1.27-.14a1.39,1.39,0,0,0,1.24,0c.24-.13.42,0,.64.12.22-.3.5-.17.72,0l.77-.29-.6-.33C51.87,85.26,51.62,85.41,51.32,85.16Z" fill="#363f66"/>
    <path id="Trazado_23142" data-name="Trazado 23142" d="M46,85.31a1.35,1.35,0,0,1-.42.1,4.611,4.611,0,0,1-.91,0,8.429,8.429,0,0,1-.87,0,3.43,3.43,0,0,0-1.11.2l.59.39a7.84,7.84,0,0,0,.84,0c.27,0,.52.08.79-.12a.92.92,0,0,1,.8-.1c.37.2.52-.13.77-.15v-.37l-.33.17Z" fill="#363f66"/>
    <path id="Trazado_23143" data-name="Trazado 23143" d="M55.71,85c-.32.3-.32.57,0,1a.9.9,0,0,0,.52-.49A1,1,0,0,0,55.71,85Z" fill="#363f66"/>
    <path id="Trazado_23144" data-name="Trazado 23144" d="M55.71,85a1.12,1.12,0,0,1,.49.5c-.12-.2-.24-.38-.39-.6Z" fill="#363f66"/>
    <path id="Trazado_23145" data-name="Trazado 23145" d="M56.75,60.92c-.27-.4-.35-.87-.84-1.17a2.33,2.33,0,0,0,.52,1.39,2.57,2.57,0,0,0,.32-.22Z" fill="#363f66"/>
    <path id="Trazado_23146" data-name="Trazado 23146" d="M54.3,85.29v.44a1.19,1.19,0,0,0,.17-.14l.35.14a3.24,3.24,0,0,1,.12-.34,2,2,0,0,0,.15.32.42.42,0,0,0,.17-.62C54.94,85.16,54.64,85.24,54.3,85.29Z" fill="#363f66"/>
    <path id="Trazado_23147" data-name="Trazado 23147" d="M43.5,49.82c-.1,1.06,0,1.36.39,1.71a3.72,3.72,0,0,0-.39-1.71Z" fill="#363f66"/>
    <path id="Trazado_23148" data-name="Trazado 23148" d="M44.86,52l.5-.05c-.18-.39-.3-.71-.45-1a1,1,0,0,1-.27.2,7.66,7.66,0,0,0,.22.85Z" fill="#363f66"/>
    <path id="Trazado_23149" data-name="Trazado 23149" d="M50.09,83.16a6.869,6.869,0,0,0,1.19-.08C50.83,82.91,50.48,82.61,50.09,83.16Z" fill="#363f66"/>
    <path id="Trazado_23150" data-name="Trazado 23150" d="M53.48,85.26a.5.5,0,0,0,.5.5C53.93,85.41,53.8,85.29,53.48,85.26Z" fill="#363f66"/>
    <path id="Trazado_23151" data-name="Trazado 23151" d="M42.28,84.1c.23-.1.4-.2.38-.5a5.181,5.181,0,0,0-.47.23,1,1,0,0,0,.09.27Z" fill="#363f66"/>
    <path id="Trazado_23152" data-name="Trazado 23152" d="M45,52.2v.44a1.87,1.87,0,0,1,.3,0c0-.15,0-.29,0-.44a1.31,1.31,0,0,0-.3,0Z" fill="#363f66"/>
    <path id="Trazado_23153" data-name="Trazado 23153" d="M41,85.61v.25h.47a2.16,2.16,0,0,0,0-.27Z" fill="#363f66"/>
    <path id="Trazado_23154" data-name="Trazado 23154" d="M45.63,52.82h-.37c0,.17.05.32.07.54A4.8,4.8,0,0,1,45.63,52.82Z" fill="#363f66"/>
    <path id="Trazado_23155" data-name="Trazado 23155" d="M52,83.11h.42v-.1l-.45-.2Z" fill="#363f66"/>
    <path id="Trazado_23156" data-name="Trazado 23156" d="M50.11,58.44h-.4l.4.52Z" fill="#363f66"/>
    <path id="Trazado_23157" data-name="Trazado 23157" d="M49.05,58.09a2.849,2.849,0,0,0-.35.08l.35.49Z" fill="#363f66"/>
    <path id="Trazado_23158" data-name="Trazado 23158" d="M40.1,85.91a.583.583,0,0,0,.33-.08l-.33-.39Z" fill="#363f66"/>
    <path id="Trazado_23159" data-name="Trazado 23159" d="M50,83.11v-.3a4.632,4.632,0,0,0-.52.3Z" fill="#363f66"/>
    <path id="Trazado_23160" data-name="Trazado 23160" d="M48.15,55.59l.38.1c-.1-.12-.13-.17-.15-.17a.3.3,0,0,0-.15,0C48.3,55.64,48.23,55.61,48.15,55.59Z" fill="#363f66"/>
    <path id="Trazado_23161" data-name="Trazado 23161" d="M48.23,55.57h-.08C48.23,55.61,48.3,55.64,48.23,55.57Z" fill="#363f66"/>
    <path id="Trazado_23162" data-name="Trazado 23162" d="M43.94,44.69H44v-.15h-.05Z" fill="#363f66"/>
    <path id="Trazado_23163" data-name="Trazado 23163" d="M55.63,65.13h0a.53.53,0,0,0-.14.1h0a.23.23,0,0,0,.09-.14Z" fill="#363f66"/>
    <path id="Trazado_23164" data-name="Trazado 23164" d="M55.63,65.13a.31.31,0,0,1-.09.14.23.23,0,0,0,.09-.14Z" fill="#363f66"/>
    <path id="Trazado_23165" data-name="Trazado 23165" d="M51.72,83h.05v-.14h-.05Z" fill="#363f66"/>
    <path id="Trazado_23166" data-name="Trazado 23166" d="M28.26,39.49h0v.15h0Z" fill="#363f66"/>
    <path id="Trazado_23167" data-name="Trazado 23167" d="M52.93,85.44h0v-.15h0Z" fill="#363f66"/>
    <path id="Trazado_23168" data-name="Trazado 23168" d="M33.47,37.06h0v.15h0Z" fill="#363f66"/>
    <path id="Trazado_23169" data-name="Trazado 23169" d="M36.41,69.61a.984.984,0,0,0-.12-.57c-.12-.2.05-.4.1-.62a.64.64,0,0,1-.12-.22c-.08-.25.12-.55-.1-.8.17-.17-.05-.42,0-.56.22-.3-.15-.5-.1-.75s.07-.42.12-.67a3.48,3.48,0,0,0-.12-.49,2.9,2.9,0,0,0-.23-.4c0-.2.13-.42.08-.47s0-.3,0-.42a.862.862,0,0,0-.15-.4.76.76,0,0,1,0-.39c-.27-.18-.45-.3-.6-.42-.19.07-.37.27-.61.1a1.63,1.63,0,0,0,0-.38H33.39c-.47.2-.84.38-1.29.55.15.37.3.79.47,1.21-.24.35-.49.72-.76,1.09.29.32.15.7.17.94a1.41,1.41,0,0,1,.2,1.44.43.43,0,0,0,0,.35.89.89,0,0,1,0,1c.07.12.15.2.15.29v1.29a1.89,1.89,0,0,0,.15,1.17c-.18.39,0,.76,0,1.16a4.71,4.71,0,0,0,0,.92c0,.29-.15.62.12.86-.22.25-.12.57-.12.85,0,.64.22,1.26.17,1.93a9.77,9.77,0,0,0,0,1.53c0,.2.17.38,0,.57.35.15-.15.38.07.6h.42a1.81,1.81,0,0,1-.17-.19,4.051,4.051,0,0,1,.13-.8c.05-.25.22-.52.12-.69a2.27,2.27,0,0,1-.12-1.09,2.144,2.144,0,0,0,0-.67,1.558,1.558,0,0,1,0-.57.87.87,0,0,0-.15-.47c-.12-.17.32-.25.05-.45,0,0,.22-.29,0-.47v-.34A6.81,6.81,0,0,0,33,72a.36.36,0,0,0-.1-.15c.05-.17.15-.29.15-.42a11.68,11.68,0,0,0,0-2c-.1-.7.37-1.34,0-2a.635.635,0,0,0,.07-.12c-.07-.2.08-.35.08-.55a4.279,4.279,0,0,1,0-.62c0-.22.15-.42.12-.62a10.81,10.81,0,0,1,.25-1.76,1.87,1.87,0,0,1,.22.45c.05.12.05.25.1.35a3.32,3.32,0,0,1,.52,1.68,2.62,2.62,0,0,0,.13,1.17,1.49,1.49,0,0,1,0,1,1.12,1.12,0,0,0-.07.79,3.13,3.13,0,0,1,.12,1.09,1,1,0,0,0,0,.27,4.42,4.42,0,0,1,.25.67,4.49,4.49,0,0,1,0,.82,1.19,1.19,0,0,1,.3,1c0,.13-.05.3,0,.37.32.43,0,1,.27,1.42a2.26,2.26,0,0,1,.15.91,5.658,5.658,0,0,0,.05.749,3.59,3.59,0,0,0,.12.621s-.1.07-.12.12h0a2.98,2.98,0,0,0,.1,1.48c-.1.25.12.55-.15.77.08.08.13.15.15.15-.15.4-.3.74-.45,1.14a1.089,1.089,0,0,0,1.09-.47,2.36,2.36,0,0,0,0-.92c-.15-.32.12-.52.05-.81a4.076,4.076,0,0,0-.15-.94.79.79,0,0,1,0-.67,4.31,4.31,0,0,0,.12-1.71,1.107,1.107,0,0,0-.12-.15,1.61,1.61,0,0,0,.12-.35,2.14,2.14,0,0,0,0-.62,1.713,1.713,0,0,0-.07-.64c-.07-.12,0-.32,0-.5a2.89,2.89,0,0,1-.1-.84c0-.17.19-.42.12-.54a.52.52,0,0,1,0-.5c-.09-.17-.19-.35-.27-.52a2.07,2.07,0,0,0,.32-.35C36.14,70,36.44,69.78,36.41,69.61Zm-1.14-4.78h-.05v-.15h.05Zm.4,2.57v-.07a1.11,1.11,0,0,1,.25,0v.12Zm0-.44v-.12h.24v.07a.55.55,0,0,1-.24.09Z" fill="#363f66"/>
    <path id="Trazado_23170" data-name="Trazado 23170" d="M35.79,77a6.07,6.07,0,0,0-.12-.62,3.094,3.094,0,0,0,.12.62.639.639,0,0,0-.12.12.34.34,0,0,1,.12-.12Z" fill="#363f66"/>
    <path id="Trazado_23171" data-name="Trazado 23171" d="M30.69,68.49c0-.59.5-1.06,0-1.56l.18-.22c-.15-.39-.3-.72-.45-1.06l.27-.25a1.4,1.4,0,0,0-.17-.22c.07-.13.12-.25.15-.25a3.094,3.094,0,0,0-.13-.65,5.8,5.8,0,0,1,0-.59l-1.19-1c-.76-.15-.76-.15-1.06,0l-.25-.25a3.12,3.12,0,0,1-1.56.42,1.41,1.41,0,0,0-.32.47,1.71,1.71,0,0,0-.05.87l.3.3a3.86,3.86,0,0,0,0,.59c0,.17.15.45.1.52-.28.25.07.35.05.52s0,.47,0,.7.24.29,0,.47c.22.17.05.44.12.62a.48.48,0,0,1,0,.49.6.6,0,0,0,.15.62c-.25.22.05.42,0,.64a3.45,3.45,0,0,0,0,.85,4.273,4.273,0,0,0,.13.74l-.13.12.13.13-.13.39h.47V69.54c0-.23-.07-.45-.07-.67s.05-.5.07-.75a1.45,1.45,0,0,1,0-.59c.07-.22-.27-.35,0-.6.1-.09,0-.39,0-.59a6.59,6.59,0,0,1,0-.77,4.25,4.25,0,0,1,.17-.77h.13c.05,0,0,.25,0,.4h.25c-.1.42.5.64.35,1.11a3.47,3.47,0,0,1,.44,1.49A5.56,5.56,0,0,1,29,69.51a1.711,1.711,0,0,0,.15.47l-.1.1c0,.2.07.37.07.52a.54.54,0,0,0,.15.47c-.25.15,0,.4-.05.47s-.12.3,0,.4-.12.39-.07.52a6.09,6.09,0,0,1,.15,1.86c0,.19-.1.42.12.57-.17.66.47,1.18.35,1.85.27.25,0,.6.17.85a1.43,1.43,0,0,1,.12.86,2.28,2.28,0,0,0,.28,1c-.45.45.37,1-.1,1.41.39.23.39.23.74-.05V79.53a9.6,9.6,0,0,0-.15-2.68.44.44,0,0,1,0-.3,1.34,1.34,0,0,0,0-1.26.867.867,0,0,1,.05-.49,4,4,0,0,1,.1-.72c.07-.2-.2-.32-.05-.6a.949.949,0,0,0,0-.74.84.84,0,0,0-.2-.37.34.34,0,0,1,0-.47,4.74,4.74,0,0,0,.23-1.07,1.1,1.1,0,0,0,0-.67,2.65,2.65,0,0,1-.15-1.06,2.71,2.71,0,0,1,.19-.25,2.09,2.09,0,0,0-.31-.36Zm-2.28-4.73h-.05v-.14h.05Zm.37.55h0Zm1,6.31h-.05v-.14h.05Zm.2,5.16H30Zm.25-.28H30.2v-.14h.05Zm.07-.76v-.25h.07a.7.7,0,0,1,.05.25.1.1,0,0,0-.1,0Z" fill="#363f66"/>
    <path id="Trazado_23172" data-name="Trazado 23172" d="M26.18,64.16a2.12,2.12,0,0,1,.05-.87,2.8,2.8,0,0,0-.05.87l.3.3a2.83,2.83,0,0,0-.3-.3Z" fill="#363f66"/>
    <path id="Trazado_23173" data-name="Trazado 23173" d="M41.14,74.49c-.14-.82.15-1.71-.17-2.53a.34.34,0,0,1,0-.22c.27-.35.1-.69,0-1l.17-.17c-.2-.15-.2-.3-.1-.52s0-.37.1-.52c-.2-.15-.12-.35-.15-.54a4.66,4.66,0,0,0-.12-.65,4.1,4.1,0,0,0,0-2c.47-.37-.4-.87.12-1.26l-.32-.25a1.06,1.06,0,0,0,.17-.2c-.1-.2-.22-.42-.34-.67V61.68l-.43-.07c-.09-.55.23-1,.15-1.56S40.35,59,40,58.41c0,0,.12-.1.12-.17a5.41,5.41,0,0,0,0-1.46,1.31,1.31,0,0,1,.1-.82.78.78,0,0,1-.12-.84,1.15,1.15,0,0,0,0-1c0-.1-.1-.3,0-.35.22-.2.1-.42.15-.64a2.79,2.79,0,0,1,.12-.35c-.27-.62,0-1.26-.17-1.86l-.25.08a7.734,7.734,0,0,1-.12,1.09c-.13,1-.13,2-.18,3.07,0,.27.08.54-.14.79a.4.4,0,0,0,0,.42c.19.2.09.42.12.65a3.37,3.37,0,0,1,0,.84c-.05.25.25.47,0,.72.3.52.1,1.06.15,1.61a1.69,1.69,0,0,0,.1.34c.02.1-.07.1-.1.1a1.531,1.531,0,0,0,.15.23c-.07.12-.15.22-.2.32s.13.2.18.27-.15.32-.23.5a.88.88,0,0,0-1,.57c-.2-.28-.34-.5-.47-.67a4.54,4.54,0,0,1,.13-1.07,4.68,4.68,0,0,1,.19-1,1.69,1.69,0,0,0,.13-.79v-.92a.82.82,0,0,1,.12-.54,2,2,0,0,1,0-1.56.476.476,0,0,0-.08-.18.31.31,0,0,0-.17,0,4.67,4.67,0,0,0-.2.82,10.94,10.94,0,0,1,0,1.28c0,.4-.35.75-.18,1.17a7.94,7.94,0,0,0-.39,2.25,13.46,13.46,0,0,0-.2,2.26l-.27.49c.07.15.17.3.24.47a15.821,15.821,0,0,1,.18,2.21c0,.44,0,.91,0,1.36s.42.86,0,1.31v.05c.07.79.15,1.56.24,2.35h0l.08.07a.56.56,0,0,0,.17,0V71.7a.49.49,0,0,0,0-.17.44.44,0,0,0-.15-.32l.07-.08a.19.19,0,0,0,.08-.14,1,1,0,0,0,0-.45c-.05-.1-.13-.27-.08-.35.25-.37.13-.76.13-1.16a8.67,8.67,0,0,0-.13-1.61,12.7,12.7,0,0,1,.3-3.54.388.388,0,0,0,.2-.1c.05.17.12.32.17.49.18-.57.18-.57.65-.62.47.52.39,1.24.64,1.86a1.59,1.59,0,0,1-.07.7c0,.07.07.14.09.22a1.06,1.06,0,0,0-.17.2,1,1,0,0,1,.3.69v1.49a2,2,0,0,1,0,.69c-.07.25.25.42,0,.64a.49.49,0,0,1,.15.33.67.67,0,0,1-.05.19.57.57,0,0,1-.1.13h0a.3.3,0,0,1,.15.22c0,.2-.08.42,0,.57a.56.56,0,0,0,.25.07c-.1.18-.17.33-.3.55a2.32,2.32,0,0,0,0,.59,2.55,2.55,0,0,1,.15.62,7.64,7.64,0,0,0,.12,2.08,5.43,5.43,0,0,1,0,1.07,7,7,0,0,0,.2,1.09c.1.1.22.25.34.37l.2-.2a3.59,3.59,0,0,1-.25-1,7.92,7.92,0,0,0,.05-2.33Zm-2.5-10.73h0v-.14h0Zm1.22-.14h0v-.15h0Z" fill="#363f66"/>
    <path id="Trazado_23174" data-name="Trazado 23174" d="M40.08,66.74h0a1.31,1.31,0,0,0,.17-.2A1.31,1.31,0,0,1,40.08,66.74Z" fill="#363f66"/>
    <path id="Trazado_23175" data-name="Trazado 23175" d="M40.48,70.75a.31.31,0,0,0,.05-.2.24.24,0,0,1-.05.2Z" fill="#363f66"/>
    <path id="Trazado_23176" data-name="Trazado 23176" d="M24.87,66.66a2.71,2.71,0,0,0-.12-1.78.64.64,0,0,1,0-.22c-.1-.4,0-.85-.44-1.19a.74.74,0,0,1-.33,0,1.84,1.84,0,0,0-1.48-.27,1.25,1.25,0,0,0-1.14.49,5.089,5.089,0,0,1,.1.77c0,.23,0,.45,0,.7a1.82,1.82,0,0,0,0,.74c.13.25-.05.45,0,.64a2.46,2.46,0,0,1,.07.6,3.79,3.79,0,0,1-.15.82l-.34.19c.42.35.25.75.25,1.12a8.082,8.082,0,0,1,.17,1.16,5.43,5.43,0,0,0,0,1.14c0,.4-.15.79.12,1.17-.29.32-.07.71-.15,1l.15.14.15.15h0l-.15.23c.1.19.27.39.1.62a.72.72,0,0,0-.32.07c.17.12.3.2.42.27.1-.2.17-.37.27-.54-.44-.3,0-.57,0-.87v-.92a2.35,2.35,0,0,0-.13-.94c-.09-.25.33-.57,0-.86,0-.28-.15-.62.15-.87-.32-.3.17-.6,0-.84a1.4,1.4,0,0,1-.13-.94,3.77,3.77,0,0,0,.15-1c-.05-.27.05-.57-.12-.84.27-.27,0-.64.17-.94a2.18,2.18,0,0,1,.27.15,1.29,1.29,0,0,0,.3-.2c.1.12.18.25.27.35a3.19,3.19,0,0,0,.33.27l.29.3a.861.861,0,0,0,.08.44c.27.3.27.67.42,1a.71.71,0,0,1-.08.82l.55.34c-.12.1-.25.18-.32.23a6.38,6.38,0,0,1,.12.64c.05.25-.12.57.13.74-.1.25-.2.5-.28.75a.89.89,0,0,1,0,1,2.69,2.69,0,0,1,.12.47c0,.25,0,.52,0,.77s-.28.37,0,.57c-.27.2,0,.45-.05.62s.15.42.05.64,0,.23-.05.28-.05.34-.1.49.13.42.05.65a5.26,5.26,0,0,0-.05.81c0,1-.1,2-.15,3.07v.15c-.27.23.22.37,0,.57.1.1.23.18.35.3.1-.12.17-.22.25-.3-.25-.17.1-.29,0-.49a2.35,2.35,0,0,1,0-.7,4.34,4.34,0,0,1,.13-.79c-.05,0-.1-.12-.08-.1a3.7,3.7,0,0,0,.08-.82.82.82,0,0,1,0-.27c-.08-.64-.08-1.31-.2-2a.93.93,0,0,0,.13-.35V74.45a8,8,0,0,1,.1-.84l-.1-.15a3.669,3.669,0,0,0,.12-.57c0-.52,0-1,0-1.53v-.55a1.94,1.94,0,0,1,.1-.49c.05-.13-.12-.25.05-.4s0-.4-.05-.64S25,69,25,68.82a1.21,1.21,0,0,1,0-1C24.87,67.45,25,67,24.87,66.66Zm-3-2.5h0Zm.32.47h0Zm1.31-.57h-.05v-.15h.05Zm.3,1.54h0v-.15h0Zm.32.44h0v-.15h0Z" fill="#363f66"/>
    <path id="Trazado_23177" data-name="Trazado 23177" d="M21.75,74l-.15.23a1.5,1.5,0,0,1,.15-.23Z" fill="#363f66"/>
    <path id="Trazado_23178" data-name="Trazado 23178" d="M19.3,71.94a.94.94,0,0,0,0,.42,2.24,2.24,0,0,0,.17.59c0,.08-.07.15-.12.23a.29.29,0,0,0,.1.07l.34-.22v-.72c0-.22-.19-.42,0-.64-.24-.18,0-.33,0-.48s-.24-.27,0-.49.05-.45,0-.67.13-.47-.1-.64.28-.4,0-.55a1.947,1.947,0,0,0-.38-.91,1.5,1.5,0,0,0-.07-.2.51.51,0,0,1,.12-.52,2.6,2.6,0,0,1-.27-.7v-.12a3.89,3.89,0,0,1,.1-.55,4.72,4.72,0,0,0-.07-1c.19-.1,0-.45.12-.55s0-.29.07-.47-.1-.37-.19-.59a4.171,4.171,0,0,1-.55.2,3.3,3.3,0,0,1-.52-.13,1.77,1.77,0,0,0-.27,1.24c.05.22.15.52.05.65-.35.44,0,.76.15,1.11a1.57,1.57,0,0,0-.28.12v.38c.75.39.6,1.38,1.19,2-.05,0-.1.1-.1.13a7.63,7.63,0,0,1,.45,2.32,3.271,3.271,0,0,1,.35.28l-.43.19a.65.65,0,0,1,.14.22Zm-.5-6.67h-.05v-.14h.05Z" fill="#363f66"/>
    <path id="Trazado_23179" data-name="Trazado 23179" d="M19.3,72.36a2.24,2.24,0,0,0,.17.59c0,.08-.07.15-.12.23,0-.08.07-.15.12-.23A2.48,2.48,0,0,1,19.3,72.36Z" fill="#363f66"/>
    <path id="Trazado_23180" data-name="Trazado 23180" d="M19.17,67.73a.51.51,0,0,1,.13-.52,2,2,0,0,1-.27-.7,2,2,0,0,0,.27.7A.5.5,0,0,0,19.17,67.73Z" fill="#363f66"/>
    <path id="Trazado_23181" data-name="Trazado 23181" d="M19.05,66.49v-.13a.28.28,0,0,0,0,.13Z" fill="#363f66"/>
    <path id="Trazado_23182" data-name="Trazado 23182" d="M18.6,59.06c-.12.37,0,.49.43.52a4,4,0,0,1,0-.6,5.635,5.635,0,0,1,.14-.62c.02-.2-.07-.49-.07-.71a5.26,5.26,0,0,0,.07-.67,3.77,3.77,0,0,1,.23-1.29A3.2,3.2,0,0,0,19.47,54v-.29c.25-.4.1-.82.15-1.24a2.54,2.54,0,0,1,.07-.57c.08-.22-.17-.37-.07-.6a3.54,3.54,0,0,0,.17-.79l-1-.17c-.1.17-.15.3-.22.44s.12.1.12.18a3.61,3.61,0,0,0,.15,1.46v.2a3.088,3.088,0,0,0-.12.57v2a1.78,1.78,0,0,1-.1.49,4.29,4.29,0,0,1,.1.6c0,.1-.08.12-.05.27a2.88,2.88,0,0,1-.1,1.69,2.21,2.21,0,0,1,.17.27l-.17.25a.69.69,0,0,0,.15.14.38.38,0,0,1,0,.15C18.68,59,18.6,59,18.6,59.06Z" fill="#363f66"/>
    <path id="Trazado_23183" data-name="Trazado 23183" d="M17.64,53.36A2.79,2.79,0,0,1,17.89,52a.74.74,0,0,1,.19,0,3.07,3.07,0,0,0,0,1.86c-.27.32-.09.64-.09,1a2.76,2.76,0,0,0,.24-1.17,1.89,1.89,0,0,1,.05-.89,1.77,1.77,0,0,0,.1-.87,1.26,1.26,0,0,1,.13-.71c-.08-.3-.1-.55-.15-.77H18a.93.93,0,0,1-.25-.25H16.9a.18.18,0,0,1-.1.07,1,1,0,0,1-.28.08c.28.17.47.32.67.44,0,.28-.37.5-.05.75-.22.25-.12.57-.12.84a7.851,7.851,0,0,0,0,.84c0,.3,0,.62,0,.92s-.12.57.15.79a3.4,3.4,0,0,1-.27.27v1.84l.42-.25a5.45,5.45,0,0,1,0-.7,4.207,4.207,0,0,1,.12-.74,2.758,2.758,0,0,0-.17-.22c.07-.08.2-.15.2-.22A15.1,15.1,0,0,1,17.64,53.36Zm.27-2.23v.57h-.25C17.74,51.53,17.79,51.4,17.91,51.13Z" fill="#363f66"/>
    <path id="Trazado_23184" data-name="Trazado 23184" d="M36.12,57.05a2.15,2.15,0,0,1,.15,1.09c0,.3,0,.6,0,1,.22-.15.34-.22.44-.3-.4-.44.25-.89,0-1.28-.13-.13-.23-.25-.3-.33.12-.22.22-.42.32-.59a2.21,2.21,0,0,1,0-1.39c-.25-.49,0-1-.18-1.61-.1.13-.17.2-.22.28a1.1,1.1,0,0,0,.12.14c-.1.52-.19,1-.27,1.52.22.14,0,.32,0,.47s.2.29,0,.49A.44.44,0,0,0,36.12,57.05Z" fill="#363f66"/>
    <path id="Trazado_23185" data-name="Trazado 23185" d="M21.16,52.25a12.38,12.38,0,0,0,0,1.36,1.38,1.38,0,0,1,.12.39.853.853,0,0,0,.1.5c.1.15-.1.25-.1.37a4.81,4.81,0,0,0,0,.52h.25c.1-.57-.1-1.16.15-1.71.07-.15-.08-.37-.13-.62.27-.32.08-.71.15-1.06-.17-.25-.35-.5-.47-.65a2.939,2.939,0,0,1-.35.18c.13.25.23.42.35.62C21.26,52.15,21.16,52.2,21.16,52.25Z" fill="#363f66"/>
    <path id="Trazado_23186" data-name="Trazado 23186" d="M22.59,57.18c.1-.5.47-.75.37-1.12s0-.69-.29-.94a1.68,1.68,0,0,1,.22-1c.05.15.1.3.15.42s.05,0,.07,0v-.52a1.41,1.41,0,0,1-.49-.15c-.15-.05-.28.22-.45.37a1.87,1.87,0,0,0,.2.28c-.3.17-.05.37,0,.52s-.17.32-.12.42a1.78,1.78,0,0,1-.05,1.48,2.38,2.38,0,0,1,.39.24Z" fill="#363f66"/>
    <path id="Trazado_23187" data-name="Trazado 23187" d="M36.71,60.64V59.21h-.47a2.053,2.053,0,0,0,.17,1.23,2.049,2.049,0,0,1-.12.2,8.18,8.18,0,0,0,.3,1.27A2.67,2.67,0,0,0,37.13,63a1,1,0,0,0-.2-1,11.33,11.33,0,0,1-.22-1.36Z" fill="#363f66"/>
    <path id="Trazado_23188" data-name="Trazado 23188" d="M19.55,74.34c.07.25-.15.59-.25.92,0,.1-.05.24,0,.29.25.2.07.47.2.7h.27V74.37a5.24,5.24,0,0,1,.12-.82l-.47-.25C19.52,73.72,19.45,74,19.55,74.34Z" fill="#363f66"/>
    <path id="Trazado_23189" data-name="Trazado 23189" d="M22.62,61.34c.07.39.15.71.22,1.06h.69c-.14-.22-.27-.37-.34-.49.1-.18.2-.33.32-.52Z" fill="#363f66"/>
    <path id="Trazado_23190" data-name="Trazado 23190" d="M31.81,61.73c0-.12,0-.22-.28-.49l-.44.44-.22-.22c-.18.15-.33.32-.2.57a2,2,0,0,0,.29.12,4.27,4.27,0,0,0,.55-.1h.15a1.39,1.39,0,0,0,.15-.32Z" fill="#363f66"/>
    <path id="Trazado_23191" data-name="Trazado 23191" d="M31.63,62.05h-.15a.27.27,0,0,1,.15,0,1.65,1.65,0,0,0,.18-.29,1.65,1.65,0,0,1-.18.29Z" fill="#363f66"/>
    <path id="Trazado_23192" data-name="Trazado 23192" d="M22.64,52.44a1.91,1.91,0,0,0,.1-.27h.47l-.07-.07c.1-.05.22-.08.34-.13l-.32-.29a.68.68,0,0,1-.89,0,1.74,1.74,0,0,0-.22.24c.07.18.17.35.22.47Z" fill="#363f66"/>
    <path id="Trazado_23193" data-name="Trazado 23193" d="M38.1,72.48v2a1.321,1.321,0,0,1,.27,0v-.24a.88.88,0,0,0-.15-.67,1.36,1.36,0,0,0,.15-.92V72.5Z" fill="#363f66"/>
    <path id="Trazado_23194" data-name="Trazado 23194" d="M38.25,73.52a.86.86,0,0,1,.15.67,1.11,1.11,0,0,0-.15-.67,1.32,1.32,0,0,0,.15-.91C38.37,72.93,38.47,73.25,38.25,73.52Z" fill="#363f66"/>
    <path id="Trazado_23195" data-name="Trazado 23195" d="M27.22,75.36V73.8l-.34.07a1.83,1.83,0,0,0,.2.32c-.25.37-.08.74-.13,1.12A.49.49,0,0,0,27.22,75.36Z" fill="#363f66"/>
    <path id="Trazado_23196" data-name="Trazado 23196" d="M24.4,62.23s.08-.08.12-.13-.14-.32-.24-.49l-.15.15-.22-.2a2,2,0,0,1,0,.35,1.13,1.13,0,0,1-.13.27C24,62.33,24,62.33,24.4,62.23Z" fill="#363f66"/>
    <path id="Trazado_23197" data-name="Trazado 23197" d="M20.17,50.46c-.25.37,0,.65.14.94h.25a5.41,5.41,0,0,0-.25-.71S20.21,50.54,20.17,50.46Z" fill="#363f66"/>
    <path id="Trazado_23198" data-name="Trazado 23198" d="M19.79,76.5a2.2,2.2,0,0,0-.27.27.9.9,0,0,0,.15.62C19.87,77.14,19.74,76.84,19.79,76.5Z" fill="#363f66"/>
    <path id="Trazado_23199" data-name="Trazado 23199" d="M19.65,77.39a.93.93,0,0,1-.15-.62v.74a.26.26,0,0,0,.15-.12Z" fill="#363f66"/>
    <path id="Trazado_23200" data-name="Trazado 23200" d="M27.15,76c-.07.15-.15.3-.2.42a6.309,6.309,0,0,1,.2.62h.1c0-.35-.05-.67-.08-1Z" fill="#363f66"/>
    <path id="Trazado_23201" data-name="Trazado 23201" d="M19.17,82.37a.75.75,0,0,0,.28,0V81.5a.09.09,0,0,0-.08,0C19.3,81.8,19.22,82.07,19.17,82.37Z" fill="#363f66"/>
    <path id="Trazado_23202" data-name="Trazado 23202" d="M21.58,56.11v-.59a3.061,3.061,0,0,0-.32,0,2.24,2.24,0,0,1,.14.34c0,.08-.07.13-.12.2Z" fill="#363f66"/>
    <path id="Trazado_23203" data-name="Trazado 23203" d="M22.64,59.75c-.1-.17-.15-.3-.22-.42h-.08a3.18,3.18,0,0,1,0,.48A1.232,1.232,0,0,0,22.64,59.75Z" fill="#363f66"/>
    <path id="Trazado_23204" data-name="Trazado 23204" d="M27.22,73.15c-.14.2-.22.32-.34.47l.34.08Z" fill="#363f66"/>
    <path id="Trazado_23205" data-name="Trazado 23205" d="M38.37,75.48v-.55H38.3a1.89,1.89,0,0,0,0,.23.721.721,0,0,0,.1.34C38.43,75.57,38.35,75.5,38.37,75.48Z" fill="#363f66"/>
    <path id="Trazado_23206" data-name="Trazado 23206" d="M38.2,75.18h0C38.15,75.21,38.17,75.21,38.2,75.18Z" fill="#363f66"/>
    <path id="Trazado_23207" data-name="Trazado 23207" d="M22.67,58.61H22.2a1.71,1.71,0,0,0,.07.32C22.39,58.83,22.47,58.76,22.67,58.61Z" fill="#363f66"/>
    <path id="Trazado_23208" data-name="Trazado 23208" d="M38.1,77.68a2.6,2.6,0,0,0,.3-.05v-.37s0-.05-.08-.05a3.51,3.51,0,0,0-.22.47Z" fill="#363f66"/>
    <path id="Trazado_23209" data-name="Trazado 23209" d="M38.07,76.79l.35.35c-.05-.27-.05-.42-.07-.57C38.22,76.67,38.15,76.74,38.07,76.79Z" fill="#363f66"/>
    <path id="Trazado_23210" data-name="Trazado 23210" d="M22.22,57.4v.07a.26.26,0,0,0,.15.18h0a2.3,2.3,0,0,1-.05-.45.31.31,0,0,0-.1.2Z" fill="#363f66"/>
    <path id="Trazado_23211" data-name="Trazado 23211" d="M22.37,57.65a.167.167,0,0,1-.15-.18v.2h.12Z" fill="#363f66"/>
    <path id="Trazado_23212" data-name="Trazado 23212" d="M21.58,56.46a3.452,3.452,0,0,0-.32.2C21.65,56.83,21.6,56.66,21.58,56.46Z" fill="#363f66"/>
    <path id="Trazado_23213" data-name="Trazado 23213" d="M24.62,61.29,24.43,61C24.25,61.39,24.45,61.34,24.62,61.29Z" fill="#363f66"/>
    <path id="Trazado_23214" data-name="Trazado 23214" d="M18,55.54a1.069,1.069,0,0,0,.39-.07,3.35,3.35,0,0,0-.39-.18Z" fill="#363f66"/>
    <path id="Trazado_23215" data-name="Trazado 23215" d="M19.32,81v.22l.33-.15V81Z" fill="#363f66"/>
    <path id="Trazado_23216" data-name="Trazado 23216" d="M19.62,77.56a1.93,1.93,0,0,1-.25.25h.4a.2.2,0,0,0-.15-.25Z" fill="#363f66"/>
    <path id="Trazado_23217" data-name="Trazado 23217" d="M19.62,77.56a.25.25,0,0,1,.17.22,1.232,1.232,0,0,0-.07-.29C19.7,77.39,19.65,77.54,19.62,77.56Z" fill="#363f66"/>
    <path id="Trazado_23218" data-name="Trazado 23218" d="M17.07,58.14l.4-.07a2.7,2.7,0,0,0-.4-.18Z" fill="#363f66"/>
    <path id="Trazado_23219" data-name="Trazado 23219" d="M25.44,63.66v.08h.25v-.12a.93.93,0,0,0-.25.04Z" fill="#363f66"/>
    <path id="Trazado_23220" data-name="Trazado 23220" d="M21.6,57.08h-.3v.07h.3Z" fill="#363f66"/>
    <path id="Trazado_23221" data-name="Trazado 23221" d="M36.54,53.48v-.07h-.25v.12A.8.8,0,0,0,36.54,53.48Z" fill="#363f66"/>
    <path id="Trazado_23222" data-name="Trazado 23222" d="M36.54,51.65v-.07h-.25v.12A.8.8,0,0,0,36.54,51.65Z" fill="#363f66"/>
    <path id="Trazado_23223" data-name="Trazado 23223" d="M38.12,76.12h.08v-.29h-.08Z" fill="#363f66"/>
    <path id="Trazado_23224" data-name="Trazado 23224" d="M25.66,63.29h-.05v.15h.05Z" fill="#363f66"/>
    <path id="Trazado_23225" data-name="Trazado 23225" d="M19.62,80.14h0Z" fill="#363f66"/>
    <path id="Trazado_23226" data-name="Trazado 23226" d="M32.08,61.63h0v.15h0Z" fill="#363f66"/>
    <ellipse id="Elipse_662" data-name="Elipse 662" cx="0.02" cy="0.1" rx="0.02" ry="0.1" transform="translate(33.57 82.96)" fill="#363f66"/>
    <path id="Trazado_23227" data-name="Trazado 23227" d="M19,60v-.2h-.1V60Z" fill="#363f66"/>
    <path id="Trazado_23228" data-name="Trazado 23228" d="M36.81,49.42h-.05v.15h.05Z" fill="#363f66"/>
    <path id="Trazado_23229" data-name="Trazado 23229" d="M22.44,57.79h0a.52.52,0,0,0-.15-.07C22.39,57.72,22.42,57.74,22.44,57.79Z" fill="#363f66"/>
    <path id="Trazado_23230" data-name="Trazado 23230" d="M22.37,57.65h0l.15.09Z" fill="#363f66"/>
    <path id="Trazado_23231" data-name="Trazado 23231" d="M41,40l.55-.07-.5-.3A.766.766,0,0,0,41,40Z" fill="#363f66"/>
    <path id="Trazado_23232" data-name="Trazado 23232" d="M39.19,41h.07v-.4h-.15a1.19,1.19,0,0,1,.08.4Z" fill="#363f66"/>
    <path id="Trazado_23233" data-name="Trazado 23233" d="M39.31,39.61h.3v-.07h-.3Z" fill="#363f66"/>
    <path id="Trazado_23234" data-name="Trazado 23234" d="M41.44,39.39h0Z" fill="#363f66"/>
    <path id="Trazado_23235" data-name="Trazado 23235" d="M26.78,43.75l-.13.1h.05a.3.3,0,0,1,.1-.1Z" fill="#363f66"/>
    <path id="Trazado_23236" data-name="Trazado 23236" d="M26.8,43.78Z" fill="#363f66"/>
    <path id="Trazado_23237" data-name="Trazado 23237" d="M46,40.73h0a2.9,2.9,0,0,0,.25.64c.13-.32.08-.49-.15-.62H46Z" fill="#363f66"/>
    <path id="Trazado_23238" data-name="Trazado 23238" d="M46,40.7Z" fill="#363f66"/>
    <path id="Trazado_23239" data-name="Trazado 23239" d="M46,40.7c.1.23.18.42.28.67C46.18,41.12,46.1,40.93,46,40.7Z" fill="#363f66"/>
    <path id="Trazado_23240" data-name="Trazado 23240" d="M46.1,40.75a.12.12,0,0,0-.08,0h0a.12.12,0,0,1,.08,0Z" fill="#363f66"/>
    <path id="Trazado_23241" data-name="Trazado 23241" d="M46,40.7Z" fill="#363f66"/>
    <path id="Trazado_23242" data-name="Trazado 23242" d="M47.76,45.29h.05v-.15h-.05Z" fill="#363f66"/>
  </g>
</svg>
