<svg xmlns="http://www.w3.org/2000/svg" width="79.211" height="88" viewBox="0 0 79.211 88">
  <g id="Calavera_guarapita" transform="translate(-0.404 -21.24)">
    <path id="Trazado_23498" data-name="Trazado 23498" d="M33.883,43.417l-.133.133a.24.24,0,0,0,.133,0,1.465,1.465,0,0,0,.186-.24,1.585,1.585,0,0,0-.186.107Z" transform="translate(11.065 7.324)" fill="#363f66"/>
    <path id="Trazado_23499" data-name="Trazado 23499" d="M36.67,51.863a5.021,5.021,0,0,1,.826.266l-.826-.32Z" transform="translate(12.034 10.144)" fill="#363f66"/>
    <path id="Trazado_23500" data-name="Trazado 23500" d="M37.57,69.68l.107-.08Z" transform="translate(12.333 16.047)" fill="#363f66"/>
    <path id="Trazado_23501" data-name="Trazado 23501" d="M35.4,57.61c.16-.107.346-.186.533-.32C35.746,57.423,35.56,57.5,35.4,57.61Z" transform="translate(11.613 11.963)" fill="#363f66"/>
    <path id="Trazado_23502" data-name="Trazado 23502" d="M31.583,87.09a1.572,1.572,0,0,1-.373,0A1.572,1.572,0,0,0,31.583,87.09Z" transform="translate(10.222 21.851)" fill="#363f66"/>
    <path id="Trazado_23503" data-name="Trazado 23503" d="M37.25,34.162h-.16A.373.373,0,0,1,37.25,34.162Z" transform="translate(12.173 4.285)" fill="#363f66"/>
    <path id="Trazado_23504" data-name="Trazado 23504" d="M28.35,82.45h0l.8.972A8.913,8.913,0,0,1,28.35,82.45Z" transform="translate(9.273 20.311)" fill="#363f66"/>
    <path id="Trazado_23505" data-name="Trazado 23505" d="M.653,44.19a.333.333,0,0,0-.213.133A1.633,1.633,0,0,1,.653,44.19Z" transform="translate(0.012 7.616)" fill="#363f66"/>
    <path id="Trazado_23506" data-name="Trazado 23506" d="M50.663,66h0c-.24.413,0,1-.373,1.332C50.61,66.986,50.423,66.4,50.663,66Z" transform="translate(16.554 14.853)" fill="#363f66"/>
    <path id="Trazado_23507" data-name="Trazado 23507" d="M35.4,37.24v.386A1.825,1.825,0,0,0,35.4,37.24Z" transform="translate(11.613 5.309)" fill="#363f66"/>
    <path id="Trazado_23508" data-name="Trazado 23508" d="M35.516,37.675v-.986a2.664,2.664,0,0,1-.466-.759,2.331,2.331,0,0,0,.466.759Z" transform="translate(11.496 4.875)" fill="#363f66"/>
    <path id="Trazado_23509" data-name="Trazado 23509" d="M36.735,34.06c-.533.293-1.119.453-1.665.746.546-.293,1.132-.453,1.665-.746a1.132,1.132,0,0,0,1.026.186A1.132,1.132,0,0,1,36.735,34.06Z" transform="translate(11.503 4.254)" fill="#363f66"/>
    <path id="Trazado_23510" data-name="Trazado 23510" d="M59.2,38.729h0l-.293-.559A5.872,5.872,0,0,1,59.2,38.729Z" transform="translate(19.414 5.618)" fill="#363f66"/>
    <path id="Trazado_23511" data-name="Trazado 23511" d="M35.483,37.89a.679.679,0,0,0,0,.186.386.386,0,0,1,0-.186Z" transform="translate(11.636 5.525)" fill="#363f66"/>
    <path id="Trazado_23512" data-name="Trazado 23512" d="M35.44,37.75v.186a.519.519,0,0,0,0-.186Z" transform="translate(11.626 5.479)" fill="#363f66"/>
    <path id="Trazado_23513" data-name="Trazado 23513" d="M35.442,37.61v.213A.666.666,0,0,1,35.442,37.61Z" transform="translate(11.624 5.432)" fill="#363f66"/>
    <path id="Trazado_23514" data-name="Trazado 23514" d="M1.136,43.77l-.546.559h0C.816,44.076,1.016,43.93,1.136,43.77Z" transform="translate(0.062 7.476)" fill="#363f66"/>
    <path id="Trazado_23515" data-name="Trazado 23515" d="M2.1,53.02A7.046,7.046,0,0,1,1.97,54.1c.466-.386.786-.653,1.132-.972.133.107.266.186.346.266.613-.4,1.478-.533,1.665-1.332a2.064,2.064,0,0,1,.666-.306,2.038,2.038,0,0,1,.6,0,11.334,11.334,0,0,1,2.73-.986c.706,0,.946-.133,1.332,0l1.065-.559c.147.186.253.4.36.559.906-.586,1.638.186,2.544.107a4.356,4.356,0,0,1,.186-.4l.506.506h3.6a3.13,3.13,0,0,0,1.984-1.026c-.306-.107-.519-.16-.706-.24s-.639,0-.932-.186-.653.107-.892,0a2.81,2.81,0,0,0-1.465-.213c-.373,0-.719.213-1.092.213h-2.9c-.24,0-.479-.133-.693-.107-.6.08-1.185.24-1.745.346a2.757,2.757,0,0,0-.706-.479,9.323,9.323,0,0,0-1.931-.586c-.453-.08-1.012-.386-1.412-.107a1.172,1.172,0,0,1-1.332-.107c-1.079.533-1.718,1.6-2.557,1.958-.453.693,0,1.012.36,1.412l-.786.107A6.14,6.14,0,0,1,2.1,53.02Zm3.116-3.3a1.625,1.625,0,0,0,.373.266l.44.133c-.226.466-.44.866-.679,1.332H4.207l-.466.386H2.809A4.981,4.981,0,0,1,5.22,49.717Z" transform="translate(0.493 9.04)" fill="#363f66"/>
    <path id="Trazado_23516" data-name="Trazado 23516" d="M33.232,87.2l.346.426h1.239c-.107-.266-.186-.426-.293-.679a1.89,1.89,0,0,1,.373,0c.107.786.852.812,1.332.866a26.239,26.239,0,0,0,3.236,0,1.745,1.745,0,0,0,.759-.213,2.237,2.237,0,0,1,1.012.08c.306,0,.706.213.866.08a2.539,2.539,0,0,1,1.012-.186,9.749,9.749,0,0,0,1.532-.08c-.133-.426-.24-.786-.373-1.132h-.559c-.186-.24-.4-.506-.6-.719-2.917-.107-5.714.373-8.55.266-.213.293-.44.613-.653.932l-.639-.533c-.346.133-.639.266-.972.373.12.133.2.28.306.413Z" transform="translate(10.584 21.366)" fill="#363f66"/>
    <path id="Trazado_23517" data-name="Trazado 23517" d="M49.716,73.09l-.626.32-.666-.293a1.7,1.7,0,0,1,.133,1.092,2.97,2.97,0,0,0,.107,3.01,2.838,2.838,0,0,0-.24.293c.107.213.186.4.32.639-.346.266-.693.493-.986.733-.16.586.32.8.533,1.065l.866-.266a.679.679,0,0,0,0-.32c0-.32-.12-.666.213-.919a.679.679,0,0,1-.213-.719v-.186a5.327,5.327,0,0,1,.8-.573,4.541,4.541,0,0,0,.506-.466,3.516,3.516,0,0,0,.573-.613,1.092,1.092,0,0,0,.346-.719,3,3,0,0,1,.24-.812c-.266-.346-.533-.746-.759-1.039C50.355,73.223,50.035,73.17,49.716,73.09Zm-1.332,6.193H48.3v-.24h.08Zm1.452-5.554h-.08v-.24h.08Z" transform="translate(15.703 17.205)" fill="#363f66"/>
    <path id="Trazado_23518" data-name="Trazado 23518" d="M48.82,76.51v0Z" transform="translate(16.066 18.314)" fill="#363f66"/>
    <path id="Trazado_23519" data-name="Trazado 23519" d="M49.062,77.289c-.333.253-.24.6-.213.919,0-.32-.12-.666.213-.919a.653.653,0,0,1-.213-.719A.653.653,0,0,0,49.062,77.289Z" transform="translate(16.064 18.36)" fill="#363f66"/>
    <path id="Trazado_23520" data-name="Trazado 23520" d="M12.638,48.509c.16-.133.533,0,.826,0s.479.253.6.2c.693-.413,1.465,0,2.2-.226a4.1,4.1,0,0,0,.32-.346,15.2,15.2,0,0,0-5.82.32h.4C11.612,48.629,12.065,49,12.638,48.509Z" transform="translate(3.436 8.877)" fill="#363f66"/>
    <path id="Trazado_23521" data-name="Trazado 23521" d="M18.16,45.059l-.733-.719-1.252.586a2.809,2.809,0,0,1-.36-.24l-.426.506.506.32Z" transform="translate(4.973 7.665)" fill="#363f66"/>
    <path id="Trazado_23522" data-name="Trazado 23522" d="M14.349,45.692c.293-.16.586-.32.786-.4l1.012.24c-.32-.4-.453-.586-.639-.852l-1.332.586-.533-.293c-.08.133-.16.266-.293.533C13.656,45.559,14.083,45.346,14.349,45.692Z" transform="translate(4.296 7.778)" fill="#363f66"/>
    <path id="Trazado_23523" data-name="Trazado 23523" d="M13.68,44.9c-.107.16-.213.346-.32.533h0A1.891,1.891,0,0,1,13.68,44.9Z" transform="translate(4.299 7.851)" fill="#363f66"/>
    <path id="Trazado_23524" data-name="Trazado 23524" d="M11.889,45.739c.466-.266.839,0,1.332,0l-.426-.639-2.064.506v.213C11.17,45.819,11.622,45.912,11.889,45.739Z" transform="translate(3.426 7.917)" fill="#363f66"/>
    <path id="Trazado_23525" data-name="Trazado 23525" d="M26.356,58.92H26.01v.946h.772C26.6,59.426,26.489,59.16,26.356,58.92Z" transform="translate(8.497 12.503)" fill="#363f66"/>
    <path id="Trazado_23526" data-name="Trazado 23526" d="M10.689,48.566c-.186-.173-.293-.28-.426-.386-.266.133-.533.266-.772.413l.4.4Z" transform="translate(3.015 8.94)" fill="#363f66"/>
    <path id="Trazado_23527" data-name="Trazado 23527" d="M28.963,55.6a1.332,1.332,0,0,0,.346,0c-.107-.213-.213-.466-.346-.733H28.35v.107a1.4,1.4,0,0,0,.613.626Z" transform="translate(9.273 11.159)" fill="#363f66"/>
    <path id="Trazado_23528" data-name="Trazado 23528" d="M28.37,55a1.119,1.119,0,0,0,.559.6,1.678,1.678,0,0,1-.559-.6Z" transform="translate(9.28 11.203)" fill="#363f66"/>
    <path id="Trazado_23529" data-name="Trazado 23529" d="M51.922,37.626a4.513,4.513,0,0,1,0-.466H51.11C51.376,37.32,51.629,37.453,51.922,37.626Z" transform="translate(16.826 5.283)" fill="#363f66"/>
    <path id="Trazado_23530" data-name="Trazado 23530" d="M10.689,45.88l-.519-.44-.16.16a.769.769,0,0,0,.08.386Z" transform="translate(3.187 8.03)" fill="#363f66"/>
    <path id="Trazado_23531" data-name="Trazado 23531" d="M48.67,40.006l.44-.08a.766.766,0,0,0-.08-.426h-.36Z" transform="translate(16.016 6.059)" fill="#363f66"/>
    <path id="Trazado_23532" data-name="Trazado 23532" d="M13.478,45.36v-.08l-.706.08a.333.333,0,0,0,0,.16A1.492,1.492,0,0,0,13.478,45.36Z" transform="translate(4.101 7.977)" fill="#363f66"/>
    <path id="Trazado_23533" data-name="Trazado 23533" d="M13.476,45.473V45.34a1.252,1.252,0,0,1-.706.16Z" transform="translate(4.103 7.997)" fill="#363f66"/>
    <path id="Trazado_23534" data-name="Trazado 23534" d="M16.105,47.82l-.413.08a.16.16,0,0,0,0,.107h.413A.6.6,0,0,0,16.105,47.82Z" transform="translate(5.07 8.82)" fill="#363f66"/>
    <path id="Trazado_23535" data-name="Trazado 23535" d="M42.006,86.88a.16.16,0,0,0,0,.173h.4V86.84Z" transform="translate(13.796 21.768)" fill="#363f66"/>
    <path id="Trazado_23536" data-name="Trazado 23536" d="M29.05,55.569h0a3.353,3.353,0,0,1,.586.16c-.16-.186-.213-.266-.24-.266a.773.773,0,0,0-.24,0C29.29,55.622,29.183,55.6,29.05,55.569Z" transform="translate(9.505 11.353)" fill="#363f66"/>
    <path id="Trazado_23537" data-name="Trazado 23537" d="M29.05,55.54h0Z" transform="translate(9.505 11.382)" fill="#363f66"/>
    <ellipse id="Elipse_663" data-name="Elipse 663" cx="0.053" cy="0.16" rx="0.053" ry="0.16" transform="translate(64.686 89.909)" fill="#363f66"/>
    <path id="Trazado_23538" data-name="Trazado 23538" d="M28.35,82.51h0l.213-.16-.08-.08C28.4,82.35,28.35,82.4,28.35,82.51Z" transform="translate(9.273 20.252)" fill="#363f66"/>
    <path id="Trazado_23539" data-name="Trazado 23539" d="M28.33,82.5a.586.586,0,0,1,.133-.213A.426.426,0,0,0,28.33,82.5Z" transform="translate(9.267 20.258)" fill="#363f66"/>
    <path id="Trazado_23540" data-name="Trazado 23540" d="M28.35,82.53l.186-.16-.08-.08.08.08A1,1,0,0,0,28.35,82.53Z" transform="translate(9.273 20.258)" fill="#363f66"/>
    <path id="Trazado_23541" data-name="Trazado 23541" d="M7.37,48.57v.24h.08v-.24Z" transform="translate(2.311 9.069)" fill="#363f66"/>
    <path id="Trazado_23542" data-name="Trazado 23542" d="M38.12,29.332c-.186-.533-.32-.879-.426-1.172-.639-.226-1.026-.919-1.638-.786-.453.426-.826.786-1.185,1.079v.852c.36.16.733.293,1.079.453A3.01,3.01,0,0,1,38.12,29.332Z" transform="translate(11.437 2.03)" fill="#363f66"/>
    <path id="Trazado_23543" data-name="Trazado 23543" d="M40.853,47.3V46.41H40.64V47.3Z" transform="translate(13.351 8.352)" fill="#363f66"/>
    <path id="Trazado_23544" data-name="Trazado 23544" d="M24.947,49.049h.08V48.57H24.92Z" transform="translate(8.135 9.069)" fill="none"/>
    <path id="Trazado_23545" data-name="Trazado 23545" d="M25.08,47.106a7.458,7.458,0,0,0,.4.653c.519-.186.626-.479.466-1.079Z" transform="translate(8.188 8.442)" fill="none"/>
    <path id="Trazado_23546" data-name="Trazado 23546" d="M38.722,83.373V83.16l-.4.08a.16.16,0,0,0,0,.107A1.638,1.638,0,0,0,38.722,83.373Z" transform="translate(12.579 20.547)" fill="none"/>
    <path id="Trazado_23547" data-name="Trazado 23547" d="M24.24,50.486l.426-.08V50.06H24.16A2.4,2.4,0,0,0,24.24,50.486Z" transform="translate(7.883 9.563)" fill="none"/>
    <path id="Trazado_23548" data-name="Trazado 23548" d="M24.726,46.335l.506-.186C24.753,45.976,24.646,46.122,24.726,46.335Z" transform="translate(8.063 8.24)" fill="none"/>
    <path id="Trazado_23549" data-name="Trazado 23549" d="M24.58,49.35h.08v-.24h-.08Z" transform="translate(8.022 9.248)" fill="none"/>
    <path id="Trazado_23550" data-name="Trazado 23550" d="M25.97,46.163l-.4.533.08.08.719-.586V45.51a5.168,5.168,0,0,1-.4.653Z" transform="translate(8.351 8.054)" fill="none"/>
    <path id="Trazado_23551" data-name="Trazado 23551" d="M33.44,33.424c.24.613.413,1.026.573,1.452l.08-.107c.24.32.479.639.746.959l3.37-.373c-.08-.16-.16-.32-.213-.453l.293-.479-.8-.892a1.465,1.465,0,0,0,.08-1.691l.426-.586c.559-.186.906-.32,1.119-.373a6.043,6.043,0,0,0-.107-.946l.866-.16c-.426-.586-.759-1.039-1.105-1.558,0-.746-.693-1.225-.906-1.958-.107-.32-.653-.506-.946-.719l-1.012.346c0,.772-1.052.639-1.332,1.425v.826c-.772.479-.919,1.332-1.212,2.091.107.16.213.28.266.36a6.779,6.779,0,0,0-.186,2.837Z" transform="translate(10.936 1.427)" fill="none"/>
    <ellipse id="Elipse_664" data-name="Elipse 664" cx="0.16" cy="0.053" rx="0.16" ry="0.053" transform="translate(36.837 47.544)" fill="none"/>
    <path id="Trazado_23552" data-name="Trazado 23552" d="M31.811,46.6l-.919-.6-1.332.666a8.1,8.1,0,0,1,.546.639l1.332.493c-.32.186-.559.346-.826.533l.746.559a2.37,2.37,0,0,1,.28.36l-1.558.426c.639.32,1.2.586,1.9.906a2.211,2.211,0,0,0,1.332-.986c-.226-.573-.413-1.132-.6-1.638l-1.039-.346Z" transform="translate(9.675 8.216)" fill="none"/>
    <path id="Trazado_23553" data-name="Trazado 23553" d="M29.888,48.506l.346-.08V48C29.7,48,29.7,48.186,29.888,48.506Z" transform="translate(9.746 8.88)" fill="none"/>
    <path id="Trazado_23554" data-name="Trazado 23554" d="M27.8,41.39c-.16.253-.24.413-.32.519C27.826,41.989,27.826,41.989,27.8,41.39Z" transform="translate(8.985 6.686)" fill="none"/>
    <path id="Trazado_23555" data-name="Trazado 23555" d="M32.583,44.37a.2.2,0,0,0,0-.12H32.17v.226A3.475,3.475,0,0,1,32.583,44.37Z" transform="translate(10.541 7.635)" fill="none"/>
    <path id="Trazado_23556" data-name="Trazado 23556" d="M33.44,40.046l.413-.08a.16.16,0,0,0,0-.107H33.44a.453.453,0,0,1,0,.186Z" transform="translate(10.962 6.179)" fill="none"/>
    <path id="Trazado_23557" data-name="Trazado 23557" d="M38.9,29h-.24v.08h.24Z" transform="translate(12.694 2.575)" fill="none"/>
    <ellipse id="Elipse_665" data-name="Elipse 665" cx="0.053" cy="0.16" rx="0.053" ry="0.16" transform="translate(41.299 29.351)" fill="none"/>
    <path id="Trazado_23558" data-name="Trazado 23558" d="M31.072,24.537a.16.16,0,0,0,0,.107h.4V24.43a2.224,2.224,0,0,1-.4.107Z" transform="translate(10.174 1.059)" fill="none"/>
    <path id="Trazado_23559" data-name="Trazado 23559" d="M22.406,49.07c-.24.32-.453.559-.666.852.613.28,1.092.679,1.665.173.293.4.693.186,1.172.24-.133-.413-.213-.679-.293-.892Z" transform="translate(7.08 9.235)" fill="none"/>
    <path id="Trazado_23560" data-name="Trazado 23560" d="M31.65,27.06h.08v-.24h-.08Z" transform="translate(10.368 1.852)" fill="none"/>
    <ellipse id="Elipse_666" data-name="Elipse 666" cx="0.053" cy="0.16" rx="0.053" ry="0.16" transform="translate(75.074 43.575)" fill="none"/>
    <path id="Trazado_23561" data-name="Trazado 23561" d="M54.362,37.453c-.373-.133-.639-.266-.932-.373C53.67,37.24,53.83,37.892,54.362,37.453Z" transform="translate(17.596 5.256)" fill="none"/>
    <path id="Trazado_23562" data-name="Trazado 23562" d="M20.43,45.159l1.119.639c.466-.293.839-.533,1.132-.746.293.107.506.16,1.026.32-.306-.426-.44-.639-.573-.852Z" transform="translate(6.645 7.725)" fill="none"/>
    <path id="Trazado_23563" data-name="Trazado 23563" d="M20.027,48.76c-.426.133-.879.186-.719.906h0c.559.426.852.626,1.159.6a.453.453,0,0,0,.186,0l.213-.093a2.051,2.051,0,0,0,.346-.24v-.759c-.186-.186-.4-.4-.666-.693A.866.866,0,0,1,20.027,48.76Z" transform="translate(6.262 9.039)" fill="none"/>
    <path id="Trazado_23564" data-name="Trazado 23564" d="M31.65,24.87h.08v-.24h-.08Z" transform="translate(10.368 1.125)" fill="none"/>
    <path id="Trazado_23565" data-name="Trazado 23565" d="M4.237,44.5c-.133-.173-.24-.28-.4-.466H2.186c-.32.346-.533.546-.746.786.826.32,1.745.639,2.664.959l.333-.453a5.209,5.209,0,0,1-.466-.479C4.05,44.763,4.13,44.629,4.237,44.5Z" transform="translate(0.344 7.562)" fill="none"/>
    <path id="Trazado_23566" data-name="Trazado 23566" d="M7.49,46.53h.24v-.08H7.49Z" transform="translate(2.351 8.365)" fill="none"/>
    <path id="Trazado_23567" data-name="Trazado 23567" d="M60.009,47.683c-.426-.852-.906-1.572-1.252-2.384H57.518c-.4,0-.719-.16-.986.213-.333-.293-.679-.346-.946,0l-1.332-.932-1.145.346c-.08.613-.16,1.212-.28,1.851.466-.24.919-.479,1.239-.613a4.3,4.3,0,0,0,1.332-.253c.533-.32.826.36,1.332.2.16-.067.4.16.533.213.133.772.24,1.438.346,2.091l-.453.16c.08.213.133.4.186.586a3.689,3.689,0,0,1-2.384-.4l-1.212.426c.346.186.533.293.693.4v.759c.866.32,1.665-.133,2.664-.186l.852,1.252c-.479.653-1.332.733-1.532,1.612a1.878,1.878,0,0,0,1.958-.719c.333.107.6.213.892.293l.373-.426a2.863,2.863,0,0,1,.306-1.7c.226-.4,0-.639-.16-.946C60.208,48.815,59.929,48.176,60.009,47.683Z" transform="translate(17.396 7.745)" fill="none"/>
    <ellipse id="Elipse_667" data-name="Elipse 667" cx="0.053" cy="0.16" rx="0.053" ry="0.16" transform="translate(64.446 80.52)" fill="none"/>
    <path id="Trazado_23568" data-name="Trazado 23568" d="M49.68,65.8l.16.16.373-.08a1.424,1.424,0,0,0-.107-.586C49.893,65.53,49.787,65.663,49.68,65.8Z" transform="translate(16.351 14.617)" fill="none"/>
    <path id="Trazado_23569" data-name="Trazado 23569" d="M47.279,50.119V49c-.719.08-1.425.16-2.091.186a1.851,1.851,0,0,0-1.332.506c-.826-.16-1.691.373-2.57,0-.08,0-.293.213-.373.293a1.651,1.651,0,0,1,.107,1.332,2.064,2.064,0,0,0-.107.892,7.9,7.9,0,0,0,.533,1.332h.586c.133-.639-.16-1.252.213-1.745-.08-.266-.16-.506-.186-.666.28-.373.466-.666.653-.959a3.809,3.809,0,0,1,.4.719,3.21,3.21,0,0,1,.186,1.332h0l.479.506v.639c.293.44.573.786.839,1.159A4.355,4.355,0,0,0,44.469,53a14.412,14.412,0,0,0-.546-1.425l.892-.346c.346,1.332,1.039,2.118,1.8,2.171-.133-.293-.293-.559-.426-.879a5.168,5.168,0,0,1-.413-1.026,3.13,3.13,0,0,1,0-.852c.546-.266.759.293,1.105.586v.706c.266.373.693.586.772,1.145s.519.759.839,1.185a2.837,2.837,0,0,0-.186-2.118,13.078,13.078,0,0,0-1.026-2.024Z" transform="translate(13.438 9.212)" fill="none"/>
    <path id="Trazado_23570" data-name="Trazado 23570" d="M49.753,64.16H50.1V64l-.4.08Z" transform="translate(16.358 14.189)" fill="none"/>
    <path id="Trazado_23571" data-name="Trazado 23571" d="M40.083,49.89c-.24.08-.479.186-.693.24v.879c.426.213.586.812,1.172.786V50.343c.133-.08.346-.186.546-.32a4,4,0,0,0-.36-.333C40.482,49.77,40.269,49.81,40.083,49.89Z" transform="translate(12.937 9.441)" fill="none"/>
    <path id="Trazado_23572" data-name="Trazado 23572" d="M41.043,49a1.011,1.011,0,0,0-.107-.506L40.31,49Z" transform="translate(13.242 9.042)" fill="none"/>
    <path id="Trazado_23573" data-name="Trazado 23573" d="M52.672,46.849a2.9,2.9,0,0,1-.24-.559c-.24.213-.373.32-.533.479v1.026l.613.293a.839.839,0,0,0,.16-1.239Z" transform="translate(17.088 8.312)" fill="none"/>
    <path id="Trazado_23574" data-name="Trazado 23574" d="M29.723,46.582a3.223,3.223,0,0,1,1.585-.266,4.874,4.874,0,0,0,1.079,0h1.039c-.293-.719-.293-.719-.08-1.665-.639.32-1.212.626-1.851.972h-.959c.479-.16-.173-1,.586-.946.186-.346.373-.719.586-1.065s.453-.679.586-.892c-.08-.186-.16-.32-.24-.479-.559.586-1.039,1.132-1.585,1.718v.293c-.266.346-.479.693-.719.972s-.586.4-.479.879c-.812.786-1.585,1.585-2.451,2.437.093.2.173.44.36.946.533-.746.986-1.332,1.332-1.931a2.224,2.224,0,0,1,1.212-.972Z" transform="translate(8.766 6.968)" fill="none"/>
    <path id="Trazado_23575" data-name="Trazado 23575" d="M37.192,51.481c-.186-.373.293-.8,0-1.2s0-.892-.519-.972l-.772.733c-.107.426-.213.852-.32,1.332l.693.679c.213.213.4.479.6.719v-.107l.107.08C36.7,52.213,37.471,51.947,37.192,51.481Z" transform="translate(11.672 9.314)" fill="none"/>
    <path id="Trazado_23576" data-name="Trazado 23576" d="M52.534,49.145l-1.5-1.585c-.639.959-.639.959-.639,3.436.373.266.772.533.932.666l1.825.293c.346-.693.733-1.412,1.105-2.224C53.866,49.145,53.014,49.478,52.534,49.145Z" transform="translate(16.587 8.734)" fill="none"/>
    <path id="Trazado_23577" data-name="Trazado 23577" d="M53.69,48.53h.24v-.08h-.24Z" transform="translate(17.682 9.029)" fill="none"/>
    <path id="Trazado_23578" data-name="Trazado 23578" d="M41.59,49.061c.107-.426.533-.506.879-.693l.626.533V48a3.609,3.609,0,0,1-.946-2.89c.373-.32.24-.693.186-1.105a9.11,9.11,0,0,1-2.97,1.332c-.173.426-.253.693-.386,1.026.36.666.706,1.332.946,1.878A16.159,16.159,0,0,1,41.59,49.061Z" transform="translate(12.801 7.552)" fill="none"/>
    <path id="Trazado_23579" data-name="Trazado 23579" d="M33.1,58.58h.08v-.24H33.1Z" transform="translate(10.849 12.311)" fill="none"/>
    <path id="Trazado_23580" data-name="Trazado 23580" d="M34.265,43.476l-.546-.346v.453a3.317,3.317,0,0,0,.493,0,.24.24,0,0,0,.133,0,2.531,2.531,0,0,1-1.745.8c.266.36.453.573.586.759a2.424,2.424,0,0,0-.213.479l.613.293a11.454,11.454,0,0,1,2.584-.639,1.332,1.332,0,0,0,1.252-.786,4.861,4.861,0,0,0-2.837-1.145A1.638,1.638,0,0,0,34.265,43.476Z" transform="translate(10.683 7.264)" fill="none"/>
    <path id="Trazado_23581" data-name="Trazado 23581" d="M32.581,52.76a2.5,2.5,0,0,1-1.984.959c-.133.573-.24,1.052-.346,1.558.453.16.826.293,1.132.373l.453.653h1.092c.36-.466.706-.946,1.079-1.452A20.2,20.2,0,0,0,32.581,52.76Z" transform="translate(9.904 10.459)" fill="none"/>
    <path id="Trazado_23582" data-name="Trazado 23582" d="M44.38,47.562l.08.16a1.268,1.268,0,0,0,.133.373,3.794,3.794,0,0,0,.16.386l.146.213a1.2,1.2,0,0,0,.346.266.746.746,0,0,0,.666-.24c.133-.133.24-.293.373-.426a4.7,4.7,0,0,1-.453-2.85c.479-.479,1.026-.906.919-1.745-.519-.107-.866,0-.946.506a1.492,1.492,0,0,1-.133.44c-.506.826-1.052,1.625-1.612,2.491A1,1,0,0,1,44.38,47.562Z" transform="translate(14.486 7.44)" fill="none"/>
    <path id="Trazado_23583" data-name="Trazado 23583" d="M32,54.613c.107-1.452-1.252-1.931-1.691-3.116.253-.08.626-.32.812-.213.772.426,1.532.08,2.357.266-.24-.479-.4-.852-.586-1.225-.919-.08-1.825-.2-2.77-.28H29A4.435,4.435,0,0,1,27.9,48.5c0-.08-.293-.08-.479-.12.133.519.24.919.32,1.332l1.585,1.931v.519c.453.32.826.613,1.185.852v.693c.32.36.586.653.826.946a4.317,4.317,0,0,0,.666-.04Z" transform="translate(8.965 9.006)" fill="none"/>
    <path id="Trazado_23584" data-name="Trazado 23584" d="M38.442,50.582l-.213-.213-.679.346c.466.293.892.586,1.332.919.213-.36.4-.653.559-.892V49.69C38.842,49.717,38.789,50.316,38.442,50.582Z" transform="translate(12.326 9.441)" fill="none"/>
    <path id="Trazado_23585" data-name="Trazado 23585" d="M38.092,47.621a3.1,3.1,0,0,0-.772-2.491h-.586c-.293.533.186.786.346,1-.426,1.039.346,1.438.8,2.064-.08.266-.186.586-.293.959h1.185C38.957,48.473,38.558,48.073,38.092,47.621Z" transform="translate(12.024 7.927)" fill="none"/>
    <path id="Trazado_23586" data-name="Trazado 23586" d="M43.039,48.208a4.328,4.328,0,0,0,.346-2.291c.173-.186.36-.346.413-.426.133-.533.24-.932.32-1.332a.48.48,0,0,0-.08-.32h-.453c-.333.373-.6.733-.946,1.159A7.245,7.245,0,0,0,43.039,48.208Z" transform="translate(14.002 7.499)" fill="none"/>
    <path id="Trazado_23587" data-name="Trazado 23587" d="M43.44,48.81h.08v-.24h-.08Z" transform="translate(14.281 9.069)" fill="none"/>
    <path id="Trazado_23588" data-name="Trazado 23588" d="M79.363,56.241a3.037,3.037,0,0,0-.266-1.585,5.554,5.554,0,0,0-.986-1.984,10.574,10.574,0,0,0-2.144-1.478.772.772,0,0,0-1.052.133c-.426-.479-.959-.133-1.425-.266l-.479.479h-.879c-.519-.293-.892-.533-1.332-.772a6.526,6.526,0,0,1-1.185.533,2.011,2.011,0,0,0-1.5,1.026A15.98,15.98,0,0,1,66.67,53.99h-.6c-.133.346-.293.719-.426,1.039a7.578,7.578,0,0,1,.213.786,1.332,1.332,0,0,1-.186-.133l-.479.8-1-.346a5.827,5.827,0,0,1-.107.719H63.66c0-.719.133-1.478-.453-2.011.479-.586.133-1.185-.08-1.825l.719.293V52.7c.266-.186.639-.266.693-.479a7.991,7.991,0,0,0,.573-2.664c0-.133-.186-.293-.16-.346.346-.4,0-.826.186-1.332l-.693-.32.519-.266a2.464,2.464,0,0,0-.173-.506.906.906,0,0,0-.213,1.332.626.626,0,0,1-.266.866c-.266-.16-.506-.32-.8-.533a5.311,5.311,0,0,1-.107.8h-.44c-.08-.746.493-1.332.733-1.851a11.066,11.066,0,0,1,.186-1.612,12.492,12.492,0,0,0,.293-1.691.425.425,0,0,0,.24-.107v.866l.346.346c.12-.107.226-.24.413-.44-.08-.4-.16-.906-.24-1.332.133-.213.266-.493.4-.679-.133-.373-.24-.693-.373-1.039.133-.107.266-.24.479-.4.32.373.559.693.879,1.065a3.077,3.077,0,0,0,1.718.24c-.213-.719-.959-.666-1.452-.959a1.825,1.825,0,0,1-.32-.453c1.691-.12,2.957.826,4.435,1.012v.32l-1.052.32-.266-.213c-.32.519.16.786.213,1.132l.559.293,3.409.346c.626.706,1.691.6,2.5,1.052a1,1,0,0,0,.559.08c.08,0,.16-.133.32-.293.133.186.266.4.453.639l2.024-.666c0-.293-.067-.493-.067-.679H78.7l-.16.186-.093-.253.186-.16h0l-.266-.533c.426-.346.879-.693,1.239-.959-.24-.36-.466-.626-.679-.946l-.666.24c-.16-.133-.346-.32-.693-.639a3.876,3.876,0,0,1-.626.8,1.332,1.332,0,0,1-1.585.16c-.959-.533-2.064-.852-3-1.478a1.332,1.332,0,0,0-.519-.24c-.826-.107-1.691-.186-2.2-.24-1.119-.586-1.931-1.012-2.73-1.452H65.419c-.733.839-1.478,1.691-2.144,2.477a7.845,7.845,0,0,1-.706,2.943c.08.2.133.306.16.386-.266.373-.479.719-.719,1.065v1.185c-.16.186-.32.346-.533.559a10.832,10.832,0,0,0,.186,1.332c-.133.213-.426.24-.786.24a.533.533,0,0,0-.586.559,1.545,1.545,0,0,1,.266.32l-1.771-.186c-.266.28-.426.413-.533.519-.586,0-1.026-.546-1.332-.266a3.406,3.406,0,0,0-.479.639c-.293-.479-.4-1.026-1.079-.812-.24.226-.533.493-.826.786L53.459,50.3c-.346.16-.639.32-.959.453-.346-.16-.679-.346-1-.506l-.293.213a8.417,8.417,0,0,0-1.9-2.4c-.107.24-.213.493-.293.733l.346.533-1.079.639c-.133-.506-.266-.959-.4-1.412a4.553,4.553,0,0,1,.479-.186,6.394,6.394,0,0,0-.32-.573,1.84,1.84,0,0,1,.08-.213.852.852,0,0,1,.16-.213c-.08-.32-.16-.559-.24-.826a3.683,3.683,0,0,1-.226-.8l.24-.426a7.858,7.858,0,0,1-.852-1.691,1.691,1.691,0,0,1,0-.186V41.564a2.664,2.664,0,0,1-.466-.759,12.36,12.36,0,0,1-.426-1.412,4,4,0,0,1,.493-.333c.506-.266,1.119-.453,1.651-.746a1.132,1.132,0,0,0,1.026.186h.16l.213-.08c.293-.133.6-.293.892-.453-.293-.32-.466-.506-.653-.733a1.718,1.718,0,0,1,.333-.107c.32-.879.586-1.665.852-2.437l-.293-.533a13.266,13.266,0,0,1,1.332-1.105V31.122c-.226-.133-.466-.266-.706-.426a10.8,10.8,0,0,0-1.958-3.383V25.861c0-.479.293-.852.213-1.2s.213-.919,0-1.239.24-.839-.107-1.332c-.213-.133-.479-.266-.772-.453a3.01,3.01,0,0,0-.107.4c-1.332.133-1.851,1.478-2.744,2.224h-1.7A2.983,2.983,0,0,0,43.1,22.931c-.2-.08-.44-.36-.413-.546,0-.559-.426-.693-.746-1.145-.213.373-.4.639-.666,1.092.08.32-.28,1.026.186,1.665-.653.4-.32,1.239-.812,1.825s-.559,1.332-1.012,1.9c-.413-.08-.786,0-.786.533s-.24.493-.4.706,0,.133-.133.24.186.506.266.746-.213.28-.266.386c.293.479.479.986.719,1.438a3.543,3.543,0,0,0,1.332,1.718c.16.107.24.306.373.466A10.4,10.4,0,0,1,42.231,36.9a12.665,12.665,0,0,1-.666,1.425,2.664,2.664,0,0,0-.293,1.425c-1.105,1.039-2.211,1.958-3.116,3v.626c-.186-.133-.293-.24-.426-.32-.413.772-1.332.959-1.665,1.638-.133.693-.24,1.332-.36,2.038l-.4.373v1.4c.16.32.293.586.4.772-.16.426-.293.8-.426,1.212l.213.24-.559,1.119-.32-.08-1.532-.4c-.613.426-1.332.186-1.958.24-1.332.107-2.664.213-4,.293-.107.2-.24.44-.373.653a1.332,1.332,0,0,1-1-.213,1.585,1.585,0,0,0-1.585-.16c.186.346.479.666.479.986s.812.533.413,1.105c-.44-.16-.839-.293-1.332-.479-.107.213-.24.426-.373.639-.573-.24-1.159-.453-1.718-.706-.426.173-.839.306-1.332.466-.293-.466-.533,0-.559,0-.546-.107-.972-.32-1.185-.186a3.729,3.729,0,0,1-1.612.213,6.327,6.327,0,0,0-.826.186,6.659,6.659,0,0,0-2.664-.186c-.8,0-1.612.506-2.544.08l1.745-.426a.666.666,0,0,0-.972-.36c-.453.306-.906.107-1.332.253-.08.16-.133.32-.28.666-.186-.346-.293-.533-.426-.759l-1.8.4c-.506-.413-1.092-.653-1.332-1.079a13.478,13.478,0,0,0-1-1.159,8.35,8.35,0,0,0-1.665-.879c-.639-.133-1-.946-1.9-.693L1.317,51.3l-.546.559.186.173-.08.08-.213-.2h0a.333.333,0,0,0-.213.12c-.107.133,0,.32,0,.479h0a2.8,2.8,0,0,0,.213.586c.653,1.119,1.865,1.119,2.61,1.638,0,0,.16-.133.213-.186l.586.586c.919.453,1.8.346,2.664.866a2.211,2.211,0,0,0,.906-.107.892.892,0,0,1,1.079,0s1.691.133,1.718.133a20.177,20.177,0,0,1,2.517-.266,2.943,2.943,0,0,0,1.745-.546,7.272,7.272,0,0,1,1.878.133,10.881,10.881,0,0,0,2.357.133c.44-.479,1.052,0,1.452-.293s1-.133,1.5-.186h.826a2.837,2.837,0,0,1,2.051.546,12.387,12.387,0,0,0,2.784-.213c.559-.133,1.026-.453,1.585-.559a4.115,4.115,0,0,0,2.411-.826c-.133.453.546.613.107.986.133.32.293.666.44,1-.226.16-.493.32-.706.453v.746l-.772.786a2.037,2.037,0,0,0-.293-.213c-.226.107-.413.213-.626.293-.453-.812-.453-.812-1.958-.812-.266-.16-.506-.266-.852-.453a12.373,12.373,0,0,0-3.223.213c-.759-.346-.866-.32-1.452.293a3.516,3.516,0,0,1,.586,1.052c.08.346.679.559,1.052.852a2.784,2.784,0,0,0,3.01.706q.679.4,1.332.8l1.105-.586a6.807,6.807,0,0,1,.906.107c.333.08.6.32.919.373a6.3,6.3,0,0,0,1.239,0,4.675,4.675,0,0,0,1.412,2.451s.08.133.107.186c.493.826.466.879,1.159,1.332a11,11,0,0,1,1.771,1.332,1,1,0,0,0,.919.346,5.326,5.326,0,0,0-.466-.479,4.275,4.275,0,0,1-1.332-1.478,1.332,1.332,0,0,1,.346.08,25.2,25.2,0,0,1,2.331,1.332,1.6,1.6,0,0,1,.639.559,5.021,5.021,0,0,0,1.079,1.332,14.13,14.13,0,0,1,1.332,1.159.713.713,0,0,0,.107.32l-.479.24c-.253-.346-1.105,0-1.265-.719-.453-.253-1-.28-1.4-.679s-.906-.719-1.332-1.119-1.092-.493-1.172-1.185a3.1,3.1,0,0,1-1.745-1.239h-.546a50.608,50.608,0,0,0-1.412,5.021c-.24,1.132-.493,2.277-.839,3.409-.213.746-.266,1.585-.506,2.331a2.051,2.051,0,0,1-.892,1.332,14.89,14.89,0,0,1-3.423,1.612,6.313,6.313,0,0,0-2.051.852,1.332,1.332,0,0,1-1.438,0l-1.332.519a10.215,10.215,0,0,1,2.224.373,6.406,6.406,0,0,1,.706.266.906.906,0,0,1,.32-.16h.107a.666.666,0,0,1,.213,0h1.159l1.931-.266c.16-.213.4-.493.613-.786l.08.133.906-.346c.147-.24.2-.4.306-.479.373-.4.826-.786,1.172-1.212a3.543,3.543,0,0,0,1.079-2.331,1.212,1.212,0,0,1,.133-.533,10.428,10.428,0,0,0,1.105-4c.932.493,1.745.946,2.57,1.332a4.768,4.768,0,0,0-.4,2.557,9.043,9.043,0,0,1,.213,1.225c0,.892.16,1.771.24,2.664,0,.08.08.133.08.213a13.986,13.986,0,0,1,.373,1.771,1.8,1.8,0,0,0,.493,1.265v2.73c-.226.16-.493.4-.6.479-.24.972-.852,1.558-.932,2.4a8.63,8.63,0,0,1-.8,2.158c0,.186.186.453.133.533-.373.533,0,1.185-.293,1.691s-.08,1.332-.16,1.878a10.894,10.894,0,0,0,0,1.332c0,.293.107.639-.24.852,0,.653-.586,1.332,0,1.984.107.133,0,.493,0,.706-.266.639-.559,1.332-.866,1.958,0,0,.173.16.173.213-.173.4,0,.852-.44,1.212a1.651,1.651,0,0,0-.293,1.332l.972,2.291a.961.961,0,0,1-.08.453l-.812-.293c.08.266.24.479.4.479a9.922,9.922,0,0,1,2.5.666,1.7,1.7,0,0,1,1.265,1.052,1.878,1.878,0,0,0,.586.826,4.448,4.448,0,0,0,2.517.866,4.2,4.2,0,0,1,.812.08,1.572,1.572,0,0,0,.373,0,3.077,3.077,0,0,0,1.332-.373h-.546c.133-.493.24-.892.32-1.332-.24-.32-.639-.533-.506-1l-.08-.08a2.078,2.078,0,0,1-1.478-1.012,13.932,13.932,0,0,0-1.478-1.665c-.306.107-.626.186-.972.293l-.826-1-.759-.24c.186-.346.346-.586.506-.879a3.809,3.809,0,0,1-1.2-1.239,5.767,5.767,0,0,0,.453-1.332,9.122,9.122,0,0,0,0-1.465c.266-.519.479-.946.719-1.332,0-.786-.186-1.638.413-2.251.133-.812.24-1.532.373-2.317a1.971,1.971,0,0,0,.44-1.558,9.923,9.923,0,0,0,.972-2.251,6.992,6.992,0,0,1,.932-2.144c-.133-.852.733-1.452.533-2.2.306-.16.493-.293.706-.426-.08-1.079.693-2.131,0-3.143.213-.213.373-.373.506-.533.133-.679-.186-1.332.213-1.958-.133-.28-.266-.519-.4-.759l.479-.479V74.194l.293-.293h1.092a1.545,1.545,0,0,1,.266.506,15.663,15.663,0,0,1,.426,2.451,2.664,2.664,0,0,0,.759,1.532v1.132l.426.426A17.46,17.46,0,0,0,46.48,83.1a.773.773,0,0,1,0,.24,2.1,2.1,0,0,1,.12.479,2.744,2.744,0,0,1,0,.453c-.733,1.878-1.425,3.25-1.239,4.755-.293.426-.506.772-.733,1.092a3.657,3.657,0,0,0,.28,2.1c0,.08-.16.107-.16.186a2.477,2.477,0,0,0,.2,1.758.8.8,0,0,1,0,.559,5.461,5.461,0,0,0,0,2.85,3.609,3.609,0,0,1-.08,1.6c-.173.573-.493,1.079-.679,1.638a4,4,0,0,1-1.4,1.878,2.544,2.544,0,0,1,.306.6,1.931,1.931,0,0,1,0,.559,7.46,7.46,0,0,0,1.2.373,9.188,9.188,0,0,0,1.212,0,3.142,3.142,0,0,1-.213-.426h1.012l1.105,1.105a4.861,4.861,0,0,1,1.212.16c.266.107.586-.16.826.133a7.392,7.392,0,0,0,3.33-.386l.959-.959-.6-.626c-.719-.24-1.478.533-2.3.107.16-.626.693-.626,1.012-.866l.919.479v-.666l-1.691-.4c-.373-.586-.533-1.425-1.452-1.585l-1.039.693H47.559a7.618,7.618,0,0,0-.266-.772,16.741,16.741,0,0,1,1.145-4.808l-.32-.453.546-.613a2.863,2.863,0,0,0-.226-1.5l.426-.4a18.326,18.326,0,0,1,1.119-6.659h0a1.012,1.012,0,0,1-.133-.16h0l.107-.08h0a8.83,8.83,0,0,0,0-1.185c0-.346.173-.693-.186-1.012s.16-.6,0-1.026a2.823,2.823,0,0,0-.626-1.465,1.5,1.5,0,0,1-.679-1.412,12.08,12.08,0,0,0-.186-1.332,2,2,0,0,0,.186-.213.586.586,0,0,1,0-.946c-.133-.373-.24-.693-.346-.959a5.327,5.327,0,0,0-.413-3.13,2.144,2.144,0,0,0,.24-.373,4.222,4.222,0,0,1-.506-2.557l-.133-.133-.24-.24h0l-.107-.107h0c.16-.107.346-.186.533-.32L47.705,69c-.346-.812.733-1.585-.133-2.451.32-.24.586-.479.892-.693a.466.466,0,0,1-.173-.107c.173-.479.333-.959.519-1.452-.107-.186-.213-.426-.346-.639.4-.559.107-1.212.107-1.8l-.107-.08v.107c-.2-.24-.386-.479-.6-.719a6.659,6.659,0,0,0-.693-.679l.32-1.332c.24-.213.479-.426.772-.719.493.08.28.666.519.972s-.133.826,0,1.2-.493.759-.266,1.212h.08l.826.32.133-.16,1.105,1.105c.24-.133.533-.333.826-.519h.653a5.394,5.394,0,0,0,1.2,1.4c.519.32.866.892,1.612,1.026.346-.16.866.213,1.332-.253.08-.08.4,0,.533,0,.733.426,1.585.613,2.038,1.332H61.13c.466-.32.733-.533.946-.693a3.569,3.569,0,0,1,2.264,2.158l.706.133c.08.373,0,.719.24,1.052a1.332,1.332,0,0,1,.266,1.065,5.207,5.207,0,0,0,0,.919c.213.479.373.8.613,1.332l-.879-.506a3.663,3.663,0,0,0-.972-2.664v-.946c-.426-.293-.426-.293-.879-.213.24,1.052.506,2.118.746,3.223l.346.08c-.08.906.706,1.425,1.185,1.958-.213.639-.4,1.212-.586,1.825a1.332,1.332,0,0,1,.16.186l-.266.32c.746,1.052,0,1.691-.679,2.344a6.926,6.926,0,0,1,0,1.825,12.972,12.972,0,0,0-.453,3.782c0,.186.08.453,0,.586-.613.852.107,1.585.08,2.437l1.052-.533.293.293c-.16.32-.32.653-.519,1l.866.266c.266-.186.479-.346.693-.479-.107-.333-.32-.626-.24-.839.293-.772.32-1.638.6-2.411a1.625,1.625,0,0,0-.253-1.385A.879.879,0,0,0,66.79,82c.32-.346.107-.919.373-1.332l-.506-.16c.293-.479.559-.932.879-1.425l-.586-.426.559-.586c-.24-.892.586-1.332.919-1.878-.306-.32-.36-.679,0-.972a6.34,6.34,0,0,1-.972-3c-.346-.679-.613-1.159-.852-1.638l.24-.44-.786-.506a2.929,2.929,0,0,1,.293-.373,2.783,2.783,0,0,1-.8-1.745,8.936,8.936,0,0,0-.586-2.277,3.463,3.463,0,0,1-.36-1.8V62.394L64.1,60.875l-.959-.533a7.42,7.42,0,0,1-.839-.586c.107-.626.186-1.105.293-1.638.6.666,1.132,0,1.745,0,.107.133.346.373.32.506-.213.653.493.866.573,1.332s.613.826,1.172,1.079h1.079l1.105,1.092,1.092.24.679-.373c.746.346,1.771.213,1.771-.32a4,4,0,0,1-.253-.346,2.664,2.664,0,0,0,.36-.107c.16.346.32.666.479.986a4.275,4.275,0,0,1,2.224.293,4.637,4.637,0,0,1,.479-.293,3.716,3.716,0,0,1,.493-.186l.16.16c1.119-.373,1.119-.346,1.745-1.239a5.675,5.675,0,0,1,.426-.666,3.29,3.29,0,0,0,.826-2.3,3.862,3.862,0,0,1,.546-1.612C79.536,56.48,79.336,56.347,79.363,56.241ZM75.074,43.628h.08v.24h-.08Zm-3.116-.919c-.533.44-.719-.24-.932-.373C71.319,42.469,71.612,42.576,71.958,42.709Zm-20.6-11.134h.24v.08h-.24Zm-9.975-2.011H41.3v-.24h.08Zm-.107-3.889a.16.16,0,0,0,0-.107l.4-.08V25.7a2.011,2.011,0,0,0-.4.027Zm.826,3.236h-.08v-.24h.08Zm0-2.9h-.08v-.24h.08ZM4.341,53.337l-2.6-.959c.24-.24.426-.466.746-.786H4.181l.4.466a3.476,3.476,0,0,0-.266.4,5.208,5.208,0,0,0,.466.479,3.609,3.609,0,0,0-.44.4Zm5.74,1.558h-.24v-.08h.24ZM29.326,52.8l-1.132.746c-.293-.16-.639-.346-1.119-.639.959-.213,1.8-.426,2.664-.613.133.213.266.4.573.852a10.308,10.308,0,0,0-.986-.346Zm-1.878,6.166a2.05,2.05,0,0,1-.346.24c-.08,0-.133.093-.213.093a.453.453,0,0,1-.186,0c-.306,0-.6-.2-1.159-.6h0c-.133-.746.32-.8.719-.906a1.212,1.212,0,0,0,.519-.266l.666.693Zm3.037.36c-.573.533-1.052.133-1.665-.173.213-.293.426-.533.666-.852l1.878.346c.08.213.16.479.293.892-.479,0-.879.186-1.159-.213Zm2.038.639-.426.08A.713.713,0,0,0,32,59.623h.519Zm.16-1.332H32.6V58.4h.08Zm.586-4.209a1.649,1.649,0,0,0-.506.186c-.053-.253.053-.4.506-.226Zm-.107,3.689h-.107v-.479h.107Zm.479-1.9c-.133-.186-.24-.4-.4-.653l.866-.426c.213.6.08.892-.44,1.079Zm.333-1.332-.08-.08c.133-.186.293-.346.4-.533a6.006,6.006,0,0,0,.32-.653V54.3ZM51.288,103.72v.213h-.4a.16.16,0,0,0,0-.107,2,2,0,0,0,.413-.12ZM44.349,31.575c.293-.746.44-1.612,1.212-2.091v-.826c.213-.786,1.212-.653,1.265-1.425l1.012-.346c.293.213.839.4.946.719.24.733.932,1.212.906,1.958.346.519.706.972,1.105,1.558-.346.08-.573.107-.866.16a3.531,3.531,0,0,0,.107.946l-1.119.373-.426.586a1.452,1.452,0,0,1-.093,1.691l.812.892-.293.479c.08.133.133.293.213.453l-3.383.373c-.266-.346-.506-.666-.746-.959l-.08.107c-.173-.4-.333-.839-.573-1.452a7.512,7.512,0,0,1,.24-2.89A1.492,1.492,0,0,1,44.349,31.575Zm.466,14.65-.413.08v-.213h.413A.24.24,0,0,1,44.815,46.225Zm-1.691,5.66a.213.213,0,0,0,0,.12l-.413.08v-.226a1.758,1.758,0,0,0,.413,0Zm-.16,5.993a2.144,2.144,0,0,1-1.332.986l-1.9-.906,1.558-.426a1.691,1.691,0,0,0-.28-.36,7.776,7.776,0,0,0-.746-.559l.826-.533-1.332-.493-.546-.639c.466-.24.866-.426,1.332-.666l.919.559a5,5,0,0,1-.186,1.052l1.039.346c.24.506.453,1.065.653,1.612Zm-3.33-.466c-.186-.32-.186-.506.346-.506v.426a1.332,1.332,0,0,1-.346.053Zm-2.77-9.856h.293v.08h-.24Zm-.08.506c0,.6,0,.6-.32.519.08-.093.16-.253.32-.506Zm-.826,8.3c-.186-.479-.266-.719-.36-.946l2.451-2.437c-.107-.479.266-.613.479-.879s.453-.626.719-.972v-.293c.546-.586,1.026-1.132,1.585-1.718.08.16.133.293.24.479-.16.213-.373.546-.586.892s-.4.719-.586,1.065c-.733,0-.08.812-.586.946h.959c.639-.32,1.239-.626,1.851-.972-.213.946-.213.946.08,1.665H41.166a7.284,7.284,0,0,1-1.079,0,3.556,3.556,0,0,0-1.585.266,2.051,2.051,0,0,0-1.159.892c-.4.679-.852,1.279-1.385,2.024Zm3.569,6.353v-.693c-.36-.24-.733-.506-1.185-.852v-.519c-.506-.639-1.079-1.332-1.585-1.931-.107-.4-.213-.8-.32-1.332.186,0,.453,0,.479.107a4.435,4.435,0,0,0,1.105,1.545h1.119c.946.08,1.851.2,2.77.28.186.373.346.719.586,1.225-.8-.186-1.585.186-2.357-.266-.186-.107-.559.133-.812.213.44,1.185,1.8,1.665,1.691,3.116h-.586Zm3.343,4H41.779l-.453-.506c-.306-.107-.679-.24-1.132-.373.107-.506.213-.986.346-1.558a2.5,2.5,0,0,0,1.944-1.026c.546.772.972,1.332,1.452,2.118-.333.453-.706.959-1.065,1.425Zm1.159,4.1h-.08v-.24h.08Zm2.744-18.326a11.813,11.813,0,0,0-2.584.639,4.5,4.5,0,0,0-.613-.293c.08-.16.133-.293.213-.479l-.586-.759a2.53,2.53,0,0,0,1.745-.8.24.24,0,0,0-.133,0h-.493v-.453l.546.346.213-.107a4.8,4.8,0,0,1,2.837,1.145,1.2,1.2,0,0,1-1.145.839Zm13.385-.479a1.065,1.065,0,0,0,.133-.44c.107-.506.426-.586.946-.506a1.94,1.94,0,0,1-.919,1.745,4.528,4.528,0,0,0,.479,2.877c-.133.133-.24.293-.373.426a.719.719,0,0,1-.666.24.919.919,0,0,1-.346-.266.613.613,0,0,1-.146-.213c0-.133-.107-.24-.16-.386s-.08-.24-.133-.373l-.08-.16a1.745,1.745,0,0,0-.32-.453c.533-.786,1.079-1.612,1.585-2.411Zm-3.489.426.946-1.159h.453a1.4,1.4,0,0,1,.08.32c-.08.413-.186.812-.32,1.332,0,0-.213.24-.413.426a4.288,4.288,0,0,1-.28,2.384,6.659,6.659,0,0,1-.466-3.223ZM57.8,57.559v.24h-.08v-.24Zm-8.164-.546c.107-.373.213-.666.293-.959-.453-.626-1.252-1.052-.8-2.064-.186-.213-.639-.466-.346-1h.586a3.01,3.01,0,0,1,.772,2.557c.44.44.866.839.706,1.532Zm2.171,3.17c-.16.24-.346.533-.559.892-.453-.333-.906-.626-1.332-.919l.559-.346.213.213c.346-.266.426-.892,1.039-.892Zm0-6.326c.107-.333.213-.6.386-1.026.852-.426,2.064-.426,2.97-1.332,0,.413.186.786-.186,1.105a3.516,3.516,0,0,0,.946,2.943v.892c-.28-.213-.44-.373-.626-.533-.373.16-.772.24-.879.693l-1.638-.879C52.513,55.215,52.167,54.522,51.807,53.857Zm2.477,4.182h-.733l.626-.506C54.231,57.772,54.258,57.879,54.284,58.038ZM53.5,59.783v1.452c-.613,0-.746-.573-1.172-.786v-.906a5.326,5.326,0,0,1,.693-.24,4.369,4.369,0,0,0,.693-.173s.173.146.36.333Zm8.377,3.676c-.293-.4-.786-.786-.839-1.185s-.479-.772-.772-1.145v-.706c-.346-.266-.533-.852-1.105-.586a3.25,3.25,0,0,0,0,.852,6.872,6.872,0,0,0,.413,1.026c.133.293.293.586.426.879-.733,0-1.425-.852-1.8-2.171l-.892.346c.213.546.413.972.546,1.425a3.756,3.756,0,0,1,.107,1.452l-.826-1.159v-.639l-.479-.506h0a3.21,3.21,0,0,0-.186-1.332,2.437,2.437,0,0,0-.4-.719c-.213.293-.413.586-.653.959a4.545,4.545,0,0,0,.186.666c-.373.466-.08,1.105-.213,1.745H54.8a7.9,7.9,0,0,1-.533-1.332,1.492,1.492,0,0,1,.107-.892,1.558,1.558,0,0,0-.107-1.332c.107-.08.293-.32.373-.293.852.373,1.718-.16,2.57,0a1.891,1.891,0,0,1,1.332-.506,19.937,19.937,0,0,0,2.091-.186V59.3a7.991,7.991,0,0,1,.972,2.011A2.5,2.5,0,0,1,61.876,63.459ZM64.54,80.773h-.08v-.24h.08Zm1.638-.213-.16-.16c.107-.133.213-.266.426-.506a2.313,2.313,0,0,0,.107.586Zm.28-2.211h-.4a.16.16,0,0,0,0-.107l.4-.053a.4.4,0,0,1,0,.16Zm2.53-23.294.533-.479a4.3,4.3,0,0,0,.24.559.852.852,0,0,1-.16,1.239l-.613-.293Zm.8,5.634L67.962,60.4c-.186-.133-.586-.4-.932-.666,0-2.477,0-2.477.639-3.436l1.452,1.585c.4.266,1.332,0,1.718.586C70.519,59.277,70.133,60,69.787,60.689Zm1.825-3.13h-.24v-.08h.24Zm5.714.533a2.544,2.544,0,0,0-.373,1.771c-.16.186-.266.32-.373.426L75.687,60a1.811,1.811,0,0,1-1.9.693c.146-.879,1.052-.959,1.532-1.612l-.866-1.252c-.919,0-1.745.506-2.664.186v-.759c-.186-.107-.346-.186-.693-.4l1.212-.426a3.556,3.556,0,0,0,2.384.4l-.186-.586.453-.16c-.107-.653-.213-1.332-.346-2.091-.133,0-.373-.28-.533-.226-.493.173-.786-.506-1.332-.186a5.167,5.167,0,0,1-1.4.253c-.293.16-.746.373-1.239.613.093-.639.173-1.239.28-1.851l1.145-.346c.4.293.892.613,1.332.932.266-.32.613-.266.932,0,.28-.373.653-.186,1-.213s.8,0,1.239,0c.346.812.826,1.532,1.252,2.384-.08.519.2,1.159-.24,1.718C77.3,57.452,77.538,57.692,77.325,58.092Z" transform="translate(0)" fill="#363f66"/>
    <path id="Trazado_23589" data-name="Trazado 23589" d="M15.481,68.14a9.949,9.949,0,0,0,.906-2.064c0-.107,0-.479,0-.826h-.559a6.766,6.766,0,0,0-2.277,4.715c.293.133.453.226.613.306l.533-.28a13.6,13.6,0,0,1,.786-1.851Z" transform="translate(4.362 14.604)" fill="#363f66"/>
    <path id="Trazado_23590" data-name="Trazado 23590" d="M14.159,69.913l-.639-.373C13.68,69.86,13.786,70.286,14.159,69.913Z" transform="translate(4.352 16.027)" fill="#363f66"/>
    <path id="Trazado_23591" data-name="Trazado 23591" d="M16.263,65.09H15.85V65.3a2.091,2.091,0,0,0,.413-.107A.16.16,0,0,1,16.263,65.09Z" transform="translate(5.125 14.551)" fill="#363f66"/>
  </g>
</svg>
