<svg xmlns="http://www.w3.org/2000/svg" width="57.252" height="88" viewBox="0 0 57.252 88">
  <g id="Calavera_refrescos-mexicanos" transform="translate(-8.825 -15.71)">
    <path id="Trazado_23592" data-name="Trazado 23592" d="M32.021,54.023c-.171-.1-.33-.226-.525-.326a1.629,1.629,0,0,0-.818.1c-.269.1-.561-.075-.854.1s-.464,0-.732.126a.41.41,0,0,1-.317-.126.541.541,0,0,1-.7.2c-.256-.3-.586-.716-.879-1.055-.073-.226-.134-.439-.207-.741-.1-.1-.293-.264-.452-.439s-.293-.414-.415-.54c.134,0,.232-.163.366-.226v-.213c-.134-.126-.232-.339-.5-.339-.061,0-.2-.1-.2-.163,0-.339-.354-.477-.391-.8,0-.138-.232-.276-.33-.414s-.232-.5-.366-.741a.983.983,0,0,1-.22-.8c-.134-.1-.232-.239-.366-.339v-.615c-.2-.3-.427-.565-.622-.879a1.555,1.555,0,0,1-.232-.4,1.909,1.909,0,0,0-.586-1.042,3.63,3.63,0,0,0,0-.515,3.825,3.825,0,0,0-.2-.465c-.073-.3-.1-.64-.171-1.017a.909.909,0,0,1-.2-.2V40.789a6.047,6.047,0,0,0,.391-.8,3.2,3.2,0,0,1-.256-.3,2.687,2.687,0,0,0-.33.3h-.366a1.137,1.137,0,0,1-.159-.2c-.1-.2-.2-.377-.464-.377s-.256-.138-.293-.364c-.232,0-.525.063-.683-.138s-.366-.239-.464-.4a3.682,3.682,0,0,0-1.282-1.055c-.232-.126-.561-.239-.659-.6H17.2a1.909,1.909,0,0,1-.2-.339c-.134,0-.232.1-.366.138-.488-.578-1.221-.54-1.831-.954a1.738,1.738,0,0,0-.989-.9c-.366-.1-.72-.477-1.123-.176a4.877,4.877,0,0,1-.586-.126,11.408,11.408,0,0,0-1.855-1.394c-.073-.3-.134-.565-.171-.741l-.549-.841c-.073-.439-.1-.841-.171-1.256s-.256-.7,0-1c0-.276-.1-.54-.122-.917l-.293-.6a1.2,1.2,0,0,0-.11-.753.632.632,0,0,1,0-.3c.269-.3.073-.565,0-.879l.232-.439c0-.3.1-.6.122-.979a4.229,4.229,0,0,1-.354-.4c.134-.339.134-.339,0-.8A4.727,4.727,0,0,1,9.2,22.8a2.5,2.5,0,0,1,.732.917l-.366.9a2.738,2.738,0,0,0,.134.3.286.286,0,0,1-.1.176c.2.163-.073.54.33.678v.665a4.572,4.572,0,0,0,0,1.155c.1.339,0,.741.2,1.042a.154.154,0,0,1,0,.176c-.159.163-.1.4-.1.6l.464.578v.54c.1.1.232.2.354.339a1.834,1.834,0,0,0,.232-.176v-.9a1.033,1.033,0,0,0,.952-.339c0-.176.1-.377-.1-.578a.387.387,0,0,1,0-.239c.2-.239.073-.439,0-.7-.159-.54-.159-.54.073-1.318a.356.356,0,0,0,.122.1l.171-.163a4.643,4.643,0,0,0-.5-.477l.134-.3c-.256-.239,0-.64-.2-1.017a3.1,3.1,0,0,1,0-1.118,3.732,3.732,0,0,1-.22-.439c.22-.364.1-.8.122-1.256h-.293a3.134,3.134,0,0,1-.256.841l.256.2q-.191.463-.427.9a5.468,5.468,0,0,0,.366.578v.64a16.076,16.076,0,0,0,.159,1.72,1.014,1.014,0,0,0-.293.213.706.706,0,0,1,.061.226c.134.314.134.314-.2.515-.1-.2-.2-.414-.33-.64a1.179,1.179,0,0,0,.1-.314c-.22-.64-.061-1.419-.586-2.059.061-.226-.159-.54.159-.7a1.662,1.662,0,0,0-.122-.239l.488-.5a5.642,5.642,0,0,0-.2-1.08c0-.075-.1-.1-.2-.2l-.7.7a1.444,1.444,0,0,1-.391-.176,4.6,4.6,0,0,1,.134-.8c.061-.276.22-.54.293-.854s0-.565.2-.8h.757l.122.138h0c-.293.339.1.678,0,.979a3.177,3.177,0,0,0,0,.6l.427-.565c.073-.377.134-.678.171-.954l.683-.54v.314l.159.163h.366a3.412,3.412,0,0,1,.232.4l.354-.1.171.176a3.807,3.807,0,0,1-.171.778,4.848,4.848,0,0,0-.622.364,5.739,5.739,0,0,0-.525.64,1.194,1.194,0,0,0,.2.979c.073.2-.1.439.171.64-.2.3-.1.578,0,.917a6.221,6.221,0,0,1,.134,1.72.839.839,0,0,0,0,.3c.061.276.134.515.2.778a4.774,4.774,0,0,1,.134.477,7.321,7.321,0,0,0-.232.879c.232.2.464.4.72.665V30.2h-.256a1.144,1.144,0,0,0,0,1.256,4.167,4.167,0,0,1,.33-.264h.976c0,.1.1.163.134.264s0,.239.159.314a11.536,11.536,0,0,0,2.173,1.519,1.431,1.431,0,0,1,.757.565H18.2a2.256,2.256,0,0,0,1.086.64c0,.314.293.377.488.477s.561.176.818.3a.991.991,0,0,1,.366.276,1.784,1.784,0,0,0,1.221.565,6.756,6.756,0,0,1,1.379.239c.1,0,.2.176.33.276s.122-.1.2-.138h.488L25.7,37a1.667,1.667,0,0,0,.317-.3,5.308,5.308,0,0,0,1.513.942,4.322,4.322,0,0,0,1.745,1.256c.354,0,.525-.314.683-.615h.525c.171.2.293.414.464.64l.683-.2-.525-.364V36.947c0-.176-.134-.4-.061-.54a.915.915,0,0,0,.061-.5.875.875,0,0,0-.1-.578c-.134-.2,0-.439.171-.64a.782.782,0,0,0-.073-1.055v-.465l-.1-.176h-.989a3.276,3.276,0,0,0-.293.377,2.865,2.865,0,0,1-2.917-1.9,1.924,1.924,0,0,0-.366-.339c-.293-.126-.293-.364-.33-.64a9.558,9.558,0,0,1-.134-1.256c0-.138-.122-.276-.2-.414.232-.439-.061-.841-.134-1.344.073-.1.134-.276.232-.439-.122-.2-.256-.377-.391-.615.366-.264.159-.741.391-1.08a6.313,6.313,0,0,0,.6-1,3.074,3.074,0,0,1,.647-.917,10.066,10.066,0,0,1,.989-.7,5.717,5.717,0,0,0,2.1-.854,5.382,5.382,0,0,0,2.173-.226,7.794,7.794,0,0,1,1.221.465c.366.276.891.2,1.147.615a.873.873,0,0,0,.232-.138,2.174,2.174,0,0,0,1.221.879,17.537,17.537,0,0,0,2.063,1.758,1.039,1.039,0,0,1,.488,1,3.1,3.1,0,0,0,.1,1.055c.1.339.171.665.232.979s.33.6,0,.9V30.1a1.714,1.714,0,0,1-.1.816.862.862,0,0,0,.1.64c.134.2-.134.339,0,.5a1.716,1.716,0,0,0-.366,1.256l-.256.264c-.171-.063-.293-.163-.464-.226a1.23,1.23,0,0,0-.232.2,1.12,1.12,0,0,0,.7.8,4.816,4.816,0,0,1-.269,1.494,2.831,2.831,0,0,1-2.307-.126c-.293-.138-.622-.2-1.025-.339l-.122-.126-.622.465-.134-.138c0,.075-.1.138-.134.213a3.263,3.263,0,0,0,.1.741c.037.2,0,.1,0,.126-.256.314-.2.716-.391,1.155a3.209,3.209,0,0,0-.293.3A3.744,3.744,0,0,1,33,39.546c-.159.1-.317.163-.549.3l.293.075-.1.1.622-.339v-.615a4.45,4.45,0,0,0,.586-.439c.2.138.561.138.5.615h-.427v.414a1.887,1.887,0,0,1,1.111-.3,2.655,2.655,0,0,0,.659-.213.975.975,0,0,0,.818,0c.293-.1.464-.4.757-.4a2.706,2.706,0,0,1,.2-.339l.793.1,1.111-.7c.488-.075.989-.138,1.416-.176.293.239.33.578.549.854a7.855,7.855,0,0,0,1.318,1c.134.1.293.2.33.3.159.615.781.753,1.147,1.155h.2A16.55,16.55,0,0,0,45.8,42.283c.269.213.586.414.683.753a3.441,3.441,0,0,0,1.221,1.62.71.71,0,0,1,.256.3,2.138,2.138,0,0,0,.561-.176c.134.276.525.239.622.615,0,.1.256.138.391.163s.134.377.2.578c.232,0,.269-.163.33-.3.293-.1.6-.2.915-.339.232.138.5.264.891.477h.793c.22-.138.427-.239.622-.339a2.159,2.159,0,0,1,.256.1,1.346,1.346,0,0,1,.293.126,1.316,1.316,0,0,0,.4-.2c.22.2.525,0,.854.1l.159.239a4.227,4.227,0,0,0,1.391-.113c.33,0,.488.339.854.414a1.188,1.188,0,0,0,.757,0,.5.5,0,0,1,.33,0,1.781,1.781,0,0,1,.452.2,1.784,1.784,0,0,0,1.343-.075c.2-.063.354-.163.561-.239s.122,0,.256.1c.232-.2.488-.439.854-.741l1.416.1c.159.2.317.377.415.477l.5.163v1.256a4.536,4.536,0,0,1,.256.439c.305-.138.561-.239.854-.339.171.138.33.264.33.5a2.457,2.457,0,0,0,.232.678.426.426,0,0,1,0,.3c-.33.377-.2.816-.232,1.256-.293.339-.427.778-.915.917l-.1-.1c-.232.1-.464.163-.72.264l-.464-.239a2.906,2.906,0,0,1-.269.4c-.1.54.11,1.118-.122,1.7a.1.1,0,0,0,0,.063c.134.239,0,.578.33.716a3.029,3.029,0,0,0,.2.7,2.35,2.35,0,0,1,0,.716,1,1,0,0,0,.269.766c-.073.339-.1.716-.171,1.118l-.2.2c.061.176,0,.377.1.615a1.148,1.148,0,0,1,0,.8,1.751,1.751,0,0,0-.159.917,4.431,4.431,0,0,1-.159.64c-.024.2-.11.2-.073.264a1.958,1.958,0,0,1-.134,1.318v.075a2.178,2.178,0,0,1-.427,1.519c-.391.3-.842,0-1.306,0l-.232-.239h-.586a.986.986,0,0,1-.854.339c-.2-.239-.427-.477-.6-.678a4.047,4.047,0,0,0-.122-.741c-.134-.339.1-.716.122-1.08,0-.1.1-.239.073-.339a5.163,5.163,0,0,1-.073-2.034c0-.9-.2-1.821-.134-2.725a2.785,2.785,0,0,1,.232-.854c.2,0,.391-.1.622-.126a6.35,6.35,0,0,0-.134-1.118c0-.176.232-.377,0-.578a2.678,2.678,0,0,1,.7-1.042,1.176,1.176,0,0,0,.354-1.457c0-.063,0-.163,0-.239L60.044,49.8a7.1,7.1,0,0,1,.159-.7,3,3,0,0,0-.427.3,5.123,5.123,0,0,1-.952.138c-.293,0-.586-.113-.879-.138s-.33.339-.525.364a.944.944,0,0,0-.5.276c-.391-.075-.745.063-1.147-.138a.428.428,0,0,0-.391,0c-.2.176-.354.063-.586.1l-.293-.4a3.854,3.854,0,0,0-.952.163c-.33.176-.561,0-.83,0a.641.641,0,0,0-.256,0c-.1.163-.2.326-.366.364a5.065,5.065,0,0,1-.757,0l-.622-.138-.183.2h-.415l-.6-.615a1.533,1.533,0,0,0-1.111-.54c-.366-.339-.72-.678-1.147-1.118a2.392,2.392,0,0,0-.1-.264,1.91,1.91,0,0,0-.232-.339,3.908,3.908,0,0,1-.793-.439c-.2-.2-.391-.5-.659-.54s-.391-.377-.683-.4c-.1,0-.159-.138-.269-.239a2.907,2.907,0,0,1-.354-.54c-.269-.1-.427-.138-.561-.2a2.536,2.536,0,0,1-.159-.3.86.86,0,0,0-.5.1,2.547,2.547,0,0,1-.317-.314l-.366.377v.063a5.69,5.69,0,0,1,.232.64,13.265,13.265,0,0,1,0,1.394,1.04,1.04,0,0,1-.134.54.566.566,0,0,0-.061.565.966.966,0,0,1,0,.879s0,.075,0,.138a17.038,17.038,0,0,1-.134,1.758,3.72,3.72,0,0,1-.33,1.143c-.061.377-.061.716-.134,1.08-.159.64-.134.716-.354.979,0,0,.061.075.061.1v.213a.72.72,0,0,0-.232.163,1.412,1.412,0,0,0-.269.276,1.669,1.669,0,0,1,.1.364c-.1,0-.159.276-.391.276-.159.226-.1.565-.391.741a6.384,6.384,0,0,1-.72.339c-.2-.213-.6,0-.757-.377a2.115,2.115,0,0,1-.891-.264c-.256-.113-.525-.276-.818-.439v-.439a3.953,3.953,0,0,0-.464.163c-.2-.163-.391-.3-.586-.439.061-.264.1-.54.171-.841.122,0,.22.163.391.264h.549a2.567,2.567,0,0,0,1.086.515,1.425,1.425,0,0,1,.391.2c.1-.138.256-.339.427-.54h.293v-.4a3.164,3.164,0,0,1-1.574-.239.5.5,0,0,0-.207.138c-.317-.213-.684-.414-.976-.578s-.232-.54-.33-.741c-.366-.075-.659.339-.989-.1-.061.126-.122.2-.2.326a1.284,1.284,0,0,1,.1.377,2,2,0,0,1-.061.439H35.6a8.421,8.421,0,0,1,.159.841h-.293l-.488-.6c-.1.264-.2.5-.293.741s.122.339.1.439a1.457,1.457,0,0,0,0,.942v.979c0,.075.1.176.122.239a3.616,3.616,0,0,1-.2.439c-.256.1-.427-.1-.659-.2h-.525a1.233,1.233,0,0,1-.22.2s0,.138.1.163a8.746,8.746,0,0,1,.818.477c.134-.063.232-.138.354-.2.11.163.171.377.305.64s-.073.6-.134,1.017a1.36,1.36,0,0,0,.2.126,1.94,1.94,0,0,1-.269,1.281,1.98,1.98,0,0,1-.464-.138,2.291,2.291,0,0,0-.269.239c.134.1.232.239.305.239a.53.53,0,0,1,.488.2l.659-.678a1.993,1.993,0,0,1,.354,0,2.838,2.838,0,0,1,1.672-1.256,4.859,4.859,0,0,1,2.758-1.7,1.074,1.074,0,0,0,.269.138,1.135,1.135,0,0,1,.683-.477c.33-.1.5-.439.757-.64h.33c.293.239.586.515.891.741v.477c.122.239.256.4.391.615a1.881,1.881,0,0,0,0,1.519l-.72.427a1.157,1.157,0,0,1-.073.314l-.2.2v.1a4.557,4.557,0,0,0,.085,1.406,1,1,0,0,1-.073.615.979.979,0,0,0,0,.8.438.438,0,0,1,0,.276,8.636,8.636,0,0,0,.122,1.582,5.138,5.138,0,0,0,.366,1.419,1.054,1.054,0,0,1,.1.439v1.143a1.633,1.633,0,0,0,.159.766,2.8,2.8,0,0,1,.2.778c0,.075.073.1.11.138a.85.85,0,0,0,0,.8.271.271,0,0,1,0,.176c0,.239-.207.4-.073.678a3.1,3.1,0,0,1,.134.7,1.425,1.425,0,0,1,.2.1c0,.54.134,1.08-.366,1.419a2.9,2.9,0,0,0,.11.5.774.774,0,0,1,.256.213.629.629,0,0,0,.134.439c-.232.465,0,1-.1,1.444-.134.2-.232.339-.33.515a1.107,1.107,0,0,0,.1.741.7.7,0,0,1,0,.7,1.852,1.852,0,0,0-.171.778c0,.264,0,.54-.293.64v.163c-.171.477-.33.917-.464,1.356-.134,0-.232.163-.391.239.33.477.061.841-.2,1.256a4.005,4.005,0,0,1-.5,1.959v.6a2.188,2.188,0,0,0-.452,1.394,1.84,1.84,0,0,1-.561,1.143h-.134a11.535,11.535,0,0,1-.232,2.135,18.383,18.383,0,0,1-.427,2.022c-.134.1-.269.239-.391.339v.5l-.269.276a6.447,6.447,0,0,1,.1.7c-.232.1.1.54-.33.678a5.93,5.93,0,0,1-.586-.439c.269-.9.391-1.783.72-2.6a3.179,3.179,0,0,0-.134-.339c.207-.364.366-.741.6-1.143a1.885,1.885,0,0,1,.33-1.256,2.206,2.206,0,0,0,.293-1.042,4.739,4.739,0,0,1,.159-.854.6.6,0,0,0,.171-.163v-.4c.2-.439.33-.778.488-1.18A7.423,7.423,0,0,1,41.09,84.5a.309.309,0,0,1,.159,0c.073-.377.1-.7.2-1.143l.33-.239a3.235,3.235,0,0,1,.171-1.155,7.1,7.1,0,0,1,.293-1.08c.061-.2.159-.364.232-.565a3.461,3.461,0,0,0,.256-1.256,4.159,4.159,0,0,1,.33-.967,1.078,1.078,0,0,1,.2-.816.463.463,0,0,0,0-.439c-.122-.2,0-.3.073-.54l-.561.239-.2-.2c-.269.126-.2.465-.391.665s-.134.477-.232.753l.2.5-.488.5c-.269-.239-.525-.6-1.025-.465v-.377c0-.138-.1,0-.171,0-.1.377-.22.778-.354,1.256l-.366.138v.565a1.593,1.593,0,0,0-.488,1.256,8.134,8.134,0,0,1-.134.879l-.354.239c.061.439.1.879.159,1.344-.159.176-.293.339-.427.515a1.731,1.731,0,0,1,0,.439c-.1.1-.159.2-.256.3s.061.239.134.439-.2.4-.33.678v1.419a1.89,1.89,0,0,1-.232.226,3.736,3.736,0,0,0,.134.778c.037.2-.269.477-.366.716a1.887,1.887,0,0,1,.33,1.444c.366.3.561-.239.891-.163a3.9,3.9,0,0,0,.2.339c-.1.264-.171.6-.293.879a1.391,1.391,0,0,0-.305.8c-.256.1-.525.176-.818.276a1.506,1.506,0,0,1,.134.339h.354a.552.552,0,0,1,.073.126,1.908,1.908,0,0,1-.1.741,1.529,1.529,0,0,0-.134.54V95.4l-.818.414v.465c-.134.176-.232.339-.366.54a4.042,4.042,0,0,0,.33.515,2.972,2.972,0,0,1-.134.3h-.354l-.232.239a1.916,1.916,0,0,1-.159-.314,4.672,4.672,0,0,1,.122-.565c.024-.2-.232-.176-.354-.239V95.045h.2v-.578c.232-.163.391-.339.561-.477h.317c.11-.3.561-.126.659-.54a.788.788,0,0,1-.354-.1c-.1,0-.134-.2-.232-.339a.7.7,0,0,1-.073.377c-.293,0-.354-.3-.549-.4a1.447,1.447,0,0,1,.33-1.117,6.742,6.742,0,0,0,0-.7c-.073-.239.122-.414,0-.64s.171-.377.1-.54.207-.213.073-.377a.36.36,0,0,1,0-.339,1.425,1.425,0,0,1,.1-.377,9.6,9.6,0,0,1,.232-1.18,2.7,2.7,0,0,0,0-.7l.366-.276a2.838,2.838,0,0,1,.1-.979,4.482,4.482,0,0,0,0-.9.886.886,0,0,1,.22-.075s0-.226,0-.264a4.822,4.822,0,0,1-.1-.578,5.49,5.49,0,0,1,.232-.678,2.337,2.337,0,0,0,.134-.5,4.309,4.309,0,0,1,.061-.54c.073-.239.171-.5.269-.8l.159-.176v-1.08h0s.293-.3.293-.477c0-.54.391-.917.366-1.457a3.855,3.855,0,0,0,.952-1.08,4.9,4.9,0,0,1,1.221-.979,1.089,1.089,0,0,0,.5-.5c0-.138.232-.2.33-.3-.134-.439.293-.4.391-.6s.391-.276.488-.54c-.2-.239-.391-.515-.586-.778h-.525c0,.1-.134.226-.232.364a3.084,3.084,0,0,1-.293-.138c-.269.075-.2.314-.269.477s-.427.276-.452.276l-.427-.54a2.294,2.294,0,0,0-.134-.954.321.321,0,0,1,0-.364.422.422,0,0,0-.1-.54.9.9,0,0,0,.073-.778,2.97,2.97,0,0,1,0-.942.154.154,0,0,1,.1-.138,2.764,2.764,0,0,1-.366-1.08,2.328,2.328,0,0,0-.122-.54,3.779,3.779,0,0,1-.134-1.256,5.616,5.616,0,0,0-.061-.6c.159-.239,0-.578.061-.778-.159-.4-.293-.741-.464-1.118v-.779c-.2-.1-.391-.213-.683-.339a.636.636,0,0,0-.427-.314,6.745,6.745,0,0,0-.488.615c0,.163.1.264.1.364l-.7.54a1.945,1.945,0,0,0-.061-.6l.391-.4a2.166,2.166,0,0,0-.2-.64H37.05c-.354.565-.915,1.042-1.343,1.62l-.659-.3c-.134.126-.354.226-.391.439a1.148,1.148,0,0,1-.33.54H33.84c-.134-.276-.561-.276-.659-.653a1.493,1.493,0,0,1-.1-.5,4.356,4.356,0,0,1-.427-.264s-.134.163-.232.3H31.5a.842.842,0,0,1-.525-.54l-.5-.2c.1-.1.134-.2.207-.276s.2.1.317.176l.33-.439c-.159-.2-.33-.477-.488-.678h-.293a4.148,4.148,0,0,1-.171-.64c-.256-.377-.488-.716-.757-1.08-.317.239-.647.439-1.05.7l-.1-.3a1.8,1.8,0,0,1,.269-.163v-.276h-.269c-.122.176-.293.339-.427.54.171.276.171.276-.1.5-.122-.163-.293-.3-.488-.54v-.8a3.859,3.859,0,0,0-.256-1.18c-.073-.239-.33-.4-.561-.64l-.269.2.1.1c-.1.264,0,.54-.22.8a.808.808,0,0,0-.134.917c.134.276,0,.6.256.879v2.1c0,.2-.061.4.1.565a.27.27,0,0,1,0,.239c-.2.176-.061.4-.159.578s-.1.163-.1.239-.134,0-.171-.075-.159-.4-.256-.6a.27.27,0,0,1,0-.239c.2-.239.061-.54.1-.8a.516.516,0,0,0,0-.239c-.256-.3-.159-.678-.2-1.017a2.1,2.1,0,0,1-.232-.439c-.061-.578-.1-1.18-.159-1.821-.1-.1-.269-.276-.391-.377a.988.988,0,0,1,.2-.9,1.53,1.53,0,0,0-.2-.942c-.073,0,0-.226-.073-.326a5.028,5.028,0,0,1,.366-.54c-.134-.276-.232-.515-.33-.716a1.508,1.508,0,0,1,.561-.841,8.074,8.074,0,0,1,1.867.841c.232-.1.391,0,.561.239h.293l.134.063a1.118,1.118,0,0,0,.72.439c.2,0,.293.339.549.239.073.276.33.276.5.377a2.676,2.676,0,0,1,.452.465,1.427,1.427,0,0,0,1.221.615,3.31,3.31,0,0,1,.622,1.758l.427.3.134-.138a4.691,4.691,0,0,0-.1-.64c-.073-.477.1-.942-.134-1.419h0c.293-.439,0-.816-.134-1.256h0c.134-.239.232-.477.366-.716a.607.607,0,0,0,.537,0c.232-.2.391,0,.586,0s.1-.126.2-.226-.1-.314-.159-.439l-.525-.213c.159-.264.256-.465.427-.7l-.366-.54v-.389l-.488-.4.72-.2c.061-.176.1-.414.159-.578s-.2-.2-.256-.3v-.138c.256-.377,0-.816.256-1.18-.159-.1-.317-.239-.525-.377a9.967,9.967,0,0,1,.171-1.256.537.537,0,0,0-.6.063,2.213,2.213,0,0,1-.452-.163v.6a2.488,2.488,0,0,1,.683.778c-.1.1-.232.276-.391.439.1.339.232.741.366,1.18-.073.063-.171.2-.305.339l-.452-.176a2.755,2.755,0,0,1-.171.414l-.122-.138v.439h.488l.159.163c-.2.439-.452,0-.745.075C32.229,53.659,31.984,53.722,32.021,54.023ZM49.9,47.582h0v.678l.1.1c.1.1.159-.176.256-.239a1.121,1.121,0,0,0-.427-.5c0-.414.1-.778.134-1.256a.946.946,0,0,1-.622-.2c-.391-.264-.818-.5-1.318-.8a4.027,4.027,0,0,0,.11.5,1.872,1.872,0,0,1,0,.578A1.1,1.1,0,0,0,48.5,47.7a9.746,9.746,0,0,1,1.4-.113ZM29.153,41.743l-.586-.239a1.554,1.554,0,0,1-.33.1,5.818,5.818,0,0,1-1.672-.4c-.391-.2-.781-.377-1.147,0a.113.113,0,0,1-.061.1c-.061.025.159.276.22.439l-.122.138.2.4a2.373,2.373,0,0,0,.72,0,1.879,1.879,0,0,1,.683-.1,1.2,1.2,0,0,0,1.477.176,5.954,5.954,0,0,0,.635-.64c.159,0,.293.2.488,0s.464.075.561-.3v-.163l-.171-.176a.775.775,0,0,0-.159.138,3.9,3.9,0,0,0-.989-.264,1.477,1.477,0,0,1,.488.1c.2.126.305-.2.5-.1.122-.213.354-.075.488-.213a1.2,1.2,0,0,1,.293-.226c-.134-.314-.452-.377-.622-.64h-.757a.843.843,0,0,1-.72-.314,2.855,2.855,0,0,0-.061-.665l-.269.326h-.659l-.915-.741c-.293.1-.586.314-.854,0-.1.1-.159.2-.2.239.134.3.2.54.293.778s.427.3.659.439h.171a1.547,1.547,0,0,1,.976.5h.854c.11.138.232.264,1.086.6,0,.075-.061.176-.134.176a.668.668,0,0,0-.317.527Zm4.589.879h0a.2.2,0,0,0-.061-.138h0l.1.1v.5a1.434,1.434,0,0,0,.525-.163,4.072,4.072,0,0,1,.488,1.256,1.179,1.179,0,0,1-.1.314,1.845,1.845,0,0,0-.354-.176l-.659.979a.772.772,0,0,0,.293,0l.33-.163a.884.884,0,0,0,.757.4,2.178,2.178,0,0,0,1.147.741l.134-.1.293.138a1.964,1.964,0,0,0,0,.239c.391.364.781.7,1.147,1.08h.549c.073.163.134.339.207.54.2-.716.22-.716.781-1.055.2.2.488.075.683.138a2.187,2.187,0,0,0,.793.1l.391-.264v-.477H39.552a.945.945,0,0,1-.683-.2,5.43,5.43,0,0,0-.6.3c-.256-.138-.549-.163-.72-.339a1.455,1.455,0,0,0-.818-.339,7.89,7.89,0,0,0-.818-.163V45.4H35.4L35,45v-.439a.637.637,0,0,1,.635.239,1.67,1.67,0,0,0,.2.465l.72-.126c.256.264.683.2.72.665l.464-.163c.159.1.317.163.452.239s.134-.1.171-.138a8.823,8.823,0,0,0,.854.239l.549-.4h.83l.2-.276a6.363,6.363,0,0,1-.622-.477,5.119,5.119,0,0,0-.952.138.441.441,0,0,1-.464,0,.608.608,0,0,0-.427-.075H37.5a2.273,2.273,0,0,0-.134-.3.692.692,0,0,1-.793.063c-.317-.063-.391-.364-.647-.5h-.2c-.1-.138-.1-.377-.4-.377s-.293-.2-.256-.439a2.387,2.387,0,0,1,.452-.126.925.925,0,0,1,.5.2c.159.138.33-.2.488,0a6.7,6.7,0,0,0,1.123.138.653.653,0,0,1,.22,0c.232.176.427.075.622,0a2.989,2.989,0,0,0,1.843.326s.1-.126.159-.2-.159-.339-.256-.5a1.285,1.285,0,0,1-.134-.578,6.576,6.576,0,0,1-.818.075c-.232,0-.561.126-.72-.2.159-.138.33-.314.488-.477-.391-.1-.293-.578-.561-.778a8.64,8.64,0,0,0-1.013.4.718.718,0,0,1-.854-.163,3.36,3.36,0,0,1-.33-.377c.232-.163.33-.439.622-.465h0a1.942,1.942,0,0,1,.1-.439c-.256-.176-.293-.176-.391-.1A2.926,2.926,0,0,1,35,40.5a5.506,5.506,0,0,1-.22-.515h-.207l.073-.063-.269-.176v.239h.293a1.873,1.873,0,0,1,.1.339l-.818.515h-.525l-.269.264.305.138a.8.8,0,0,1,.452.1,4.41,4.41,0,0,0,.854.2,4.313,4.313,0,0,0,.891.1h.72c0,.4.391.339.622.5.525-.4.854.239,1.318.276v.239a6.161,6.161,0,0,1-1.355-.1,5.755,5.755,0,0,0-1.05,0c-.33,0-.683-.1-1.013-.1a2.678,2.678,0,0,1-1.111.2ZM30.08,31.987c.159-.1.452,0,.488-.377a1.4,1.4,0,0,1-.488-.778,4.592,4.592,0,0,0,.757-.364,1.8,1.8,0,0,1,1.221-.276,1.89,1.89,0,0,1,.525.138,6.041,6.041,0,0,0,.391.477h.476a3.318,3.318,0,0,0,.757.326,1.062,1.062,0,0,1,.683.339.178.178,0,0,0,.134,0,3.606,3.606,0,0,0,.232-.377,6.366,6.366,0,0,0,.818.239c.293.075.561.276.818,0a2.3,2.3,0,0,1,.427.239,3.246,3.246,0,0,0,.427-.276c.073-.4.1-.778.171-1.042-.2-.2-.33-.377-.5-.54h-.305c-.2-.138-.159-.5-.452-.477-.171-.339-.5-.64-.4-1.042a1.471,1.471,0,0,0,0-.741A10.826,10.826,0,0,1,37,26.036c-.159-.138-.293-.239-.317-.276-.171-.5-.269-.879-.366-1.256a.584.584,0,0,0,.1-.2,2.577,2.577,0,0,0-.366-.3,2.214,2.214,0,0,0-.72-.239c-.256,0-.427-.3-.683-.3a6.181,6.181,0,0,1-1.221-.439.474.474,0,0,1-.2.126,2.878,2.878,0,0,0-1.343-.364,13.285,13.285,0,0,1-1.611.138.925.925,0,0,0-.488.2,1.57,1.57,0,0,1-.72.264.8.8,0,0,0-.622.3c-.1.176-.2.377-.305.615v.264c0,.075-.159.138-.22.2v.477l-.305.3h-.269c-.2.276-.391.54-.622.816a1.4,1.4,0,0,0,.256.879.847.847,0,0,1,.1,1c.171.377.366.716.5,1.017l.683.5a3.873,3.873,0,0,0,.964,1.595c.073.063.171.163.232.163.269,0,.366.213.488.339s-.061.439.232.515a.9.9,0,0,1-.061-.389Zm.354,16.5-.452.615a3.44,3.44,0,0,0-.818.3.548.548,0,0,1-.6,0,2.317,2.317,0,0,0-.622-.176.615.615,0,0,0-.159.138l-.366-.2v-.226c-.232-.364-.427-.7-.622-.979a2.957,2.957,0,0,0,.2-.264c.171,0,.269.138.366.163l.293.54c.427.138.427-.226.586-.4a.613.613,0,0,0,.2-.678c-.2.239-.33,0-.525,0a1.259,1.259,0,0,1-.647,0,1.607,1.607,0,0,1-.5-.264,5.411,5.411,0,0,1-.427.578,3.57,3.57,0,0,1-.683-1.256.374.374,0,0,1-.011-.3.359.359,0,0,1,.206-.206,2.444,2.444,0,0,1,.525,0,1.546,1.546,0,0,0,.72.1c.232.3.488-.063.72,0l.269.1,1.221-.4c.1.2.159.377.293.678.061-.239.1-.3.134-.477s.2-.163.354-.339c.293.339.6.1.854,0,.2-.276.427-.5.622-.778-.2-.339-.586-.239-.879-.4-.134.239-.305.465-.464.7h-.793a7.127,7.127,0,0,0-.586-.54c.232-.2.488-.364.683-.54a3.2,3.2,0,0,0,.427.138c.134-.138.232-.3.33-.4H30.9l.305-.276c.2.138.293.4.586.239v-.5c-.1-.138-.2-.276-.293-.439a3.166,3.166,0,0,0-.33.126,6.236,6.236,0,0,1-.989.377.721.721,0,0,0-.2-.063.25.25,0,0,0-.159,0,2.515,2.515,0,0,0-.269.4l-.256-.264-.269.264a3.05,3.05,0,0,1-.586,0c-.2,0-.366.2-.525,0l-.525.276c-.232-.339-.6-.3-.891-.439,0-.439-.586-.2-.622-.54h-.391c-.073-.075-.1-.138-.171-.176a1.7,1.7,0,0,1-.2-.063,1.119,1.119,0,0,1-.757-.64c0-.1-.122-.138-.159-.2l-.488.163h0l-.7.7c.134.276.11.678.427.917a2.7,2.7,0,0,0,1.282.6c.1-.163.171-.339.269-.54l.488.3v.477l.134.377c.171-.276.293-.3.5-.2a.523.523,0,0,0,.427,0,1.534,1.534,0,0,1,.781-.1c.061,0,.159-.1.232-.138.293.4.586-.163.879.075s.134.326.11.54l-.561.4c-.269,0-.561.1-.854-.138-.134,0-.269.163-.427.239-.391-.377-.891-.176-1.318-.239-.256-.3-.354-.778-.818-1.017v.377a3.009,3.009,0,0,0,.33.841,3.121,3.121,0,0,1,.134,1.256c.1.1.232.2.293.276a5.073,5.073,0,0,1,.134.7c.269.239.464.414.622.578a1.649,1.649,0,0,1,.269.816,8.492,8.492,0,0,1,.1.9c.256.4.757.54,1.147.778a10.661,10.661,0,0,0,1.221-.439h.525a1.4,1.4,0,0,0,.757-.716h.427l.683-.7c0-.2.061-.439-.269-.515a1.406,1.406,0,0,0-.476.113ZM41.993,64.32c-.317-.3-.2-.766-.354-1.1v-.176a.734.734,0,0,0,0-.665,2.423,2.423,0,0,1-.1-.653v-.6c-.134-.138-.269-.3-.391-.4h-.305v.239l-.854.879a3.224,3.224,0,0,0,.134,1.256,1.4,1.4,0,0,1,.134.741,2.331,2.331,0,0,0,.2,1.256.232.232,0,0,1,0,.163c-.073.578.2,1.118.134,1.657a1.041,1.041,0,0,1,.354.741,5.136,5.136,0,0,1,.2.716c0,.364.293.741.073,1.18a.771.771,0,0,0,.1.741.681.681,0,0,1,0,.816l.683,1.532h.232l.317-.439v-.653c0-.239-.1-.477.11-.678-.207-.239-.073-.477-.11-.741a1.944,1.944,0,0,1,0-.477.991.991,0,0,0,.073-.917,4.026,4.026,0,0,1-.1-.979.807.807,0,0,1-.269-.2,16.362,16.362,0,0,0-.1-2.185l-.256-.1C41.834,64.834,41.736,64.558,41.993,64.32Zm-6.92-17.24v.163a5.289,5.289,0,0,1-.305.578l.366-.1c.159.126.525.126.354.5a.316.316,0,0,0-.317.4.95.95,0,0,0,.549-.364c.171.2.293.4.464.64l.464-.578.622.2c.061.3.354.276.525.4a1.208,1.208,0,0,0,.33.176v.439a3.266,3.266,0,0,0-.427.264c-.305-.126-.305-.126-.5,0s-.452-.477-.879-.239l.427.64.22-.138a6.049,6.049,0,0,0,1.367.753,3.632,3.632,0,0,0,.232.339h.525c0,.1.122.163.2.264l-.269.213h-.622l-.159.264c-.5-.1-.793-.6-1.221-.5a1.425,1.425,0,0,1-.33-.339v-.2a5.016,5.016,0,0,1-.561-.515l-.452-.465v-.716c-.366.339-.622,0-.952-.1a2.317,2.317,0,0,0,.134.54c-.171.075-.305.1-.464.176s0,.439,0,.6h.159a4.647,4.647,0,0,0,.2-.578c.171.176.269.414.427.477.391.163.561.5.854.778s.757.465.891.942h0c.305.063.427.339.659.54.293,0,.659-.075.915.239h.757c.4-.213.757-.377,1.147-.54-.391-.339.073-.678-.1-1.017l-.745-.264v-.3c.2-.113.427-.213.757-.377,0,0,.2-.163.33-.3s-.11-.1-.11-.138a.323.323,0,0,1,0-.163,1.465,1.465,0,0,0-.891.163v.3c0,.1-.293,0-.488-.063s-.33.063-.488.1c-.073-.176-.134-.276-.2-.439a3.9,3.9,0,0,1,.525-.4l.2.126.391-.4c.33.075.622.1.915.176a.188.188,0,0,0,.134-.075c.061-.075.134-.239.232-.4a7.42,7.42,0,0,1-.488-.64l-.659.163-.2.2-1.574-.163-.5-.339h-.427c-.22-.2-.452-.364-.647-.578s-.525-.163-.622-.465c-.269-.075-.5-.1-.757-.176V47C34.841,47.08,34.938,47.08,35.072,47.08Zm-16.9-12.368a2.589,2.589,0,0,1-.525-.063c-.391-.2-.915-.239-1.221-.64,0,0-.073-.063-.1,0-.366,0-.561-.264-.793-.5h-.488c-.171-.163-.293-.339-.427-.439l-1.306-.452c-.1.1-.159.2-.232.276.33.3.622.565.952.841.5-.075.427.465.7.741.134-.163.256-.2.427-.063.391.326.915.439,1.221.9a.214.214,0,0,0,.159,0c0,.2-.061.477.207.578a1.1,1.1,0,0,1,.1-.276c.354.063.72.1,1.05.176s.293.3.488.364a2.207,2.207,0,0,1,.72.5,5.528,5.528,0,0,0,.952.678,5.865,5.865,0,0,1,.818.54,2.4,2.4,0,0,1,.427.578,2.912,2.912,0,0,0,1.611.163c-.159-.439-.586-.665-.488-1.18-.33-.239-.622-.439-.928-.678a5.821,5.821,0,0,0-.549-.326,1.524,1.524,0,0,0-.622-.339,1.056,1.056,0,0,1-.622-.239c-.171-.2-.4-.176-.6-.3a4.6,4.6,0,0,1-.928-.841ZM29.153,57.163c-.452,0-.757-.326-1.147-.364-.159,0-.293-.239-.391-.3-.427-.075-.757-.1-1.123-.176V56.6l.366.465c.134.138.256.314.427.339a.739.739,0,0,1,.464.414,1.655,1.655,0,0,0,.525.6l.781.7a.839.839,0,0,1,.293.678l-.33.239a1.816,1.816,0,0,1-.159.4h.366a4.256,4.256,0,0,1,.256-.364c.269.163.464.439.7.465a.469.469,0,0,1,.452.414c0,.3.232.439.391.64l.269.264a2.147,2.147,0,0,0,.915.64c.171-.4-.061-.8-.134-1.18a4.686,4.686,0,0,0-.293-.778,1.969,1.969,0,0,0-.354-.741c-.134-.2-.366-.339-.366-.64a.243.243,0,0,0-.049-.176h-.366a2.687,2.687,0,0,1-.33-.3v-.54h-.269a11.275,11.275,0,0,1-.915-.979Zm32.832-4.457h-.073a1.01,1.01,0,0,0-.159.264,13.654,13.654,0,0,0-.5,2.838,1.855,1.855,0,0,1-.1.615,2.3,2.3,0,0,0-.122,1.042v.264a1.287,1.287,0,0,1-.1.515,2.433,2.433,0,0,0-.1.5,1.426,1.426,0,0,0,.1.377c-.293.565,0,1.042.256,1.582v.678c.2.138.4.264.561.4s.366-.2.488-.339V59.975s.073-.075.073-.1a.284.284,0,0,0-.134-.138,1.016,1.016,0,0,0,0-1.055c.2-.2.134-.427.1-.665a2.027,2.027,0,0,1,.33-1.256,2.122,2.122,0,0,0,.159-.439l-.525-.54s.073,0,.073-.063c-.171-.477-.33-.942-.525-1.419a1.792,1.792,0,0,0,.061-1.143A.7.7,0,0,0,61.985,52.705Zm-19.37-9.643c.464,0,.7.3.989.6.1.1.134.239.232.339a.676.676,0,0,0,.33.163,1.537,1.537,0,0,0,0,.339c.366.1.659.239.915.3s.427.477.622.716h.2l.854.7h.622c.4-.465-.122-.942,0-1.419L46,44.242a.753.753,0,0,0-.134-.339c-.122-.2-.317-.239-.488-.339a3.742,3.742,0,0,1-.781-.64c-.232-.2-.171-.5-.464-.741h-.561a3.7,3.7,0,0,0-.2-.477l-.232.163a2.179,2.179,0,0,0-1.477-.226A9.042,9.042,0,0,1,42.615,43.062Zm14.207,5.023.7.326H58.1v-.54A.676.676,0,0,0,58.4,47.1a.983.983,0,0,0-.122-.314,2.185,2.185,0,0,0-.33.314c-.33.1-.525-.176-.818-.239-.207.264-.4,0-.6,0l-.72-.1-.391.414a2.138,2.138,0,0,0-.427.126l-.1-.1a2.185,2.185,0,0,1-.33.477H54.2l-.33-.339a4.87,4.87,0,0,1-.561.377c-.159-.075-.33-.1-.452-.176a2.687,2.687,0,0,0-.33.3.6.6,0,0,0-.622-.126,3.579,3.579,0,0,0-.6.163c0,.1-.122.239-.2.377a2.016,2.016,0,0,0,1.867.339c.207-.213.33,0,.5,0l.561-.113c.256-.126.415-.3.622-.326a2.683,2.683,0,0,1,1.221,0c.354.2.586,0,.94-.1Zm-20.273-13.4c.1-.138.134-.239.232-.276a1.2,1.2,0,0,1,.33-.1.693.693,0,0,0-.11-.5,1.673,1.673,0,0,1-.122-.615c.232-.2.061-.427.1-.6a.48.48,0,0,0-.561-.163,2.475,2.475,0,0,0-.061.364c-.269-.1-.427-.4-.757-.239l-.293.314a1.468,1.468,0,0,0-.464.126.981.981,0,0,1-.891-.226,1.746,1.746,0,0,1-.317-.578c-.4,0-.5.138-.561.6l-.427.3c.061.314.1.615.159.917l.4.239a3.094,3.094,0,0,1,1.672.465c.122,0,.354.113.525-.1C35.731,34.649,36.085,34.31,36.549,34.687Zm-6.4,16.172h-.6l-.2.239h-.586a2.649,2.649,0,0,1-.366.2.688.688,0,0,1-.232,0c-.2,0-.256.1-.33.314l.4.326-.171.239s0-.063.1-.063,0,.239.1.439c.1-.339,0-.615.33-.741s.891.1,1.343.163v.477a2.926,2.926,0,0,0-.452-.138c-.134.138-.269.239-.33.3v.439c.293.075.586.1.781.138.33-.176.561-.276.757-.4l.134.126a.585.585,0,0,0,.427-.6c-.33-.439-.659-.138-.989-.1,0-.1-.1-.2-.159-.3s.159-.276.232-.439h.915c-.061-.54.391-.578.659-.741a2.424,2.424,0,0,1,.159-.314c-.1-.126-.2-.3-.33-.465-.159.1-.33.163-.354.264s-.366,0-.4.239C30.679,50.42,30.471,50.684,30.154,50.859Zm9.215,10.56c.269-.364.488-.7.72-1.08a1.292,1.292,0,0,0,.391-.2c.134-.1.232-.264.4-.377a.435.435,0,0,0,.293-.326l.818.163.171-.163v-.678l-.171.1a1.291,1.291,0,0,0,0-.339,3.524,3.524,0,0,0-.232.439h-.293v-.54h0a1.6,1.6,0,0,1-.2-.314c-.793-.126-1.05.414-1.318.917a1.491,1.491,0,0,1-.391.1.459.459,0,0,1-.2-.1c-.232.163-.305.377-.171.578a.54.54,0,0,1,0,.54,1.89,1.89,0,0,0-.134.6,4.934,4.934,0,0,0,.134.578.388.388,0,0,0,.171.1ZM60.3,47.921c.293.1.561-.1.757.138a.178.178,0,0,0,.159,0c.269-.213.6-.075.854-.138.171.138.293.264.427.364.525-.2.391-.766.72-1.042v-.477l-.061.075c0-.138-.159-.276-.2-.377h-.33c-.232.276-.464.5-.622.716a4.27,4.27,0,0,0-.7,0,7.4,7.4,0,0,0-1.221.439.691.691,0,0,0,.207.3ZM30.141,47h-.72c.073.477-.549.2-.586.64a3.264,3.264,0,0,0,.2.578c.171-.163.293-.339.464-.5a1.517,1.517,0,0,1,1.221-.515,4.3,4.3,0,0,0,.7,0c.391-.2,0-.665.293-.9-.293-.239-.391-.239-.7,0s-.635.465-.928.7ZM11.834,30.933c-.269.239-.427.414-.659.615.1.264.232.565.33.841l.488-.339h.6a4.3,4.3,0,0,0,.11.565c.11-.2.207-.326.305-.54l-.427-.126c-.073-.276-.134-.578-.2-.854a3.771,3.771,0,0,1-.61-.163ZM33.449,47.544l.659-.339a1.126,1.126,0,0,1,.293-.979c.061-.063,0-.2.061-.364l-.781.163a2.239,2.239,0,0,0-.232-.264c-.171.264-.464,0-.659.2v.264a3.405,3.405,0,0,1,.256.414h.427v.339l-.256.075Zm-.427,14.892c.232.5.452.942.659,1.381h.2l.452-.6c-.061-.176-.122-.3-.159-.414-.33-.2-.7-.163-.818-.5s.33-.54-.073-.741l-.159.163c.012.213.207.515-.049.716Zm7.384-21.71c.159-.4.549-.5.683-.841a1.2,1.2,0,0,0-1.147-.439c-.207.364-.391.339.513,1.281ZM24.7,38.5a3.8,3.8,0,0,0-.159-.753l-.232-.226a4.526,4.526,0,0,0-.525.4.963.963,0,0,0,.488,1.08,5.941,5.941,0,0,1,.427-.5ZM54.76,46.427H53.38c-.1.138-.159.3-.293.5.2-.063.256-.138.391-.163.391.3.989-.1,1.416.4v-.6ZM35.89,62.5c.22.176.33.439.647.515,0-.477-.293-.753-.354-1.08l-.793-.276a.762.762,0,0,1-.159.2l.391.615a1.069,1.069,0,0,0,.269.025ZM31.984,43.087c.232,0,.232.339.525.239,0-.239-.232-.439-.1-.678s.293-.163.427-.2c.061-.54-.464-.339-.659-.6C32.119,42.246,32.046,42.66,31.984,43.087Zm1.221-7.4-.976-.565c-.305.176-.269.377-.207.64s.427.239.635.339A4.1,4.1,0,0,1,33.205,35.691ZM32.082,37.55c.391-.2.232-.64.525-.8a1.868,1.868,0,0,1-.256-.3h-.427v.879A1.168,1.168,0,0,1,32.082,37.55Zm.366,8.074c.256-.2.549,0,.781-.176l.366-.126a3.9,3.9,0,0,0-1.648-.151A3.326,3.326,0,0,0,32.448,45.623ZM34.377,59.8c-.159-.163-.33-.3-.488-.439-.061.075-.134.1-.2.176v.5c.232,0,.427.3.683.1ZM32.7,44.506c-.232-.239-.354-.4-.488-.54-.33,0-.427.176-.6.377l.366.264Zm1.379,3.177c-.232.226-.427.339-.391.6l.391.4c.134,0,.232-.163.366-.239a4.88,4.88,0,0,1-.366-.766Zm.391,10.836a2.962,2.962,0,0,1-.293-.276h-.488c-.1.3.134.439.256.578h.525Zm3.454,32.646a5.283,5.283,0,0,0-.464-.414h0c-.073.239-.1.477-.171.716h.7ZM35.487,62.976l-.2-.64c-.232,0-.4,0-.464.226l.33.678a1.217,1.217,0,0,0,.342-.226ZM32.009,31.585v-.439a.109.109,0,0,1-.1-.063l-.366.2c0,.2-.256.339-.061.54.171-.038.366.063.537-.251Zm5.724,29.532c.391-.2.293-.5.317-.8l-.586.326a2.125,2.125,0,0,1,.269.477ZM30.41,39.308c.1.2.2.3.354.276s.269-.2.232-.439-.159-.138-.256-.239a3.53,3.53,0,0,1-.391.4ZM37.062,61.72a5.475,5.475,0,0,0,.11.816h.354s.061,0,.1-.1A2.763,2.763,0,0,0,37,61.72ZM26.077,37.386a.708.708,0,0,0,.134.7c.134.226.1,0,.2,0a2.992,2.992,0,0,1-.061-.477.493.493,0,0,1,.061-.226,1.187,1.187,0,0,0-.366,0Zm-.976,3.34c.134,0,.256.138.427.2.061-.138.122-.239.159-.339-.2-.063-.33-.126-.488-.163s-.073,0-.1,0Zm6.627-.1c-.073.163-.1.3-.171.477a3.83,3.83,0,0,1,.5.2v-.339Zm20.407,5.8c-.134.138-.232.276-.427.5h.427l.391.1a2.732,2.732,0,0,0-.391-.6ZM40.223,53.584c.293.113.427.075.488,0s-.1-.239-.122-.377a4.771,4.771,0,0,0-.366.377Zm-8.1-14.515a.358.358,0,0,0-.1-.439.558.558,0,0,0-.2,0,4.65,4.65,0,0,1,.122.465ZM62.18,51.324c-.232,0-.269.2-.464.339C62.18,51.7,62.2,51.663,62.18,51.324ZM36.159,95.585a.585.585,0,0,0-.134.176.749.749,0,0,0,.134.163,2.945,2.945,0,0,0,.391-.138C36.317,95.685,36.256,95.622,36.159,95.585Zm-3.93-61.3v-.138h-.366a3.468,3.468,0,0,1,.061.4C32.119,34.411,32.229,34.348,32.229,34.285Zm-9.349,5.223a1.421,1.421,0,0,0,.061.515,2.616,2.616,0,0,0,.33-.276Zm40.2,10.045c0,.264.122.4.391.3.012-.213-.049-.352-.342-.314ZM37.306,59.762a.811.811,0,0,0,.061.314h.464a.09.09,0,0,1,0-.075,3.285,3.285,0,0,1-.525-.239ZM26.248,57.728h-.366a1.112,1.112,0,0,1,.073.2,2.79,2.79,0,0,0,.293-.2Zm-2.331-17.3c-.1-.138.1-.377-.269-.339v.339Zm8.544,8.136v.377a.629.629,0,0,1,.2,0V48.6Zm-8.373-7.835v.439l.269-.1a1.751,1.751,0,0,0-.22-.339Zm8.739-3.767c.122-.176.2-.239.293-.377h-.293ZM31.02,40.639c0-.276-.1-.276-.232-.176s0,.1,0,.176Zm-1.465,7.923c0,.264.1.264.232.163s0-.1,0-.163Zm6.823-8.789c0-.264-.1-.264-.22-.163s0,.1,0,.163ZM25.027,37.261h-.122v.3h.061Zm8.763,3.1c.1,0,.159-.1.366-.2h-.366Zm-.561,20.693v.1h.2V61.08Zm-.854-10.5h.1v-.2H32.4ZM27.346,29.652h-.1v.2h.1ZM37.574,93.927h-.061v.213h.061ZM32.692,32.251v-.1h-.2v.063Zm-21.359.276h-.061v.239h.061Zm23.959,7.019v-.1h-.2v.063Zm6.981,21.233ZM33,34.85h0v-.138h0Zm-1.221-1.544ZM34.67,52.04ZM23.221,40.488ZM41.334,46.5h0v-.075h0Zm-4.064-5.437Zm-6.261.439h0v.138h0ZM29.031,22.834h0v.138h0ZM30.8,42.007h0v.138h0Zm0,2.3h0v-.138h0ZM41.395,72.456h0v-.126h0Z" transform="translate(0)" fill="#363f66"/>
    <path id="Trazado_23593" data-name="Trazado 23593" d="M26.38,77.79v-1a2.519,2.519,0,0,1-.27-.18,1.831,1.831,0,0,0-.11-.35c.19-.3.05-.57-.22-.81a1.56,1.56,0,0,0-.08-.59,1.07,1.07,0,0,1,0-.94c0-.06,0-.16,0-.22l-.29-.29a2.35,2.35,0,0,1,0-.46.75.75,0,0,0-.11-.48,1,1,0,0,1-.05-.73c0-.11.08-.22.05-.32a1.46,1.46,0,0,1,0-1,1.61,1.61,0,0,0,0-.49c0-.16-.05-.32.08-.45s0-.14,0-.19-.27-.4,0-.59V68a1,1,0,0,1-.19-.76,2.83,2.83,0,0,1-.38-.78,1.35,1.35,0,0,0,.22-.24L25,66a1.32,1.32,0,0,1-.35-1c0-.19-.13-.35-.1-.54s-.06-.4.1-.59a.21.21,0,0,0,0-.19,5.42,5.42,0,0,0-.51-2,2.26,2.26,0,0,1-.35-1.29,4.13,4.13,0,0,1-.08-.78c0-.06,0-.08,0-.16.24,0,.3.24.46.32a2,2,0,0,0,.13.75,2.09,2.09,0,0,1,.08.75l.14.14c.08-.06.13-.14.19-.19H25l.16.16c0,.08-.08.16-.1.24a2.506,2.506,0,0,0,.1.62,6.933,6.933,0,0,0,.16.7,3.9,3.9,0,0,1,.11,1c0,.24.08.48.11.78.08,0,.19.16.27.21v.25l-.19.08v.56c.08.14.19.27.3.43a.672.672,0,0,1-.09.67,2.2,2.2,0,0,0,.3.19.79.79,0,0,0,.11,1l-.51.75c.16.32.16.32-.08.73A5,5,0,0,1,25.73,72h.05a.24.24,0,0,0,.14,0,2.053,2.053,0,0,0,.13.53,1.91,1.91,0,0,1,0,1.29c.11.17.25.35.38.57a4.308,4.308,0,0,1,.13,1.16,1,1,0,0,1,.25.69,1,1,0,0,0,.13.57c.08.13,0,.29.11.48l.21.22c.08.21.16.37.24.64V79a.65.65,0,0,1,.19.54,2.29,2.29,0,0,0,.27.94v-.75a3.19,3.19,0,0,1,.41-.16v-.24H28c.06-.38.08-.7.11-1-.35-.13-.27-.4-.3-.67a2.9,2.9,0,0,0,.22-.19,8,8,0,0,0,.46,1.13.57.57,0,0,1,0,.54c.08.16.13.3.21.46s.11.19.08.24a2.45,2.45,0,0,0-.08,1s-.05.08-.08.08a.37.37,0,0,0,.38.32v.35c.1.08.19.19.29.27s.11,0,.11-.08v-.51a.493.493,0,0,1-.27-.06,2,2,0,0,1-.13-.8,5,5,0,0,0,.08-.54.911.911,0,0,1,.11-.54c.11-.16-.14-.27,0-.46s0-.29-.09-.43a3.43,3.43,0,0,1-.16-.56c.11-.22.25-.51.41-.81a1.929,1.929,0,0,0,.27.19l-.09.24a.38.38,0,0,0,0,.41.88.88,0,0,1,.14.64l-.22.14.22.21c.05.35-.06.59.1.83a.36.36,0,0,1,0,.25,1.42,1.42,0,0,0-.08.64v.62l.19.19v.4l-.16.16-.19-.1-.13.21c-.19-.08-.3-.16-.49-.24h-.43a1.428,1.428,0,0,0-.13-.4,1.189,1.189,0,0,1,.13-.22,1.641,1.641,0,0,0-.19-.08c-.08-.24,0-.46-.21-.54v.57a5.47,5.47,0,0,1-.46.4l-.19-.19h-.37a.86.86,0,0,1-.35-.62c.11-.16.29-.27.32-.51s.05-.21,0-.32a.49.49,0,0,1,0-.51,3.321,3.321,0,0,1-.38-.3l.08-.32c-.21-.13,0-.29,0-.48a1.67,1.67,0,0,1,.11-.51Zm-1-12.21a2.739,2.739,0,0,1-.18.32l.4-.05a2.13,2.13,0,0,0-.25-.27Z" transform="translate(3.78 15.9)" fill="#363f66"/>
    <path id="Trazado_23594" data-name="Trazado 23594" d="M26,60a1.11,1.11,0,0,1,.38.86,4.75,4.75,0,0,0,.26,1.35c0,.08.06.16,0,.21a.43.43,0,0,0,0,.46,4.1,4.1,0,0,1,.27.86.55.55,0,0,1-.05.54c.38.26.86.45,1,1,.08.06.16.08.27.16-.06.41.29.73.18,1.13a3.5,3.5,0,0,1,.41,1.13.943.943,0,0,1-.19.51c-.08.13.08.3.11.43a1.532,1.532,0,0,0,.16.68.24.24,0,0,1,0,.21c-.19.19-.06.35,0,.49l-.11.1h0a6.31,6.31,0,0,1,.38,1.45,2.94,2.94,0,0,0,.27.57c.08.24-.08.51.13.7-.1.16-.18.29,0,.45a.759.759,0,0,0-.08.11,2.3,2.3,0,0,0,.1.35c-.16.08-.21.24-.32.35L28.8,74l-.41-.51c.14-.19.08-.46.35-.56a3.14,3.14,0,0,1-.24-.33c.05-.32.13-.67.21-1a1.82,1.82,0,0,0-.37-.13v-.65l.27-.4c-.35,0-.27-.43-.51-.59h-.35c-.14.19-.3.43-.49.67H27.1s-.05,0-.05-.08a2.12,2.12,0,0,1,.08-.83.43.43,0,0,1,.21-.27c.06,0,.08-.11.14-.19.29,0,.46.24.67.35.08-.16.16-.32.27-.51a2.55,2.55,0,0,1-.4-.27l-.14.11c-.21-.06-.43-.08-.7-.14a2.23,2.23,0,0,0,.32-.38.94.94,0,0,0,.19.14.47.47,0,0,0,.06-.19l.05.05v-.18l-.27-.38c-.11.11-.19.16-.29.27a4.9,4.9,0,0,1-.65-.11c-.05-.13-.11-.21-.13-.29l.48-.49c.24,0,.43-.24.65-.43a1.31,1.31,0,0,0-.25-1l-.43-.16c-.05-.08-.16-.24-.27-.38a3.13,3.13,0,0,0,.11-.48l-.27-.27h-.32c.08-.51-.24-1-.13-1.56a3.09,3.09,0,0,1-.11-.38,1.6,1.6,0,0,0,0-.61,2.89,2.89,0,0,1-.17-1c0-.26-.18-.45-.24-.72a1.28,1.28,0,0,1,0-.7l-.24-.81c-.08-.27-.11-.54-.19-.78a2.9,2.9,0,0,1-.24-.59,1.41,1.41,0,0,1-.05-.35c0-.19.08-.43,0-.56s0-.38-.16-.51,0-.19,0-.27a.45.45,0,0,0,.19-.38c-.19-.24-.57-.46-.27-.89l-.22-.13V53.8c.16-.22.43-.35.54-.67l.43.29a3.61,3.61,0,0,0,.11.51,2.77,2.77,0,0,1-.24.27h-.3a.84.84,0,0,1-.27-.13.75.75,0,0,0,.86.43c.11.4-.08.86.14,1.21a4.22,4.22,0,0,0-.43.4.69.69,0,0,0,.13.16,1.41,1.41,0,0,1,.48,1.16c0,.13-.05.3.08.4,0,.46.3.92.19,1.37A4.15,4.15,0,0,0,26,60Zm3,13a4.93,4.93,0,0,1-.14.48.1.1,0,0,1,.06,0l.24-.46A.5.5,0,0,0,29,73ZM24.8,53.8c.16-.13.22-.24.14-.4H24.8Z" transform="translate(3.842 11.637)" fill="#363f66"/>
    <path id="Trazado_23595" data-name="Trazado 23595" d="M26.46,84.08v-.46c-.08.08-.16.13-.16.19a1.83,1.83,0,0,0,.05.4.35.35,0,0,1-.16.06,2.13,2.13,0,0,0-.3-.27c-.05-.35.3-.57.51-.81.16.08.33.13.49.22a2.57,2.57,0,0,0,.16-.41c.48,0,.62.41.94.51v.19a2.14,2.14,0,0,1-.27.16v.35l-.19.14c0,.29.06.56.08.8l-.37.16v.46h.53v-.29c.19-.25.57-.3.49-.73a2.491,2.491,0,0,0,.27-.22,5.59,5.59,0,0,0,.1-.64c-.05,0-.1-.16-.21-.27a.47.47,0,0,1,.16-.05c.19,0,.24.13.38.24l-.08.08c0,.11.08.24.1.38a1.25,1.25,0,0,0-.24.18,1.08,1.08,0,0,1,.19.17h.43a1.733,1.733,0,0,0-.08-.43c-.03-.13-.05-.3-.08-.46l.38-.3v-.37l.37.16a.86.86,0,0,1-.11.24,5.109,5.109,0,0,0,.22.48l-.35.27.08.08c-.05.19-.13.41-.19.62a1,1,0,0,1,.08.27c-.24,0-.21.27-.37.43h-.16a1.7,1.7,0,0,1-1,.59c-.32.35-.83.46-1.18.78a2.75,2.75,0,0,1-1,.49,3.25,3.25,0,0,1-.86.08c-.06-.14-.08-.27-.14-.38h-.45c-.11.08-.19.19-.38.19s-.16.24-.19.45l-.43-.37a5.459,5.459,0,0,0-.56.11.68.68,0,0,1-.08-.22l-.59.11-.17-.16-.56-.16V86.6c.19.11.35.22.56.33h.65c.05-.14,0-.33.24-.38l.22.3c.08-.11.13-.22.21-.33l.3.14.16-.24c.21.24.43.08.64.16a.43.43,0,0,1,.08.19l.19-.14a1.6,1.6,0,0,1,.19-.16h.3a1.21,1.21,0,0,1,1-.59c.06-.3.3-.3.51-.43a2.1,2.1,0,0,0-.08-.32c-.03-.13.11-.17.16-.27s0-.27.08-.35a.4.4,0,0,0,.11-.38l-.19.08C26.67,84.32,26.56,84.21,26.46,84.08Zm-.6,2.58c0-.24,0-.24-.18-.38l-.16.24.13.14Zm-1.55.51.08-.08-.17-.22A1,1,0,0,1,24,87Z" transform="translate(3.43 15.9)" fill="#363f66"/>
    <path id="Trazado_23596" data-name="Trazado 23596" d="M11.51,19.79v-.27c.29-.27.72-.13,1.05-.35v-.43a1.22,1.22,0,0,0-.86.24,1.08,1.08,0,0,1-.73.25c-.65.37-.83.37-1.05,0H9.73L9.49,19a1.39,1.39,0,0,1,.35-1,3.011,3.011,0,0,0-.08-.6c.38-.16.24-.64.56-.78.14-.26.14-.64.43-.8l1-.11a.22.22,0,0,1,.1.24.57.57,0,0,0,.27.51c.62.46.46.38,1.24.38l.21.21a.266.266,0,0,0,.09.25.84.84,0,0,1,.16.56.51.51,0,0,0,.05.22.43.43,0,0,1,0,.4.19.19,0,0,0-.05.13.86.86,0,0,1-.54.86c-.08,0-.11.19-.24.22v.3l-.33.16-.37-.19A5.331,5.331,0,0,0,11.51,19.79Zm-.14-2.23c-.08-.11-.1-.24-.19-.27a4.43,4.43,0,0,0-.72-.13v.61l.46-.21c.05.24.1.51.16.83.19-.16.32-.32.48-.45H12a.78.78,0,0,0,.33-.7c-.33.1-.63.21-.96.32Zm.14.86v.21a.58.58,0,0,1,.19,0,.36.36,0,0,1,0-.16.27.27,0,0,0-.19-.05Zm-.89.56V18.9h-.16V19Zm-.22.22h0v.11h0Z" fill="#363f66"/>
    <path id="Trazado_23597" data-name="Trazado 23597" d="M33.9,83a.358.358,0,0,0-.1-.22h-.33a.221.221,0,0,1-.08.19,7.451,7.451,0,0,1-1.13-.51,3.451,3.451,0,0,0,.27-.29l.3.08.24-.11a2.539,2.539,0,0,0-.11-.38.27.27,0,0,1,.11-.05c.16,0,.24-.08.3-.24a1.5,1.5,0,0,1,.18-.38v-.3a1.251,1.251,0,0,1,.17-.16l.08.08c.27,0,.1-.29.18-.43a1.09,1.09,0,0,0,.17,0V79.8c.18-.17.32,0,.43,0a10.581,10.581,0,0,1,.91.67,3,3,0,0,1,.32-.08c.08.14.22.32.33.51s.53.06.56.46c.3-.11.46.11.65.24a3.69,3.69,0,0,1,.69.62h.38l.54.38h.94c.19.13.35.26.56.43-.16.18-.29.37-.43.53a5.13,5.13,0,0,0-1.56.14c0-.08-.13-.16-.26-.35a2.268,2.268,0,0,1,.43.13c0-.05.08-.1.13-.16a.49.49,0,0,0-.19-.43c-.21-.16-.45-.32-.7-.48a1.72,1.72,0,0,0-.27.24c-.53-.27-1.1-.57-1.64-.89a3,3,0,0,1-.29.11c-.08-.08-.16-.13-.24-.22s-.22.09-.38.14c-.11-.22-.24-.4-.35-.62a1.38,1.38,0,0,0-.13.22c-.3-.06-.54-.08-.81-.14v.35c0,.05.16.11.32.24h.11l.3.3.16.51.48-.24c.35.19.73.37,1.13.56,0,.14-.08.22-.27.22a4,4,0,0,0-.4-.22c-.14.16-.24.3-.32.41C34.82,83.24,34.39,83.16,33.9,83Zm-.48-.81a1.8,1.8,0,0,1,0,.19h.06v-.16Z" transform="translate(6.263 15.9)" fill="#363f66"/>
    <path id="Trazado_23598" data-name="Trazado 23598" d="M27.8,47c.19.25.35.16.51.06.35.45.67.59.54,1.34H27.29a2.61,2.61,0,0,1-.22-.27h-.53c-.19-.16-.38-.29-.59-.45.59-.33.61-.25,1.85.08Z" transform="translate(4.028 7.037)" fill="#363f66"/>
    <path id="Trazado_23599" data-name="Trazado 23599" d="M34.2,73.62l-.59.59.16.19.13-.14a.71.71,0,0,0-.16-.16l.35.11c-.13.27-.24.51-.37.83v.38l-.35.35c-.11-.19-.22-.4-.35-.65a.65.65,0,0,0,.19-.1,3.659,3.659,0,0,1,.13-.7,2.214,2.214,0,0,1,.08-.59c.08-.18,0-.33,0-.49a6.115,6.115,0,0,1,.24-.91c.05-.32.27-.38.38-.51h.24a.08.08,0,0,1,0,.08,1.42,1.42,0,0,1-.08.64.47.47,0,0,0,0,.35,3.52,3.52,0,0,1,0,.73Z" transform="translate(5.484 13.091)" fill="#363f66"/>
    <path id="Trazado_23600" data-name="Trazado 23600" d="M35.46,67.3v-.24a.93.93,0,0,0,.27,0c.11.35-.16.59-.27.86.06.11.14.24.19.35-.11.19-.24.38-.37.57v.67a2.62,2.62,0,0,0-.3.24V70l-.19.19v.56c-.16.25-.35.52-.56.84a5.59,5.59,0,0,0-.25-.73,7.161,7.161,0,0,0,.38-.64,1.32,1.32,0,0,0,0-.43c.08-.19.13-.35.19-.49s.16-.29.29-.53A.85.85,0,0,1,35,68.2a3.594,3.594,0,0,1,.11-.67,3,3,0,0,0,.35-.23Z" transform="translate(5.766 12.083)" fill="#363f66"/>
    <path id="Trazado_23601" data-name="Trazado 23601" d="M23.82,59.31h-.19l-.13-.13a2.18,2.18,0,0,0-.19-1.08c-.08-.1,0-.32,0-.48s.08-.13.08-.19a.94.94,0,0,0,0-.29l-.29-.3a5.031,5.031,0,0,1,.13-.81h.13a2.73,2.73,0,0,0,.43.95c-.08.48.17,1,.09,1.45a1.37,1.37,0,0,1,.08.78.41.41,0,0,0-.14.1Z" transform="translate(3.208 9.315)" fill="#363f66"/>
    <path id="Trazado_23602" data-name="Trazado 23602" d="M29.52,75a3.12,3.12,0,0,1,0,.92,3.42,3.42,0,0,0,0,.91l-.19.19c-.05-.16-.11-.3-.16-.51a.92.92,0,0,1-.14-.11V76c-.05,0-.13-.1-.18-.16v-.27l.4-.56-.32-.32a.64.64,0,0,0-.17.13l-.26-.43.26-.08a.78.78,0,0,0,.6.11,5.31,5.31,0,0,1,.16.58Z" transform="translate(4.439 15.9)" fill="#363f66"/>
    <path id="Trazado_23603" data-name="Trazado 23603" d="M24.28,85.64c-.08.29-.3.35-.49.45h-.56l-.11.14c-.21.13-.43-.06-.56.16-.22-.08-.43-.13-.65-.22.06-.13.11-.21.16-.34.35,0,.62-.41,1-.41.16.06.21.27.4.19.08.13.24,0,.32.11C23.93,85.56,24.09,85.61,24.28,85.64Z" transform="translate(3.039 15.9)" fill="#363f66"/>
    <path id="Trazado_23604" data-name="Trazado 23604" d="M27.32,73.89c.1.19.16.27.21.37v.25A4.36,4.36,0,0,0,27.75,76a4.19,4.19,0,0,1,.16,1.26l-.11.11-.24-.11c-.11-.21-.22-.43,0-.64a6.589,6.589,0,0,0-.32-.65c.11-.19.16-.32.24-.46l-.21-.21A10.57,10.57,0,0,1,27.32,73.89Z" transform="translate(4.12 15.9)" fill="#363f66"/>
    <path id="Trazado_23605" data-name="Trazado 23605" d="M27,71.82a1.929,1.929,0,0,1,.19-.16,4.169,4.169,0,0,1,.26.37c-.05.41.14.86-.21,1.27v.43a2.23,2.23,0,0,1-.27-.14C27,73,27,72.44,27,71.82Z" transform="translate(4.043 12.703)" fill="#363f66"/>
    <path id="Trazado_23606" data-name="Trazado 23606" d="M31.59,49.15c.14.14.24.24.38.4v.22c-.08.19-.35.24-.38.48a.78.78,0,0,0-.46.49,1.23,1.23,0,0,1-.1-.32.74.74,0,0,1,.27-.62v-.41a1.72,1.72,0,0,0,.29-.24Z" transform="translate(4.997 7.541)" fill="#363f66"/>
    <path id="Trazado_23607" data-name="Trazado 23607" d="M32,82.11a2.356,2.356,0,0,0,.1.38h-.27c-.13-.13-.27-.27-.43-.46a1,1,0,0,1,.25,0s.08.06.1.08.19-.18.3-.26,0,0,.05,0a.64.64,0,0,0-.1.26Z" transform="translate(5.054 15.9)" fill="#363f66"/>
    <path id="Trazado_23608" data-name="Trazado 23608" d="M29.6,82.14c.46-.13.27.35.54.46l-.22.21h-.13a.67.67,0,0,1-.19-.67Z" transform="translate(4.632 15.9)" fill="#363f66"/>
    <path id="Trazado_23609" data-name="Trazado 23609" d="M10.75,26.67a2.31,2.31,0,0,0-.21.19c-.11-.05-.11-.05-.08-.48l.13-.14A4.29,4.29,0,0,1,10.75,26.67Z" fill="#363f66"/>
    <path id="Trazado_23610" data-name="Trazado 23610" d="M27.26,71.28H27.1a.64.64,0,0,1,.22-.67c.08.16,0,.24-.06.35S27.26,71.17,27.26,71.28Z" transform="translate(4.049 12.22)" fill="#363f66"/>
    <path id="Trazado_23611" data-name="Trazado 23611" d="M26.11,55.52c0-.18-.06-.35.13-.45l.14.13v.32Z" transform="translate(3.833 8.734)" fill="#363f66"/>
    <path id="Trazado_23612" data-name="Trazado 23612" d="M33.61,80c.08.09.13.14.16.14s-.16.19-.27.35a.86.86,0,0,0-.11-.24,2.658,2.658,0,0,0,.22-.25Z" transform="translate(5.462 15.9)" fill="#363f66"/>
    <path id="Trazado_23613" data-name="Trazado 23613" d="M25.35,85.21c.11-.41.11-.41.33-.46C25.6,85.1,25.6,85.1,25.35,85.21Z" transform="translate(3.67 15.9)" fill="#363f66"/>
    <path id="Trazado_23614" data-name="Trazado 23614" d="M26.3,65.28v-.51a2.209,2.209,0,0,0,.32.22A3,3,0,0,1,26.3,65.28Z" transform="translate(3.88 10.896)" fill="#363f66"/>
    <path id="Trazado_23615" data-name="Trazado 23615" d="M24.87,85.69h-.22v-.24l.13-.14C24.9,85.42,25,85.53,24.87,85.69Z" transform="translate(3.511 15.9)" fill="#363f66"/>
    <path id="Trazado_23616" data-name="Trazado 23616" d="M27.77,81.77a3.7,3.7,0,0,1-.16.4L27.45,82v-.24Z" transform="translate(4.136 15.9)" fill="#363f66"/>
    <path id="Trazado_23617" data-name="Trazado 23617" d="M12.64,28.21h.29v.16h-.27a.65.65,0,0,1-.02-.16Z" fill="#363f66"/>
    <ellipse id="Elipse_668" data-name="Elipse 668" cx="0.19" cy="0.11" rx="0.19" ry="0.11" transform="translate(33.168 92.9)" fill="#363f66"/>
    <path id="Trazado_23618" data-name="Trazado 23618" d="M26.48,54.26V54.1h.3a1.11,1.11,0,0,1-.3.16Z" transform="translate(3.918 8.485)" fill="#363f66"/>
    <ellipse id="Elipse_669" data-name="Elipse 669" cx="0.03" cy="0.08" rx="0.03" ry="0.08" transform="translate(31.099 57.005)" fill="#363f66"/>
    <ellipse id="Elipse_670" data-name="Elipse 670" cx="0.03" cy="0.08" rx="0.03" ry="0.08" transform="translate(38.655 33.989)" fill="#363f66"/>
    <path id="Trazado_23619" data-name="Trazado 23619" d="M28.58,26.19c-.08-.11-.16-.24-.27-.38a5.23,5.23,0,0,1,.14-1.69l1,.13c.08.14.16.3.24.43a2,2,0,0,1,.38,1,2.47,2.47,0,0,1,.08.43,3.22,3.22,0,0,1,0,.54,2.45,2.45,0,0,0,.27.24h-.57c-.32.27-.64.48-.94.72a.3.3,0,0,0,0,.14h-.25a12,12,0,0,0-.11-1.31A1.128,1.128,0,0,1,28.58,26.19Zm.67-.22v-.29a.93.93,0,0,1-.21.05,1.07,1.07,0,0,1,.21.27Z" transform="translate(4.497)" fill="#363f66"/>
    <path id="Trazado_23620" data-name="Trazado 23620" d="M25.17,26.94c.26-.08.35.19.53.3s.3-.08.49-.14v.68a1.25,1.25,0,0,0-.24,0,.68.68,0,0,0-.19.19l-.51-.16a.73.73,0,0,0-.22-.62,2.5,2.5,0,0,1,.14-.25Z" transform="translate(3.664)" fill="#363f66"/>
    <path id="Trazado_23621" data-name="Trazado 23621" d="M31.35,28.05a6.89,6.89,0,0,1-1.83.34c.08-.1.11-.16.16-.18a2.5,2.5,0,0,1,.41-.19,1.28,1.28,0,0,1,.78-.19h.37a1.16,1.16,0,0,0,.11.22Z" transform="translate(4.749)" fill="#363f66"/>
    <path id="Trazado_23622" data-name="Trazado 23622" d="M27.56,27.56a2.09,2.09,0,0,0-.4.19c-.09-.05-.14-.14-.22-.22.08-.08.13-.16.19-.21a2.93,2.93,0,0,0,.43.13Z" transform="translate(4.048)" fill="#363f66"/>
    <path id="Trazado_23623" data-name="Trazado 23623" d="M31.89,28.53l-.16.16-.25-.43C31.81,28.18,31.83,28.18,31.89,28.53Z" transform="translate(5.04)" fill="#363f66"/>
  </g>
</svg>
