<?xml version="1.0" encoding="utf-8"?>
<!-- Generator: Adobe Illustrator 25.4.1, SVG Export Plug-In . SVG Version: 6.00 Build 0)  -->
<svg version="1.1" id="Capa_1" xmlns="http://www.w3.org/2000/svg" xmlns:xlink="http://www.w3.org/1999/xlink" x="0px" y="0px"
	 viewBox="0 0 24 14" style="enable-background:new 0 0 24 14;" xml:space="preserve">
<style type="text/css">
	.st0{fill:#C33D38;}
</style>
<path id="Icon_simple-tripadvisor" class="st0" d="M22.8,4.6c0.3-0.9,0.6-1.7,1.2-2.4h-4C17.6,0.7,14.8,0,12,0
	C9.1-0.1,6.2,0.7,3.8,2.2H0c0.5,0.7,0.9,1.5,1.2,2.3C0.4,5.6,0,6.8,0,8.1C0,11.4,2.7,14,6,14c1.8,0,3.5-0.8,4.7-2.2l1.3,1.9l1.3-1.9
	c0.6,0.7,1.3,1.3,2.2,1.7c1.4,0.7,3.1,0.7,4.6,0.2c3.1-1.1,4.7-4.5,3.6-7.6l0,0C23.4,5.5,23.1,5,22.8,4.6L22.8,4.6L22.8,4.6z
	 M19.7,12.5c-1.2,0.4-2.5,0.4-3.7-0.1c-0.8-0.4-1.5-1-2-1.7c-0.2-0.3-0.4-0.6-0.5-1c-0.4-1.2-0.4-2.5,0.1-3.6s1.5-2,2.7-2.5
	c2.5-0.9,5.2,0.3,6.2,2.8C23.4,8.9,22.2,11.6,19.7,12.5L19.7,12.5L19.7,12.5L19.7,12.5z M10,10.7c-0.9,1.3-2.4,2.1-4,2.1
	c-2.6,0-4.7-2.2-4.7-4.8s2.2-4.7,4.8-4.7s4.7,2.1,4.7,4.7c0,0.2,0,0.3,0,0.5C10.7,9.3,10.4,10.1,10,10.7L10,10.7z M3,8
	c0,1.6,1.3,3,2.9,3s3-1.3,3-2.9s-1.3-3-2.9-3l0,0C4.3,5.1,3,6.4,3,8z M15,8c0,1.6,1.3,3,2.9,3s3-1.3,3-2.9s-1.3-3-2.9-3l0,0
	C16.4,5.1,15,6.4,15,8L15,8z M5.9,6.1c1.1,0,1.9,0.9,1.9,2S6.9,10,5.8,10S4,9.2,4,8.1S4.8,6.1,5.9,6.1L5.9,6.1z M18,6.1
	c1.1,0,1.9,0.9,1.9,1.9c0,1.1-0.9,2-1.9,2s-2-0.9-2-1.9C16,7,16.9,6.1,18,6.1L18,6.1z M12,1c2,0,4,0.4,5.8,1.1
	c-0.7,0-1.3,0.1-1.9,0.4c-1.5,0.5-2.7,1.6-3.4,3.1c-0.3,0.6-0.5,1.3-0.5,2c-0.3-3.1-2.8-5.4-5.9-5.5C7.9,1.4,9.9,1,12,1L12,1z"/>
</svg>
